<?xml version="1.0" encoding="UTF-8" standalone="no"?>
<!DOCTYPE svg PUBLIC "-//W3C//DTD SVG 1.1//EN"
 "http://www.w3.org/Graphics/SVG/1.1/DTD/svg11.dtd">
<!-- Generated by graphviz version 2.29.20121209.0545 (20121209.0545)
 -->
<!-- Title: controllers_diagram Pages: 1 -->
<svg width="2492pt" height="1345pt"
 viewBox="0.00 0.00 2492.23 1344.54" xmlns="http://www.w3.org/2000/svg" xmlns:xlink="http://www.w3.org/1999/xlink">
<g id="graph0" class="graph" transform="scale(1 1) rotate(0) translate(4 1340.54)">
<title>controllers_diagram</title>
<polygon fill="white" stroke="white" points="-4,5 -4,-1340.54 2489.23,-1340.54 2489.23,5 -4,5"/>
<!-- _diagram_info -->
<g id="node1" class="node"><title>_diagram_info</title>
<text text-anchor="start" x="1884" y="-63.6" font-family="Times,serif" font-size="13.00">Controllers diagram</text>
<text text-anchor="start" x="1884" y="-49.6" font-family="Times,serif" font-size="13.00">Date: Dec 17 2012 &#45; 21:19</text>
<text text-anchor="start" x="1884" y="-35.6" font-family="Times,serif" font-size="13.00">Migration version: 20121218020702</text>
<text text-anchor="start" x="1884" y="-21.6" font-family="Times,serif" font-size="13.00">Generated by RailRoady 1.1.0</text>
<text text-anchor="start" x="1884" y="-7.6" font-family="Times,serif" font-size="13.00">http://railroady.prestonlee.com</text>
</g>
<!-- AddendumsController -->
<g id="node2" class="node"><title>AddendumsController</title>
<ellipse fill="none" stroke="black" cx="141.564" cy="-237.369" rx="92.0841" ry="18"/>
<text text-anchor="middle" x="141.564" y="-233.669" font-family="Times,serif" font-size="14.00">AddendumsController</text>
</g>
<!-- ApplicationController -->
<g id="node3" class="node"><title>ApplicationController</title>
<ellipse fill="none" stroke="black" cx="1248.77" cy="-835.399" rx="90.9839" ry="18"/>
<text text-anchor="middle" x="1248.77" y="-831.699" font-family="Times,serif" font-size="14.00">ApplicationController</text>
</g>
<!-- ApplicationController&#45;&gt;AddendumsController -->
<g id="edge1" class="edge"><title>ApplicationController&#45;&gt;AddendumsController</title>
<path fill="none" stroke="black" d="M1234.17,-817.373C1215.74,-795.459 1182.25,-758.322 1147.64,-733.415 808.999,-489.679 332.504,-306.472 186.092,-253.197"/>
</g>
<!-- BusinessesController -->
<g id="node4" class="node"><title>BusinessesController</title>
<ellipse fill="none" stroke="black" cx="1147.56" cy="-152" rx="87.9851" ry="18"/>
<text text-anchor="middle" x="1147.56" y="-148.3" font-family="Times,serif" font-size="14.00">BusinessesController</text>
</g>
<!-- ApplicationController&#45;&gt;BusinessesController -->
<g id="edge2" class="edge"><title>ApplicationController&#45;&gt;BusinessesController</title>
<path fill="none" stroke="black" d="M1259.47,-817.337C1278.68,-783.407 1317.6,-707.222 1323.9,-636.958 1331.17,-555.967 1315.48,-534.473 1290.61,-457.051 1253.95,-342.881 1184.27,-215.947 1157.97,-169.903"/>
</g>
<!-- DailyDataController -->
<g id="node5" class="node"><title>DailyDataController</title>
<ellipse fill="none" stroke="black" cx="958.883" cy="-1315.14" rx="85.5853" ry="18"/>
<text text-anchor="middle" x="958.883" y="-1311.44" font-family="Times,serif" font-size="14.00">DailyDataController</text>
</g>
<!-- ApplicationController&#45;&gt;DailyDataController -->
<g id="edge3" class="edge"><title>ApplicationController&#45;&gt;DailyDataController</title>
<path fill="none" stroke="black" d="M1248.33,-853.526C1246.89,-887.185 1240.69,-960.924 1214.22,-1016.04 1154.51,-1140.36 1030.05,-1254.71 980.202,-1297.42"/>
</g>
<!-- DailyDataDeliveryExceptionsController -->
<g id="node6" class="node"><title>DailyDataDeliveryExceptionsController</title>
<ellipse fill="none" stroke="black" cx="1951.29" cy="-581.261" rx="157.872" ry="18"/>
<text text-anchor="middle" x="1951.29" y="-577.561" font-family="Times,serif" font-size="14.00">DailyDataDeliveryExceptionsController</text>
</g>
<!-- ApplicationController&#45;&gt;DailyDataDeliveryExceptionsController -->
<g id="edge4" class="edge"><title>ApplicationController&#45;&gt;DailyDataDeliveryExceptionsController</title>
<path fill="none" stroke="black" d="M1307.31,-821.583C1364.9,-807.449 1455.01,-783.872 1531.19,-757.507 1675.63,-707.52 1841.39,-632.569 1913.98,-598.828"/>
</g>
<!-- DailyDataEmployeesController -->
<g id="node7" class="node"><title>DailyDataEmployeesController</title>
<ellipse fill="none" stroke="black" cx="801.75" cy="-736.812" rx="126.178" ry="18"/>
<text text-anchor="middle" x="801.75" y="-733.112" font-family="Times,serif" font-size="14.00">DailyDataEmployeesController</text>
</g>
<!-- ApplicationController&#45;&gt;DailyDataEmployeesController -->
<g id="edge5" class="edge"><title>ApplicationController&#45;&gt;DailyDataEmployeesController</title>
<path fill="none" stroke="black" d="M1187.55,-821.898C1104.58,-803.599 956.863,-771.021 870.276,-751.925"/>
</g>
<!-- DailyDataVehiclesController -->
<g id="node8" class="node"><title>DailyDataVehiclesController</title>
<ellipse fill="none" stroke="black" cx="596.054" cy="-174.386" rx="117.779" ry="18"/>
<text text-anchor="middle" x="596.054" y="-170.686" font-family="Times,serif" font-size="14.00">DailyDataVehiclesController</text>
</g>
<!-- ApplicationController&#45;&gt;DailyDataVehiclesController -->
<g id="edge6" class="edge"><title>ApplicationController&#45;&gt;DailyDataVehiclesController</title>
<path fill="none" stroke="black" d="M1235.46,-817.592C1195.25,-764.214 1070.42,-601.784 951.457,-481.167 834.41,-362.488 677.572,-237.652 619.206,-192.229"/>
</g>
<!-- DeliveryExceptionsController -->
<g id="node9" class="node"><title>DeliveryExceptionsController</title>
<ellipse fill="none" stroke="black" cx="2363.99" cy="-183.793" rx="120.479" ry="18"/>
<text text-anchor="middle" x="2363.99" y="-180.093" font-family="Times,serif" font-size="14.00">DeliveryExceptionsController</text>
</g>
<!-- ApplicationController&#45;&gt;DeliveryExceptionsController -->
<g id="edge7" class="edge"><title>ApplicationController&#45;&gt;DeliveryExceptionsController</title>
<path fill="none" stroke="black" d="M1268.95,-817.746C1291.51,-798.418 1329.49,-767.036 1364.7,-743.431 1724.76,-502.057 2196.24,-265.947 2328.27,-201.17"/>
</g>
<!-- EmployeeManagerAssignmentsController -->
<g id="node10" class="node"><title>EmployeeManagerAssignmentsController</title>
<ellipse fill="none" stroke="black" cx="1124.58" cy="-456.998" rx="164.371" ry="18"/>
<text text-anchor="middle" x="1124.58" y="-453.298" font-family="Times,serif" font-size="14.00">EmployeeManagerAssignmentsController</text>
</g>
<!-- ApplicationController&#45;&gt;EmployeeManagerAssignmentsController -->
<g id="edge8" class="edge"><title>ApplicationController&#45;&gt;EmployeeManagerAssignmentsController</title>
<path fill="none" stroke="black" d="M1242.86,-817.403C1221.94,-753.659 1151.5,-539.023 1130.52,-475.105"/>
</g>
<!-- EmployeePaysController -->
<g id="node11" class="node"><title>EmployeePaysController</title>
<ellipse fill="none" stroke="black" cx="1611.89" cy="-156.727" rx="102.082" ry="18"/>
<text text-anchor="middle" x="1611.89" y="-153.027" font-family="Times,serif" font-size="14.00">EmployeePaysController</text>
</g>
<!-- ApplicationController&#45;&gt;EmployeePaysController -->
<g id="edge9" class="edge"><title>ApplicationController&#45;&gt;EmployeePaysController</title>
<path fill="none" stroke="black" d="M1263.19,-817.261C1304.47,-764.707 1424.86,-606.782 1499.4,-460.765 1552.24,-357.251 1593.03,-222.906 1606.83,-174.823"/>
</g>
<!-- EmployeePsasController -->
<g id="node12" class="node"><title>EmployeePsasController</title>
<ellipse fill="none" stroke="black" cx="1396.41" cy="-460.72" rx="101.282" ry="18"/>
<text text-anchor="middle" x="1396.41" y="-457.02" font-family="Times,serif" font-size="14.00">EmployeePsasController</text>
</g>
<!-- ApplicationController&#45;&gt;EmployeePsasController -->
<g id="edge10" class="edge"><title>ApplicationController&#45;&gt;EmployeePsasController</title>
<path fill="none" stroke="black" d="M1255.89,-817.328C1280.83,-754.032 1364.09,-542.744 1389.19,-479.049"/>
</g>
<!-- EmployeeTerminalsController -->
<g id="node13" class="node"><title>EmployeeTerminalsController</title>
<ellipse fill="none" stroke="black" cx="122.189" cy="-737.224" rx="122.379" ry="18"/>
<text text-anchor="middle" x="122.189" y="-733.524" font-family="Times,serif" font-size="14.00">EmployeeTerminalsController</text>
</g>
<!-- ApplicationController&#45;&gt;EmployeeTerminalsController -->
<g id="edge11" class="edge"><title>ApplicationController&#45;&gt;EmployeeTerminalsController</title>
<path fill="none" stroke="black" d="M1165.47,-828.14C963.889,-810.574 450.032,-765.794 227.538,-746.405"/>
</g>
<!-- EmployeesController -->
<g id="node14" class="node"><title>EmployeesController</title>
<ellipse fill="none" stroke="black" cx="2389.57" cy="-901.255" rx="88.2844" ry="18"/>
<text text-anchor="middle" x="2389.57" y="-897.555" font-family="Times,serif" font-size="14.00">EmployeesController</text>
</g>
<!-- ApplicationController&#45;&gt;EmployeesController -->
<g id="edge12" class="edge"><title>ApplicationController&#45;&gt;EmployeesController</title>
<path fill="none" stroke="black" d="M1336.39,-840.457C1549.65,-852.769 2093.64,-884.172 2304.37,-896.337"/>
</g>
<!-- FedexContractsController -->
<g id="node15" class="node"><title>FedexContractsController</title>
<ellipse fill="none" stroke="black" cx="1945.58" cy="-932.511" rx="105.082" ry="18"/>
<text text-anchor="middle" x="1945.58" y="-928.811" font-family="Times,serif" font-size="14.00">FedexContractsController</text>
</g>
<!-- ApplicationController&#45;&gt;FedexContractsController -->
<g id="edge13" class="edge"><title>ApplicationController&#45;&gt;FedexContractsController</title>
<path fill="none" stroke="black" d="M1323.34,-845.792C1454.91,-864.128 1727.23,-902.08 1863.77,-921.11"/>
</g>
<!-- FlatPaysController -->
<g id="node16" class="node"><title>FlatPaysController</title>
<ellipse fill="none" stroke="black" cx="1530.23" cy="-1318.54" rx="79.0865" ry="18"/>
<text text-anchor="middle" x="1530.23" y="-1314.84" font-family="Times,serif" font-size="14.00">FlatPaysController</text>
</g>
<!-- ApplicationController&#45;&gt;FlatPaysController -->
<g id="edge14" class="edge"><title>ApplicationController&#45;&gt;FlatPaysController</title>
<path fill="none" stroke="black" d="M1252.13,-853.571C1258.92,-887.721 1276.16,-963.215 1305.54,-1020.78 1365.43,-1138.17 1472.09,-1257.09 1513.31,-1300.92"/>
</g>
<!-- FrequenciesController -->
<g id="node17" class="node"><title>FrequenciesController</title>
<ellipse fill="none" stroke="black" cx="1646.81" cy="-489.567" rx="92.0841" ry="18"/>
<text text-anchor="middle" x="1646.81" y="-485.867" font-family="Times,serif" font-size="14.00">FrequenciesController</text>
</g>
<!-- ApplicationController&#45;&gt;FrequenciesController -->
<g id="edge15" class="edge"><title>ApplicationController&#45;&gt;FrequenciesController</title>
<path fill="none" stroke="black" d="M1269.05,-817.774C1337.33,-758.449 1558.35,-566.428 1626.57,-507.156"/>
</g>
<!-- HomeController -->
<g id="node18" class="node"><title>HomeController</title>
<ellipse fill="none" stroke="black" cx="1909.33" cy="-193.27" rx="70.3881" ry="18"/>
<text text-anchor="middle" x="1909.33" y="-189.57" font-family="Times,serif" font-size="14.00">HomeController</text>
</g>
<!-- ApplicationController&#45;&gt;HomeController -->
<g id="edge16" class="edge"><title>ApplicationController&#45;&gt;HomeController</title>
<path fill="none" stroke="black" d="M1263.04,-817.245C1304.98,-764.32 1432.53,-606.532 1552.92,-489.44 1670.87,-374.735 1827.81,-254.295 1886.18,-210.479"/>
</g>
<!-- NotesController -->
<g id="node19" class="node"><title>NotesController</title>
<ellipse fill="none" stroke="black" cx="621.914" cy="-1297.29" rx="69.5877" ry="18"/>
<text text-anchor="middle" x="621.914" y="-1293.59" font-family="Times,serif" font-size="14.00">NotesController</text>
</g>
<!-- ApplicationController&#45;&gt;NotesController -->
<g id="edge17" class="edge"><title>ApplicationController&#45;&gt;NotesController</title>
<path fill="none" stroke="black" d="M1224.96,-852.942C1125.44,-926.271 743.369,-1207.8 645.078,-1280.22"/>
</g>
<!-- PayProfilesController -->
<g id="node20" class="node"><title>PayProfilesController</title>
<ellipse fill="none" stroke="black" cx="148.568" cy="-1234.26" rx="89.8845" ry="18"/>
<text text-anchor="middle" x="148.568" y="-1230.56" font-family="Times,serif" font-size="14.00">PayProfilesController</text>
</g>
<!-- ApplicationController&#45;&gt;PayProfilesController -->
<g id="edge18" class="edge"><title>ApplicationController&#45;&gt;PayProfilesController</title>
<path fill="none" stroke="black" d="M1200.08,-850.743C1119.2,-876.415 952.176,-930.182 812.349,-980.104 574.111,-1065.16 291.777,-1176.97 188.739,-1218.14"/>
</g>
<!-- PaysController -->
<g id="node21" class="node"><title>PaysController</title>
<ellipse fill="none" stroke="black" cx="542.732" cy="-919.113" rx="64.9885" ry="18"/>
<text text-anchor="middle" x="542.732" y="-915.413" font-family="Times,serif" font-size="14.00">PaysController</text>
</g>
<!-- ApplicationController&#45;&gt;PaysController -->
<g id="edge19" class="edge"><title>ApplicationController&#45;&gt;PaysController</title>
<path fill="none" stroke="black" d="M1170.51,-844.678C1028.33,-861.536 730.546,-896.844 602.909,-911.978"/>
</g>
<!-- ProductionPaysController -->
<g id="node22" class="node"><title>ProductionPaysController</title>
<ellipse fill="none" stroke="black" cx="1040.76" cy="-733.236" rx="105.082" ry="18"/>
<text text-anchor="middle" x="1040.76" y="-729.536" font-family="Times,serif" font-size="14.00">ProductionPaysController</text>
</g>
<!-- ApplicationController&#45;&gt;ProductionPaysController -->
<g id="edge20" class="edge"><title>ApplicationController&#45;&gt;ProductionPaysController</title>
<path fill="none" stroke="black" d="M1214.42,-818.529C1175.99,-799.657 1114.09,-769.253 1075.5,-750.302"/>
</g>
<!-- PsaStatesController -->
<g id="node23" class="node"><title>PsaStatesController</title>
<ellipse fill="none" stroke="black" cx="542.749" cy="-555.366" rx="82.5854" ry="18"/>
<text text-anchor="middle" x="542.749" y="-551.666" font-family="Times,serif" font-size="14.00">PsaStatesController</text>
</g>
<!-- ApplicationController&#45;&gt;PsaStatesController -->
<g id="edge21" class="edge"><title>ApplicationController&#45;&gt;PsaStatesController</title>
<path fill="none" stroke="black" d="M1194.91,-820.817C1137.23,-804.697 1043.34,-777.009 964.486,-746.968 816.063,-690.421 645.639,-607.085 575.501,-571.951"/>
</g>
<!-- PsasController -->
<g id="node24" class="node"><title>PsasController</title>
<ellipse fill="none" stroke="black" cx="1627.54" cy="-1003.17" rx="64.189" ry="18"/>
<text text-anchor="middle" x="1627.54" y="-999.473" font-family="Times,serif" font-size="14.00">PsasController</text>
</g>
<!-- ApplicationController&#45;&gt;PsasController -->
<g id="edge22" class="edge"><title>ApplicationController&#45;&gt;PsasController</title>
<path fill="none" stroke="black" d="M1286.12,-851.945C1359.56,-884.476 1521.79,-956.33 1592.94,-987.848"/>
</g>
<!-- PsazipsController -->
<g id="node25" class="node"><title>PsazipsController</title>
<ellipse fill="none" stroke="black" cx="1866.03" cy="-1296.98" rx="75.2868" ry="18"/>
<text text-anchor="middle" x="1866.03" y="-1293.28" font-family="Times,serif" font-size="14.00">PsazipsController</text>
</g>
<!-- ApplicationController&#45;&gt;PsazipsController -->
<g id="edge23" class="edge"><title>ApplicationController&#45;&gt;PsazipsController</title>
<path fill="none" stroke="black" d="M1272.21,-852.93C1370.1,-926.128 1745.58,-1206.91 1842.89,-1279.68"/>
</g>
<!-- RegionsController -->
<g id="node26" class="node"><title>RegionsController</title>
<ellipse fill="none" stroke="black" cx="1243.82" cy="-1315.98" rx="77.9862" ry="18"/>
<text text-anchor="middle" x="1243.82" y="-1312.28" font-family="Times,serif" font-size="14.00">RegionsController</text>
</g>
<!-- ApplicationController&#45;&gt;RegionsController -->
<g id="edge24" class="edge"><title>ApplicationController&#45;&gt;RegionsController</title>
<path fill="none" stroke="black" d="M1248.58,-853.652C1247.79,-929.862 1244.78,-1222.2 1244,-1297.96"/>
</g>
<!-- RolesController -->
<g id="node27" class="node"><title>RolesController</title>
<ellipse fill="none" stroke="black" cx="1368.53" cy="-156.579" rx="68.7879" ry="18"/>
<text text-anchor="middle" x="1368.53" y="-152.879" font-family="Times,serif" font-size="14.00">RolesController</text>
</g>
<!-- ApplicationController&#45;&gt;RolesController -->
<g id="edge25" class="edge"><title>ApplicationController&#45;&gt;RolesController</title>
<path fill="none" stroke="black" d="M1259.39,-817.329C1278.47,-783.388 1317.19,-707.183 1323.9,-636.958 1331.47,-557.809 1290.6,-540.136 1293.42,-460.675 1297.37,-349.264 1343.16,-221.283 1361.25,-174.712"/>
</g>
<!-- ServiceTypesController -->
<g id="node28" class="node"><title>ServiceTypesController</title>
<ellipse fill="none" stroke="black" cx="2351.98" cy="-1283.6" rx="97.4827" ry="18"/>
<text text-anchor="middle" x="2351.98" y="-1279.9" font-family="Times,serif" font-size="14.00">ServiceTypesController</text>
</g>
<!-- ApplicationController&#45;&gt;ServiceTypesController -->
<g id="edge26" class="edge"><title>ApplicationController&#45;&gt;ServiceTypesController</title>
<path fill="none" stroke="black" d="M1294.8,-850.993C1373.28,-877.814 1537.77,-935.05 1674.55,-989.429 1922.38,-1087.95 2214.7,-1220.58 2315.6,-1266.85"/>
</g>
<!-- StatesController -->
<g id="node29" class="node"><title>StatesController</title>
<ellipse fill="none" stroke="black" cx="862.46" cy="-994.017" rx="69.5877" ry="18"/>
<text text-anchor="middle" x="862.46" y="-990.317" font-family="Times,serif" font-size="14.00">StatesController</text>
</g>
<!-- ApplicationController&#45;&gt;StatesController -->
<g id="edge27" class="edge"><title>ApplicationController&#45;&gt;StatesController</title>
<path fill="none" stroke="black" d="M1209.24,-851.629C1134.34,-882.383 972.708,-948.749 899.651,-978.746"/>
</g>
<!-- TerminalsController -->
<g id="node30" class="node"><title>TerminalsController</title>
<ellipse fill="none" stroke="black" cx="864.715" cy="-481.128" rx="85.2851" ry="18"/>
<text text-anchor="middle" x="864.715" y="-477.428" font-family="Times,serif" font-size="14.00">TerminalsController</text>
</g>
<!-- ApplicationController&#45;&gt;TerminalsController -->
<g id="edge28" class="edge"><title>ApplicationController&#45;&gt;TerminalsController</title>
<path fill="none" stroke="black" d="M1231.55,-817.381C1211.68,-796.738 1177.86,-762.069 1147.64,-733.415 1051.9,-642.614 932.58,-539.29 885.343,-498.757"/>
</g>
<!-- UserRolesController -->
<g id="node31" class="node"><title>UserRolesController</title>
<ellipse fill="none" stroke="black" cx="2387.9" cy="-563.208" rx="85.5853" ry="18"/>
<text text-anchor="middle" x="2387.9" y="-559.508" font-family="Times,serif" font-size="14.00">UserRolesController</text>
</g>
<!-- ApplicationController&#45;&gt;UserRolesController -->
<g id="edge29" class="edge"><title>ApplicationController&#45;&gt;UserRolesController</title>
<path fill="none" stroke="black" d="M1303.51,-821.005C1378.44,-801.397 1517.22,-765.432 1636.08,-736.568 1893.48,-674.059 2201.82,-604.679 2328.82,-576.341"/>
</g>
<!-- UsersController -->
<g id="node32" class="node"><title>UsersController</title>
<ellipse fill="none" stroke="black" cx="1376.03" cy="-1020.97" rx="68.7879" ry="18"/>
<text text-anchor="middle" x="1376.03" y="-1017.27" font-family="Times,serif" font-size="14.00">UsersController</text>
</g>
<!-- ApplicationController&#45;&gt;UsersController -->
<g id="edge30" class="edge"><title>ApplicationController&#45;&gt;UsersController</title>
<path fill="none" stroke="black" d="M1261.2,-853.53C1285.59,-889.098 1339.45,-967.631 1363.73,-1003.04"/>
</g>
<!-- VehicleFuelsController -->
<g id="node33" class="node"><title>VehicleFuelsController</title>
<ellipse fill="none" stroke="black" cx="1462.49" cy="-743.558" rx="96.3833" ry="18"/>
<text text-anchor="middle" x="1462.49" y="-739.858" font-family="Times,serif" font-size="14.00">VehicleFuelsController</text>
</g>
<!-- ApplicationController&#45;&gt;VehicleFuelsController -->
<g id="edge31" class="edge"><title>ApplicationController&#45;&gt;VehicleFuelsController</title>
<path fill="none" stroke="black" d="M1286.98,-818.98C1325.64,-802.366 1385.09,-776.818 1423.89,-760.145"/>
</g>
<!-- VehicleOdometersController -->
<g id="node34" class="node"><title>VehicleOdometersController</title>
<ellipse fill="none" stroke="black" cx="904.509" cy="-158.845" rx="116.18" ry="18"/>
<text text-anchor="middle" x="904.509" y="-155.145" font-family="Times,serif" font-size="14.00">VehicleOdometersController</text>
</g>
<!-- ApplicationController&#45;&gt;VehicleOdometersController -->
<g id="edge32" class="edge"><title>ApplicationController&#45;&gt;VehicleOdometersController</title>
<path fill="none" stroke="black" d="M1229.72,-817.451C1176.99,-766.568 1028.43,-614.806 958.543,-456.946 914.683,-357.87 906.422,-225.217 904.868,-177.179"/>
</g>
<!-- VehicleTypesController -->
<g id="node35" class="node"><title>VehicleTypesController</title>
<ellipse fill="none" stroke="black" cx="1113.83" cy="-1015.85" rx="98.5829" ry="18"/>
<text text-anchor="middle" x="1113.83" y="-1012.15" font-family="Times,serif" font-size="14.00">VehicleTypesController</text>
</g>
<!-- ApplicationController&#45;&gt;VehicleTypesController -->
<g id="edge33" class="edge"><title>ApplicationController&#45;&gt;VehicleTypesController</title>
<path fill="none" stroke="black" d="M1235.34,-853.361C1209.47,-887.95 1153.03,-963.428 1127.21,-997.96"/>
</g>
<!-- VehiclesController -->
<g id="node36" class="node"><title>VehiclesController</title>
<ellipse fill="none" stroke="black" cx="1693.53" cy="-750.476" rx="79.8859" ry="18"/>
<text text-anchor="middle" x="1693.53" y="-746.776" font-family="Times,serif" font-size="14.00">VehiclesController</text>
</g>
<!-- ApplicationController&#45;&gt;VehiclesController -->
<g id="edge34" class="edge"><title>ApplicationController&#45;&gt;VehiclesController</title>
<path fill="none" stroke="black" d="M1314.39,-822.869C1400.05,-806.512 1548.85,-778.101 1632.29,-762.169"/>
</g>
<!-- ZipsController -->
<g id="node37" class="node"><title>ZipsController</title>
<ellipse fill="none" stroke="black" cx="1257.96" cy="-636.763" rx="64.189" ry="18"/>
<text text-anchor="middle" x="1257.96" y="-633.063" font-family="Times,serif" font-size="14.00">ZipsController</text>
</g>
<!-- ApplicationController&#45;&gt;ZipsController -->
<g id="edge35" class="edge"><title>ApplicationController&#45;&gt;ZipsController</title>
<path fill="none" stroke="black" d="M1249.61,-817.068C1251.37,-779.131 1255.39,-692.414 1257.13,-654.763"/>
</g>
</g>
</svg>
