<?xml version="1.0" encoding="UTF-8" standalone="no"?>
<!DOCTYPE svg PUBLIC "-//W3C//DTD SVG 1.1//EN"
 "http://www.w3.org/Graphics/SVG/1.1/DTD/svg11.dtd">
<!-- Generated by graphviz version 2.29.20121209.0545 (20121209.0545)
 -->
<!-- Title: models_diagram Pages: 1 -->
<svg width="2766pt" height="1876pt"
 viewBox="0.00 0.00 2766.08 1876.00" xmlns="http://www.w3.org/2000/svg" xmlns:xlink="http://www.w3.org/1999/xlink">
<g id="graph0" class="graph" transform="scale(1 1) rotate(0) translate(4 1872)">
<title>models_diagram</title>
<polygon fill="white" stroke="white" points="-4,5 -4,-1872 2763.08,-1872 2763.08,5 -4,5"/>
<!-- _diagram_info -->
<g id="node1" class="node"><title>_diagram_info</title>
<text text-anchor="start" x="442.076" y="-1703.6" font-family="Times,serif" font-size="13.00">Models diagram</text>
<text text-anchor="start" x="442.076" y="-1689.6" font-family="Times,serif" font-size="13.00">Date: Dec 22 2012 &#45; 19:09</text>
<text text-anchor="start" x="442.076" y="-1675.6" font-family="Times,serif" font-size="13.00">Migration version: 20121221083854</text>
<text text-anchor="start" x="442.076" y="-1661.6" font-family="Times,serif" font-size="13.00">Generated by RailRoady 1.1.0</text>
<text text-anchor="start" x="442.076" y="-1647.6" font-family="Times,serif" font-size="13.00">http://railroady.prestonlee.com</text>
</g>
<!-- Addendum -->
<g id="node2" class="node"><title>Addendum</title>
<path fill="none" stroke="black" d="M121.076,-995C121.076,-995 359.076,-995 359.076,-995 365.076,-995 371.076,-1001 371.076,-1007 371.076,-1007 371.076,-1179 371.076,-1179 371.076,-1185 365.076,-1191 359.076,-1191 359.076,-1191 121.076,-1191 121.076,-1191 115.076,-1191 109.076,-1185 109.076,-1179 109.076,-1179 109.076,-1007 109.076,-1007 109.076,-1001 115.076,-995 121.076,-995"/>
<text text-anchor="middle" x="240.076" y="-1175.8" font-family="Times,serif" font-size="14.00">Addendum</text>
<polyline fill="none" stroke="black" points="109.076,-1168 371.076,-1168 "/>
<text text-anchor="start" x="117.076" y="-1152.8" font-family="Times,serif" font-size="14.00">id :integer</text>
<text text-anchor="start" x="117.076" y="-1137.8" font-family="Times,serif" font-size="14.00">fedexAddendumName :string</text>
<text text-anchor="start" x="117.076" y="-1122.8" font-family="Times,serif" font-size="14.00">fedexAddendumNumber :integer</text>
<text text-anchor="start" x="117.076" y="-1107.8" font-family="Times,serif" font-size="14.00">fedexContractorAddendumName :string</text>
<text text-anchor="start" x="117.076" y="-1092.8" font-family="Times,serif" font-size="14.00">fedexContractorAddendumNumber :integer</text>
<text text-anchor="start" x="117.076" y="-1077.8" font-family="Times,serif" font-size="14.00">content :text</text>
<text text-anchor="start" x="117.076" y="-1062.8" font-family="Times,serif" font-size="14.00">startDate :datetime</text>
<text text-anchor="start" x="117.076" y="-1047.8" font-family="Times,serif" font-size="14.00">endDate :datetime</text>
<text text-anchor="start" x="117.076" y="-1032.8" font-family="Times,serif" font-size="14.00">created_at :datetime</text>
<text text-anchor="start" x="117.076" y="-1017.8" font-family="Times,serif" font-size="14.00">updated_at :datetime</text>
<text text-anchor="start" x="117.076" y="-1002.8" font-family="Times,serif" font-size="14.00">fedexContract_id :integer</text>
</g>
<!-- Note -->
<g id="node17" class="node"><title>Note</title>
<path fill="none" stroke="black" d="M664.076,-0.5C664.076,-0.5 774.076,-0.5 774.076,-0.5 780.076,-0.5 786.076,-6.5 786.076,-12.5 786.076,-12.5 786.076,-139.5 786.076,-139.5 786.076,-145.5 780.076,-151.5 774.076,-151.5 774.076,-151.5 664.076,-151.5 664.076,-151.5 658.076,-151.5 652.076,-145.5 652.076,-139.5 652.076,-139.5 652.076,-12.5 652.076,-12.5 652.076,-6.5 658.076,-0.5 664.076,-0.5"/>
<text text-anchor="middle" x="719.076" y="-136.3" font-family="Times,serif" font-size="14.00">Note</text>
<polyline fill="none" stroke="black" points="652.076,-128.5 786.076,-128.5 "/>
<text text-anchor="start" x="660.076" y="-113.3" font-family="Times,serif" font-size="14.00">id :integer</text>
<text text-anchor="start" x="660.076" y="-98.3" font-family="Times,serif" font-size="14.00">notable_id :integer</text>
<text text-anchor="start" x="660.076" y="-83.3" font-family="Times,serif" font-size="14.00">notable_type :string</text>
<text text-anchor="start" x="660.076" y="-68.3" font-family="Times,serif" font-size="14.00">content :text</text>
<text text-anchor="start" x="660.076" y="-53.3" font-family="Times,serif" font-size="14.00">startDate :datetime</text>
<text text-anchor="start" x="660.076" y="-38.3" font-family="Times,serif" font-size="14.00">endDate :datetime</text>
<text text-anchor="start" x="660.076" y="-23.3" font-family="Times,serif" font-size="14.00">created_at :datetime</text>
<text text-anchor="start" x="660.076" y="-8.3" font-family="Times,serif" font-size="14.00">updated_at :datetime</text>
</g>
<!-- Addendum&#45;&gt;Note -->
<g id="edge1" class="edge"><title>Addendum&#45;&gt;Note</title>
<path fill="none" stroke="#bb3046" d="M236.756,-986.746C239.693,-900.746 257.475,-781.188 326.076,-704 372.67,-651.574 431.443,-706.915 475.076,-652 539.317,-571.148 468.866,-276.627 525.076,-190 552.198,-148.202 600.606,-119.972 642.28,-102.181"/>
<ellipse fill="none" stroke="#bb3046" cx="236.634" cy="-990.963" rx="4" ry="4"/>
<polygon fill="#bb3046" stroke="#bb3046" points="642.367,-102.145 653.328,-102.48 646.987,-100.233 651.607,-98.3219 651.607,-98.3219 651.607,-98.3219 646.987,-100.233 649.887,-94.1637 642.367,-102.145 642.367,-102.145"/>
</g>
<!-- Business -->
<g id="node3" class="node"><title>Business</title>
<path fill="none" stroke="black" d="M715.076,-1240.5C715.076,-1240.5 825.076,-1240.5 825.076,-1240.5 831.076,-1240.5 837.076,-1246.5 837.076,-1252.5 837.076,-1252.5 837.076,-1409.5 837.076,-1409.5 837.076,-1415.5 831.076,-1421.5 825.076,-1421.5 825.076,-1421.5 715.076,-1421.5 715.076,-1421.5 709.076,-1421.5 703.076,-1415.5 703.076,-1409.5 703.076,-1409.5 703.076,-1252.5 703.076,-1252.5 703.076,-1246.5 709.076,-1240.5 715.076,-1240.5"/>
<text text-anchor="middle" x="770.076" y="-1406.3" font-family="Times,serif" font-size="14.00">Business</text>
<polyline fill="none" stroke="black" points="703.076,-1398.5 837.076,-1398.5 "/>
<text text-anchor="start" x="711.076" y="-1383.3" font-family="Times,serif" font-size="14.00">id :integer</text>
<text text-anchor="start" x="711.076" y="-1368.3" font-family="Times,serif" font-size="14.00">name :string</text>
<text text-anchor="start" x="711.076" y="-1353.3" font-family="Times,serif" font-size="14.00">taxIDNumber :string</text>
<text text-anchor="start" x="711.076" y="-1338.3" font-family="Times,serif" font-size="14.00">address :string</text>
<text text-anchor="start" x="711.076" y="-1323.3" font-family="Times,serif" font-size="14.00">city :string</text>
<text text-anchor="start" x="711.076" y="-1308.3" font-family="Times,serif" font-size="14.00">state :string</text>
<text text-anchor="start" x="711.076" y="-1293.3" font-family="Times,serif" font-size="14.00">zip :string</text>
<text text-anchor="start" x="711.076" y="-1278.3" font-family="Times,serif" font-size="14.00">country :string</text>
<text text-anchor="start" x="711.076" y="-1263.3" font-family="Times,serif" font-size="14.00">created_at :datetime</text>
<text text-anchor="start" x="711.076" y="-1248.3" font-family="Times,serif" font-size="14.00">updated_at :datetime</text>
</g>
<!-- Business&#45;&gt;Note -->
<g id="edge2" class="edge"><title>Business&#45;&gt;Note</title>
<path fill="none" stroke="#c9b35c" d="M710.679,-1233.38C671.819,-1164.43 624.433,-1067.99 603.076,-976 563.576,-805.853 527.156,-350.067 597.076,-190 607.381,-166.411 625.307,-145.545 644.296,-128.368"/>
<ellipse fill="none" stroke="#c9b35c" cx="712.678" cy="-1236.91" rx="4.00002" ry="4.00002"/>
<polygon fill="#c9b35c" stroke="#c9b35c" points="644.368,-128.305 654.859,-125.114 648.133,-125.015 651.898,-121.725 651.898,-121.725 651.898,-121.725 648.133,-125.015 648.937,-118.336 644.368,-128.305 644.368,-128.305"/>
</g>
<!-- Psa -->
<g id="node21" class="node"><title>Psa</title>
<path fill="none" stroke="black" d="M287.576,-410.5C287.576,-410.5 454.576,-410.5 454.576,-410.5 460.576,-410.5 466.576,-416.5 466.576,-422.5 466.576,-422.5 466.576,-609.5 466.576,-609.5 466.576,-615.5 460.576,-621.5 454.576,-621.5 454.576,-621.5 287.576,-621.5 287.576,-621.5 281.576,-621.5 275.576,-615.5 275.576,-609.5 275.576,-609.5 275.576,-422.5 275.576,-422.5 275.576,-416.5 281.576,-410.5 287.576,-410.5"/>
<text text-anchor="middle" x="371.076" y="-606.3" font-family="Times,serif" font-size="14.00">Psa</text>
<polyline fill="none" stroke="black" points="275.576,-598.5 466.576,-598.5 "/>
<text text-anchor="start" x="283.576" y="-583.3" font-family="Times,serif" font-size="14.00">id :integer</text>
<text text-anchor="start" x="283.576" y="-568.3" font-family="Times,serif" font-size="14.00">fedexPSAName :string</text>
<text text-anchor="start" x="283.576" y="-553.3" font-family="Times,serif" font-size="14.00">fedexPSANumber :integer</text>
<text text-anchor="start" x="283.576" y="-538.3" font-family="Times,serif" font-size="14.00">contractorPSAName :string</text>
<text text-anchor="start" x="283.576" y="-523.3" font-family="Times,serif" font-size="14.00">contractorPSANumber :integer</text>
<text text-anchor="start" x="283.576" y="-508.3" font-family="Times,serif" font-size="14.00">activeBoolean :boolean</text>
<text text-anchor="start" x="283.576" y="-493.3" font-family="Times,serif" font-size="14.00">startDate :datetime</text>
<text text-anchor="start" x="283.576" y="-478.3" font-family="Times,serif" font-size="14.00">endDate :datetime</text>
<text text-anchor="start" x="283.576" y="-463.3" font-family="Times,serif" font-size="14.00">created_at :datetime</text>
<text text-anchor="start" x="283.576" y="-448.3" font-family="Times,serif" font-size="14.00">updated_at :datetime</text>
<text text-anchor="start" x="283.576" y="-433.3" font-family="Times,serif" font-size="14.00">regions_id :integer</text>
<text text-anchor="start" x="283.576" y="-418.3" font-family="Times,serif" font-size="14.00">businesses_id :integer</text>
</g>
<!-- Business&#45;&gt;Psa -->
<g id="edge3" class="edge"><title>Business&#45;&gt;Psa</title>
<path fill="none" stroke="#e09e1a" d="M720.729,-1233.79C712.865,-1224.66 703.995,-1216.43 694.076,-1210 647.348,-1179.71 608.372,-1232.43 570.076,-1192 495.199,-1112.95 567.575,-804.666 526.076,-704 513.478,-673.439 494.061,-644.06 473.183,-618.005"/>
<ellipse fill="none" stroke="#e09e1a" cx="723.48" cy="-1237.15" rx="4.00002" ry="4.00002"/>
<polygon fill="#e09e1a" stroke="#e09e1a" points="472.992,-617.771 470.147,-607.18 469.827,-613.899 466.663,-610.028 466.663,-610.028 466.663,-610.028 469.827,-613.899 463.179,-612.876 472.992,-617.771 472.992,-617.771"/>
</g>
<!-- Employee -->
<g id="node9" class="node"><title>Employee</title>
<path fill="none" stroke="black" d="M1308.58,-719.5C1308.58,-719.5 1449.58,-719.5 1449.58,-719.5 1455.58,-719.5 1461.58,-725.5 1461.58,-731.5 1461.58,-731.5 1461.58,-948.5 1461.58,-948.5 1461.58,-954.5 1455.58,-960.5 1449.58,-960.5 1449.58,-960.5 1308.58,-960.5 1308.58,-960.5 1302.58,-960.5 1296.58,-954.5 1296.58,-948.5 1296.58,-948.5 1296.58,-731.5 1296.58,-731.5 1296.58,-725.5 1302.58,-719.5 1308.58,-719.5"/>
<text text-anchor="middle" x="1379.08" y="-945.3" font-family="Times,serif" font-size="14.00">Employee</text>
<polyline fill="none" stroke="black" points="1296.58,-937.5 1461.58,-937.5 "/>
<text text-anchor="start" x="1304.58" y="-922.3" font-family="Times,serif" font-size="14.00">id :integer</text>
<text text-anchor="start" x="1304.58" y="-907.3" font-family="Times,serif" font-size="14.00">firstName :string</text>
<text text-anchor="start" x="1304.58" y="-892.3" font-family="Times,serif" font-size="14.00">lastName :string</text>
<text text-anchor="start" x="1304.58" y="-877.3" font-family="Times,serif" font-size="14.00">fedexNumber :integer</text>
<text text-anchor="start" x="1304.58" y="-862.3" font-family="Times,serif" font-size="14.00">contractorNumber :integer</text>
<text text-anchor="start" x="1304.58" y="-847.3" font-family="Times,serif" font-size="14.00">hireDate :date</text>
<text text-anchor="start" x="1304.58" y="-832.3" font-family="Times,serif" font-size="14.00">dateOfBirth :date</text>
<text text-anchor="start" x="1304.58" y="-817.3" font-family="Times,serif" font-size="14.00">activeBoolean :boolean</text>
<text text-anchor="start" x="1304.58" y="-802.3" font-family="Times,serif" font-size="14.00">startDate :datetime</text>
<text text-anchor="start" x="1304.58" y="-787.3" font-family="Times,serif" font-size="14.00">endDate :datetime</text>
<text text-anchor="start" x="1304.58" y="-772.3" font-family="Times,serif" font-size="14.00">terminationDate :datetime</text>
<text text-anchor="start" x="1304.58" y="-757.3" font-family="Times,serif" font-size="14.00">created_at :datetime</text>
<text text-anchor="start" x="1304.58" y="-742.3" font-family="Times,serif" font-size="14.00">updated_at :datetime</text>
<text text-anchor="start" x="1304.58" y="-727.3" font-family="Times,serif" font-size="14.00">business_id :integer</text>
</g>
<!-- Business&#45;&gt;Employee -->
<g id="edge4" class="edge"><title>Business&#45;&gt;Employee</title>
<path fill="none" stroke="#697a69" d="M843.646,-1270.93C955.364,-1181.22 1167.56,-1010.84 1288.57,-913.672"/>
<ellipse fill="none" stroke="#697a69" cx="840.403" cy="-1273.53" rx="4.00002" ry="4.00002"/>
<polygon fill="#697a69" stroke="#697a69" points="1288.61,-913.641 1299.22,-910.888 1292.51,-910.51 1296.41,-907.38 1296.41,-907.38 1296.41,-907.38 1292.51,-910.51 1293.59,-903.871 1288.61,-913.641 1288.61,-913.641"/>
</g>
<!-- Vehicle -->
<g id="node31" class="node"><title>Vehicle</title>
<path fill="none" stroke="black" d="M346.576,-704.5C346.576,-704.5 505.576,-704.5 505.576,-704.5 511.576,-704.5 517.576,-710.5 517.576,-716.5 517.576,-716.5 517.576,-963.5 517.576,-963.5 517.576,-969.5 511.576,-975.5 505.576,-975.5 505.576,-975.5 346.576,-975.5 346.576,-975.5 340.576,-975.5 334.576,-969.5 334.576,-963.5 334.576,-963.5 334.576,-716.5 334.576,-716.5 334.576,-710.5 340.576,-704.5 346.576,-704.5"/>
<text text-anchor="middle" x="426.076" y="-960.3" font-family="Times,serif" font-size="14.00">Vehicle</text>
<polyline fill="none" stroke="black" points="334.576,-952.5 517.576,-952.5 "/>
<text text-anchor="start" x="342.576" y="-937.3" font-family="Times,serif" font-size="14.00">id :integer</text>
<text text-anchor="start" x="342.576" y="-922.3" font-family="Times,serif" font-size="14.00">fedexVehicleNumber :integer</text>
<text text-anchor="start" x="342.576" y="-907.3" font-family="Times,serif" font-size="14.00">fedexVehicleName :string</text>
<text text-anchor="start" x="342.576" y="-892.3" font-family="Times,serif" font-size="14.00">contractorNumber :integer</text>
<text text-anchor="start" x="342.576" y="-877.3" font-family="Times,serif" font-size="14.00">contractorName :string</text>
<text text-anchor="start" x="342.576" y="-862.3" font-family="Times,serif" font-size="14.00">vin :string</text>
<text text-anchor="start" x="342.576" y="-847.3" font-family="Times,serif" font-size="14.00">startDate :datetime</text>
<text text-anchor="start" x="342.576" y="-832.3" font-family="Times,serif" font-size="14.00">endDate :datetime</text>
<text text-anchor="start" x="342.576" y="-817.3" font-family="Times,serif" font-size="14.00">activeBoolean :boolean</text>
<text text-anchor="start" x="342.576" y="-802.3" font-family="Times,serif" font-size="14.00">vehicleType_id :integer</text>
<text text-anchor="start" x="342.576" y="-787.3" font-family="Times,serif" font-size="14.00">vehicleFuel_id :integer</text>
<text text-anchor="start" x="342.576" y="-772.3" font-family="Times,serif" font-size="14.00">vehicleOdometer_id :integer</text>
<text text-anchor="start" x="342.576" y="-757.3" font-family="Times,serif" font-size="14.00">created_at :datetime</text>
<text text-anchor="start" x="342.576" y="-742.3" font-family="Times,serif" font-size="14.00">updated_at :datetime</text>
<text text-anchor="start" x="342.576" y="-727.3" font-family="Times,serif" font-size="14.00">service_type_id :integer</text>
<text text-anchor="start" x="342.576" y="-712.3" font-family="Times,serif" font-size="14.00">business_id :integer</text>
</g>
<!-- Business&#45;&gt;Vehicle -->
<g id="edge5" class="edge"><title>Business&#45;&gt;Vehicle</title>
<path fill="none" stroke="#9a63b3" d="M721.654,-1234.06C713.582,-1224.72 704.412,-1216.36 694.076,-1210 659.091,-1188.46 539.954,-1220.2 510.076,-1192 477.688,-1161.43 489.852,-1037.21 479.076,-994 478.375,-991.187 477.644,-988.353 476.887,-985.503"/>
<ellipse fill="none" stroke="#9a63b3" cx="724.263" cy="-1237.24" rx="4.00002" ry="4.00002"/>
<polygon fill="#9a63b3" stroke="#9a63b3" points="476.861,-985.408 478.559,-974.574 475.54,-980.586 474.218,-975.764 474.218,-975.764 474.218,-975.764 475.54,-980.586 469.878,-976.953 476.861,-985.408 476.861,-985.408"/>
</g>
<!-- DailyDataDeliveryException -->
<g id="node4" class="node"><title>DailyDataDeliveryException</title>
<path fill="none" stroke="black" d="M2548.58,-448C2548.58,-448 2707.58,-448 2707.58,-448 2713.58,-448 2719.58,-454 2719.58,-460 2719.58,-460 2719.58,-572 2719.58,-572 2719.58,-578 2713.58,-584 2707.58,-584 2707.58,-584 2548.58,-584 2548.58,-584 2542.58,-584 2536.58,-578 2536.58,-572 2536.58,-572 2536.58,-460 2536.58,-460 2536.58,-454 2542.58,-448 2548.58,-448"/>
<text text-anchor="middle" x="2628.08" y="-568.8" font-family="Times,serif" font-size="14.00">DailyDataDeliveryException</text>
<polyline fill="none" stroke="black" points="2536.58,-561 2719.58,-561 "/>
<text text-anchor="start" x="2544.58" y="-545.8" font-family="Times,serif" font-size="14.00">id :integer</text>
<text text-anchor="start" x="2544.58" y="-530.8" font-family="Times,serif" font-size="14.00">startDate :datetime</text>
<text text-anchor="start" x="2544.58" y="-515.8" font-family="Times,serif" font-size="14.00">endDate :datetime</text>
<text text-anchor="start" x="2544.58" y="-500.8" font-family="Times,serif" font-size="14.00">dailyData_id :integer</text>
<text text-anchor="start" x="2544.58" y="-485.8" font-family="Times,serif" font-size="14.00">deliveryException_id :integer</text>
<text text-anchor="start" x="2544.58" y="-470.8" font-family="Times,serif" font-size="14.00">created_at :datetime</text>
<text text-anchor="start" x="2544.58" y="-455.8" font-family="Times,serif" font-size="14.00">updated_at :datetime</text>
</g>
<!-- DailyDataDeliveryException&#45;&gt;Note -->
<g id="edge6" class="edge"><title>DailyDataDeliveryException&#45;&gt;Note</title>
<path fill="none" stroke="#200286" d="M2628.35,-439.779C2624.16,-358.997 2603.78,-233.686 2522.08,-170 2453.07,-116.21 1132.51,-85.4972 796.385,-78.5307"/>
<ellipse fill="none" stroke="#200286" cx="2628.54" cy="-443.945" rx="4" ry="4"/>
<polygon fill="#200286" stroke="#200286" points="796.256,-78.5281 786.351,-73.8228 791.257,-78.425 786.258,-78.3218 786.258,-78.3218 786.258,-78.3218 791.257,-78.425 786.165,-82.8209 796.256,-78.5281 796.256,-78.5281"/>
</g>
<!-- DailyDataEmployee -->
<g id="node5" class="node"><title>DailyDataEmployee</title>
<path fill="none" stroke="black" d="M1476.58,-463C1476.58,-463 1599.58,-463 1599.58,-463 1605.58,-463 1611.58,-469 1611.58,-475 1611.58,-475 1611.58,-557 1611.58,-557 1611.58,-563 1605.58,-569 1599.58,-569 1599.58,-569 1476.58,-569 1476.58,-569 1470.58,-569 1464.58,-563 1464.58,-557 1464.58,-557 1464.58,-475 1464.58,-475 1464.58,-469 1470.58,-463 1476.58,-463"/>
<text text-anchor="middle" x="1538.08" y="-553.8" font-family="Times,serif" font-size="14.00">DailyDataEmployee</text>
<polyline fill="none" stroke="black" points="1464.58,-546 1611.58,-546 "/>
<text text-anchor="start" x="1472.58" y="-530.8" font-family="Times,serif" font-size="14.00">id :integer</text>
<text text-anchor="start" x="1472.58" y="-515.8" font-family="Times,serif" font-size="14.00">employee_id :integer</text>
<text text-anchor="start" x="1472.58" y="-500.8" font-family="Times,serif" font-size="14.00">dailyDatum_id :integer</text>
<text text-anchor="start" x="1472.58" y="-485.8" font-family="Times,serif" font-size="14.00">created_at :datetime</text>
<text text-anchor="start" x="1472.58" y="-470.8" font-family="Times,serif" font-size="14.00">updated_at :datetime</text>
</g>
<!-- DailyDataEmployee&#45;&gt;Note -->
<g id="edge7" class="edge"><title>DailyDataEmployee&#45;&gt;Note</title>
<path fill="none" stroke="#0f0250" d="M1508.12,-455.466C1493.99,-430.609 1475.69,-402.374 1455.08,-380 1358.33,-275.014 1325.68,-249.872 1196.08,-190 1063.07,-128.555 893.234,-98.6489 796.256,-85.6505"/>
<ellipse fill="none" stroke="#0f0250" cx="1510.22" cy="-459.229" rx="4.00002" ry="4.00002"/>
<polygon fill="#0f0250" stroke="#0f0250" points="796.153,-85.6371 786.825,-79.8718 791.195,-84.9852 786.238,-84.3334 786.238,-84.3334 786.238,-84.3334 791.195,-84.9852 785.651,-88.795 796.153,-85.6371 796.153,-85.6371"/>
</g>
<!-- DailyDataVehicle -->
<g id="node6" class="node"><title>DailyDataVehicle</title>
<path fill="none" stroke="black" d="M662.576,-463C662.576,-463 777.576,-463 777.576,-463 783.576,-463 789.576,-469 789.576,-475 789.576,-475 789.576,-557 789.576,-557 789.576,-563 783.576,-569 777.576,-569 777.576,-569 662.576,-569 662.576,-569 656.576,-569 650.576,-563 650.576,-557 650.576,-557 650.576,-475 650.576,-475 650.576,-469 656.576,-463 662.576,-463"/>
<text text-anchor="middle" x="720.076" y="-553.8" font-family="Times,serif" font-size="14.00">DailyDataVehicle</text>
<polyline fill="none" stroke="black" points="650.576,-546 789.576,-546 "/>
<text text-anchor="start" x="658.576" y="-530.8" font-family="Times,serif" font-size="14.00">id :integer</text>
<text text-anchor="start" x="658.576" y="-515.8" font-family="Times,serif" font-size="14.00">vehicle_id :integer</text>
<text text-anchor="start" x="658.576" y="-500.8" font-family="Times,serif" font-size="14.00">created_at :datetime</text>
<text text-anchor="start" x="658.576" y="-485.8" font-family="Times,serif" font-size="14.00">updated_at :datetime</text>
<text text-anchor="start" x="658.576" y="-470.8" font-family="Times,serif" font-size="14.00">daily_data_id :integer</text>
</g>
<!-- DailyDataVehicle&#45;&gt;Note -->
<g id="edge8" class="edge"><title>DailyDataVehicle&#45;&gt;Note</title>
<path fill="none" stroke="#a5ddc7" d="M756.332,-455.509C773.91,-423.191 793.123,-381.794 802.076,-342 816.905,-276.092 823.119,-254.195 802.076,-190 798.767,-179.906 794.175,-169.969 788.832,-160.43"/>
<ellipse fill="none" stroke="#a5ddc7" cx="754.308" cy="-459.178" rx="4.00002" ry="4.00002"/>
<polygon fill="#a5ddc7" stroke="#a5ddc7" points="788.814,-160.399 787.605,-149.5 786.272,-156.094 783.73,-151.788 783.73,-151.788 783.73,-151.788 786.272,-156.094 779.855,-154.076 788.814,-160.399 788.814,-160.399"/>
</g>
<!-- DailyDatum -->
<g id="node7" class="node"><title>DailyDatum</title>
<path fill="none" stroke="black" d="M1735.08,-1210.5C1735.08,-1210.5 1899.08,-1210.5 1899.08,-1210.5 1905.08,-1210.5 1911.08,-1216.5 1911.08,-1222.5 1911.08,-1222.5 1911.08,-1439.5 1911.08,-1439.5 1911.08,-1445.5 1905.08,-1451.5 1899.08,-1451.5 1899.08,-1451.5 1735.08,-1451.5 1735.08,-1451.5 1729.08,-1451.5 1723.08,-1445.5 1723.08,-1439.5 1723.08,-1439.5 1723.08,-1222.5 1723.08,-1222.5 1723.08,-1216.5 1729.08,-1210.5 1735.08,-1210.5"/>
<text text-anchor="middle" x="1817.08" y="-1436.3" font-family="Times,serif" font-size="14.00">DailyDatum</text>
<polyline fill="none" stroke="black" points="1723.08,-1428.5 1911.08,-1428.5 "/>
<text text-anchor="start" x="1731.08" y="-1413.3" font-family="Times,serif" font-size="14.00">id :integer</text>
<text text-anchor="start" x="1731.08" y="-1398.3" font-family="Times,serif" font-size="14.00">deliveryStop :integer</text>
<text text-anchor="start" x="1731.08" y="-1383.3" font-family="Times,serif" font-size="14.00">deliveryPackage :integer</text>
<text text-anchor="start" x="1731.08" y="-1368.3" font-family="Times,serif" font-size="14.00">pickupStop :integer</text>
<text text-anchor="start" x="1731.08" y="-1353.3" font-family="Times,serif" font-size="14.00">pickupPackage :integer</text>
<text text-anchor="start" x="1731.08" y="-1338.3" font-family="Times,serif" font-size="14.00">calltag :integer</text>
<text text-anchor="start" x="1731.08" y="-1323.3" font-family="Times,serif" font-size="14.00">didNotAttempt :integer</text>
<text text-anchor="start" x="1731.08" y="-1308.3" font-family="Times,serif" font-size="14.00">inboundLocalService :decimal</text>
<text text-anchor="start" x="1731.08" y="-1293.3" font-family="Times,serif" font-size="14.00">earlyPickUp :integer</text>
<text text-anchor="start" x="1731.08" y="-1278.3" font-family="Times,serif" font-size="14.00">latePickUp :integer</text>
<text text-anchor="start" x="1731.08" y="-1263.3" font-family="Times,serif" font-size="14.00">startTime :datetime</text>
<text text-anchor="start" x="1731.08" y="-1248.3" font-family="Times,serif" font-size="14.00">endTime :datetime</text>
<text text-anchor="start" x="1731.08" y="-1233.3" font-family="Times,serif" font-size="14.00">created_at :datetime</text>
<text text-anchor="start" x="1731.08" y="-1218.3" font-family="Times,serif" font-size="14.00">updated_at :datetime</text>
</g>
<!-- DailyDatum&#45;&gt;Note -->
<g id="edge9" class="edge"><title>DailyDatum&#45;&gt;Note</title>
<path fill="none" stroke="#0ffafa" d="M1919.18,-1308.86C2071.27,-1271.35 2352.84,-1177.3 2478.08,-976 2513.06,-919.761 2504.29,-444.462 2489.08,-380 2467.38,-288.114 2472.67,-242.311 2394.08,-190 2259.95,-100.73 1107.94,-81.3692 796.445,-77.7501"/>
<ellipse fill="none" stroke="#0ffafa" cx="1915.02" cy="-1309.87" rx="4.00001" ry="4.00001"/>
<polygon fill="#0ffafa" stroke="#0ffafa" points="796.158,-77.747 786.21,-73.1331 791.159,-77.6899 786.159,-77.6328 786.159,-77.6328 786.159,-77.6328 791.159,-77.6899 786.108,-82.1325 796.158,-77.747 796.158,-77.747"/>
</g>
<!-- DailyDatum&#45;&gt;DailyDataVehicle -->
<g id="edge10" class="edge"><title>DailyDatum&#45;&gt;DailyDataVehicle</title>
<path fill="none" stroke="#b39cc6" d="M1715.51,-1289.56C1655.91,-1264.33 1579.99,-1229.59 1516.08,-1192 1188.59,-999.389 1113.49,-935.628 827.076,-686 811.201,-672.164 806.584,-668.942 794.076,-652 777.255,-629.215 761.681,-602.163 749.203,-578.28"/>
<ellipse fill="none" stroke="#b39cc6" cx="1719.38" cy="-1291.19" rx="4.00002" ry="4.00002"/>
<polygon fill="#b39cc6" stroke="#b39cc6" points="749.155,-578.188 748.577,-567.237 746.866,-573.743 744.576,-569.297 744.576,-569.297 744.576,-569.297 746.866,-573.743 740.576,-571.358 749.155,-578.188 749.155,-578.188"/>
</g>
<!-- DailyDatum&#45;&gt;Vehicle -->
<g id="edge11" class="edge"><title>DailyDatum&#45;&gt;Vehicle</title>
<path fill="none" stroke="#69e257" d="M1712.63,-1322.86C1492.38,-1306.61 987.829,-1262.68 832.076,-1192 712.071,-1137.54 600.74,-1036.11 525.129,-956.245"/>
<polygon fill="#69e257" stroke="#69e257" points="1712.93,-1322.89 1722.57,-1328.1 1717.91,-1323.25 1722.9,-1323.62 1722.9,-1323.62 1722.9,-1323.62 1717.91,-1323.25 1723.23,-1319.13 1712.93,-1322.89 1712.93,-1322.89"/>
<polygon fill="#69e257" stroke="#69e257" points="524.775,-955.869 521.202,-945.502 521.35,-952.227 517.924,-948.585 517.924,-948.585 517.924,-948.585 521.35,-952.227 514.646,-951.669 524.775,-955.869 524.775,-955.869"/>
</g>
<!-- DailyDatum&#45;&gt;DailyDataEmployee -->
<g id="edge12" class="edge"><title>DailyDatum&#45;&gt;DailyDataEmployee</title>
<path fill="none" stroke="#4f0cc3" d="M1786.06,-1202.31C1753.34,-1074.25 1697.4,-872.424 1631.08,-704 1614.05,-660.77 1590.77,-613.964 1571.76,-577.994"/>
<ellipse fill="none" stroke="#4f0cc3" cx="1787.09" cy="-1206.38" rx="4.00001" ry="4.00001"/>
<polygon fill="#4f0cc3" stroke="#4f0cc3" points="1571.72,-577.921 1571,-566.979 1569.37,-573.506 1567.02,-569.092 1567.02,-569.092 1567.02,-569.092 1569.37,-573.506 1563.05,-571.205 1571.72,-577.921 1571.72,-577.921"/>
</g>
<!-- DailyDatum&#45;&gt;Employee -->
<g id="edge13" class="edge"><title>DailyDatum&#45;&gt;Employee</title>
<path fill="none" stroke="#4ac068" d="M1716.17,-1217.34C1641.41,-1133.88 1540.46,-1021.18 1468.57,-940.916"/>
<polygon fill="#4ac068" stroke="#4ac068" points="1716.17,-1217.35 1719.49,-1227.8 1719.51,-1221.07 1722.85,-1224.8 1722.85,-1224.8 1722.85,-1224.8 1719.51,-1221.07 1726.2,-1221.79 1716.17,-1217.35 1716.17,-1217.35"/>
<polygon fill="#4ac068" stroke="#4ac068" points="1468.38,-940.7 1465.06,-930.249 1465.04,-936.976 1461.71,-933.252 1461.71,-933.252 1461.71,-933.252 1465.04,-936.976 1458.35,-936.254 1468.38,-940.7 1468.38,-940.7"/>
</g>
<!-- DailyDatum&#45;&gt;DailyDataDeliveryException -->
<g id="edge14" class="edge"><title>DailyDatum&#45;&gt;DailyDataDeliveryException</title>
<path fill="none" stroke="#745944" d="M1919.44,-1321.65C2100.03,-1305.25 2465.99,-1264 2570.08,-1192 2754.67,-1064.31 2741.09,-924.674 2700.08,-704 2693.1,-666.488 2678.89,-626.796 2664.92,-593.677"/>
<ellipse fill="none" stroke="#745944" cx="1915.23" cy="-1322.03" rx="4" ry="4"/>
<polygon fill="#745944" stroke="#745944" points="2664.74,-593.259 2664.93,-582.295 2662.77,-588.664 2660.8,-584.069 2660.8,-584.069 2660.8,-584.069 2662.77,-588.664 2656.66,-585.844 2664.74,-593.259 2664.74,-593.259"/>
</g>
<!-- DeliveryException -->
<g id="node8" class="node"><title>DeliveryException</title>
<path fill="none" stroke="black" d="M2538.58,-787C2538.58,-787 2679.58,-787 2679.58,-787 2685.58,-787 2691.58,-793 2691.58,-799 2691.58,-799 2691.58,-881 2691.58,-881 2691.58,-887 2685.58,-893 2679.58,-893 2679.58,-893 2538.58,-893 2538.58,-893 2532.58,-893 2526.58,-887 2526.58,-881 2526.58,-881 2526.58,-799 2526.58,-799 2526.58,-793 2532.58,-787 2538.58,-787"/>
<text text-anchor="middle" x="2609.08" y="-877.8" font-family="Times,serif" font-size="14.00">DeliveryException</text>
<polyline fill="none" stroke="black" points="2526.58,-870 2691.58,-870 "/>
<text text-anchor="start" x="2534.58" y="-854.8" font-family="Times,serif" font-size="14.00">id :integer</text>
<text text-anchor="start" x="2534.58" y="-839.8" font-family="Times,serif" font-size="14.00">exceptionType :string</text>
<text text-anchor="start" x="2534.58" y="-824.8" font-family="Times,serif" font-size="14.00">exceptionDescription :text</text>
<text text-anchor="start" x="2534.58" y="-809.8" font-family="Times,serif" font-size="14.00">created_at :datetime</text>
<text text-anchor="start" x="2534.58" y="-794.8" font-family="Times,serif" font-size="14.00">updated_at :datetime</text>
</g>
<!-- DailyDatum&#45;&gt;DeliveryException -->
<g id="edge15" class="edge"><title>DailyDatum&#45;&gt;DeliveryException</title>
<path fill="none" stroke="#accc91" d="M1921.2,-1322.54C2093.54,-1308.09 2427.52,-1270.55 2512.08,-1192 2592.53,-1117.26 2608.46,-982.347 2610.39,-903.329"/>
<polygon fill="#accc91" stroke="#accc91" points="1921.06,-1322.55 1910.73,-1318.89 1916.08,-1322.96 1911.1,-1323.37 1911.1,-1323.37 1911.1,-1323.37 1916.08,-1322.96 1911.47,-1327.86 1921.06,-1322.55 1921.06,-1322.55"/>
<polygon fill="#accc91" stroke="#accc91" points="2610.4,-903.033 2615.07,-893.113 2610.49,-898.034 2610.57,-893.035 2610.57,-893.035 2610.57,-893.035 2610.49,-898.034 2606.07,-892.956 2610.4,-903.033 2610.4,-903.033"/>
</g>
<!-- DeliveryException&#45;&gt;DailyDataDeliveryException -->
<g id="edge16" class="edge"><title>DeliveryException&#45;&gt;DailyDataDeliveryException</title>
<path fill="none" stroke="#ec452f" d="M2612.64,-778.602C2615.71,-726.51 2620.17,-650.972 2623.51,-594.444"/>
<ellipse fill="none" stroke="#ec452f" cx="2612.39" cy="-782.914" rx="4" ry="4"/>
<polygon fill="#ec452f" stroke="#ec452f" points="2623.53,-594.103 2628.61,-584.386 2623.82,-589.112 2624.12,-584.121 2624.12,-584.121 2624.12,-584.121 2623.82,-589.112 2619.62,-583.855 2623.53,-594.103 2623.53,-594.103"/>
</g>
<!-- Employee&#45;&gt;Note -->
<g id="edge17" class="edge"><title>Employee&#45;&gt;Note</title>
<path fill="none" stroke="#4887d1" d="M1288.76,-803.007C1218.3,-775.21 1117.83,-736.186 1029.08,-704 961.558,-679.516 921.223,-707.856 876.076,-652 811.1,-571.61 858.832,-286.61 822.076,-190 815.506,-172.73 804.893,-156.497 792.922,-142.014"/>
<ellipse fill="none" stroke="#4887d1" cx="1292.62" cy="-804.531" rx="4.00001" ry="4.00001"/>
<polygon fill="#4887d1" stroke="#4887d1" points="792.676,-141.728 789.558,-131.215 789.413,-137.94 786.149,-134.152 786.149,-134.152 786.149,-134.152 789.413,-137.94 782.74,-137.09 792.676,-141.728 792.676,-141.728"/>
</g>
<!-- User -->
<g id="node29" class="node"><title>User</title>
<path fill="none" stroke="black" d="M1832.58,-380.5C1832.58,-380.5 2013.58,-380.5 2013.58,-380.5 2019.58,-380.5 2025.58,-386.5 2025.58,-392.5 2025.58,-392.5 2025.58,-639.5 2025.58,-639.5 2025.58,-645.5 2019.58,-651.5 2013.58,-651.5 2013.58,-651.5 1832.58,-651.5 1832.58,-651.5 1826.58,-651.5 1820.58,-645.5 1820.58,-639.5 1820.58,-639.5 1820.58,-392.5 1820.58,-392.5 1820.58,-386.5 1826.58,-380.5 1832.58,-380.5"/>
<text text-anchor="middle" x="1923.08" y="-636.3" font-family="Times,serif" font-size="14.00">User</text>
<polyline fill="none" stroke="black" points="1820.58,-628.5 2025.58,-628.5 "/>
<text text-anchor="start" x="1828.58" y="-613.3" font-family="Times,serif" font-size="14.00">id :integer</text>
<text text-anchor="start" x="1828.58" y="-598.3" font-family="Times,serif" font-size="14.00">contractorBoolean :boolean</text>
<text text-anchor="start" x="1828.58" y="-583.3" font-family="Times,serif" font-size="14.00">activeBoolean :boolean</text>
<text text-anchor="start" x="1828.58" y="-568.3" font-family="Times,serif" font-size="14.00">employee_id :integer</text>
<text text-anchor="start" x="1828.58" y="-553.3" font-family="Times,serif" font-size="14.00">created_at :datetime</text>
<text text-anchor="start" x="1828.58" y="-538.3" font-family="Times,serif" font-size="14.00">updated_at :datetime</text>
<text text-anchor="start" x="1828.58" y="-523.3" font-family="Times,serif" font-size="14.00">email :string</text>
<text text-anchor="start" x="1828.58" y="-508.3" font-family="Times,serif" font-size="14.00">encrypted_password :string</text>
<text text-anchor="start" x="1828.58" y="-493.3" font-family="Times,serif" font-size="14.00">reset_password_token :string</text>
<text text-anchor="start" x="1828.58" y="-478.3" font-family="Times,serif" font-size="14.00">reset_password_sent_at :datetime</text>
<text text-anchor="start" x="1828.58" y="-463.3" font-family="Times,serif" font-size="14.00">remember_created_at :datetime</text>
<text text-anchor="start" x="1828.58" y="-448.3" font-family="Times,serif" font-size="14.00">sign_in_count :integer</text>
<text text-anchor="start" x="1828.58" y="-433.3" font-family="Times,serif" font-size="14.00">current_sign_in_at :datetime</text>
<text text-anchor="start" x="1828.58" y="-418.3" font-family="Times,serif" font-size="14.00">last_sign_in_at :datetime</text>
<text text-anchor="start" x="1828.58" y="-403.3" font-family="Times,serif" font-size="14.00">current_sign_in_ip :string</text>
<text text-anchor="start" x="1828.58" y="-388.3" font-family="Times,serif" font-size="14.00">last_sign_in_ip :string</text>
</g>
<!-- Employee&#45;&gt;User -->
<g id="edge18" class="edge"><title>Employee&#45;&gt;User</title>
<path fill="none" stroke="#d9ca6a" d="M1469.78,-823.429C1562.01,-803.96 1705.32,-763.34 1806.08,-686 1816.84,-677.736 1826.99,-668.196 1836.47,-657.944"/>
<ellipse fill="none" stroke="#d9ca6a" cx="1465.76" cy="-824.264" rx="4.00001" ry="4.00001"/>
<ellipse fill="#d9ca6a" stroke="#d9ca6a" cx="1839.3" cy="-654.802" rx="4.00002" ry="4.00002"/>
</g>
<!-- Employee&#45;&gt;DailyDataEmployee -->
<g id="edge19" class="edge"><title>Employee&#45;&gt;DailyDataEmployee</title>
<path fill="none" stroke="#4c131b" d="M1467.01,-755.693C1484.84,-734.576 1501.61,-710.795 1513.08,-686 1528.47,-652.697 1534.83,-612.119 1537.28,-579.071"/>
<ellipse fill="none" stroke="#4c131b" cx="1464.32" cy="-758.833" rx="4.00002" ry="4.00002"/>
<polygon fill="#4c131b" stroke="#4c131b" points="1537.28,-579.053 1542.42,-569.362 1537.61,-574.063 1537.93,-569.074 1537.93,-569.074 1537.93,-569.074 1537.61,-574.063 1533.44,-568.785 1537.28,-579.053 1537.28,-579.053"/>
</g>
<!-- EmployeePsa -->
<g id="node12" class="node"><title>EmployeePsa</title>
<path fill="none" stroke="black" d="M657.076,-190.5C657.076,-190.5 781.076,-190.5 781.076,-190.5 787.076,-190.5 793.076,-196.5 793.076,-202.5 793.076,-202.5 793.076,-329.5 793.076,-329.5 793.076,-335.5 787.076,-341.5 781.076,-341.5 781.076,-341.5 657.076,-341.5 657.076,-341.5 651.076,-341.5 645.076,-335.5 645.076,-329.5 645.076,-329.5 645.076,-202.5 645.076,-202.5 645.076,-196.5 651.076,-190.5 657.076,-190.5"/>
<text text-anchor="middle" x="719.076" y="-326.3" font-family="Times,serif" font-size="14.00">EmployeePsa</text>
<polyline fill="none" stroke="black" points="645.076,-318.5 793.076,-318.5 "/>
<text text-anchor="start" x="653.076" y="-303.3" font-family="Times,serif" font-size="14.00">id :integer</text>
<text text-anchor="start" x="653.076" y="-288.3" font-family="Times,serif" font-size="14.00">startDate :datetime</text>
<text text-anchor="start" x="653.076" y="-273.3" font-family="Times,serif" font-size="14.00">endDate :datetime</text>
<text text-anchor="start" x="653.076" y="-258.3" font-family="Times,serif" font-size="14.00">activeBoolean :boolean</text>
<text text-anchor="start" x="653.076" y="-243.3" font-family="Times,serif" font-size="14.00">employee_id :integer</text>
<text text-anchor="start" x="653.076" y="-228.3" font-family="Times,serif" font-size="14.00">psa_id :integer</text>
<text text-anchor="start" x="653.076" y="-213.3" font-family="Times,serif" font-size="14.00">created_at :datetime</text>
<text text-anchor="start" x="653.076" y="-198.3" font-family="Times,serif" font-size="14.00">updated_at :datetime</text>
</g>
<!-- Employee&#45;&gt;EmployeePsa -->
<g id="edge20" class="edge"><title>Employee&#45;&gt;EmployeePsa</title>
<path fill="none" stroke="#ddf78d" d="M1288.27,-825.243C1151.05,-802.534 900.581,-752.972 842.076,-686 751.682,-582.524 848.59,-507.776 798.076,-380 794.135,-370.03 789.154,-360.089 783.619,-350.473"/>
<ellipse fill="none" stroke="#ddf78d" cx="1292.39" cy="-825.919" rx="4.00001" ry="4.00001"/>
<polygon fill="#ddf78d" stroke="#ddf78d" points="783.529,-350.323 782.255,-339.431 780.961,-346.032 778.393,-341.742 778.393,-341.742 778.393,-341.742 780.961,-346.032 774.532,-344.053 783.529,-350.323 783.529,-350.323"/>
</g>
<!-- Employee&#45;&gt;Psa -->
<g id="edge21" class="edge"><title>Employee&#45;&gt;Psa</title>
<path fill="none" stroke="#e45051" d="M1286.3,-816.636C1102.09,-772.06 702.686,-674.491 642.076,-652 585.478,-630.997 525.118,-601.668 475.763,-575.71"/>
<polygon fill="#e45051" stroke="#e45051" points="1286.53,-816.69 1295.19,-823.415 1291.38,-817.866 1296.24,-819.042 1296.24,-819.042 1296.24,-819.042 1291.38,-817.866 1297.3,-814.668 1286.53,-816.69 1286.53,-816.69"/>
<polygon fill="#e45051" stroke="#e45051" points="475.519,-575.581 468.783,-566.927 471.099,-573.243 466.679,-570.905 466.679,-570.905 466.679,-570.905 471.099,-573.243 464.575,-574.883 475.519,-575.581 475.519,-575.581"/>
</g>
<!-- EmployeeTerminal -->
<g id="node13" class="node"><title>EmployeeTerminal</title>
<path fill="none" stroke="black" d="M1051.08,-190.5C1051.08,-190.5 1175.08,-190.5 1175.08,-190.5 1181.08,-190.5 1187.08,-196.5 1187.08,-202.5 1187.08,-202.5 1187.08,-329.5 1187.08,-329.5 1187.08,-335.5 1181.08,-341.5 1175.08,-341.5 1175.08,-341.5 1051.08,-341.5 1051.08,-341.5 1045.08,-341.5 1039.08,-335.5 1039.08,-329.5 1039.08,-329.5 1039.08,-202.5 1039.08,-202.5 1039.08,-196.5 1045.08,-190.5 1051.08,-190.5"/>
<text text-anchor="middle" x="1113.08" y="-326.3" font-family="Times,serif" font-size="14.00">EmployeeTerminal</text>
<polyline fill="none" stroke="black" points="1039.08,-318.5 1187.08,-318.5 "/>
<text text-anchor="start" x="1047.08" y="-303.3" font-family="Times,serif" font-size="14.00">id :integer</text>
<text text-anchor="start" x="1047.08" y="-288.3" font-family="Times,serif" font-size="14.00">startDate :datetime</text>
<text text-anchor="start" x="1047.08" y="-273.3" font-family="Times,serif" font-size="14.00">endDate :datetime</text>
<text text-anchor="start" x="1047.08" y="-258.3" font-family="Times,serif" font-size="14.00">activeBoolean :boolean</text>
<text text-anchor="start" x="1047.08" y="-243.3" font-family="Times,serif" font-size="14.00">employee_id :integer</text>
<text text-anchor="start" x="1047.08" y="-228.3" font-family="Times,serif" font-size="14.00">terminal_id :integer</text>
<text text-anchor="start" x="1047.08" y="-213.3" font-family="Times,serif" font-size="14.00">created_at :datetime</text>
<text text-anchor="start" x="1047.08" y="-198.3" font-family="Times,serif" font-size="14.00">updated_at :datetime</text>
</g>
<!-- Employee&#45;&gt;EmployeeTerminal -->
<g id="edge22" class="edge"><title>Employee&#45;&gt;EmployeeTerminal</title>
<path fill="none" stroke="#646b5c" d="M1289.28,-790.315C1239.11,-758.055 1180.52,-710.85 1149.08,-652 1122.27,-601.818 1115.18,-449.306 1113.45,-351.972"/>
<ellipse fill="none" stroke="#646b5c" cx="1292.92" cy="-792.626" rx="4.00002" ry="4.00002"/>
<polygon fill="#646b5c" stroke="#646b5c" points="1113.44,-351.851 1117.78,-341.78 1113.36,-346.852 1113.28,-341.853 1113.28,-341.853 1113.28,-341.853 1113.36,-346.852 1108.78,-341.926 1113.44,-351.851 1113.44,-351.851"/>
</g>
<!-- Terminal -->
<g id="node28" class="node"><title>Terminal</title>
<path fill="none" stroke="black" d="M896.576,-433C896.576,-433 1089.58,-433 1089.58,-433 1095.58,-433 1101.58,-439 1101.58,-445 1101.58,-445 1101.58,-587 1101.58,-587 1101.58,-593 1095.58,-599 1089.58,-599 1089.58,-599 896.576,-599 896.576,-599 890.576,-599 884.576,-593 884.576,-587 884.576,-587 884.576,-445 884.576,-445 884.576,-439 890.576,-433 896.576,-433"/>
<text text-anchor="middle" x="993.076" y="-583.8" font-family="Times,serif" font-size="14.00">Terminal</text>
<polyline fill="none" stroke="black" points="884.576,-576 1101.58,-576 "/>
<text text-anchor="start" x="892.576" y="-560.8" font-family="Times,serif" font-size="14.00">id :integer</text>
<text text-anchor="start" x="892.576" y="-545.8" font-family="Times,serif" font-size="14.00">fedexTerminalName :string</text>
<text text-anchor="start" x="892.576" y="-530.8" font-family="Times,serif" font-size="14.00">fedexTerminalNumber :integer</text>
<text text-anchor="start" x="892.576" y="-515.8" font-family="Times,serif" font-size="14.00">contractorTerminalName :string</text>
<text text-anchor="start" x="892.576" y="-500.8" font-family="Times,serif" font-size="14.00">contractorTerminalNumber :integer</text>
<text text-anchor="start" x="892.576" y="-485.8" font-family="Times,serif" font-size="14.00">colocationBoolean :boolean</text>
<text text-anchor="start" x="892.576" y="-470.8" font-family="Times,serif" font-size="14.00">created_at :datetime</text>
<text text-anchor="start" x="892.576" y="-455.8" font-family="Times,serif" font-size="14.00">updated_at :datetime</text>
<text text-anchor="start" x="892.576" y="-440.8" font-family="Times,serif" font-size="14.00">regions_id :integer</text>
</g>
<!-- Employee&#45;&gt;Terminal -->
<g id="edge23" class="edge"><title>Employee&#45;&gt;Terminal</title>
<path fill="none" stroke="#2fabae" d="M1287.39,-797.573C1233.81,-770.596 1166.95,-731.922 1116.08,-686 1090.93,-663.304 1067.77,-634.69 1048.49,-607.491"/>
<polygon fill="#2fabae" stroke="#2fabae" points="1287.6,-797.677 1294.54,-806.164 1292.07,-799.907 1296.55,-802.137 1296.55,-802.137 1296.55,-802.137 1292.07,-799.907 1298.55,-798.109 1287.6,-797.677 1287.6,-797.677"/>
<polygon fill="#2fabae" stroke="#2fabae" points="1048.36,-607.303 1046.32,-596.528 1045.5,-603.203 1042.63,-599.104 1042.63,-599.104 1042.63,-599.104 1045.5,-603.203 1038.94,-601.68 1048.36,-607.303 1048.36,-607.303"/>
</g>
<!-- EmployeeManagerAssignment -->
<g id="node10" class="node"><title>EmployeeManagerAssignment</title>
<path fill="none" stroke="black" d="M1268.08,-448C1268.08,-448 1434.08,-448 1434.08,-448 1440.08,-448 1446.08,-454 1446.08,-460 1446.08,-460 1446.08,-572 1446.08,-572 1446.08,-578 1440.08,-584 1434.08,-584 1434.08,-584 1268.08,-584 1268.08,-584 1262.08,-584 1256.08,-578 1256.08,-572 1256.08,-572 1256.08,-460 1256.08,-460 1256.08,-454 1262.08,-448 1268.08,-448"/>
<text text-anchor="middle" x="1351.08" y="-568.8" font-family="Times,serif" font-size="14.00">EmployeeManagerAssignment</text>
<polyline fill="none" stroke="black" points="1256.08,-561 1446.08,-561 "/>
<text text-anchor="start" x="1264.08" y="-545.8" font-family="Times,serif" font-size="14.00">id :integer</text>
<text text-anchor="start" x="1264.08" y="-530.8" font-family="Times,serif" font-size="14.00">startDate :datetime</text>
<text text-anchor="start" x="1264.08" y="-515.8" font-family="Times,serif" font-size="14.00">endDate :datetime</text>
<text text-anchor="start" x="1264.08" y="-500.8" font-family="Times,serif" font-size="14.00">activeBoolean :boolean</text>
<text text-anchor="start" x="1264.08" y="-485.8" font-family="Times,serif" font-size="14.00">employee_id :integer</text>
<text text-anchor="start" x="1264.08" y="-470.8" font-family="Times,serif" font-size="14.00">created_at :datetime</text>
<text text-anchor="start" x="1264.08" y="-455.8" font-family="Times,serif" font-size="14.00">updated_at :datetime</text>
</g>
<!-- Employee&#45;&gt;EmployeeManagerAssignment -->
<g id="edge24" class="edge"><title>Employee&#45;&gt;EmployeeManagerAssignment</title>
<path fill="none" stroke="#24e17f" d="M1362.51,-711.085C1361.63,-702.603 1360.8,-694.183 1360.08,-686 1357.42,-656.023 1355.45,-622.981 1354.04,-594.125"/>
<ellipse fill="none" stroke="#24e17f" cx="1362.96" cy="-715.254" rx="4" ry="4"/>
<polygon fill="#24e17f" stroke="#24e17f" points="1354.04,-594.093 1358.06,-583.891 1353.8,-589.099 1353.56,-584.104 1353.56,-584.104 1353.56,-584.104 1353.8,-589.099 1349.07,-584.318 1354.04,-594.093 1354.04,-594.093"/>
</g>
<!-- Employee&#45;&gt;Employee -->
<g id="edge25" class="edge"><title>Employee&#45;&gt;Employee</title>
<path fill="none" stroke="#625324" d="M1470.45,-860.864C1475.84,-855.873 1479.08,-848.919 1479.08,-840 1479.08,-831.081 1475.84,-824.127 1470.45,-819.136"/>
<polygon fill="#625324" stroke="#625324" points="1470.23,-861.005 1459.39,-862.678 1466.04,-863.728 1461.84,-866.452 1461.84,-866.452 1461.84,-866.452 1466.04,-863.728 1464.29,-870.226 1470.23,-861.005 1470.23,-861.005"/>
<polygon fill="#625324" stroke="#625324" points="1470.23,-818.995 1464.29,-809.774 1466.04,-816.272 1461.84,-813.548 1461.84,-813.548 1461.84,-813.548 1466.04,-816.272 1459.39,-817.322 1470.23,-818.995 1470.23,-818.995"/>
<text text-anchor="middle" x="1506.08" y="-836.3" font-family="Times,serif" font-size="14.00">managers</text>
</g>
<!-- Employee&#45;&gt;EmployeeManagerAssignment -->
<g id="edge26" class="edge"><title>Employee&#45;&gt;EmployeeManagerAssignment</title>
<path fill="none" stroke="#d32468" d="M1367.95,-711.039C1364.51,-671.545 1360.84,-629.279 1357.8,-594.31"/>
<ellipse fill="none" stroke="#d32468" cx="1368.3" cy="-715.114" rx="4" ry="4"/>
<polygon fill="#d32468" stroke="#d32468" points="1357.78,-594.14 1361.4,-583.787 1357.35,-589.158 1356.92,-584.177 1356.92,-584.177 1356.92,-584.177 1357.35,-589.158 1352.43,-584.567 1357.78,-594.14 1357.78,-594.14"/>
<text text-anchor="middle" x="1437.08" y="-674.3" font-family="Times,serif" font-size="14.00">subordinate_relationships</text>
</g>
<!-- Employee&#45;&gt;Employee -->
<g id="edge27" class="edge"><title>Employee&#45;&gt;Employee</title>
<path fill="none" stroke="#de512c" d="M1470.45,-860.864C1475.84,-855.873 1479.08,-848.919 1479.08,-840 1479.08,-831.081 1475.84,-824.127 1470.45,-819.136"/>
<polygon fill="#de512c" stroke="#de512c" points="1470.23,-861.005 1459.39,-862.678 1466.04,-863.728 1461.84,-866.452 1461.84,-866.452 1461.84,-866.452 1466.04,-863.728 1464.29,-870.226 1470.23,-861.005 1470.23,-861.005"/>
<polygon fill="#de512c" stroke="#de512c" points="1470.23,-818.995 1464.29,-809.774 1466.04,-816.272 1461.84,-813.548 1461.84,-813.548 1461.84,-813.548 1466.04,-816.272 1459.39,-817.322 1470.23,-818.995 1470.23,-818.995"/>
<text text-anchor="middle" x="1514.58" y="-836.3" font-family="Times,serif" font-size="14.00">subordinates</text>
</g>
<!-- EmployeePay -->
<g id="node11" class="node"><title>EmployeePay</title>
<path fill="none" stroke="black" d="M1689.58,-198C1689.58,-198 1800.58,-198 1800.58,-198 1806.58,-198 1812.58,-204 1812.58,-210 1812.58,-210 1812.58,-322 1812.58,-322 1812.58,-328 1806.58,-334 1800.58,-334 1800.58,-334 1689.58,-334 1689.58,-334 1683.58,-334 1677.58,-328 1677.58,-322 1677.58,-322 1677.58,-210 1677.58,-210 1677.58,-204 1683.58,-198 1689.58,-198"/>
<text text-anchor="middle" x="1745.08" y="-318.8" font-family="Times,serif" font-size="14.00">EmployeePay</text>
<polyline fill="none" stroke="black" points="1677.58,-311 1812.58,-311 "/>
<text text-anchor="start" x="1685.58" y="-295.8" font-family="Times,serif" font-size="14.00">id :integer</text>
<text text-anchor="start" x="1685.58" y="-280.8" font-family="Times,serif" font-size="14.00">employee_id :integer</text>
<text text-anchor="start" x="1685.58" y="-265.8" font-family="Times,serif" font-size="14.00">startDate :datetime</text>
<text text-anchor="start" x="1685.58" y="-250.8" font-family="Times,serif" font-size="14.00">endDate :datetime</text>
<text text-anchor="start" x="1685.58" y="-235.8" font-family="Times,serif" font-size="14.00">created_at :datetime</text>
<text text-anchor="start" x="1685.58" y="-220.8" font-family="Times,serif" font-size="14.00">updated_at :datetime</text>
<text text-anchor="start" x="1685.58" y="-205.8" font-family="Times,serif" font-size="14.00">pay_id :integer</text>
</g>
<!-- Employee&#45;&gt;EmployeePay -->
<g id="edge28" class="edge"><title>Employee&#45;&gt;EmployeePay</title>
<path fill="none" stroke="#1e31ec" d="M1469.63,-824.53C1563.87,-804.119 1706.76,-756.885 1773.08,-652 1831.99,-558.828 1803.64,-426.443 1775.84,-343.701"/>
<ellipse fill="none" stroke="#1e31ec" cx="1465.71" cy="-825.359" rx="4.00001" ry="4.00001"/>
<polygon fill="#1e31ec" stroke="#1e31ec" points="1775.79,-343.57 1776.8,-332.65 1774.17,-338.841 1772.54,-334.112 1772.54,-334.112 1772.54,-334.112 1774.17,-338.841 1768.29,-335.574 1775.79,-343.57 1775.79,-343.57"/>
</g>
<!-- Pay -->
<g id="node18" class="node"><title>Pay</title>
<path fill="none" stroke="black" d="M1642.08,-463C1642.08,-463 1752.08,-463 1752.08,-463 1758.08,-463 1764.08,-469 1764.08,-475 1764.08,-475 1764.08,-557 1764.08,-557 1764.08,-563 1758.08,-569 1752.08,-569 1752.08,-569 1642.08,-569 1642.08,-569 1636.08,-569 1630.08,-563 1630.08,-557 1630.08,-557 1630.08,-475 1630.08,-475 1630.08,-469 1636.08,-463 1642.08,-463"/>
<text text-anchor="middle" x="1697.08" y="-553.8" font-family="Times,serif" font-size="14.00">Pay</text>
<polyline fill="none" stroke="black" points="1630.08,-546 1764.08,-546 "/>
<text text-anchor="start" x="1638.08" y="-530.8" font-family="Times,serif" font-size="14.00">id :integer</text>
<text text-anchor="start" x="1638.08" y="-515.8" font-family="Times,serif" font-size="14.00">amount :decimal</text>
<text text-anchor="start" x="1638.08" y="-500.8" font-family="Times,serif" font-size="14.00">datetime :datetime</text>
<text text-anchor="start" x="1638.08" y="-485.8" font-family="Times,serif" font-size="14.00">created_at :datetime</text>
<text text-anchor="start" x="1638.08" y="-470.8" font-family="Times,serif" font-size="14.00">updated_at :datetime</text>
</g>
<!-- Employee&#45;&gt;Pay -->
<g id="edge29" class="edge"><title>Employee&#45;&gt;Pay</title>
<path fill="none" stroke="#c40c9c" d="M1469.99,-781.316C1518.42,-747.598 1576.77,-701.915 1620.08,-652 1639.13,-630.043 1655.78,-602.657 1668.68,-578.3"/>
<polygon fill="#c40c9c" stroke="#c40c9c" points="1469.91,-781.366 1459.13,-783.343 1465.8,-784.206 1461.68,-787.047 1461.68,-787.047 1461.68,-787.047 1465.8,-784.206 1464.24,-790.75 1469.91,-781.366 1469.91,-781.366"/>
<polygon fill="#c40c9c" stroke="#c40c9c" points="1668.83,-578.008 1677.43,-571.204 1671.13,-573.57 1673.44,-569.131 1673.44,-569.131 1673.44,-569.131 1671.13,-573.57 1669.44,-567.059 1668.83,-578.008 1668.83,-578.008"/>
</g>
<!-- PayProfile -->
<g id="node19" class="node"><title>PayProfile</title>
<path fill="none" stroke="black" d="M2235.08,-198C2235.08,-198 2373.08,-198 2373.08,-198 2379.08,-198 2385.08,-204 2385.08,-210 2385.08,-210 2385.08,-322 2385.08,-322 2385.08,-328 2379.08,-334 2373.08,-334 2373.08,-334 2235.08,-334 2235.08,-334 2229.08,-334 2223.08,-328 2223.08,-322 2223.08,-322 2223.08,-210 2223.08,-210 2223.08,-204 2229.08,-198 2235.08,-198"/>
<text text-anchor="middle" x="2304.08" y="-318.8" font-family="Times,serif" font-size="14.00">PayProfile</text>
<polyline fill="none" stroke="black" points="2223.08,-311 2385.08,-311 "/>
<text text-anchor="start" x="2231.08" y="-295.8" font-family="Times,serif" font-size="14.00">id :integer</text>
<text text-anchor="start" x="2231.08" y="-280.8" font-family="Times,serif" font-size="14.00">profileName :string</text>
<text text-anchor="start" x="2231.08" y="-265.8" font-family="Times,serif" font-size="14.00">employee_id :integer</text>
<text text-anchor="start" x="2231.08" y="-250.8" font-family="Times,serif" font-size="14.00">created_at :datetime</text>
<text text-anchor="start" x="2231.08" y="-235.8" font-family="Times,serif" font-size="14.00">updated_at :datetime</text>
<text text-anchor="start" x="2231.08" y="-220.8" font-family="Times,serif" font-size="14.00">flatPay_id :integer</text>
<text text-anchor="start" x="2231.08" y="-205.8" font-family="Times,serif" font-size="14.00">productionPay_id :integer</text>
</g>
<!-- Employee&#45;&gt;PayProfile -->
<g id="edge30" class="edge"><title>Employee&#45;&gt;PayProfile</title>
<path fill="none" stroke="#897538" d="M1469.49,-822.38C1686.37,-782.134 2220.24,-680.649 2247.08,-652 2324.28,-569.586 2324.97,-430.684 2316.15,-344.179"/>
<ellipse fill="none" stroke="#897538" cx="1465.53" cy="-823.115" rx="4.00001" ry="4.00001"/>
<polygon fill="#897538" stroke="#897538" points="2316.14,-344.098 2319.54,-333.671 2315.6,-339.128 2315.06,-334.157 2315.06,-334.157 2315.06,-334.157 2315.6,-339.128 2310.59,-334.643 2316.14,-344.098 2316.14,-344.098"/>
</g>
<!-- FlatPay -->
<g id="node15" class="node"><title>FlatPay</title>
<path fill="none" stroke="black" d="M2344.08,-440.5C2344.08,-440.5 2468.08,-440.5 2468.08,-440.5 2474.08,-440.5 2480.08,-446.5 2480.08,-452.5 2480.08,-452.5 2480.08,-579.5 2480.08,-579.5 2480.08,-585.5 2474.08,-591.5 2468.08,-591.5 2468.08,-591.5 2344.08,-591.5 2344.08,-591.5 2338.08,-591.5 2332.08,-585.5 2332.08,-579.5 2332.08,-579.5 2332.08,-452.5 2332.08,-452.5 2332.08,-446.5 2338.08,-440.5 2344.08,-440.5"/>
<text text-anchor="middle" x="2406.08" y="-576.3" font-family="Times,serif" font-size="14.00">FlatPay</text>
<polyline fill="none" stroke="black" points="2332.08,-568.5 2480.08,-568.5 "/>
<text text-anchor="start" x="2340.08" y="-553.3" font-family="Times,serif" font-size="14.00">id :integer</text>
<text text-anchor="start" x="2340.08" y="-538.3" font-family="Times,serif" font-size="14.00">payAmount :decimal</text>
<text text-anchor="start" x="2340.08" y="-523.3" font-family="Times,serif" font-size="14.00">startDate :datetime</text>
<text text-anchor="start" x="2340.08" y="-508.3" font-family="Times,serif" font-size="14.00">endTime :datetime</text>
<text text-anchor="start" x="2340.08" y="-493.3" font-family="Times,serif" font-size="14.00">activeBoolean :boolean</text>
<text text-anchor="start" x="2340.08" y="-478.3" font-family="Times,serif" font-size="14.00">frequency_id :integer</text>
<text text-anchor="start" x="2340.08" y="-463.3" font-family="Times,serif" font-size="14.00">created_at :datetime</text>
<text text-anchor="start" x="2340.08" y="-448.3" font-family="Times,serif" font-size="14.00">updated_at :datetime</text>
</g>
<!-- Employee&#45;&gt;FlatPay -->
<g id="edge31" class="edge"><title>Employee&#45;&gt;FlatPay</title>
<path fill="none" stroke="#f51c8d" d="M1472.11,-825.164C1625.77,-801.552 1941.82,-749.786 2205.08,-686 2256.05,-673.65 2276.09,-683.434 2318.08,-652 2336.41,-638.27 2352.02,-619.511 2364.78,-600.346"/>
<polygon fill="#f51c8d" stroke="#f51c8d" points="1471.66,-825.232 1461.09,-822.298 1466.72,-825.989 1461.77,-826.746 1461.77,-826.746 1461.77,-826.746 1466.72,-825.989 1462.45,-831.194 1471.66,-825.232 1471.66,-825.232"/>
<polygon fill="#f51c8d" stroke="#f51c8d" points="2364.84,-600.24 2374.03,-594.258 2367.55,-596.033 2370.25,-591.826 2370.25,-591.826 2370.25,-591.826 2367.55,-596.033 2366.46,-589.394 2364.84,-600.24 2364.84,-600.24"/>
</g>
<!-- ProductionPay -->
<g id="node20" class="node"><title>ProductionPay</title>
<path fill="none" stroke="black" d="M2056.08,-403C2056.08,-403 2226.08,-403 2226.08,-403 2232.08,-403 2238.08,-409 2238.08,-415 2238.08,-415 2238.08,-617 2238.08,-617 2238.08,-623 2232.08,-629 2226.08,-629 2226.08,-629 2056.08,-629 2056.08,-629 2050.08,-629 2044.08,-623 2044.08,-617 2044.08,-617 2044.08,-415 2044.08,-415 2044.08,-409 2050.08,-403 2056.08,-403"/>
<text text-anchor="middle" x="2141.08" y="-613.8" font-family="Times,serif" font-size="14.00">ProductionPay</text>
<polyline fill="none" stroke="black" points="2044.08,-606 2238.08,-606 "/>
<text text-anchor="start" x="2052.08" y="-590.8" font-family="Times,serif" font-size="14.00">id :integer</text>
<text text-anchor="start" x="2052.08" y="-575.8" font-family="Times,serif" font-size="14.00">delivery_package_pay :decimal</text>
<text text-anchor="start" x="2052.08" y="-560.8" font-family="Times,serif" font-size="14.00">delivery_stop_pay :decimal</text>
<text text-anchor="start" x="2052.08" y="-545.8" font-family="Times,serif" font-size="14.00">pickup_package_pay :decimal</text>
<text text-anchor="start" x="2052.08" y="-530.8" font-family="Times,serif" font-size="14.00">pickup_stop_pay :decimal</text>
<text text-anchor="start" x="2052.08" y="-515.8" font-family="Times,serif" font-size="14.00">hourly_pay :decimal</text>
<text text-anchor="start" x="2052.08" y="-500.8" font-family="Times,serif" font-size="14.00">task_pay :decimal</text>
<text text-anchor="start" x="2052.08" y="-485.8" font-family="Times,serif" font-size="14.00">incident_dock_pay :decimal</text>
<text text-anchor="start" x="2052.08" y="-470.8" font-family="Times,serif" font-size="14.00">startDate :datetime</text>
<text text-anchor="start" x="2052.08" y="-455.8" font-family="Times,serif" font-size="14.00">endDate :datetime</text>
<text text-anchor="start" x="2052.08" y="-440.8" font-family="Times,serif" font-size="14.00">activeBoolean :boolean</text>
<text text-anchor="start" x="2052.08" y="-425.8" font-family="Times,serif" font-size="14.00">created_at :datetime</text>
<text text-anchor="start" x="2052.08" y="-410.8" font-family="Times,serif" font-size="14.00">updated_at :datetime</text>
</g>
<!-- Employee&#45;&gt;ProductionPay -->
<g id="edge32" class="edge"><title>Employee&#45;&gt;ProductionPay</title>
<path fill="none" stroke="#89c5b6" d="M1471.88,-830.543C1606.04,-814.548 1857.42,-770.113 2034.08,-652 2041.13,-647.281 2047.94,-641.948 2054.47,-636.196"/>
<polygon fill="#89c5b6" stroke="#89c5b6" points="1471.57,-830.579 1461.12,-827.267 1466.6,-831.158 1461.64,-831.736 1461.64,-831.736 1461.64,-831.736 1466.6,-831.158 1462.16,-836.206 1471.57,-830.579 1471.57,-830.579"/>
<polygon fill="#89c5b6" stroke="#89c5b6" points="2054.65,-636.035 2065.05,-632.573 2058.32,-632.648 2062,-629.262 2062,-629.262 2062,-629.262 2058.32,-632.648 2058.96,-625.951 2054.65,-636.035 2054.65,-636.035"/>
</g>
<!-- Version -->
<g id="node36" class="node"><title>Version</title>
<ellipse fill="none" stroke="black" cx="1198.08" cy="-516" rx="39.4691" ry="18"/>
<text text-anchor="middle" x="1198.08" y="-512.3" font-family="Times,serif" font-size="14.00">Version</text>
</g>
<!-- Employee&#45;&gt;Version -->
<g id="edge33" class="edge"><title>Employee&#45;&gt;Version</title>
<path fill="none" stroke="#3016a3" d="M1291.95,-725.731C1275.83,-702.084 1260.03,-676.79 1247.08,-652 1228.44,-616.335 1213.83,-571.987 1205.57,-544.077"/>
<ellipse fill="none" stroke="#3016a3" cx="1294.23" cy="-729.058" rx="4.00002" ry="4.00002"/>
<polygon fill="#3016a3" stroke="#3016a3" points="1205.51,-543.843 1207.05,-532.986 1204.12,-539.04 1202.72,-534.237 1202.72,-534.237 1202.72,-534.237 1204.12,-539.04 1198.4,-535.488 1205.51,-543.843 1205.51,-543.843"/>
</g>
<!-- FedexContract -->
<g id="node14" class="node"><title>FedexContract</title>
<path fill="none" stroke="black" d="M672.576,-1491C672.576,-1491 867.576,-1491 867.576,-1491 873.576,-1491 879.576,-1497 879.576,-1503 879.576,-1503 879.576,-1855 879.576,-1855 879.576,-1861 873.576,-1867 867.576,-1867 867.576,-1867 672.576,-1867 672.576,-1867 666.576,-1867 660.576,-1861 660.576,-1855 660.576,-1855 660.576,-1503 660.576,-1503 660.576,-1497 666.576,-1491 672.576,-1491"/>
<text text-anchor="middle" x="770.076" y="-1851.8" font-family="Times,serif" font-size="14.00">FedexContract</text>
<polyline fill="none" stroke="black" points="660.576,-1844 879.576,-1844 "/>
<text text-anchor="start" x="668.576" y="-1828.8" font-family="Times,serif" font-size="14.00">id :integer</text>
<text text-anchor="start" x="668.576" y="-1813.8" font-family="Times,serif" font-size="14.00">fedexContractName :string</text>
<text text-anchor="start" x="668.576" y="-1798.8" font-family="Times,serif" font-size="14.00">fedexContractNumber :integer</text>
<text text-anchor="start" x="668.576" y="-1783.8" font-family="Times,serif" font-size="14.00">contractorContractName :string</text>
<text text-anchor="start" x="668.576" y="-1768.8" font-family="Times,serif" font-size="14.00">contractorContractNumber :integer</text>
<text text-anchor="start" x="668.576" y="-1753.8" font-family="Times,serif" font-size="14.00">content :text</text>
<text text-anchor="start" x="668.576" y="-1738.8" font-family="Times,serif" font-size="14.00">startDate :datetime</text>
<text text-anchor="start" x="668.576" y="-1723.8" font-family="Times,serif" font-size="14.00">endDate :datetime</text>
<text text-anchor="start" x="668.576" y="-1708.8" font-family="Times,serif" font-size="14.00">created_at :datetime</text>
<text text-anchor="start" x="668.576" y="-1693.8" font-family="Times,serif" font-size="14.00">updated_at :datetime</text>
<text text-anchor="start" x="668.576" y="-1678.8" font-family="Times,serif" font-size="14.00">businesses_id :integer</text>
<text text-anchor="start" x="668.576" y="-1663.8" font-family="Times,serif" font-size="14.00">deliveryStopPay :decimal</text>
<text text-anchor="start" x="668.576" y="-1648.8" font-family="Times,serif" font-size="14.00">deliveryPackagePay :decimal</text>
<text text-anchor="start" x="668.576" y="-1633.8" font-family="Times,serif" font-size="14.00">pickupStopPay :decimal</text>
<text text-anchor="start" x="668.576" y="-1618.8" font-family="Times,serif" font-size="14.00">pickupPackagePay :decimal</text>
<text text-anchor="start" x="668.576" y="-1603.8" font-family="Times,serif" font-size="14.00">coreZoneSupplementalPay :decimal</text>
<text text-anchor="start" x="668.576" y="-1588.8" font-family="Times,serif" font-size="14.00">vehicleAvailabilityPay :decimal</text>
<text text-anchor="start" x="668.576" y="-1573.8" font-family="Times,serif" font-size="14.00">fuelSupplementPay :decimal</text>
<text text-anchor="start" x="668.576" y="-1558.8" font-family="Times,serif" font-size="14.00">toolRentalCost :decimal</text>
<text text-anchor="start" x="668.576" y="-1543.8" font-family="Times,serif" font-size="14.00">internationalPackagePay :decimal</text>
<text text-anchor="start" x="668.576" y="-1528.8" font-family="Times,serif" font-size="14.00">hazardousPackagePay :decimal</text>
<text text-anchor="start" x="668.576" y="-1513.8" font-family="Times,serif" font-size="14.00">vacationProgramCost :decimal</text>
<text text-anchor="start" x="668.576" y="-1498.8" font-family="Times,serif" font-size="14.00">uniformCost :decimal</text>
</g>
<!-- FedexContract&#45;&gt;Business -->
<g id="edge34" class="edge"><title>FedexContract&#45;&gt;Business</title>
<path fill="none" stroke="#22642c" d="M770.076,-1482.67C770.076,-1465.26 770.076,-1448.15 770.076,-1432.08"/>
<ellipse fill="none" stroke="#22642c" cx="770.076" cy="-1486.82" rx="4" ry="4"/>
<polygon fill="#22642c" stroke="#22642c" points="770.076,-1431.67 774.576,-1421.67 770.076,-1426.67 770.076,-1421.67 770.076,-1421.67 770.076,-1421.67 770.076,-1426.67 765.576,-1421.67 770.076,-1431.67 770.076,-1431.67"/>
</g>
<!-- FedexContract&#45;&gt;Addendum -->
<g id="edge35" class="edge"><title>FedexContract&#45;&gt;Addendum</title>
<path fill="none" stroke="#fe20ea" d="M653.431,-1491.42C652.651,-1490.94 651.866,-1490.47 651.076,-1490 593.314,-1455.79 94.0293,-1500.94 48.0762,-1452 -25.5466,-1373.59 -4.77311,-1303.68 48.0762,-1210 60.662,-1187.69 79.4536,-1169.19 100.432,-1154.01"/>
<ellipse fill="none" stroke="#fe20ea" cx="656.994" cy="-1493.76" rx="4.00002" ry="4.00002"/>
<polygon fill="#fe20ea" stroke="#fe20ea" points="100.676,-1153.84 111.457,-1151.84 104.784,-1150.99 108.892,-1148.14 108.892,-1148.14 108.892,-1148.14 104.784,-1150.99 106.327,-1144.44 100.676,-1153.84 100.676,-1153.84"/>
</g>
<!-- FedexContract&#45;&gt;Note -->
<g id="edge36" class="edge"><title>FedexContract&#45;&gt;Note</title>
<path fill="none" stroke="#10d855" d="M887.854,-1670.06C1315.05,-1639.7 2758.08,-1523.02 2758.08,-1332 2758.08,-1332 2758.08,-1332 2758.08,-265 2758.08,-158.087 2641.98,-190.641 2537.08,-170 2195.95,-102.878 1098.34,-82.4375 796.517,-78.0173"/>
<ellipse fill="none" stroke="#10d855" cx="883.781" cy="-1670.35" rx="4" ry="4"/>
<polygon fill="#10d855" stroke="#10d855" points="796.118,-78.0116 786.184,-73.3673 791.118,-77.9392 786.119,-77.8668 786.119,-77.8668 786.119,-77.8668 791.118,-77.9392 786.053,-82.3663 796.118,-78.0116 796.118,-78.0116"/>
</g>
<!-- FlatPay&#45;&gt;PayProfile -->
<g id="edge37" class="edge"><title>FlatPay&#45;&gt;PayProfile</title>
<path fill="none" stroke="#1ded5f" d="M2372.2,-432.638C2360.37,-403.862 2347.14,-371.701 2335.51,-343.429"/>
<ellipse fill="none" stroke="#1ded5f" cx="2373.81" cy="-436.556" rx="4.00001" ry="4.00001"/>
<polygon fill="#1ded5f" stroke="#1ded5f" points="2335.44,-343.249 2335.79,-332.289 2333.53,-338.625 2331.63,-334.001 2331.63,-334.001 2331.63,-334.001 2333.53,-338.625 2327.47,-335.712 2335.44,-343.249 2335.44,-343.249"/>
</g>
<!-- Frequency -->
<g id="node16" class="node"><title>Frequency</title>
<path fill="none" stroke="black" d="M2326.58,-779.5C2326.58,-779.5 2457.58,-779.5 2457.58,-779.5 2463.58,-779.5 2469.58,-785.5 2469.58,-791.5 2469.58,-791.5 2469.58,-888.5 2469.58,-888.5 2469.58,-894.5 2463.58,-900.5 2457.58,-900.5 2457.58,-900.5 2326.58,-900.5 2326.58,-900.5 2320.58,-900.5 2314.58,-894.5 2314.58,-888.5 2314.58,-888.5 2314.58,-791.5 2314.58,-791.5 2314.58,-785.5 2320.58,-779.5 2326.58,-779.5"/>
<text text-anchor="middle" x="2392.08" y="-885.3" font-family="Times,serif" font-size="14.00">Frequency</text>
<polyline fill="none" stroke="black" points="2314.58,-877.5 2469.58,-877.5 "/>
<text text-anchor="start" x="2322.58" y="-862.3" font-family="Times,serif" font-size="14.00">id :integer</text>
<text text-anchor="start" x="2322.58" y="-847.3" font-family="Times,serif" font-size="14.00">frequencyInterval :string</text>
<text text-anchor="start" x="2322.58" y="-832.3" font-family="Times,serif" font-size="14.00">startDate :datetime</text>
<text text-anchor="start" x="2322.58" y="-817.3" font-family="Times,serif" font-size="14.00">endDate :datetime</text>
<text text-anchor="start" x="2322.58" y="-802.3" font-family="Times,serif" font-size="14.00">created_at :datetime</text>
<text text-anchor="start" x="2322.58" y="-787.3" font-family="Times,serif" font-size="14.00">updated_at :datetime</text>
</g>
<!-- Frequency&#45;&gt;FlatPay -->
<g id="edge38" class="edge"><title>Frequency&#45;&gt;FlatPay</title>
<path fill="none" stroke="#617529" d="M2395.04,-770.928C2397.18,-721.525 2400.1,-654.371 2402.4,-601.531"/>
<ellipse fill="none" stroke="#617529" cx="2394.85" cy="-775.193" rx="4" ry="4"/>
<polygon fill="#617529" stroke="#617529" points="2402.4,-601.492 2407.33,-591.697 2402.62,-596.497 2402.84,-591.501 2402.84,-591.501 2402.84,-591.501 2402.62,-596.497 2398.34,-591.306 2402.4,-601.492 2402.4,-601.492"/>
</g>
<!-- Pay&#45;&gt;EmployeePay -->
<g id="edge39" class="edge"><title>Pay&#45;&gt;EmployeePay</title>
<path fill="none" stroke="#f3654f" d="M1708.76,-454.637C1715.19,-421.392 1723.25,-379.775 1730.14,-344.188"/>
<ellipse fill="none" stroke="#f3654f" cx="1707.96" cy="-458.781" rx="4.00001" ry="4.00001"/>
<polygon fill="#f3654f" stroke="#f3654f" points="1730.15,-344.14 1736.46,-335.178 1731.1,-339.231 1732.05,-334.323 1732.05,-334.323 1732.05,-334.323 1731.1,-339.231 1727.63,-333.467 1730.15,-344.14 1730.15,-344.14"/>
</g>
<!-- ProductionPay&#45;&gt;PayProfile -->
<g id="edge40" class="edge"><title>ProductionPay&#45;&gt;PayProfile</title>
<path fill="none" stroke="#05d4b9" d="M2219.24,-396.076C2231.14,-377.964 2243.14,-359.708 2254.22,-342.856"/>
<ellipse fill="none" stroke="#05d4b9" cx="2216.9" cy="-399.629" rx="4.00002" ry="4.00002"/>
<polygon fill="#05d4b9" stroke="#05d4b9" points="2254.43,-342.536 2263.68,-336.651 2257.18,-338.358 2259.92,-334.179 2259.92,-334.179 2259.92,-334.179 2257.18,-338.358 2256.16,-331.708 2254.43,-342.536 2254.43,-342.536"/>
</g>
<!-- Psa&#45;&gt;Note -->
<g id="edge41" class="edge"><title>Psa&#45;&gt;Note</title>
<path fill="none" stroke="#e8e310" d="M421.415,-402.695C429.535,-382.684 437.441,-361.879 444.076,-342 469.023,-267.256 435.281,-229.382 487.076,-170 526.519,-124.78 591.042,-101.277 642.043,-89.2239"/>
<ellipse fill="none" stroke="#e8e310" cx="419.809" cy="-406.621" rx="4.00001" ry="4.00001"/>
<polygon fill="#e8e310" stroke="#e8e310" points="642.297,-89.1666 653.043,-91.3523 647.174,-88.0647 652.051,-86.9629 652.051,-86.9629 652.051,-86.9629 647.174,-88.0647 651.06,-82.5735 642.297,-89.1666 642.297,-89.1666"/>
</g>
<!-- Psazip -->
<g id="node23" class="node"><title>Psazip</title>
<path fill="none" stroke="black" d="M58.0762,-23C58.0762,-23 168.076,-23 168.076,-23 174.076,-23 180.076,-29 180.076,-35 180.076,-35 180.076,-117 180.076,-117 180.076,-123 174.076,-129 168.076,-129 168.076,-129 58.0762,-129 58.0762,-129 52.0762,-129 46.0762,-123 46.0762,-117 46.0762,-117 46.0762,-35 46.0762,-35 46.0762,-29 52.0762,-23 58.0762,-23"/>
<text text-anchor="middle" x="113.076" y="-113.8" font-family="Times,serif" font-size="14.00">Psazip</text>
<polyline fill="none" stroke="black" points="46.0762,-106 180.076,-106 "/>
<text text-anchor="start" x="54.0762" y="-90.8" font-family="Times,serif" font-size="14.00">id :integer</text>
<text text-anchor="start" x="54.0762" y="-75.8" font-family="Times,serif" font-size="14.00">psa_id :integer</text>
<text text-anchor="start" x="54.0762" y="-60.8" font-family="Times,serif" font-size="14.00">zip_id :integer</text>
<text text-anchor="start" x="54.0762" y="-45.8" font-family="Times,serif" font-size="14.00">created_at :datetime</text>
<text text-anchor="start" x="54.0762" y="-30.8" font-family="Times,serif" font-size="14.00">updated_at :datetime</text>
</g>
<!-- Psa&#45;&gt;Psazip -->
<g id="edge42" class="edge"><title>Psa&#45;&gt;Psazip</title>
<path fill="none" stroke="#431607" d="M267.732,-477.898C207.72,-450.386 137.218,-406.383 102.076,-342 67.8931,-279.374 79.1192,-195.478 93.3082,-139.002"/>
<ellipse fill="none" stroke="#431607" cx="271.723" cy="-479.696" rx="4.00002" ry="4.00002"/>
<polygon fill="#431607" stroke="#431607" points="93.358,-138.811 100.241,-130.274 94.6225,-133.974 95.8869,-129.136 95.8869,-129.136 95.8869,-129.136 94.6225,-133.974 91.5332,-127.998 93.358,-138.811 93.358,-138.811"/>
</g>
<!-- Zip -->
<g id="node35" class="node"><title>Zip</title>
<path fill="none" stroke="black" d="M123.076,-220.5C123.076,-220.5 233.076,-220.5 233.076,-220.5 239.076,-220.5 245.076,-226.5 245.076,-232.5 245.076,-232.5 245.076,-299.5 245.076,-299.5 245.076,-305.5 239.076,-311.5 233.076,-311.5 233.076,-311.5 123.076,-311.5 123.076,-311.5 117.076,-311.5 111.076,-305.5 111.076,-299.5 111.076,-299.5 111.076,-232.5 111.076,-232.5 111.076,-226.5 117.076,-220.5 123.076,-220.5"/>
<text text-anchor="middle" x="178.076" y="-296.3" font-family="Times,serif" font-size="14.00">Zip</text>
<polyline fill="none" stroke="black" points="111.076,-288.5 245.076,-288.5 "/>
<text text-anchor="start" x="119.076" y="-273.3" font-family="Times,serif" font-size="14.00">id :integer</text>
<text text-anchor="start" x="119.076" y="-258.3" font-family="Times,serif" font-size="14.00">zip :string</text>
<text text-anchor="start" x="119.076" y="-243.3" font-family="Times,serif" font-size="14.00">created_at :datetime</text>
<text text-anchor="start" x="119.076" y="-228.3" font-family="Times,serif" font-size="14.00">updated_at :datetime</text>
</g>
<!-- Psa&#45;&gt;Zip -->
<g id="edge43" class="edge"><title>Psa&#45;&gt;Zip</title>
<path fill="none" stroke="#e0c411" d="M283.188,-402.066C260.788,-373.282 237.763,-343.696 218.994,-319.579"/>
<polygon fill="#e0c411" stroke="#e0c411" points="283.365,-402.293 285.955,-412.949 286.436,-406.239 289.507,-410.185 289.507,-410.185 289.507,-410.185 286.436,-406.239 293.058,-407.421 283.365,-402.293 283.365,-402.293"/>
<polygon fill="#e0c411" stroke="#e0c411" points="218.941,-319.511 216.351,-308.855 215.871,-315.565 212.8,-311.619 212.8,-311.619 212.8,-311.619 215.871,-315.565 209.248,-314.383 218.941,-319.511 218.941,-319.511"/>
</g>
<!-- PsaState -->
<g id="node22" class="node"><title>PsaState</title>
<path fill="none" stroke="black" d="M249.076,-23C249.076,-23 359.076,-23 359.076,-23 365.076,-23 371.076,-29 371.076,-35 371.076,-35 371.076,-117 371.076,-117 371.076,-123 365.076,-129 359.076,-129 359.076,-129 249.076,-129 249.076,-129 243.076,-129 237.076,-123 237.076,-117 237.076,-117 237.076,-35 237.076,-35 237.076,-29 243.076,-23 249.076,-23"/>
<text text-anchor="middle" x="304.076" y="-113.8" font-family="Times,serif" font-size="14.00">PsaState</text>
<polyline fill="none" stroke="black" points="237.076,-106 371.076,-106 "/>
<text text-anchor="start" x="245.076" y="-90.8" font-family="Times,serif" font-size="14.00">id :integer</text>
<text text-anchor="start" x="245.076" y="-75.8" font-family="Times,serif" font-size="14.00">psa_id :integer</text>
<text text-anchor="start" x="245.076" y="-60.8" font-family="Times,serif" font-size="14.00">state_id :integer</text>
<text text-anchor="start" x="245.076" y="-45.8" font-family="Times,serif" font-size="14.00">created_at :datetime</text>
<text text-anchor="start" x="245.076" y="-30.8" font-family="Times,serif" font-size="14.00">updated_at :datetime</text>
</g>
<!-- Psa&#45;&gt;PsaState -->
<g id="edge44" class="edge"><title>Psa&#45;&gt;PsaState</title>
<path fill="none" stroke="#a7b72c" d="M311.597,-402.893C303.518,-383.097 296.495,-362.312 292.076,-342 277.247,-273.828 284.17,-193.544 292.294,-139.354"/>
<ellipse fill="none" stroke="#a7b72c" cx="313.201" cy="-406.737" rx="4.00002" ry="4.00002"/>
<polygon fill="#a7b72c" stroke="#a7b72c" points="292.335,-139.092 298.321,-129.904 293.105,-134.152 293.875,-129.211 293.875,-129.211 293.875,-129.211 293.105,-134.152 289.428,-128.519 292.335,-139.092 292.335,-139.092"/>
</g>
<!-- State -->
<g id="node27" class="node"><title>State</title>
<path fill="none" stroke="black" d="M313.076,-213C313.076,-213 423.076,-213 423.076,-213 429.076,-213 435.076,-219 435.076,-225 435.076,-225 435.076,-307 435.076,-307 435.076,-313 429.076,-319 423.076,-319 423.076,-319 313.076,-319 313.076,-319 307.076,-319 301.076,-313 301.076,-307 301.076,-307 301.076,-225 301.076,-225 301.076,-219 307.076,-213 313.076,-213"/>
<text text-anchor="middle" x="368.076" y="-303.8" font-family="Times,serif" font-size="14.00">State</text>
<polyline fill="none" stroke="black" points="301.076,-296 435.076,-296 "/>
<text text-anchor="start" x="309.076" y="-280.8" font-family="Times,serif" font-size="14.00">id :integer</text>
<text text-anchor="start" x="309.076" y="-265.8" font-family="Times,serif" font-size="14.00">state :string</text>
<text text-anchor="start" x="309.076" y="-250.8" font-family="Times,serif" font-size="14.00">abbreviation :string</text>
<text text-anchor="start" x="309.076" y="-235.8" font-family="Times,serif" font-size="14.00">created_at :datetime</text>
<text text-anchor="start" x="309.076" y="-220.8" font-family="Times,serif" font-size="14.00">updated_at :datetime</text>
</g>
<!-- Psa&#45;&gt;State -->
<g id="edge45" class="edge"><title>Psa&#45;&gt;State</title>
<path fill="none" stroke="#d977c1" d="M369.687,-400.184C369.392,-375.795 369.091,-350.929 368.831,-329.389"/>
<polygon fill="#d977c1" stroke="#d977c1" points="369.687,-400.186 365.309,-410.24 369.748,-405.186 369.808,-410.185 369.808,-410.185 369.808,-410.185 369.748,-405.186 374.308,-410.131 369.687,-400.186 369.687,-400.186"/>
<polygon fill="#d977c1" stroke="#d977c1" points="368.827,-329.098 373.206,-319.044 368.767,-324.098 368.706,-319.099 368.706,-319.099 368.706,-319.099 368.767,-324.098 364.207,-319.153 368.827,-329.098 368.827,-329.098"/>
</g>
<!-- Psa&#45;&gt;EmployeePsa -->
<g id="edge46" class="edge"><title>Psa&#45;&gt;EmployeePsa</title>
<path fill="none" stroke="#fe96d2" d="M473.281,-442.164C525.305,-405.09 587.714,-360.615 636.626,-325.757"/>
<ellipse fill="none" stroke="#fe96d2" cx="469.887" cy="-444.583" rx="4.00002" ry="4.00002"/>
<polygon fill="#fe96d2" stroke="#fe96d2" points="636.832,-325.611 647.587,-323.472 640.903,-322.709 644.975,-319.808 644.975,-319.808 644.975,-319.808 640.903,-322.709 642.364,-316.143 636.832,-325.611 636.832,-325.611"/>
</g>
<!-- Region -->
<g id="node24" class="node"><title>Region</title>
<path fill="none" stroke="black" d="M624.076,-764.5C624.076,-764.5 806.076,-764.5 806.076,-764.5 812.076,-764.5 818.076,-770.5 818.076,-776.5 818.076,-776.5 818.076,-903.5 818.076,-903.5 818.076,-909.5 812.076,-915.5 806.076,-915.5 806.076,-915.5 624.076,-915.5 624.076,-915.5 618.076,-915.5 612.076,-909.5 612.076,-903.5 612.076,-903.5 612.076,-776.5 612.076,-776.5 612.076,-770.5 618.076,-764.5 624.076,-764.5"/>
<text text-anchor="middle" x="715.076" y="-900.3" font-family="Times,serif" font-size="14.00">Region</text>
<polyline fill="none" stroke="black" points="612.076,-892.5 818.076,-892.5 "/>
<text text-anchor="start" x="620.076" y="-877.3" font-family="Times,serif" font-size="14.00">id :integer</text>
<text text-anchor="start" x="620.076" y="-862.3" font-family="Times,serif" font-size="14.00">fedexRegionName :string</text>
<text text-anchor="start" x="620.076" y="-847.3" font-family="Times,serif" font-size="14.00">fedexRegionNumber :integer</text>
<text text-anchor="start" x="620.076" y="-832.3" font-family="Times,serif" font-size="14.00">fedexRegionPhone :string</text>
<text text-anchor="start" x="620.076" y="-817.3" font-family="Times,serif" font-size="14.00">contractorRegionName :string</text>
<text text-anchor="start" x="620.076" y="-802.3" font-family="Times,serif" font-size="14.00">contractorRegionNumber :integer</text>
<text text-anchor="start" x="620.076" y="-787.3" font-family="Times,serif" font-size="14.00">created_at :datetime</text>
<text text-anchor="start" x="620.076" y="-772.3" font-family="Times,serif" font-size="14.00">updated_at :datetime</text>
</g>
<!-- Region&#45;&gt;Psa -->
<g id="edge47" class="edge"><title>Region&#45;&gt;Psa</title>
<path fill="none" stroke="#1808f8" d="M629.328,-758.736C582.31,-714.725 523.691,-659.855 474.191,-613.52"/>
<ellipse fill="none" stroke="#1808f8" cx="632.371" cy="-761.584" rx="4.00002" ry="4.00002"/>
<polygon fill="#1808f8" stroke="#1808f8" points="473.943,-613.288 469.718,-603.169 470.293,-609.871 466.642,-606.454 466.642,-606.454 466.642,-606.454 470.293,-609.871 463.567,-609.74 473.943,-613.288 473.943,-613.288"/>
</g>
<!-- Region&#45;&gt;Terminal -->
<g id="edge48" class="edge"><title>Region&#45;&gt;Terminal</title>
<path fill="none" stroke="#892bb1" d="M784.869,-758.161C824.58,-712.165 874.408,-654.45 915.362,-607.015"/>
<ellipse fill="none" stroke="#892bb1" cx="782.168" cy="-761.29" rx="4.00002" ry="4.00002"/>
<polygon fill="#892bb1" stroke="#892bb1" points="915.581,-606.761 925.522,-602.132 918.848,-602.976 922.116,-599.192 922.116,-599.192 922.116,-599.192 918.848,-602.976 918.71,-596.251 915.581,-606.761 915.581,-606.761"/>
</g>
<!-- Region&#45;&gt;Note -->
<g id="edge49" class="edge"><title>Region&#45;&gt;Note</title>
<path fill="none" stroke="#3d3804" d="M675.767,-756.824C662.416,-724.856 649.105,-687.446 642.076,-652 602.132,-450.572 572.112,-385.135 636.076,-190 639.385,-179.906 643.978,-169.969 649.321,-160.43"/>
<ellipse fill="none" stroke="#3d3804" cx="677.416" cy="-760.72" rx="4.00002" ry="4.00002"/>
<polygon fill="#3d3804" stroke="#3d3804" points="649.339,-160.399 658.298,-154.076 651.881,-156.094 654.423,-151.788 654.423,-151.788 654.423,-151.788 651.881,-156.094 650.548,-149.5 649.339,-160.399 649.339,-160.399"/>
</g>
<!-- Role -->
<g id="node25" class="node"><title>Role</title>
<path fill="none" stroke="black" d="M2168.08,-794.5C2168.08,-794.5 2278.08,-794.5 2278.08,-794.5 2284.08,-794.5 2290.08,-800.5 2290.08,-806.5 2290.08,-806.5 2290.08,-873.5 2290.08,-873.5 2290.08,-879.5 2284.08,-885.5 2278.08,-885.5 2278.08,-885.5 2168.08,-885.5 2168.08,-885.5 2162.08,-885.5 2156.08,-879.5 2156.08,-873.5 2156.08,-873.5 2156.08,-806.5 2156.08,-806.5 2156.08,-800.5 2162.08,-794.5 2168.08,-794.5"/>
<text text-anchor="middle" x="2223.08" y="-870.3" font-family="Times,serif" font-size="14.00">Role</text>
<polyline fill="none" stroke="black" points="2156.08,-862.5 2290.08,-862.5 "/>
<text text-anchor="start" x="2164.08" y="-847.3" font-family="Times,serif" font-size="14.00">id :integer</text>
<text text-anchor="start" x="2164.08" y="-832.3" font-family="Times,serif" font-size="14.00">name :string</text>
<text text-anchor="start" x="2164.08" y="-817.3" font-family="Times,serif" font-size="14.00">created_at :datetime</text>
<text text-anchor="start" x="2164.08" y="-802.3" font-family="Times,serif" font-size="14.00">updated_at :datetime</text>
</g>
<!-- UserRole -->
<g id="node30" class="node"><title>UserRole</title>
<path fill="none" stroke="black" d="M1987.08,-213C1987.08,-213 2097.08,-213 2097.08,-213 2103.08,-213 2109.08,-219 2109.08,-225 2109.08,-225 2109.08,-307 2109.08,-307 2109.08,-313 2103.08,-319 2097.08,-319 2097.08,-319 1987.08,-319 1987.08,-319 1981.08,-319 1975.08,-313 1975.08,-307 1975.08,-307 1975.08,-225 1975.08,-225 1975.08,-219 1981.08,-213 1987.08,-213"/>
<text text-anchor="middle" x="2042.08" y="-303.8" font-family="Times,serif" font-size="14.00">UserRole</text>
<polyline fill="none" stroke="black" points="1975.08,-296 2109.08,-296 "/>
<text text-anchor="start" x="1983.08" y="-280.8" font-family="Times,serif" font-size="14.00">id :integer</text>
<text text-anchor="start" x="1983.08" y="-265.8" font-family="Times,serif" font-size="14.00">user_id :integer</text>
<text text-anchor="start" x="1983.08" y="-250.8" font-family="Times,serif" font-size="14.00">role_id :integer</text>
<text text-anchor="start" x="1983.08" y="-235.8" font-family="Times,serif" font-size="14.00">created_at :datetime</text>
<text text-anchor="start" x="1983.08" y="-220.8" font-family="Times,serif" font-size="14.00">updated_at :datetime</text>
</g>
<!-- Role&#45;&gt;UserRole -->
<g id="edge50" class="edge"><title>Role&#45;&gt;UserRole</title>
<path fill="none" stroke="#2e3269" d="M2243.27,-786.767C2274.53,-696.686 2323.48,-509.35 2247.08,-380 2232.33,-355.037 2170.34,-322.797 2118.35,-299.147"/>
<ellipse fill="none" stroke="#2e3269" cx="2241.92" cy="-790.619" rx="4.00001" ry="4.00001"/>
<polygon fill="#2e3269" stroke="#2e3269" points="2118.22,-299.09 2110.95,-290.881 2113.66,-297.037 2109.11,-294.984 2109.11,-294.984 2109.11,-294.984 2113.66,-297.037 2107.26,-299.087 2118.22,-299.09 2118.22,-299.09"/>
</g>
<!-- Role&#45;&gt;User -->
<g id="edge51" class="edge"><title>Role&#45;&gt;User</title>
<path fill="none" stroke="#a47ee3" d="M2168.39,-787.3C2130.12,-750.473 2078.31,-699.315 2035.08,-652 2034.21,-651.052 2033.34,-650.098 2032.47,-649.139"/>
<polygon fill="#a47ee3" stroke="#a47ee3" points="2168.64,-787.543 2172.74,-797.715 2172.25,-791.006 2175.86,-794.469 2175.86,-794.469 2175.86,-794.469 2172.25,-791.006 2178.97,-791.222 2168.64,-787.543 2168.64,-787.543"/>
<polygon fill="#a47ee3" stroke="#a47ee3" points="2032.46,-649.131 2029.12,-638.688 2029.12,-645.414 2025.78,-641.698 2025.78,-641.698 2025.78,-641.698 2029.12,-645.414 2022.43,-644.708 2032.46,-649.131 2032.46,-649.131"/>
</g>
<!-- ServiceType -->
<g id="node26" class="node"><title>ServiceType</title>
<path fill="none" stroke="black" d="M69.0762,-1270.5C69.0762,-1270.5 179.076,-1270.5 179.076,-1270.5 185.076,-1270.5 191.076,-1276.5 191.076,-1282.5 191.076,-1282.5 191.076,-1379.5 191.076,-1379.5 191.076,-1385.5 185.076,-1391.5 179.076,-1391.5 179.076,-1391.5 69.0762,-1391.5 69.0762,-1391.5 63.0762,-1391.5 57.0762,-1385.5 57.0762,-1379.5 57.0762,-1379.5 57.0762,-1282.5 57.0762,-1282.5 57.0762,-1276.5 63.0762,-1270.5 69.0762,-1270.5"/>
<text text-anchor="middle" x="124.076" y="-1376.3" font-family="Times,serif" font-size="14.00">ServiceType</text>
<polyline fill="none" stroke="black" points="57.0762,-1368.5 191.076,-1368.5 "/>
<text text-anchor="start" x="65.0762" y="-1353.3" font-family="Times,serif" font-size="14.00">id :integer</text>
<text text-anchor="start" x="65.0762" y="-1338.3" font-family="Times,serif" font-size="14.00">serviceType :string</text>
<text text-anchor="start" x="65.0762" y="-1323.3" font-family="Times,serif" font-size="14.00">startDate :datetime</text>
<text text-anchor="start" x="65.0762" y="-1308.3" font-family="Times,serif" font-size="14.00">endDate :datetime</text>
<text text-anchor="start" x="65.0762" y="-1293.3" font-family="Times,serif" font-size="14.00">created_at :datetime</text>
<text text-anchor="start" x="65.0762" y="-1278.3" font-family="Times,serif" font-size="14.00">updated_at :datetime</text>
</g>
<!-- ServiceType&#45;&gt;Vehicle -->
<g id="edge52" class="edge"><title>ServiceType&#45;&gt;Vehicle</title>
<path fill="none" stroke="#12feb6" d="M152.067,-1263.26C163.897,-1242.92 179.738,-1222.62 200.076,-1210 232.734,-1189.74 344.414,-1218.68 372.076,-1192 404.062,-1161.15 393.242,-1037.91 400.076,-994 400.499,-991.286 400.929,-988.545 401.365,-985.784"/>
<ellipse fill="none" stroke="#12feb6" cx="150.001" cy="-1266.95" rx="4.00002" ry="4.00002"/>
<polygon fill="#12feb6" stroke="#12feb6" points="401.396,-985.587 407.414,-976.42 402.183,-980.649 402.97,-975.712 402.97,-975.712 402.97,-975.712 402.183,-980.649 398.526,-975.003 401.396,-985.587 401.396,-985.587"/>
</g>
<!-- ServiceType&#45;&gt;Psa -->
<g id="edge53" class="edge"><title>ServiceType&#45;&gt;Psa</title>
<path fill="none" stroke="#f3124d" d="M109.242,-1262.17C96.8921,-1193.44 84.7486,-1084.62 108.076,-994 142.687,-859.543 224.103,-722.418 287.254,-629.911"/>
<ellipse fill="none" stroke="#f3124d" cx="110.022" cy="-1266.41" rx="4.00001" ry="4.00001"/>
<polygon fill="#f3124d" stroke="#f3124d" points="287.26,-629.903 296.63,-624.206 290.09,-625.781 292.92,-621.659 292.92,-621.659 292.92,-621.659 290.09,-625.781 289.21,-619.112 287.26,-629.903 287.26,-629.903"/>
</g>
<!-- State&#45;&gt;PsaState -->
<g id="edge54" class="edge"><title>State&#45;&gt;PsaState</title>
<path fill="none" stroke="#dd1f46" d="M347.599,-204.849C340.402,-183.707 332.307,-159.927 325.068,-138.663"/>
<ellipse fill="none" stroke="#dd1f46" cx="348.96" cy="-208.845" rx="4.00001" ry="4.00001"/>
<polygon fill="#dd1f46" stroke="#dd1f46" points="325.031,-138.554 326.068,-127.637 323.42,-133.821 321.808,-129.088 321.808,-129.088 321.808,-129.088 323.42,-133.821 317.548,-130.538 325.031,-138.554 325.031,-138.554"/>
</g>
<!-- State&#45;&gt;Note -->
<g id="edge55" class="edge"><title>State&#45;&gt;Note</title>
<path fill="none" stroke="#cedf53" d="M409.322,-206.63C420.962,-193.196 434.477,-179.95 449.076,-170 507.626,-130.094 584.954,-105.76 641.844,-92.0481"/>
<ellipse fill="none" stroke="#cedf53" cx="406.689" cy="-209.748" rx="4.00002" ry="4.00002"/>
<polygon fill="#cedf53" stroke="#cedf53" points="642.128,-91.9815 652.892,-94.0725 646.995,-90.8368 651.862,-89.692 651.862,-89.692 651.862,-89.692 646.995,-90.8368 650.832,-85.3116 642.128,-91.9815 642.128,-91.9815"/>
</g>
<!-- Terminal&#45;&gt;Note -->
<g id="edge56" class="edge"><title>Terminal&#45;&gt;Note</title>
<path fill="none" stroke="#ba0158" d="M979.21,-424.593C963.89,-349.69 932.986,-243.914 873.076,-170 852.491,-144.603 822.994,-124.426 795.314,-109.447"/>
<ellipse fill="none" stroke="#ba0158" cx="980.038" cy="-428.733" rx="4.00001" ry="4.00001"/>
<polygon fill="#ba0158" stroke="#ba0158" points="795.257,-109.418 788.497,-100.783 790.831,-107.092 786.404,-104.767 786.404,-104.767 786.404,-104.767 790.831,-107.092 784.311,-108.75 795.257,-109.418 795.257,-109.418"/>
</g>
<!-- Terminal&#45;&gt;EmployeeTerminal -->
<g id="edge57" class="edge"><title>Terminal&#45;&gt;EmployeeTerminal</title>
<path fill="none" stroke="#9f46b8" d="M1036.39,-425.48C1048.15,-401.179 1060.84,-374.959 1072.44,-350.976"/>
<ellipse fill="none" stroke="#9f46b8" cx="1034.61" cy="-429.163" rx="4.00002" ry="4.00002"/>
<polygon fill="#9f46b8" stroke="#9f46b8" points="1072.48,-350.904 1080.88,-343.862 1074.66,-346.403 1076.83,-341.902 1076.83,-341.902 1076.83,-341.902 1074.66,-346.403 1072.78,-339.942 1072.48,-350.904 1072.48,-350.904"/>
</g>
<!-- User&#45;&gt;UserRole -->
<g id="edge58" class="edge"><title>User&#45;&gt;UserRole</title>
<path fill="none" stroke="#7b7d72" d="M1991.16,-373.106C1998.64,-357.532 2005.92,-342.344 2012.54,-328.55"/>
<ellipse fill="none" stroke="#7b7d72" cx="1989.36" cy="-376.87" rx="4.00002" ry="4.00002"/>
<polygon fill="#7b7d72" stroke="#7b7d72" points="2012.68,-328.252 2021.07,-321.183 2014.85,-323.744 2017.01,-319.236 2017.01,-319.236 2017.01,-319.236 2014.85,-323.744 2012.95,-317.29 2012.68,-328.252 2012.68,-328.252"/>
</g>
<!-- Vehicle&#45;&gt;Note -->
<g id="edge59" class="edge"><title>Vehicle&#45;&gt;Note</title>
<path fill="none" stroke="#551ba1" d="M506.528,-696.555C507.788,-693.031 508.974,-689.51 510.076,-686 544.61,-575.976 503.154,-267.28 565.076,-170 583.237,-141.47 613.586,-120.436 642.564,-105.662"/>
<ellipse fill="none" stroke="#551ba1" cx="505.052" cy="-700.52" rx="4.00001" ry="4.00001"/>
<polygon fill="#551ba1" stroke="#551ba1" points="642.927,-105.484 653.887,-105.125 647.417,-103.284 651.907,-101.084 651.907,-101.084 651.907,-101.084 647.417,-103.284 649.927,-97.0427 642.927,-105.484 642.927,-105.484"/>
</g>
<!-- Vehicle&#45;&gt;DailyDataVehicle -->
<g id="edge60" class="edge"><title>Vehicle&#45;&gt;DailyDataVehicle</title>
<path fill="none" stroke="#b62146" d="M523.33,-732.484C570.681,-680.623 625.84,-620.211 665.685,-576.572"/>
<ellipse fill="none" stroke="#b62146" cx="520.587" cy="-735.488" rx="4.00002" ry="4.00002"/>
<polygon fill="#b62146" stroke="#b62146" points="665.699,-576.556 675.765,-572.205 669.07,-572.864 672.442,-569.171 672.442,-569.171 672.442,-569.171 669.07,-572.864 669.118,-566.137 665.699,-576.556 665.699,-576.556"/>
</g>
<!-- VehicleFuel -->
<g id="node32" class="node"><title>VehicleFuel</title>
<path fill="none" stroke="black" d="M379.576,-1270.5C379.576,-1270.5 492.576,-1270.5 492.576,-1270.5 498.576,-1270.5 504.576,-1276.5 504.576,-1282.5 504.576,-1282.5 504.576,-1379.5 504.576,-1379.5 504.576,-1385.5 498.576,-1391.5 492.576,-1391.5 492.576,-1391.5 379.576,-1391.5 379.576,-1391.5 373.576,-1391.5 367.576,-1385.5 367.576,-1379.5 367.576,-1379.5 367.576,-1282.5 367.576,-1282.5 367.576,-1276.5 373.576,-1270.5 379.576,-1270.5"/>
<text text-anchor="middle" x="436.076" y="-1376.3" font-family="Times,serif" font-size="14.00">VehicleFuel</text>
<polyline fill="none" stroke="black" points="367.576,-1368.5 504.576,-1368.5 "/>
<text text-anchor="start" x="375.576" y="-1353.3" font-family="Times,serif" font-size="14.00">id :integer</text>
<text text-anchor="start" x="375.576" y="-1338.3" font-family="Times,serif" font-size="14.00">fuelType :string</text>
<text text-anchor="start" x="375.576" y="-1323.3" font-family="Times,serif" font-size="14.00">fuelTankSize :integer</text>
<text text-anchor="start" x="375.576" y="-1308.3" font-family="Times,serif" font-size="14.00">mpg :integer</text>
<text text-anchor="start" x="375.576" y="-1293.3" font-family="Times,serif" font-size="14.00">created_at :datetime</text>
<text text-anchor="start" x="375.576" y="-1278.3" font-family="Times,serif" font-size="14.00">updated_at :datetime</text>
</g>
<!-- VehicleFuel&#45;&gt;Vehicle -->
<g id="edge61" class="edge"><title>VehicleFuel&#45;&gt;Vehicle</title>
<path fill="none" stroke="#9f6ba1" d="M434.68,-1261.71C433.225,-1190.58 430.902,-1076.99 429.037,-985.764"/>
<ellipse fill="none" stroke="#9f6ba1" cx="434.768" cy="-1266.04" rx="4" ry="4"/>
<polygon fill="#9f6ba1" stroke="#9f6ba1" points="429.033,-985.6 433.328,-975.51 428.931,-980.601 428.829,-975.602 428.829,-975.602 428.829,-975.602 428.931,-980.601 424.33,-975.694 429.033,-985.6 429.033,-985.6"/>
</g>
<!-- VehicleOdometer -->
<g id="node33" class="node"><title>VehicleOdometer</title>
<path fill="none" stroke="black" d="M535.076,-1270.5C535.076,-1270.5 673.076,-1270.5 673.076,-1270.5 679.076,-1270.5 685.076,-1276.5 685.076,-1282.5 685.076,-1282.5 685.076,-1379.5 685.076,-1379.5 685.076,-1385.5 679.076,-1391.5 673.076,-1391.5 673.076,-1391.5 535.076,-1391.5 535.076,-1391.5 529.076,-1391.5 523.076,-1385.5 523.076,-1379.5 523.076,-1379.5 523.076,-1282.5 523.076,-1282.5 523.076,-1276.5 529.076,-1270.5 535.076,-1270.5"/>
<text text-anchor="middle" x="604.076" y="-1376.3" font-family="Times,serif" font-size="14.00">VehicleOdometer</text>
<polyline fill="none" stroke="black" points="523.076,-1368.5 685.076,-1368.5 "/>
<text text-anchor="start" x="531.076" y="-1353.3" font-family="Times,serif" font-size="14.00">id :integer</text>
<text text-anchor="start" x="531.076" y="-1338.3" font-family="Times,serif" font-size="14.00">odometerReading :integer</text>
<text text-anchor="start" x="531.076" y="-1323.3" font-family="Times,serif" font-size="14.00">startDate :datetime</text>
<text text-anchor="start" x="531.076" y="-1308.3" font-family="Times,serif" font-size="14.00">endDate :datetime</text>
<text text-anchor="start" x="531.076" y="-1293.3" font-family="Times,serif" font-size="14.00">created_at :datetime</text>
<text text-anchor="start" x="531.076" y="-1278.3" font-family="Times,serif" font-size="14.00">updated_at :datetime</text>
</g>
<!-- VehicleOdometer&#45;&gt;Vehicle -->
<g id="edge62" class="edge"><title>VehicleOdometer&#45;&gt;Vehicle</title>
<path fill="none" stroke="#1fa2e5" d="M560.259,-1263.64C546.381,-1245.15 530.168,-1225.82 513.076,-1210 502.218,-1199.95 493.221,-1204.35 485.076,-1192 473.395,-1174.29 457.265,-1074.54 444.822,-985.888"/>
<ellipse fill="none" stroke="#1fa2e5" cx="562.884" cy="-1267.19" rx="4.00002" ry="4.00002"/>
<polygon fill="#1fa2e5" stroke="#1fa2e5" points="444.82,-985.873 447.895,-975.347 444.129,-980.921 443.438,-975.969 443.438,-975.969 443.438,-975.969 444.129,-980.921 438.981,-976.591 444.82,-985.873 444.82,-985.873"/>
</g>
<!-- VehicleType -->
<g id="node34" class="node"><title>VehicleType</title>
<path fill="none" stroke="black" d="M221.076,-1263C221.076,-1263 337.076,-1263 337.076,-1263 343.076,-1263 349.076,-1269 349.076,-1275 349.076,-1275 349.076,-1387 349.076,-1387 349.076,-1393 343.076,-1399 337.076,-1399 337.076,-1399 221.076,-1399 221.076,-1399 215.076,-1399 209.076,-1393 209.076,-1387 209.076,-1387 209.076,-1275 209.076,-1275 209.076,-1269 215.076,-1263 221.076,-1263"/>
<text text-anchor="middle" x="279.076" y="-1383.8" font-family="Times,serif" font-size="14.00">VehicleType</text>
<polyline fill="none" stroke="black" points="209.076,-1376 349.076,-1376 "/>
<text text-anchor="start" x="217.076" y="-1360.8" font-family="Times,serif" font-size="14.00">id :integer</text>
<text text-anchor="start" x="217.076" y="-1345.8" font-family="Times,serif" font-size="14.00">vehicleSize :string</text>
<text text-anchor="start" x="217.076" y="-1330.8" font-family="Times,serif" font-size="14.00">bulkBoolean :boolean</text>
<text text-anchor="start" x="217.076" y="-1315.8" font-family="Times,serif" font-size="14.00">bodyMake :string</text>
<text text-anchor="start" x="217.076" y="-1300.8" font-family="Times,serif" font-size="14.00">bodyModel :string</text>
<text text-anchor="start" x="217.076" y="-1285.8" font-family="Times,serif" font-size="14.00">created_at :datetime</text>
<text text-anchor="start" x="217.076" y="-1270.8" font-family="Times,serif" font-size="14.00">updated_at :datetime</text>
</g>
<!-- VehicleType&#45;&gt;Vehicle -->
<g id="edge63" class="edge"><title>VehicleType&#45;&gt;Vehicle</title>
<path fill="none" stroke="#615600" d="M319.377,-1255.89C330.697,-1239.39 344.073,-1222.96 359.076,-1210 373.217,-1197.78 386.441,-1207.37 397.076,-1192 409.034,-1174.72 416.511,-1074.81 420.872,-985.98"/>
<ellipse fill="none" stroke="#615600" cx="316.876" cy="-1259.64" rx="4.00002" ry="4.00002"/>
<polygon fill="#615600" stroke="#615600" points="420.883,-985.753 425.857,-975.98 421.123,-980.759 421.363,-975.765 421.363,-975.765 421.363,-975.765 421.123,-980.759 416.868,-975.549 420.883,-985.753 420.883,-985.753"/>
</g>
<!-- Zip&#45;&gt;Psazip -->
<g id="edge64" class="edge"><title>Zip&#45;&gt;Psazip</title>
<path fill="none" stroke="#d89130" d="M159.944,-212.557C152.04,-189.695 142.716,-162.728 134.475,-138.891"/>
<ellipse fill="none" stroke="#d89130" cx="161.365" cy="-216.666" rx="4.00001" ry="4.00001"/>
<polygon fill="#d89130" stroke="#d89130" points="134.404,-138.687 135.389,-127.765 132.77,-133.961 131.136,-129.236 131.136,-129.236 131.136,-129.236 132.77,-133.961 126.883,-130.706 134.404,-138.687 134.404,-138.687"/>
</g>
<!-- Zip&#45;&gt;Note -->
<g id="edge65" class="edge"><title>Zip&#45;&gt;Note</title>
<path fill="none" stroke="#ab04b0" d="M244.914,-215.912C259.92,-206.366 276.133,-197.125 292.076,-190 408.698,-137.877 554.346,-105.741 641.865,-89.651"/>
<ellipse fill="none" stroke="#ab04b0" cx="241.469" cy="-218.14" rx="4.00002" ry="4.00002"/>
<polygon fill="#ab04b0" stroke="#ab04b0" points="641.881,-89.6482 652.524,-92.2896 646.801,-88.7551 651.72,-87.8619 651.72,-87.8619 651.72,-87.8619 646.801,-88.7551 650.916,-83.4343 641.881,-89.6482 641.881,-89.6482"/>
</g>
</g>
</svg>
