<?xml version="1.0" encoding="UTF-8" standalone="no"?>
<!DOCTYPE svg PUBLIC "-//W3C//DTD SVG 1.1//EN"
 "http://www.w3.org/Graphics/SVG/1.1/DTD/svg11.dtd">
<!-- Generated by graphviz version 2.29.20121209.0545 (20121209.0545)
 -->
<!-- Title: controllers_diagram Pages: 1 -->
<svg width="1949pt" height="1136pt"
 viewBox="0.00 0.00 1948.60 1136.00" xmlns="http://www.w3.org/2000/svg" xmlns:xlink="http://www.w3.org/1999/xlink">
<g id="graph0" class="graph" transform="scale(1 1) rotate(0) translate(4 1132)">
<title>controllers_diagram</title>
<polygon fill="white" stroke="white" points="-4,5 -4,-1132 1945.6,-1132 1945.6,5 -4,5"/>
<!-- _diagram_info -->
<g id="node1" class="node"><title>_diagram_info</title>
<text text-anchor="start" x="1478" y="-1113.6" font-family="Times,serif" font-size="13.00">Controllers diagram</text>
<text text-anchor="start" x="1478" y="-1099.6" font-family="Times,serif" font-size="13.00">Date: Dec 16 2012 &#45; 21:09</text>
<text text-anchor="start" x="1478" y="-1085.6" font-family="Times,serif" font-size="13.00">Migration version: 20121217020539</text>
<text text-anchor="start" x="1478" y="-1071.6" font-family="Times,serif" font-size="13.00">Generated by RailRoady 1.1.0</text>
<text text-anchor="start" x="1478" y="-1057.6" font-family="Times,serif" font-size="13.00">http://railroady.prestonlee.com</text>
</g>
<!-- AddendumsController -->
<g id="node2" class="node"><title>AddendumsController</title>
<ellipse fill="none" stroke="black" cx="124.472" cy="-101.471" rx="92.0841" ry="18"/>
<text text-anchor="middle" x="124.472" y="-97.7714" font-family="Times,serif" font-size="14.00">AddendumsController</text>
</g>
<!-- ApplicationController -->
<g id="node3" class="node"><title>ApplicationController</title>
<ellipse fill="none" stroke="black" cx="1081.45" cy="-481.572" rx="90.9839" ry="18"/>
<text text-anchor="middle" x="1081.45" y="-477.872" font-family="Times,serif" font-size="14.00">ApplicationController</text>
</g>
<!-- ApplicationController&#45;&gt;AddendumsController -->
<g id="edge1" class="edge"><title>ApplicationController&#45;&gt;AddendumsController</title>
<path fill="none" stroke="black" d="M1040.64,-465.361C883.932,-403.119 321.798,-179.847 165.215,-117.654"/>
</g>
<!-- BusinessesController -->
<g id="node4" class="node"><title>BusinessesController</title>
<ellipse fill="none" stroke="black" cx="891.132" cy="-76.6632" rx="87.9851" ry="18"/>
<text text-anchor="middle" x="891.132" y="-72.9632" font-family="Times,serif" font-size="14.00">BusinessesController</text>
</g>
<!-- ApplicationController&#45;&gt;BusinessesController -->
<g id="edge2" class="edge"><title>ApplicationController&#45;&gt;BusinessesController</title>
<path fill="none" stroke="black" d="M1074.15,-463.408C1062.89,-435.607 1040.38,-380.926 1019.42,-335.314 977.345,-243.769 922.255,-136.528 900.526,-94.673"/>
</g>
<!-- DailyDataController -->
<g id="node5" class="node"><title>DailyDataController</title>
<ellipse fill="none" stroke="black" cx="738.186" cy="-912.86" rx="85.5853" ry="18"/>
<text text-anchor="middle" x="738.186" y="-909.16" font-family="Times,serif" font-size="14.00">DailyDataController</text>
</g>
<!-- ApplicationController&#45;&gt;DailyDataController -->
<g id="edge3" class="edge"><title>ApplicationController&#45;&gt;DailyDataController</title>
<path fill="none" stroke="black" d="M1067.14,-499.555C1011.31,-569.701 808.497,-824.52 752.56,-894.8"/>
</g>
<!-- DailyDataDeliveryExceptionsController -->
<g id="node6" class="node"><title>DailyDataDeliveryExceptionsController</title>
<ellipse fill="none" stroke="black" cx="1284.31" cy="-400.298" rx="157.872" ry="18"/>
<text text-anchor="middle" x="1284.31" y="-396.598" font-family="Times,serif" font-size="14.00">DailyDataDeliveryExceptionsController</text>
</g>
<!-- ApplicationController&#45;&gt;DailyDataDeliveryExceptionsController -->
<g id="edge4" class="edge"><title>ApplicationController&#45;&gt;DailyDataDeliveryExceptionsController</title>
<path fill="none" stroke="black" d="M1122.02,-465.32C1156.47,-451.516 1205.8,-431.754 1241.01,-417.645"/>
</g>
<!-- DailyDataEmployeesController -->
<g id="node7" class="node"><title>DailyDataEmployeesController</title>
<ellipse fill="none" stroke="black" cx="443.519" cy="-607.381" rx="126.178" ry="18"/>
<text text-anchor="middle" x="443.519" y="-603.681" font-family="Times,serif" font-size="14.00">DailyDataEmployeesController</text>
</g>
<!-- ApplicationController&#45;&gt;DailyDataEmployeesController -->
<g id="edge5" class="edge"><title>ApplicationController&#45;&gt;DailyDataEmployeesController</title>
<path fill="none" stroke="black" d="M1016.77,-494.327C897.513,-517.847 643.666,-567.909 517.659,-592.76"/>
</g>
<!-- DailyDataVehiclesController -->
<g id="node8" class="node"><title>DailyDataVehiclesController</title>
<ellipse fill="none" stroke="black" cx="447.469" cy="-55.4654" rx="117.779" ry="18"/>
<text text-anchor="middle" x="447.469" y="-51.7654" font-family="Times,serif" font-size="14.00">DailyDataVehiclesController</text>
</g>
<!-- ApplicationController&#45;&gt;DailyDataVehiclesController -->
<g id="edge6" class="edge"><title>ApplicationController&#45;&gt;DailyDataVehiclesController</title>
<path fill="none" stroke="black" d="M1029.85,-466.692C938.479,-438.501 745.329,-370.472 612.35,-264.47 540.431,-207.141 480.692,-112.647 457.655,-73.4096"/>
</g>
<!-- DeliveryExceptionsController -->
<g id="node9" class="node"><title>DeliveryExceptionsController</title>
<ellipse fill="none" stroke="black" cx="1820.36" cy="-100.722" rx="120.479" ry="18"/>
<text text-anchor="middle" x="1820.36" y="-97.0221" font-family="Times,serif" font-size="14.00">DeliveryExceptionsController</text>
</g>
<!-- ApplicationController&#45;&gt;DeliveryExceptionsController -->
<g id="edge7" class="edge"><title>ApplicationController&#45;&gt;DeliveryExceptionsController</title>
<path fill="none" stroke="black" d="M1087.09,-463.491C1093.57,-445.356 1105.82,-417.686 1124.77,-400.243 1311.12,-228.726 1610.86,-145.743 1747.84,-115.168"/>
</g>
<!-- EmployeeManagerAssignmentsController -->
<g id="node10" class="node"><title>EmployeeManagerAssignmentsController</title>
<ellipse fill="none" stroke="black" cx="697.428" cy="-27.2379" rx="164.371" ry="18"/>
<text text-anchor="middle" x="697.428" y="-23.5379" font-family="Times,serif" font-size="14.00">EmployeeManagerAssignmentsController</text>
</g>
<!-- ApplicationController&#45;&gt;EmployeeManagerAssignmentsController -->
<g id="edge8" class="edge"><title>ApplicationController&#45;&gt;EmployeeManagerAssignmentsController</title>
<path fill="none" stroke="black" d="M1076.33,-463.282C1067.68,-434.362 1048.25,-377.076 1019.42,-335.314 930.399,-206.394 780.74,-88.6643 722.075,-45.0877"/>
</g>
<!-- EmployeePaysController -->
<g id="node11" class="node"><title>EmployeePaysController</title>
<ellipse fill="none" stroke="black" cx="1262.65" cy="-84.8151" rx="102.082" ry="18"/>
<text text-anchor="middle" x="1262.65" y="-81.1151" font-family="Times,serif" font-size="14.00">EmployeePaysController</text>
</g>
<!-- ApplicationController&#45;&gt;EmployeePaysController -->
<g id="edge9" class="edge"><title>ApplicationController&#45;&gt;EmployeePaysController</title>
<path fill="none" stroke="black" d="M1089.71,-463.493C1119.89,-397.397 1224.08,-169.269 1254.34,-103"/>
</g>
<!-- EmployeePsasController -->
<g id="node12" class="node"><title>EmployeePsasController</title>
<ellipse fill="none" stroke="black" cx="916.427" cy="-335.214" rx="101.282" ry="18"/>
<text text-anchor="middle" x="916.427" y="-331.514" font-family="Times,serif" font-size="14.00">EmployeePsasController</text>
</g>
<!-- ApplicationController&#45;&gt;EmployeePsasController -->
<g id="edge10" class="edge"><title>ApplicationController&#45;&gt;EmployeePsasController</title>
<path fill="none" stroke="black" d="M1061.55,-463.918C1029.83,-435.787 968.166,-381.101 936.404,-352.931"/>
</g>
<!-- EmployeeTerminalsController -->
<g id="node13" class="node"><title>EmployeeTerminalsController</title>
<ellipse fill="none" stroke="black" cx="122.189" cy="-472.361" rx="122.379" ry="18"/>
<text text-anchor="middle" x="122.189" y="-468.661" font-family="Times,serif" font-size="14.00">EmployeeTerminalsController</text>
</g>
<!-- ApplicationController&#45;&gt;EmployeeTerminalsController -->
<g id="edge11" class="edge"><title>ApplicationController&#45;&gt;EmployeeTerminalsController</title>
<path fill="none" stroke="black" d="M991.708,-484.85C913.089,-487.403 795.744,-490.443 693.518,-489.975 536.107,-489.253 354.412,-482.663 238.965,-477.754"/>
</g>
<!-- EmployeesController -->
<g id="node14" class="node"><title>EmployeesController</title>
<ellipse fill="none" stroke="black" cx="1827.71" cy="-475.567" rx="88.2844" ry="18"/>
<text text-anchor="middle" x="1827.71" y="-471.867" font-family="Times,serif" font-size="14.00">EmployeesController</text>
</g>
<!-- ApplicationController&#45;&gt;EmployeesController -->
<g id="edge12" class="edge"><title>ApplicationController&#45;&gt;EmployeesController</title>
<path fill="none" stroke="black" d="M1172.58,-480.839C1316.93,-479.677 1596.39,-477.428 1739.13,-476.28"/>
</g>
<!-- FedexContractsController -->
<g id="node15" class="node"><title>FedexContractsController</title>
<ellipse fill="none" stroke="black" cx="1512.74" cy="-605.703" rx="105.082" ry="18"/>
<text text-anchor="middle" x="1512.74" y="-602.003" font-family="Times,serif" font-size="14.00">FedexContractsController</text>
</g>
<!-- ApplicationController&#45;&gt;FedexContractsController -->
<g id="edge13" class="edge"><title>ApplicationController&#45;&gt;FedexContractsController</title>
<path fill="none" stroke="black" d="M1133.05,-496.422C1215.22,-520.071 1375.05,-566.072 1458.72,-590.154"/>
</g>
<!-- NotesController -->
<g id="node16" class="node"><title>NotesController</title>
<ellipse fill="none" stroke="black" cx="1179.21" cy="-904.37" rx="69.5877" ry="18"/>
<text text-anchor="middle" x="1179.21" y="-900.67" font-family="Times,serif" font-size="14.00">NotesController</text>
</g>
<!-- ApplicationController&#45;&gt;NotesController -->
<g id="edge14" class="edge"><title>ApplicationController&#45;&gt;NotesController</title>
<path fill="none" stroke="black" d="M1085.65,-499.739C1101.69,-569.127 1159,-816.999 1175.02,-886.271"/>
</g>
<!-- PaysController -->
<g id="node17" class="node"><title>PaysController</title>
<ellipse fill="none" stroke="black" cx="1109.11" cy="-266.086" rx="64.9885" ry="18"/>
<text text-anchor="middle" x="1109.11" y="-262.386" font-family="Times,serif" font-size="14.00">PaysController</text>
</g>
<!-- ApplicationController&#45;&gt;PaysController -->
<g id="edge15" class="edge"><title>ApplicationController&#45;&gt;PaysController</title>
<path fill="none" stroke="black" d="M1083.76,-463.57C1088.97,-423.008 1101.57,-324.845 1106.78,-284.188"/>
</g>
<!-- PsaStatesController -->
<g id="node18" class="node"><title>PsaStatesController</title>
<ellipse fill="none" stroke="black" cx="1494.35" cy="-41.0608" rx="82.5854" ry="18"/>
<text text-anchor="middle" x="1494.35" y="-37.3608" font-family="Times,serif" font-size="14.00">PsaStatesController</text>
</g>
<!-- ApplicationController&#45;&gt;PsaStatesController -->
<g id="edge16" class="edge"><title>ApplicationController&#45;&gt;PsaStatesController</title>
<path fill="none" stroke="black" d="M1089.11,-463.498C1096.81,-446.36 1109.68,-420.32 1124.77,-400.243 1236.59,-251.478 1410.68,-107.34 1472.04,-58.5179"/>
</g>
<!-- PsasController -->
<g id="node19" class="node"><title>PsasController</title>
<ellipse fill="none" stroke="black" cx="472.135" cy="-887.569" rx="64.189" ry="18"/>
<text text-anchor="middle" x="472.135" y="-883.869" font-family="Times,serif" font-size="14.00">PsasController</text>
</g>
<!-- ApplicationController&#45;&gt;PsasController -->
<g id="edge17" class="edge"><title>ApplicationController&#45;&gt;PsasController</title>
<path fill="none" stroke="black" d="M1067.01,-499.659C1052.84,-516.721 1030.07,-542.406 1007.04,-561.159 832.428,-703.366 590.462,-829.012 504.232,-871.902"/>
</g>
<!-- PsazipsController -->
<g id="node20" class="node"><title>PsazipsController</title>
<ellipse fill="none" stroke="black" cx="131.662" cy="-842.296" rx="75.2868" ry="18"/>
<text text-anchor="middle" x="131.662" y="-838.596" font-family="Times,serif" font-size="14.00">PsazipsController</text>
</g>
<!-- ApplicationController&#45;&gt;PsazipsController -->
<g id="edge18" class="edge"><title>ApplicationController&#45;&gt;PsazipsController</title>
<path fill="none" stroke="black" d="M1016.73,-494.231C960.457,-505.89 877.031,-524.749 806.017,-547.176 548.581,-628.478 256.815,-776.561 162.677,-825.848"/>
</g>
<!-- RegionsController -->
<g id="node21" class="node"><title>RegionsController</title>
<ellipse fill="none" stroke="black" cx="719.597" cy="-687.026" rx="77.9862" ry="18"/>
<text text-anchor="middle" x="719.597" y="-683.326" font-family="Times,serif" font-size="14.00">RegionsController</text>
</g>
<!-- ApplicationController&#45;&gt;RegionsController -->
<g id="edge19" class="edge"><title>ApplicationController&#45;&gt;RegionsController</title>
<path fill="none" stroke="black" d="M1068.07,-499.709C1054.35,-517.292 1031.59,-543.785 1007.04,-561.159 930.557,-615.288 827.092,-653.5 767.427,-672.748"/>
</g>
<!-- RolesController -->
<g id="node22" class="node"><title>RolesController</title>
<ellipse fill="none" stroke="black" cx="693.68" cy="-470.375" rx="68.7879" ry="18"/>
<text text-anchor="middle" x="693.68" y="-466.675" font-family="Times,serif" font-size="14.00">RolesController</text>
</g>
<!-- ApplicationController&#45;&gt;RolesController -->
<g id="edge20" class="edge"><title>ApplicationController&#45;&gt;RolesController</title>
<path fill="none" stroke="black" d="M991.026,-478.961C921.202,-476.944 826.06,-474.197 762.385,-472.358"/>
</g>
<!-- ServiceTypesController -->
<g id="node23" class="node"><title>ServiceTypesController</title>
<ellipse fill="none" stroke="black" cx="445.852" cy="-334.634" rx="97.4827" ry="18"/>
<text text-anchor="middle" x="445.852" y="-330.934" font-family="Times,serif" font-size="14.00">ServiceTypesController</text>
</g>
<!-- ApplicationController&#45;&gt;ServiceTypesController -->
<g id="edge21" class="edge"><title>ApplicationController&#45;&gt;ServiceTypesController</title>
<path fill="none" stroke="black" d="M1022.23,-467.88C901.729,-440.023 629.134,-377.005 507.02,-348.775"/>
</g>
<!-- StatesController -->
<g id="node24" class="node"><title>StatesController</title>
<ellipse fill="none" stroke="black" cx="1256.63" cy="-650.128" rx="69.5877" ry="18"/>
<text text-anchor="middle" x="1256.63" y="-646.428" font-family="Times,serif" font-size="14.00">StatesController</text>
</g>
<!-- ApplicationController&#45;&gt;StatesController -->
<g id="edge22" class="edge"><title>ApplicationController&#45;&gt;StatesController</title>
<path fill="none" stroke="black" d="M1099.87,-499.292C1133.6,-531.749 1204.91,-600.366 1238.46,-632.645"/>
</g>
<!-- TerminalsController -->
<g id="node25" class="node"><title>TerminalsController</title>
<ellipse fill="none" stroke="black" cx="1455.15" cy="-889.796" rx="85.2851" ry="18"/>
<text text-anchor="middle" x="1455.15" y="-886.096" font-family="Times,serif" font-size="14.00">TerminalsController</text>
</g>
<!-- ApplicationController&#45;&gt;TerminalsController -->
<g id="edge23" class="edge"><title>ApplicationController&#45;&gt;TerminalsController</title>
<path fill="none" stroke="black" d="M1090.38,-499.675C1106.71,-531.821 1143.59,-600.176 1185.49,-650.062 1264.66,-744.316 1381.17,-835.121 1431.05,-872.239"/>
</g>
<!-- UserRolesController -->
<g id="node26" class="node"><title>UserRolesController</title>
<ellipse fill="none" stroke="black" cx="949.534" cy="-890.515" rx="85.5853" ry="18"/>
<text text-anchor="middle" x="949.534" y="-886.815" font-family="Times,serif" font-size="14.00">UserRolesController</text>
</g>
<!-- ApplicationController&#45;&gt;UserRolesController -->
<g id="edge24" class="edge"><title>ApplicationController&#45;&gt;UserRolesController</title>
<path fill="none" stroke="black" d="M1068.67,-499.487C1044.85,-533.938 993.964,-612.628 970.982,-687.166 950.639,-753.148 948.827,-836.25 949.13,-872.37"/>
</g>
<!-- UsersController -->
<g id="node27" class="node"><title>UsersController</title>
<ellipse fill="none" stroke="black" cx="1067.71" cy="-18" rx="68.7879" ry="18"/>
<text text-anchor="middle" x="1067.71" y="-14.3" font-family="Times,serif" font-size="14.00">UsersController</text>
</g>
<!-- ApplicationController&#45;&gt;UsersController -->
<g id="edge25" class="edge"><title>ApplicationController&#45;&gt;UsersController</title>
<path fill="none" stroke="black" d="M1076.44,-463.589C1066.58,-426.829 1045.39,-340.275 1042.52,-265.97 1039.17,-179.491 1056.43,-76.7865 1064.14,-35.9915"/>
</g>
<!-- VehicleFuelsController -->
<g id="node28" class="node"><title>VehicleFuelsController</title>
<ellipse fill="none" stroke="black" cx="1808.02" cy="-846.246" rx="96.3833" ry="18"/>
<text text-anchor="middle" x="1808.02" y="-842.546" font-family="Times,serif" font-size="14.00">VehicleFuelsController</text>
</g>
<!-- ApplicationController&#45;&gt;VehicleFuelsController -->
<g id="edge26" class="edge"><title>ApplicationController&#45;&gt;VehicleFuelsController</title>
<path fill="none" stroke="black" d="M1115.04,-498.429C1236.58,-559.434 1652.73,-768.303 1774.37,-829.357"/>
</g>
<!-- VehicleOdometersController -->
<g id="node29" class="node"><title>VehicleOdometersController</title>
<ellipse fill="none" stroke="black" cx="889.105" cy="-561.087" rx="116.18" ry="18"/>
<text text-anchor="middle" x="889.105" y="-557.387" font-family="Times,serif" font-size="14.00">VehicleOdometersController</text>
</g>
<!-- ApplicationController&#45;&gt;VehicleOdometersController -->
<g id="edge27" class="edge"><title>ApplicationController&#45;&gt;VehicleOdometersController</title>
<path fill="none" stroke="black" d="M1042.06,-497.855C1009.42,-511.349 963.179,-530.465 930.1,-544.139"/>
</g>
<!-- VehicleTypesController -->
<g id="node30" class="node"><title>VehicleTypesController</title>
<ellipse fill="none" stroke="black" cx="712.741" cy="-264.518" rx="98.5829" ry="18"/>
<text text-anchor="middle" x="712.741" y="-260.818" font-family="Times,serif" font-size="14.00">VehicleTypesController</text>
</g>
<!-- ApplicationController&#45;&gt;VehicleTypesController -->
<g id="edge28" class="edge"><title>ApplicationController&#45;&gt;VehicleTypesController</title>
<path fill="none" stroke="black" d="M1047.76,-464.697C996.295,-438.574 895.417,-386.03 813.438,-335.113 786.232,-318.217 756.337,-296.884 736.244,-282.114"/>
</g>
<!-- VehiclesController -->
<g id="node31" class="node"><title>VehiclesController</title>
<ellipse fill="none" stroke="black" cx="1513.47" cy="-320.159" rx="79.8859" ry="18"/>
<text text-anchor="middle" x="1513.47" y="-316.459" font-family="Times,serif" font-size="14.00">VehiclesController</text>
</g>
<!-- ApplicationController&#45;&gt;VehiclesController -->
<g id="edge29" class="edge"><title>ApplicationController&#45;&gt;VehiclesController</title>
<path fill="none" stroke="black" d="M1171.46,-478.476C1249.09,-472.023 1361.39,-453.322 1443.84,-400.353 1468.97,-384.209 1490.18,-356.384 1502.36,-338.126"/>
</g>
<!-- ZipsController -->
<g id="node32" class="node"><title>ZipsController</title>
<ellipse fill="none" stroke="black" cx="1036.92" cy="-687.345" rx="64.189" ry="18"/>
<text text-anchor="middle" x="1036.92" y="-683.645" font-family="Times,serif" font-size="14.00">ZipsController</text>
</g>
<!-- ApplicationController&#45;&gt;ZipsController -->
<g id="edge30" class="edge"><title>ApplicationController&#45;&gt;ZipsController</title>
<path fill="none" stroke="black" d="M1077.5,-499.833C1069.05,-538.882 1049.31,-630.112 1040.87,-669.125"/>
</g>
</g>
</svg>
