<?xml version="1.0" encoding="UTF-8" standalone="no"?>
<!DOCTYPE svg PUBLIC "-//W3C//DTD SVG 1.1//EN"
 "http://www.w3.org/Graphics/SVG/1.1/DTD/svg11.dtd">
<!-- Generated by graphviz version 2.29.20121209.0545 (20121209.0545)
 -->
<!-- Title: controllers_diagram Pages: 1 -->
<svg width="1056pt" height="686pt"
 viewBox="0.00 0.00 1056.00 686.00" xmlns="http://www.w3.org/2000/svg" xmlns:xlink="http://www.w3.org/1999/xlink">
<g id="graph0" class="graph" transform="scale(1 1) rotate(0) translate(4 682)">
<title>controllers_diagram</title>
<polygon fill="white" stroke="white" points="-4,5 -4,-682 1053,-682 1053,5 -4,5"/>
<!-- _diagram_info -->
<g id="node1" class="node"><title>_diagram_info</title>
<text text-anchor="start" x="848" y="-663.6" font-family="Times,serif" font-size="13.00">Controllers diagram</text>
<text text-anchor="start" x="848" y="-649.6" font-family="Times,serif" font-size="13.00">Date: Dec 10 2012 &#45; 04:05</text>
<text text-anchor="start" x="848" y="-635.6" font-family="Times,serif" font-size="13.00">Migration version: 20121210090429</text>
<text text-anchor="start" x="848" y="-621.6" font-family="Times,serif" font-size="13.00">Generated by RailRoady 1.1.0</text>
<text text-anchor="start" x="848" y="-607.6" font-family="Times,serif" font-size="13.00">http://railroady.prestonlee.com</text>
</g>
<!-- AddendumsController -->
<g id="node2" class="node"><title>AddendumsController</title>
<ellipse fill="none" stroke="black" cx="101.588" cy="-274.627" rx="92.0841" ry="18"/>
<text text-anchor="middle" x="101.588" y="-270.927" font-family="Times,serif" font-size="14.00">AddendumsController</text>
</g>
<!-- ApplicationController -->
<g id="node3" class="node"><title>ApplicationController</title>
<ellipse fill="none" stroke="black" cx="601.375" cy="-277.385" rx="90.9839" ry="18"/>
<text text-anchor="middle" x="601.375" y="-273.685" font-family="Times,serif" font-size="14.00">ApplicationController</text>
</g>
<!-- ApplicationController&#45;&gt;AddendumsController -->
<g id="edge1" class="edge"><title>ApplicationController&#45;&gt;AddendumsController</title>
<path fill="none" stroke="black" d="M510.288,-276.882C420.613,-276.387 284.351,-275.636 194.164,-275.138"/>
</g>
<!-- EmployeePsasController -->
<g id="node4" class="node"><title>EmployeePsasController</title>
<ellipse fill="none" stroke="black" cx="339.96" cy="-18" rx="101.282" ry="18"/>
<text text-anchor="middle" x="339.96" y="-14.3" font-family="Times,serif" font-size="14.00">EmployeePsasController</text>
</g>
<!-- ApplicationController&#45;&gt;EmployeePsasController -->
<g id="edge2" class="edge"><title>ApplicationController&#45;&gt;EmployeePsasController</title>
<path fill="none" stroke="black" d="M583.407,-259.556C535.651,-212.171 405.954,-83.4812 358.054,-35.9533"/>
</g>
<!-- EmployeesController -->
<g id="node5" class="node"><title>EmployeesController</title>
<ellipse fill="none" stroke="black" cx="325.946" cy="-530.325" rx="88.2844" ry="18"/>
<text text-anchor="middle" x="325.946" y="-526.625" font-family="Times,serif" font-size="14.00">EmployeesController</text>
</g>
<!-- ApplicationController&#45;&gt;EmployeesController -->
<g id="edge3" class="edge"><title>ApplicationController&#45;&gt;EmployeesController</title>
<path fill="none" stroke="black" d="M582.008,-295.171C531.437,-341.613 395.84,-466.138 345.292,-512.558"/>
</g>
<!-- FedexContractsController -->
<g id="node6" class="node"><title>FedexContractsController</title>
<ellipse fill="none" stroke="black" cx="702.381" cy="-499.422" rx="105.082" ry="18"/>
<text text-anchor="middle" x="702.381" y="-495.722" font-family="Times,serif" font-size="14.00">FedexContractsController</text>
</g>
<!-- ApplicationController&#45;&gt;FedexContractsController -->
<g id="edge4" class="edge"><title>ApplicationController&#45;&gt;FedexContractsController</title>
<path fill="none" stroke="black" d="M609.641,-295.555C628.629,-337.294 675.182,-439.631 694.143,-481.312"/>
</g>
<!-- NotesController -->
<g id="node7" class="node"><title>NotesController</title>
<ellipse fill="none" stroke="black" cx="371.305" cy="-348.733" rx="69.5877" ry="18"/>
<text text-anchor="middle" x="371.305" y="-345.033" font-family="Times,serif" font-size="14.00">NotesController</text>
</g>
<!-- ApplicationController&#45;&gt;NotesController -->
<g id="edge5" class="edge"><title>ApplicationController&#45;&gt;NotesController</title>
<path fill="none" stroke="black" d="M552.302,-292.603C511.919,-305.127 455.155,-322.73 416.016,-334.868"/>
</g>
<!-- PsaStatesController -->
<g id="node8" class="node"><title>PsaStatesController</title>
<ellipse fill="none" stroke="black" cx="90.4528" cy="-47.7628" rx="82.5854" ry="18"/>
<text text-anchor="middle" x="90.4528" y="-44.0628" font-family="Times,serif" font-size="14.00">PsaStatesController</text>
</g>
<!-- ApplicationController&#45;&gt;PsaStatesController -->
<g id="edge6" class="edge"><title>ApplicationController&#45;&gt;PsaStatesController</title>
<path fill="none" stroke="black" d="M570.015,-260.316C534.52,-241.227 474.773,-209.788 422.071,-185.379 318.846,-137.572 194.265,-87.9891 131.237,-63.4583"/>
</g>
<!-- PsazipsController -->
<g id="node9" class="node"><title>PsazipsController</title>
<ellipse fill="none" stroke="black" cx="942.753" cy="-57.8278" rx="75.2868" ry="18"/>
<text text-anchor="middle" x="942.753" y="-54.1278" font-family="Times,serif" font-size="14.00">PsazipsController</text>
</g>
<!-- ApplicationController&#45;&gt;PsazipsController -->
<g id="edge7" class="edge"><title>ApplicationController&#45;&gt;PsazipsController</title>
<path fill="none" stroke="black" d="M628.163,-260.156C691.978,-219.113 852.401,-115.938 916.09,-74.976"/>
</g>
<!-- RegionsController -->
<g id="node10" class="node"><title>RegionsController</title>
<ellipse fill="none" stroke="black" cx="365.623" cy="-199.197" rx="77.9862" ry="18"/>
<text text-anchor="middle" x="365.623" y="-195.497" font-family="Times,serif" font-size="14.00">RegionsController</text>
</g>
<!-- ApplicationController&#45;&gt;RegionsController -->
<g id="edge8" class="edge"><title>ApplicationController&#45;&gt;RegionsController</title>
<path fill="none" stroke="black" d="M554.517,-261.844C512.621,-247.949 451.642,-227.726 410.395,-214.046"/>
</g>
<!-- RolesController -->
<g id="node11" class="node"><title>RolesController</title>
<ellipse fill="none" stroke="black" cx="710.139" cy="-54.9581" rx="68.7879" ry="18"/>
<text text-anchor="middle" x="710.139" y="-51.2581" font-family="Times,serif" font-size="14.00">RolesController</text>
</g>
<!-- ApplicationController&#45;&gt;RolesController -->
<g id="edge9" class="edge"><title>ApplicationController&#45;&gt;RolesController</title>
<path fill="none" stroke="black" d="M610.276,-259.182C630.722,-217.37 680.85,-114.854 701.268,-73.0997"/>
</g>
<!-- StatesController -->
<g id="node12" class="node"><title>StatesController</title>
<ellipse fill="none" stroke="black" cx="532.475" cy="-45.9596" rx="69.5877" ry="18"/>
<text text-anchor="middle" x="532.475" y="-42.2596" font-family="Times,serif" font-size="14.00">StatesController</text>
</g>
<!-- ApplicationController&#45;&gt;StatesController -->
<g id="edge10" class="edge"><title>ApplicationController&#45;&gt;StatesController</title>
<path fill="none" stroke="black" d="M595.969,-259.225C583.089,-215.964 550.711,-107.211 537.856,-64.0348"/>
</g>
<!-- TerminalsController -->
<g id="node13" class="node"><title>TerminalsController</title>
<ellipse fill="none" stroke="black" cx="85.1424" cy="-502.863" rx="85.2851" ry="18"/>
<text text-anchor="middle" x="85.1424" y="-499.163" font-family="Times,serif" font-size="14.00">TerminalsController</text>
</g>
<!-- ApplicationController&#45;&gt;TerminalsController -->
<g id="edge11" class="edge"><title>ApplicationController&#45;&gt;TerminalsController</title>
<path fill="none" stroke="black" d="M567.051,-294.228C530.956,-311.801 472.4,-339.915 421.165,-362.714 315.196,-409.87 188.496,-461.432 125.231,-486.855"/>
</g>
<!-- UserRolesController -->
<g id="node14" class="node"><title>UserRolesController</title>
<ellipse fill="none" stroke="black" cx="880.896" cy="-278.94" rx="85.5853" ry="18"/>
<text text-anchor="middle" x="880.896" y="-275.24" font-family="Times,serif" font-size="14.00">UserRolesController</text>
</g>
<!-- ApplicationController&#45;&gt;UserRolesController -->
<g id="edge12" class="edge"><title>ApplicationController&#45;&gt;UserRolesController</title>
<path fill="none" stroke="black" d="M692.514,-277.892C725.492,-278.075 762.597,-278.281 795.1,-278.462"/>
</g>
<!-- UsersController -->
<g id="node15" class="node"><title>UsersController</title>
<ellipse fill="none" stroke="black" cx="939.707" cy="-498.506" rx="68.7879" ry="18"/>
<text text-anchor="middle" x="939.707" y="-494.806" font-family="Times,serif" font-size="14.00">UsersController</text>
</g>
<!-- ApplicationController&#45;&gt;UsersController -->
<g id="edge13" class="edge"><title>ApplicationController&#45;&gt;UsersController</title>
<path fill="none" stroke="black" d="M627.924,-294.736C691.326,-336.173 850.945,-440.494 913.747,-481.54"/>
</g>
<!-- ZipsController -->
<g id="node16" class="node"><title>ZipsController</title>
<ellipse fill="none" stroke="black" cx="521.269" cy="-511.273" rx="64.189" ry="18"/>
<text text-anchor="middle" x="521.269" y="-507.573" font-family="Times,serif" font-size="14.00">ZipsController</text>
</g>
<!-- ApplicationController&#45;&gt;ZipsController -->
<g id="edge14" class="edge"><title>ApplicationController&#45;&gt;ZipsController</title>
<path fill="none" stroke="black" d="M595.223,-295.349C580.311,-338.885 542.375,-449.648 527.442,-493.248"/>
</g>
</g>
</svg>
