<?xml version="1.0" encoding="UTF-8" standalone="no"?>
<!DOCTYPE svg PUBLIC "-//W3C//DTD SVG 1.1//EN"
 "http://www.w3.org/Graphics/SVG/1.1/DTD/svg11.dtd">
<!-- Generated by graphviz version 2.29.20121209.0545 (20121209.0545)
 -->
<!-- Title: controllers_diagram Pages: 1 -->
<svg width="1401pt" height="955pt"
 viewBox="0.00 0.00 1401.00 955.00" xmlns="http://www.w3.org/2000/svg" xmlns:xlink="http://www.w3.org/1999/xlink">
<g id="graph0" class="graph" transform="scale(1 1) rotate(0) translate(4 951)">
<title>controllers_diagram</title>
<polygon fill="white" stroke="white" points="-4,5 -4,-951 1398,-951 1398,5 -4,5"/>
<!-- _diagram_info -->
<g id="node1" class="node"><title>_diagram_info</title>
<text text-anchor="start" x="1193" y="-932.6" font-family="Times,serif" font-size="13.00">Controllers diagram</text>
<text text-anchor="start" x="1193" y="-918.6" font-family="Times,serif" font-size="13.00">Date: Dec 12 2012 &#45; 22:01</text>
<text text-anchor="start" x="1193" y="-904.6" font-family="Times,serif" font-size="13.00">Migration version: 20121212223518</text>
<text text-anchor="start" x="1193" y="-890.6" font-family="Times,serif" font-size="13.00">Generated by RailRoady 1.1.0</text>
<text text-anchor="start" x="1193" y="-876.6" font-family="Times,serif" font-size="13.00">http://railroady.prestonlee.com</text>
</g>
<!-- AddendumsController -->
<g id="node2" class="node"><title>AddendumsController</title>
<ellipse fill="none" stroke="black" cx="92.7755" cy="-68.7392" rx="92.0841" ry="18"/>
<text text-anchor="middle" x="92.7755" y="-65.0392" font-family="Times,serif" font-size="14.00">AddendumsController</text>
</g>
<!-- ApplicationController -->
<g id="node3" class="node"><title>ApplicationController</title>
<ellipse fill="none" stroke="black" cx="749.241" cy="-362.966" rx="90.9839" ry="18"/>
<text text-anchor="middle" x="749.241" y="-359.266" font-family="Times,serif" font-size="14.00">ApplicationController</text>
</g>
<!-- ApplicationController&#45;&gt;AddendumsController -->
<g id="edge1" class="edge"><title>ApplicationController&#45;&gt;AddendumsController</title>
<path fill="none" stroke="black" d="M727.144,-345.502C704.584,-328.076 668.206,-301.071 634.611,-280.97 622.614,-273.791 619.194,-272.687 606.389,-267.076 435.886,-192.362 227.558,-116.541 137.63,-84.5364"/>
</g>
<!-- BusinessesController -->
<g id="node4" class="node"><title>BusinessesController</title>
<ellipse fill="none" stroke="black" cx="785.715" cy="-18" rx="87.9851" ry="18"/>
<text text-anchor="middle" x="785.715" y="-14.3" font-family="Times,serif" font-size="14.00">BusinessesController</text>
</g>
<!-- ApplicationController&#45;&gt;BusinessesController -->
<g id="edge2" class="edge"><title>ApplicationController&#45;&gt;BusinessesController</title>
<path fill="none" stroke="black" d="M757.966,-344.675C771.316,-315.363 795.917,-255.685 802.082,-201.882 809.034,-141.223 796.576,-69.0181 789.746,-36.0402"/>
</g>
<!-- DailyDataController -->
<g id="node5" class="node"><title>DailyDataController</title>
<ellipse fill="none" stroke="black" cx="515.278" cy="-693.538" rx="85.5853" ry="18"/>
<text text-anchor="middle" x="515.278" y="-689.838" font-family="Times,serif" font-size="14.00">DailyDataController</text>
</g>
<!-- ApplicationController&#45;&gt;DailyDataController -->
<g id="edge3" class="edge"><title>ApplicationController&#45;&gt;DailyDataController</title>
<path fill="none" stroke="black" d="M736.329,-381.21C695.424,-439.006 569,-617.634 528.15,-675.351"/>
</g>
<!-- DailyDataEmployeesController -->
<g id="node6" class="node"><title>DailyDataEmployeesController</title>
<ellipse fill="none" stroke="black" cx="1013.11" cy="-434.566" rx="126.178" ry="18"/>
<text text-anchor="middle" x="1013.11" y="-430.866" font-family="Times,serif" font-size="14.00">DailyDataEmployeesController</text>
</g>
<!-- ApplicationController&#45;&gt;DailyDataEmployeesController -->
<g id="edge4" class="edge"><title>ApplicationController&#45;&gt;DailyDataEmployeesController</title>
<path fill="none" stroke="black" d="M802.957,-377.542C846.807,-389.44 908.698,-406.234 953.958,-418.515"/>
</g>
<!-- DailyDataVehiclesController -->
<g id="node7" class="node"><title>DailyDataVehiclesController</title>
<ellipse fill="none" stroke="black" cx="363.748" cy="-468.207" rx="117.779" ry="18"/>
<text text-anchor="middle" x="363.748" y="-464.507" font-family="Times,serif" font-size="14.00">DailyDataVehiclesController</text>
</g>
<!-- ApplicationController&#45;&gt;DailyDataVehiclesController -->
<g id="edge5" class="edge"><title>ApplicationController&#45;&gt;DailyDataVehiclesController</title>
<path fill="none" stroke="black" d="M695.64,-377.599C623.439,-397.311 495.46,-432.25 421.291,-452.498"/>
</g>
<!-- EmployeePsasController -->
<g id="node8" class="node"><title>EmployeePsasController</title>
<ellipse fill="none" stroke="black" cx="363.541" cy="-28.2903" rx="101.282" ry="18"/>
<text text-anchor="middle" x="363.541" y="-24.5903" font-family="Times,serif" font-size="14.00">EmployeePsasController</text>
</g>
<!-- ApplicationController&#45;&gt;EmployeePsasController -->
<g id="edge6" class="edge"><title>ApplicationController&#45;&gt;EmployeePsasController</title>
<path fill="none" stroke="black" d="M728.776,-345.209C661.964,-287.235 450.697,-103.917 383.956,-46.0048"/>
</g>
<!-- EmployeesController -->
<g id="node9" class="node"><title>EmployeesController</title>
<ellipse fill="none" stroke="black" cx="1212.69" cy="-255.194" rx="88.2844" ry="18"/>
<text text-anchor="middle" x="1212.69" y="-251.494" font-family="Times,serif" font-size="14.00">EmployeesController</text>
</g>
<!-- ApplicationController&#45;&gt;EmployeesController -->
<g id="edge7" class="edge"><title>ApplicationController&#45;&gt;EmployeesController</title>
<path fill="none" stroke="black" d="M808.408,-349.207C897.599,-328.466 1065.47,-289.428 1154.24,-268.786"/>
</g>
<!-- FedexContractsController -->
<g id="node10" class="node"><title>FedexContractsController</title>
<ellipse fill="none" stroke="black" cx="573.003" cy="-37.3464" rx="105.082" ry="18"/>
<text text-anchor="middle" x="573.003" y="-33.6464" font-family="Times,serif" font-size="14.00">FedexContractsController</text>
</g>
<!-- ApplicationController&#45;&gt;FedexContractsController -->
<g id="edge8" class="edge"><title>ApplicationController&#45;&gt;FedexContractsController</title>
<path fill="none" stroke="black" d="M734.03,-345.149C710.14,-316.481 663.495,-257.643 633.799,-201.67 607.069,-151.287 586.881,-86.5574 577.991,-55.524"/>
</g>
<!-- NotesController -->
<g id="node11" class="node"><title>NotesController</title>
<ellipse fill="none" stroke="black" cx="1005.05" cy="-37.7836" rx="69.5877" ry="18"/>
<text text-anchor="middle" x="1005.05" y="-34.0836" font-family="Times,serif" font-size="14.00">NotesController</text>
</g>
<!-- ApplicationController&#45;&gt;NotesController -->
<g id="edge9" class="edge"><title>ApplicationController&#45;&gt;NotesController</title>
<path fill="none" stroke="black" d="M761.23,-344.804C776.468,-321.962 803.835,-281.726 829.127,-248.636 885.582,-174.774 958.107,-91.0963 989.464,-55.4124"/>
</g>
<!-- PsaStatesController -->
<g id="node12" class="node"><title>PsaStatesController</title>
<ellipse fill="none" stroke="black" cx="717.941" cy="-201.776" rx="82.5854" ry="18"/>
<text text-anchor="middle" x="717.941" y="-198.076" font-family="Times,serif" font-size="14.00">PsaStatesController</text>
</g>
<!-- ApplicationController&#45;&gt;PsaStatesController -->
<g id="edge10" class="edge"><title>ApplicationController&#45;&gt;PsaStatesController</title>
<path fill="none" stroke="black" d="M745.711,-344.789C739.7,-313.831 727.541,-251.215 721.506,-220.134"/>
</g>
<!-- PsasController -->
<g id="node13" class="node"><title>PsasController</title>
<ellipse fill="none" stroke="black" cx="91.0671" cy="-367.692" rx="64.189" ry="18"/>
<text text-anchor="middle" x="91.0671" y="-363.992" font-family="Times,serif" font-size="14.00">PsasController</text>
</g>
<!-- ApplicationController&#45;&gt;PsasController -->
<g id="edge11" class="edge"><title>ApplicationController&#45;&gt;PsasController</title>
<path fill="none" stroke="black" d="M658.07,-363.621C523.074,-364.59 273.328,-366.383 155.629,-367.228"/>
</g>
<!-- PsazipsController -->
<g id="node14" class="node"><title>PsazipsController</title>
<ellipse fill="none" stroke="black" cx="1286.29" cy="-445.477" rx="75.2868" ry="18"/>
<text text-anchor="middle" x="1286.29" y="-441.777" font-family="Times,serif" font-size="14.00">PsazipsController</text>
</g>
<!-- ApplicationController&#45;&gt;PsazipsController -->
<g id="edge12" class="edge"><title>ApplicationController&#45;&gt;PsazipsController</title>
<path fill="none" stroke="black" d="M821.113,-374.008C926.725,-390.234 1122.18,-420.263 1222.79,-435.721"/>
</g>
<!-- RegionsController -->
<g id="node15" class="node"><title>RegionsController</title>
<ellipse fill="none" stroke="black" cx="1273.19" cy="-692.827" rx="77.9862" ry="18"/>
<text text-anchor="middle" x="1273.19" y="-689.127" font-family="Times,serif" font-size="14.00">RegionsController</text>
</g>
<!-- ApplicationController&#45;&gt;RegionsController -->
<g id="edge13" class="edge"><title>ApplicationController&#45;&gt;RegionsController</title>
<path fill="none" stroke="black" d="M776.673,-380.236C867.318,-437.304 1156.56,-619.399 1246.34,-675.925"/>
</g>
<!-- RolesController -->
<g id="node16" class="node"><title>RolesController</title>
<ellipse fill="none" stroke="black" cx="847.587" cy="-720.309" rx="68.7879" ry="18"/>
<text text-anchor="middle" x="847.587" y="-716.609" font-family="Times,serif" font-size="14.00">RolesController</text>
</g>
<!-- ApplicationController&#45;&gt;RolesController -->
<g id="edge14" class="edge"><title>ApplicationController&#45;&gt;RolesController</title>
<path fill="none" stroke="black" d="M740.767,-381.046C728.557,-409.334 708.384,-465.827 717.051,-514.173 731.364,-594.019 797.308,-669.756 829.629,-702.852"/>
</g>
<!-- ServiceTypesController -->
<g id="node17" class="node"><title>ServiceTypesController</title>
<ellipse fill="none" stroke="black" cx="928.219" cy="-248.653" rx="97.4827" ry="18"/>
<text text-anchor="middle" x="928.219" y="-244.953" font-family="Times,serif" font-size="14.00">ServiceTypesController</text>
</g>
<!-- ApplicationController&#45;&gt;ServiceTypesController -->
<g id="edge15" class="edge"><title>ApplicationController&#45;&gt;ServiceTypesController</title>
<path fill="none" stroke="black" d="M776.424,-345.604C810.161,-324.056 867.354,-287.527 901.074,-265.99"/>
</g>
<!-- StatesController -->
<g id="node18" class="node"><title>StatesController</title>
<ellipse fill="none" stroke="black" cx="1278.89" cy="-45.0853" rx="69.5877" ry="18"/>
<text text-anchor="middle" x="1278.89" y="-41.3853" font-family="Times,serif" font-size="14.00">StatesController</text>
</g>
<!-- ApplicationController&#45;&gt;StatesController -->
<g id="edge16" class="edge"><title>ApplicationController&#45;&gt;StatesController</title>
<path fill="none" stroke="black" d="M791.419,-346.858C841.203,-327.636 926.32,-294.118 998.225,-262.525 1011.33,-256.765 1015.2,-256.306 1027.31,-248.67 1121.42,-189.347 1220.45,-100.004 1260.49,-62.5651"/>
</g>
<!-- TerminalsController -->
<g id="node19" class="node"><title>TerminalsController</title>
<ellipse fill="none" stroke="black" cx="327.447" cy="-700.749" rx="85.2851" ry="18"/>
<text text-anchor="middle" x="327.447" y="-697.049" font-family="Times,serif" font-size="14.00">TerminalsController</text>
</g>
<!-- ApplicationController&#45;&gt;TerminalsController -->
<g id="edge17" class="edge"><title>ApplicationController&#45;&gt;TerminalsController</title>
<path fill="none" stroke="black" d="M738.168,-381.202C722.712,-405.698 692.836,-449.713 659.913,-480.575 562.43,-571.951 422.968,-650.69 360.23,-683.911"/>
</g>
<!-- UserRolesController -->
<g id="node20" class="node"><title>UserRolesController</title>
<ellipse fill="none" stroke="black" cx="85.7924" cy="-659.228" rx="85.5853" ry="18"/>
<text text-anchor="middle" x="85.7924" y="-655.528" font-family="Times,serif" font-size="14.00">UserRolesController</text>
</g>
<!-- ApplicationController&#45;&gt;UserRolesController -->
<g id="edge18" class="edge"><title>ApplicationController&#45;&gt;UserRolesController</title>
<path fill="none" stroke="black" d="M712.149,-379.529C595.763,-431.502 238.648,-590.971 122.622,-642.782"/>
</g>
<!-- UsersController -->
<g id="node21" class="node"><title>UsersController</title>
<ellipse fill="none" stroke="black" cx="589.42" cy="-480.443" rx="68.7879" ry="18"/>
<text text-anchor="middle" x="589.42" y="-476.743" font-family="Times,serif" font-size="14.00">UsersController</text>
</g>
<!-- ApplicationController&#45;&gt;UsersController -->
<g id="edge19" class="edge"><title>ApplicationController&#45;&gt;UsersController</title>
<path fill="none" stroke="black" d="M725.314,-380.554C694.924,-402.893 642.823,-441.189 612.73,-463.31"/>
</g>
<!-- VehicleFuelsController -->
<g id="node22" class="node"><title>VehicleFuelsController</title>
<ellipse fill="none" stroke="black" cx="536.821" cy="-280.851" rx="96.3833" ry="18"/>
<text text-anchor="middle" x="536.821" y="-277.151" font-family="Times,serif" font-size="14.00">VehicleFuelsController</text>
</g>
<!-- ApplicationController&#45;&gt;VehicleFuelsController -->
<g id="edge20" class="edge"><title>ApplicationController&#45;&gt;VehicleFuelsController</title>
<path fill="none" stroke="black" d="M707.78,-346.939C670.593,-332.563 616.28,-311.567 578.904,-297.119"/>
</g>
<!-- VehicleOdometersController -->
<g id="node23" class="node"><title>VehicleOdometersController</title>
<ellipse fill="none" stroke="black" cx="333.065" cy="-253.54" rx="116.18" ry="18"/>
<text text-anchor="middle" x="333.065" y="-249.84" font-family="Times,serif" font-size="14.00">VehicleOdometersController</text>
</g>
<!-- ApplicationController&#45;&gt;VehicleOdometersController -->
<g id="edge21" class="edge"><title>ApplicationController&#45;&gt;VehicleOdometersController</title>
<path fill="none" stroke="black" d="M689.016,-349.461C631.741,-336.361 543.285,-315.459 467.254,-294.626 439.409,-286.996 408.59,-277.626 383.517,-269.763"/>
</g>
<!-- VehicleTypesController -->
<g id="node24" class="node"><title>VehicleTypesController</title>
<ellipse fill="none" stroke="black" cx="817.441" cy="-514.273" rx="98.5829" ry="18"/>
<text text-anchor="middle" x="817.441" y="-510.573" font-family="Times,serif" font-size="14.00">VehicleTypesController</text>
</g>
<!-- ApplicationController&#45;&gt;VehicleTypesController -->
<g id="edge22" class="edge"><title>ApplicationController&#45;&gt;VehicleTypesController</title>
<path fill="none" stroke="black" d="M757.332,-380.917C770.387,-409.881 795.964,-466.626 809.147,-495.874"/>
</g>
<!-- VehiclesController -->
<g id="node25" class="node"><title>VehiclesController</title>
<ellipse fill="none" stroke="black" cx="1029.31" cy="-674.402" rx="79.8859" ry="18"/>
<text text-anchor="middle" x="1029.31" y="-670.702" font-family="Times,serif" font-size="14.00">VehiclesController</text>
</g>
<!-- ApplicationController&#45;&gt;VehiclesController -->
<g id="edge23" class="edge"><title>ApplicationController&#45;&gt;VehiclesController</title>
<path fill="none" stroke="black" d="M772.031,-380.599C805.925,-407.423 870.678,-461.018 917.831,-514.374 959.76,-561.819 999.919,-625.338 1018.52,-656.132"/>
</g>
<!-- ZipsController -->
<g id="node26" class="node"><title>ZipsController</title>
<ellipse fill="none" stroke="black" cx="678.564" cy="-693.585" rx="64.189" ry="18"/>
<text text-anchor="middle" x="678.564" y="-689.885" font-family="Times,serif" font-size="14.00">ZipsController</text>
</g>
<!-- ApplicationController&#45;&gt;ZipsController -->
<g id="edge24" class="edge"><title>ApplicationController&#45;&gt;ZipsController</title>
<path fill="none" stroke="black" d="M745.34,-381.213C732.983,-439.016 694.792,-617.669 682.452,-675.395"/>
</g>
</g>
</svg>
