<?xml version="1.0" encoding="UTF-8" standalone="no"?>
<!DOCTYPE svg PUBLIC "-//W3C//DTD SVG 1.1//EN"
 "http://www.w3.org/Graphics/SVG/1.1/DTD/svg11.dtd">
<!-- Generated by graphviz version 2.29.20121209.0545 (20121209.0545)
 -->
<!-- Title: controllers_diagram Pages: 1 -->
<svg width="1191pt" height="801pt"
 viewBox="0.00 0.00 1191.00 801.00" xmlns="http://www.w3.org/2000/svg" xmlns:xlink="http://www.w3.org/1999/xlink">
<g id="graph0" class="graph" transform="scale(1 1) rotate(0) translate(4 797)">
<title>controllers_diagram</title>
<polygon fill="white" stroke="white" points="-4,5 -4,-797 1188,-797 1188,5 -4,5"/>
<!-- _diagram_info -->
<g id="node1" class="node"><title>_diagram_info</title>
<text text-anchor="start" x="983" y="-778.6" font-family="Times,serif" font-size="13.00">Controllers diagram</text>
<text text-anchor="start" x="983" y="-764.6" font-family="Times,serif" font-size="13.00">Date: Dec 11 2012 &#45; 02:20</text>
<text text-anchor="start" x="983" y="-750.6" font-family="Times,serif" font-size="13.00">Migration version: 20121211062031</text>
<text text-anchor="start" x="983" y="-736.6" font-family="Times,serif" font-size="13.00">Generated by RailRoady 1.1.0</text>
<text text-anchor="start" x="983" y="-722.6" font-family="Times,serif" font-size="13.00">http://railroady.prestonlee.com</text>
</g>
<!-- AddendumsController -->
<g id="node2" class="node"><title>AddendumsController</title>
<ellipse fill="none" stroke="black" cx="92.2918" cy="-52.6048" rx="92.0841" ry="18"/>
<text text-anchor="middle" x="92.2918" y="-48.9048" font-family="Times,serif" font-size="14.00">AddendumsController</text>
</g>
<!-- ApplicationController -->
<g id="node3" class="node"><title>ApplicationController</title>
<ellipse fill="none" stroke="black" cx="517.351" cy="-375.002" rx="90.9839" ry="18"/>
<text text-anchor="middle" x="517.351" y="-371.302" font-family="Times,serif" font-size="14.00">ApplicationController</text>
</g>
<!-- ApplicationController&#45;&gt;AddendumsController -->
<g id="edge1" class="edge"><title>ApplicationController&#45;&gt;AddendumsController</title>
<path fill="none" stroke="black" d="M489.985,-357.607C443.681,-327.871 347.387,-264.715 270.255,-205.407 210.209,-159.237 143.472,-99.4948 111.464,-70.2751"/>
</g>
<!-- EmployeePsasController -->
<g id="node4" class="node"><title>EmployeePsasController</title>
<ellipse fill="none" stroke="black" cx="518.354" cy="-21.5286" rx="101.282" ry="18"/>
<text text-anchor="middle" x="518.354" y="-17.8286" font-family="Times,serif" font-size="14.00">EmployeePsasController</text>
</g>
<!-- ApplicationController&#45;&gt;EmployeePsasController -->
<g id="edge2" class="edge"><title>ApplicationController&#45;&gt;EmployeePsasController</title>
<path fill="none" stroke="black" d="M512.978,-356.627C505.79,-324.746 492.275,-257.028 492.402,-199.014 492.531,-140.157 506.615,-71.4661 513.978,-39.5421"/>
</g>
<!-- EmployeesController -->
<g id="node5" class="node"><title>EmployeesController</title>
<ellipse fill="none" stroke="black" cx="558.457" cy="-568.443" rx="88.2844" ry="18"/>
<text text-anchor="middle" x="558.457" y="-564.743" font-family="Times,serif" font-size="14.00">EmployeesController</text>
</g>
<!-- ApplicationController&#45;&gt;EmployeesController -->
<g id="edge3" class="edge"><title>ApplicationController&#45;&gt;EmployeesController</title>
<path fill="none" stroke="black" d="M521.218,-393.2C529.072,-430.163 546.809,-513.631 554.63,-550.434"/>
</g>
<!-- FedexContractsController -->
<g id="node6" class="node"><title>FedexContractsController</title>
<ellipse fill="none" stroke="black" cx="728.482" cy="-383.731" rx="105.082" ry="18"/>
<text text-anchor="middle" x="728.482" y="-380.031" font-family="Times,serif" font-size="14.00">FedexContractsController</text>
</g>
<!-- ApplicationController&#45;&gt;FedexContractsController -->
<g id="edge4" class="edge"><title>ApplicationController&#45;&gt;FedexContractsController</title>
<path fill="none" stroke="black" d="M606.583,-378.691C612.998,-378.956 619.496,-379.225 625.978,-379.493"/>
</g>
<!-- NotesController -->
<g id="node7" class="node"><title>NotesController</title>
<ellipse fill="none" stroke="black" cx="308.402" cy="-393.198" rx="69.5877" ry="18"/>
<text text-anchor="middle" x="308.402" y="-389.498" font-family="Times,serif" font-size="14.00">NotesController</text>
</g>
<!-- ApplicationController&#45;&gt;NotesController -->
<g id="edge5" class="edge"><title>ApplicationController&#45;&gt;NotesController</title>
<path fill="none" stroke="black" d="M433.868,-382.272C414.089,-383.994 393.263,-385.808 374.386,-387.452"/>
</g>
<!-- PsaStatesController -->
<g id="node8" class="node"><title>PsaStatesController</title>
<ellipse fill="none" stroke="black" cx="305.872" cy="-20.3504" rx="82.5854" ry="18"/>
<text text-anchor="middle" x="305.872" y="-16.6504" font-family="Times,serif" font-size="14.00">PsaStatesController</text>
</g>
<!-- ApplicationController&#45;&gt;PsaStatesController -->
<g id="edge6" class="edge"><title>ApplicationController&#45;&gt;PsaStatesController</title>
<path fill="none" stroke="black" d="M508.739,-356.861C493.669,-325.491 461.097,-259.321 429.436,-205.711 392.068,-142.438 342.104,-70.9816 318.825,-38.3422"/>
</g>
<!-- PsazipsController -->
<g id="node9" class="node"><title>PsazipsController</title>
<ellipse fill="none" stroke="black" cx="1039.79" cy="-213.214" rx="75.2868" ry="18"/>
<text text-anchor="middle" x="1039.79" y="-209.514" font-family="Times,serif" font-size="14.00">PsazipsController</text>
</g>
<!-- ApplicationController&#45;&gt;PsazipsController -->
<g id="edge7" class="edge"><title>ApplicationController&#45;&gt;PsazipsController</title>
<path fill="none" stroke="black" d="M566.501,-359.781C667.09,-328.631 895.207,-257.989 993.409,-227.579"/>
</g>
<!-- RegionsController -->
<g id="node10" class="node"><title>RegionsController</title>
<ellipse fill="none" stroke="black" cx="349.845" cy="-205.559" rx="77.9862" ry="18"/>
<text text-anchor="middle" x="349.845" y="-201.859" font-family="Times,serif" font-size="14.00">RegionsController</text>
</g>
<!-- ApplicationController&#45;&gt;RegionsController -->
<g id="edge8" class="edge"><title>ApplicationController&#45;&gt;RegionsController</title>
<path fill="none" stroke="black" d="M499.741,-357.189C467.486,-324.561 399.297,-255.583 367.219,-223.133"/>
</g>
<!-- RolesController -->
<g id="node11" class="node"><title>RolesController</title>
<ellipse fill="none" stroke="black" cx="742.376" cy="-18" rx="68.7879" ry="18"/>
<text text-anchor="middle" x="742.376" y="-14.3" font-family="Times,serif" font-size="14.00">RolesController</text>
</g>
<!-- ApplicationController&#45;&gt;RolesController -->
<g id="edge9" class="edge"><title>ApplicationController&#45;&gt;RolesController</title>
<path fill="none" stroke="black" d="M541.017,-357.492C578.345,-328.634 650.735,-267.434 690.584,-199.139 722.232,-144.898 735.541,-70.1276 740.218,-36.1327"/>
</g>
<!-- ServiceTypesController -->
<g id="node12" class="node"><title>ServiceTypesController</title>
<ellipse fill="none" stroke="black" cx="591.493" cy="-199.076" rx="97.4827" ry="18"/>
<text text-anchor="middle" x="591.493" y="-195.376" font-family="Times,serif" font-size="14.00">ServiceTypesController</text>
</g>
<!-- ApplicationController&#45;&gt;ServiceTypesController -->
<g id="edge10" class="edge"><title>ApplicationController&#45;&gt;ServiceTypesController</title>
<path fill="none" stroke="black" d="M525.006,-356.837C539.25,-323.038 569.666,-250.866 583.879,-217.142"/>
</g>
<!-- TerminalsController -->
<g id="node13" class="node"><title>TerminalsController</title>
<ellipse fill="none" stroke="black" cx="98.7595" cy="-294.606" rx="85.2851" ry="18"/>
<text text-anchor="middle" x="98.7595" y="-290.906" font-family="Times,serif" font-size="14.00">TerminalsController</text>
</g>
<!-- ApplicationController&#45;&gt;TerminalsController -->
<g id="edge11" class="edge"><title>ApplicationController&#45;&gt;TerminalsController</title>
<path fill="none" stroke="black" d="M451.946,-362.44C372.732,-347.226 240.219,-321.775 161.994,-306.751"/>
</g>
<!-- UserRolesController -->
<g id="node14" class="node"><title>UserRolesController</title>
<ellipse fill="none" stroke="black" cx="977.863" cy="-388.831" rx="85.5853" ry="18"/>
<text text-anchor="middle" x="977.863" y="-385.131" font-family="Times,serif" font-size="14.00">UserRolesController</text>
</g>
<!-- ApplicationController&#45;&gt;UserRolesController -->
<g id="edge12" class="edge"><title>ApplicationController&#45;&gt;UserRolesController</title>
<path fill="none" stroke="black" d="M601.682,-368.193C640.395,-365.703 686.913,-363.605 728.818,-364.131 762.462,-364.554 770.799,-366.807 804.302,-369.916 836.596,-372.912 872.214,-376.708 902.737,-380.112"/>
</g>
<!-- UsersController -->
<g id="node15" class="node"><title>UsersController</title>
<ellipse fill="none" stroke="black" cx="1020.08" cy="-568.92" rx="68.7879" ry="18"/>
<text text-anchor="middle" x="1020.08" y="-565.22" font-family="Times,serif" font-size="14.00">UsersController</text>
</g>
<!-- ApplicationController&#45;&gt;UsersController -->
<g id="edge13" class="edge"><title>ApplicationController&#45;&gt;UsersController</title>
<path fill="none" stroke="black" d="M558.919,-391.036C654.429,-427.877 888.442,-518.144 981.244,-553.941"/>
</g>
<!-- VehicleFuelsController -->
<g id="node16" class="node"><title>VehicleFuelsController</title>
<ellipse fill="none" stroke="black" cx="781.477" cy="-570.768" rx="96.3833" ry="18"/>
<text text-anchor="middle" x="781.477" y="-567.068" font-family="Times,serif" font-size="14.00">VehicleFuelsController</text>
</g>
<!-- ApplicationController&#45;&gt;VehicleFuelsController -->
<g id="edge14" class="edge"><title>ApplicationController&#45;&gt;VehicleFuelsController</title>
<path fill="none" stroke="black" d="M541.256,-392.72C591.543,-429.992 707.744,-516.118 757.816,-553.231"/>
</g>
<!-- VehicleOdometersController -->
<g id="node17" class="node"><title>VehicleOdometersController</title>
<ellipse fill="none" stroke="black" cx="815.587" cy="-203.857" rx="116.18" ry="18"/>
<text text-anchor="middle" x="815.587" y="-200.157" font-family="Times,serif" font-size="14.00">VehicleOdometersController</text>
</g>
<!-- ApplicationController&#45;&gt;VehicleOdometersController -->
<g id="edge15" class="edge"><title>ApplicationController&#45;&gt;VehicleOdometersController</title>
<path fill="none" stroke="black" d="M547.037,-357.966C603.908,-325.33 727.665,-254.312 785.132,-221.334"/>
</g>
<!-- VehicleTypesController -->
<g id="node18" class="node"><title>VehicleTypesController</title>
<ellipse fill="none" stroke="black" cx="996.644" cy="-19.5478" rx="98.5829" ry="18"/>
<text text-anchor="middle" x="996.644" y="-15.8478" font-family="Times,serif" font-size="14.00">VehicleTypesController</text>
</g>
<!-- ApplicationController&#45;&gt;VehicleTypesController -->
<g id="edge16" class="edge"><title>ApplicationController&#45;&gt;VehicleTypesController</title>
<path fill="none" stroke="black" d="M533.679,-357.21C564.099,-324.605 632.298,-254.015 697.65,-203.721 788.724,-133.632 907.785,-66.9051 964.24,-36.59"/>
</g>
<!-- VehiclesController -->
<g id="node19" class="node"><title>VehiclesController</title>
<ellipse fill="none" stroke="black" cx="337.432" cy="-577.886" rx="79.8859" ry="18"/>
<text text-anchor="middle" x="337.432" y="-574.186" font-family="Times,serif" font-size="14.00">VehiclesController</text>
</g>
<!-- ApplicationController&#45;&gt;VehiclesController -->
<g id="edge17" class="edge"><title>ApplicationController&#45;&gt;VehiclesController</title>
<path fill="none" stroke="black" d="M501.384,-393.006C467.155,-431.604 387.071,-521.911 353.105,-560.212"/>
</g>
<!-- ZipsController -->
<g id="node20" class="node"><title>ZipsController</title>
<ellipse fill="none" stroke="black" cx="97.9473" cy="-544.987" rx="64.189" ry="18"/>
<text text-anchor="middle" x="97.9473" y="-541.287" font-family="Times,serif" font-size="14.00">ZipsController</text>
</g>
<!-- ApplicationController&#45;&gt;ZipsController -->
<g id="edge18" class="edge"><title>ApplicationController&#45;&gt;ZipsController</title>
<path fill="none" stroke="black" d="M477.136,-391.301C395.844,-424.249 213.053,-498.334 134.72,-530.083"/>
</g>
</g>
</svg>
