<?xml version="1.0" encoding="UTF-8" standalone="no"?>
<!DOCTYPE svg PUBLIC "-//W3C//DTD SVG 1.1//EN"
 "http://www.w3.org/Graphics/SVG/1.1/DTD/svg11.dtd">
<!-- Generated by graphviz version 2.29.20121209.0545 (20121209.0545)
 -->
<!-- Title: controllers_diagram Pages: 1 -->
<svg width="996pt" height="929pt"
 viewBox="0.00 0.00 996.00 928.97" xmlns="http://www.w3.org/2000/svg" xmlns:xlink="http://www.w3.org/1999/xlink">
<g id="graph0" class="graph" transform="scale(1 1) rotate(0) translate(4 924.973)">
<title>controllers_diagram</title>
<polygon fill="white" stroke="white" points="-4,5 -4,-924.973 993,-924.973 993,5 -4,5"/>
<!-- _diagram_info -->
<g id="node1" class="node"><title>_diagram_info</title>
<text text-anchor="start" x="788" y="-843.6" font-family="Times,serif" font-size="13.00">Controllers diagram</text>
<text text-anchor="start" x="788" y="-829.6" font-family="Times,serif" font-size="13.00">Date: Dec 10 2012 &#45; 01:23</text>
<text text-anchor="start" x="788" y="-815.6" font-family="Times,serif" font-size="13.00">Migration version: 20121210034931</text>
<text text-anchor="start" x="788" y="-801.6" font-family="Times,serif" font-size="13.00">Generated by RailRoady 1.1.0</text>
<text text-anchor="start" x="788" y="-787.6" font-family="Times,serif" font-size="13.00">http://railroady.prestonlee.com</text>
</g>
<!-- AddendumsController -->
<g id="node2" class="node"><title>AddendumsController</title>
<path fill="none" stroke="black" d="M14.652,-284.413C14.652,-284.413 132.652,-284.413 132.652,-284.413 138.652,-284.413 144.652,-290.413 144.652,-296.413 144.652,-296.413 144.652,-455.413 144.652,-455.413 144.652,-461.413 138.652,-467.413 132.652,-467.413 132.652,-467.413 14.652,-467.413 14.652,-467.413 8.65205,-467.413 2.65205,-461.413 2.65205,-455.413 2.65205,-455.413 2.65205,-296.413 2.65205,-296.413 2.65205,-290.413 8.65205,-284.413 14.652,-284.413"/>
<text text-anchor="middle" x="73.652" y="-452.213" font-family="Times,serif" font-size="14.00">AddendumsController</text>
<polyline fill="none" stroke="black" points="2.65205,-444.413 144.652,-444.413 "/>
<text text-anchor="start" x="10.652" y="-429.213" font-family="Times,serif" font-size="14.00">create</text>
<text text-anchor="start" x="10.652" y="-414.213" font-family="Times,serif" font-size="14.00">destroy</text>
<text text-anchor="start" x="10.652" y="-399.213" font-family="Times,serif" font-size="14.00">edit</text>
<text text-anchor="start" x="10.652" y="-384.213" font-family="Times,serif" font-size="14.00">index</text>
<text text-anchor="start" x="10.652" y="-369.213" font-family="Times,serif" font-size="14.00">new</text>
<text text-anchor="start" x="10.652" y="-354.213" font-family="Times,serif" font-size="14.00">show</text>
<text text-anchor="start" x="10.652" y="-339.213" font-family="Times,serif" font-size="14.00">update</text>
<polyline fill="none" stroke="black" points="2.65205,-331.413 144.652,-331.413 "/>
<polyline fill="none" stroke="black" points="2.65205,-307.413 144.652,-307.413 "/>
<text text-anchor="start" x="10.652" y="-292.213" font-family="Times,serif" font-size="14.00">_layout</text>
</g>
<!-- ApplicationController -->
<g id="node3" class="node"><title>ApplicationController</title>
<path fill="none" stroke="black" d="M371.338,-368.372C371.338,-368.372 543.338,-368.372 543.338,-368.372 549.338,-368.372 555.338,-374.372 555.338,-380.372 555.338,-380.372 555.338,-449.372 555.338,-449.372 555.338,-455.372 549.338,-461.372 543.338,-461.372 543.338,-461.372 371.338,-461.372 371.338,-461.372 365.338,-461.372 359.338,-455.372 359.338,-449.372 359.338,-449.372 359.338,-380.372 359.338,-380.372 359.338,-374.372 365.338,-368.372 371.338,-368.372"/>
<text text-anchor="middle" x="457.338" y="-446.172" font-family="Times,serif" font-size="14.00">ApplicationController</text>
<polyline fill="none" stroke="black" points="359.338,-438.372 555.338,-438.372 "/>
<text text-anchor="start" x="367.338" y="-423.172" font-family="Times,serif" font-size="14.00">_one_time_conditions_valid_8?</text>
<polyline fill="none" stroke="black" points="359.338,-415.372 555.338,-415.372 "/>
<polyline fill="none" stroke="black" points="359.338,-391.372 555.338,-391.372 "/>
<text text-anchor="start" x="367.338" y="-376.172" font-family="Times,serif" font-size="14.00">_layout</text>
</g>
<!-- ApplicationController&#45;&gt;AddendumsController -->
<g id="edge1" class="edge"><title>ApplicationController&#45;&gt;AddendumsController</title>
<path fill="none" stroke="black" d="M359.081,-423.069C353.985,-423.345 348.937,-423.586 344.006,-423.78 287.872,-425.982 273.062,-432.758 217.606,-423.78 193.427,-419.865 167.818,-412.478 145.008,-404.657"/>
</g>
<!-- EmployeesController -->
<g id="node4" class="node"><title>EmployeesController</title>
<path fill="none" stroke="black" d="M227.745,-0.5C227.745,-0.5 339.745,-0.5 339.745,-0.5 345.745,-0.5 351.745,-6.5 351.745,-12.5 351.745,-12.5 351.745,-171.5 351.745,-171.5 351.745,-177.5 345.745,-183.5 339.745,-183.5 339.745,-183.5 227.745,-183.5 227.745,-183.5 221.745,-183.5 215.745,-177.5 215.745,-171.5 215.745,-171.5 215.745,-12.5 215.745,-12.5 215.745,-6.5 221.745,-0.5 227.745,-0.5"/>
<text text-anchor="middle" x="283.745" y="-168.3" font-family="Times,serif" font-size="14.00">EmployeesController</text>
<polyline fill="none" stroke="black" points="215.745,-160.5 351.745,-160.5 "/>
<text text-anchor="start" x="223.745" y="-145.3" font-family="Times,serif" font-size="14.00">create</text>
<text text-anchor="start" x="223.745" y="-130.3" font-family="Times,serif" font-size="14.00">destroy</text>
<text text-anchor="start" x="223.745" y="-115.3" font-family="Times,serif" font-size="14.00">edit</text>
<text text-anchor="start" x="223.745" y="-100.3" font-family="Times,serif" font-size="14.00">index</text>
<text text-anchor="start" x="223.745" y="-85.3" font-family="Times,serif" font-size="14.00">new</text>
<text text-anchor="start" x="223.745" y="-70.3" font-family="Times,serif" font-size="14.00">show</text>
<text text-anchor="start" x="223.745" y="-55.3" font-family="Times,serif" font-size="14.00">update</text>
<polyline fill="none" stroke="black" points="215.745,-47.5 351.745,-47.5 "/>
<polyline fill="none" stroke="black" points="215.745,-23.5 351.745,-23.5 "/>
<text text-anchor="start" x="223.745" y="-8.3" font-family="Times,serif" font-size="14.00">_layout</text>
</g>
<!-- ApplicationController&#45;&gt;EmployeesController -->
<g id="edge2" class="edge"><title>ApplicationController&#45;&gt;EmployeesController</title>
<path fill="none" stroke="black" d="M432.282,-368.268C406.414,-320.156 365.378,-243.831 332.986,-183.586"/>
</g>
<!-- FedexContractsController -->
<g id="node5" class="node"><title>FedexContractsController</title>
<path fill="none" stroke="black" d="M31.7994,-731.894C31.7994,-731.894 169.799,-731.894 169.799,-731.894 175.799,-731.894 181.799,-737.894 181.799,-743.894 181.799,-743.894 181.799,-902.894 181.799,-902.894 181.799,-908.894 175.799,-914.894 169.799,-914.894 169.799,-914.894 31.7994,-914.894 31.7994,-914.894 25.7994,-914.894 19.7994,-908.894 19.7994,-902.894 19.7994,-902.894 19.7994,-743.894 19.7994,-743.894 19.7994,-737.894 25.7994,-731.894 31.7994,-731.894"/>
<text text-anchor="middle" x="100.799" y="-899.694" font-family="Times,serif" font-size="14.00">FedexContractsController</text>
<polyline fill="none" stroke="black" points="19.7994,-891.894 181.799,-891.894 "/>
<text text-anchor="start" x="27.7994" y="-876.694" font-family="Times,serif" font-size="14.00">create</text>
<text text-anchor="start" x="27.7994" y="-861.694" font-family="Times,serif" font-size="14.00">destroy</text>
<text text-anchor="start" x="27.7994" y="-846.694" font-family="Times,serif" font-size="14.00">edit</text>
<text text-anchor="start" x="27.7994" y="-831.694" font-family="Times,serif" font-size="14.00">index</text>
<text text-anchor="start" x="27.7994" y="-816.694" font-family="Times,serif" font-size="14.00">new</text>
<text text-anchor="start" x="27.7994" y="-801.694" font-family="Times,serif" font-size="14.00">show</text>
<text text-anchor="start" x="27.7994" y="-786.694" font-family="Times,serif" font-size="14.00">update</text>
<polyline fill="none" stroke="black" points="19.7994,-778.894 181.799,-778.894 "/>
<polyline fill="none" stroke="black" points="19.7994,-754.894 181.799,-754.894 "/>
<text text-anchor="start" x="27.7994" y="-739.694" font-family="Times,serif" font-size="14.00">_layout</text>
</g>
<!-- ApplicationController&#45;&gt;FedexContractsController -->
<g id="edge3" class="edge"><title>ApplicationController&#45;&gt;FedexContractsController</title>
<path fill="none" stroke="black" d="M439.239,-461.555C414.128,-524.782 368.663,-633.469 340.715,-665.83 296.907,-716.555 232.907,-757.472 182.024,-784.886"/>
</g>
<!-- NotesController -->
<g id="node6" class="node"><title>NotesController</title>
<path fill="none" stroke="black" d="M425.875,-540.572C425.875,-540.572 508.875,-540.572 508.875,-540.572 514.875,-540.572 520.875,-546.572 520.875,-552.572 520.875,-552.572 520.875,-711.572 520.875,-711.572 520.875,-717.572 514.875,-723.572 508.875,-723.572 508.875,-723.572 425.875,-723.572 425.875,-723.572 419.875,-723.572 413.875,-717.572 413.875,-711.572 413.875,-711.572 413.875,-552.572 413.875,-552.572 413.875,-546.572 419.875,-540.572 425.875,-540.572"/>
<text text-anchor="middle" x="467.375" y="-708.372" font-family="Times,serif" font-size="14.00">NotesController</text>
<polyline fill="none" stroke="black" points="413.875,-700.572 520.875,-700.572 "/>
<text text-anchor="start" x="421.875" y="-685.372" font-family="Times,serif" font-size="14.00">create</text>
<text text-anchor="start" x="421.875" y="-670.372" font-family="Times,serif" font-size="14.00">destroy</text>
<text text-anchor="start" x="421.875" y="-655.372" font-family="Times,serif" font-size="14.00">edit</text>
<text text-anchor="start" x="421.875" y="-640.372" font-family="Times,serif" font-size="14.00">index</text>
<text text-anchor="start" x="421.875" y="-625.372" font-family="Times,serif" font-size="14.00">new</text>
<text text-anchor="start" x="421.875" y="-610.372" font-family="Times,serif" font-size="14.00">show</text>
<text text-anchor="start" x="421.875" y="-595.372" font-family="Times,serif" font-size="14.00">update</text>
<polyline fill="none" stroke="black" points="413.875,-587.572 520.875,-587.572 "/>
<polyline fill="none" stroke="black" points="413.875,-563.572 520.875,-563.572 "/>
<text text-anchor="start" x="421.875" y="-548.372" font-family="Times,serif" font-size="14.00">_layout</text>
</g>
<!-- ApplicationController&#45;&gt;NotesController -->
<g id="edge4" class="edge"><title>ApplicationController&#45;&gt;NotesController</title>
<path fill="none" stroke="black" d="M459.491,-461.467C460.557,-484.527 461.882,-513.196 463.139,-540.411"/>
</g>
<!-- PsaStatesController -->
<g id="node7" class="node"><title>PsaStatesController</title>
<path fill="none" stroke="black" d="M222.515,-479.63C222.515,-479.63 325.515,-479.63 325.515,-479.63 331.515,-479.63 337.515,-485.63 337.515,-491.63 337.515,-491.63 337.515,-650.63 337.515,-650.63 337.515,-656.63 331.515,-662.63 325.515,-662.63 325.515,-662.63 222.515,-662.63 222.515,-662.63 216.515,-662.63 210.515,-656.63 210.515,-650.63 210.515,-650.63 210.515,-491.63 210.515,-491.63 210.515,-485.63 216.515,-479.63 222.515,-479.63"/>
<text text-anchor="middle" x="274.015" y="-647.43" font-family="Times,serif" font-size="14.00">PsaStatesController</text>
<polyline fill="none" stroke="black" points="210.515,-639.63 337.515,-639.63 "/>
<text text-anchor="start" x="218.515" y="-624.43" font-family="Times,serif" font-size="14.00">create</text>
<text text-anchor="start" x="218.515" y="-609.43" font-family="Times,serif" font-size="14.00">destroy</text>
<text text-anchor="start" x="218.515" y="-594.43" font-family="Times,serif" font-size="14.00">edit</text>
<text text-anchor="start" x="218.515" y="-579.43" font-family="Times,serif" font-size="14.00">index</text>
<text text-anchor="start" x="218.515" y="-564.43" font-family="Times,serif" font-size="14.00">new</text>
<text text-anchor="start" x="218.515" y="-549.43" font-family="Times,serif" font-size="14.00">show</text>
<text text-anchor="start" x="218.515" y="-534.43" font-family="Times,serif" font-size="14.00">update</text>
<polyline fill="none" stroke="black" points="210.515,-526.63 337.515,-526.63 "/>
<polyline fill="none" stroke="black" points="210.515,-502.63 337.515,-502.63 "/>
<text text-anchor="start" x="218.515" y="-487.43" font-family="Times,serif" font-size="14.00">_layout</text>
</g>
<!-- ApplicationController&#45;&gt;PsaStatesController -->
<g id="edge5" class="edge"><title>ApplicationController&#45;&gt;PsaStatesController</title>
<path fill="none" stroke="black" d="M402.335,-461.754C381.98,-479.104 358.737,-498.916 337.676,-516.867"/>
</g>
<!-- PsasController -->
<g id="node8" class="node"><title>PsasController</title>
<path fill="none" stroke="black" d="M32.615,-32.3811C32.615,-32.3811 107.615,-32.3811 107.615,-32.3811 113.615,-32.3811 119.615,-38.3811 119.615,-44.3811 119.615,-44.3811 119.615,-203.381 119.615,-203.381 119.615,-209.381 113.615,-215.381 107.615,-215.381 107.615,-215.381 32.615,-215.381 32.615,-215.381 26.615,-215.381 20.615,-209.381 20.615,-203.381 20.615,-203.381 20.615,-44.3811 20.615,-44.3811 20.615,-38.3811 26.615,-32.3811 32.615,-32.3811"/>
<text text-anchor="middle" x="70.115" y="-200.181" font-family="Times,serif" font-size="14.00">PsasController</text>
<polyline fill="none" stroke="black" points="20.615,-192.381 119.615,-192.381 "/>
<text text-anchor="start" x="28.615" y="-177.181" font-family="Times,serif" font-size="14.00">create</text>
<text text-anchor="start" x="28.615" y="-162.181" font-family="Times,serif" font-size="14.00">destroy</text>
<text text-anchor="start" x="28.615" y="-147.181" font-family="Times,serif" font-size="14.00">edit</text>
<text text-anchor="start" x="28.615" y="-132.181" font-family="Times,serif" font-size="14.00">index</text>
<text text-anchor="start" x="28.615" y="-117.181" font-family="Times,serif" font-size="14.00">new</text>
<text text-anchor="start" x="28.615" y="-102.181" font-family="Times,serif" font-size="14.00">show</text>
<text text-anchor="start" x="28.615" y="-87.1811" font-family="Times,serif" font-size="14.00">update</text>
<polyline fill="none" stroke="black" points="20.615,-79.3811 119.615,-79.3811 "/>
<polyline fill="none" stroke="black" points="20.615,-55.3811 119.615,-55.3811 "/>
<text text-anchor="start" x="28.615" y="-40.1811" font-family="Times,serif" font-size="14.00">_layout</text>
</g>
<!-- ApplicationController&#45;&gt;PsasController -->
<g id="edge6" class="edge"><title>ApplicationController&#45;&gt;PsasController</title>
<path fill="none" stroke="black" d="M438.457,-367.995C419.937,-327.459 388.06,-269.933 344.006,-234.38 295.641,-195.346 270.224,-209.849 212.545,-186.7 181.444,-174.218 147.056,-159.09 119.861,-146.807"/>
</g>
<!-- PsazipsController -->
<g id="node9" class="node"><title>PsazipsController</title>
<path fill="none" stroke="black" d="M615.335,-249.767C615.335,-249.767 707.335,-249.767 707.335,-249.767 713.335,-249.767 719.335,-255.767 719.335,-261.767 719.335,-261.767 719.335,-420.767 719.335,-420.767 719.335,-426.767 713.335,-432.767 707.335,-432.767 707.335,-432.767 615.335,-432.767 615.335,-432.767 609.335,-432.767 603.335,-426.767 603.335,-420.767 603.335,-420.767 603.335,-261.767 603.335,-261.767 603.335,-255.767 609.335,-249.767 615.335,-249.767"/>
<text text-anchor="middle" x="661.335" y="-417.567" font-family="Times,serif" font-size="14.00">PsazipsController</text>
<polyline fill="none" stroke="black" points="603.335,-409.767 719.335,-409.767 "/>
<text text-anchor="start" x="611.335" y="-394.567" font-family="Times,serif" font-size="14.00">create</text>
<text text-anchor="start" x="611.335" y="-379.567" font-family="Times,serif" font-size="14.00">destroy</text>
<text text-anchor="start" x="611.335" y="-364.567" font-family="Times,serif" font-size="14.00">edit</text>
<text text-anchor="start" x="611.335" y="-349.567" font-family="Times,serif" font-size="14.00">index</text>
<text text-anchor="start" x="611.335" y="-334.567" font-family="Times,serif" font-size="14.00">new</text>
<text text-anchor="start" x="611.335" y="-319.567" font-family="Times,serif" font-size="14.00">show</text>
<text text-anchor="start" x="611.335" y="-304.567" font-family="Times,serif" font-size="14.00">update</text>
<polyline fill="none" stroke="black" points="603.335,-296.767 719.335,-296.767 "/>
<polyline fill="none" stroke="black" points="603.335,-272.767 719.335,-272.767 "/>
<text text-anchor="start" x="611.335" y="-257.567" font-family="Times,serif" font-size="14.00">_layout</text>
</g>
<!-- ApplicationController&#45;&gt;PsazipsController -->
<g id="edge7" class="edge"><title>ApplicationController&#45;&gt;PsazipsController</title>
<path fill="none" stroke="black" d="M555.453,-379.471C571.784,-373.578 588.249,-367.638 603.168,-362.254"/>
</g>
<!-- RegionsController -->
<g id="node10" class="node"><title>RegionsController</title>
<path fill="none" stroke="black" d="M232.806,-237.58C232.806,-237.58 328.806,-237.58 328.806,-237.58 334.806,-237.58 340.806,-243.58 340.806,-249.58 340.806,-249.58 340.806,-408.58 340.806,-408.58 340.806,-414.58 334.806,-420.58 328.806,-420.58 328.806,-420.58 232.806,-420.58 232.806,-420.58 226.806,-420.58 220.806,-414.58 220.806,-408.58 220.806,-408.58 220.806,-249.58 220.806,-249.58 220.806,-243.58 226.806,-237.58 232.806,-237.58"/>
<text text-anchor="middle" x="280.806" y="-405.38" font-family="Times,serif" font-size="14.00">RegionsController</text>
<polyline fill="none" stroke="black" points="220.806,-397.58 340.806,-397.58 "/>
<text text-anchor="start" x="228.806" y="-382.38" font-family="Times,serif" font-size="14.00">create</text>
<text text-anchor="start" x="228.806" y="-367.38" font-family="Times,serif" font-size="14.00">destroy</text>
<text text-anchor="start" x="228.806" y="-352.38" font-family="Times,serif" font-size="14.00">edit</text>
<text text-anchor="start" x="228.806" y="-337.38" font-family="Times,serif" font-size="14.00">index</text>
<text text-anchor="start" x="228.806" y="-322.38" font-family="Times,serif" font-size="14.00">new</text>
<text text-anchor="start" x="228.806" y="-307.38" font-family="Times,serif" font-size="14.00">show</text>
<text text-anchor="start" x="228.806" y="-292.38" font-family="Times,serif" font-size="14.00">update</text>
<polyline fill="none" stroke="black" points="220.806,-284.58 340.806,-284.58 "/>
<polyline fill="none" stroke="black" points="220.806,-260.58 340.806,-260.58 "/>
<text text-anchor="start" x="228.806" y="-245.38" font-family="Times,serif" font-size="14.00">_layout</text>
</g>
<!-- ApplicationController&#45;&gt;RegionsController -->
<g id="edge8" class="edge"><title>ApplicationController&#45;&gt;RegionsController</title>
<path fill="none" stroke="black" d="M361.581,-368.335C354.611,-364.947 347.703,-361.59 341.033,-358.349"/>
</g>
<!-- RolesController -->
<g id="node11" class="node"><title>RolesController</title>
<path fill="none" stroke="black" d="M621.118,-11.3853C621.118,-11.3853 703.118,-11.3853 703.118,-11.3853 709.118,-11.3853 715.118,-17.3853 715.118,-23.3853 715.118,-23.3853 715.118,-182.385 715.118,-182.385 715.118,-188.385 709.118,-194.385 703.118,-194.385 703.118,-194.385 621.118,-194.385 621.118,-194.385 615.118,-194.385 609.118,-188.385 609.118,-182.385 609.118,-182.385 609.118,-23.3853 609.118,-23.3853 609.118,-17.3853 615.118,-11.3853 621.118,-11.3853"/>
<text text-anchor="middle" x="662.118" y="-179.185" font-family="Times,serif" font-size="14.00">RolesController</text>
<polyline fill="none" stroke="black" points="609.118,-171.385 715.118,-171.385 "/>
<text text-anchor="start" x="617.118" y="-156.185" font-family="Times,serif" font-size="14.00">create</text>
<text text-anchor="start" x="617.118" y="-141.185" font-family="Times,serif" font-size="14.00">destroy</text>
<text text-anchor="start" x="617.118" y="-126.185" font-family="Times,serif" font-size="14.00">edit</text>
<text text-anchor="start" x="617.118" y="-111.185" font-family="Times,serif" font-size="14.00">index</text>
<text text-anchor="start" x="617.118" y="-96.1853" font-family="Times,serif" font-size="14.00">new</text>
<text text-anchor="start" x="617.118" y="-81.1853" font-family="Times,serif" font-size="14.00">show</text>
<text text-anchor="start" x="617.118" y="-66.1853" font-family="Times,serif" font-size="14.00">update</text>
<polyline fill="none" stroke="black" points="609.118,-58.3853 715.118,-58.3853 "/>
<polyline fill="none" stroke="black" points="609.118,-34.3853 715.118,-34.3853 "/>
<text text-anchor="start" x="617.118" y="-19.1853" font-family="Times,serif" font-size="14.00">_layout</text>
</g>
<!-- ApplicationController&#45;&gt;RolesController -->
<g id="edge9" class="edge"><title>ApplicationController&#45;&gt;RolesController</title>
<path fill="none" stroke="black" d="M487.996,-368.164C519.906,-319.548 570.498,-242.471 608.943,-183.899"/>
</g>
<!-- StatesController -->
<g id="node12" class="node"><title>StatesController</title>
<path fill="none" stroke="black" d="M421.723,-55.4798C421.723,-55.4798 504.723,-55.4798 504.723,-55.4798 510.723,-55.4798 516.723,-61.4798 516.723,-67.4798 516.723,-67.4798 516.723,-226.48 516.723,-226.48 516.723,-232.48 510.723,-238.48 504.723,-238.48 504.723,-238.48 421.723,-238.48 421.723,-238.48 415.723,-238.48 409.723,-232.48 409.723,-226.48 409.723,-226.48 409.723,-67.4798 409.723,-67.4798 409.723,-61.4798 415.723,-55.4798 421.723,-55.4798"/>
<text text-anchor="middle" x="463.223" y="-223.28" font-family="Times,serif" font-size="14.00">StatesController</text>
<polyline fill="none" stroke="black" points="409.723,-215.48 516.723,-215.48 "/>
<text text-anchor="start" x="417.723" y="-200.28" font-family="Times,serif" font-size="14.00">create</text>
<text text-anchor="start" x="417.723" y="-185.28" font-family="Times,serif" font-size="14.00">destroy</text>
<text text-anchor="start" x="417.723" y="-170.28" font-family="Times,serif" font-size="14.00">edit</text>
<text text-anchor="start" x="417.723" y="-155.28" font-family="Times,serif" font-size="14.00">index</text>
<text text-anchor="start" x="417.723" y="-140.28" font-family="Times,serif" font-size="14.00">new</text>
<text text-anchor="start" x="417.723" y="-125.28" font-family="Times,serif" font-size="14.00">show</text>
<text text-anchor="start" x="417.723" y="-110.28" font-family="Times,serif" font-size="14.00">update</text>
<polyline fill="none" stroke="black" points="409.723,-102.48 516.723,-102.48 "/>
<polyline fill="none" stroke="black" points="409.723,-78.4798 516.723,-78.4798 "/>
<text text-anchor="start" x="417.723" y="-63.2798" font-family="Times,serif" font-size="14.00">_layout</text>
</g>
<!-- ApplicationController&#45;&gt;StatesController -->
<g id="edge10" class="edge"><title>ApplicationController&#45;&gt;StatesController</title>
<path fill="none" stroke="black" d="M458.363,-368.208C459.147,-332.53 460.252,-282.219 461.211,-238.587"/>
</g>
<!-- TerminalsController -->
<g id="node13" class="node"><title>TerminalsController</title>
<path fill="none" stroke="black" d="M12,-502.753C12,-502.753 119,-502.753 119,-502.753 125,-502.753 131,-508.753 131,-514.753 131,-514.753 131,-673.753 131,-673.753 131,-679.753 125,-685.753 119,-685.753 119,-685.753 12,-685.753 12,-685.753 6,-685.753 0,-679.753 0,-673.753 0,-673.753 0,-514.753 0,-514.753 0,-508.753 6,-502.753 12,-502.753"/>
<text text-anchor="middle" x="65.5" y="-670.553" font-family="Times,serif" font-size="14.00">TerminalsController</text>
<polyline fill="none" stroke="black" points="0,-662.753 131,-662.753 "/>
<text text-anchor="start" x="8" y="-647.553" font-family="Times,serif" font-size="14.00">create</text>
<text text-anchor="start" x="8" y="-632.553" font-family="Times,serif" font-size="14.00">destroy</text>
<text text-anchor="start" x="8" y="-617.553" font-family="Times,serif" font-size="14.00">edit</text>
<text text-anchor="start" x="8" y="-602.553" font-family="Times,serif" font-size="14.00">index</text>
<text text-anchor="start" x="8" y="-587.553" font-family="Times,serif" font-size="14.00">new</text>
<text text-anchor="start" x="8" y="-572.553" font-family="Times,serif" font-size="14.00">show</text>
<text text-anchor="start" x="8" y="-557.553" font-family="Times,serif" font-size="14.00">update</text>
<polyline fill="none" stroke="black" points="0,-549.753 131,-549.753 "/>
<polyline fill="none" stroke="black" points="0,-525.753 131,-525.753 "/>
<text text-anchor="start" x="8" y="-510.553" font-family="Times,serif" font-size="14.00">_layout</text>
</g>
<!-- ApplicationController&#45;&gt;TerminalsController -->
<g id="edge11" class="edge"><title>ApplicationController&#45;&gt;TerminalsController</title>
<path fill="none" stroke="black" d="M359.063,-428.475C311.449,-437.667 254.508,-452.616 207.315,-476.43 180.167,-490.129 153.638,-509.887 131.008,-529.319"/>
</g>
<!-- UserRolesController -->
<g id="node14" class="node"><title>UserRolesController</title>
<path fill="none" stroke="black" d="M617.101,-475.911C617.101,-475.911 725.101,-475.911 725.101,-475.911 731.101,-475.911 737.101,-481.911 737.101,-487.911 737.101,-487.911 737.101,-646.911 737.101,-646.911 737.101,-652.911 731.101,-658.911 725.101,-658.911 725.101,-658.911 617.101,-658.911 617.101,-658.911 611.101,-658.911 605.101,-652.911 605.101,-646.911 605.101,-646.911 605.101,-487.911 605.101,-487.911 605.101,-481.911 611.101,-475.911 617.101,-475.911"/>
<text text-anchor="middle" x="671.101" y="-643.711" font-family="Times,serif" font-size="14.00">UserRolesController</text>
<polyline fill="none" stroke="black" points="605.101,-635.911 737.101,-635.911 "/>
<text text-anchor="start" x="613.101" y="-620.711" font-family="Times,serif" font-size="14.00">create</text>
<text text-anchor="start" x="613.101" y="-605.711" font-family="Times,serif" font-size="14.00">destroy</text>
<text text-anchor="start" x="613.101" y="-590.711" font-family="Times,serif" font-size="14.00">edit</text>
<text text-anchor="start" x="613.101" y="-575.711" font-family="Times,serif" font-size="14.00">index</text>
<text text-anchor="start" x="613.101" y="-560.711" font-family="Times,serif" font-size="14.00">new</text>
<text text-anchor="start" x="613.101" y="-545.711" font-family="Times,serif" font-size="14.00">show</text>
<text text-anchor="start" x="613.101" y="-530.711" font-family="Times,serif" font-size="14.00">update</text>
<polyline fill="none" stroke="black" points="605.101,-522.911 737.101,-522.911 "/>
<polyline fill="none" stroke="black" points="605.101,-498.911 737.101,-498.911 "/>
<text text-anchor="start" x="613.101" y="-483.711" font-family="Times,serif" font-size="14.00">_layout</text>
</g>
<!-- ApplicationController&#45;&gt;UserRolesController -->
<g id="edge12" class="edge"><title>ApplicationController&#45;&gt;UserRolesController</title>
<path fill="none" stroke="black" d="M522.636,-461.467C548.788,-480.129 578.876,-501.599 605.098,-520.311"/>
</g>
<!-- UsersController -->
<g id="node15" class="node"><title>UsersController</title>
<path fill="none" stroke="black" d="M598.995,-730.259C598.995,-730.259 680.995,-730.259 680.995,-730.259 686.995,-730.259 692.995,-736.259 692.995,-742.259 692.995,-742.259 692.995,-901.259 692.995,-901.259 692.995,-907.259 686.995,-913.259 680.995,-913.259 680.995,-913.259 598.995,-913.259 598.995,-913.259 592.995,-913.259 586.995,-907.259 586.995,-901.259 586.995,-901.259 586.995,-742.259 586.995,-742.259 586.995,-736.259 592.995,-730.259 598.995,-730.259"/>
<text text-anchor="middle" x="639.995" y="-898.059" font-family="Times,serif" font-size="14.00">UsersController</text>
<polyline fill="none" stroke="black" points="586.995,-890.259 692.995,-890.259 "/>
<text text-anchor="start" x="594.995" y="-875.059" font-family="Times,serif" font-size="14.00">create</text>
<text text-anchor="start" x="594.995" y="-860.059" font-family="Times,serif" font-size="14.00">destroy</text>
<text text-anchor="start" x="594.995" y="-845.059" font-family="Times,serif" font-size="14.00">edit</text>
<text text-anchor="start" x="594.995" y="-830.059" font-family="Times,serif" font-size="14.00">index</text>
<text text-anchor="start" x="594.995" y="-815.059" font-family="Times,serif" font-size="14.00">new</text>
<text text-anchor="start" x="594.995" y="-800.059" font-family="Times,serif" font-size="14.00">show</text>
<text text-anchor="start" x="594.995" y="-785.059" font-family="Times,serif" font-size="14.00">update</text>
<polyline fill="none" stroke="black" points="586.995,-777.259 692.995,-777.259 "/>
<polyline fill="none" stroke="black" points="586.995,-753.259 692.995,-753.259 "/>
<text text-anchor="start" x="594.995" y="-738.059" font-family="Times,serif" font-size="14.00">_layout</text>
</g>
<!-- ApplicationController&#45;&gt;UsersController -->
<g id="edge13" class="edge"><title>ApplicationController&#45;&gt;UsersController</title>
<path fill="none" stroke="black" d="M484.419,-461.645C497.075,-484.221 511.982,-511.88 524.075,-537.372 554.068,-600.597 583.776,-673.745 605.609,-730.021"/>
</g>
<!-- ZipsController -->
<g id="node16" class="node"><title>ZipsController</title>
<path fill="none" stroke="black" d="M323.324,-737.473C323.324,-737.473 398.324,-737.473 398.324,-737.473 404.324,-737.473 410.324,-743.473 410.324,-749.473 410.324,-749.473 410.324,-908.473 410.324,-908.473 410.324,-914.473 404.324,-920.473 398.324,-920.473 398.324,-920.473 323.324,-920.473 323.324,-920.473 317.324,-920.473 311.324,-914.473 311.324,-908.473 311.324,-908.473 311.324,-749.473 311.324,-749.473 311.324,-743.473 317.324,-737.473 323.324,-737.473"/>
<text text-anchor="middle" x="360.824" y="-905.273" font-family="Times,serif" font-size="14.00">ZipsController</text>
<polyline fill="none" stroke="black" points="311.324,-897.473 410.324,-897.473 "/>
<text text-anchor="start" x="319.324" y="-882.273" font-family="Times,serif" font-size="14.00">create</text>
<text text-anchor="start" x="319.324" y="-867.273" font-family="Times,serif" font-size="14.00">destroy</text>
<text text-anchor="start" x="319.324" y="-852.273" font-family="Times,serif" font-size="14.00">edit</text>
<text text-anchor="start" x="319.324" y="-837.273" font-family="Times,serif" font-size="14.00">index</text>
<text text-anchor="start" x="319.324" y="-822.273" font-family="Times,serif" font-size="14.00">new</text>
<text text-anchor="start" x="319.324" y="-807.273" font-family="Times,serif" font-size="14.00">show</text>
<text text-anchor="start" x="319.324" y="-792.273" font-family="Times,serif" font-size="14.00">update</text>
<polyline fill="none" stroke="black" points="311.324,-784.473 410.324,-784.473 "/>
<polyline fill="none" stroke="black" points="311.324,-760.473 410.324,-760.473 "/>
<text text-anchor="start" x="319.324" y="-745.273" font-family="Times,serif" font-size="14.00">_layout</text>
</g>
<!-- ApplicationController&#45;&gt;ZipsController -->
<g id="edge14" class="edge"><title>ApplicationController&#45;&gt;ZipsController</title>
<path fill="none" stroke="black" d="M437.094,-461.57C427.952,-484.129 417.661,-511.796 410.675,-537.372 392.677,-603.267 379.924,-679.4 371.825,-737.347"/>
</g>
</g>
</svg>
