<?xml version="1.0" encoding="UTF-8" standalone="no"?>
<!DOCTYPE svg PUBLIC "-//W3C//DTD SVG 1.1//EN"
 "http://www.w3.org/Graphics/SVG/1.1/DTD/svg11.dtd">
<!-- Generated by graphviz version 2.29.20121209.0545 (20121209.0545)
 -->
<!-- Title: controllers_diagram Pages: 1 -->
<svg width="2007pt" height="1176pt"
 viewBox="0.00 0.00 2007.23 1176.00" xmlns="http://www.w3.org/2000/svg" xmlns:xlink="http://www.w3.org/1999/xlink">
<g id="graph0" class="graph" transform="scale(1 1) rotate(0) translate(4 1172)">
<title>controllers_diagram</title>
<polygon fill="white" stroke="white" points="-4,5 -4,-1172 2004.23,-1172 2004.23,5 -4,5"/>
<!-- _diagram_info -->
<g id="node1" class="node"><title>_diagram_info</title>
<text text-anchor="start" x="1534" y="-1153.6" font-family="Times,serif" font-size="13.00">Controllers diagram</text>
<text text-anchor="start" x="1534" y="-1139.6" font-family="Times,serif" font-size="13.00">Date: Dec 14 2012 &#45; 14:09</text>
<text text-anchor="start" x="1534" y="-1125.6" font-family="Times,serif" font-size="13.00">Migration version: 20121214184600</text>
<text text-anchor="start" x="1534" y="-1111.6" font-family="Times,serif" font-size="13.00">Generated by RailRoady 1.1.0</text>
<text text-anchor="start" x="1534" y="-1097.6" font-family="Times,serif" font-size="13.00">http://railroady.prestonlee.com</text>
</g>
<!-- AddendumsController -->
<g id="node2" class="node"><title>AddendumsController</title>
<ellipse fill="none" stroke="black" cx="117.905" cy="-82.2722" rx="92.0841" ry="18"/>
<text text-anchor="middle" x="117.905" y="-78.5722" font-family="Times,serif" font-size="14.00">AddendumsController</text>
</g>
<!-- ApplicationController -->
<g id="node3" class="node"><title>ApplicationController</title>
<ellipse fill="none" stroke="black" cx="1052.7" cy="-479.997" rx="90.9839" ry="18"/>
<text text-anchor="middle" x="1052.7" y="-476.297" font-family="Times,serif" font-size="14.00">ApplicationController</text>
</g>
<!-- ApplicationController&#45;&gt;AddendumsController -->
<g id="edge1" class="edge"><title>ApplicationController&#45;&gt;AddendumsController</title>
<path fill="none" stroke="black" d="M1014.31,-463.664C862.975,-399.274 308.519,-163.372 156.613,-98.7411"/>
</g>
<!-- BusinessesController -->
<g id="node4" class="node"><title>BusinessesController</title>
<ellipse fill="none" stroke="black" cx="794.452" cy="-18" rx="87.9851" ry="18"/>
<text text-anchor="middle" x="794.452" y="-14.3" font-family="Times,serif" font-size="14.00">BusinessesController</text>
</g>
<!-- ApplicationController&#45;&gt;BusinessesController -->
<g id="edge2" class="edge"><title>ApplicationController&#45;&gt;BusinessesController</title>
<path fill="none" stroke="black" d="M1032.08,-462.311C995.458,-429.84 918.862,-356.975 875.671,-280.257 828.202,-195.943 804.946,-80.4385 797.35,-36.2265"/>
</g>
<!-- DailyDataController -->
<g id="node5" class="node"><title>DailyDataController</title>
<ellipse fill="none" stroke="black" cx="727.197" cy="-954.686" rx="85.5853" ry="18"/>
<text text-anchor="middle" x="727.197" y="-950.986" font-family="Times,serif" font-size="14.00">DailyDataController</text>
</g>
<!-- ApplicationController&#45;&gt;DailyDataController -->
<g id="edge3" class="edge"><title>ApplicationController&#45;&gt;DailyDataController</title>
<path fill="none" stroke="black" d="M1040.34,-498.025C988.779,-573.217 791.156,-861.413 739.572,-936.639"/>
</g>
<!-- DailyDataDeliveryExceptionsController -->
<g id="node6" class="node"><title>DailyDataDeliveryExceptionsController</title>
<ellipse fill="none" stroke="black" cx="1513.42" cy="-361.186" rx="157.872" ry="18"/>
<text text-anchor="middle" x="1513.42" y="-357.486" font-family="Times,serif" font-size="14.00">DailyDataDeliveryExceptionsController</text>
</g>
<!-- ApplicationController&#45;&gt;DailyDataDeliveryExceptionsController -->
<g id="edge4" class="edge"><title>ApplicationController&#45;&gt;DailyDataDeliveryExceptionsController</title>
<path fill="none" stroke="black" d="M1108.28,-465.665C1194.19,-443.508 1358.81,-401.057 1449.52,-377.664"/>
</g>
<!-- DailyDataEmployeesController -->
<g id="node7" class="node"><title>DailyDataEmployeesController</title>
<ellipse fill="none" stroke="black" cx="474.237" cy="-615.512" rx="126.178" ry="18"/>
<text text-anchor="middle" x="474.237" y="-611.812" font-family="Times,serif" font-size="14.00">DailyDataEmployeesController</text>
</g>
<!-- ApplicationController&#45;&gt;DailyDataEmployeesController -->
<g id="edge5" class="edge"><title>ApplicationController&#45;&gt;DailyDataEmployeesController</title>
<path fill="none" stroke="black" d="M993.784,-493.799C885.074,-519.266 653.697,-573.47 540.032,-600.098"/>
</g>
<!-- DailyDataVehiclesController -->
<g id="node8" class="node"><title>DailyDataVehiclesController</title>
<ellipse fill="none" stroke="black" cx="499.677" cy="-29.4526" rx="117.779" ry="18"/>
<text text-anchor="middle" x="499.677" y="-25.7526" font-family="Times,serif" font-size="14.00">DailyDataVehiclesController</text>
</g>
<!-- ApplicationController&#45;&gt;DailyDataVehiclesController -->
<g id="edge6" class="edge"><title>ApplicationController&#45;&gt;DailyDataVehiclesController</title>
<path fill="none" stroke="black" d="M1032.03,-462.291C990.739,-426.987 894.962,-345.473 813.138,-278.582 705.5,-190.587 574.725,-88.0278 522.662,-47.3687"/>
</g>
<!-- DeliveryExceptionsController -->
<g id="node9" class="node"><title>DeliveryExceptionsController</title>
<ellipse fill="none" stroke="black" cx="1878.99" cy="-88.8973" rx="120.479" ry="18"/>
<text text-anchor="middle" x="1878.99" y="-85.1973" font-family="Times,serif" font-size="14.00">DeliveryExceptionsController</text>
</g>
<!-- ApplicationController&#45;&gt;DeliveryExceptionsController -->
<g id="edge7" class="edge"><title>ApplicationController&#45;&gt;DeliveryExceptionsController</title>
<path fill="none" stroke="black" d="M1087.94,-463.317C1222.86,-399.456 1705.85,-170.847 1842.65,-106.099"/>
</g>
<!-- EmployeePsasController -->
<g id="node10" class="node"><title>EmployeePsasController</title>
<ellipse fill="none" stroke="black" cx="710.147" cy="-278.542" rx="101.282" ry="18"/>
<text text-anchor="middle" x="710.147" y="-274.842" font-family="Times,serif" font-size="14.00">EmployeePsasController</text>
</g>
<!-- ApplicationController&#45;&gt;EmployeePsasController -->
<g id="edge8" class="edge"><title>ApplicationController&#45;&gt;EmployeePsasController</title>
<path fill="none" stroke="black" d="M1023.5,-462.821C958.94,-424.856 804.703,-334.149 739.766,-295.961"/>
</g>
<!-- EmployeeTerminalsController -->
<g id="node11" class="node"><title>EmployeeTerminalsController</title>
<ellipse fill="none" stroke="black" cx="1266.46" cy="-35.3765" rx="122.379" ry="18"/>
<text text-anchor="middle" x="1266.46" y="-31.6765" font-family="Times,serif" font-size="14.00">EmployeeTerminalsController</text>
</g>
<!-- ApplicationController&#45;&gt;EmployeeTerminalsController -->
<g id="edge9" class="edge"><title>ApplicationController&#45;&gt;EmployeeTerminalsController</title>
<path fill="none" stroke="black" d="M1061.35,-462.016C1095.79,-390.37 1223.07,-125.627 1257.71,-53.5805"/>
</g>
<!-- EmployeesController -->
<g id="node12" class="node"><title>EmployeesController</title>
<ellipse fill="none" stroke="black" cx="965.662" cy="-280.312" rx="88.2844" ry="18"/>
<text text-anchor="middle" x="965.662" y="-276.612" font-family="Times,serif" font-size="14.00">EmployeesController</text>
</g>
<!-- ApplicationController&#45;&gt;EmployeesController -->
<g id="edge10" class="edge"><title>ApplicationController&#45;&gt;EmployeesController</title>
<path fill="none" stroke="black" d="M1044.83,-461.924C1028.3,-424.002 990.154,-336.499 973.585,-298.488"/>
</g>
<!-- FedexContractsController -->
<g id="node13" class="node"><title>FedexContractsController</title>
<ellipse fill="none" stroke="black" cx="105.291" cy="-483.518" rx="105.082" ry="18"/>
<text text-anchor="middle" x="105.291" y="-479.818" font-family="Times,serif" font-size="14.00">FedexContractsController</text>
</g>
<!-- ApplicationController&#45;&gt;FedexContractsController -->
<g id="edge11" class="edge"><title>ApplicationController&#45;&gt;FedexContractsController</title>
<path fill="none" stroke="black" d="M966.865,-473.912C914.158,-470.594 845.252,-467.003 784.085,-466.215 578.983,-463.571 339.106,-472.515 206.477,-478.516"/>
</g>
<!-- NotesController -->
<g id="node14" class="node"><title>NotesController</title>
<ellipse fill="none" stroke="black" cx="1884.16" cy="-488.318" rx="69.5877" ry="18"/>
<text text-anchor="middle" x="1884.16" y="-484.618" font-family="Times,serif" font-size="14.00">NotesController</text>
</g>
<!-- ApplicationController&#45;&gt;NotesController -->
<g id="edge12" class="edge"><title>ApplicationController&#45;&gt;NotesController</title>
<path fill="none" stroke="black" d="M1143.66,-480.907C1311.05,-482.582 1664.46,-486.119 1814.47,-487.62"/>
</g>
<!-- PsaStatesController -->
<g id="node15" class="node"><title>PsaStatesController</title>
<ellipse fill="none" stroke="black" cx="1868.57" cy="-891.184" rx="82.5854" ry="18"/>
<text text-anchor="middle" x="1868.57" y="-887.484" font-family="Times,serif" font-size="14.00">PsaStatesController</text>
</g>
<!-- ApplicationController&#45;&gt;PsaStatesController -->
<g id="edge13" class="edge"><title>ApplicationController&#45;&gt;PsaStatesController</title>
<path fill="none" stroke="black" d="M1090.15,-496.547C1142.09,-519.663 1238.75,-563.28 1319.84,-603.232 1519.62,-701.649 1755.09,-829.177 1837.91,-874.391"/>
</g>
<!-- PsasController -->
<g id="node16" class="node"><title>PsasController</title>
<ellipse fill="none" stroke="black" cx="1199.14" cy="-924.928" rx="64.189" ry="18"/>
<text text-anchor="middle" x="1199.14" y="-921.228" font-family="Times,serif" font-size="14.00">PsasController</text>
</g>
<!-- ApplicationController&#45;&gt;PsasController -->
<g id="edge14" class="edge"><title>ApplicationController&#45;&gt;PsasController</title>
<path fill="none" stroke="black" d="M1058.62,-497.99C1082.22,-569.686 1169.41,-834.614 1193.14,-906.711"/>
</g>
<!-- PsazipsController -->
<g id="node17" class="node"><title>PsazipsController</title>
<ellipse fill="none" stroke="black" cx="1237.01" cy="-323.462" rx="75.2868" ry="18"/>
<text text-anchor="middle" x="1237.01" y="-319.762" font-family="Times,serif" font-size="14.00">PsazipsController</text>
</g>
<!-- ApplicationController&#45;&gt;PsazipsController -->
<g id="edge15" class="edge"><title>ApplicationController&#45;&gt;PsazipsController</title>
<path fill="none" stroke="black" d="M1073.49,-462.344C1109.07,-432.121 1181.24,-370.825 1216.58,-340.811"/>
</g>
<!-- RegionsController -->
<g id="node18" class="node"><title>RegionsController</title>
<ellipse fill="none" stroke="black" cx="1525.72" cy="-43.4169" rx="77.9862" ry="18"/>
<text text-anchor="middle" x="1525.72" y="-39.7169" font-family="Times,serif" font-size="14.00">RegionsController</text>
</g>
<!-- ApplicationController&#45;&gt;RegionsController -->
<g id="edge16" class="edge"><title>ApplicationController&#45;&gt;RegionsController</title>
<path fill="none" stroke="black" d="M1062.64,-461.743C1079.89,-431.056 1117.6,-368.103 1160.02,-323.388 1270.63,-206.791 1432.99,-100.694 1497.65,-60.4871"/>
</g>
<!-- RolesController -->
<g id="node19" class="node"><title>RolesController</title>
<ellipse fill="none" stroke="black" cx="462.52" cy="-928.405" rx="68.7879" ry="18"/>
<text text-anchor="middle" x="462.52" y="-924.705" font-family="Times,serif" font-size="14.00">RolesController</text>
</g>
<!-- ApplicationController&#45;&gt;RolesController -->
<g id="edge17" class="edge"><title>ApplicationController&#45;&gt;RolesController</title>
<path fill="none" stroke="black" d="M1035.28,-497.912C997.401,-536.419 903.976,-629.053 817.16,-696.602 702.217,-786.037 552.929,-875.793 491.183,-911.873"/>
</g>
<!-- ServiceTypesController -->
<g id="node20" class="node"><title>ServiceTypesController</title>
<ellipse fill="none" stroke="black" cx="109.551" cy="-881.628" rx="97.4827" ry="18"/>
<text text-anchor="middle" x="109.551" y="-877.928" font-family="Times,serif" font-size="14.00">ServiceTypesController</text>
</g>
<!-- ApplicationController&#45;&gt;ServiceTypesController -->
<g id="edge18" class="edge"><title>ApplicationController&#45;&gt;ServiceTypesController</title>
<path fill="none" stroke="black" d="M1014.27,-496.364C861.93,-561.235 301.433,-799.917 148.385,-865.091"/>
</g>
<!-- StatesController -->
<g id="node21" class="node"><title>StatesController</title>
<ellipse fill="none" stroke="black" cx="746.02" cy="-696.418" rx="69.5877" ry="18"/>
<text text-anchor="middle" x="746.02" y="-692.718" font-family="Times,serif" font-size="14.00">StatesController</text>
</g>
<!-- ApplicationController&#45;&gt;StatesController -->
<g id="edge19" class="edge"><title>ApplicationController&#45;&gt;StatesController</title>
<path fill="none" stroke="black" d="M1028.12,-497.342C970.558,-537.965 827.549,-638.884 770.29,-679.291"/>
</g>
<!-- TerminalsController -->
<g id="node22" class="node"><title>TerminalsController</title>
<ellipse fill="none" stroke="black" cx="783.916" cy="-485.815" rx="85.2851" ry="18"/>
<text text-anchor="middle" x="783.916" y="-482.115" font-family="Times,serif" font-size="14.00">TerminalsController</text>
</g>
<!-- ApplicationController&#45;&gt;TerminalsController -->
<g id="edge20" class="edge"><title>ApplicationController&#45;&gt;TerminalsController</title>
<path fill="none" stroke="black" d="M962.079,-481.958C931.902,-482.612 898.421,-483.336 868.704,-483.98"/>
</g>
<!-- UserRolesController -->
<g id="node23" class="node"><title>UserRolesController</title>
<ellipse fill="none" stroke="black" cx="449.535" cy="-341.521" rx="85.5853" ry="18"/>
<text text-anchor="middle" x="449.535" y="-337.821" font-family="Times,serif" font-size="14.00">UserRolesController</text>
</g>
<!-- ApplicationController&#45;&gt;UserRolesController -->
<g id="edge21" class="edge"><title>ApplicationController&#45;&gt;UserRolesController</title>
<path fill="none" stroke="black" d="M993.218,-466.34C877.307,-439.729 622.526,-381.237 507.688,-354.872"/>
</g>
<!-- UsersController -->
<g id="node24" class="node"><title>UsersController</title>
<ellipse fill="none" stroke="black" cx="1269.96" cy="-617.079" rx="68.7879" ry="18"/>
<text text-anchor="middle" x="1269.96" y="-613.379" font-family="Times,serif" font-size="14.00">UsersController</text>
</g>
<!-- ApplicationController&#45;&gt;UsersController -->
<g id="edge22" class="edge"><title>ApplicationController&#45;&gt;UsersController</title>
<path fill="none" stroke="black" d="M1080.22,-497.358C1122.24,-523.871 1201.87,-574.12 1243.34,-600.288"/>
</g>
<!-- VehicleFuelsController -->
<g id="node25" class="node"><title>VehicleFuelsController</title>
<ellipse fill="none" stroke="black" cx="1474.95" cy="-941.594" rx="96.3833" ry="18"/>
<text text-anchor="middle" x="1474.95" y="-937.894" font-family="Times,serif" font-size="14.00">VehicleFuelsController</text>
</g>
<!-- ApplicationController&#45;&gt;VehicleFuelsController -->
<g id="edge23" class="edge"><title>ApplicationController&#45;&gt;VehicleFuelsController</title>
<path fill="none" stroke="black" d="M1069,-497.809C1136.21,-571.29 1391.58,-850.452 1458.71,-923.834"/>
</g>
<!-- VehicleOdometersController -->
<g id="node26" class="node"><title>VehicleOdometersController</title>
<ellipse fill="none" stroke="black" cx="963.622" cy="-949.085" rx="116.18" ry="18"/>
<text text-anchor="middle" x="963.622" y="-945.385" font-family="Times,serif" font-size="14.00">VehicleOdometersController</text>
</g>
<!-- ApplicationController&#45;&gt;VehicleOdometersController -->
<g id="edge24" class="edge"><title>ApplicationController&#45;&gt;VehicleOdometersController</title>
<path fill="none" stroke="black" d="M1057.27,-498.215C1065.64,-534.16 1081.67,-616.689 1071.38,-685.385 1056.7,-783.451 998.914,-889.661 974.55,-931.104"/>
</g>
<!-- VehicleTypesController -->
<g id="node27" class="node"><title>VehicleTypesController</title>
<ellipse fill="none" stroke="black" cx="1039.13" cy="-26.9318" rx="98.5829" ry="18"/>
<text text-anchor="middle" x="1039.13" y="-23.2318" font-family="Times,serif" font-size="14.00">VehicleTypesController</text>
</g>
<!-- ApplicationController&#45;&gt;VehicleTypesController -->
<g id="edge25" class="edge"><title>ApplicationController&#45;&gt;VehicleTypesController</title>
<path fill="none" stroke="black" d="M1053.46,-461.828C1054.81,-426.747 1057.34,-347.243 1055.65,-280.367 1053.43,-191.989 1044.55,-86.588 1040.81,-45.0405"/>
</g>
<!-- VehiclesController -->
<g id="node28" class="node"><title>VehiclesController</title>
<ellipse fill="none" stroke="black" cx="1543.37" cy="-644.845" rx="79.8859" ry="18"/>
<text text-anchor="middle" x="1543.37" y="-641.145" font-family="Times,serif" font-size="14.00">VehiclesController</text>
</g>
<!-- ApplicationController&#45;&gt;VehiclesController -->
<g id="edge26" class="edge"><title>ApplicationController&#45;&gt;VehiclesController</title>
<path fill="none" stroke="black" d="M1099.31,-495.654C1193.68,-527.359 1406.25,-598.778 1498.85,-629.889"/>
</g>
<!-- ZipsController -->
<g id="node29" class="node"><title>ZipsController</title>
<ellipse fill="none" stroke="black" cx="1005.44" cy="-685.228" rx="64.189" ry="18"/>
<text text-anchor="middle" x="1005.44" y="-681.528" font-family="Times,serif" font-size="14.00">ZipsController</text>
</g>
<!-- ApplicationController&#45;&gt;ZipsController -->
<g id="edge27" class="edge"><title>ApplicationController&#45;&gt;ZipsController</title>
<path fill="none" stroke="black" d="M1048.51,-498.21C1039.54,-537.156 1018.58,-628.146 1009.62,-667.056"/>
</g>
</g>
</svg>
