<?xml version="1.0" encoding="UTF-8" standalone="no"?>
<!DOCTYPE svg PUBLIC "-//W3C//DTD SVG 1.1//EN"
 "http://www.w3.org/Graphics/SVG/1.1/DTD/svg11.dtd">
<!-- Generated by graphviz version 2.29.20121209.0545 (20121209.0545)
 -->
<!-- Title: controllers_diagram Pages: 1 -->
<svg width="1399pt" height="1309pt"
 viewBox="0.00 0.00 1399.00 1308.63" xmlns="http://www.w3.org/2000/svg" xmlns:xlink="http://www.w3.org/1999/xlink">
<g id="graph0" class="graph" transform="scale(1 1) rotate(0) translate(4 1304.63)">
<title>controllers_diagram</title>
<polygon fill="white" stroke="white" points="-4,5 -4,-1304.63 1396,-1304.63 1396,5 -4,5"/>
<!-- _diagram_info -->
<g id="node1" class="node"><title>_diagram_info</title>
<text text-anchor="start" x="1191" y="-63.6" font-family="Times,serif" font-size="13.00">Controllers diagram</text>
<text text-anchor="start" x="1191" y="-49.6" font-family="Times,serif" font-size="13.00">Date: Dec 11 2012 &#45; 02:20</text>
<text text-anchor="start" x="1191" y="-35.6" font-family="Times,serif" font-size="13.00">Migration version: 20121211062031</text>
<text text-anchor="start" x="1191" y="-21.6" font-family="Times,serif" font-size="13.00">Generated by RailRoady 1.1.0</text>
<text text-anchor="start" x="1191" y="-7.6" font-family="Times,serif" font-size="13.00">http://railroady.prestonlee.com</text>
</g>
<!-- AddendumsController -->
<g id="node2" class="node"><title>AddendumsController</title>
<path fill="none" stroke="black" d="M53.9543,-314.654C53.9543,-314.654 171.954,-314.654 171.954,-314.654 177.954,-314.654 183.954,-320.654 183.954,-326.654 183.954,-326.654 183.954,-485.654 183.954,-485.654 183.954,-491.654 177.954,-497.654 171.954,-497.654 171.954,-497.654 53.9543,-497.654 53.9543,-497.654 47.9543,-497.654 41.9543,-491.654 41.9543,-485.654 41.9543,-485.654 41.9543,-326.654 41.9543,-326.654 41.9543,-320.654 47.9543,-314.654 53.9543,-314.654"/>
<text text-anchor="middle" x="112.954" y="-482.454" font-family="Times,serif" font-size="14.00">AddendumsController</text>
<polyline fill="none" stroke="black" points="41.9543,-474.654 183.954,-474.654 "/>
<text text-anchor="start" x="49.9543" y="-459.454" font-family="Times,serif" font-size="14.00">create</text>
<text text-anchor="start" x="49.9543" y="-444.454" font-family="Times,serif" font-size="14.00">destroy</text>
<text text-anchor="start" x="49.9543" y="-429.454" font-family="Times,serif" font-size="14.00">edit</text>
<text text-anchor="start" x="49.9543" y="-414.454" font-family="Times,serif" font-size="14.00">index</text>
<text text-anchor="start" x="49.9543" y="-399.454" font-family="Times,serif" font-size="14.00">new</text>
<text text-anchor="start" x="49.9543" y="-384.454" font-family="Times,serif" font-size="14.00">show</text>
<text text-anchor="start" x="49.9543" y="-369.454" font-family="Times,serif" font-size="14.00">update</text>
<polyline fill="none" stroke="black" points="41.9543,-361.654 183.954,-361.654 "/>
<polyline fill="none" stroke="black" points="41.9543,-337.654 183.954,-337.654 "/>
<text text-anchor="start" x="49.9543" y="-322.454" font-family="Times,serif" font-size="14.00">_layout</text>
</g>
<!-- ApplicationController -->
<g id="node3" class="node"><title>ApplicationController</title>
<path fill="none" stroke="black" d="M562.153,-603C562.153,-603 734.153,-603 734.153,-603 740.153,-603 746.153,-609 746.153,-615 746.153,-615 746.153,-684 746.153,-684 746.153,-690 740.153,-696 734.153,-696 734.153,-696 562.153,-696 562.153,-696 556.153,-696 550.153,-690 550.153,-684 550.153,-684 550.153,-615 550.153,-615 550.153,-609 556.153,-603 562.153,-603"/>
<text text-anchor="middle" x="648.153" y="-680.8" font-family="Times,serif" font-size="14.00">ApplicationController</text>
<polyline fill="none" stroke="black" points="550.153,-673 746.153,-673 "/>
<text text-anchor="start" x="558.153" y="-657.8" font-family="Times,serif" font-size="14.00">_one_time_conditions_valid_8?</text>
<polyline fill="none" stroke="black" points="550.153,-650 746.153,-650 "/>
<polyline fill="none" stroke="black" points="550.153,-626 746.153,-626 "/>
<text text-anchor="start" x="558.153" y="-610.8" font-family="Times,serif" font-size="14.00">_layout</text>
</g>
<!-- ApplicationController&#45;&gt;AddendumsController -->
<g id="edge1" class="edge"><title>ApplicationController&#45;&gt;AddendumsController</title>
<path fill="none" stroke="black" d="M588.16,-602.913C545.991,-571.902 487.239,-532.073 430.799,-505.221 408.192,-494.465 270.611,-452.895 184.029,-427.144"/>
</g>
<!-- EmployeePsasController -->
<g id="node4" class="node"><title>EmployeePsasController</title>
<path fill="none" stroke="black" d="M318.799,-12.2661C318.799,-12.2661 450.799,-12.2661 450.799,-12.2661 456.799,-12.2661 462.799,-18.2661 462.799,-24.2661 462.799,-24.2661 462.799,-183.266 462.799,-183.266 462.799,-189.266 456.799,-195.266 450.799,-195.266 450.799,-195.266 318.799,-195.266 318.799,-195.266 312.799,-195.266 306.799,-189.266 306.799,-183.266 306.799,-183.266 306.799,-24.2661 306.799,-24.2661 306.799,-18.2661 312.799,-12.2661 318.799,-12.2661"/>
<text text-anchor="middle" x="384.799" y="-180.066" font-family="Times,serif" font-size="14.00">EmployeePsasController</text>
<polyline fill="none" stroke="black" points="306.799,-172.266 462.799,-172.266 "/>
<text text-anchor="start" x="314.799" y="-157.066" font-family="Times,serif" font-size="14.00">create</text>
<text text-anchor="start" x="314.799" y="-142.066" font-family="Times,serif" font-size="14.00">destroy</text>
<text text-anchor="start" x="314.799" y="-127.066" font-family="Times,serif" font-size="14.00">edit</text>
<text text-anchor="start" x="314.799" y="-112.066" font-family="Times,serif" font-size="14.00">index</text>
<text text-anchor="start" x="314.799" y="-97.0661" font-family="Times,serif" font-size="14.00">new</text>
<text text-anchor="start" x="314.799" y="-82.0661" font-family="Times,serif" font-size="14.00">show</text>
<text text-anchor="start" x="314.799" y="-67.0661" font-family="Times,serif" font-size="14.00">update</text>
<polyline fill="none" stroke="black" points="306.799,-59.2661 462.799,-59.2661 "/>
<polyline fill="none" stroke="black" points="306.799,-35.2661 462.799,-35.2661 "/>
<text text-anchor="start" x="314.799" y="-20.0661" font-family="Times,serif" font-size="14.00">_layout</text>
</g>
<!-- ApplicationController&#45;&gt;EmployeePsasController -->
<g id="edge2" class="edge"><title>ApplicationController&#45;&gt;EmployeePsasController</title>
<path fill="none" stroke="black" d="M640.136,-602.907C626.948,-533.758 596.661,-401.251 543.223,-299.961 521.875,-259.497 491.558,-219.376 463.151,-186.061"/>
</g>
<!-- EmployeesController -->
<g id="node5" class="node"><title>EmployeesController</title>
<path fill="none" stroke="black" d="M343.555,-1067.44C343.555,-1067.44 455.555,-1067.44 455.555,-1067.44 461.555,-1067.44 467.555,-1073.44 467.555,-1079.44 467.555,-1079.44 467.555,-1238.44 467.555,-1238.44 467.555,-1244.44 461.555,-1250.44 455.555,-1250.44 455.555,-1250.44 343.555,-1250.44 343.555,-1250.44 337.555,-1250.44 331.555,-1244.44 331.555,-1238.44 331.555,-1238.44 331.555,-1079.44 331.555,-1079.44 331.555,-1073.44 337.555,-1067.44 343.555,-1067.44"/>
<text text-anchor="middle" x="399.555" y="-1235.24" font-family="Times,serif" font-size="14.00">EmployeesController</text>
<polyline fill="none" stroke="black" points="331.555,-1227.44 467.555,-1227.44 "/>
<text text-anchor="start" x="339.555" y="-1212.24" font-family="Times,serif" font-size="14.00">create</text>
<text text-anchor="start" x="339.555" y="-1197.24" font-family="Times,serif" font-size="14.00">destroy</text>
<text text-anchor="start" x="339.555" y="-1182.24" font-family="Times,serif" font-size="14.00">edit</text>
<text text-anchor="start" x="339.555" y="-1167.24" font-family="Times,serif" font-size="14.00">index</text>
<text text-anchor="start" x="339.555" y="-1152.24" font-family="Times,serif" font-size="14.00">new</text>
<text text-anchor="start" x="339.555" y="-1137.24" font-family="Times,serif" font-size="14.00">show</text>
<text text-anchor="start" x="339.555" y="-1122.24" font-family="Times,serif" font-size="14.00">update</text>
<polyline fill="none" stroke="black" points="331.555,-1114.44 467.555,-1114.44 "/>
<polyline fill="none" stroke="black" points="331.555,-1090.44 467.555,-1090.44 "/>
<text text-anchor="start" x="339.555" y="-1075.24" font-family="Times,serif" font-size="14.00">_layout</text>
</g>
<!-- ApplicationController&#45;&gt;EmployeesController -->
<g id="edge3" class="edge"><title>ApplicationController&#45;&gt;EmployeesController</title>
<path fill="none" stroke="black" d="M625.433,-696.061C584.5,-779.943 497.683,-957.855 444.4,-1067.04"/>
</g>
<!-- FedexContractsController -->
<g id="node6" class="node"><title>FedexContractsController</title>
<path fill="none" stroke="black" d="M599.243,-806.555C599.243,-806.555 737.243,-806.555 737.243,-806.555 743.243,-806.555 749.243,-812.555 749.243,-818.555 749.243,-818.555 749.243,-977.555 749.243,-977.555 749.243,-983.555 743.243,-989.555 737.243,-989.555 737.243,-989.555 599.243,-989.555 599.243,-989.555 593.243,-989.555 587.243,-983.555 587.243,-977.555 587.243,-977.555 587.243,-818.555 587.243,-818.555 587.243,-812.555 593.243,-806.555 599.243,-806.555"/>
<text text-anchor="middle" x="668.243" y="-974.355" font-family="Times,serif" font-size="14.00">FedexContractsController</text>
<polyline fill="none" stroke="black" points="587.243,-966.555 749.243,-966.555 "/>
<text text-anchor="start" x="595.243" y="-951.355" font-family="Times,serif" font-size="14.00">create</text>
<text text-anchor="start" x="595.243" y="-936.355" font-family="Times,serif" font-size="14.00">destroy</text>
<text text-anchor="start" x="595.243" y="-921.355" font-family="Times,serif" font-size="14.00">edit</text>
<text text-anchor="start" x="595.243" y="-906.355" font-family="Times,serif" font-size="14.00">index</text>
<text text-anchor="start" x="595.243" y="-891.355" font-family="Times,serif" font-size="14.00">new</text>
<text text-anchor="start" x="595.243" y="-876.355" font-family="Times,serif" font-size="14.00">show</text>
<text text-anchor="start" x="595.243" y="-861.355" font-family="Times,serif" font-size="14.00">update</text>
<polyline fill="none" stroke="black" points="587.243,-853.555 749.243,-853.555 "/>
<polyline fill="none" stroke="black" points="587.243,-829.555 749.243,-829.555 "/>
<text text-anchor="start" x="595.243" y="-814.355" font-family="Times,serif" font-size="14.00">_layout</text>
</g>
<!-- ApplicationController&#45;&gt;FedexContractsController -->
<g id="edge4" class="edge"><title>ApplicationController&#45;&gt;FedexContractsController</title>
<path fill="none" stroke="black" d="M651.932,-696.252C654.438,-727.26 657.811,-768.988 660.839,-806.453"/>
</g>
<!-- NotesController -->
<g id="node7" class="node"><title>NotesController</title>
<path fill="none" stroke="black" d="M362.402,-743.423C362.402,-743.423 445.402,-743.423 445.402,-743.423 451.402,-743.423 457.402,-749.423 457.402,-755.423 457.402,-755.423 457.402,-914.423 457.402,-914.423 457.402,-920.423 451.402,-926.423 445.402,-926.423 445.402,-926.423 362.402,-926.423 362.402,-926.423 356.402,-926.423 350.402,-920.423 350.402,-914.423 350.402,-914.423 350.402,-755.423 350.402,-755.423 350.402,-749.423 356.402,-743.423 362.402,-743.423"/>
<text text-anchor="middle" x="403.902" y="-911.223" font-family="Times,serif" font-size="14.00">NotesController</text>
<polyline fill="none" stroke="black" points="350.402,-903.423 457.402,-903.423 "/>
<text text-anchor="start" x="358.402" y="-888.223" font-family="Times,serif" font-size="14.00">create</text>
<text text-anchor="start" x="358.402" y="-873.223" font-family="Times,serif" font-size="14.00">destroy</text>
<text text-anchor="start" x="358.402" y="-858.223" font-family="Times,serif" font-size="14.00">edit</text>
<text text-anchor="start" x="358.402" y="-843.223" font-family="Times,serif" font-size="14.00">index</text>
<text text-anchor="start" x="358.402" y="-828.223" font-family="Times,serif" font-size="14.00">new</text>
<text text-anchor="start" x="358.402" y="-813.223" font-family="Times,serif" font-size="14.00">show</text>
<text text-anchor="start" x="358.402" y="-798.223" font-family="Times,serif" font-size="14.00">update</text>
<polyline fill="none" stroke="black" points="350.402,-790.423 457.402,-790.423 "/>
<polyline fill="none" stroke="black" points="350.402,-766.423 457.402,-766.423 "/>
<text text-anchor="start" x="358.402" y="-751.223" font-family="Times,serif" font-size="14.00">_layout</text>
</g>
<!-- ApplicationController&#45;&gt;NotesController -->
<g id="edge5" class="edge"><title>ApplicationController&#45;&gt;NotesController</title>
<path fill="none" stroke="black" d="M586.834,-696.051C547.125,-726.196 495.901,-765.082 457.763,-794.035"/>
</g>
<!-- PsaStatesController -->
<g id="node8" class="node"><title>PsaStatesController</title>
<path fill="none" stroke="black" d="M26.5149,-11.9866C26.5149,-11.9866 129.515,-11.9866 129.515,-11.9866 135.515,-11.9866 141.515,-17.9866 141.515,-23.9866 141.515,-23.9866 141.515,-182.987 141.515,-182.987 141.515,-188.987 135.515,-194.987 129.515,-194.987 129.515,-194.987 26.5149,-194.987 26.5149,-194.987 20.5149,-194.987 14.5149,-188.987 14.5149,-182.987 14.5149,-182.987 14.5149,-23.9866 14.5149,-23.9866 14.5149,-17.9866 20.5149,-11.9866 26.5149,-11.9866"/>
<text text-anchor="middle" x="78.0149" y="-179.787" font-family="Times,serif" font-size="14.00">PsaStatesController</text>
<polyline fill="none" stroke="black" points="14.5149,-171.987 141.515,-171.987 "/>
<text text-anchor="start" x="22.5149" y="-156.787" font-family="Times,serif" font-size="14.00">create</text>
<text text-anchor="start" x="22.5149" y="-141.787" font-family="Times,serif" font-size="14.00">destroy</text>
<text text-anchor="start" x="22.5149" y="-126.787" font-family="Times,serif" font-size="14.00">edit</text>
<text text-anchor="start" x="22.5149" y="-111.787" font-family="Times,serif" font-size="14.00">index</text>
<text text-anchor="start" x="22.5149" y="-96.7866" font-family="Times,serif" font-size="14.00">new</text>
<text text-anchor="start" x="22.5149" y="-81.7866" font-family="Times,serif" font-size="14.00">show</text>
<text text-anchor="start" x="22.5149" y="-66.7866" font-family="Times,serif" font-size="14.00">update</text>
<polyline fill="none" stroke="black" points="14.5149,-58.9866 141.515,-58.9866 "/>
<polyline fill="none" stroke="black" points="14.5149,-34.9866 141.515,-34.9866 "/>
<text text-anchor="start" x="22.5149" y="-19.7866" font-family="Times,serif" font-size="14.00">_layout</text>
</g>
<!-- ApplicationController&#45;&gt;PsaStatesController -->
<g id="edge6" class="edge"><title>ApplicationController&#45;&gt;PsaStatesController</title>
<path fill="none" stroke="black" d="M586.389,-602.697C544.156,-572.177 486.028,-533.003 430.799,-505.221 412.238,-495.884 403.721,-501.45 386.823,-489.361 276.565,-410.48 184.776,-281.98 130.657,-195.157"/>
</g>
<!-- PsazipsController -->
<g id="node9" class="node"><title>PsazipsController</title>
<path fill="none" stroke="black" d="M941.36,-410.081C941.36,-410.081 1033.36,-410.081 1033.36,-410.081 1039.36,-410.081 1045.36,-416.081 1045.36,-422.081 1045.36,-422.081 1045.36,-581.081 1045.36,-581.081 1045.36,-587.081 1039.36,-593.081 1033.36,-593.081 1033.36,-593.081 941.36,-593.081 941.36,-593.081 935.36,-593.081 929.36,-587.081 929.36,-581.081 929.36,-581.081 929.36,-422.081 929.36,-422.081 929.36,-416.081 935.36,-410.081 941.36,-410.081"/>
<text text-anchor="middle" x="987.36" y="-577.881" font-family="Times,serif" font-size="14.00">PsazipsController</text>
<polyline fill="none" stroke="black" points="929.36,-570.081 1045.36,-570.081 "/>
<text text-anchor="start" x="937.36" y="-554.881" font-family="Times,serif" font-size="14.00">create</text>
<text text-anchor="start" x="937.36" y="-539.881" font-family="Times,serif" font-size="14.00">destroy</text>
<text text-anchor="start" x="937.36" y="-524.881" font-family="Times,serif" font-size="14.00">edit</text>
<text text-anchor="start" x="937.36" y="-509.881" font-family="Times,serif" font-size="14.00">index</text>
<text text-anchor="start" x="937.36" y="-494.881" font-family="Times,serif" font-size="14.00">new</text>
<text text-anchor="start" x="937.36" y="-479.881" font-family="Times,serif" font-size="14.00">show</text>
<text text-anchor="start" x="937.36" y="-464.881" font-family="Times,serif" font-size="14.00">update</text>
<polyline fill="none" stroke="black" points="929.36,-457.081 1045.36,-457.081 "/>
<polyline fill="none" stroke="black" points="929.36,-433.081 1045.36,-433.081 "/>
<text text-anchor="start" x="937.36" y="-417.881" font-family="Times,serif" font-size="14.00">_layout</text>
</g>
<!-- ApplicationController&#45;&gt;PsazipsController -->
<g id="edge7" class="edge"><title>ApplicationController&#45;&gt;PsazipsController</title>
<path fill="none" stroke="black" d="M746.266,-606.716C805.553,-580.862 879.105,-548.788 929.275,-526.91"/>
</g>
<!-- RegionsController -->
<g id="node10" class="node"><title>RegionsController</title>
<path fill="none" stroke="black" d="M319.599,-508.421C319.599,-508.421 415.599,-508.421 415.599,-508.421 421.599,-508.421 427.599,-514.421 427.599,-520.421 427.599,-520.421 427.599,-679.421 427.599,-679.421 427.599,-685.421 421.599,-691.421 415.599,-691.421 415.599,-691.421 319.599,-691.421 319.599,-691.421 313.599,-691.421 307.599,-685.421 307.599,-679.421 307.599,-679.421 307.599,-520.421 307.599,-520.421 307.599,-514.421 313.599,-508.421 319.599,-508.421"/>
<text text-anchor="middle" x="367.599" y="-676.221" font-family="Times,serif" font-size="14.00">RegionsController</text>
<polyline fill="none" stroke="black" points="307.599,-668.421 427.599,-668.421 "/>
<text text-anchor="start" x="315.599" y="-653.221" font-family="Times,serif" font-size="14.00">create</text>
<text text-anchor="start" x="315.599" y="-638.221" font-family="Times,serif" font-size="14.00">destroy</text>
<text text-anchor="start" x="315.599" y="-623.221" font-family="Times,serif" font-size="14.00">edit</text>
<text text-anchor="start" x="315.599" y="-608.221" font-family="Times,serif" font-size="14.00">index</text>
<text text-anchor="start" x="315.599" y="-593.221" font-family="Times,serif" font-size="14.00">new</text>
<text text-anchor="start" x="315.599" y="-578.221" font-family="Times,serif" font-size="14.00">show</text>
<text text-anchor="start" x="315.599" y="-563.221" font-family="Times,serif" font-size="14.00">update</text>
<polyline fill="none" stroke="black" points="307.599,-555.421 427.599,-555.421 "/>
<polyline fill="none" stroke="black" points="307.599,-531.421 427.599,-531.421 "/>
<text text-anchor="start" x="315.599" y="-516.221" font-family="Times,serif" font-size="14.00">_layout</text>
</g>
<!-- ApplicationController&#45;&gt;RegionsController -->
<g id="edge8" class="edge"><title>ApplicationController&#45;&gt;RegionsController</title>
<path fill="none" stroke="black" d="M550.029,-632.16C509.261,-624.955 463.256,-616.825 427.645,-610.532"/>
</g>
<!-- RolesController -->
<g id="node11" class="node"><title>RolesController</title>
<path fill="none" stroke="black" d="M617.593,-0.5C617.593,-0.5 699.593,-0.5 699.593,-0.5 705.593,-0.5 711.593,-6.5 711.593,-12.5 711.593,-12.5 711.593,-171.5 711.593,-171.5 711.593,-177.5 705.593,-183.5 699.593,-183.5 699.593,-183.5 617.593,-183.5 617.593,-183.5 611.593,-183.5 605.593,-177.5 605.593,-171.5 605.593,-171.5 605.593,-12.5 605.593,-12.5 605.593,-6.5 611.593,-0.5 617.593,-0.5"/>
<text text-anchor="middle" x="658.593" y="-168.3" font-family="Times,serif" font-size="14.00">RolesController</text>
<polyline fill="none" stroke="black" points="605.593,-160.5 711.593,-160.5 "/>
<text text-anchor="start" x="613.593" y="-145.3" font-family="Times,serif" font-size="14.00">create</text>
<text text-anchor="start" x="613.593" y="-130.3" font-family="Times,serif" font-size="14.00">destroy</text>
<text text-anchor="start" x="613.593" y="-115.3" font-family="Times,serif" font-size="14.00">edit</text>
<text text-anchor="start" x="613.593" y="-100.3" font-family="Times,serif" font-size="14.00">index</text>
<text text-anchor="start" x="613.593" y="-85.3" font-family="Times,serif" font-size="14.00">new</text>
<text text-anchor="start" x="613.593" y="-70.3" font-family="Times,serif" font-size="14.00">show</text>
<text text-anchor="start" x="613.593" y="-55.3" font-family="Times,serif" font-size="14.00">update</text>
<polyline fill="none" stroke="black" points="605.593,-47.5 711.593,-47.5 "/>
<polyline fill="none" stroke="black" points="605.593,-23.5 711.593,-23.5 "/>
<text text-anchor="start" x="613.593" y="-8.3" font-family="Times,serif" font-size="14.00">_layout</text>
</g>
<!-- ApplicationController&#45;&gt;RolesController -->
<g id="edge9" class="edge"><title>ApplicationController&#45;&gt;RolesController</title>
<path fill="none" stroke="black" d="M640.158,-602.709C635.734,-574.428 630.692,-537.6 628.465,-504.692 622.782,-420.707 622.825,-399.281 628.465,-315.292 631.388,-271.775 637.48,-223.806 643.426,-183.519"/>
</g>
<!-- ServiceTypesController -->
<g id="node12" class="node"><title>ServiceTypesController</title>
<path fill="none" stroke="black" d="M402.023,-303.161C402.023,-303.161 528.023,-303.161 528.023,-303.161 534.023,-303.161 540.023,-309.161 540.023,-315.161 540.023,-315.161 540.023,-474.161 540.023,-474.161 540.023,-480.161 534.023,-486.161 528.023,-486.161 528.023,-486.161 402.023,-486.161 402.023,-486.161 396.023,-486.161 390.023,-480.161 390.023,-474.161 390.023,-474.161 390.023,-315.161 390.023,-315.161 390.023,-309.161 396.023,-303.161 402.023,-303.161"/>
<text text-anchor="middle" x="465.023" y="-470.961" font-family="Times,serif" font-size="14.00">ServiceTypesController</text>
<polyline fill="none" stroke="black" points="390.023,-463.161 540.023,-463.161 "/>
<text text-anchor="start" x="398.023" y="-447.961" font-family="Times,serif" font-size="14.00">create</text>
<text text-anchor="start" x="398.023" y="-432.961" font-family="Times,serif" font-size="14.00">destroy</text>
<text text-anchor="start" x="398.023" y="-417.961" font-family="Times,serif" font-size="14.00">edit</text>
<text text-anchor="start" x="398.023" y="-402.961" font-family="Times,serif" font-size="14.00">index</text>
<text text-anchor="start" x="398.023" y="-387.961" font-family="Times,serif" font-size="14.00">new</text>
<text text-anchor="start" x="398.023" y="-372.961" font-family="Times,serif" font-size="14.00">show</text>
<text text-anchor="start" x="398.023" y="-357.961" font-family="Times,serif" font-size="14.00">update</text>
<polyline fill="none" stroke="black" points="390.023,-350.161 540.023,-350.161 "/>
<polyline fill="none" stroke="black" points="390.023,-326.161 540.023,-326.161 "/>
<text text-anchor="start" x="398.023" y="-310.961" font-family="Times,serif" font-size="14.00">_layout</text>
</g>
<!-- ApplicationController&#45;&gt;ServiceTypesController -->
<g id="edge10" class="edge"><title>ApplicationController&#45;&gt;ServiceTypesController</title>
<path fill="none" stroke="black" d="M614.564,-602.759C591.176,-570.213 559.216,-525.737 530.844,-486.256"/>
</g>
<!-- TerminalsController -->
<g id="node13" class="node"><title>TerminalsController</title>
<path fill="none" stroke="black" d="M12,-554.414C12,-554.414 119,-554.414 119,-554.414 125,-554.414 131,-560.414 131,-566.414 131,-566.414 131,-725.414 131,-725.414 131,-731.414 125,-737.414 119,-737.414 119,-737.414 12,-737.414 12,-737.414 6,-737.414 0,-731.414 0,-725.414 0,-725.414 0,-566.414 0,-566.414 0,-560.414 6,-554.414 12,-554.414"/>
<text text-anchor="middle" x="65.5" y="-722.214" font-family="Times,serif" font-size="14.00">TerminalsController</text>
<polyline fill="none" stroke="black" points="0,-714.414 131,-714.414 "/>
<text text-anchor="start" x="8" y="-699.214" font-family="Times,serif" font-size="14.00">create</text>
<text text-anchor="start" x="8" y="-684.214" font-family="Times,serif" font-size="14.00">destroy</text>
<text text-anchor="start" x="8" y="-669.214" font-family="Times,serif" font-size="14.00">edit</text>
<text text-anchor="start" x="8" y="-654.214" font-family="Times,serif" font-size="14.00">index</text>
<text text-anchor="start" x="8" y="-639.214" font-family="Times,serif" font-size="14.00">new</text>
<text text-anchor="start" x="8" y="-624.214" font-family="Times,serif" font-size="14.00">show</text>
<text text-anchor="start" x="8" y="-609.214" font-family="Times,serif" font-size="14.00">update</text>
<polyline fill="none" stroke="black" points="0,-601.414 131,-601.414 "/>
<polyline fill="none" stroke="black" points="0,-577.414 131,-577.414 "/>
<text text-anchor="start" x="8" y="-562.214" font-family="Times,serif" font-size="14.00">_layout</text>
</g>
<!-- ApplicationController&#45;&gt;TerminalsController -->
<g id="edge11" class="edge"><title>ApplicationController&#45;&gt;TerminalsController</title>
<path fill="none" stroke="black" d="M550.086,-674.3C512.977,-682.508 470.191,-690.575 430.799,-694.621 374.915,-700.36 360.293,-700.26 304.399,-694.621 245.122,-688.639 178.811,-674.512 131.119,-663.004"/>
</g>
<!-- UserRolesController -->
<g id="node14" class="node"><title>UserRolesController</title>
<path fill="none" stroke="black" d="M913.238,-703.859C913.238,-703.859 1021.24,-703.859 1021.24,-703.859 1027.24,-703.859 1033.24,-709.859 1033.24,-715.859 1033.24,-715.859 1033.24,-874.859 1033.24,-874.859 1033.24,-880.859 1027.24,-886.859 1021.24,-886.859 1021.24,-886.859 913.238,-886.859 913.238,-886.859 907.238,-886.859 901.238,-880.859 901.238,-874.859 901.238,-874.859 901.238,-715.859 901.238,-715.859 901.238,-709.859 907.238,-703.859 913.238,-703.859"/>
<text text-anchor="middle" x="967.238" y="-871.659" font-family="Times,serif" font-size="14.00">UserRolesController</text>
<polyline fill="none" stroke="black" points="901.238,-863.859 1033.24,-863.859 "/>
<text text-anchor="start" x="909.238" y="-848.659" font-family="Times,serif" font-size="14.00">create</text>
<text text-anchor="start" x="909.238" y="-833.659" font-family="Times,serif" font-size="14.00">destroy</text>
<text text-anchor="start" x="909.238" y="-818.659" font-family="Times,serif" font-size="14.00">edit</text>
<text text-anchor="start" x="909.238" y="-803.659" font-family="Times,serif" font-size="14.00">index</text>
<text text-anchor="start" x="909.238" y="-788.659" font-family="Times,serif" font-size="14.00">new</text>
<text text-anchor="start" x="909.238" y="-773.659" font-family="Times,serif" font-size="14.00">show</text>
<text text-anchor="start" x="909.238" y="-758.659" font-family="Times,serif" font-size="14.00">update</text>
<polyline fill="none" stroke="black" points="901.238,-750.859 1033.24,-750.859 "/>
<polyline fill="none" stroke="black" points="901.238,-726.859 1033.24,-726.859 "/>
<text text-anchor="start" x="909.238" y="-711.659" font-family="Times,serif" font-size="14.00">_layout</text>
</g>
<!-- ApplicationController&#45;&gt;UserRolesController -->
<g id="edge12" class="edge"><title>ApplicationController&#45;&gt;UserRolesController</title>
<path fill="none" stroke="black" d="M746.493,-694.453C796.666,-717.388 856.358,-744.674 901.012,-765.086"/>
</g>
<!-- UsersController -->
<g id="node15" class="node"><title>UsersController</title>
<path fill="none" stroke="black" d="M934.893,-1062.28C934.893,-1062.28 1016.89,-1062.28 1016.89,-1062.28 1022.89,-1062.28 1028.89,-1068.28 1028.89,-1074.28 1028.89,-1074.28 1028.89,-1233.28 1028.89,-1233.28 1028.89,-1239.28 1022.89,-1245.28 1016.89,-1245.28 1016.89,-1245.28 934.893,-1245.28 934.893,-1245.28 928.893,-1245.28 922.893,-1239.28 922.893,-1233.28 922.893,-1233.28 922.893,-1074.28 922.893,-1074.28 922.893,-1068.28 928.893,-1062.28 934.893,-1062.28"/>
<text text-anchor="middle" x="975.893" y="-1230.08" font-family="Times,serif" font-size="14.00">UsersController</text>
<polyline fill="none" stroke="black" points="922.893,-1222.28 1028.89,-1222.28 "/>
<text text-anchor="start" x="930.893" y="-1207.08" font-family="Times,serif" font-size="14.00">create</text>
<text text-anchor="start" x="930.893" y="-1192.08" font-family="Times,serif" font-size="14.00">destroy</text>
<text text-anchor="start" x="930.893" y="-1177.08" font-family="Times,serif" font-size="14.00">edit</text>
<text text-anchor="start" x="930.893" y="-1162.08" font-family="Times,serif" font-size="14.00">index</text>
<text text-anchor="start" x="930.893" y="-1147.08" font-family="Times,serif" font-size="14.00">new</text>
<text text-anchor="start" x="930.893" y="-1132.08" font-family="Times,serif" font-size="14.00">show</text>
<text text-anchor="start" x="930.893" y="-1117.08" font-family="Times,serif" font-size="14.00">update</text>
<polyline fill="none" stroke="black" points="922.893,-1109.28 1028.89,-1109.28 "/>
<polyline fill="none" stroke="black" points="922.893,-1085.28 1028.89,-1085.28 "/>
<text text-anchor="start" x="930.893" y="-1070.08" font-family="Times,serif" font-size="14.00">_layout</text>
</g>
<!-- ApplicationController&#45;&gt;UsersController -->
<g id="edge13" class="edge"><title>ApplicationController&#45;&gt;UsersController</title>
<path fill="none" stroke="black" d="M680.215,-696.067C701.02,-726.463 728.597,-767.091 752.443,-803.355 811.709,-893.486 877.959,-997.856 922.824,-1069.1"/>
</g>
<!-- VehicleFuelsController -->
<g id="node16" class="node"><title>VehicleFuelsController</title>
<path fill="none" stroke="black" d="M602.511,-1117.13C602.511,-1117.13 726.511,-1117.13 726.511,-1117.13 732.511,-1117.13 738.511,-1123.13 738.511,-1129.13 738.511,-1129.13 738.511,-1288.13 738.511,-1288.13 738.511,-1294.13 732.511,-1300.13 726.511,-1300.13 726.511,-1300.13 602.511,-1300.13 602.511,-1300.13 596.511,-1300.13 590.511,-1294.13 590.511,-1288.13 590.511,-1288.13 590.511,-1129.13 590.511,-1129.13 590.511,-1123.13 596.511,-1117.13 602.511,-1117.13"/>
<text text-anchor="middle" x="664.511" y="-1284.93" font-family="Times,serif" font-size="14.00">VehicleFuelsController</text>
<polyline fill="none" stroke="black" points="590.511,-1277.13 738.511,-1277.13 "/>
<text text-anchor="start" x="598.511" y="-1261.93" font-family="Times,serif" font-size="14.00">create</text>
<text text-anchor="start" x="598.511" y="-1246.93" font-family="Times,serif" font-size="14.00">destroy</text>
<text text-anchor="start" x="598.511" y="-1231.93" font-family="Times,serif" font-size="14.00">edit</text>
<text text-anchor="start" x="598.511" y="-1216.93" font-family="Times,serif" font-size="14.00">index</text>
<text text-anchor="start" x="598.511" y="-1201.93" font-family="Times,serif" font-size="14.00">new</text>
<text text-anchor="start" x="598.511" y="-1186.93" font-family="Times,serif" font-size="14.00">show</text>
<text text-anchor="start" x="598.511" y="-1171.93" font-family="Times,serif" font-size="14.00">update</text>
<polyline fill="none" stroke="black" points="590.511,-1164.13 738.511,-1164.13 "/>
<polyline fill="none" stroke="black" points="590.511,-1140.13 738.511,-1140.13 "/>
<text text-anchor="start" x="598.511" y="-1124.93" font-family="Times,serif" font-size="14.00">_layout</text>
</g>
<!-- ApplicationController&#45;&gt;VehicleFuelsController -->
<g id="edge14" class="edge"><title>ApplicationController&#45;&gt;VehicleFuelsController</title>
<path fill="none" stroke="black" d="M623.038,-696.123C608.473,-725.864 591.563,-765.758 584.043,-803.355 567.533,-885.898 569.105,-909.914 584.043,-992.755 591.62,-1034.78 606.87,-1079.29 622.076,-1116.91"/>
</g>
<!-- VehicleOdometersController -->
<g id="node17" class="node"><title>VehicleOdometersController</title>
<path fill="none" stroke="black" d="M643.665,-318.492C643.665,-318.492 798.665,-318.492 798.665,-318.492 804.665,-318.492 810.665,-324.492 810.665,-330.492 810.665,-330.492 810.665,-489.492 810.665,-489.492 810.665,-495.492 804.665,-501.492 798.665,-501.492 798.665,-501.492 643.665,-501.492 643.665,-501.492 637.665,-501.492 631.665,-495.492 631.665,-489.492 631.665,-489.492 631.665,-330.492 631.665,-330.492 631.665,-324.492 637.665,-318.492 643.665,-318.492"/>
<text text-anchor="middle" x="721.165" y="-486.292" font-family="Times,serif" font-size="14.00">VehicleOdometersController</text>
<polyline fill="none" stroke="black" points="631.665,-478.492 810.665,-478.492 "/>
<text text-anchor="start" x="639.665" y="-463.292" font-family="Times,serif" font-size="14.00">create</text>
<text text-anchor="start" x="639.665" y="-448.292" font-family="Times,serif" font-size="14.00">destroy</text>
<text text-anchor="start" x="639.665" y="-433.292" font-family="Times,serif" font-size="14.00">edit</text>
<text text-anchor="start" x="639.665" y="-418.292" font-family="Times,serif" font-size="14.00">index</text>
<text text-anchor="start" x="639.665" y="-403.292" font-family="Times,serif" font-size="14.00">new</text>
<text text-anchor="start" x="639.665" y="-388.292" font-family="Times,serif" font-size="14.00">show</text>
<text text-anchor="start" x="639.665" y="-373.292" font-family="Times,serif" font-size="14.00">update</text>
<polyline fill="none" stroke="black" points="631.665,-365.492 810.665,-365.492 "/>
<polyline fill="none" stroke="black" points="631.665,-341.492 810.665,-341.492 "/>
<text text-anchor="start" x="639.665" y="-326.292" font-family="Times,serif" font-size="14.00">_layout</text>
</g>
<!-- ApplicationController&#45;&gt;VehicleOdometersController -->
<g id="edge15" class="edge"><title>ApplicationController&#45;&gt;VehicleOdometersController</title>
<path fill="none" stroke="black" d="M662.404,-602.752C671.16,-574.028 682.679,-536.241 693.197,-501.74"/>
</g>
<!-- VehicleTypesController -->
<g id="node18" class="node"><title>VehicleTypesController</title>
<path fill="none" stroke="black" d="M909.31,-36.6512C909.31,-36.6512 1037.31,-36.6512 1037.31,-36.6512 1043.31,-36.6512 1049.31,-42.6512 1049.31,-48.6512 1049.31,-48.6512 1049.31,-207.651 1049.31,-207.651 1049.31,-213.651 1043.31,-219.651 1037.31,-219.651 1037.31,-219.651 909.31,-219.651 909.31,-219.651 903.31,-219.651 897.31,-213.651 897.31,-207.651 897.31,-207.651 897.31,-48.6512 897.31,-48.6512 897.31,-42.6512 903.31,-36.6512 909.31,-36.6512"/>
<text text-anchor="middle" x="973.31" y="-204.451" font-family="Times,serif" font-size="14.00">VehicleTypesController</text>
<polyline fill="none" stroke="black" points="897.31,-196.651 1049.31,-196.651 "/>
<text text-anchor="start" x="905.31" y="-181.451" font-family="Times,serif" font-size="14.00">create</text>
<text text-anchor="start" x="905.31" y="-166.451" font-family="Times,serif" font-size="14.00">destroy</text>
<text text-anchor="start" x="905.31" y="-151.451" font-family="Times,serif" font-size="14.00">edit</text>
<text text-anchor="start" x="905.31" y="-136.451" font-family="Times,serif" font-size="14.00">index</text>
<text text-anchor="start" x="905.31" y="-121.451" font-family="Times,serif" font-size="14.00">new</text>
<text text-anchor="start" x="905.31" y="-106.451" font-family="Times,serif" font-size="14.00">show</text>
<text text-anchor="start" x="905.31" y="-91.4512" font-family="Times,serif" font-size="14.00">update</text>
<polyline fill="none" stroke="black" points="897.31,-83.6512 1049.31,-83.6512 "/>
<polyline fill="none" stroke="black" points="897.31,-59.6512 1049.31,-59.6512 "/>
<text text-anchor="start" x="905.31" y="-44.4512" font-family="Times,serif" font-size="14.00">_layout</text>
</g>
<!-- ApplicationController&#45;&gt;VehicleTypesController -->
<g id="edge16" class="edge"><title>ApplicationController&#45;&gt;VehicleTypesController</title>
<path fill="none" stroke="black" d="M714.774,-602.725C747.936,-576.823 786.645,-542.295 813.865,-504.692 877.348,-416.997 921.778,-300.162 947.327,-220.025"/>
</g>
<!-- VehiclesController -->
<g id="node19" class="node"><title>VehiclesController</title>
<path fill="none" stroke="black" d="M40.989,-1101.86C40.989,-1101.86 139.989,-1101.86 139.989,-1101.86 145.989,-1101.86 151.989,-1107.86 151.989,-1113.86 151.989,-1113.86 151.989,-1272.86 151.989,-1272.86 151.989,-1278.86 145.989,-1284.86 139.989,-1284.86 139.989,-1284.86 40.989,-1284.86 40.989,-1284.86 34.989,-1284.86 28.989,-1278.86 28.989,-1272.86 28.989,-1272.86 28.989,-1113.86 28.989,-1113.86 28.989,-1107.86 34.989,-1101.86 40.989,-1101.86"/>
<text text-anchor="middle" x="90.489" y="-1269.66" font-family="Times,serif" font-size="14.00">VehiclesController</text>
<polyline fill="none" stroke="black" points="28.989,-1261.86 151.989,-1261.86 "/>
<text text-anchor="start" x="36.989" y="-1246.66" font-family="Times,serif" font-size="14.00">create</text>
<text text-anchor="start" x="36.989" y="-1231.66" font-family="Times,serif" font-size="14.00">destroy</text>
<text text-anchor="start" x="36.989" y="-1216.66" font-family="Times,serif" font-size="14.00">edit</text>
<text text-anchor="start" x="36.989" y="-1201.66" font-family="Times,serif" font-size="14.00">index</text>
<text text-anchor="start" x="36.989" y="-1186.66" font-family="Times,serif" font-size="14.00">new</text>
<text text-anchor="start" x="36.989" y="-1171.66" font-family="Times,serif" font-size="14.00">show</text>
<text text-anchor="start" x="36.989" y="-1156.66" font-family="Times,serif" font-size="14.00">update</text>
<polyline fill="none" stroke="black" points="28.989,-1148.86 151.989,-1148.86 "/>
<polyline fill="none" stroke="black" points="28.989,-1124.86 151.989,-1124.86 "/>
<text text-anchor="start" x="36.989" y="-1109.66" font-family="Times,serif" font-size="14.00">_layout</text>
</g>
<!-- ApplicationController&#45;&gt;VehiclesController -->
<g id="edge17" class="edge"><title>ApplicationController&#45;&gt;VehiclesController</title>
<path fill="none" stroke="black" d="M623.899,-696.095C591.82,-754.896 531.044,-857.098 460.602,-929.623 365.637,-1027.4 230.303,-1113.31 152.325,-1158.85"/>
</g>
<!-- ZipsController -->
<g id="node20" class="node"><title>ZipsController</title>
<path fill="none" stroke="black" d="M58.2755,-796.664C58.2755,-796.664 133.276,-796.664 133.276,-796.664 139.276,-796.664 145.276,-802.664 145.276,-808.664 145.276,-808.664 145.276,-967.664 145.276,-967.664 145.276,-973.664 139.276,-979.664 133.276,-979.664 133.276,-979.664 58.2755,-979.664 58.2755,-979.664 52.2755,-979.664 46.2755,-973.664 46.2755,-967.664 46.2755,-967.664 46.2755,-808.664 46.2755,-808.664 46.2755,-802.664 52.2755,-796.664 58.2755,-796.664"/>
<text text-anchor="middle" x="95.7755" y="-964.464" font-family="Times,serif" font-size="14.00">ZipsController</text>
<polyline fill="none" stroke="black" points="46.2755,-956.664 145.276,-956.664 "/>
<text text-anchor="start" x="54.2755" y="-941.464" font-family="Times,serif" font-size="14.00">create</text>
<text text-anchor="start" x="54.2755" y="-926.464" font-family="Times,serif" font-size="14.00">destroy</text>
<text text-anchor="start" x="54.2755" y="-911.464" font-family="Times,serif" font-size="14.00">edit</text>
<text text-anchor="start" x="54.2755" y="-896.464" font-family="Times,serif" font-size="14.00">index</text>
<text text-anchor="start" x="54.2755" y="-881.464" font-family="Times,serif" font-size="14.00">new</text>
<text text-anchor="start" x="54.2755" y="-866.464" font-family="Times,serif" font-size="14.00">show</text>
<text text-anchor="start" x="54.2755" y="-851.464" font-family="Times,serif" font-size="14.00">update</text>
<polyline fill="none" stroke="black" points="46.2755,-843.664 145.276,-843.664 "/>
<polyline fill="none" stroke="black" points="46.2755,-819.664 145.276,-819.664 "/>
<text text-anchor="start" x="54.2755" y="-804.464" font-family="Times,serif" font-size="14.00">_layout</text>
</g>
<!-- ApplicationController&#45;&gt;ZipsController -->
<g id="edge18" class="edge"><title>ApplicationController&#45;&gt;ZipsController</title>
<path fill="none" stroke="black" d="M549.814,-672.777C489.97,-688.491 412.699,-711.576 347.202,-740.223 273.655,-772.392 194.8,-821.438 145.402,-854.131"/>
</g>
</g>
</svg>
