<?xml version="1.0" encoding="UTF-8" standalone="no"?>
<!DOCTYPE svg PUBLIC "-//W3C//DTD SVG 1.1//EN"
 "http://www.w3.org/Graphics/SVG/1.1/DTD/svg11.dtd">
<!-- Generated by graphviz version 2.29.20121209.0545 (20121209.0545)
 -->
<!-- Title: controllers_diagram Pages: 1 -->
<svg width="2259pt" height="1305pt"
 viewBox="0.00 0.00 2259.17 1305.36" xmlns="http://www.w3.org/2000/svg" xmlns:xlink="http://www.w3.org/1999/xlink">
<g id="graph0" class="graph" transform="scale(1 1) rotate(0) translate(4 1301.36)">
<title>controllers_diagram</title>
<polygon fill="white" stroke="white" points="-4,5 -4,-1301.36 2256.17,-1301.36 2256.17,5 -4,5"/>
<!-- _diagram_info -->
<g id="node1" class="node"><title>_diagram_info</title>
<text text-anchor="start" x="1394" y="-63.6" font-family="Times,serif" font-size="13.00">Controllers diagram</text>
<text text-anchor="start" x="1394" y="-49.6" font-family="Times,serif" font-size="13.00">Date: Dec 16 2012 &#45; 17:11</text>
<text text-anchor="start" x="1394" y="-35.6" font-family="Times,serif" font-size="13.00">Migration version: 20121216220234</text>
<text text-anchor="start" x="1394" y="-21.6" font-family="Times,serif" font-size="13.00">Generated by RailRoady 1.1.0</text>
<text text-anchor="start" x="1394" y="-7.6" font-family="Times,serif" font-size="13.00">http://railroady.prestonlee.com</text>
</g>
<!-- AddendumsController -->
<g id="node2" class="node"><title>AddendumsController</title>
<ellipse fill="none" stroke="black" cx="92.2918" cy="-226.845" rx="92.0841" ry="18"/>
<text text-anchor="middle" x="92.2918" y="-223.145" font-family="Times,serif" font-size="14.00">AddendumsController</text>
</g>
<!-- ApplicationController -->
<g id="node3" class="node"><title>ApplicationController</title>
<ellipse fill="none" stroke="black" cx="1155.48" cy="-700.479" rx="90.9839" ry="18"/>
<text text-anchor="middle" x="1155.48" y="-696.779" font-family="Times,serif" font-size="14.00">ApplicationController</text>
</g>
<!-- ApplicationController&#45;&gt;AddendumsController -->
<g id="edge1" class="edge"><title>ApplicationController&#45;&gt;AddendumsController</title>
<path fill="none" stroke="black" d="M1118.27,-683.9C953.888,-610.672 293.806,-316.616 129.481,-243.412"/>
</g>
<!-- BusinessesController -->
<g id="node4" class="node"><title>BusinessesController</title>
<ellipse fill="none" stroke="black" cx="1102.99" cy="-144.46" rx="87.9851" ry="18"/>
<text text-anchor="middle" x="1102.99" y="-140.76" font-family="Times,serif" font-size="14.00">BusinessesController</text>
</g>
<!-- ApplicationController&#45;&gt;BusinessesController -->
<g id="edge2" class="edge"><title>ApplicationController&#45;&gt;BusinessesController</title>
<path fill="none" stroke="black" d="M1137.84,-682.594C1103.1,-645.625 1028.13,-556.495 1015.7,-464.127 999.857,-346.39 1066.37,-210.598 1092.69,-162.487"/>
</g>
<!-- DailyDataController -->
<g id="node5" class="node"><title>DailyDataController</title>
<ellipse fill="none" stroke="black" cx="785.134" cy="-1279.36" rx="85.5853" ry="18"/>
<text text-anchor="middle" x="785.134" y="-1275.66" font-family="Times,serif" font-size="14.00">DailyDataController</text>
</g>
<!-- ApplicationController&#45;&gt;DailyDataController -->
<g id="edge3" class="edge"><title>ApplicationController&#45;&gt;DailyDataController</title>
<path fill="none" stroke="black" d="M1143.99,-718.439C1088.87,-804.601 851.904,-1174.99 796.672,-1261.32"/>
</g>
<!-- DailyDataDeliveryExceptionsController -->
<g id="node6" class="node"><title>DailyDataDeliveryExceptionsController</title>
<ellipse fill="none" stroke="black" cx="1699.97" cy="-870.495" rx="157.872" ry="18"/>
<text text-anchor="middle" x="1699.97" y="-866.795" font-family="Times,serif" font-size="14.00">DailyDataDeliveryExceptionsController</text>
</g>
<!-- ApplicationController&#45;&gt;DailyDataDeliveryExceptionsController -->
<g id="edge4" class="edge"><title>ApplicationController&#45;&gt;DailyDataDeliveryExceptionsController</title>
<path fill="none" stroke="black" d="M1204.28,-715.717C1305.82,-747.422 1539.2,-820.295 1645.47,-853.478"/>
</g>
<!-- DailyDataEmployeesController -->
<g id="node7" class="node"><title>DailyDataEmployeesController</title>
<ellipse fill="none" stroke="black" cx="514.916" cy="-866.952" rx="126.178" ry="18"/>
<text text-anchor="middle" x="514.916" y="-863.252" font-family="Times,serif" font-size="14.00">DailyDataEmployeesController</text>
</g>
<!-- ApplicationController&#45;&gt;DailyDataEmployeesController -->
<g id="edge5" class="edge"><title>ApplicationController&#45;&gt;DailyDataEmployeesController</title>
<path fill="none" stroke="black" d="M1100.32,-714.817C981.05,-745.812 699.972,-818.859 575.758,-851.14"/>
</g>
<!-- DailyDataVehiclesController -->
<g id="node8" class="node"><title>DailyDataVehiclesController</title>
<ellipse fill="none" stroke="black" cx="526.146" cy="-170.717" rx="117.779" ry="18"/>
<text text-anchor="middle" x="526.146" y="-167.017" font-family="Times,serif" font-size="14.00">DailyDataVehiclesController</text>
</g>
<!-- ApplicationController&#45;&gt;DailyDataVehiclesController -->
<g id="edge6" class="edge"><title>ApplicationController&#45;&gt;DailyDataVehiclesController</title>
<path fill="none" stroke="black" d="M1139.42,-682.72C1101.94,-641.677 1005.08,-537.838 915.43,-460.375 786.034,-348.569 617.071,-231.943 552.655,-188.445"/>
</g>
<!-- DeliveryExceptionsController -->
<g id="node9" class="node"><title>DeliveryExceptionsController</title>
<ellipse fill="none" stroke="black" cx="2130.93" cy="-221.636" rx="120.479" ry="18"/>
<text text-anchor="middle" x="2130.93" y="-217.936" font-family="Times,serif" font-size="14.00">DeliveryExceptionsController</text>
</g>
<!-- ApplicationController&#45;&gt;DeliveryExceptionsController -->
<g id="edge7" class="edge"><title>ApplicationController&#45;&gt;DeliveryExceptionsController</title>
<path fill="none" stroke="black" d="M1197.43,-684.434C1257.88,-661.001 1372.67,-615.323 1467.81,-570.624 1716.55,-453.753 2006.32,-292.122 2100.03,-239.186"/>
</g>
<!-- EmployeeManagerAssignmentsController -->
<g id="node10" class="node"><title>EmployeeManagerAssignmentsController</title>
<ellipse fill="none" stroke="black" cx="833.016" cy="-144" rx="164.371" ry="18"/>
<text text-anchor="middle" x="833.016" y="-140.3" font-family="Times,serif" font-size="14.00">EmployeeManagerAssignmentsController</text>
</g>
<!-- ApplicationController&#45;&gt;EmployeeManagerAssignmentsController -->
<g id="edge8" class="edge"><title>ApplicationController&#45;&gt;EmployeeManagerAssignmentsController</title>
<path fill="none" stroke="black" d="M1144.69,-682.448C1121.1,-642.986 1063.24,-545.95 1015.7,-464.127 949.157,-349.595 870.784,-210.976 843.219,-162.107"/>
</g>
<!-- EmployeePsasController -->
<g id="node11" class="node"><title>EmployeePsasController</title>
<ellipse fill="none" stroke="black" cx="1672.57" cy="-162.137" rx="101.282" ry="18"/>
<text text-anchor="middle" x="1672.57" y="-158.437" font-family="Times,serif" font-size="14.00">EmployeePsasController</text>
</g>
<!-- ApplicationController&#45;&gt;EmployeePsasController -->
<g id="edge9" class="edge"><title>ApplicationController&#45;&gt;EmployeePsasController</title>
<path fill="none" stroke="black" d="M1172.69,-682.568C1251.37,-600.651 1576.48,-262.173 1655.3,-180.116"/>
</g>
<!-- EmployeeTerminalsController -->
<g id="node12" class="node"><title>EmployeeTerminalsController</title>
<ellipse fill="none" stroke="black" cx="1139.49" cy="-464.276" rx="122.379" ry="18"/>
<text text-anchor="middle" x="1139.49" y="-460.576" font-family="Times,serif" font-size="14.00">EmployeeTerminalsController</text>
</g>
<!-- ApplicationController&#45;&gt;EmployeeTerminalsController -->
<g id="edge10" class="edge"><title>ApplicationController&#45;&gt;EmployeeTerminalsController</title>
<path fill="none" stroke="black" d="M1154.26,-682.337C1151.28,-638.37 1143.7,-526.511 1140.72,-482.48"/>
</g>
<!-- EmployeesController -->
<g id="node13" class="node"><title>EmployeesController</title>
<ellipse fill="none" stroke="black" cx="89.4828" cy="-705.036" rx="88.2844" ry="18"/>
<text text-anchor="middle" x="89.4828" y="-701.336" font-family="Times,serif" font-size="14.00">EmployeesController</text>
</g>
<!-- ApplicationController&#45;&gt;EmployeesController -->
<g id="edge11" class="edge"><title>ApplicationController&#45;&gt;EmployeesController</title>
<path fill="none" stroke="black" d="M1068.21,-695.162C1009.87,-691.979 931.379,-688.412 862.029,-687.679 613.015,-685.049 318.941,-695.359 176.076,-701.226"/>
</g>
<!-- FedexContractsController -->
<g id="node14" class="node"><title>FedexContractsController</title>
<ellipse fill="none" stroke="black" cx="2143.48" cy="-705.475" rx="105.082" ry="18"/>
<text text-anchor="middle" x="2143.48" y="-701.775" font-family="Times,serif" font-size="14.00">FedexContractsController</text>
</g>
<!-- ApplicationController&#45;&gt;FedexContractsController -->
<g id="edge12" class="edge"><title>ApplicationController&#45;&gt;FedexContractsController</title>
<path fill="none" stroke="black" d="M1246.66,-700.94C1430.22,-701.869 1843.38,-703.958 2038.13,-704.942"/>
</g>
<!-- NotesController -->
<g id="node15" class="node"><title>NotesController</title>
<ellipse fill="none" stroke="black" cx="2147.61" cy="-1187.53" rx="69.5877" ry="18"/>
<text text-anchor="middle" x="2147.61" y="-1183.83" font-family="Times,serif" font-size="14.00">NotesController</text>
</g>
<!-- ApplicationController&#45;&gt;NotesController -->
<g id="edge13" class="edge"><title>ApplicationController&#45;&gt;NotesController</title>
<path fill="none" stroke="black" d="M1189.64,-717.245C1342.79,-792.432 1965.39,-1098.08 2115.11,-1171.57"/>
</g>
<!-- PsaStatesController -->
<g id="node16" class="node"><title>PsaStatesController</title>
<ellipse fill="none" stroke="black" cx="1243.68" cy="-1262.96" rx="82.5854" ry="18"/>
<text text-anchor="middle" x="1243.68" y="-1259.26" font-family="Times,serif" font-size="14.00">PsaStatesController</text>
</g>
<!-- ApplicationController&#45;&gt;PsaStatesController -->
<g id="edge14" class="edge"><title>ApplicationController&#45;&gt;PsaStatesController</title>
<path fill="none" stroke="black" d="M1158.32,-718.557C1171.6,-803.269 1227.6,-1160.38 1240.86,-1244.95"/>
</g>
<!-- PsasController -->
<g id="node17" class="node"><title>PsasController</title>
<ellipse fill="none" stroke="black" cx="1421.44" cy="-556.688" rx="64.189" ry="18"/>
<text text-anchor="middle" x="1421.44" y="-552.988" font-family="Times,serif" font-size="14.00">PsasController</text>
</g>
<!-- ApplicationController&#45;&gt;PsasController -->
<g id="edge15" class="edge"><title>ApplicationController&#45;&gt;PsasController</title>
<path fill="none" stroke="black" d="M1186.77,-683.562C1238.4,-655.648 1340.76,-600.309 1391.49,-572.879"/>
</g>
<!-- PsazipsController -->
<g id="node18" class="node"><title>PsazipsController</title>
<ellipse fill="none" stroke="black" cx="1727.12" cy="-535.937" rx="75.2868" ry="18"/>
<text text-anchor="middle" x="1727.12" y="-532.237" font-family="Times,serif" font-size="14.00">PsazipsController</text>
</g>
<!-- ApplicationController&#45;&gt;PsazipsController -->
<g id="edge16" class="edge"><title>ApplicationController&#45;&gt;PsazipsController</title>
<path fill="none" stroke="black" d="M1207.22,-685.587C1317.01,-653.983 1572,-580.588 1678.75,-549.86"/>
</g>
<!-- RegionsController -->
<g id="node19" class="node"><title>RegionsController</title>
<ellipse fill="none" stroke="black" cx="498.511" cy="-1248.5" rx="77.9862" ry="18"/>
<text text-anchor="middle" x="498.511" y="-1244.8" font-family="Times,serif" font-size="14.00">RegionsController</text>
</g>
<!-- ApplicationController&#45;&gt;RegionsController -->
<g id="edge17" class="edge"><title>ApplicationController&#45;&gt;RegionsController</title>
<path fill="none" stroke="black" d="M1141,-718.312C1105.43,-761.536 1009.92,-874.259 917.164,-954.766 780.541,-1073.34 596.197,-1189.23 526.638,-1231.6"/>
</g>
<!-- RolesController -->
<g id="node20" class="node"><title>RolesController</title>
<ellipse fill="none" stroke="black" cx="83.0496" cy="-1189.29" rx="68.7879" ry="18"/>
<text text-anchor="middle" x="83.0496" y="-1185.59" font-family="Times,serif" font-size="14.00">RolesController</text>
</g>
<!-- ApplicationController&#45;&gt;RolesController -->
<g id="edge18" class="edge"><title>ApplicationController&#45;&gt;RolesController</title>
<path fill="none" stroke="black" d="M1119.19,-717.023C954.447,-792.111 278.169,-1100.36 117.439,-1173.62"/>
</g>
<!-- ServiceTypesController -->
<g id="node21" class="node"><title>ServiceTypesController</title>
<ellipse fill="none" stroke="black" cx="818.075" cy="-954.65" rx="97.4827" ry="18"/>
<text text-anchor="middle" x="818.075" y="-950.95" font-family="Times,serif" font-size="14.00">ServiceTypesController</text>
</g>
<!-- ApplicationController&#45;&gt;ServiceTypesController -->
<g id="edge19" class="edge"><title>ApplicationController&#45;&gt;ServiceTypesController</title>
<path fill="none" stroke="black" d="M1132.29,-717.95C1070.65,-764.383 903.253,-890.485 841.429,-937.058"/>
</g>
<!-- StatesController -->
<g id="node22" class="node"><title>StatesController</title>
<ellipse fill="none" stroke="black" cx="861.971" cy="-707.279" rx="69.5877" ry="18"/>
<text text-anchor="middle" x="861.971" y="-703.579" font-family="Times,serif" font-size="14.00">StatesController</text>
</g>
<!-- ApplicationController&#45;&gt;StatesController -->
<g id="edge20" class="edge"><title>ApplicationController&#45;&gt;StatesController</title>
<path fill="none" stroke="black" d="M1065.03,-702.575C1022.07,-703.57 971.538,-704.741 931.627,-705.666"/>
</g>
<!-- TerminalsController -->
<g id="node23" class="node"><title>TerminalsController</title>
<ellipse fill="none" stroke="black" cx="529.371" cy="-545.984" rx="85.2851" ry="18"/>
<text text-anchor="middle" x="529.371" y="-542.284" font-family="Times,serif" font-size="14.00">TerminalsController</text>
</g>
<!-- ApplicationController&#45;&gt;TerminalsController -->
<g id="edge21" class="edge"><title>ApplicationController&#45;&gt;TerminalsController</title>
<path fill="none" stroke="black" d="M1098.54,-686.428C979.013,-656.934 703.273,-588.895 584.949,-559.698"/>
</g>
<!-- UserRolesController -->
<g id="node24" class="node"><title>UserRolesController</title>
<ellipse fill="none" stroke="black" cx="1382.37" cy="-873.992" rx="85.5853" ry="18"/>
<text text-anchor="middle" x="1382.37" y="-870.292" font-family="Times,serif" font-size="14.00">UserRolesController</text>
</g>
<!-- ApplicationController&#45;&gt;UserRolesController -->
<g id="edge22" class="edge"><title>ApplicationController&#45;&gt;UserRolesController</title>
<path fill="none" stroke="black" d="M1178.49,-718.071C1222.09,-751.414 1316.26,-823.433 1359.64,-856.611"/>
</g>
<!-- UsersController -->
<g id="node25" class="node"><title>UsersController</title>
<ellipse fill="none" stroke="black" cx="1460.2" cy="-1220.6" rx="68.7879" ry="18"/>
<text text-anchor="middle" x="1460.2" y="-1216.9" font-family="Times,serif" font-size="14.00">UsersController</text>
</g>
<!-- ApplicationController&#45;&gt;UsersController -->
<g id="edge23" class="edge"><title>ApplicationController&#45;&gt;UsersController</title>
<path fill="none" stroke="black" d="M1165.97,-718.383C1212.86,-798.409 1402.96,-1122.9 1449.76,-1202.77"/>
</g>
<!-- VehicleFuelsController -->
<g id="node26" class="node"><title>VehicleFuelsController</title>
<ellipse fill="none" stroke="black" cx="1021.42" cy="-1261.39" rx="96.3833" ry="18"/>
<text text-anchor="middle" x="1021.42" y="-1257.69" font-family="Times,serif" font-size="14.00">VehicleFuelsController</text>
</g>
<!-- ApplicationController&#45;&gt;VehicleFuelsController -->
<g id="edge24" class="edge"><title>ApplicationController&#45;&gt;VehicleFuelsController</title>
<path fill="none" stroke="black" d="M1140.83,-718.493C1111.01,-756.447 1044.12,-848.609 1020.44,-939.098 991.042,-1051.42 1009.94,-1193.4 1018.16,-1243.16"/>
</g>
<!-- VehicleOdometersController -->
<g id="node27" class="node"><title>VehicleOdometersController</title>
<ellipse fill="none" stroke="black" cx="1365.72" cy="-182.975" rx="116.18" ry="18"/>
<text text-anchor="middle" x="1365.72" y="-179.275" font-family="Times,serif" font-size="14.00">VehicleOdometersController</text>
</g>
<!-- ApplicationController&#45;&gt;VehicleOdometersController -->
<g id="edge25" class="edge"><title>ApplicationController&#45;&gt;VehicleOdometersController</title>
<path fill="none" stroke="black" d="M1164.37,-682.331C1183.47,-643.038 1229.46,-546.973 1263.27,-464.425 1303.38,-366.501 1344.46,-246.412 1359.63,-201.276"/>
</g>
<!-- VehicleTypesController -->
<g id="node28" class="node"><title>VehicleTypesController</title>
<ellipse fill="none" stroke="black" cx="1733.51" cy="-1261.28" rx="98.5829" ry="18"/>
<text text-anchor="middle" x="1733.51" y="-1257.58" font-family="Times,serif" font-size="14.00">VehicleTypesController</text>
</g>
<!-- ApplicationController&#45;&gt;VehicleTypesController -->
<g id="edge26" class="edge"><title>ApplicationController&#45;&gt;VehicleTypesController</title>
<path fill="none" stroke="black" d="M1168.41,-718.534C1191.99,-751.008 1244.27,-820.835 1294.98,-873.939 1442.64,-1028.59 1643.97,-1190.8 1710.87,-1243.58"/>
</g>
<!-- VehiclesController -->
<g id="node29" class="node"><title>VehiclesController</title>
<ellipse fill="none" stroke="black" cx="1101.98" cy="-939.212" rx="79.8859" ry="18"/>
<text text-anchor="middle" x="1101.98" y="-935.512" font-family="Times,serif" font-size="14.00">VehiclesController</text>
</g>
<!-- ApplicationController&#45;&gt;VehiclesController -->
<g id="edge27" class="edge"><title>ApplicationController&#45;&gt;VehiclesController</title>
<path fill="none" stroke="black" d="M1151.37,-718.816C1141.39,-763.363 1115.95,-876.867 1106.03,-921.14"/>
</g>
<!-- ZipsController -->
<g id="node30" class="node"><title>ZipsController</title>
<ellipse fill="none" stroke="black" cx="849.488" cy="-460.19" rx="64.189" ry="18"/>
<text text-anchor="middle" x="849.488" y="-456.49" font-family="Times,serif" font-size="14.00">ZipsController</text>
</g>
<!-- ApplicationController&#45;&gt;ZipsController -->
<g id="edge28" class="edge"><title>ApplicationController&#45;&gt;ZipsController</title>
<path fill="none" stroke="black" d="M1132.98,-682.81C1076.12,-638.157 927.202,-521.216 871.2,-477.239"/>
</g>
</g>
</svg>
