<?xml version="1.0" encoding="UTF-8" standalone="no"?>
<!DOCTYPE svg PUBLIC "-//W3C//DTD SVG 1.1//EN"
 "http://www.w3.org/Graphics/SVG/1.1/DTD/svg11.dtd">
<!-- Generated by graphviz version 2.29.20121209.0545 (20121209.0545)
 -->
<!-- Title: controllers_diagram Pages: 1 -->
<svg width="1326pt" height="900pt"
 viewBox="0.00 0.00 1326.00 900.00" xmlns="http://www.w3.org/2000/svg" xmlns:xlink="http://www.w3.org/1999/xlink">
<g id="graph0" class="graph" transform="scale(1 1) rotate(0) translate(4 896)">
<title>controllers_diagram</title>
<polygon fill="white" stroke="white" points="-4,5 -4,-896 1323,-896 1323,5 -4,5"/>
<!-- _diagram_info -->
<g id="node1" class="node"><title>_diagram_info</title>
<text text-anchor="start" x="1118" y="-877.6" font-family="Times,serif" font-size="13.00">Controllers diagram</text>
<text text-anchor="start" x="1118" y="-863.6" font-family="Times,serif" font-size="13.00">Date: Dec 14 2012 &#45; 06:51</text>
<text text-anchor="start" x="1118" y="-849.6" font-family="Times,serif" font-size="13.00">Migration version: 20121213061801</text>
<text text-anchor="start" x="1118" y="-835.6" font-family="Times,serif" font-size="13.00">Generated by RailRoady 1.1.0</text>
<text text-anchor="start" x="1118" y="-821.6" font-family="Times,serif" font-size="13.00">http://railroady.prestonlee.com</text>
</g>
<!-- AddendumsController -->
<g id="node2" class="node"><title>AddendumsController</title>
<ellipse fill="none" stroke="black" cx="92.2918" cy="-71.5782" rx="92.0841" ry="18"/>
<text text-anchor="middle" x="92.2918" y="-67.8782" font-family="Times,serif" font-size="14.00">AddendumsController</text>
</g>
<!-- ApplicationController -->
<g id="node3" class="node"><title>ApplicationController</title>
<ellipse fill="none" stroke="black" cx="668.109" cy="-337.697" rx="90.9839" ry="18"/>
<text text-anchor="middle" x="668.109" y="-333.997" font-family="Times,serif" font-size="14.00">ApplicationController</text>
</g>
<!-- ApplicationController&#45;&gt;AddendumsController -->
<g id="edge1" class="edge"><title>ApplicationController&#45;&gt;AddendumsController</title>
<path fill="none" stroke="black" d="M632.089,-321.05C528.68,-273.259 231.69,-136.002 128.298,-88.2188"/>
</g>
<!-- BusinessesController -->
<g id="node4" class="node"><title>BusinessesController</title>
<ellipse fill="none" stroke="black" cx="620.226" cy="-18" rx="87.9851" ry="18"/>
<text text-anchor="middle" x="620.226" y="-14.3" font-family="Times,serif" font-size="14.00">BusinessesController</text>
</g>
<!-- ApplicationController&#45;&gt;BusinessesController -->
<g id="edge2" class="edge"><title>ApplicationController&#45;&gt;BusinessesController</title>
<path fill="none" stroke="black" d="M664.289,-319.293C658.159,-289.303 646.026,-227.977 638.22,-175.623 630.705,-125.226 624.654,-65.3525 621.876,-36.0181"/>
</g>
<!-- DailyDataController -->
<g id="node5" class="node"><title>DailyDataController</title>
<ellipse fill="none" stroke="black" cx="517.095" cy="-684.926" rx="85.5853" ry="18"/>
<text text-anchor="middle" x="517.095" y="-681.226" font-family="Times,serif" font-size="14.00">DailyDataController</text>
</g>
<!-- ApplicationController&#45;&gt;DailyDataController -->
<g id="edge3" class="edge"><title>ApplicationController&#45;&gt;DailyDataController</title>
<path fill="none" stroke="black" d="M669.545,-355.871C671.417,-388.228 672.29,-457.41 651.287,-510.543 625.306,-576.267 566.796,-638.067 536.34,-667.292"/>
</g>
<!-- DailyDataEmployeesController -->
<g id="node6" class="node"><title>DailyDataEmployeesController</title>
<ellipse fill="none" stroke="black" cx="964.716" cy="-456.218" rx="126.178" ry="18"/>
<text text-anchor="middle" x="964.716" y="-452.518" font-family="Times,serif" font-size="14.00">DailyDataEmployeesController</text>
</g>
<!-- ApplicationController&#45;&gt;DailyDataEmployeesController -->
<g id="edge4" class="edge"><title>ApplicationController&#45;&gt;DailyDataEmployeesController</title>
<path fill="none" stroke="black" d="M708.729,-353.928C764.736,-376.308 865.197,-416.451 922.191,-439.225"/>
</g>
<!-- DailyDataVehiclesController -->
<g id="node7" class="node"><title>DailyDataVehiclesController</title>
<ellipse fill="none" stroke="black" cx="302.908" cy="-472.271" rx="117.779" ry="18"/>
<text text-anchor="middle" x="302.908" y="-468.571" font-family="Times,serif" font-size="14.00">DailyDataVehiclesController</text>
</g>
<!-- ApplicationController&#45;&gt;DailyDataVehiclesController -->
<g id="edge5" class="edge"><title>ApplicationController&#45;&gt;DailyDataVehiclesController</title>
<path fill="none" stroke="black" d="M624.782,-353.663C555.157,-379.319 419.021,-429.484 348.18,-455.588"/>
</g>
<!-- EmployeePsasController -->
<g id="node8" class="node"><title>EmployeePsasController</title>
<ellipse fill="none" stroke="black" cx="359.203" cy="-32.4488" rx="101.282" ry="18"/>
<text text-anchor="middle" x="359.203" y="-28.7488" font-family="Times,serif" font-size="14.00">EmployeePsasController</text>
</g>
<!-- ApplicationController&#45;&gt;EmployeePsasController -->
<g id="edge6" class="edge"><title>ApplicationController&#45;&gt;EmployeePsasController</title>
<path fill="none" stroke="black" d="M620.963,-322.215C562.495,-300.651 463.668,-256.06 407.25,-185.334 374.806,-144.661 364.123,-81.8315 360.722,-50.9173"/>
</g>
<!-- EmployeesController -->
<g id="node9" class="node"><title>EmployeesController</title>
<ellipse fill="none" stroke="black" cx="1150.8" cy="-247.913" rx="88.2844" ry="18"/>
<text text-anchor="middle" x="1150.8" y="-244.213" font-family="Times,serif" font-size="14.00">EmployeesController</text>
</g>
<!-- ApplicationController&#45;&gt;EmployeesController -->
<g id="edge7" class="edge"><title>ApplicationController&#45;&gt;EmployeesController</title>
<path fill="none" stroke="black" d="M734.466,-325.354C826.848,-308.171 993.202,-277.228 1085.19,-260.118"/>
</g>
<!-- FedexContractsController -->
<g id="node10" class="node"><title>FedexContractsController</title>
<ellipse fill="none" stroke="black" cx="514.14" cy="-185.427" rx="105.082" ry="18"/>
<text text-anchor="middle" x="514.14" y="-181.727" font-family="Times,serif" font-size="14.00">FedexContractsController</text>
</g>
<!-- ApplicationController&#45;&gt;FedexContractsController -->
<g id="edge8" class="edge"><title>ApplicationController&#45;&gt;FedexContractsController</title>
<path fill="none" stroke="black" d="M650.146,-319.931C620.636,-290.748 562.211,-232.967 532.466,-203.551"/>
</g>
<!-- NotesController -->
<g id="node11" class="node"><title>NotesController</title>
<ellipse fill="none" stroke="black" cx="886.948" cy="-37.7204" rx="69.5877" ry="18"/>
<text text-anchor="middle" x="886.948" y="-34.0204" font-family="Times,serif" font-size="14.00">NotesController</text>
</g>
<!-- ApplicationController&#45;&gt;NotesController -->
<g id="edge9" class="edge"><title>ApplicationController&#45;&gt;NotesController</title>
<path fill="none" stroke="black" d="M685.451,-319.674C712.865,-290.712 767.137,-231.429 806.498,-175.991 835.599,-135.002 863.766,-82.8537 877.772,-55.8159"/>
</g>
<!-- PsaStatesController -->
<g id="node12" class="node"><title>PsaStatesController</title>
<ellipse fill="none" stroke="black" cx="722.359" cy="-175.807" rx="82.5854" ry="18"/>
<text text-anchor="middle" x="722.359" y="-172.107" font-family="Times,serif" font-size="14.00">PsaStatesController</text>
</g>
<!-- ApplicationController&#45;&gt;PsaStatesController -->
<g id="edge10" class="edge"><title>ApplicationController&#45;&gt;PsaStatesController</title>
<path fill="none" stroke="black" d="M674.227,-319.441C684.646,-288.348 705.72,-225.46 716.18,-194.245"/>
</g>
<!-- PsasController -->
<g id="node13" class="node"><title>PsasController</title>
<ellipse fill="none" stroke="black" cx="76.1562" cy="-356.927" rx="64.189" ry="18"/>
<text text-anchor="middle" x="76.1562" y="-353.227" font-family="Times,serif" font-size="14.00">PsasController</text>
</g>
<!-- ApplicationController&#45;&gt;PsasController -->
<g id="edge11" class="edge"><title>ApplicationController&#45;&gt;PsasController</title>
<path fill="none" stroke="black" d="M577.19,-336.962C544.008,-336.925 506.186,-337.151 471.769,-338.001 354.223,-340.902 217.196,-348.372 139.16,-353.012"/>
</g>
<!-- PsazipsController -->
<g id="node14" class="node"><title>PsazipsController</title>
<ellipse fill="none" stroke="black" cx="1184.93" cy="-452.636" rx="75.2868" ry="18"/>
<text text-anchor="middle" x="1184.93" y="-448.936" font-family="Times,serif" font-size="14.00">PsazipsController</text>
</g>
<!-- ApplicationController&#45;&gt;PsazipsController -->
<g id="edge12" class="edge"><title>ApplicationController&#45;&gt;PsazipsController</title>
<path fill="none" stroke="black" d="M728.66,-351.163C829.816,-373.66 1031.69,-418.556 1129.4,-440.286"/>
</g>
<!-- RegionsController -->
<g id="node15" class="node"><title>RegionsController</title>
<ellipse fill="none" stroke="black" cx="1157.78" cy="-669.499" rx="77.9862" ry="18"/>
<text text-anchor="middle" x="1157.78" y="-665.799" font-family="Times,serif" font-size="14.00">RegionsController</text>
</g>
<!-- ApplicationController&#45;&gt;RegionsController -->
<g id="edge13" class="edge"><title>ApplicationController&#45;&gt;RegionsController</title>
<path fill="none" stroke="black" d="M692.599,-355.13C725.347,-378.378 785.283,-420.706 837.032,-456.046 945.574,-530.169 1076.46,-616.263 1131.44,-652.279"/>
</g>
<!-- ServiceTypesController -->
<g id="node16" class="node"><title>ServiceTypesController</title>
<ellipse fill="none" stroke="black" cx="708.885" cy="-677.693" rx="97.4827" ry="18"/>
<text text-anchor="middle" x="708.885" y="-673.993" font-family="Times,serif" font-size="14.00">ServiceTypesController</text>
</g>
<!-- ApplicationController&#45;&gt;ServiceTypesController -->
<g id="edge14" class="edge"><title>ApplicationController&#45;&gt;ServiceTypesController</title>
<path fill="none" stroke="black" d="M670.255,-356.076C673.421,-383.14 679.539,-435.305 684.845,-479.66 692.786,-546.028 702.417,-624.882 706.677,-659.674"/>
</g>
<!-- StatesController -->
<g id="node17" class="node"><title>StatesController</title>
<ellipse fill="none" stroke="black" cx="905.199" cy="-256.963" rx="69.5877" ry="18"/>
<text text-anchor="middle" x="905.199" y="-253.263" font-family="Times,serif" font-size="14.00">StatesController</text>
</g>
<!-- ApplicationController&#45;&gt;StatesController -->
<g id="edge15" class="edge"><title>ApplicationController&#45;&gt;StatesController</title>
<path fill="none" stroke="black" d="M713.823,-322.131C756.882,-307.468 820.874,-285.677 862.812,-271.397"/>
</g>
<!-- TerminalsController -->
<g id="node18" class="node"><title>TerminalsController</title>
<ellipse fill="none" stroke="black" cx="1152.06" cy="-43.6966" rx="85.2851" ry="18"/>
<text text-anchor="middle" x="1152.06" y="-39.9966" font-family="Times,serif" font-size="14.00">TerminalsController</text>
</g>
<!-- ApplicationController&#45;&gt;TerminalsController -->
<g id="edge16" class="edge"><title>ApplicationController&#45;&gt;TerminalsController</title>
<path fill="none" stroke="black" d="M696.576,-320.403C782.483,-268.214 1038.47,-112.7 1123.93,-60.7842"/>
</g>
<!-- UserRolesController -->
<g id="node19" class="node"><title>UserRolesController</title>
<ellipse fill="none" stroke="black" cx="316.664" cy="-677.119" rx="85.5853" ry="18"/>
<text text-anchor="middle" x="316.664" y="-673.419" font-family="Times,serif" font-size="14.00">UserRolesController</text>
</g>
<!-- ApplicationController&#45;&gt;UserRolesController -->
<g id="edge17" class="edge"><title>ApplicationController&#45;&gt;UserRolesController</title>
<path fill="none" stroke="black" d="M643.585,-355.18C602.669,-384.87 518.754,-448.002 455.709,-510.267 405.003,-560.346 353.38,-627.424 329.831,-659.105"/>
</g>
<!-- UsersController -->
<g id="node20" class="node"><title>UsersController</title>
<ellipse fill="none" stroke="black" cx="83.1068" cy="-638.97" rx="68.7879" ry="18"/>
<text text-anchor="middle" x="83.1068" y="-635.27" font-family="Times,serif" font-size="14.00">UsersController</text>
</g>
<!-- ApplicationController&#45;&gt;UsersController -->
<g id="edge18" class="edge"><title>ApplicationController&#45;&gt;UsersController</title>
<path fill="none" stroke="black" d="M638.048,-354.723C591.929,-380.716 500.789,-431.579 422.145,-472.407 311.266,-529.971 177.665,-594.097 116.558,-623.143"/>
</g>
<!-- VehicleFuelsController -->
<g id="node21" class="node"><title>VehicleFuelsController</title>
<ellipse fill="none" stroke="black" cx="553.498" cy="-510.405" rx="96.3833" ry="18"/>
<text text-anchor="middle" x="553.498" y="-506.705" font-family="Times,serif" font-size="14.00">VehicleFuelsController</text>
</g>
<!-- ApplicationController&#45;&gt;VehicleFuelsController -->
<g id="edge19" class="edge"><title>ApplicationController&#45;&gt;VehicleFuelsController</title>
<path fill="none" stroke="black" d="M656.06,-355.853C633.991,-389.11 587.334,-459.417 565.385,-492.492"/>
</g>
<!-- VehicleOdometersController -->
<g id="node22" class="node"><title>VehicleOdometersController</title>
<ellipse fill="none" stroke="black" cx="470.873" cy="-357.6" rx="116.18" ry="18"/>
<text text-anchor="middle" x="470.873" y="-353.9" font-family="Times,serif" font-size="14.00">VehicleOdometersController</text>
</g>
<!-- ApplicationController&#45;&gt;VehicleOdometersController -->
<g id="edge20" class="edge"><title>ApplicationController&#45;&gt;VehicleOdometersController</title>
<path fill="none" stroke="black" d="M587.032,-345.878C580.869,-346.5 574.612,-347.132 568.361,-347.763"/>
</g>
<!-- VehicleTypesController -->
<g id="node23" class="node"><title>VehicleTypesController</title>
<ellipse fill="none" stroke="black" cx="289.176" cy="-241.897" rx="98.5829" ry="18"/>
<text text-anchor="middle" x="289.176" y="-238.197" font-family="Times,serif" font-size="14.00">VehicleTypesController</text>
</g>
<!-- ApplicationController&#45;&gt;VehicleTypesController -->
<g id="edge21" class="edge"><title>ApplicationController&#45;&gt;VehicleTypesController</title>
<path fill="none" stroke="black" d="M611.788,-323.458C540.66,-305.476 418.908,-274.695 347.051,-256.529"/>
</g>
<!-- VehiclesController -->
<g id="node24" class="node"><title>VehiclesController</title>
<ellipse fill="none" stroke="black" cx="766.387" cy="-479.779" rx="79.8859" ry="18"/>
<text text-anchor="middle" x="766.387" y="-476.079" font-family="Times,serif" font-size="14.00">VehiclesController</text>
</g>
<!-- ApplicationController&#45;&gt;VehiclesController -->
<g id="edge22" class="edge"><title>ApplicationController&#45;&gt;VehiclesController</title>
<path fill="none" stroke="black" d="M680.556,-355.692C699.46,-383.022 735.197,-434.687 754.041,-461.93"/>
</g>
<!-- ZipsController -->
<g id="node25" class="node"><title>ZipsController</title>
<ellipse fill="none" stroke="black" cx="914.975" cy="-672.21" rx="64.189" ry="18"/>
<text text-anchor="middle" x="914.975" y="-668.51" font-family="Times,serif" font-size="14.00">ZipsController</text>
</g>
<!-- ApplicationController&#45;&gt;ZipsController -->
<g id="edge23" class="edge"><title>ApplicationController&#45;&gt;ZipsController</title>
<path fill="none" stroke="black" d="M699.278,-354.753C739.13,-378.06 807.77,-423.477 847.928,-479.898 887.91,-536.071 905.884,-618.25 912.179,-654.225"/>
</g>
</g>
</svg>
