<?xml version="1.0" encoding="UTF-8" standalone="no"?>
<!DOCTYPE svg PUBLIC "-//W3C//DTD SVG 1.1//EN"
 "http://www.w3.org/Graphics/SVG/1.1/DTD/svg11.dtd">
<!-- Generated by graphviz version 2.29.20121209.0545 (20121209.0545)
 -->
<!-- Title: controllers_diagram Pages: 1 -->
<svg width="876pt" height="814pt"
 viewBox="0.00 0.00 876.00 814.05" xmlns="http://www.w3.org/2000/svg" xmlns:xlink="http://www.w3.org/1999/xlink">
<g id="graph0" class="graph" transform="scale(1 1) rotate(0) translate(4 810.049)">
<title>controllers_diagram</title>
<polygon fill="white" stroke="white" points="-4,5 -4,-810.049 873,-810.049 873,5 -4,5"/>
<!-- _diagram_info -->
<g id="node1" class="node"><title>_diagram_info</title>
<text text-anchor="start" x="668" y="-63.6" font-family="Times,serif" font-size="13.00">Controllers diagram</text>
<text text-anchor="start" x="668" y="-49.6" font-family="Times,serif" font-size="13.00">Date: Dec 09 2012 &#45; 22:07</text>
<text text-anchor="start" x="668" y="-35.6" font-family="Times,serif" font-size="13.00">Migration version: 20121209214940</text>
<text text-anchor="start" x="668" y="-21.6" font-family="Times,serif" font-size="13.00">Generated by RailRoady 1.1.0</text>
<text text-anchor="start" x="668" y="-7.6" font-family="Times,serif" font-size="13.00">http://railroady.prestonlee.com</text>
</g>
<!-- AddendumsController -->
<g id="node2" class="node"><title>AddendumsController</title>
<path fill="none" stroke="black" d="M12,-411.223C12,-411.223 130,-411.223 130,-411.223 136,-411.223 142,-417.223 142,-423.223 142,-423.223 142,-582.223 142,-582.223 142,-588.223 136,-594.223 130,-594.223 130,-594.223 12,-594.223 12,-594.223 6,-594.223 2.84217e-14,-588.223 2.84217e-14,-582.223 2.84217e-14,-582.223 2.84217e-14,-423.223 2.84217e-14,-423.223 2.84217e-14,-417.223 6,-411.223 12,-411.223"/>
<text text-anchor="middle" x="71" y="-579.023" font-family="Times,serif" font-size="14.00">AddendumsController</text>
<polyline fill="none" stroke="black" points="2.84217e-14,-571.223 142,-571.223 "/>
<text text-anchor="start" x="8" y="-556.023" font-family="Times,serif" font-size="14.00">create</text>
<text text-anchor="start" x="8" y="-541.023" font-family="Times,serif" font-size="14.00">destroy</text>
<text text-anchor="start" x="8" y="-526.023" font-family="Times,serif" font-size="14.00">edit</text>
<text text-anchor="start" x="8" y="-511.023" font-family="Times,serif" font-size="14.00">index</text>
<text text-anchor="start" x="8" y="-496.023" font-family="Times,serif" font-size="14.00">new</text>
<text text-anchor="start" x="8" y="-481.023" font-family="Times,serif" font-size="14.00">show</text>
<text text-anchor="start" x="8" y="-466.023" font-family="Times,serif" font-size="14.00">update</text>
<polyline fill="none" stroke="black" points="2.84217e-14,-458.223 142,-458.223 "/>
<polyline fill="none" stroke="black" points="2.84217e-14,-434.223 142,-434.223 "/>
<text text-anchor="start" x="8" y="-419.023" font-family="Times,serif" font-size="14.00">_layout</text>
</g>
<!-- ApplicationController -->
<g id="node3" class="node"><title>ApplicationController</title>
<path fill="none" stroke="black" d="M206.485,-356.661C206.485,-356.661 378.485,-356.661 378.485,-356.661 384.485,-356.661 390.485,-362.661 390.485,-368.661 390.485,-368.661 390.485,-437.661 390.485,-437.661 390.485,-443.661 384.485,-449.661 378.485,-449.661 378.485,-449.661 206.485,-449.661 206.485,-449.661 200.485,-449.661 194.485,-443.661 194.485,-437.661 194.485,-437.661 194.485,-368.661 194.485,-368.661 194.485,-362.661 200.485,-356.661 206.485,-356.661"/>
<text text-anchor="middle" x="292.485" y="-434.461" font-family="Times,serif" font-size="14.00">ApplicationController</text>
<polyline fill="none" stroke="black" points="194.485,-426.661 390.485,-426.661 "/>
<text text-anchor="start" x="202.485" y="-411.461" font-family="Times,serif" font-size="14.00">_one_time_conditions_valid_8?</text>
<polyline fill="none" stroke="black" points="194.485,-403.661 390.485,-403.661 "/>
<polyline fill="none" stroke="black" points="194.485,-379.661 390.485,-379.661 "/>
<text text-anchor="start" x="202.485" y="-364.461" font-family="Times,serif" font-size="14.00">_layout</text>
</g>
<!-- ApplicationController&#45;&gt;AddendumsController -->
<g id="edge1" class="edge"><title>ApplicationController&#45;&gt;AddendumsController</title>
<path fill="none" stroke="black" d="M194.371,-447.265C176.783,-455.171 158.765,-463.27 142.122,-470.752"/>
</g>
<!-- EmployeesController -->
<g id="node4" class="node"><title>EmployeesController</title>
<path fill="none" stroke="black" d="M234.533,-40.3846C234.533,-40.3846 346.533,-40.3846 346.533,-40.3846 352.533,-40.3846 358.533,-46.3846 358.533,-52.3846 358.533,-52.3846 358.533,-211.385 358.533,-211.385 358.533,-217.385 352.533,-223.385 346.533,-223.385 346.533,-223.385 234.533,-223.385 234.533,-223.385 228.533,-223.385 222.533,-217.385 222.533,-211.385 222.533,-211.385 222.533,-52.3846 222.533,-52.3846 222.533,-46.3846 228.533,-40.3846 234.533,-40.3846"/>
<text text-anchor="middle" x="290.533" y="-208.185" font-family="Times,serif" font-size="14.00">EmployeesController</text>
<polyline fill="none" stroke="black" points="222.533,-200.385 358.533,-200.385 "/>
<text text-anchor="start" x="230.533" y="-185.185" font-family="Times,serif" font-size="14.00">create</text>
<text text-anchor="start" x="230.533" y="-170.185" font-family="Times,serif" font-size="14.00">destroy</text>
<text text-anchor="start" x="230.533" y="-155.185" font-family="Times,serif" font-size="14.00">edit</text>
<text text-anchor="start" x="230.533" y="-140.185" font-family="Times,serif" font-size="14.00">index</text>
<text text-anchor="start" x="230.533" y="-125.185" font-family="Times,serif" font-size="14.00">new</text>
<text text-anchor="start" x="230.533" y="-110.185" font-family="Times,serif" font-size="14.00">show</text>
<text text-anchor="start" x="230.533" y="-95.1846" font-family="Times,serif" font-size="14.00">update</text>
<polyline fill="none" stroke="black" points="222.533,-87.3846 358.533,-87.3846 "/>
<polyline fill="none" stroke="black" points="222.533,-63.3846 358.533,-63.3846 "/>
<text text-anchor="start" x="230.533" y="-48.1846" font-family="Times,serif" font-size="14.00">_layout</text>
</g>
<!-- ApplicationController&#45;&gt;EmployeesController -->
<g id="edge2" class="edge"><title>ApplicationController&#45;&gt;EmployeesController</title>
<path fill="none" stroke="black" d="M292.149,-356.527C291.887,-320.094 291.515,-268.322 291.193,-223.661"/>
</g>
<!-- FedexContractsController -->
<g id="node5" class="node"><title>FedexContractsController</title>
<path fill="none" stroke="black" d="M225.52,-582.743C225.52,-582.743 363.52,-582.743 363.52,-582.743 369.52,-582.743 375.52,-588.743 375.52,-594.743 375.52,-594.743 375.52,-753.743 375.52,-753.743 375.52,-759.743 369.52,-765.743 363.52,-765.743 363.52,-765.743 225.52,-765.743 225.52,-765.743 219.52,-765.743 213.52,-759.743 213.52,-753.743 213.52,-753.743 213.52,-594.743 213.52,-594.743 213.52,-588.743 219.52,-582.743 225.52,-582.743"/>
<text text-anchor="middle" x="294.52" y="-750.543" font-family="Times,serif" font-size="14.00">FedexContractsController</text>
<polyline fill="none" stroke="black" points="213.52,-742.743 375.52,-742.743 "/>
<text text-anchor="start" x="221.52" y="-727.543" font-family="Times,serif" font-size="14.00">create</text>
<text text-anchor="start" x="221.52" y="-712.543" font-family="Times,serif" font-size="14.00">destroy</text>
<text text-anchor="start" x="221.52" y="-697.543" font-family="Times,serif" font-size="14.00">edit</text>
<text text-anchor="start" x="221.52" y="-682.543" font-family="Times,serif" font-size="14.00">index</text>
<text text-anchor="start" x="221.52" y="-667.543" font-family="Times,serif" font-size="14.00">new</text>
<text text-anchor="start" x="221.52" y="-652.543" font-family="Times,serif" font-size="14.00">show</text>
<text text-anchor="start" x="221.52" y="-637.543" font-family="Times,serif" font-size="14.00">update</text>
<polyline fill="none" stroke="black" points="213.52,-629.743 375.52,-629.743 "/>
<polyline fill="none" stroke="black" points="213.52,-605.743 375.52,-605.743 "/>
<text text-anchor="start" x="221.52" y="-590.543" font-family="Times,serif" font-size="14.00">_layout</text>
</g>
<!-- ApplicationController&#45;&gt;FedexContractsController -->
<g id="edge3" class="edge"><title>ApplicationController&#45;&gt;FedexContractsController</title>
<path fill="none" stroke="black" d="M292.835,-449.761C293.108,-486.168 293.496,-537.903 293.832,-582.533"/>
</g>
<!-- NotesController -->
<g id="node6" class="node"><title>NotesController</title>
<path fill="none" stroke="black" d="M477.637,-619.922C477.637,-619.922 560.637,-619.922 560.637,-619.922 566.637,-619.922 572.637,-625.922 572.637,-631.922 572.637,-631.922 572.637,-790.922 572.637,-790.922 572.637,-796.922 566.637,-802.922 560.637,-802.922 560.637,-802.922 477.637,-802.922 477.637,-802.922 471.637,-802.922 465.637,-796.922 465.637,-790.922 465.637,-790.922 465.637,-631.922 465.637,-631.922 465.637,-625.922 471.637,-619.922 477.637,-619.922"/>
<text text-anchor="middle" x="519.137" y="-787.722" font-family="Times,serif" font-size="14.00">NotesController</text>
<polyline fill="none" stroke="black" points="465.637,-779.922 572.637,-779.922 "/>
<text text-anchor="start" x="473.637" y="-764.722" font-family="Times,serif" font-size="14.00">create</text>
<text text-anchor="start" x="473.637" y="-749.722" font-family="Times,serif" font-size="14.00">destroy</text>
<text text-anchor="start" x="473.637" y="-734.722" font-family="Times,serif" font-size="14.00">edit</text>
<text text-anchor="start" x="473.637" y="-719.722" font-family="Times,serif" font-size="14.00">index</text>
<text text-anchor="start" x="473.637" y="-704.722" font-family="Times,serif" font-size="14.00">new</text>
<text text-anchor="start" x="473.637" y="-689.722" font-family="Times,serif" font-size="14.00">show</text>
<text text-anchor="start" x="473.637" y="-674.722" font-family="Times,serif" font-size="14.00">update</text>
<polyline fill="none" stroke="black" points="465.637,-666.922 572.637,-666.922 "/>
<polyline fill="none" stroke="black" points="465.637,-642.922 572.637,-642.922 "/>
<text text-anchor="start" x="473.637" y="-627.722" font-family="Times,serif" font-size="14.00">_layout</text>
</g>
<!-- ApplicationController&#45;&gt;NotesController -->
<g id="edge4" class="edge"><title>ApplicationController&#45;&gt;NotesController</title>
<path fill="none" stroke="black" d="M326.908,-449.979C363.75,-500.086 422.679,-580.233 465.588,-638.593"/>
</g>
<!-- PsasController -->
<g id="node7" class="node"><title>PsasController</title>
<path fill="none" stroke="black" d="M30.4997,-622.549C30.4997,-622.549 105.5,-622.549 105.5,-622.549 111.5,-622.549 117.5,-628.549 117.5,-634.549 117.5,-634.549 117.5,-793.549 117.5,-793.549 117.5,-799.549 111.5,-805.549 105.5,-805.549 105.5,-805.549 30.4997,-805.549 30.4997,-805.549 24.4997,-805.549 18.4997,-799.549 18.4997,-793.549 18.4997,-793.549 18.4997,-634.549 18.4997,-634.549 18.4997,-628.549 24.4997,-622.549 30.4997,-622.549"/>
<text text-anchor="middle" x="67.9997" y="-790.349" font-family="Times,serif" font-size="14.00">PsasController</text>
<polyline fill="none" stroke="black" points="18.4997,-782.549 117.5,-782.549 "/>
<text text-anchor="start" x="26.4997" y="-767.349" font-family="Times,serif" font-size="14.00">create</text>
<text text-anchor="start" x="26.4997" y="-752.349" font-family="Times,serif" font-size="14.00">destroy</text>
<text text-anchor="start" x="26.4997" y="-737.349" font-family="Times,serif" font-size="14.00">edit</text>
<text text-anchor="start" x="26.4997" y="-722.349" font-family="Times,serif" font-size="14.00">index</text>
<text text-anchor="start" x="26.4997" y="-707.349" font-family="Times,serif" font-size="14.00">new</text>
<text text-anchor="start" x="26.4997" y="-692.349" font-family="Times,serif" font-size="14.00">show</text>
<text text-anchor="start" x="26.4997" y="-677.349" font-family="Times,serif" font-size="14.00">update</text>
<polyline fill="none" stroke="black" points="18.4997,-669.549 117.5,-669.549 "/>
<polyline fill="none" stroke="black" points="18.4997,-645.549 117.5,-645.549 "/>
<text text-anchor="start" x="26.4997" y="-630.349" font-family="Times,serif" font-size="14.00">_layout</text>
</g>
<!-- ApplicationController&#45;&gt;PsasController -->
<g id="edge5" class="edge"><title>ApplicationController&#45;&gt;PsasController</title>
<path fill="none" stroke="black" d="M258.877,-449.704C221.449,-501.537 160.579,-585.835 117.657,-645.279"/>
</g>
<!-- RegionsController -->
<g id="node8" class="node"><title>RegionsController</title>
<path fill="none" stroke="black" d="M17.8966,-3.09899C17.8966,-3.09899 113.897,-3.09899 113.897,-3.09899 119.897,-3.09899 125.897,-9.09899 125.897,-15.099 125.897,-15.099 125.897,-174.099 125.897,-174.099 125.897,-180.099 119.897,-186.099 113.897,-186.099 113.897,-186.099 17.8966,-186.099 17.8966,-186.099 11.8966,-186.099 5.8966,-180.099 5.8966,-174.099 5.8966,-174.099 5.8966,-15.099 5.8966,-15.099 5.8966,-9.09899 11.8966,-3.09899 17.8966,-3.09899"/>
<text text-anchor="middle" x="65.8966" y="-170.899" font-family="Times,serif" font-size="14.00">RegionsController</text>
<polyline fill="none" stroke="black" points="5.8966,-163.099 125.897,-163.099 "/>
<text text-anchor="start" x="13.8966" y="-147.899" font-family="Times,serif" font-size="14.00">create</text>
<text text-anchor="start" x="13.8966" y="-132.899" font-family="Times,serif" font-size="14.00">destroy</text>
<text text-anchor="start" x="13.8966" y="-117.899" font-family="Times,serif" font-size="14.00">edit</text>
<text text-anchor="start" x="13.8966" y="-102.899" font-family="Times,serif" font-size="14.00">index</text>
<text text-anchor="start" x="13.8966" y="-87.899" font-family="Times,serif" font-size="14.00">new</text>
<text text-anchor="start" x="13.8966" y="-72.899" font-family="Times,serif" font-size="14.00">show</text>
<text text-anchor="start" x="13.8966" y="-57.899" font-family="Times,serif" font-size="14.00">update</text>
<polyline fill="none" stroke="black" points="5.8966,-50.099 125.897,-50.099 "/>
<polyline fill="none" stroke="black" points="5.8966,-26.099 125.897,-26.099 "/>
<text text-anchor="start" x="13.8966" y="-10.899" font-family="Times,serif" font-size="14.00">_layout</text>
</g>
<!-- ApplicationController&#45;&gt;RegionsController -->
<g id="edge6" class="edge"><title>ApplicationController&#45;&gt;RegionsController</title>
<path fill="none" stroke="black" d="M258.317,-356.632C223.329,-308.986 168.232,-233.956 125.945,-176.371"/>
</g>
<!-- RolesController -->
<g id="node9" class="node"><title>RolesController</title>
<path fill="none" stroke="black" d="M474.341,-404.871C474.341,-404.871 556.341,-404.871 556.341,-404.871 562.341,-404.871 568.341,-410.871 568.341,-416.871 568.341,-416.871 568.341,-575.871 568.341,-575.871 568.341,-581.871 562.341,-587.871 556.341,-587.871 556.341,-587.871 474.341,-587.871 474.341,-587.871 468.341,-587.871 462.341,-581.871 462.341,-575.871 462.341,-575.871 462.341,-416.871 462.341,-416.871 462.341,-410.871 468.341,-404.871 474.341,-404.871"/>
<text text-anchor="middle" x="515.341" y="-572.671" font-family="Times,serif" font-size="14.00">RolesController</text>
<polyline fill="none" stroke="black" points="462.341,-564.871 568.341,-564.871 "/>
<text text-anchor="start" x="470.341" y="-549.671" font-family="Times,serif" font-size="14.00">create</text>
<text text-anchor="start" x="470.341" y="-534.671" font-family="Times,serif" font-size="14.00">destroy</text>
<text text-anchor="start" x="470.341" y="-519.671" font-family="Times,serif" font-size="14.00">edit</text>
<text text-anchor="start" x="470.341" y="-504.671" font-family="Times,serif" font-size="14.00">index</text>
<text text-anchor="start" x="470.341" y="-489.671" font-family="Times,serif" font-size="14.00">new</text>
<text text-anchor="start" x="470.341" y="-474.671" font-family="Times,serif" font-size="14.00">show</text>
<text text-anchor="start" x="470.341" y="-459.671" font-family="Times,serif" font-size="14.00">update</text>
<polyline fill="none" stroke="black" points="462.341,-451.871 568.341,-451.871 "/>
<polyline fill="none" stroke="black" points="462.341,-427.871 568.341,-427.871 "/>
<text text-anchor="start" x="470.341" y="-412.671" font-family="Times,serif" font-size="14.00">_layout</text>
</g>
<!-- ApplicationController&#45;&gt;RolesController -->
<g id="edge7" class="edge"><title>ApplicationController&#45;&gt;RolesController</title>
<path fill="none" stroke="black" d="M390.557,-444.18C415.197,-454.485 440.721,-465.161 462.215,-474.151"/>
</g>
<!-- TerminalsController -->
<g id="node10" class="node"><title>TerminalsController</title>
<path fill="none" stroke="black" d="M16.2319,-218.16C16.2319,-218.16 123.232,-218.16 123.232,-218.16 129.232,-218.16 135.232,-224.16 135.232,-230.16 135.232,-230.16 135.232,-389.16 135.232,-389.16 135.232,-395.16 129.232,-401.16 123.232,-401.16 123.232,-401.16 16.2319,-401.16 16.2319,-401.16 10.2319,-401.16 4.23194,-395.16 4.23194,-389.16 4.23194,-389.16 4.23194,-230.16 4.23194,-230.16 4.23194,-224.16 10.2319,-218.16 16.2319,-218.16"/>
<text text-anchor="middle" x="69.7319" y="-385.96" font-family="Times,serif" font-size="14.00">TerminalsController</text>
<polyline fill="none" stroke="black" points="4.23194,-378.16 135.232,-378.16 "/>
<text text-anchor="start" x="12.2319" y="-362.96" font-family="Times,serif" font-size="14.00">create</text>
<text text-anchor="start" x="12.2319" y="-347.96" font-family="Times,serif" font-size="14.00">destroy</text>
<text text-anchor="start" x="12.2319" y="-332.96" font-family="Times,serif" font-size="14.00">edit</text>
<text text-anchor="start" x="12.2319" y="-317.96" font-family="Times,serif" font-size="14.00">index</text>
<text text-anchor="start" x="12.2319" y="-302.96" font-family="Times,serif" font-size="14.00">new</text>
<text text-anchor="start" x="12.2319" y="-287.96" font-family="Times,serif" font-size="14.00">show</text>
<text text-anchor="start" x="12.2319" y="-272.96" font-family="Times,serif" font-size="14.00">update</text>
<polyline fill="none" stroke="black" points="4.23194,-265.16 135.232,-265.16 "/>
<polyline fill="none" stroke="black" points="4.23194,-241.16 135.232,-241.16 "/>
<text text-anchor="start" x="12.2319" y="-225.96" font-family="Times,serif" font-size="14.00">_layout</text>
</g>
<!-- ApplicationController&#45;&gt;TerminalsController -->
<g id="edge8" class="edge"><title>ApplicationController&#45;&gt;TerminalsController</title>
<path fill="none" stroke="black" d="M194.458,-362.014C174.498,-353.636 153.959,-345.015 135.452,-337.247"/>
</g>
<!-- UserRolesController -->
<g id="node11" class="node"><title>UserRolesController</title>
<path fill="none" stroke="black" d="M459.886,-211.846C459.886,-211.846 567.886,-211.846 567.886,-211.846 573.886,-211.846 579.886,-217.846 579.886,-223.846 579.886,-223.846 579.886,-382.846 579.886,-382.846 579.886,-388.846 573.886,-394.846 567.886,-394.846 567.886,-394.846 459.886,-394.846 459.886,-394.846 453.886,-394.846 447.886,-388.846 447.886,-382.846 447.886,-382.846 447.886,-223.846 447.886,-223.846 447.886,-217.846 453.886,-211.846 459.886,-211.846"/>
<text text-anchor="middle" x="513.886" y="-379.646" font-family="Times,serif" font-size="14.00">UserRolesController</text>
<polyline fill="none" stroke="black" points="447.886,-371.846 579.886,-371.846 "/>
<text text-anchor="start" x="455.886" y="-356.646" font-family="Times,serif" font-size="14.00">create</text>
<text text-anchor="start" x="455.886" y="-341.646" font-family="Times,serif" font-size="14.00">destroy</text>
<text text-anchor="start" x="455.886" y="-326.646" font-family="Times,serif" font-size="14.00">edit</text>
<text text-anchor="start" x="455.886" y="-311.646" font-family="Times,serif" font-size="14.00">index</text>
<text text-anchor="start" x="455.886" y="-296.646" font-family="Times,serif" font-size="14.00">new</text>
<text text-anchor="start" x="455.886" y="-281.646" font-family="Times,serif" font-size="14.00">show</text>
<text text-anchor="start" x="455.886" y="-266.646" font-family="Times,serif" font-size="14.00">update</text>
<polyline fill="none" stroke="black" points="447.886,-258.846 579.886,-258.846 "/>
<polyline fill="none" stroke="black" points="447.886,-234.846 579.886,-234.846 "/>
<text text-anchor="start" x="455.886" y="-219.646" font-family="Times,serif" font-size="14.00">_layout</text>
</g>
<!-- ApplicationController&#45;&gt;UserRolesController -->
<g id="edge9" class="edge"><title>ApplicationController&#45;&gt;UserRolesController</title>
<path fill="none" stroke="black" d="M390.561,-358.945C409.878,-350.237 429.713,-341.294 447.675,-333.197"/>
</g>
<!-- UsersController -->
<g id="node12" class="node"><title>UsersController</title>
<path fill="none" stroke="black" d="M476.024,-0.5C476.024,-0.5 558.024,-0.5 558.024,-0.5 564.024,-0.5 570.024,-6.5 570.024,-12.5 570.024,-12.5 570.024,-171.5 570.024,-171.5 570.024,-177.5 564.024,-183.5 558.024,-183.5 558.024,-183.5 476.024,-183.5 476.024,-183.5 470.024,-183.5 464.024,-177.5 464.024,-171.5 464.024,-171.5 464.024,-12.5 464.024,-12.5 464.024,-6.5 470.024,-0.5 476.024,-0.5"/>
<text text-anchor="middle" x="517.024" y="-168.3" font-family="Times,serif" font-size="14.00">UsersController</text>
<polyline fill="none" stroke="black" points="464.024,-160.5 570.024,-160.5 "/>
<text text-anchor="start" x="472.024" y="-145.3" font-family="Times,serif" font-size="14.00">create</text>
<text text-anchor="start" x="472.024" y="-130.3" font-family="Times,serif" font-size="14.00">destroy</text>
<text text-anchor="start" x="472.024" y="-115.3" font-family="Times,serif" font-size="14.00">edit</text>
<text text-anchor="start" x="472.024" y="-100.3" font-family="Times,serif" font-size="14.00">index</text>
<text text-anchor="start" x="472.024" y="-85.3" font-family="Times,serif" font-size="14.00">new</text>
<text text-anchor="start" x="472.024" y="-70.3" font-family="Times,serif" font-size="14.00">show</text>
<text text-anchor="start" x="472.024" y="-55.3" font-family="Times,serif" font-size="14.00">update</text>
<polyline fill="none" stroke="black" points="464.024,-47.5 570.024,-47.5 "/>
<polyline fill="none" stroke="black" points="464.024,-23.5 570.024,-23.5 "/>
<text text-anchor="start" x="472.024" y="-8.3" font-family="Times,serif" font-size="14.00">_layout</text>
</g>
<!-- ApplicationController&#45;&gt;UsersController -->
<g id="edge10" class="edge"><title>ApplicationController&#45;&gt;UsersController</title>
<path fill="none" stroke="black" d="M326.1,-356.577C362.558,-306.054 421.254,-224.715 463.951,-165.547"/>
</g>
</g>
</svg>
