<?xml version="1.0" encoding="UTF-8" standalone="no"?>
<!DOCTYPE svg PUBLIC "-//W3C//DTD SVG 1.1//EN"
 "http://www.w3.org/Graphics/SVG/1.1/DTD/svg11.dtd">
<!-- Generated by graphviz version 2.29.20121209.0545 (20121209.0545)
 -->
<!-- Title: controllers_diagram Pages: 1 -->
<svg width="1191pt" height="801pt"
 viewBox="0.00 0.00 1191.00 801.00" xmlns="http://www.w3.org/2000/svg" xmlns:xlink="http://www.w3.org/1999/xlink">
<g id="graph0" class="graph" transform="scale(1 1) rotate(0) translate(4 797)">
<title>controllers_diagram</title>
<polygon fill="white" stroke="white" points="-4,5 -4,-797 1188,-797 1188,5 -4,5"/>
<!-- _diagram_info -->
<g id="node1" class="node"><title>_diagram_info</title>
<text text-anchor="start" x="983" y="-778.6" font-family="Times,serif" font-size="13.00">Controllers diagram</text>
<text text-anchor="start" x="983" y="-764.6" font-family="Times,serif" font-size="13.00">Date: Dec 12 2012 &#45; 04:00</text>
<text text-anchor="start" x="983" y="-750.6" font-family="Times,serif" font-size="13.00">Migration version: 20121212081655</text>
<text text-anchor="start" x="983" y="-736.6" font-family="Times,serif" font-size="13.00">Generated by RailRoady 1.1.0</text>
<text text-anchor="start" x="983" y="-722.6" font-family="Times,serif" font-size="13.00">http://railroady.prestonlee.com</text>
</g>
<!-- AddendumsController -->
<g id="node2" class="node"><title>AddendumsController</title>
<ellipse fill="none" stroke="black" cx="102.303" cy="-56.7772" rx="92.0841" ry="18"/>
<text text-anchor="middle" x="102.303" y="-53.0772" font-family="Times,serif" font-size="14.00">AddendumsController</text>
</g>
<!-- ApplicationController -->
<g id="node3" class="node"><title>ApplicationController</title>
<ellipse fill="none" stroke="black" cx="639.929" cy="-306.179" rx="90.9839" ry="18"/>
<text text-anchor="middle" x="639.929" y="-302.479" font-family="Times,serif" font-size="14.00">ApplicationController</text>
</g>
<!-- ApplicationController&#45;&gt;AddendumsController -->
<g id="edge1" class="edge"><title>ApplicationController&#45;&gt;AddendumsController</title>
<path fill="none" stroke="black" d="M582.882,-292.028C536.753,-279.719 470.635,-260.093 415.429,-236.006 303.478,-187.161 180.397,-108.737 128.097,-74.1363"/>
</g>
<!-- EmployeePsasController -->
<g id="node4" class="node"><title>EmployeePsasController</title>
<ellipse fill="none" stroke="black" cx="547.438" cy="-18" rx="101.282" ry="18"/>
<text text-anchor="middle" x="547.438" y="-14.3" font-family="Times,serif" font-size="14.00">EmployeePsasController</text>
</g>
<!-- ApplicationController&#45;&gt;EmployeePsasController -->
<g id="edge2" class="edge"><title>ApplicationController&#45;&gt;EmployeePsasController</title>
<path fill="none" stroke="black" d="M631.308,-288C618.585,-260.61 594.665,-206.9 579.601,-159.346 565.844,-115.922 555.463,-63.2442 550.56,-36.1056"/>
</g>
<!-- EmployeesController -->
<g id="node5" class="node"><title>EmployeesController</title>
<ellipse fill="none" stroke="black" cx="544.374" cy="-590.588" rx="88.2844" ry="18"/>
<text text-anchor="middle" x="544.374" y="-586.888" font-family="Times,serif" font-size="14.00">EmployeesController</text>
</g>
<!-- ApplicationController&#45;&gt;EmployeesController -->
<g id="edge3" class="edge"><title>ApplicationController&#45;&gt;EmployeesController</title>
<path fill="none" stroke="black" d="M644.091,-324.196C648.891,-348.189 655.01,-391.751 645.739,-427.456 630.403,-486.516 585.195,-544.5 560.659,-572.766"/>
</g>
<!-- FedexContractsController -->
<g id="node6" class="node"><title>FedexContractsController</title>
<ellipse fill="none" stroke="black" cx="798.358" cy="-401.977" rx="105.082" ry="18"/>
<text text-anchor="middle" x="798.358" y="-398.277" font-family="Times,serif" font-size="14.00">FedexContractsController</text>
</g>
<!-- ApplicationController&#45;&gt;FedexContractsController -->
<g id="edge4" class="edge"><title>ApplicationController&#45;&gt;FedexContractsController</title>
<path fill="none" stroke="black" d="M668.253,-323.305C696.823,-340.581 740.71,-367.118 769.477,-384.513"/>
</g>
<!-- NotesController -->
<g id="node7" class="node"><title>NotesController</title>
<ellipse fill="none" stroke="black" cx="357.685" cy="-391.789" rx="69.5877" ry="18"/>
<text text-anchor="middle" x="357.685" y="-388.089" font-family="Times,serif" font-size="14.00">NotesController</text>
</g>
<!-- ApplicationController&#45;&gt;NotesController -->
<g id="edge5" class="edge"><title>ApplicationController&#45;&gt;NotesController</title>
<path fill="none" stroke="black" d="M590.119,-321.287C537.262,-337.32 454.454,-362.437 403.265,-377.964"/>
</g>
<!-- PsaStatesController -->
<g id="node8" class="node"><title>PsaStatesController</title>
<ellipse fill="none" stroke="black" cx="342.658" cy="-27.2154" rx="82.5854" ry="18"/>
<text text-anchor="middle" x="342.658" y="-23.5154" font-family="Times,serif" font-size="14.00">PsaStatesController</text>
</g>
<!-- ApplicationController&#45;&gt;PsaStatesController -->
<g id="edge6" class="edge"><title>ApplicationController&#45;&gt;PsaStatesController</title>
<path fill="none" stroke="black" d="M620.881,-288.304C567.188,-237.917 415.046,-95.1453 361.547,-44.9413"/>
</g>
<!-- PsasController -->
<g id="node9" class="node"><title>PsasController</title>
<ellipse fill="none" stroke="black" cx="1048.58" cy="-216.115" rx="64.189" ry="18"/>
<text text-anchor="middle" x="1048.58" y="-212.415" font-family="Times,serif" font-size="14.00">PsasController</text>
</g>
<!-- ApplicationController&#45;&gt;PsasController -->
<g id="edge7" class="edge"><title>ApplicationController&#45;&gt;PsasController</title>
<path fill="none" stroke="black" d="M701.108,-292.695C781.931,-274.882 922.807,-243.834 997.956,-227.272"/>
</g>
<!-- PsazipsController -->
<g id="node10" class="node"><title>PsazipsController</title>
<ellipse fill="none" stroke="black" cx="470.24" cy="-222.241" rx="75.2868" ry="18"/>
<text text-anchor="middle" x="470.24" y="-218.541" font-family="Times,serif" font-size="14.00">PsazipsController</text>
</g>
<!-- ApplicationController&#45;&gt;PsazipsController -->
<g id="edge8" class="edge"><title>ApplicationController&#45;&gt;PsazipsController</title>
<path fill="none" stroke="black" d="M605.998,-289.394C576.112,-274.611 532.852,-253.212 503.246,-238.568"/>
</g>
<!-- RegionsController -->
<g id="node11" class="node"><title>RegionsController</title>
<ellipse fill="none" stroke="black" cx="773.565" cy="-19.8938" rx="77.9862" ry="18"/>
<text text-anchor="middle" x="773.565" y="-16.1938" font-family="Times,serif" font-size="14.00">RegionsController</text>
</g>
<!-- ApplicationController&#45;&gt;RegionsController -->
<g id="edge9" class="edge"><title>ApplicationController&#45;&gt;RegionsController</title>
<path fill="none" stroke="black" d="M650.966,-288.109C667.352,-260.87 698.545,-207.393 720.583,-159.69 740.286,-117.043 758.613,-64.8184 767.66,-37.8784"/>
</g>
<!-- RolesController -->
<g id="node12" class="node"><title>RolesController</title>
<ellipse fill="none" stroke="black" cx="650.092" cy="-159.518" rx="68.7879" ry="18"/>
<text text-anchor="middle" x="650.092" y="-155.818" font-family="Times,serif" font-size="14.00">RolesController</text>
</g>
<!-- ApplicationController&#45;&gt;RolesController -->
<g id="edge10" class="edge"><title>ApplicationController&#45;&gt;RolesController</title>
<path fill="none" stroke="black" d="M641.196,-287.9C643.154,-259.643 646.893,-205.683 648.841,-177.566"/>
</g>
<!-- ServiceTypesController -->
<g id="node13" class="node"><title>ServiceTypesController</title>
<ellipse fill="none" stroke="black" cx="97.4913" cy="-317.006" rx="97.4827" ry="18"/>
<text text-anchor="middle" x="97.4913" y="-313.306" font-family="Times,serif" font-size="14.00">ServiceTypesController</text>
</g>
<!-- ApplicationController&#45;&gt;ServiceTypesController -->
<g id="edge11" class="edge"><title>ApplicationController&#45;&gt;ServiceTypesController</title>
<path fill="none" stroke="black" d="M549.137,-307.991C450.967,-309.95 295.078,-313.062 194.536,-315.069"/>
</g>
<!-- StatesController -->
<g id="node14" class="node"><title>StatesController</title>
<ellipse fill="none" stroke="black" cx="1029.85" cy="-391.912" rx="69.5877" ry="18"/>
<text text-anchor="middle" x="1029.85" y="-388.212" font-family="Times,serif" font-size="14.00">StatesController</text>
</g>
<!-- ApplicationController&#45;&gt;StatesController -->
<g id="edge12" class="edge"><title>ApplicationController&#45;&gt;StatesController</title>
<path fill="none" stroke="black" d="M700.854,-319.574C776.57,-336.223 904.563,-364.365 976.552,-380.194"/>
</g>
<!-- TerminalsController -->
<g id="node15" class="node"><title>TerminalsController</title>
<ellipse fill="none" stroke="black" cx="1015.56" cy="-579.444" rx="85.2851" ry="18"/>
<text text-anchor="middle" x="1015.56" y="-575.744" font-family="Times,serif" font-size="14.00">TerminalsController</text>
</g>
<!-- ApplicationController&#45;&gt;TerminalsController -->
<g id="edge13" class="edge"><title>ApplicationController&#45;&gt;TerminalsController</title>
<path fill="none" stroke="black" d="M646.098,-324.343C653.923,-345.174 669.143,-379.338 691.471,-401.825 773.636,-484.575 902.488,-539.355 970.321,-564.17"/>
</g>
<!-- UserRolesController -->
<g id="node16" class="node"><title>UserRolesController</title>
<ellipse fill="none" stroke="black" cx="758.371" cy="-581.168" rx="85.5853" ry="18"/>
<text text-anchor="middle" x="758.371" y="-577.468" font-family="Times,serif" font-size="14.00">UserRolesController</text>
</g>
<!-- ApplicationController&#45;&gt;UserRolesController -->
<g id="edge14" class="edge"><title>ApplicationController&#45;&gt;UserRolesController</title>
<path fill="none" stroke="black" d="M647.701,-324.221C669.162,-374.048 729.076,-513.153 750.571,-563.059"/>
</g>
<!-- UsersController -->
<g id="node17" class="node"><title>UsersController</title>
<ellipse fill="none" stroke="black" cx="831.186" cy="-219.288" rx="68.7879" ry="18"/>
<text text-anchor="middle" x="831.186" y="-215.588" font-family="Times,serif" font-size="14.00">UsersController</text>
</g>
<!-- ApplicationController&#45;&gt;UsersController -->
<g id="edge15" class="edge"><title>ApplicationController&#45;&gt;UsersController</title>
<path fill="none" stroke="black" d="M676.353,-289.631C711.036,-273.874 762.847,-250.335 796.828,-234.897"/>
</g>
<!-- VehicleFuelsController -->
<g id="node18" class="node"><title>VehicleFuelsController</title>
<ellipse fill="none" stroke="black" cx="1018.46" cy="-25.937" rx="96.3833" ry="18"/>
<text text-anchor="middle" x="1018.46" y="-22.237" font-family="Times,serif" font-size="14.00">VehicleFuelsController</text>
</g>
<!-- ApplicationController&#45;&gt;VehicleFuelsController -->
<g id="edge16" class="edge"><title>ApplicationController&#45;&gt;VehicleFuelsController</title>
<path fill="none" stroke="black" d="M663.608,-288.648C731.588,-238.321 926.825,-93.78 994.793,-43.4607"/>
</g>
<!-- VehicleOdometersController -->
<g id="node19" class="node"><title>VehicleOdometersController</title>
<ellipse fill="none" stroke="black" cx="339.548" cy="-578.64" rx="116.18" ry="18"/>
<text text-anchor="middle" x="339.548" y="-574.94" font-family="Times,serif" font-size="14.00">VehicleOdometersController</text>
</g>
<!-- ApplicationController&#45;&gt;VehicleOdometersController -->
<g id="edge17" class="edge"><title>ApplicationController&#45;&gt;VehicleOdometersController</title>
<path fill="none" stroke="black" d="M614.999,-323.493C583.157,-346.022 526.881,-387.243 482.656,-427.202 433.002,-472.067 380.378,-531.174 355.007,-560.508"/>
</g>
<!-- VehicleTypesController -->
<g id="node20" class="node"><title>VehicleTypesController</title>
<ellipse fill="none" stroke="black" cx="109.051" cy="-552.83" rx="98.5829" ry="18"/>
<text text-anchor="middle" x="109.051" y="-549.13" font-family="Times,serif" font-size="14.00">VehicleTypesController</text>
</g>
<!-- ApplicationController&#45;&gt;VehicleTypesController -->
<g id="edge18" class="edge"><title>ApplicationController&#45;&gt;VehicleTypesController</title>
<path fill="none" stroke="black" d="M604.273,-322.745C507.794,-367.57 242.362,-490.892 145.252,-536.011"/>
</g>
<!-- VehiclesController -->
<g id="node21" class="node"><title>VehiclesController</title>
<ellipse fill="none" stroke="black" cx="564.198" cy="-427.329" rx="79.8859" ry="18"/>
<text text-anchor="middle" x="564.198" y="-423.629" font-family="Times,serif" font-size="14.00">VehiclesController</text>
</g>
<!-- ApplicationController&#45;&gt;VehiclesController -->
<g id="edge19" class="edge"><title>ApplicationController&#45;&gt;VehiclesController</title>
<path fill="none" stroke="black" d="M628.755,-324.055C614.437,-346.96 589.758,-386.439 575.418,-409.379"/>
</g>
<!-- ZipsController -->
<g id="node22" class="node"><title>ZipsController</title>
<ellipse fill="none" stroke="black" cx="284.094" cy="-220.544" rx="64.189" ry="18"/>
<text text-anchor="middle" x="284.094" y="-216.844" font-family="Times,serif" font-size="14.00">ZipsController</text>
</g>
<!-- ApplicationController&#45;&gt;ZipsController -->
<g id="edge20" class="edge"><title>ApplicationController&#45;&gt;ZipsController</title>
<path fill="none" stroke="black" d="M581.966,-292.229C512.744,-275.57 398.176,-247.999 333.149,-232.35"/>
</g>
</g>
</svg>
