<?xml version="1.0" encoding="UTF-8" standalone="no"?>
<!DOCTYPE svg PUBLIC "-//W3C//DTD SVG 1.1//EN"
 "http://www.w3.org/Graphics/SVG/1.1/DTD/svg11.dtd">
<!-- Generated by graphviz version 2.29.20121209.0545 (20121209.0545)
 -->
<!-- Title: controllers_diagram Pages: 1 -->
<svg width="1188pt" height="1149pt"
 viewBox="0.00 0.00 1188.00 1148.54" xmlns="http://www.w3.org/2000/svg" xmlns:xlink="http://www.w3.org/1999/xlink">
<g id="graph0" class="graph" transform="scale(1 1) rotate(0) translate(4 1144.54)">
<title>controllers_diagram</title>
<polygon fill="white" stroke="white" points="-4,5 -4,-1144.54 1185,-1144.54 1185,5 -4,5"/>
<!-- _diagram_info -->
<g id="node1" class="node"><title>_diagram_info</title>
<text text-anchor="start" x="980" y="-144.6" font-family="Times,serif" font-size="13.00">Controllers diagram</text>
<text text-anchor="start" x="980" y="-130.6" font-family="Times,serif" font-size="13.00">Date: Dec 12 2012 &#45; 04:00</text>
<text text-anchor="start" x="980" y="-116.6" font-family="Times,serif" font-size="13.00">Migration version: 20121212081655</text>
<text text-anchor="start" x="980" y="-102.6" font-family="Times,serif" font-size="13.00">Generated by RailRoady 1.1.0</text>
<text text-anchor="start" x="980" y="-88.6" font-family="Times,serif" font-size="13.00">http://railroady.prestonlee.com</text>
</g>
<!-- AddendumsController -->
<g id="node2" class="node"><title>AddendumsController</title>
<path fill="none" stroke="black" d="M27.0273,-266.697C27.0273,-266.697 145.027,-266.697 145.027,-266.697 151.027,-266.697 157.027,-272.697 157.027,-278.697 157.027,-278.697 157.027,-437.697 157.027,-437.697 157.027,-443.697 151.027,-449.697 145.027,-449.697 145.027,-449.697 27.0273,-449.697 27.0273,-449.697 21.0273,-449.697 15.0273,-443.697 15.0273,-437.697 15.0273,-437.697 15.0273,-278.697 15.0273,-278.697 15.0273,-272.697 21.0273,-266.697 27.0273,-266.697"/>
<text text-anchor="middle" x="86.0273" y="-434.497" font-family="Times,serif" font-size="14.00">AddendumsController</text>
<polyline fill="none" stroke="black" points="15.0273,-426.697 157.027,-426.697 "/>
<text text-anchor="start" x="23.0273" y="-411.497" font-family="Times,serif" font-size="14.00">create</text>
<text text-anchor="start" x="23.0273" y="-396.497" font-family="Times,serif" font-size="14.00">destroy</text>
<text text-anchor="start" x="23.0273" y="-381.497" font-family="Times,serif" font-size="14.00">edit</text>
<text text-anchor="start" x="23.0273" y="-366.497" font-family="Times,serif" font-size="14.00">index</text>
<text text-anchor="start" x="23.0273" y="-351.497" font-family="Times,serif" font-size="14.00">new</text>
<text text-anchor="start" x="23.0273" y="-336.497" font-family="Times,serif" font-size="14.00">show</text>
<text text-anchor="start" x="23.0273" y="-321.497" font-family="Times,serif" font-size="14.00">update</text>
<polyline fill="none" stroke="black" points="15.0273,-313.697 157.027,-313.697 "/>
<polyline fill="none" stroke="black" points="15.0273,-289.697 157.027,-289.697 "/>
<text text-anchor="start" x="23.0273" y="-274.497" font-family="Times,serif" font-size="14.00">_layout</text>
</g>
<!-- ApplicationController -->
<g id="node3" class="node"><title>ApplicationController</title>
<path fill="none" stroke="black" d="M388.916,-510.465C388.916,-510.465 560.916,-510.465 560.916,-510.465 566.916,-510.465 572.916,-516.465 572.916,-522.465 572.916,-522.465 572.916,-591.465 572.916,-591.465 572.916,-597.465 566.916,-603.465 560.916,-603.465 560.916,-603.465 388.916,-603.465 388.916,-603.465 382.916,-603.465 376.916,-597.465 376.916,-591.465 376.916,-591.465 376.916,-522.465 376.916,-522.465 376.916,-516.465 382.916,-510.465 388.916,-510.465"/>
<text text-anchor="middle" x="474.916" y="-588.265" font-family="Times,serif" font-size="14.00">ApplicationController</text>
<polyline fill="none" stroke="black" points="376.916,-580.465 572.916,-580.465 "/>
<text text-anchor="start" x="384.916" y="-565.265" font-family="Times,serif" font-size="14.00">_one_time_conditions_valid_8?</text>
<polyline fill="none" stroke="black" points="376.916,-557.465 572.916,-557.465 "/>
<polyline fill="none" stroke="black" points="376.916,-533.465 572.916,-533.465 "/>
<text text-anchor="start" x="384.916" y="-518.265" font-family="Times,serif" font-size="14.00">_layout</text>
</g>
<!-- ApplicationController&#45;&gt;AddendumsController -->
<g id="edge1" class="edge"><title>ApplicationController&#45;&gt;AddendumsController</title>
<path fill="none" stroke="black" d="M428.874,-510.462C404.604,-488.007 373.35,-462.13 341.682,-444.275 309.709,-426.247 221.041,-398.024 157.095,-378.85"/>
</g>
<!-- EmployeePsasController -->
<g id="node4" class="node"><title>EmployeePsasController</title>
<path fill="none" stroke="black" d="M396.358,-0.5C396.358,-0.5 528.358,-0.5 528.358,-0.5 534.358,-0.5 540.358,-6.5 540.358,-12.5 540.358,-12.5 540.358,-171.5 540.358,-171.5 540.358,-177.5 534.358,-183.5 528.358,-183.5 528.358,-183.5 396.358,-183.5 396.358,-183.5 390.358,-183.5 384.358,-177.5 384.358,-171.5 384.358,-171.5 384.358,-12.5 384.358,-12.5 384.358,-6.5 390.358,-0.5 396.358,-0.5"/>
<text text-anchor="middle" x="462.358" y="-168.3" font-family="Times,serif" font-size="14.00">EmployeePsasController</text>
<polyline fill="none" stroke="black" points="384.358,-160.5 540.358,-160.5 "/>
<text text-anchor="start" x="392.358" y="-145.3" font-family="Times,serif" font-size="14.00">create</text>
<text text-anchor="start" x="392.358" y="-130.3" font-family="Times,serif" font-size="14.00">destroy</text>
<text text-anchor="start" x="392.358" y="-115.3" font-family="Times,serif" font-size="14.00">edit</text>
<text text-anchor="start" x="392.358" y="-100.3" font-family="Times,serif" font-size="14.00">index</text>
<text text-anchor="start" x="392.358" y="-85.3" font-family="Times,serif" font-size="14.00">new</text>
<text text-anchor="start" x="392.358" y="-70.3" font-family="Times,serif" font-size="14.00">show</text>
<text text-anchor="start" x="392.358" y="-55.3" font-family="Times,serif" font-size="14.00">update</text>
<polyline fill="none" stroke="black" points="384.358,-47.5 540.358,-47.5 "/>
<polyline fill="none" stroke="black" points="384.358,-23.5 540.358,-23.5 "/>
<text text-anchor="start" x="392.358" y="-8.3" font-family="Times,serif" font-size="14.00">_layout</text>
</g>
<!-- ApplicationController&#45;&gt;EmployeePsasController -->
<g id="edge2" class="edge"><title>ApplicationController&#45;&gt;EmployeePsasController</title>
<path fill="none" stroke="black" d="M473.655,-510.253C471.599,-434.142 467.49,-282.014 464.835,-183.722"/>
</g>
<!-- EmployeesController -->
<g id="node5" class="node"><title>EmployeesController</title>
<path fill="none" stroke="black" d="M312.992,-952.099C312.992,-952.099 424.992,-952.099 424.992,-952.099 430.992,-952.099 436.992,-958.099 436.992,-964.099 436.992,-964.099 436.992,-1123.1 436.992,-1123.1 436.992,-1129.1 430.992,-1135.1 424.992,-1135.1 424.992,-1135.1 312.992,-1135.1 312.992,-1135.1 306.992,-1135.1 300.992,-1129.1 300.992,-1123.1 300.992,-1123.1 300.992,-964.099 300.992,-964.099 300.992,-958.099 306.992,-952.099 312.992,-952.099"/>
<text text-anchor="middle" x="368.992" y="-1119.9" font-family="Times,serif" font-size="14.00">EmployeesController</text>
<polyline fill="none" stroke="black" points="300.992,-1112.1 436.992,-1112.1 "/>
<text text-anchor="start" x="308.992" y="-1096.9" font-family="Times,serif" font-size="14.00">create</text>
<text text-anchor="start" x="308.992" y="-1081.9" font-family="Times,serif" font-size="14.00">destroy</text>
<text text-anchor="start" x="308.992" y="-1066.9" font-family="Times,serif" font-size="14.00">edit</text>
<text text-anchor="start" x="308.992" y="-1051.9" font-family="Times,serif" font-size="14.00">index</text>
<text text-anchor="start" x="308.992" y="-1036.9" font-family="Times,serif" font-size="14.00">new</text>
<text text-anchor="start" x="308.992" y="-1021.9" font-family="Times,serif" font-size="14.00">show</text>
<text text-anchor="start" x="308.992" y="-1006.9" font-family="Times,serif" font-size="14.00">update</text>
<polyline fill="none" stroke="black" points="300.992,-999.099 436.992,-999.099 "/>
<polyline fill="none" stroke="black" points="300.992,-975.099 436.992,-975.099 "/>
<text text-anchor="start" x="308.992" y="-959.899" font-family="Times,serif" font-size="14.00">_layout</text>
</g>
<!-- ApplicationController&#45;&gt;EmployeesController -->
<g id="edge3" class="edge"><title>ApplicationController&#45;&gt;EmployeesController</title>
<path fill="none" stroke="black" d="M458.53,-603.719C448.345,-634.034 435.553,-674.537 426.716,-711.039 407.205,-791.629 391.627,-884.732 381.596,-951.893"/>
</g>
<!-- FedexContractsController -->
<g id="node6" class="node"><title>FedexContractsController</title>
<path fill="none" stroke="black" d="M584.677,-624.242C584.677,-624.242 722.677,-624.242 722.677,-624.242 728.677,-624.242 734.677,-630.242 734.677,-636.242 734.677,-636.242 734.677,-795.242 734.677,-795.242 734.677,-801.242 728.677,-807.242 722.677,-807.242 722.677,-807.242 584.677,-807.242 584.677,-807.242 578.677,-807.242 572.677,-801.242 572.677,-795.242 572.677,-795.242 572.677,-636.242 572.677,-636.242 572.677,-630.242 578.677,-624.242 584.677,-624.242"/>
<text text-anchor="middle" x="653.677" y="-792.042" font-family="Times,serif" font-size="14.00">FedexContractsController</text>
<polyline fill="none" stroke="black" points="572.677,-784.242 734.677,-784.242 "/>
<text text-anchor="start" x="580.677" y="-769.042" font-family="Times,serif" font-size="14.00">create</text>
<text text-anchor="start" x="580.677" y="-754.042" font-family="Times,serif" font-size="14.00">destroy</text>
<text text-anchor="start" x="580.677" y="-739.042" font-family="Times,serif" font-size="14.00">edit</text>
<text text-anchor="start" x="580.677" y="-724.042" font-family="Times,serif" font-size="14.00">index</text>
<text text-anchor="start" x="580.677" y="-709.042" font-family="Times,serif" font-size="14.00">new</text>
<text text-anchor="start" x="580.677" y="-694.042" font-family="Times,serif" font-size="14.00">show</text>
<text text-anchor="start" x="580.677" y="-679.042" font-family="Times,serif" font-size="14.00">update</text>
<polyline fill="none" stroke="black" points="572.677,-671.242 734.677,-671.242 "/>
<polyline fill="none" stroke="black" points="572.677,-647.242 734.677,-647.242 "/>
<text text-anchor="start" x="580.677" y="-632.042" font-family="Times,serif" font-size="14.00">_layout</text>
</g>
<!-- ApplicationController&#45;&gt;FedexContractsController -->
<g id="edge4" class="edge"><title>ApplicationController&#45;&gt;FedexContractsController</title>
<path fill="none" stroke="black" d="M527.583,-603.745C541.693,-616.277 557.279,-630.121 572.543,-643.678"/>
</g>
<!-- NotesController -->
<g id="node7" class="node"><title>NotesController</title>
<path fill="none" stroke="black" d="M261.622,-676.417C261.622,-676.417 344.622,-676.417 344.622,-676.417 350.622,-676.417 356.622,-682.417 356.622,-688.417 356.622,-688.417 356.622,-847.417 356.622,-847.417 356.622,-853.417 350.622,-859.417 344.622,-859.417 344.622,-859.417 261.622,-859.417 261.622,-859.417 255.622,-859.417 249.622,-853.417 249.622,-847.417 249.622,-847.417 249.622,-688.417 249.622,-688.417 249.622,-682.417 255.622,-676.417 261.622,-676.417"/>
<text text-anchor="middle" x="303.122" y="-844.217" font-family="Times,serif" font-size="14.00">NotesController</text>
<polyline fill="none" stroke="black" points="249.622,-836.417 356.622,-836.417 "/>
<text text-anchor="start" x="257.622" y="-821.217" font-family="Times,serif" font-size="14.00">create</text>
<text text-anchor="start" x="257.622" y="-806.217" font-family="Times,serif" font-size="14.00">destroy</text>
<text text-anchor="start" x="257.622" y="-791.217" font-family="Times,serif" font-size="14.00">edit</text>
<text text-anchor="start" x="257.622" y="-776.217" font-family="Times,serif" font-size="14.00">index</text>
<text text-anchor="start" x="257.622" y="-761.217" font-family="Times,serif" font-size="14.00">new</text>
<text text-anchor="start" x="257.622" y="-746.217" font-family="Times,serif" font-size="14.00">show</text>
<text text-anchor="start" x="257.622" y="-731.217" font-family="Times,serif" font-size="14.00">update</text>
<polyline fill="none" stroke="black" points="249.622,-723.417 356.622,-723.417 "/>
<polyline fill="none" stroke="black" points="249.622,-699.417 356.622,-699.417 "/>
<text text-anchor="start" x="257.622" y="-684.217" font-family="Times,serif" font-size="14.00">_layout</text>
</g>
<!-- ApplicationController&#45;&gt;NotesController -->
<g id="edge5" class="edge"><title>ApplicationController&#45;&gt;NotesController</title>
<path fill="none" stroke="black" d="M437.003,-603.521C413.486,-632.398 382.903,-669.951 356.906,-701.875"/>
</g>
<!-- PsaStatesController -->
<g id="node8" class="node"><title>PsaStatesController</title>
<path fill="none" stroke="black" d="M77.4166,-16.3244C77.4166,-16.3244 180.417,-16.3244 180.417,-16.3244 186.417,-16.3244 192.417,-22.3244 192.417,-28.3244 192.417,-28.3244 192.417,-187.324 192.417,-187.324 192.417,-193.324 186.417,-199.324 180.417,-199.324 180.417,-199.324 77.4166,-199.324 77.4166,-199.324 71.4166,-199.324 65.4166,-193.324 65.4166,-187.324 65.4166,-187.324 65.4166,-28.3244 65.4166,-28.3244 65.4166,-22.3244 71.4166,-16.3244 77.4166,-16.3244"/>
<text text-anchor="middle" x="128.917" y="-184.124" font-family="Times,serif" font-size="14.00">PsaStatesController</text>
<polyline fill="none" stroke="black" points="65.4166,-176.324 192.417,-176.324 "/>
<text text-anchor="start" x="73.4166" y="-161.124" font-family="Times,serif" font-size="14.00">create</text>
<text text-anchor="start" x="73.4166" y="-146.124" font-family="Times,serif" font-size="14.00">destroy</text>
<text text-anchor="start" x="73.4166" y="-131.124" font-family="Times,serif" font-size="14.00">edit</text>
<text text-anchor="start" x="73.4166" y="-116.124" font-family="Times,serif" font-size="14.00">index</text>
<text text-anchor="start" x="73.4166" y="-101.124" font-family="Times,serif" font-size="14.00">new</text>
<text text-anchor="start" x="73.4166" y="-86.1244" font-family="Times,serif" font-size="14.00">show</text>
<text text-anchor="start" x="73.4166" y="-71.1244" font-family="Times,serif" font-size="14.00">update</text>
<polyline fill="none" stroke="black" points="65.4166,-63.3244 192.417,-63.3244 "/>
<polyline fill="none" stroke="black" points="65.4166,-39.3244 192.417,-39.3244 "/>
<text text-anchor="start" x="73.4166" y="-24.1244" font-family="Times,serif" font-size="14.00">_layout</text>
</g>
<!-- ApplicationController&#45;&gt;PsaStatesController -->
<g id="edge6" class="edge"><title>ApplicationController&#45;&gt;PsaStatesController</title>
<path fill="none" stroke="black" d="M426.585,-510.336C402.361,-488.511 371.821,-463.217 341.682,-444.275 320.936,-431.235 309.161,-438.607 291.346,-421.784 226.76,-360.793 183.281,-268.398 157.689,-199.612"/>
</g>
<!-- PsasController -->
<g id="node9" class="node"><title>PsasController</title>
<path fill="none" stroke="black" d="M838.212,-487.124C838.212,-487.124 913.212,-487.124 913.212,-487.124 919.212,-487.124 925.212,-493.124 925.212,-499.124 925.212,-499.124 925.212,-658.124 925.212,-658.124 925.212,-664.124 919.212,-670.124 913.212,-670.124 913.212,-670.124 838.212,-670.124 838.212,-670.124 832.212,-670.124 826.212,-664.124 826.212,-658.124 826.212,-658.124 826.212,-499.124 826.212,-499.124 826.212,-493.124 832.212,-487.124 838.212,-487.124"/>
<text text-anchor="middle" x="875.712" y="-654.924" font-family="Times,serif" font-size="14.00">PsasController</text>
<polyline fill="none" stroke="black" points="826.212,-647.124 925.212,-647.124 "/>
<text text-anchor="start" x="834.212" y="-631.924" font-family="Times,serif" font-size="14.00">create</text>
<text text-anchor="start" x="834.212" y="-616.924" font-family="Times,serif" font-size="14.00">destroy</text>
<text text-anchor="start" x="834.212" y="-601.924" font-family="Times,serif" font-size="14.00">edit</text>
<text text-anchor="start" x="834.212" y="-586.924" font-family="Times,serif" font-size="14.00">index</text>
<text text-anchor="start" x="834.212" y="-571.924" font-family="Times,serif" font-size="14.00">new</text>
<text text-anchor="start" x="834.212" y="-556.924" font-family="Times,serif" font-size="14.00">show</text>
<text text-anchor="start" x="834.212" y="-541.924" font-family="Times,serif" font-size="14.00">update</text>
<polyline fill="none" stroke="black" points="826.212,-534.124 925.212,-534.124 "/>
<polyline fill="none" stroke="black" points="826.212,-510.124 925.212,-510.124 "/>
<text text-anchor="start" x="834.212" y="-494.924" font-family="Times,serif" font-size="14.00">_layout</text>
</g>
<!-- ApplicationController&#45;&gt;PsasController -->
<g id="edge7" class="edge"><title>ApplicationController&#45;&gt;PsasController</title>
<path fill="none" stroke="black" d="M573.003,-582.908C582.887,-584.788 592.819,-586.389 602.427,-587.524 680.212,-596.715 771.255,-590.361 826.153,-584.682"/>
</g>
<!-- PsazipsController -->
<g id="node10" class="node"><title>PsazipsController</title>
<path fill="none" stroke="black" d="M306.546,-235.584C306.546,-235.584 398.546,-235.584 398.546,-235.584 404.546,-235.584 410.546,-241.584 410.546,-247.584 410.546,-247.584 410.546,-406.584 410.546,-406.584 410.546,-412.584 404.546,-418.584 398.546,-418.584 398.546,-418.584 306.546,-418.584 306.546,-418.584 300.546,-418.584 294.546,-412.584 294.546,-406.584 294.546,-406.584 294.546,-247.584 294.546,-247.584 294.546,-241.584 300.546,-235.584 306.546,-235.584"/>
<text text-anchor="middle" x="352.546" y="-403.384" font-family="Times,serif" font-size="14.00">PsazipsController</text>
<polyline fill="none" stroke="black" points="294.546,-395.584 410.546,-395.584 "/>
<text text-anchor="start" x="302.546" y="-380.384" font-family="Times,serif" font-size="14.00">create</text>
<text text-anchor="start" x="302.546" y="-365.384" font-family="Times,serif" font-size="14.00">destroy</text>
<text text-anchor="start" x="302.546" y="-350.384" font-family="Times,serif" font-size="14.00">edit</text>
<text text-anchor="start" x="302.546" y="-335.384" font-family="Times,serif" font-size="14.00">index</text>
<text text-anchor="start" x="302.546" y="-320.384" font-family="Times,serif" font-size="14.00">new</text>
<text text-anchor="start" x="302.546" y="-305.384" font-family="Times,serif" font-size="14.00">show</text>
<text text-anchor="start" x="302.546" y="-290.384" font-family="Times,serif" font-size="14.00">update</text>
<polyline fill="none" stroke="black" points="294.546,-282.584 410.546,-282.584 "/>
<polyline fill="none" stroke="black" points="294.546,-258.584 410.546,-258.584 "/>
<text text-anchor="start" x="302.546" y="-243.384" font-family="Times,serif" font-size="14.00">_layout</text>
</g>
<!-- ApplicationController&#45;&gt;PsazipsController -->
<g id="edge8" class="edge"><title>ApplicationController&#45;&gt;PsazipsController</title>
<path fill="none" stroke="black" d="M450.153,-510.445C436.115,-484.075 418.057,-450.15 401.297,-418.667"/>
</g>
<!-- RegionsController -->
<g id="node11" class="node"><title>RegionsController</title>
<path fill="none" stroke="black" d="M765.92,-8.57959C765.92,-8.57959 861.92,-8.57959 861.92,-8.57959 867.92,-8.57959 873.92,-14.5796 873.92,-20.5796 873.92,-20.5796 873.92,-179.58 873.92,-179.58 873.92,-185.58 867.92,-191.58 861.92,-191.58 861.92,-191.58 765.92,-191.58 765.92,-191.58 759.92,-191.58 753.92,-185.58 753.92,-179.58 753.92,-179.58 753.92,-20.5796 753.92,-20.5796 753.92,-14.5796 759.92,-8.57959 765.92,-8.57959"/>
<text text-anchor="middle" x="813.92" y="-176.38" font-family="Times,serif" font-size="14.00">RegionsController</text>
<polyline fill="none" stroke="black" points="753.92,-168.58 873.92,-168.58 "/>
<text text-anchor="start" x="761.92" y="-153.38" font-family="Times,serif" font-size="14.00">create</text>
<text text-anchor="start" x="761.92" y="-138.38" font-family="Times,serif" font-size="14.00">destroy</text>
<text text-anchor="start" x="761.92" y="-123.38" font-family="Times,serif" font-size="14.00">edit</text>
<text text-anchor="start" x="761.92" y="-108.38" font-family="Times,serif" font-size="14.00">index</text>
<text text-anchor="start" x="761.92" y="-93.3796" font-family="Times,serif" font-size="14.00">new</text>
<text text-anchor="start" x="761.92" y="-78.3796" font-family="Times,serif" font-size="14.00">show</text>
<text text-anchor="start" x="761.92" y="-63.3796" font-family="Times,serif" font-size="14.00">update</text>
<polyline fill="none" stroke="black" points="753.92,-55.5796 873.92,-55.5796 "/>
<polyline fill="none" stroke="black" points="753.92,-31.5796 873.92,-31.5796 "/>
<text text-anchor="start" x="761.92" y="-16.3796" font-family="Times,serif" font-size="14.00">_layout</text>
</g>
<!-- ApplicationController&#45;&gt;RegionsController -->
<g id="edge9" class="edge"><title>ApplicationController&#45;&gt;RegionsController</title>
<path fill="none" stroke="black" d="M498.858,-510.097C520.528,-472.96 556.128,-423.277 602.427,-398.124 620.791,-388.147 631.73,-404.838 649.21,-393.384 719.919,-347.054 763.326,-259.344 787.699,-191.862"/>
</g>
<!-- RolesController -->
<g id="node12" class="node"><title>RolesController</title>
<path fill="none" stroke="black" d="M552.01,-207.184C552.01,-207.184 634.01,-207.184 634.01,-207.184 640.01,-207.184 646.01,-213.184 646.01,-219.184 646.01,-219.184 646.01,-378.184 646.01,-378.184 646.01,-384.184 640.01,-390.184 634.01,-390.184 634.01,-390.184 552.01,-390.184 552.01,-390.184 546.01,-390.184 540.01,-384.184 540.01,-378.184 540.01,-378.184 540.01,-219.184 540.01,-219.184 540.01,-213.184 546.01,-207.184 552.01,-207.184"/>
<text text-anchor="middle" x="593.01" y="-374.984" font-family="Times,serif" font-size="14.00">RolesController</text>
<polyline fill="none" stroke="black" points="540.01,-367.184 646.01,-367.184 "/>
<text text-anchor="start" x="548.01" y="-351.984" font-family="Times,serif" font-size="14.00">create</text>
<text text-anchor="start" x="548.01" y="-336.984" font-family="Times,serif" font-size="14.00">destroy</text>
<text text-anchor="start" x="548.01" y="-321.984" font-family="Times,serif" font-size="14.00">edit</text>
<text text-anchor="start" x="548.01" y="-306.984" font-family="Times,serif" font-size="14.00">index</text>
<text text-anchor="start" x="548.01" y="-291.984" font-family="Times,serif" font-size="14.00">new</text>
<text text-anchor="start" x="548.01" y="-276.984" font-family="Times,serif" font-size="14.00">show</text>
<text text-anchor="start" x="548.01" y="-261.984" font-family="Times,serif" font-size="14.00">update</text>
<polyline fill="none" stroke="black" points="540.01,-254.184 646.01,-254.184 "/>
<polyline fill="none" stroke="black" points="540.01,-230.184 646.01,-230.184 "/>
<text text-anchor="start" x="548.01" y="-214.984" font-family="Times,serif" font-size="14.00">_layout</text>
</g>
<!-- ApplicationController&#45;&gt;RolesController -->
<g id="edge10" class="edge"><title>ApplicationController&#45;&gt;RolesController</title>
<path fill="none" stroke="black" d="M496.302,-510.192C511.557,-476.83 532.566,-430.88 551.107,-390.33"/>
</g>
<!-- ServiceTypesController -->
<g id="node13" class="node"><title>ServiceTypesController</title>
<path fill="none" stroke="black" d="M12,-493.006C12,-493.006 138,-493.006 138,-493.006 144,-493.006 150,-499.006 150,-505.006 150,-505.006 150,-664.006 150,-664.006 150,-670.006 144,-676.006 138,-676.006 138,-676.006 12,-676.006 12,-676.006 6,-676.006 0,-670.006 0,-664.006 0,-664.006 0,-505.006 0,-505.006 0,-499.006 6,-493.006 12,-493.006"/>
<text text-anchor="middle" x="75" y="-660.806" font-family="Times,serif" font-size="14.00">ServiceTypesController</text>
<polyline fill="none" stroke="black" points="0,-653.006 150,-653.006 "/>
<text text-anchor="start" x="8" y="-637.806" font-family="Times,serif" font-size="14.00">create</text>
<text text-anchor="start" x="8" y="-622.806" font-family="Times,serif" font-size="14.00">destroy</text>
<text text-anchor="start" x="8" y="-607.806" font-family="Times,serif" font-size="14.00">edit</text>
<text text-anchor="start" x="8" y="-592.806" font-family="Times,serif" font-size="14.00">index</text>
<text text-anchor="start" x="8" y="-577.806" font-family="Times,serif" font-size="14.00">new</text>
<text text-anchor="start" x="8" y="-562.806" font-family="Times,serif" font-size="14.00">show</text>
<text text-anchor="start" x="8" y="-547.806" font-family="Times,serif" font-size="14.00">update</text>
<polyline fill="none" stroke="black" points="0,-540.006 150,-540.006 "/>
<polyline fill="none" stroke="black" points="0,-516.006 150,-516.006 "/>
<text text-anchor="start" x="8" y="-500.806" font-family="Times,serif" font-size="14.00">_layout</text>
</g>
<!-- ApplicationController&#45;&gt;ServiceTypesController -->
<g id="edge11" class="edge"><title>ApplicationController&#45;&gt;ServiceTypesController</title>
<path fill="none" stroke="black" d="M409.803,-603.468C389.025,-615.77 365.276,-627.368 341.682,-633.675 277.893,-650.726 203.956,-634.337 150.135,-616.03"/>
</g>
<!-- StatesController -->
<g id="node14" class="node"><title>StatesController</title>
<path fill="none" stroke="black" d="M819.116,-712.066C819.116,-712.066 902.116,-712.066 902.116,-712.066 908.116,-712.066 914.116,-718.066 914.116,-724.066 914.116,-724.066 914.116,-883.066 914.116,-883.066 914.116,-889.066 908.116,-895.066 902.116,-895.066 902.116,-895.066 819.116,-895.066 819.116,-895.066 813.116,-895.066 807.116,-889.066 807.116,-883.066 807.116,-883.066 807.116,-724.066 807.116,-724.066 807.116,-718.066 813.116,-712.066 819.116,-712.066"/>
<text text-anchor="middle" x="860.616" y="-879.866" font-family="Times,serif" font-size="14.00">StatesController</text>
<polyline fill="none" stroke="black" points="807.116,-872.066 914.116,-872.066 "/>
<text text-anchor="start" x="815.116" y="-856.866" font-family="Times,serif" font-size="14.00">create</text>
<text text-anchor="start" x="815.116" y="-841.866" font-family="Times,serif" font-size="14.00">destroy</text>
<text text-anchor="start" x="815.116" y="-826.866" font-family="Times,serif" font-size="14.00">edit</text>
<text text-anchor="start" x="815.116" y="-811.866" font-family="Times,serif" font-size="14.00">index</text>
<text text-anchor="start" x="815.116" y="-796.866" font-family="Times,serif" font-size="14.00">new</text>
<text text-anchor="start" x="815.116" y="-781.866" font-family="Times,serif" font-size="14.00">show</text>
<text text-anchor="start" x="815.116" y="-766.866" font-family="Times,serif" font-size="14.00">update</text>
<polyline fill="none" stroke="black" points="807.116,-759.066 914.116,-759.066 "/>
<polyline fill="none" stroke="black" points="807.116,-735.066 914.116,-735.066 "/>
<text text-anchor="start" x="815.116" y="-719.866" font-family="Times,serif" font-size="14.00">_layout</text>
</g>
<!-- ApplicationController&#45;&gt;StatesController -->
<g id="edge12" class="edge"><title>ApplicationController&#45;&gt;StatesController</title>
<path fill="none" stroke="black" d="M573.018,-580.445C646.998,-598.217 736.079,-619.788 737.877,-621.042 770.766,-643.976 797.324,-678.802 817.211,-711.908"/>
</g>
<!-- TerminalsController -->
<g id="node15" class="node"><title>TerminalsController</title>
<path fill="none" stroke="black" d="M802.311,-957.037C802.311,-957.037 909.311,-957.037 909.311,-957.037 915.311,-957.037 921.311,-963.037 921.311,-969.037 921.311,-969.037 921.311,-1128.04 921.311,-1128.04 921.311,-1134.04 915.311,-1140.04 909.311,-1140.04 909.311,-1140.04 802.311,-1140.04 802.311,-1140.04 796.311,-1140.04 790.311,-1134.04 790.311,-1128.04 790.311,-1128.04 790.311,-969.037 790.311,-969.037 790.311,-963.037 796.311,-957.037 802.311,-957.037"/>
<text text-anchor="middle" x="855.811" y="-1124.84" font-family="Times,serif" font-size="14.00">TerminalsController</text>
<polyline fill="none" stroke="black" points="790.311,-1117.04 921.311,-1117.04 "/>
<text text-anchor="start" x="798.311" y="-1101.84" font-family="Times,serif" font-size="14.00">create</text>
<text text-anchor="start" x="798.311" y="-1086.84" font-family="Times,serif" font-size="14.00">destroy</text>
<text text-anchor="start" x="798.311" y="-1071.84" font-family="Times,serif" font-size="14.00">edit</text>
<text text-anchor="start" x="798.311" y="-1056.84" font-family="Times,serif" font-size="14.00">index</text>
<text text-anchor="start" x="798.311" y="-1041.84" font-family="Times,serif" font-size="14.00">new</text>
<text text-anchor="start" x="798.311" y="-1026.84" font-family="Times,serif" font-size="14.00">show</text>
<text text-anchor="start" x="798.311" y="-1011.84" font-family="Times,serif" font-size="14.00">update</text>
<polyline fill="none" stroke="black" points="790.311,-1004.04 921.311,-1004.04 "/>
<polyline fill="none" stroke="black" points="790.311,-980.037 921.311,-980.037 "/>
<text text-anchor="start" x="798.311" y="-964.837" font-family="Times,serif" font-size="14.00">_layout</text>
</g>
<!-- ApplicationController&#45;&gt;TerminalsController -->
<g id="edge13" class="edge"><title>ApplicationController&#45;&gt;TerminalsController</title>
<path fill="none" stroke="black" d="M505.062,-603.633C522.757,-633.246 543.966,-673.021 556.116,-711.039 569.685,-753.5 547.896,-771.438 569.477,-810.442 620.495,-902.651 722.628,-973.964 790.1,-1013.61"/>
</g>
<!-- UserRolesController -->
<g id="node16" class="node"><title>UserRolesController</title>
<path fill="none" stroke="black" d="M552.17,-939.482C552.17,-939.482 660.17,-939.482 660.17,-939.482 666.17,-939.482 672.17,-945.482 672.17,-951.482 672.17,-951.482 672.17,-1110.48 672.17,-1110.48 672.17,-1116.48 666.17,-1122.48 660.17,-1122.48 660.17,-1122.48 552.17,-1122.48 552.17,-1122.48 546.17,-1122.48 540.17,-1116.48 540.17,-1110.48 540.17,-1110.48 540.17,-951.482 540.17,-951.482 540.17,-945.482 546.17,-939.482 552.17,-939.482"/>
<text text-anchor="middle" x="606.17" y="-1107.28" font-family="Times,serif" font-size="14.00">UserRolesController</text>
<polyline fill="none" stroke="black" points="540.17,-1099.48 672.17,-1099.48 "/>
<text text-anchor="start" x="548.17" y="-1084.28" font-family="Times,serif" font-size="14.00">create</text>
<text text-anchor="start" x="548.17" y="-1069.28" font-family="Times,serif" font-size="14.00">destroy</text>
<text text-anchor="start" x="548.17" y="-1054.28" font-family="Times,serif" font-size="14.00">edit</text>
<text text-anchor="start" x="548.17" y="-1039.28" font-family="Times,serif" font-size="14.00">index</text>
<text text-anchor="start" x="548.17" y="-1024.28" font-family="Times,serif" font-size="14.00">new</text>
<text text-anchor="start" x="548.17" y="-1009.28" font-family="Times,serif" font-size="14.00">show</text>
<text text-anchor="start" x="548.17" y="-994.282" font-family="Times,serif" font-size="14.00">update</text>
<polyline fill="none" stroke="black" points="540.17,-986.482 672.17,-986.482 "/>
<polyline fill="none" stroke="black" points="540.17,-962.482 672.17,-962.482 "/>
<text text-anchor="start" x="548.17" y="-947.282" font-family="Times,serif" font-size="14.00">_layout</text>
</g>
<!-- ApplicationController&#45;&gt;UserRolesController -->
<g id="edge14" class="edge"><title>ApplicationController&#45;&gt;UserRolesController</title>
<path fill="none" stroke="black" d="M505.062,-603.633C522.757,-633.246 543.966,-673.021 556.116,-711.039 569.685,-753.5 562.849,-766.361 569.477,-810.442 575.854,-852.855 583.562,-899.744 590.264,-939.342"/>
</g>
<!-- UsersController -->
<g id="node17" class="node"><title>UsersController</title>
<path fill="none" stroke="black" d="M617.627,-401.324C617.627,-401.324 699.627,-401.324 699.627,-401.324 705.627,-401.324 711.627,-407.324 711.627,-413.324 711.627,-413.324 711.627,-572.324 711.627,-572.324 711.627,-578.324 705.627,-584.324 699.627,-584.324 699.627,-584.324 617.627,-584.324 617.627,-584.324 611.627,-584.324 605.627,-578.324 605.627,-572.324 605.627,-572.324 605.627,-413.324 605.627,-413.324 605.627,-407.324 611.627,-401.324 617.627,-401.324"/>
<text text-anchor="middle" x="658.627" y="-569.124" font-family="Times,serif" font-size="14.00">UsersController</text>
<polyline fill="none" stroke="black" points="605.627,-561.324 711.627,-561.324 "/>
<text text-anchor="start" x="613.627" y="-546.124" font-family="Times,serif" font-size="14.00">create</text>
<text text-anchor="start" x="613.627" y="-531.124" font-family="Times,serif" font-size="14.00">destroy</text>
<text text-anchor="start" x="613.627" y="-516.124" font-family="Times,serif" font-size="14.00">edit</text>
<text text-anchor="start" x="613.627" y="-501.124" font-family="Times,serif" font-size="14.00">index</text>
<text text-anchor="start" x="613.627" y="-486.124" font-family="Times,serif" font-size="14.00">new</text>
<text text-anchor="start" x="613.627" y="-471.124" font-family="Times,serif" font-size="14.00">show</text>
<text text-anchor="start" x="613.627" y="-456.124" font-family="Times,serif" font-size="14.00">update</text>
<polyline fill="none" stroke="black" points="605.627,-448.324 711.627,-448.324 "/>
<polyline fill="none" stroke="black" points="605.627,-424.324 711.627,-424.324 "/>
<text text-anchor="start" x="613.627" y="-409.124" font-family="Times,serif" font-size="14.00">_layout</text>
</g>
<!-- ApplicationController&#45;&gt;UsersController -->
<g id="edge15" class="edge"><title>ApplicationController&#45;&gt;UsersController</title>
<path fill="none" stroke="black" d="M572.957,-522.735C584.072,-518.854 595.065,-515.016 605.283,-511.449"/>
</g>
<!-- VehicleFuelsController -->
<g id="node18" class="node"><title>VehicleFuelsController</title>
<path fill="none" stroke="black" d="M806.527,-253.469C806.527,-253.469 930.527,-253.469 930.527,-253.469 936.527,-253.469 942.527,-259.469 942.527,-265.469 942.527,-265.469 942.527,-424.469 942.527,-424.469 942.527,-430.469 936.527,-436.469 930.527,-436.469 930.527,-436.469 806.527,-436.469 806.527,-436.469 800.527,-436.469 794.527,-430.469 794.527,-424.469 794.527,-424.469 794.527,-265.469 794.527,-265.469 794.527,-259.469 800.527,-253.469 806.527,-253.469"/>
<text text-anchor="middle" x="868.527" y="-421.269" font-family="Times,serif" font-size="14.00">VehicleFuelsController</text>
<polyline fill="none" stroke="black" points="794.527,-413.469 942.527,-413.469 "/>
<text text-anchor="start" x="802.527" y="-398.269" font-family="Times,serif" font-size="14.00">create</text>
<text text-anchor="start" x="802.527" y="-383.269" font-family="Times,serif" font-size="14.00">destroy</text>
<text text-anchor="start" x="802.527" y="-368.269" font-family="Times,serif" font-size="14.00">edit</text>
<text text-anchor="start" x="802.527" y="-353.269" font-family="Times,serif" font-size="14.00">index</text>
<text text-anchor="start" x="802.527" y="-338.269" font-family="Times,serif" font-size="14.00">new</text>
<text text-anchor="start" x="802.527" y="-323.269" font-family="Times,serif" font-size="14.00">show</text>
<text text-anchor="start" x="802.527" y="-308.269" font-family="Times,serif" font-size="14.00">update</text>
<polyline fill="none" stroke="black" points="794.527,-300.469 942.527,-300.469 "/>
<polyline fill="none" stroke="black" points="794.527,-276.469 942.527,-276.469 "/>
<text text-anchor="start" x="802.527" y="-261.269" font-family="Times,serif" font-size="14.00">_layout</text>
</g>
<!-- ApplicationController&#45;&gt;VehicleFuelsController -->
<g id="edge16" class="edge"><title>ApplicationController&#45;&gt;VehicleFuelsController</title>
<path fill="none" stroke="black" d="M498.858,-510.097C520.528,-472.96 556.128,-423.277 602.427,-398.124 611.609,-393.135 638.893,-395.04 649.21,-393.384 697.913,-385.569 752.035,-373.656 794.329,-363.602"/>
</g>
<!-- VehicleOdometersController -->
<g id="node19" class="node"><title>VehicleOdometersController</title>
<path fill="none" stroke="black" d="M26.4697,-955.677C26.4697,-955.677 181.47,-955.677 181.47,-955.677 187.47,-955.677 193.47,-961.677 193.47,-967.677 193.47,-967.677 193.47,-1126.68 193.47,-1126.68 193.47,-1132.68 187.47,-1138.68 181.47,-1138.68 181.47,-1138.68 26.4697,-1138.68 26.4697,-1138.68 20.4697,-1138.68 14.4697,-1132.68 14.4697,-1126.68 14.4697,-1126.68 14.4697,-967.677 14.4697,-967.677 14.4697,-961.677 20.4697,-955.677 26.4697,-955.677"/>
<text text-anchor="middle" x="103.97" y="-1123.48" font-family="Times,serif" font-size="14.00">VehicleOdometersController</text>
<polyline fill="none" stroke="black" points="14.4697,-1115.68 193.47,-1115.68 "/>
<text text-anchor="start" x="22.4697" y="-1100.48" font-family="Times,serif" font-size="14.00">create</text>
<text text-anchor="start" x="22.4697" y="-1085.48" font-family="Times,serif" font-size="14.00">destroy</text>
<text text-anchor="start" x="22.4697" y="-1070.48" font-family="Times,serif" font-size="14.00">edit</text>
<text text-anchor="start" x="22.4697" y="-1055.48" font-family="Times,serif" font-size="14.00">index</text>
<text text-anchor="start" x="22.4697" y="-1040.48" font-family="Times,serif" font-size="14.00">new</text>
<text text-anchor="start" x="22.4697" y="-1025.48" font-family="Times,serif" font-size="14.00">show</text>
<text text-anchor="start" x="22.4697" y="-1010.48" font-family="Times,serif" font-size="14.00">update</text>
<polyline fill="none" stroke="black" points="14.4697,-1002.68 193.47,-1002.68 "/>
<polyline fill="none" stroke="black" points="14.4697,-978.677 193.47,-978.677 "/>
<text text-anchor="start" x="22.4697" y="-963.477" font-family="Times,serif" font-size="14.00">_layout</text>
</g>
<!-- ApplicationController&#45;&gt;VehicleOdometersController -->
<g id="edge17" class="edge"><title>ApplicationController&#45;&gt;VehicleOdometersController</title>
<path fill="none" stroke="black" d="M460.993,-603.632C438.101,-678.36 391.862,-820.734 359.822,-862.617 315.564,-920.474 248.235,-968.029 193.753,-1000.37"/>
</g>
<!-- VehicleTypesController -->
<g id="node20" class="node"><title>VehicleTypesController</title>
<path fill="none" stroke="black" d="M14.243,-710.17C14.243,-710.17 142.243,-710.17 142.243,-710.17 148.243,-710.17 154.243,-716.17 154.243,-722.17 154.243,-722.17 154.243,-881.17 154.243,-881.17 154.243,-887.17 148.243,-893.17 142.243,-893.17 142.243,-893.17 14.243,-893.17 14.243,-893.17 8.24302,-893.17 2.24302,-887.17 2.24302,-881.17 2.24302,-881.17 2.24302,-722.17 2.24302,-722.17 2.24302,-716.17 8.24302,-710.17 14.243,-710.17"/>
<text text-anchor="middle" x="78.243" y="-877.97" font-family="Times,serif" font-size="14.00">VehicleTypesController</text>
<polyline fill="none" stroke="black" points="2.24302,-870.17 154.243,-870.17 "/>
<text text-anchor="start" x="10.243" y="-854.97" font-family="Times,serif" font-size="14.00">create</text>
<text text-anchor="start" x="10.243" y="-839.97" font-family="Times,serif" font-size="14.00">destroy</text>
<text text-anchor="start" x="10.243" y="-824.97" font-family="Times,serif" font-size="14.00">edit</text>
<text text-anchor="start" x="10.243" y="-809.97" font-family="Times,serif" font-size="14.00">index</text>
<text text-anchor="start" x="10.243" y="-794.97" font-family="Times,serif" font-size="14.00">new</text>
<text text-anchor="start" x="10.243" y="-779.97" font-family="Times,serif" font-size="14.00">show</text>
<text text-anchor="start" x="10.243" y="-764.97" font-family="Times,serif" font-size="14.00">update</text>
<polyline fill="none" stroke="black" points="2.24302,-757.17 154.243,-757.17 "/>
<polyline fill="none" stroke="black" points="2.24302,-733.17 154.243,-733.17 "/>
<text text-anchor="start" x="10.243" y="-717.97" font-family="Times,serif" font-size="14.00">_layout</text>
</g>
<!-- ApplicationController&#45;&gt;VehicleTypesController -->
<g id="edge18" class="edge"><title>ApplicationController&#45;&gt;VehicleTypesController</title>
<path fill="none" stroke="black" d="M397.983,-603.502C379.767,-613.892 360.237,-624.53 341.682,-633.675 300.565,-653.94 286.138,-650.326 246.422,-673.217 214.75,-691.472 182.292,-714.942 154.443,-736.814"/>
</g>
<!-- VehiclesController -->
<g id="node21" class="node"><title>VehiclesController</title>
<path fill="none" stroke="black" d="M441.916,-714.239C441.916,-714.239 540.916,-714.239 540.916,-714.239 546.916,-714.239 552.916,-720.239 552.916,-726.239 552.916,-726.239 552.916,-885.239 552.916,-885.239 552.916,-891.239 546.916,-897.239 540.916,-897.239 540.916,-897.239 441.916,-897.239 441.916,-897.239 435.916,-897.239 429.916,-891.239 429.916,-885.239 429.916,-885.239 429.916,-726.239 429.916,-726.239 429.916,-720.239 435.916,-714.239 441.916,-714.239"/>
<text text-anchor="middle" x="491.416" y="-882.039" font-family="Times,serif" font-size="14.00">VehiclesController</text>
<polyline fill="none" stroke="black" points="429.916,-874.239 552.916,-874.239 "/>
<text text-anchor="start" x="437.916" y="-859.039" font-family="Times,serif" font-size="14.00">create</text>
<text text-anchor="start" x="437.916" y="-844.039" font-family="Times,serif" font-size="14.00">destroy</text>
<text text-anchor="start" x="437.916" y="-829.039" font-family="Times,serif" font-size="14.00">edit</text>
<text text-anchor="start" x="437.916" y="-814.039" font-family="Times,serif" font-size="14.00">index</text>
<text text-anchor="start" x="437.916" y="-799.039" font-family="Times,serif" font-size="14.00">new</text>
<text text-anchor="start" x="437.916" y="-784.039" font-family="Times,serif" font-size="14.00">show</text>
<text text-anchor="start" x="437.916" y="-769.039" font-family="Times,serif" font-size="14.00">update</text>
<polyline fill="none" stroke="black" points="429.916,-761.239 552.916,-761.239 "/>
<polyline fill="none" stroke="black" points="429.916,-737.239 552.916,-737.239 "/>
<text text-anchor="start" x="437.916" y="-722.039" font-family="Times,serif" font-size="14.00">_layout</text>
</g>
<!-- ApplicationController&#45;&gt;VehiclesController -->
<g id="edge19" class="edge"><title>ApplicationController&#45;&gt;VehiclesController</title>
<path fill="none" stroke="black" d="M478,-603.466C480.062,-634.546 482.843,-676.481 485.339,-714.11"/>
</g>
<!-- ZipsController -->
<g id="node22" class="node"><title>ZipsController</title>
<path fill="none" stroke="black" d="M251.482,-447.475C251.482,-447.475 326.482,-447.475 326.482,-447.475 332.482,-447.475 338.482,-453.475 338.482,-459.475 338.482,-459.475 338.482,-618.475 338.482,-618.475 338.482,-624.475 332.482,-630.475 326.482,-630.475 326.482,-630.475 251.482,-630.475 251.482,-630.475 245.482,-630.475 239.482,-624.475 239.482,-618.475 239.482,-618.475 239.482,-459.475 239.482,-459.475 239.482,-453.475 245.482,-447.475 251.482,-447.475"/>
<text text-anchor="middle" x="288.982" y="-615.275" font-family="Times,serif" font-size="14.00">ZipsController</text>
<polyline fill="none" stroke="black" points="239.482,-607.475 338.482,-607.475 "/>
<text text-anchor="start" x="247.482" y="-592.275" font-family="Times,serif" font-size="14.00">create</text>
<text text-anchor="start" x="247.482" y="-577.275" font-family="Times,serif" font-size="14.00">destroy</text>
<text text-anchor="start" x="247.482" y="-562.275" font-family="Times,serif" font-size="14.00">edit</text>
<text text-anchor="start" x="247.482" y="-547.275" font-family="Times,serif" font-size="14.00">index</text>
<text text-anchor="start" x="247.482" y="-532.275" font-family="Times,serif" font-size="14.00">new</text>
<text text-anchor="start" x="247.482" y="-517.275" font-family="Times,serif" font-size="14.00">show</text>
<text text-anchor="start" x="247.482" y="-502.275" font-family="Times,serif" font-size="14.00">update</text>
<polyline fill="none" stroke="black" points="239.482,-494.475 338.482,-494.475 "/>
<polyline fill="none" stroke="black" points="239.482,-470.475 338.482,-470.475 "/>
<text text-anchor="start" x="247.482" y="-455.275" font-family="Times,serif" font-size="14.00">_layout</text>
</g>
<!-- ApplicationController&#45;&gt;ZipsController -->
<g id="edge20" class="edge"><title>ApplicationController&#45;&gt;ZipsController</title>
<path fill="none" stroke="black" d="M376.777,-547.469C363.682,-546.202 350.724,-544.949 338.948,-543.809"/>
</g>
</g>
</svg>
