<?xml version="1.0" encoding="UTF-8" standalone="no"?>
<!DOCTYPE svg PUBLIC "-//W3C//DTD SVG 1.1//EN"
 "http://www.w3.org/Graphics/SVG/1.1/DTD/svg11.dtd">
<!-- Generated by graphviz version 2.29.20121209.0545 (20121209.0545)
 -->
<!-- Title: controllers_diagram Pages: 1 -->
<svg width="2020pt" height="1180pt"
 viewBox="0.00 0.00 2020.43 1180.09" xmlns="http://www.w3.org/2000/svg" xmlns:xlink="http://www.w3.org/1999/xlink">
<g id="graph0" class="graph" transform="scale(1 1) rotate(0) translate(4 1176.09)">
<title>controllers_diagram</title>
<polygon fill="white" stroke="white" points="-4,5 -4,-1176.09 2017.43,-1176.09 2017.43,5 -4,5"/>
<!-- _diagram_info -->
<g id="node1" class="node"><title>_diagram_info</title>
<text text-anchor="start" x="1148" y="-63.6" font-family="Times,serif" font-size="13.00">Controllers diagram</text>
<text text-anchor="start" x="1148" y="-49.6" font-family="Times,serif" font-size="13.00">Date: Dec 14 2012 &#45; 13:59</text>
<text text-anchor="start" x="1148" y="-35.6" font-family="Times,serif" font-size="13.00">Migration version: 20121214184600</text>
<text text-anchor="start" x="1148" y="-21.6" font-family="Times,serif" font-size="13.00">Generated by RailRoady 1.1.0</text>
<text text-anchor="start" x="1148" y="-7.6" font-family="Times,serif" font-size="13.00">http://railroady.prestonlee.com</text>
</g>
<!-- AddendumsController -->
<g id="node2" class="node"><title>AddendumsController</title>
<ellipse fill="none" stroke="black" cx="92.2918" cy="-205.787" rx="92.0841" ry="18"/>
<text text-anchor="middle" x="92.2918" y="-202.087" font-family="Times,serif" font-size="14.00">AddendumsController</text>
</g>
<!-- ApplicationController -->
<g id="node3" class="node"><title>ApplicationController</title>
<ellipse fill="none" stroke="black" cx="1025.07" cy="-649.906" rx="90.9839" ry="18"/>
<text text-anchor="middle" x="1025.07" y="-646.206" font-family="Times,serif" font-size="14.00">ApplicationController</text>
</g>
<!-- ApplicationController&#45;&gt;AddendumsController -->
<g id="edge1" class="edge"><title>ApplicationController&#45;&gt;AddendumsController</title>
<path fill="none" stroke="black" d="M989.925,-633.172C842.458,-562.96 274.488,-292.535 127.293,-222.452"/>
</g>
<!-- BusinessesController -->
<g id="node4" class="node"><title>BusinessesController</title>
<ellipse fill="none" stroke="black" cx="850.984" cy="-132" rx="87.9851" ry="18"/>
<text text-anchor="middle" x="850.984" y="-128.3" font-family="Times,serif" font-size="14.00">BusinessesController</text>
</g>
<!-- ApplicationController&#45;&gt;BusinessesController -->
<g id="edge2" class="edge"><title>ApplicationController&#45;&gt;BusinessesController</title>
<path fill="none" stroke="black" d="M1008.9,-632.173C977.368,-596.401 908.163,-511.717 878.331,-426.548 843.442,-326.943 846.944,-197.449 849.684,-150.236"/>
</g>
<!-- DailyDataController -->
<g id="node5" class="node"><title>DailyDataController</title>
<ellipse fill="none" stroke="black" cx="745.307" cy="-1126.83" rx="85.5853" ry="18"/>
<text text-anchor="middle" x="745.307" y="-1123.13" font-family="Times,serif" font-size="14.00">DailyDataController</text>
</g>
<!-- ApplicationController&#45;&gt;DailyDataController -->
<g id="edge3" class="edge"><title>ApplicationController&#45;&gt;DailyDataController</title>
<path fill="none" stroke="black" d="M1014.44,-668.019C970.079,-743.651 799.896,-1033.77 755.794,-1108.96"/>
</g>
<!-- DailyDataDeliveryExceptionsController -->
<g id="node6" class="node"><title>DailyDataDeliveryExceptionsController</title>
<ellipse fill="none" stroke="black" cx="1539.28" cy="-780.949" rx="157.872" ry="18"/>
<text text-anchor="middle" x="1539.28" y="-777.249" font-family="Times,serif" font-size="14.00">DailyDataDeliveryExceptionsController</text>
</g>
<!-- ApplicationController&#45;&gt;DailyDataDeliveryExceptionsController -->
<g id="edge4" class="edge"><title>ApplicationController&#45;&gt;DailyDataDeliveryExceptionsController</title>
<path fill="none" stroke="black" d="M1081.08,-664.179C1177.13,-688.657 1372.73,-738.504 1474.49,-764.439"/>
</g>
<!-- DailyDataEmployeesController -->
<g id="node7" class="node"><title>DailyDataEmployeesController</title>
<ellipse fill="none" stroke="black" cx="500.398" cy="-796.983" rx="126.178" ry="18"/>
<text text-anchor="middle" x="500.398" y="-793.283" font-family="Times,serif" font-size="14.00">DailyDataEmployeesController</text>
</g>
<!-- ApplicationController&#45;&gt;DailyDataEmployeesController -->
<g id="edge5" class="edge"><title>ApplicationController&#45;&gt;DailyDataEmployeesController</title>
<path fill="none" stroke="black" d="M972.36,-664.681C873.352,-692.435 660.349,-752.145 557.833,-780.882"/>
</g>
<!-- DailyDataVehiclesController -->
<g id="node8" class="node"><title>DailyDataVehiclesController</title>
<ellipse fill="none" stroke="black" cx="523.596" cy="-148.9" rx="117.779" ry="18"/>
<text text-anchor="middle" x="523.596" y="-145.2" font-family="Times,serif" font-size="14.00">DailyDataVehiclesController</text>
</g>
<!-- ApplicationController&#45;&gt;DailyDataVehiclesController -->
<g id="edge6" class="edge"><title>ApplicationController&#45;&gt;DailyDataVehiclesController</title>
<path fill="none" stroke="black" d="M1013.5,-631.79C986.347,-589.977 915.26,-484.491 841.761,-408.377 743.231,-306.343 605.629,-206.147 549.237,-166.587"/>
</g>
<!-- DeliveryExceptionsController -->
<g id="node9" class="node"><title>DeliveryExceptionsController</title>
<ellipse fill="none" stroke="black" cx="1892.19" cy="-196.993" rx="120.479" ry="18"/>
<text text-anchor="middle" x="1892.19" y="-193.293" font-family="Times,serif" font-size="14.00">DeliveryExceptionsController</text>
</g>
<!-- ApplicationController&#45;&gt;DeliveryExceptionsController -->
<g id="edge7" class="edge"><title>ApplicationController&#45;&gt;DeliveryExceptionsController</title>
<path fill="none" stroke="black" d="M1057.48,-632.978C1193.84,-561.756 1720.27,-286.791 1858.69,-214.492"/>
</g>
<!-- EmployeePsasController -->
<g id="node10" class="node"><title>EmployeePsasController</title>
<ellipse fill="none" stroke="black" cx="738.771" cy="-408.265" rx="101.282" ry="18"/>
<text text-anchor="middle" x="738.771" y="-404.565" font-family="Times,serif" font-size="14.00">EmployeePsasController</text>
</g>
<!-- ApplicationController&#45;&gt;EmployeePsasController -->
<g id="edge8" class="edge"><title>ApplicationController&#45;&gt;EmployeePsasController</title>
<path fill="none" stroke="black" d="M1004.02,-632.137C951.072,-587.451 812.833,-470.774 759.854,-426.06"/>
</g>
<!-- EmployeesController -->
<g id="node11" class="node"><title>EmployeesController</title>
<ellipse fill="none" stroke="black" cx="1443.77" cy="-149.483" rx="88.2844" ry="18"/>
<text text-anchor="middle" x="1443.77" y="-145.783" font-family="Times,serif" font-size="14.00">EmployeesController</text>
</g>
<!-- ApplicationController&#45;&gt;EmployeesController -->
<g id="edge9" class="edge"><title>ApplicationController&#45;&gt;EmployeesController</title>
<path fill="none" stroke="black" d="M1037.87,-632.069C1060.87,-600.223 1111.01,-531.719 1156.28,-476.23 1255.14,-355.035 1382.09,-216.2 1427.07,-167.493"/>
</g>
<!-- FedexContractsController -->
<g id="node12" class="node"><title>FedexContractsController</title>
<ellipse fill="none" stroke="black" cx="985.221" cy="-426.588" rx="105.082" ry="18"/>
<text text-anchor="middle" x="985.221" y="-422.888" font-family="Times,serif" font-size="14.00">FedexContractsController</text>
</g>
<!-- ApplicationController&#45;&gt;FedexContractsController -->
<g id="edge10" class="edge"><title>ApplicationController&#45;&gt;FedexContractsController</title>
<path fill="none" stroke="black" d="M1021.81,-631.631C1014.32,-589.65 995.952,-486.724 988.471,-444.802"/>
</g>
<!-- NotesController -->
<g id="node13" class="node"><title>NotesController</title>
<ellipse fill="none" stroke="black" cx="79.5913" cy="-642.044" rx="69.5877" ry="18"/>
<text text-anchor="middle" x="79.5913" y="-638.344" font-family="Times,serif" font-size="14.00">NotesController</text>
</g>
<!-- ApplicationController&#45;&gt;NotesController -->
<g id="edge11" class="edge"><title>ApplicationController&#45;&gt;NotesController</title>
<path fill="none" stroke="black" d="M934.172,-651.287C883.358,-651.923 818.877,-652.503 761.433,-652.335 537.679,-651.677 272.668,-646.382 149.277,-643.655"/>
</g>
<!-- PsaStatesController -->
<g id="node14" class="node"><title>PsaStatesController</title>
<ellipse fill="none" stroke="black" cx="1925" cy="-630.213" rx="82.5854" ry="18"/>
<text text-anchor="middle" x="1925" y="-626.513" font-family="Times,serif" font-size="14.00">PsaStatesController</text>
</g>
<!-- ApplicationController&#45;&gt;PsaStatesController -->
<g id="edge12" class="edge"><title>ApplicationController&#45;&gt;PsaStatesController</title>
<path fill="none" stroke="black" d="M1115.89,-647.918C1291.29,-644.08 1674.13,-635.703 1842.62,-632.016"/>
</g>
<!-- PsasController -->
<g id="node15" class="node"><title>PsasController</title>
<ellipse fill="none" stroke="black" cx="1909.53" cy="-1075.3" rx="64.189" ry="18"/>
<text text-anchor="middle" x="1909.53" y="-1071.6" font-family="Times,serif" font-size="14.00">PsasController</text>
</g>
<!-- ApplicationController&#45;&gt;PsasController -->
<g id="edge13" class="edge"><title>ApplicationController&#45;&gt;PsasController</title>
<path fill="none" stroke="black" d="M1045.42,-667.82C1073.37,-691.892 1125.77,-735.174 1174.94,-765.68 1186.91,-773.108 1190.61,-773.744 1203.45,-779.551 1456.23,-893.879 1766.25,-1018.4 1872.08,-1060.48"/>
</g>
<!-- PsazipsController -->
<g id="node16" class="node"><title>PsazipsController</title>
<ellipse fill="none" stroke="black" cx="1060.03" cy="-872.446" rx="75.2868" ry="18"/>
<text text-anchor="middle" x="1060.03" y="-868.746" font-family="Times,serif" font-size="14.00">PsazipsController</text>
</g>
<!-- ApplicationController&#45;&gt;PsazipsController -->
<g id="edge14" class="edge"><title>ApplicationController&#45;&gt;PsazipsController</title>
<path fill="none" stroke="black" d="M1027.93,-668.117C1034.5,-709.951 1050.61,-812.52 1057.18,-854.295"/>
</g>
<!-- RegionsController -->
<g id="node17" class="node"><title>RegionsController</title>
<ellipse fill="none" stroke="black" cx="1235.87" cy="-476.361" rx="77.9862" ry="18"/>
<text text-anchor="middle" x="1235.87" y="-472.661" font-family="Times,serif" font-size="14.00">RegionsController</text>
</g>
<!-- ApplicationController&#45;&gt;RegionsController -->
<g id="edge15" class="edge"><title>ApplicationController&#45;&gt;RegionsController</title>
<path fill="none" stroke="black" d="M1046.44,-632.31C1086.95,-598.962 1174.44,-526.93 1214.75,-493.745"/>
</g>
<!-- RolesController -->
<g id="node18" class="node"><title>RolesController</title>
<ellipse fill="none" stroke="black" cx="1520.91" cy="-478.181" rx="68.7879" ry="18"/>
<text text-anchor="middle" x="1520.91" y="-474.481" font-family="Times,serif" font-size="14.00">RolesController</text>
</g>
<!-- ApplicationController&#45;&gt;RolesController -->
<g id="edge16" class="edge"><title>ApplicationController&#45;&gt;RolesController</title>
<path fill="none" stroke="black" d="M1070.39,-634.211C1166.01,-601.092 1387.2,-524.488 1479.39,-492.559"/>
</g>
<!-- ServiceTypesController -->
<g id="node19" class="node"><title>ServiceTypesController</title>
<ellipse fill="none" stroke="black" cx="475.367" cy="-1130.97" rx="97.4827" ry="18"/>
<text text-anchor="middle" x="475.367" y="-1127.27" font-family="Times,serif" font-size="14.00">ServiceTypesController</text>
</g>
<!-- ApplicationController&#45;&gt;ServiceTypesController -->
<g id="edge17" class="edge"><title>ApplicationController&#45;&gt;ServiceTypesController</title>
<path fill="none" stroke="black" d="M994.281,-666.896C938.382,-698.482 817.771,-770.075 728.862,-847.216 626.077,-936.394 524.568,-1065.79 488.837,-1112.93"/>
</g>
<!-- StatesController -->
<g id="node20" class="node"><title>StatesController</title>
<ellipse fill="none" stroke="black" cx="80.8052" cy="-1072.98" rx="69.5877" ry="18"/>
<text text-anchor="middle" x="80.8052" y="-1069.28" font-family="Times,serif" font-size="14.00">StatesController</text>
</g>
<!-- ApplicationController&#45;&gt;StatesController -->
<g id="edge18" class="edge"><title>ApplicationController&#45;&gt;StatesController</title>
<path fill="none" stroke="black" d="M988.053,-666.49C836.489,-734.398 264.289,-990.767 116.05,-1057.18"/>
</g>
<!-- TerminalsController -->
<g id="node21" class="node"><title>TerminalsController</title>
<ellipse fill="none" stroke="black" cx="815.603" cy="-847.324" rx="85.2851" ry="18"/>
<text text-anchor="middle" x="815.603" y="-843.624" font-family="Times,serif" font-size="14.00">TerminalsController</text>
</g>
<!-- ApplicationController&#45;&gt;TerminalsController -->
<g id="edge19" class="edge"><title>ApplicationController&#45;&gt;TerminalsController</title>
<path fill="none" stroke="black" d="M1006.11,-667.773C966.231,-705.36 874.077,-792.213 834.367,-829.639"/>
</g>
<!-- UserRolesController -->
<g id="node22" class="node"><title>UserRolesController</title>
<ellipse fill="none" stroke="black" cx="762.008" cy="-632.735" rx="85.5853" ry="18"/>
<text text-anchor="middle" x="762.008" y="-629.035" font-family="Times,serif" font-size="14.00">UserRolesController</text>
</g>
<!-- ApplicationController&#45;&gt;UserRolesController -->
<g id="edge20" class="edge"><title>ApplicationController&#45;&gt;UserRolesController</title>
<path fill="none" stroke="black" d="M938.569,-644.26C908.17,-642.275 874.121,-640.053 844.095,-638.093"/>
</g>
<!-- UsersController -->
<g id="node23" class="node"><title>UsersController</title>
<ellipse fill="none" stroke="black" cx="463.611" cy="-496.92" rx="68.7879" ry="18"/>
<text text-anchor="middle" x="463.611" y="-493.22" font-family="Times,serif" font-size="14.00">UsersController</text>
</g>
<!-- ApplicationController&#45;&gt;UsersController -->
<g id="edge21" class="edge"><title>ApplicationController&#45;&gt;UsersController</title>
<path fill="none" stroke="black" d="M971.489,-635.306C862.26,-605.544 615.398,-538.279 511.317,-509.919"/>
</g>
<!-- VehicleFuelsController -->
<g id="node24" class="node"><title>VehicleFuelsController</title>
<ellipse fill="none" stroke="black" cx="1272.73" cy="-765.718" rx="96.3833" ry="18"/>
<text text-anchor="middle" x="1272.73" y="-762.018" font-family="Times,serif" font-size="14.00">VehicleFuelsController</text>
</g>
<!-- ApplicationController&#45;&gt;VehicleFuelsController -->
<g id="edge22" class="edge"><title>ApplicationController&#45;&gt;VehicleFuelsController</title>
<path fill="none" stroke="black" d="M1060.55,-666.499C1107.5,-688.452 1189.8,-726.936 1236.91,-748.968"/>
</g>
<!-- VehicleOdometersController -->
<g id="node25" class="node"><title>VehicleOdometersController</title>
<ellipse fill="none" stroke="black" cx="1226.26" cy="-1123.2" rx="116.18" ry="18"/>
<text text-anchor="middle" x="1226.26" y="-1119.5" font-family="Times,serif" font-size="14.00">VehicleOdometersController</text>
</g>
<!-- ApplicationController&#45;&gt;VehicleOdometersController -->
<g id="edge23" class="edge"><title>ApplicationController&#45;&gt;VehicleOdometersController</title>
<path fill="none" stroke="black" d="M1035.14,-668.018C1055.77,-705.503 1103.68,-794.609 1137.02,-872.595 1173.42,-957.742 1207.54,-1063.24 1220.63,-1104.98"/>
</g>
<!-- VehicleTypesController -->
<g id="node26" class="node"><title>VehicleTypesController</title>
<ellipse fill="none" stroke="black" cx="982.475" cy="-1154.09" rx="98.5829" ry="18"/>
<text text-anchor="middle" x="982.475" y="-1150.39" font-family="Times,serif" font-size="14.00">VehicleTypesController</text>
</g>
<!-- ApplicationController&#45;&gt;VehicleTypesController -->
<g id="edge24" class="edge"><title>ApplicationController&#45;&gt;VehicleTypesController</title>
<path fill="none" stroke="black" d="M1020.49,-667.905C1011.18,-705.538 990.313,-795.43 983.036,-872.297 973.652,-971.41 978.833,-1091.01 981.352,-1135.9"/>
</g>
<!-- VehiclesController -->
<g id="node27" class="node"><title>VehiclesController</title>
<ellipse fill="none" stroke="black" cx="1134.06" cy="-152.084" rx="79.8859" ry="18"/>
<text text-anchor="middle" x="1134.06" y="-148.384" font-family="Times,serif" font-size="14.00">VehiclesController</text>
</g>
<!-- ApplicationController&#45;&gt;VehiclesController -->
<g id="edge25" class="edge"><title>ApplicationController&#45;&gt;VehiclesController</title>
<path fill="none" stroke="black" d="M1031.42,-631.901C1044.48,-594.242 1074.63,-504.212 1092.11,-426.628 1113.63,-331.142 1127.4,-214.458 1132.17,-170.236"/>
</g>
<!-- ZipsController -->
<g id="node28" class="node"><title>ZipsController</title>
<ellipse fill="none" stroke="black" cx="1499.21" cy="-1124.76" rx="64.189" ry="18"/>
<text text-anchor="middle" x="1499.21" y="-1121.06" font-family="Times,serif" font-size="14.00">ZipsController</text>
</g>
<!-- ApplicationController&#45;&gt;ZipsController -->
<g id="edge26" class="edge"><title>ApplicationController&#45;&gt;ZipsController</title>
<path fill="none" stroke="black" d="M1042.79,-667.654C1117.6,-742.579 1407.15,-1032.57 1481.65,-1107.18"/>
</g>
</g>
</svg>
