<?xml version="1.0" encoding="UTF-8" standalone="no"?>
<!DOCTYPE svg PUBLIC "-//W3C//DTD SVG 1.1//EN"
 "http://www.w3.org/Graphics/SVG/1.1/DTD/svg11.dtd">
<!-- Generated by graphviz version 2.29.20121209.0545 (20121209.0545)
 -->
<!-- Title: controllers_diagram Pages: 1 -->
<svg width="1601pt" height="993pt"
 viewBox="0.00 0.00 1601.47 992.73" xmlns="http://www.w3.org/2000/svg" xmlns:xlink="http://www.w3.org/1999/xlink">
<g id="graph0" class="graph" transform="scale(1 1) rotate(0) translate(4 988.729)">
<title>controllers_diagram</title>
<polygon fill="white" stroke="white" points="-4,5 -4,-988.729 1598.47,-988.729 1598.47,5 -4,5"/>
<!-- _diagram_info -->
<g id="node1" class="node"><title>_diagram_info</title>
<text text-anchor="start" x="1031" y="-63.6" font-family="Times,serif" font-size="13.00">Controllers diagram</text>
<text text-anchor="start" x="1031" y="-49.6" font-family="Times,serif" font-size="13.00">Date: Dec 12 2012 &#45; 17:05</text>
<text text-anchor="start" x="1031" y="-35.6" font-family="Times,serif" font-size="13.00">Migration version: 20121212215641</text>
<text text-anchor="start" x="1031" y="-21.6" font-family="Times,serif" font-size="13.00">Generated by RailRoady 1.1.0</text>
<text text-anchor="start" x="1031" y="-7.6" font-family="Times,serif" font-size="13.00">http://railroady.prestonlee.com</text>
</g>
<!-- AddendumsController -->
<g id="node2" class="node"><title>AddendumsController</title>
<ellipse fill="none" stroke="black" cx="96.9034" cy="-175.895" rx="92.0841" ry="18"/>
<text text-anchor="middle" x="96.9034" y="-172.195" font-family="Times,serif" font-size="14.00">AddendumsController</text>
</g>
<!-- ApplicationController -->
<g id="node3" class="node"><title>ApplicationController</title>
<ellipse fill="none" stroke="black" cx="834.848" cy="-523.727" rx="90.9839" ry="18"/>
<text text-anchor="middle" x="834.848" y="-520.027" font-family="Times,serif" font-size="14.00">ApplicationController</text>
</g>
<!-- ApplicationController&#45;&gt;AddendumsController -->
<g id="edge1" class="edge"><title>ApplicationController&#45;&gt;AddendumsController</title>
<path fill="none" stroke="black" d="M799.256,-506.95C674.449,-448.122 257.492,-251.589 132.57,-192.706"/>
</g>
<!-- DailyDataController -->
<g id="node4" class="node"><title>DailyDataController</title>
<ellipse fill="none" stroke="black" cx="782.64" cy="-111" rx="85.5853" ry="18"/>
<text text-anchor="middle" x="782.64" y="-107.3" font-family="Times,serif" font-size="14.00">DailyDataController</text>
</g>
<!-- ApplicationController&#45;&gt;DailyDataController -->
<g id="edge2" class="edge"><title>ApplicationController&#45;&gt;DailyDataController</title>
<path fill="none" stroke="black" d="M832.571,-505.727C823.975,-437.77 793.545,-197.211 784.929,-129.094"/>
</g>
<!-- DailyDataEmployeesController -->
<g id="node5" class="node"><title>DailyDataEmployeesController</title>
<ellipse fill="none" stroke="black" cx="660.229" cy="-966.729" rx="126.178" ry="18"/>
<text text-anchor="middle" x="660.229" y="-963.029" font-family="Times,serif" font-size="14.00">DailyDataEmployeesController</text>
</g>
<!-- ApplicationController&#45;&gt;DailyDataEmployeesController -->
<g id="edge3" class="edge"><title>ApplicationController&#45;&gt;DailyDataEmployeesController</title>
<path fill="none" stroke="black" d="M833.393,-541.988C830.063,-578.327 820.226,-661.861 796.037,-727.651 763.585,-815.914 700.656,-909.911 673.374,-948.55"/>
</g>
<!-- DailyDataVehiclesController -->
<g id="node6" class="node"><title>DailyDataVehiclesController</title>
<ellipse fill="none" stroke="black" cx="1191.97" cy="-662.464" rx="117.779" ry="18"/>
<text text-anchor="middle" x="1191.97" y="-658.764" font-family="Times,serif" font-size="14.00">DailyDataVehiclesController</text>
</g>
<!-- ApplicationController&#45;&gt;DailyDataVehiclesController -->
<g id="edge4" class="edge"><title>ApplicationController&#45;&gt;DailyDataVehiclesController</title>
<path fill="none" stroke="black" d="M876.164,-539.777C944.281,-566.24 1079.5,-618.77 1148.81,-645.696"/>
</g>
<!-- EmployeePsasController -->
<g id="node7" class="node"><title>EmployeePsasController</title>
<ellipse fill="none" stroke="black" cx="399.794" cy="-679.563" rx="101.282" ry="18"/>
<text text-anchor="middle" x="399.794" y="-675.863" font-family="Times,serif" font-size="14.00">EmployeePsasController</text>
</g>
<!-- ApplicationController&#45;&gt;EmployeePsasController -->
<g id="edge5" class="edge"><title>ApplicationController&#45;&gt;EmployeePsasController</title>
<path fill="none" stroke="black" d="M790.739,-539.527C707.678,-569.279 528.892,-633.32 444.998,-663.371"/>
</g>
<!-- EmployeesController -->
<g id="node8" class="node"><title>EmployeesController</title>
<ellipse fill="none" stroke="black" cx="467.338" cy="-127.581" rx="88.2844" ry="18"/>
<text text-anchor="middle" x="467.338" y="-123.881" font-family="Times,serif" font-size="14.00">EmployeesController</text>
</g>
<!-- ApplicationController&#45;&gt;EmployeesController -->
<g id="edge6" class="edge"><title>ApplicationController&#45;&gt;EmployeesController</title>
<path fill="none" stroke="black" d="M826.557,-505.615C810.325,-471.315 771.872,-395.5 725.652,-341.673 652.607,-256.605 543.356,-178.416 493.651,-144.861"/>
</g>
<!-- FedexContractsController -->
<g id="node9" class="node"><title>FedexContractsController</title>
<ellipse fill="none" stroke="black" cx="1455.73" cy="-411.601" rx="105.082" ry="18"/>
<text text-anchor="middle" x="1455.73" y="-407.901" font-family="Times,serif" font-size="14.00">FedexContractsController</text>
</g>
<!-- ApplicationController&#45;&gt;FedexContractsController -->
<g id="edge7" class="edge"><title>ApplicationController&#45;&gt;FedexContractsController</title>
<path fill="none" stroke="black" d="M902.179,-511.567C1019.9,-490.307 1262.13,-446.564 1383.33,-424.676"/>
</g>
<!-- NotesController -->
<g id="node10" class="node"><title>NotesController</title>
<ellipse fill="none" stroke="black" cx="654.509" cy="-341.58" rx="69.5877" ry="18"/>
<text text-anchor="middle" x="654.509" y="-337.88" font-family="Times,serif" font-size="14.00">NotesController</text>
</g>
<!-- ApplicationController&#45;&gt;NotesController -->
<g id="edge8" class="edge"><title>ApplicationController&#45;&gt;NotesController</title>
<path fill="none" stroke="black" d="M817.228,-505.93C782.663,-471.018 706.344,-393.934 671.935,-359.18"/>
</g>
<!-- PsaStatesController -->
<g id="node11" class="node"><title>PsaStatesController</title>
<ellipse fill="none" stroke="black" cx="1099.29" cy="-135.927" rx="82.5854" ry="18"/>
<text text-anchor="middle" x="1099.29" y="-132.227" font-family="Times,serif" font-size="14.00">PsaStatesController</text>
</g>
<!-- ApplicationController&#45;&gt;PsaStatesController -->
<g id="edge9" class="edge"><title>ApplicationController&#45;&gt;PsaStatesController</title>
<path fill="none" stroke="black" d="M847.542,-505.639C871.236,-471.829 923.739,-396.696 967.248,-332.903 1012.02,-267.259 1064.33,-188.638 1087.37,-153.917"/>
</g>
<!-- PsasController -->
<g id="node12" class="node"><title>PsasController</title>
<ellipse fill="none" stroke="black" cx="901.307" cy="-332.719" rx="64.189" ry="18"/>
<text text-anchor="middle" x="901.307" y="-329.019" font-family="Times,serif" font-size="14.00">PsasController</text>
</g>
<!-- ApplicationController&#45;&gt;PsasController -->
<g id="edge10" class="edge"><title>ApplicationController&#45;&gt;PsasController</title>
<path fill="none" stroke="black" d="M841.101,-505.757C853.767,-469.353 882.33,-387.261 895.022,-350.78"/>
</g>
<!-- PsazipsController -->
<g id="node13" class="node"><title>PsazipsController</title>
<ellipse fill="none" stroke="black" cx="75.3933" cy="-542.661" rx="75.2868" ry="18"/>
<text text-anchor="middle" x="75.3933" y="-538.961" font-family="Times,serif" font-size="14.00">PsazipsController</text>
</g>
<!-- ApplicationController&#45;&gt;PsazipsController -->
<g id="edge11" class="edge"><title>ApplicationController&#45;&gt;PsazipsController</title>
<path fill="none" stroke="black" d="M743.618,-524.056C701.024,-524.334 649.635,-524.846 603.442,-525.79 441.816,-529.092 252.446,-535.844 150.145,-539.73"/>
</g>
<!-- RegionsController -->
<g id="node14" class="node"><title>RegionsController</title>
<ellipse fill="none" stroke="black" cx="1515.48" cy="-654.301" rx="77.9862" ry="18"/>
<text text-anchor="middle" x="1515.48" y="-650.601" font-family="Times,serif" font-size="14.00">RegionsController</text>
</g>
<!-- ApplicationController&#45;&gt;RegionsController -->
<g id="edge12" class="edge"><title>ApplicationController&#45;&gt;RegionsController</title>
<path fill="none" stroke="black" d="M900.419,-536.306C1032.36,-561.617 1328.14,-618.36 1455.39,-642.773"/>
</g>
<!-- RolesController -->
<g id="node15" class="node"><title>RolesController</title>
<ellipse fill="none" stroke="black" cx="1472.02" cy="-948.068" rx="68.7879" ry="18"/>
<text text-anchor="middle" x="1472.02" y="-944.368" font-family="Times,serif" font-size="14.00">RolesController</text>
</g>
<!-- ApplicationController&#45;&gt;RolesController -->
<g id="edge13" class="edge"><title>ApplicationController&#45;&gt;RolesController</title>
<path fill="none" stroke="black" d="M861.014,-541.152C964.52,-610.085 1344.67,-863.257 1446.68,-931.195"/>
</g>
<!-- ServiceTypesController -->
<g id="node16" class="node"><title>ServiceTypesController</title>
<ellipse fill="none" stroke="black" cx="887.228" cy="-954.339" rx="97.4827" ry="18"/>
<text text-anchor="middle" x="887.228" y="-950.639" font-family="Times,serif" font-size="14.00">ServiceTypesController</text>
</g>
<!-- ApplicationController&#45;&gt;ServiceTypesController -->
<g id="edge14" class="edge"><title>ApplicationController&#45;&gt;ServiceTypesController</title>
<path fill="none" stroke="black" d="M837.066,-541.954C845.614,-612.229 876.381,-865.167 884.981,-935.866"/>
</g>
<!-- StatesController -->
<g id="node17" class="node"><title>StatesController</title>
<ellipse fill="none" stroke="black" cx="1118.91" cy="-426.367" rx="69.5877" ry="18"/>
<text text-anchor="middle" x="1118.91" y="-422.667" font-family="Times,serif" font-size="14.00">StatesController</text>
</g>
<!-- ApplicationController&#45;&gt;StatesController -->
<g id="edge15" class="edge"><title>ApplicationController&#45;&gt;StatesController</title>
<path fill="none" stroke="black" d="M880.488,-508.084C934.595,-489.539 1024.04,-458.883 1076.63,-440.858"/>
</g>
<!-- TerminalsController -->
<g id="node18" class="node"><title>TerminalsController</title>
<ellipse fill="none" stroke="black" cx="1470.19" cy="-143.502" rx="85.2851" ry="18"/>
<text text-anchor="middle" x="1470.19" y="-139.802" font-family="Times,serif" font-size="14.00">TerminalsController</text>
</g>
<!-- ApplicationController&#45;&gt;TerminalsController -->
<g id="edge16" class="edge"><title>ApplicationController&#45;&gt;TerminalsController</title>
<path fill="none" stroke="black" d="M863.798,-506.401C969.882,-442.914 1336.62,-223.434 1441.79,-160.495"/>
</g>
<!-- UserRolesController -->
<g id="node19" class="node"><title>UserRolesController</title>
<ellipse fill="none" stroke="black" cx="415.766" cy="-954.873" rx="85.5853" ry="18"/>
<text text-anchor="middle" x="415.766" y="-951.173" font-family="Times,serif" font-size="14.00">UserRolesController</text>
</g>
<!-- ApplicationController&#45;&gt;UserRolesController -->
<g id="edge17" class="edge"><title>ApplicationController&#45;&gt;UserRolesController</title>
<path fill="none" stroke="black" d="M812.054,-541.332C768.779,-575.221 672.599,-652.783 600.459,-727.375 530.079,-800.147 457.515,-897.25 428.69,-936.883"/>
</g>
<!-- UsersController -->
<g id="node20" class="node"><title>UsersController</title>
<ellipse fill="none" stroke="black" cx="84.9679" cy="-908.778" rx="68.7879" ry="18"/>
<text text-anchor="middle" x="84.9679" y="-905.078" font-family="Times,serif" font-size="14.00">UsersController</text>
</g>
<!-- ApplicationController&#45;&gt;UsersController -->
<g id="edge18" class="edge"><title>ApplicationController&#45;&gt;UsersController</title>
<path fill="none" stroke="black" d="M801.659,-540.769C677.085,-604.736 238.287,-830.051 116.516,-892.579"/>
</g>
<!-- VehicleFuelsController -->
<g id="node21" class="node"><title>VehicleFuelsController</title>
<ellipse fill="none" stroke="black" cx="698.248" cy="-727.513" rx="96.3833" ry="18"/>
<text text-anchor="middle" x="698.248" y="-723.813" font-family="Times,serif" font-size="14.00">VehicleFuelsController</text>
</g>
<!-- ApplicationController&#45;&gt;VehicleFuelsController -->
<g id="edge19" class="edge"><title>ApplicationController&#45;&gt;VehicleFuelsController</title>
<path fill="none" stroke="black" d="M822.726,-541.811C796.804,-580.483 736.241,-670.833 710.343,-709.469"/>
</g>
<!-- VehicleOdometersController -->
<g id="node22" class="node"><title>VehicleOdometersController</title>
<ellipse fill="none" stroke="black" cx="602.545" cy="-545.389" rx="116.18" ry="18"/>
<text text-anchor="middle" x="602.545" y="-541.689" font-family="Times,serif" font-size="14.00">VehicleOdometersController</text>
</g>
<!-- ApplicationController&#45;&gt;VehicleOdometersController -->
<g id="edge20" class="edge"><title>ApplicationController&#45;&gt;VehicleOdometersController</title>
<path fill="none" stroke="black" d="M752.293,-531.425C736.122,-532.933 719,-534.529 702.337,-536.083"/>
</g>
<!-- VehicleTypesController -->
<g id="node23" class="node"><title>VehicleTypesController</title>
<ellipse fill="none" stroke="black" cx="385.441" cy="-407.433" rx="98.5829" ry="18"/>
<text text-anchor="middle" x="385.441" y="-403.733" font-family="Times,serif" font-size="14.00">VehicleTypesController</text>
</g>
<!-- ApplicationController&#45;&gt;VehicleTypesController -->
<g id="edge21" class="edge"><title>ApplicationController&#45;&gt;VehicleTypesController</title>
<path fill="none" stroke="black" d="M779.291,-509.35C693.456,-487.138 529.462,-444.701 442.641,-422.234"/>
</g>
<!-- VehiclesController -->
<g id="node24" class="node"><title>VehiclesController</title>
<ellipse fill="none" stroke="black" cx="953.299" cy="-689.087" rx="79.8859" ry="18"/>
<text text-anchor="middle" x="953.299" y="-685.387" font-family="Times,serif" font-size="14.00">VehiclesController</text>
</g>
<!-- ApplicationController&#45;&gt;VehiclesController -->
<g id="edge22" class="edge"><title>ApplicationController&#45;&gt;VehiclesController</title>
<path fill="none" stroke="black" d="M847.75,-541.738C870.535,-573.546 917.639,-639.305 940.413,-671.098"/>
</g>
<!-- ZipsController -->
<g id="node25" class="node"><title>ZipsController</title>
<ellipse fill="none" stroke="black" cx="1132.24" cy="-948.767" rx="64.189" ry="18"/>
<text text-anchor="middle" x="1132.24" y="-945.067" font-family="Times,serif" font-size="14.00">ZipsController</text>
</g>
<!-- ApplicationController&#45;&gt;ZipsController -->
<g id="edge23" class="edge"><title>ApplicationController&#45;&gt;ZipsController</title>
<path fill="none" stroke="black" d="M864.096,-540.911C907.124,-567.565 987.494,-622.785 1034.84,-689.206 1091.69,-768.964 1119.71,-885.936 1128.81,-930.559"/>
</g>
</g>
</svg>
