<?xml version="1.0" encoding="UTF-8" standalone="no"?>
<!DOCTYPE svg PUBLIC "-//W3C//DTD SVG 1.1//EN"
 "http://www.w3.org/Graphics/SVG/1.1/DTD/svg11.dtd">
<!-- Generated by graphviz version 2.29.20121209.0545 (20121209.0545)
 -->
<!-- Title: controllers_diagram Pages: 1 -->
<svg width="1308pt" height="1196pt"
 viewBox="0.00 0.00 1308.00 1196.17" xmlns="http://www.w3.org/2000/svg" xmlns:xlink="http://www.w3.org/1999/xlink">
<g id="graph0" class="graph" transform="scale(1 1) rotate(0) translate(4 1192.17)">
<title>controllers_diagram</title>
<polygon fill="white" stroke="white" points="-4,5 -4,-1192.17 1305,-1192.17 1305,5 -4,5"/>
<!-- _diagram_info -->
<g id="node1" class="node"><title>_diagram_info</title>
<text text-anchor="start" x="1100" y="-63.6" font-family="Times,serif" font-size="13.00">Controllers diagram</text>
<text text-anchor="start" x="1100" y="-49.6" font-family="Times,serif" font-size="13.00">Date: Dec 12 2012 &#45; 16:49</text>
<text text-anchor="start" x="1100" y="-35.6" font-family="Times,serif" font-size="13.00">Migration version: 20121212214602</text>
<text text-anchor="start" x="1100" y="-21.6" font-family="Times,serif" font-size="13.00">Generated by RailRoady 1.1.0</text>
<text text-anchor="start" x="1100" y="-7.6" font-family="Times,serif" font-size="13.00">http://railroady.prestonlee.com</text>
</g>
<!-- AddendumsController -->
<g id="node2" class="node"><title>AddendumsController</title>
<path fill="none" stroke="black" d="M24.3519,-265.716C24.3519,-265.716 142.352,-265.716 142.352,-265.716 148.352,-265.716 154.352,-271.716 154.352,-277.716 154.352,-277.716 154.352,-436.716 154.352,-436.716 154.352,-442.716 148.352,-448.716 142.352,-448.716 142.352,-448.716 24.3519,-448.716 24.3519,-448.716 18.3519,-448.716 12.3519,-442.716 12.3519,-436.716 12.3519,-436.716 12.3519,-277.716 12.3519,-277.716 12.3519,-271.716 18.3519,-265.716 24.3519,-265.716"/>
<text text-anchor="middle" x="83.3519" y="-433.516" font-family="Times,serif" font-size="14.00">AddendumsController</text>
<polyline fill="none" stroke="black" points="12.3519,-425.716 154.352,-425.716 "/>
<text text-anchor="start" x="20.3519" y="-410.516" font-family="Times,serif" font-size="14.00">create</text>
<text text-anchor="start" x="20.3519" y="-395.516" font-family="Times,serif" font-size="14.00">destroy</text>
<text text-anchor="start" x="20.3519" y="-380.516" font-family="Times,serif" font-size="14.00">edit</text>
<text text-anchor="start" x="20.3519" y="-365.516" font-family="Times,serif" font-size="14.00">index</text>
<text text-anchor="start" x="20.3519" y="-350.516" font-family="Times,serif" font-size="14.00">new</text>
<text text-anchor="start" x="20.3519" y="-335.516" font-family="Times,serif" font-size="14.00">show</text>
<text text-anchor="start" x="20.3519" y="-320.516" font-family="Times,serif" font-size="14.00">update</text>
<polyline fill="none" stroke="black" points="12.3519,-312.716 154.352,-312.716 "/>
<polyline fill="none" stroke="black" points="12.3519,-288.716 154.352,-288.716 "/>
<text text-anchor="start" x="20.3519" y="-273.516" font-family="Times,serif" font-size="14.00">_layout</text>
</g>
<!-- ApplicationController -->
<g id="node3" class="node"><title>ApplicationController</title>
<path fill="none" stroke="black" d="M419.851,-549.757C419.851,-549.757 591.851,-549.757 591.851,-549.757 597.851,-549.757 603.851,-555.757 603.851,-561.757 603.851,-561.757 603.851,-630.757 603.851,-630.757 603.851,-636.757 597.851,-642.757 591.851,-642.757 591.851,-642.757 419.851,-642.757 419.851,-642.757 413.851,-642.757 407.851,-636.757 407.851,-630.757 407.851,-630.757 407.851,-561.757 407.851,-561.757 407.851,-555.757 413.851,-549.757 419.851,-549.757"/>
<text text-anchor="middle" x="505.851" y="-627.557" font-family="Times,serif" font-size="14.00">ApplicationController</text>
<polyline fill="none" stroke="black" points="407.851,-619.757 603.851,-619.757 "/>
<text text-anchor="start" x="415.851" y="-604.557" font-family="Times,serif" font-size="14.00">_one_time_conditions_valid_8?</text>
<polyline fill="none" stroke="black" points="407.851,-596.757 603.851,-596.757 "/>
<polyline fill="none" stroke="black" points="407.851,-572.757 603.851,-572.757 "/>
<text text-anchor="start" x="415.851" y="-557.557" font-family="Times,serif" font-size="14.00">_layout</text>
</g>
<!-- ApplicationController&#45;&gt;AddendumsController -->
<g id="edge1" class="edge"><title>ApplicationController&#45;&gt;AddendumsController</title>
<path fill="none" stroke="black" d="M490.989,-549.446C473.044,-501.512 437.845,-429.349 380.042,-395.274 368.14,-388.258 269.606,-390.194 255.885,-388.584 222.322,-384.644 185.427,-378.224 154.4,-372.214"/>
</g>
<!-- DailyDataController -->
<g id="node4" class="node"><title>DailyDataController</title>
<path fill="none" stroke="black" d="M331.964,-0.5C331.964,-0.5 439.964,-0.5 439.964,-0.5 445.964,-0.5 451.964,-6.5 451.964,-12.5 451.964,-12.5 451.964,-171.5 451.964,-171.5 451.964,-177.5 445.964,-183.5 439.964,-183.5 439.964,-183.5 331.964,-183.5 331.964,-183.5 325.964,-183.5 319.964,-177.5 319.964,-171.5 319.964,-171.5 319.964,-12.5 319.964,-12.5 319.964,-6.5 325.964,-0.5 331.964,-0.5"/>
<text text-anchor="middle" x="385.964" y="-168.3" font-family="Times,serif" font-size="14.00">DailyDataController</text>
<polyline fill="none" stroke="black" points="319.964,-160.5 451.964,-160.5 "/>
<text text-anchor="start" x="327.964" y="-145.3" font-family="Times,serif" font-size="14.00">create</text>
<text text-anchor="start" x="327.964" y="-130.3" font-family="Times,serif" font-size="14.00">destroy</text>
<text text-anchor="start" x="327.964" y="-115.3" font-family="Times,serif" font-size="14.00">edit</text>
<text text-anchor="start" x="327.964" y="-100.3" font-family="Times,serif" font-size="14.00">index</text>
<text text-anchor="start" x="327.964" y="-85.3" font-family="Times,serif" font-size="14.00">new</text>
<text text-anchor="start" x="327.964" y="-70.3" font-family="Times,serif" font-size="14.00">show</text>
<text text-anchor="start" x="327.964" y="-55.3" font-family="Times,serif" font-size="14.00">update</text>
<polyline fill="none" stroke="black" points="319.964,-47.5 451.964,-47.5 "/>
<polyline fill="none" stroke="black" points="319.964,-23.5 451.964,-23.5 "/>
<text text-anchor="start" x="327.964" y="-8.3" font-family="Times,serif" font-size="14.00">_layout</text>
</g>
<!-- ApplicationController&#45;&gt;DailyDataController -->
<g id="edge2" class="edge"><title>ApplicationController&#45;&gt;DailyDataController</title>
<path fill="none" stroke="black" d="M494.787,-549.722C475.049,-466.703 433.435,-291.666 407.771,-183.719"/>
</g>
<!-- DailyDataVehiclesController -->
<g id="node5" class="node"><title>DailyDataVehiclesController</title>
<path fill="none" stroke="black" d="M311.02,-1004.67C311.02,-1004.67 468.02,-1004.67 468.02,-1004.67 474.02,-1004.67 480.02,-1010.67 480.02,-1016.67 480.02,-1016.67 480.02,-1175.67 480.02,-1175.67 480.02,-1181.67 474.02,-1187.67 468.02,-1187.67 468.02,-1187.67 311.02,-1187.67 311.02,-1187.67 305.02,-1187.67 299.02,-1181.67 299.02,-1175.67 299.02,-1175.67 299.02,-1016.67 299.02,-1016.67 299.02,-1010.67 305.02,-1004.67 311.02,-1004.67"/>
<text text-anchor="middle" x="389.52" y="-1172.47" font-family="Times,serif" font-size="14.00">DailyDataVehiclesController</text>
<polyline fill="none" stroke="black" points="299.02,-1164.67 480.02,-1164.67 "/>
<text text-anchor="start" x="307.02" y="-1149.47" font-family="Times,serif" font-size="14.00">create</text>
<text text-anchor="start" x="307.02" y="-1134.47" font-family="Times,serif" font-size="14.00">destroy</text>
<text text-anchor="start" x="307.02" y="-1119.47" font-family="Times,serif" font-size="14.00">edit</text>
<text text-anchor="start" x="307.02" y="-1104.47" font-family="Times,serif" font-size="14.00">index</text>
<text text-anchor="start" x="307.02" y="-1089.47" font-family="Times,serif" font-size="14.00">new</text>
<text text-anchor="start" x="307.02" y="-1074.47" font-family="Times,serif" font-size="14.00">show</text>
<text text-anchor="start" x="307.02" y="-1059.47" font-family="Times,serif" font-size="14.00">update</text>
<polyline fill="none" stroke="black" points="299.02,-1051.67 480.02,-1051.67 "/>
<polyline fill="none" stroke="black" points="299.02,-1027.67 480.02,-1027.67 "/>
<text text-anchor="start" x="307.02" y="-1012.47" font-family="Times,serif" font-size="14.00">_layout</text>
</g>
<!-- ApplicationController&#45;&gt;DailyDataVehiclesController -->
<g id="edge3" class="edge"><title>ApplicationController&#45;&gt;DailyDataVehiclesController</title>
<path fill="none" stroke="black" d="M474.301,-643.021C455.733,-673.009 433.64,-713.518 421.83,-752.602 396.79,-835.472 389.723,-934.254 388.318,-1004.58"/>
</g>
<!-- EmployeePsasController -->
<g id="node6" class="node"><title>EmployeePsasController</title>
<path fill="none" stroke="black" d="M624.452,-671.49C624.452,-671.49 756.452,-671.49 756.452,-671.49 762.452,-671.49 768.452,-677.49 768.452,-683.49 768.452,-683.49 768.452,-842.49 768.452,-842.49 768.452,-848.49 762.452,-854.49 756.452,-854.49 756.452,-854.49 624.452,-854.49 624.452,-854.49 618.452,-854.49 612.452,-848.49 612.452,-842.49 612.452,-842.49 612.452,-683.49 612.452,-683.49 612.452,-677.49 618.452,-671.49 624.452,-671.49"/>
<text text-anchor="middle" x="690.452" y="-839.29" font-family="Times,serif" font-size="14.00">EmployeePsasController</text>
<polyline fill="none" stroke="black" points="612.452,-831.49 768.452,-831.49 "/>
<text text-anchor="start" x="620.452" y="-816.29" font-family="Times,serif" font-size="14.00">create</text>
<text text-anchor="start" x="620.452" y="-801.29" font-family="Times,serif" font-size="14.00">destroy</text>
<text text-anchor="start" x="620.452" y="-786.29" font-family="Times,serif" font-size="14.00">edit</text>
<text text-anchor="start" x="620.452" y="-771.29" font-family="Times,serif" font-size="14.00">index</text>
<text text-anchor="start" x="620.452" y="-756.29" font-family="Times,serif" font-size="14.00">new</text>
<text text-anchor="start" x="620.452" y="-741.29" font-family="Times,serif" font-size="14.00">show</text>
<text text-anchor="start" x="620.452" y="-726.29" font-family="Times,serif" font-size="14.00">update</text>
<polyline fill="none" stroke="black" points="612.452,-718.49 768.452,-718.49 "/>
<polyline fill="none" stroke="black" points="612.452,-694.49 768.452,-694.49 "/>
<text text-anchor="start" x="620.452" y="-679.29" font-family="Times,serif" font-size="14.00">_layout</text>
</g>
<!-- ApplicationController&#45;&gt;EmployeePsasController -->
<g id="edge4" class="edge"><title>ApplicationController&#45;&gt;EmployeePsasController</title>
<path fill="none" stroke="black" d="M557.764,-643.145C574.72,-658.46 593.941,-675.82 612.385,-692.479"/>
</g>
<!-- EmployeesController -->
<g id="node7" class="node"><title>EmployeesController</title>
<path fill="none" stroke="black" d="M246.964,-602.253C246.964,-602.253 358.964,-602.253 358.964,-602.253 364.964,-602.253 370.964,-608.253 370.964,-614.253 370.964,-614.253 370.964,-773.253 370.964,-773.253 370.964,-779.253 364.964,-785.253 358.964,-785.253 358.964,-785.253 246.964,-785.253 246.964,-785.253 240.964,-785.253 234.964,-779.253 234.964,-773.253 234.964,-773.253 234.964,-614.253 234.964,-614.253 234.964,-608.253 240.964,-602.253 246.964,-602.253"/>
<text text-anchor="middle" x="302.964" y="-770.053" font-family="Times,serif" font-size="14.00">EmployeesController</text>
<polyline fill="none" stroke="black" points="234.964,-762.253 370.964,-762.253 "/>
<text text-anchor="start" x="242.964" y="-747.053" font-family="Times,serif" font-size="14.00">create</text>
<text text-anchor="start" x="242.964" y="-732.053" font-family="Times,serif" font-size="14.00">destroy</text>
<text text-anchor="start" x="242.964" y="-717.053" font-family="Times,serif" font-size="14.00">edit</text>
<text text-anchor="start" x="242.964" y="-702.053" font-family="Times,serif" font-size="14.00">index</text>
<text text-anchor="start" x="242.964" y="-687.053" font-family="Times,serif" font-size="14.00">new</text>
<text text-anchor="start" x="242.964" y="-672.053" font-family="Times,serif" font-size="14.00">show</text>
<text text-anchor="start" x="242.964" y="-657.053" font-family="Times,serif" font-size="14.00">update</text>
<polyline fill="none" stroke="black" points="234.964,-649.253 370.964,-649.253 "/>
<polyline fill="none" stroke="black" points="234.964,-625.253 370.964,-625.253 "/>
<text text-anchor="start" x="242.964" y="-610.053" font-family="Times,serif" font-size="14.00">_layout</text>
</g>
<!-- ApplicationController&#45;&gt;EmployeesController -->
<g id="edge5" class="edge"><title>ApplicationController&#45;&gt;EmployeesController</title>
<path fill="none" stroke="black" d="M408.864,-642.863C396.129,-648.983 383.3,-655.148 371.182,-660.971"/>
</g>
<!-- FedexContractsController -->
<g id="node8" class="node"><title>FedexContractsController</title>
<path fill="none" stroke="black" d="M36.2132,-17.2009C36.2132,-17.2009 174.213,-17.2009 174.213,-17.2009 180.213,-17.2009 186.213,-23.2009 186.213,-29.2009 186.213,-29.2009 186.213,-188.201 186.213,-188.201 186.213,-194.201 180.213,-200.201 174.213,-200.201 174.213,-200.201 36.2132,-200.201 36.2132,-200.201 30.2132,-200.201 24.2132,-194.201 24.2132,-188.201 24.2132,-188.201 24.2132,-29.2009 24.2132,-29.2009 24.2132,-23.2009 30.2132,-17.2009 36.2132,-17.2009"/>
<text text-anchor="middle" x="105.213" y="-185.001" font-family="Times,serif" font-size="14.00">FedexContractsController</text>
<polyline fill="none" stroke="black" points="24.2132,-177.201 186.213,-177.201 "/>
<text text-anchor="start" x="32.2132" y="-162.001" font-family="Times,serif" font-size="14.00">create</text>
<text text-anchor="start" x="32.2132" y="-147.001" font-family="Times,serif" font-size="14.00">destroy</text>
<text text-anchor="start" x="32.2132" y="-132.001" font-family="Times,serif" font-size="14.00">edit</text>
<text text-anchor="start" x="32.2132" y="-117.001" font-family="Times,serif" font-size="14.00">index</text>
<text text-anchor="start" x="32.2132" y="-102.001" font-family="Times,serif" font-size="14.00">new</text>
<text text-anchor="start" x="32.2132" y="-87.0009" font-family="Times,serif" font-size="14.00">show</text>
<text text-anchor="start" x="32.2132" y="-72.0009" font-family="Times,serif" font-size="14.00">update</text>
<polyline fill="none" stroke="black" points="24.2132,-64.2009 186.213,-64.2009 "/>
<polyline fill="none" stroke="black" points="24.2132,-40.2009 186.213,-40.2009 "/>
<text text-anchor="start" x="32.2132" y="-25.0009" font-family="Times,serif" font-size="14.00">_layout</text>
</g>
<!-- ApplicationController&#45;&gt;FedexContractsController -->
<g id="edge6" class="edge"><title>ApplicationController&#45;&gt;FedexContractsController</title>
<path fill="none" stroke="black" d="M490.989,-549.446C473.044,-501.512 437.845,-429.349 380.042,-395.274 356.239,-381.242 279.215,-403.386 255.885,-388.584 220.763,-366.299 174.757,-273.206 142.866,-200.426"/>
</g>
<!-- NotesController -->
<g id="node9" class="node"><title>NotesController</title>
<path fill="none" stroke="black" d="M829.929,-257.01C829.929,-257.01 912.929,-257.01 912.929,-257.01 918.929,-257.01 924.929,-263.01 924.929,-269.01 924.929,-269.01 924.929,-428.01 924.929,-428.01 924.929,-434.01 918.929,-440.01 912.929,-440.01 912.929,-440.01 829.929,-440.01 829.929,-440.01 823.929,-440.01 817.929,-434.01 817.929,-428.01 817.929,-428.01 817.929,-269.01 817.929,-269.01 817.929,-263.01 823.929,-257.01 829.929,-257.01"/>
<text text-anchor="middle" x="871.429" y="-424.81" font-family="Times,serif" font-size="14.00">NotesController</text>
<polyline fill="none" stroke="black" points="817.929,-417.01 924.929,-417.01 "/>
<text text-anchor="start" x="825.929" y="-401.81" font-family="Times,serif" font-size="14.00">create</text>
<text text-anchor="start" x="825.929" y="-386.81" font-family="Times,serif" font-size="14.00">destroy</text>
<text text-anchor="start" x="825.929" y="-371.81" font-family="Times,serif" font-size="14.00">edit</text>
<text text-anchor="start" x="825.929" y="-356.81" font-family="Times,serif" font-size="14.00">index</text>
<text text-anchor="start" x="825.929" y="-341.81" font-family="Times,serif" font-size="14.00">new</text>
<text text-anchor="start" x="825.929" y="-326.81" font-family="Times,serif" font-size="14.00">show</text>
<text text-anchor="start" x="825.929" y="-311.81" font-family="Times,serif" font-size="14.00">update</text>
<polyline fill="none" stroke="black" points="817.929,-304.01 924.929,-304.01 "/>
<polyline fill="none" stroke="black" points="817.929,-280.01 924.929,-280.01 "/>
<text text-anchor="start" x="825.929" y="-264.81" font-family="Times,serif" font-size="14.00">_layout</text>
</g>
<!-- ApplicationController&#45;&gt;NotesController -->
<g id="edge7" class="edge"><title>ApplicationController&#45;&gt;NotesController</title>
<path fill="none" stroke="black" d="M549.141,-549.513C575.053,-519.253 606.737,-477.867 626.749,-436.315 629.443,-430.722 625.929,-427.277 630.211,-422.783 679.255,-371.313 763.027,-355.251 817.805,-350.389"/>
</g>
<!-- PsaStatesController -->
<g id="node10" class="node"><title>PsaStatesController</title>
<path fill="none" stroke="black" d="M271.085,-202.384C271.085,-202.384 374.085,-202.384 374.085,-202.384 380.085,-202.384 386.085,-208.384 386.085,-214.384 386.085,-214.384 386.085,-373.384 386.085,-373.384 386.085,-379.384 380.085,-385.384 374.085,-385.384 374.085,-385.384 271.085,-385.384 271.085,-385.384 265.085,-385.384 259.085,-379.384 259.085,-373.384 259.085,-373.384 259.085,-214.384 259.085,-214.384 259.085,-208.384 265.085,-202.384 271.085,-202.384"/>
<text text-anchor="middle" x="322.585" y="-370.184" font-family="Times,serif" font-size="14.00">PsaStatesController</text>
<polyline fill="none" stroke="black" points="259.085,-362.384 386.085,-362.384 "/>
<text text-anchor="start" x="267.085" y="-347.184" font-family="Times,serif" font-size="14.00">create</text>
<text text-anchor="start" x="267.085" y="-332.184" font-family="Times,serif" font-size="14.00">destroy</text>
<text text-anchor="start" x="267.085" y="-317.184" font-family="Times,serif" font-size="14.00">edit</text>
<text text-anchor="start" x="267.085" y="-302.184" font-family="Times,serif" font-size="14.00">index</text>
<text text-anchor="start" x="267.085" y="-287.184" font-family="Times,serif" font-size="14.00">new</text>
<text text-anchor="start" x="267.085" y="-272.184" font-family="Times,serif" font-size="14.00">show</text>
<text text-anchor="start" x="267.085" y="-257.184" font-family="Times,serif" font-size="14.00">update</text>
<polyline fill="none" stroke="black" points="259.085,-249.384 386.085,-249.384 "/>
<polyline fill="none" stroke="black" points="259.085,-225.384 386.085,-225.384 "/>
<text text-anchor="start" x="267.085" y="-210.184" font-family="Times,serif" font-size="14.00">_layout</text>
</g>
<!-- ApplicationController&#45;&gt;PsaStatesController -->
<g id="edge8" class="edge"><title>ApplicationController&#45;&gt;PsaStatesController</title>
<path fill="none" stroke="black" d="M477.617,-549.674C451.21,-506.105 411.026,-439.804 378.186,-385.62"/>
</g>
<!-- PsasController -->
<g id="node11" class="node"><title>PsasController</title>
<path fill="none" stroke="black" d="M603.401,-24.0953C603.401,-24.0953 678.401,-24.0953 678.401,-24.0953 684.401,-24.0953 690.401,-30.0953 690.401,-36.0953 690.401,-36.0953 690.401,-195.095 690.401,-195.095 690.401,-201.095 684.401,-207.095 678.401,-207.095 678.401,-207.095 603.401,-207.095 603.401,-207.095 597.401,-207.095 591.401,-201.095 591.401,-195.095 591.401,-195.095 591.401,-36.0953 591.401,-36.0953 591.401,-30.0953 597.401,-24.0953 603.401,-24.0953"/>
<text text-anchor="middle" x="640.901" y="-191.895" font-family="Times,serif" font-size="14.00">PsasController</text>
<polyline fill="none" stroke="black" points="591.401,-184.095 690.401,-184.095 "/>
<text text-anchor="start" x="599.401" y="-168.895" font-family="Times,serif" font-size="14.00">create</text>
<text text-anchor="start" x="599.401" y="-153.895" font-family="Times,serif" font-size="14.00">destroy</text>
<text text-anchor="start" x="599.401" y="-138.895" font-family="Times,serif" font-size="14.00">edit</text>
<text text-anchor="start" x="599.401" y="-123.895" font-family="Times,serif" font-size="14.00">index</text>
<text text-anchor="start" x="599.401" y="-108.895" font-family="Times,serif" font-size="14.00">new</text>
<text text-anchor="start" x="599.401" y="-93.8953" font-family="Times,serif" font-size="14.00">show</text>
<text text-anchor="start" x="599.401" y="-78.8953" font-family="Times,serif" font-size="14.00">update</text>
<polyline fill="none" stroke="black" points="591.401,-71.0953 690.401,-71.0953 "/>
<polyline fill="none" stroke="black" points="591.401,-47.0953 690.401,-47.0953 "/>
<text text-anchor="start" x="599.401" y="-31.8953" font-family="Times,serif" font-size="14.00">_layout</text>
</g>
<!-- ApplicationController&#45;&gt;PsasController -->
<g id="edge9" class="edge"><title>ApplicationController&#45;&gt;PsasController</title>
<path fill="none" stroke="black" d="M553.432,-549.442C580.242,-519.78 611.358,-479.052 626.749,-436.315 634.327,-415.274 637.965,-294.551 639.625,-207.409"/>
</g>
<!-- PsazipsController -->
<g id="node12" class="node"><title>PsazipsController</title>
<path fill="none" stroke="black" d="M519.549,-250.115C519.549,-250.115 611.549,-250.115 611.549,-250.115 617.549,-250.115 623.549,-256.115 623.549,-262.115 623.549,-262.115 623.549,-421.115 623.549,-421.115 623.549,-427.115 617.549,-433.115 611.549,-433.115 611.549,-433.115 519.549,-433.115 519.549,-433.115 513.549,-433.115 507.549,-427.115 507.549,-421.115 507.549,-421.115 507.549,-262.115 507.549,-262.115 507.549,-256.115 513.549,-250.115 519.549,-250.115"/>
<text text-anchor="middle" x="565.549" y="-417.915" font-family="Times,serif" font-size="14.00">PsazipsController</text>
<polyline fill="none" stroke="black" points="507.549,-410.115 623.549,-410.115 "/>
<text text-anchor="start" x="515.549" y="-394.915" font-family="Times,serif" font-size="14.00">create</text>
<text text-anchor="start" x="515.549" y="-379.915" font-family="Times,serif" font-size="14.00">destroy</text>
<text text-anchor="start" x="515.549" y="-364.915" font-family="Times,serif" font-size="14.00">edit</text>
<text text-anchor="start" x="515.549" y="-349.915" font-family="Times,serif" font-size="14.00">index</text>
<text text-anchor="start" x="515.549" y="-334.915" font-family="Times,serif" font-size="14.00">new</text>
<text text-anchor="start" x="515.549" y="-319.915" font-family="Times,serif" font-size="14.00">show</text>
<text text-anchor="start" x="515.549" y="-304.915" font-family="Times,serif" font-size="14.00">update</text>
<polyline fill="none" stroke="black" points="507.549,-297.115 623.549,-297.115 "/>
<polyline fill="none" stroke="black" points="507.549,-273.115 623.549,-273.115 "/>
<text text-anchor="start" x="515.549" y="-257.915" font-family="Times,serif" font-size="14.00">_layout</text>
</g>
<!-- ApplicationController&#45;&gt;PsazipsController -->
<g id="edge10" class="edge"><title>ApplicationController&#45;&gt;PsazipsController</title>
<path fill="none" stroke="black" d="M516.8,-549.552C524.425,-517.031 534.843,-472.589 544.092,-433.139"/>
</g>
<!-- RegionsController -->
<g id="node13" class="node"><title>RegionsController</title>
<path fill="none" stroke="black" d="M35.4289,-497.229C35.4289,-497.229 131.429,-497.229 131.429,-497.229 137.429,-497.229 143.429,-503.229 143.429,-509.229 143.429,-509.229 143.429,-668.229 143.429,-668.229 143.429,-674.229 137.429,-680.229 131.429,-680.229 131.429,-680.229 35.4289,-680.229 35.4289,-680.229 29.4289,-680.229 23.4289,-674.229 23.4289,-668.229 23.4289,-668.229 23.4289,-509.229 23.4289,-509.229 23.4289,-503.229 29.4289,-497.229 35.4289,-497.229"/>
<text text-anchor="middle" x="83.4289" y="-665.029" font-family="Times,serif" font-size="14.00">RegionsController</text>
<polyline fill="none" stroke="black" points="23.4289,-657.229 143.429,-657.229 "/>
<text text-anchor="start" x="31.4289" y="-642.029" font-family="Times,serif" font-size="14.00">create</text>
<text text-anchor="start" x="31.4289" y="-627.029" font-family="Times,serif" font-size="14.00">destroy</text>
<text text-anchor="start" x="31.4289" y="-612.029" font-family="Times,serif" font-size="14.00">edit</text>
<text text-anchor="start" x="31.4289" y="-597.029" font-family="Times,serif" font-size="14.00">index</text>
<text text-anchor="start" x="31.4289" y="-582.029" font-family="Times,serif" font-size="14.00">new</text>
<text text-anchor="start" x="31.4289" y="-567.029" font-family="Times,serif" font-size="14.00">show</text>
<text text-anchor="start" x="31.4289" y="-552.029" font-family="Times,serif" font-size="14.00">update</text>
<polyline fill="none" stroke="black" points="23.4289,-544.229 143.429,-544.229 "/>
<polyline fill="none" stroke="black" points="23.4289,-520.229 143.429,-520.229 "/>
<text text-anchor="start" x="31.4289" y="-505.029" font-family="Times,serif" font-size="14.00">_layout</text>
</g>
<!-- ApplicationController&#45;&gt;RegionsController -->
<g id="edge11" class="edge"><title>ApplicationController&#45;&gt;RegionsController</title>
<path fill="none" stroke="black" d="M407.611,-594.506C325.951,-593.051 212.367,-591.027 143.594,-589.801"/>
</g>
<!-- RolesController -->
<g id="node14" class="node"><title>RolesController</title>
<path fill="none" stroke="black" d="M864.311,-504.235C864.311,-504.235 946.311,-504.235 946.311,-504.235 952.311,-504.235 958.311,-510.235 958.311,-516.235 958.311,-516.235 958.311,-675.235 958.311,-675.235 958.311,-681.235 952.311,-687.235 946.311,-687.235 946.311,-687.235 864.311,-687.235 864.311,-687.235 858.311,-687.235 852.311,-681.235 852.311,-675.235 852.311,-675.235 852.311,-516.235 852.311,-516.235 852.311,-510.235 858.311,-504.235 864.311,-504.235"/>
<text text-anchor="middle" x="905.311" y="-672.035" font-family="Times,serif" font-size="14.00">RolesController</text>
<polyline fill="none" stroke="black" points="852.311,-664.235 958.311,-664.235 "/>
<text text-anchor="start" x="860.311" y="-649.035" font-family="Times,serif" font-size="14.00">create</text>
<text text-anchor="start" x="860.311" y="-634.035" font-family="Times,serif" font-size="14.00">destroy</text>
<text text-anchor="start" x="860.311" y="-619.035" font-family="Times,serif" font-size="14.00">edit</text>
<text text-anchor="start" x="860.311" y="-604.035" font-family="Times,serif" font-size="14.00">index</text>
<text text-anchor="start" x="860.311" y="-589.035" font-family="Times,serif" font-size="14.00">new</text>
<text text-anchor="start" x="860.311" y="-574.035" font-family="Times,serif" font-size="14.00">show</text>
<text text-anchor="start" x="860.311" y="-559.035" font-family="Times,serif" font-size="14.00">update</text>
<polyline fill="none" stroke="black" points="852.311,-551.235 958.311,-551.235 "/>
<polyline fill="none" stroke="black" points="852.311,-527.235 958.311,-527.235 "/>
<text text-anchor="start" x="860.311" y="-512.035" font-family="Times,serif" font-size="14.00">_layout</text>
</g>
<!-- ApplicationController&#45;&gt;RolesController -->
<g id="edge12" class="edge"><title>ApplicationController&#45;&gt;RolesController</title>
<path fill="none" stroke="black" d="M604.17,-610.023C612.962,-610.898 621.739,-611.643 630.211,-612.183 691.154,-616.07 706.652,-615.811 767.611,-612.183 795.61,-610.517 826.643,-606.961 852.149,-603.58"/>
</g>
<!-- ServiceTypesController -->
<g id="node15" class="node"><title>ServiceTypesController</title>
<path fill="none" stroke="black" d="M829.116,-749.41C829.116,-749.41 955.116,-749.41 955.116,-749.41 961.116,-749.41 967.116,-755.41 967.116,-761.41 967.116,-761.41 967.116,-920.41 967.116,-920.41 967.116,-926.41 961.116,-932.41 955.116,-932.41 955.116,-932.41 829.116,-932.41 829.116,-932.41 823.116,-932.41 817.116,-926.41 817.116,-920.41 817.116,-920.41 817.116,-761.41 817.116,-761.41 817.116,-755.41 823.116,-749.41 829.116,-749.41"/>
<text text-anchor="middle" x="892.116" y="-917.21" font-family="Times,serif" font-size="14.00">ServiceTypesController</text>
<polyline fill="none" stroke="black" points="817.116,-909.41 967.116,-909.41 "/>
<text text-anchor="start" x="825.116" y="-894.21" font-family="Times,serif" font-size="14.00">create</text>
<text text-anchor="start" x="825.116" y="-879.21" font-family="Times,serif" font-size="14.00">destroy</text>
<text text-anchor="start" x="825.116" y="-864.21" font-family="Times,serif" font-size="14.00">edit</text>
<text text-anchor="start" x="825.116" y="-849.21" font-family="Times,serif" font-size="14.00">index</text>
<text text-anchor="start" x="825.116" y="-834.21" font-family="Times,serif" font-size="14.00">new</text>
<text text-anchor="start" x="825.116" y="-819.21" font-family="Times,serif" font-size="14.00">show</text>
<text text-anchor="start" x="825.116" y="-804.21" font-family="Times,serif" font-size="14.00">update</text>
<polyline fill="none" stroke="black" points="817.116,-796.41 967.116,-796.41 "/>
<polyline fill="none" stroke="black" points="817.116,-772.41 967.116,-772.41 "/>
<text text-anchor="start" x="825.116" y="-757.21" font-family="Times,serif" font-size="14.00">_layout</text>
</g>
<!-- ApplicationController&#45;&gt;ServiceTypesController -->
<g id="edge13" class="edge"><title>ApplicationController&#45;&gt;ServiceTypesController</title>
<path fill="none" stroke="black" d="M603.944,-615.511C667.901,-629.436 744.378,-649.102 771.652,-668.29 801.243,-689.107 825.962,-719.639 845.153,-749.258"/>
</g>
<!-- StatesController -->
<g id="node16" class="node"><title>StatesController</title>
<path fill="none" stroke="black" d="M600.716,-967.899C600.716,-967.899 683.716,-967.899 683.716,-967.899 689.716,-967.899 695.716,-973.899 695.716,-979.899 695.716,-979.899 695.716,-1138.9 695.716,-1138.9 695.716,-1144.9 689.716,-1150.9 683.716,-1150.9 683.716,-1150.9 600.716,-1150.9 600.716,-1150.9 594.716,-1150.9 588.716,-1144.9 588.716,-1138.9 588.716,-1138.9 588.716,-979.899 588.716,-979.899 588.716,-973.899 594.716,-967.899 600.716,-967.899"/>
<text text-anchor="middle" x="642.216" y="-1135.7" font-family="Times,serif" font-size="14.00">StatesController</text>
<polyline fill="none" stroke="black" points="588.716,-1127.9 695.716,-1127.9 "/>
<text text-anchor="start" x="596.716" y="-1112.7" font-family="Times,serif" font-size="14.00">create</text>
<text text-anchor="start" x="596.716" y="-1097.7" font-family="Times,serif" font-size="14.00">destroy</text>
<text text-anchor="start" x="596.716" y="-1082.7" font-family="Times,serif" font-size="14.00">edit</text>
<text text-anchor="start" x="596.716" y="-1067.7" font-family="Times,serif" font-size="14.00">index</text>
<text text-anchor="start" x="596.716" y="-1052.7" font-family="Times,serif" font-size="14.00">new</text>
<text text-anchor="start" x="596.716" y="-1037.7" font-family="Times,serif" font-size="14.00">show</text>
<text text-anchor="start" x="596.716" y="-1022.7" font-family="Times,serif" font-size="14.00">update</text>
<polyline fill="none" stroke="black" points="588.716,-1014.9 695.716,-1014.9 "/>
<polyline fill="none" stroke="black" points="588.716,-990.899 695.716,-990.899 "/>
<text text-anchor="start" x="596.716" y="-975.699" font-family="Times,serif" font-size="14.00">_layout</text>
</g>
<!-- ApplicationController&#45;&gt;StatesController -->
<g id="edge14" class="edge"><title>ApplicationController&#45;&gt;StatesController</title>
<path fill="none" stroke="black" d="M531.75,-642.902C547.713,-673.345 567.495,-714.39 580.23,-752.602 603.726,-823.099 619.807,-905.824 629.691,-967.596"/>
</g>
<!-- TerminalsController -->
<g id="node17" class="node"><title>TerminalsController</title>
<path fill="none" stroke="black" d="M645.411,-425.983C645.411,-425.983 752.411,-425.983 752.411,-425.983 758.411,-425.983 764.411,-431.983 764.411,-437.983 764.411,-437.983 764.411,-596.983 764.411,-596.983 764.411,-602.983 758.411,-608.983 752.411,-608.983 752.411,-608.983 645.411,-608.983 645.411,-608.983 639.411,-608.983 633.411,-602.983 633.411,-596.983 633.411,-596.983 633.411,-437.983 633.411,-437.983 633.411,-431.983 639.411,-425.983 645.411,-425.983"/>
<text text-anchor="middle" x="698.911" y="-593.783" font-family="Times,serif" font-size="14.00">TerminalsController</text>
<polyline fill="none" stroke="black" points="633.411,-585.983 764.411,-585.983 "/>
<text text-anchor="start" x="641.411" y="-570.783" font-family="Times,serif" font-size="14.00">create</text>
<text text-anchor="start" x="641.411" y="-555.783" font-family="Times,serif" font-size="14.00">destroy</text>
<text text-anchor="start" x="641.411" y="-540.783" font-family="Times,serif" font-size="14.00">edit</text>
<text text-anchor="start" x="641.411" y="-525.783" font-family="Times,serif" font-size="14.00">index</text>
<text text-anchor="start" x="641.411" y="-510.783" font-family="Times,serif" font-size="14.00">new</text>
<text text-anchor="start" x="641.411" y="-495.783" font-family="Times,serif" font-size="14.00">show</text>
<text text-anchor="start" x="641.411" y="-480.783" font-family="Times,serif" font-size="14.00">update</text>
<polyline fill="none" stroke="black" points="633.411,-472.983 764.411,-472.983 "/>
<polyline fill="none" stroke="black" points="633.411,-448.983 764.411,-448.983 "/>
<text text-anchor="start" x="641.411" y="-433.783" font-family="Times,serif" font-size="14.00">_layout</text>
</g>
<!-- ApplicationController&#45;&gt;TerminalsController -->
<g id="edge15" class="edge"><title>ApplicationController&#45;&gt;TerminalsController</title>
<path fill="none" stroke="black" d="M604.077,-556.178C613.951,-552.149 623.802,-548.13 633.215,-544.289"/>
</g>
<!-- UserRolesController -->
<g id="node18" class="node"><title>UserRolesController</title>
<path fill="none" stroke="black" d="M832.678,-18.3285C832.678,-18.3285 940.678,-18.3285 940.678,-18.3285 946.678,-18.3285 952.678,-24.3285 952.678,-30.3285 952.678,-30.3285 952.678,-189.328 952.678,-189.328 952.678,-195.328 946.678,-201.328 940.678,-201.328 940.678,-201.328 832.678,-201.328 832.678,-201.328 826.678,-201.328 820.678,-195.328 820.678,-189.328 820.678,-189.328 820.678,-30.3285 820.678,-30.3285 820.678,-24.3285 826.678,-18.3285 832.678,-18.3285"/>
<text text-anchor="middle" x="886.678" y="-186.128" font-family="Times,serif" font-size="14.00">UserRolesController</text>
<polyline fill="none" stroke="black" points="820.678,-178.328 952.678,-178.328 "/>
<text text-anchor="start" x="828.678" y="-163.128" font-family="Times,serif" font-size="14.00">create</text>
<text text-anchor="start" x="828.678" y="-148.128" font-family="Times,serif" font-size="14.00">destroy</text>
<text text-anchor="start" x="828.678" y="-133.128" font-family="Times,serif" font-size="14.00">edit</text>
<text text-anchor="start" x="828.678" y="-118.128" font-family="Times,serif" font-size="14.00">index</text>
<text text-anchor="start" x="828.678" y="-103.128" font-family="Times,serif" font-size="14.00">new</text>
<text text-anchor="start" x="828.678" y="-88.1285" font-family="Times,serif" font-size="14.00">show</text>
<text text-anchor="start" x="828.678" y="-73.1285" font-family="Times,serif" font-size="14.00">update</text>
<polyline fill="none" stroke="black" points="820.678,-65.3285 952.678,-65.3285 "/>
<polyline fill="none" stroke="black" points="820.678,-41.3285 952.678,-41.3285 "/>
<text text-anchor="start" x="828.678" y="-26.1285" font-family="Times,serif" font-size="14.00">_layout</text>
</g>
<!-- ApplicationController&#45;&gt;UserRolesController -->
<g id="edge16" class="edge"><title>ApplicationController&#45;&gt;UserRolesController</title>
<path fill="none" stroke="black" d="M549.141,-549.513C575.053,-519.253 606.737,-477.867 626.749,-436.315 629.443,-430.722 627.408,-428.322 630.211,-422.783 679.136,-326.103 762.214,-232.311 820.525,-173.026"/>
</g>
<!-- UsersController -->
<g id="node19" class="node"><title>UsersController</title>
<path fill="none" stroke="black" d="M61.4607,-988.382C61.4607,-988.382 143.461,-988.382 143.461,-988.382 149.461,-988.382 155.461,-994.382 155.461,-1000.38 155.461,-1000.38 155.461,-1159.38 155.461,-1159.38 155.461,-1165.38 149.461,-1171.38 143.461,-1171.38 143.461,-1171.38 61.4607,-1171.38 61.4607,-1171.38 55.4607,-1171.38 49.4607,-1165.38 49.4607,-1159.38 49.4607,-1159.38 49.4607,-1000.38 49.4607,-1000.38 49.4607,-994.382 55.4607,-988.382 61.4607,-988.382"/>
<text text-anchor="middle" x="102.461" y="-1156.18" font-family="Times,serif" font-size="14.00">UsersController</text>
<polyline fill="none" stroke="black" points="49.4607,-1148.38 155.461,-1148.38 "/>
<text text-anchor="start" x="57.4607" y="-1133.18" font-family="Times,serif" font-size="14.00">create</text>
<text text-anchor="start" x="57.4607" y="-1118.18" font-family="Times,serif" font-size="14.00">destroy</text>
<text text-anchor="start" x="57.4607" y="-1103.18" font-family="Times,serif" font-size="14.00">edit</text>
<text text-anchor="start" x="57.4607" y="-1088.18" font-family="Times,serif" font-size="14.00">index</text>
<text text-anchor="start" x="57.4607" y="-1073.18" font-family="Times,serif" font-size="14.00">new</text>
<text text-anchor="start" x="57.4607" y="-1058.18" font-family="Times,serif" font-size="14.00">show</text>
<text text-anchor="start" x="57.4607" y="-1043.18" font-family="Times,serif" font-size="14.00">update</text>
<polyline fill="none" stroke="black" points="49.4607,-1035.38 155.461,-1035.38 "/>
<polyline fill="none" stroke="black" points="49.4607,-1011.38 155.461,-1011.38 "/>
<text text-anchor="start" x="57.4607" y="-996.182" font-family="Times,serif" font-size="14.00">_layout</text>
</g>
<!-- ApplicationController&#45;&gt;UsersController -->
<g id="edge17" class="edge"><title>ApplicationController&#45;&gt;UsersController</title>
<path fill="none" stroke="black" d="M487.652,-643.116C467.325,-688.571 429.792,-755.379 374.164,-788.453 304.776,-829.708 256.474,-756.585 193.487,-807.077 185.963,-813.108 154.366,-911.223 130.494,-988.078"/>
</g>
<!-- VehicleFuelsController -->
<g id="node20" class="node"><title>VehicleFuelsController</title>
<path fill="none" stroke="black" d="M12,-731.621C12,-731.621 136,-731.621 136,-731.621 142,-731.621 148,-737.621 148,-743.621 148,-743.621 148,-902.621 148,-902.621 148,-908.621 142,-914.621 136,-914.621 136,-914.621 12,-914.621 12,-914.621 6,-914.621 0,-908.621 0,-902.621 0,-902.621 0,-743.621 0,-743.621 0,-737.621 6,-731.621 12,-731.621"/>
<text text-anchor="middle" x="74" y="-899.421" font-family="Times,serif" font-size="14.00">VehicleFuelsController</text>
<polyline fill="none" stroke="black" points="0,-891.621 148,-891.621 "/>
<text text-anchor="start" x="8" y="-876.421" font-family="Times,serif" font-size="14.00">create</text>
<text text-anchor="start" x="8" y="-861.421" font-family="Times,serif" font-size="14.00">destroy</text>
<text text-anchor="start" x="8" y="-846.421" font-family="Times,serif" font-size="14.00">edit</text>
<text text-anchor="start" x="8" y="-831.421" font-family="Times,serif" font-size="14.00">index</text>
<text text-anchor="start" x="8" y="-816.421" font-family="Times,serif" font-size="14.00">new</text>
<text text-anchor="start" x="8" y="-801.421" font-family="Times,serif" font-size="14.00">show</text>
<text text-anchor="start" x="8" y="-786.421" font-family="Times,serif" font-size="14.00">update</text>
<polyline fill="none" stroke="black" points="0,-778.621 148,-778.621 "/>
<polyline fill="none" stroke="black" points="0,-754.621 148,-754.621 "/>
<text text-anchor="start" x="8" y="-739.421" font-family="Times,serif" font-size="14.00">_layout</text>
</g>
<!-- ApplicationController&#45;&gt;VehicleFuelsController -->
<g id="edge18" class="edge"><title>ApplicationController&#45;&gt;VehicleFuelsController</title>
<path fill="none" stroke="black" d="M487.652,-643.116C467.325,-688.571 429.792,-755.379 374.164,-788.453 339.47,-809.081 233.569,-802.321 193.487,-807.077 178.834,-808.816 163.189,-810.813 148.211,-812.796"/>
</g>
<!-- VehicleOdometersController -->
<g id="node21" class="node"><title>VehicleOdometersController</title>
<path fill="none" stroke="black" d="M208.687,-810.277C208.687,-810.277 363.687,-810.277 363.687,-810.277 369.687,-810.277 375.687,-816.277 375.687,-822.277 375.687,-822.277 375.687,-981.277 375.687,-981.277 375.687,-987.277 369.687,-993.277 363.687,-993.277 363.687,-993.277 208.687,-993.277 208.687,-993.277 202.687,-993.277 196.687,-987.277 196.687,-981.277 196.687,-981.277 196.687,-822.277 196.687,-822.277 196.687,-816.277 202.687,-810.277 208.687,-810.277"/>
<text text-anchor="middle" x="286.187" y="-978.077" font-family="Times,serif" font-size="14.00">VehicleOdometersController</text>
<polyline fill="none" stroke="black" points="196.687,-970.277 375.687,-970.277 "/>
<text text-anchor="start" x="204.687" y="-955.077" font-family="Times,serif" font-size="14.00">create</text>
<text text-anchor="start" x="204.687" y="-940.077" font-family="Times,serif" font-size="14.00">destroy</text>
<text text-anchor="start" x="204.687" y="-925.077" font-family="Times,serif" font-size="14.00">edit</text>
<text text-anchor="start" x="204.687" y="-910.077" font-family="Times,serif" font-size="14.00">index</text>
<text text-anchor="start" x="204.687" y="-895.077" font-family="Times,serif" font-size="14.00">new</text>
<text text-anchor="start" x="204.687" y="-880.077" font-family="Times,serif" font-size="14.00">show</text>
<text text-anchor="start" x="204.687" y="-865.077" font-family="Times,serif" font-size="14.00">update</text>
<polyline fill="none" stroke="black" points="196.687,-857.277 375.687,-857.277 "/>
<polyline fill="none" stroke="black" points="196.687,-833.277 375.687,-833.277 "/>
<text text-anchor="start" x="204.687" y="-818.077" font-family="Times,serif" font-size="14.00">_layout</text>
</g>
<!-- ApplicationController&#45;&gt;VehicleOdometersController -->
<g id="edge19" class="edge"><title>ApplicationController&#45;&gt;VehicleOdometersController</title>
<path fill="none" stroke="black" d="M474.949,-643.009C448.733,-682.265 409.81,-739.607 374.164,-788.453 369.025,-795.495 363.647,-802.729 358.191,-809.972"/>
</g>
<!-- VehicleTypesController -->
<g id="node22" class="node"><title>VehicleTypesController</title>
<path fill="none" stroke="black" d="M437.03,-755.802C437.03,-755.802 565.03,-755.802 565.03,-755.802 571.03,-755.802 577.03,-761.802 577.03,-767.802 577.03,-767.802 577.03,-926.802 577.03,-926.802 577.03,-932.802 571.03,-938.802 565.03,-938.802 565.03,-938.802 437.03,-938.802 437.03,-938.802 431.03,-938.802 425.03,-932.802 425.03,-926.802 425.03,-926.802 425.03,-767.802 425.03,-767.802 425.03,-761.802 431.03,-755.802 437.03,-755.802"/>
<text text-anchor="middle" x="501.03" y="-923.602" font-family="Times,serif" font-size="14.00">VehicleTypesController</text>
<polyline fill="none" stroke="black" points="425.03,-915.802 577.03,-915.802 "/>
<text text-anchor="start" x="433.03" y="-900.602" font-family="Times,serif" font-size="14.00">create</text>
<text text-anchor="start" x="433.03" y="-885.602" font-family="Times,serif" font-size="14.00">destroy</text>
<text text-anchor="start" x="433.03" y="-870.602" font-family="Times,serif" font-size="14.00">edit</text>
<text text-anchor="start" x="433.03" y="-855.602" font-family="Times,serif" font-size="14.00">index</text>
<text text-anchor="start" x="433.03" y="-840.602" font-family="Times,serif" font-size="14.00">new</text>
<text text-anchor="start" x="433.03" y="-825.602" font-family="Times,serif" font-size="14.00">show</text>
<text text-anchor="start" x="433.03" y="-810.602" font-family="Times,serif" font-size="14.00">update</text>
<polyline fill="none" stroke="black" points="425.03,-802.802 577.03,-802.802 "/>
<polyline fill="none" stroke="black" points="425.03,-778.802 577.03,-778.802 "/>
<text text-anchor="start" x="433.03" y="-763.602" font-family="Times,serif" font-size="14.00">_layout</text>
</g>
<!-- ApplicationController&#45;&gt;VehicleTypesController -->
<g id="edge20" class="edge"><title>ApplicationController&#45;&gt;VehicleTypesController</title>
<path fill="none" stroke="black" d="M504.955,-642.888C504.348,-674.509 503.525,-717.363 502.79,-755.666"/>
</g>
<!-- VehiclesController -->
<g id="node23" class="node"><title>VehiclesController</title>
<path fill="none" stroke="black" d="M265.842,-398.474C265.842,-398.474 364.842,-398.474 364.842,-398.474 370.842,-398.474 376.842,-404.474 376.842,-410.474 376.842,-410.474 376.842,-569.474 376.842,-569.474 376.842,-575.474 370.842,-581.474 364.842,-581.474 364.842,-581.474 265.842,-581.474 265.842,-581.474 259.842,-581.474 253.842,-575.474 253.842,-569.474 253.842,-569.474 253.842,-410.474 253.842,-410.474 253.842,-404.474 259.842,-398.474 265.842,-398.474"/>
<text text-anchor="middle" x="315.342" y="-566.274" font-family="Times,serif" font-size="14.00">VehiclesController</text>
<polyline fill="none" stroke="black" points="253.842,-558.474 376.842,-558.474 "/>
<text text-anchor="start" x="261.842" y="-543.274" font-family="Times,serif" font-size="14.00">create</text>
<text text-anchor="start" x="261.842" y="-528.274" font-family="Times,serif" font-size="14.00">destroy</text>
<text text-anchor="start" x="261.842" y="-513.274" font-family="Times,serif" font-size="14.00">edit</text>
<text text-anchor="start" x="261.842" y="-498.274" font-family="Times,serif" font-size="14.00">index</text>
<text text-anchor="start" x="261.842" y="-483.274" font-family="Times,serif" font-size="14.00">new</text>
<text text-anchor="start" x="261.842" y="-468.274" font-family="Times,serif" font-size="14.00">show</text>
<text text-anchor="start" x="261.842" y="-453.274" font-family="Times,serif" font-size="14.00">update</text>
<polyline fill="none" stroke="black" points="253.842,-445.474 376.842,-445.474 "/>
<polyline fill="none" stroke="black" points="253.842,-421.474 376.842,-421.474 "/>
<text text-anchor="start" x="261.842" y="-406.274" font-family="Times,serif" font-size="14.00">_layout</text>
</g>
<!-- ApplicationController&#45;&gt;VehiclesController -->
<g id="edge21" class="edge"><title>ApplicationController&#45;&gt;VehiclesController</title>
<path fill="none" stroke="black" d="M422.291,-549.64C407.094,-541.162 391.495,-532.459 377.071,-524.412"/>
</g>
<!-- ZipsController -->
<g id="node24" class="node"><title>ZipsController</title>
<path fill="none" stroke="black" d="M846.219,-988.162C846.219,-988.162 921.219,-988.162 921.219,-988.162 927.219,-988.162 933.219,-994.162 933.219,-1000.16 933.219,-1000.16 933.219,-1159.16 933.219,-1159.16 933.219,-1165.16 927.219,-1171.16 921.219,-1171.16 921.219,-1171.16 846.219,-1171.16 846.219,-1171.16 840.219,-1171.16 834.219,-1165.16 834.219,-1159.16 834.219,-1159.16 834.219,-1000.16 834.219,-1000.16 834.219,-994.162 840.219,-988.162 846.219,-988.162"/>
<text text-anchor="middle" x="883.719" y="-1155.96" font-family="Times,serif" font-size="14.00">ZipsController</text>
<polyline fill="none" stroke="black" points="834.219,-1148.16 933.219,-1148.16 "/>
<text text-anchor="start" x="842.219" y="-1132.96" font-family="Times,serif" font-size="14.00">create</text>
<text text-anchor="start" x="842.219" y="-1117.96" font-family="Times,serif" font-size="14.00">destroy</text>
<text text-anchor="start" x="842.219" y="-1102.96" font-family="Times,serif" font-size="14.00">edit</text>
<text text-anchor="start" x="842.219" y="-1087.96" font-family="Times,serif" font-size="14.00">index</text>
<text text-anchor="start" x="842.219" y="-1072.96" font-family="Times,serif" font-size="14.00">new</text>
<text text-anchor="start" x="842.219" y="-1057.96" font-family="Times,serif" font-size="14.00">show</text>
<text text-anchor="start" x="842.219" y="-1042.96" font-family="Times,serif" font-size="14.00">update</text>
<polyline fill="none" stroke="black" points="834.219,-1035.16 933.219,-1035.16 "/>
<polyline fill="none" stroke="black" points="834.219,-1011.16 933.219,-1011.16 "/>
<text text-anchor="start" x="842.219" y="-995.962" font-family="Times,serif" font-size="14.00">_layout</text>
</g>
<!-- ApplicationController&#45;&gt;ZipsController -->
<g id="edge22" class="edge"><title>ApplicationController&#45;&gt;ZipsController</title>
<path fill="none" stroke="black" d="M530.669,-642.88C546.297,-673.486 566.111,-714.719 580.23,-752.602 597.152,-798.005 582.694,-817.162 609.252,-857.69 667.363,-946.366 772.277,-1016.56 834.198,-1052.76"/>
</g>
</g>
</svg>
