<?xml version="1.0" encoding="UTF-8" standalone="no"?>
<!DOCTYPE svg PUBLIC "-//W3C//DTD SVG 1.1//EN"
 "http://www.w3.org/Graphics/SVG/1.1/DTD/svg11.dtd">
<!-- Generated by graphviz version 2.29.20121209.0545 (20121209.0545)
 -->
<!-- Title: controllers_diagram Pages: 1 -->
<svg width="1491pt" height="936pt"
 viewBox="0.00 0.00 1491.00 936.00" xmlns="http://www.w3.org/2000/svg" xmlns:xlink="http://www.w3.org/1999/xlink">
<g id="graph0" class="graph" transform="scale(1 1) rotate(0) translate(4 932)">
<title>controllers_diagram</title>
<polygon fill="white" stroke="white" points="-4,5 -4,-932 1488,-932 1488,5 -4,5"/>
<!-- _diagram_info -->
<g id="node1" class="node"><title>_diagram_info</title>
<text text-anchor="start" x="1283" y="-913.6" font-family="Times,serif" font-size="13.00">Controllers diagram</text>
<text text-anchor="start" x="1283" y="-899.6" font-family="Times,serif" font-size="13.00">Date: Dec 12 2012 &#45; 16:49</text>
<text text-anchor="start" x="1283" y="-885.6" font-family="Times,serif" font-size="13.00">Migration version: 20121212214602</text>
<text text-anchor="start" x="1283" y="-871.6" font-family="Times,serif" font-size="13.00">Generated by RailRoady 1.1.0</text>
<text text-anchor="start" x="1283" y="-857.6" font-family="Times,serif" font-size="13.00">http://railroady.prestonlee.com</text>
</g>
<!-- AddendumsController -->
<g id="node2" class="node"><title>AddendumsController</title>
<ellipse fill="none" stroke="black" cx="114.633" cy="-64.3482" rx="92.0841" ry="18"/>
<text text-anchor="middle" x="114.633" y="-60.6482" font-family="Times,serif" font-size="14.00">AddendumsController</text>
</g>
<!-- ApplicationController -->
<g id="node3" class="node"><title>ApplicationController</title>
<ellipse fill="none" stroke="black" cx="746.13" cy="-388.752" rx="90.9839" ry="18"/>
<text text-anchor="middle" x="746.13" y="-385.052" font-family="Times,serif" font-size="14.00">ApplicationController</text>
</g>
<!-- ApplicationController&#45;&gt;AddendumsController -->
<g id="edge1" class="edge"><title>ApplicationController&#45;&gt;AddendumsController</title>
<path fill="none" stroke="black" d="M713.067,-371.767C604.069,-315.774 256.824,-137.392 147.749,-81.3598"/>
</g>
<!-- DailyDataController -->
<g id="node4" class="node"><title>DailyDataController</title>
<ellipse fill="none" stroke="black" cx="703.259" cy="-18" rx="85.5853" ry="18"/>
<text text-anchor="middle" x="703.259" y="-14.3" font-family="Times,serif" font-size="14.00">DailyDataController</text>
</g>
<!-- ApplicationController&#45;&gt;DailyDataController -->
<g id="edge2" class="edge"><title>ApplicationController&#45;&gt;DailyDataController</title>
<path fill="none" stroke="black" d="M744.033,-370.619C736.754,-307.668 712.625,-98.9949 705.352,-36.0982"/>
</g>
<!-- DailyDataVehiclesController -->
<g id="node5" class="node"><title>DailyDataVehiclesController</title>
<ellipse fill="none" stroke="black" cx="717.199" cy="-782.93" rx="117.779" ry="18"/>
<text text-anchor="middle" x="717.199" y="-779.23" font-family="Times,serif" font-size="14.00">DailyDataVehiclesController</text>
</g>
<!-- ApplicationController&#45;&gt;DailyDataVehiclesController -->
<g id="edge3" class="edge"><title>ApplicationController&#45;&gt;DailyDataVehiclesController</title>
<path fill="none" stroke="black" d="M754.811,-406.885C767.597,-435.342 789.943,-492.522 789.42,-543.603 788.54,-629.532 745.818,-725.706 726.505,-764.874"/>
</g>
<!-- EmployeePsasController -->
<g id="node6" class="node"><title>EmployeePsasController</title>
<ellipse fill="none" stroke="black" cx="934.03" cy="-481.68" rx="101.282" ry="18"/>
<text text-anchor="middle" x="934.03" y="-477.98" font-family="Times,serif" font-size="14.00">EmployeePsasController</text>
</g>
<!-- ApplicationController&#45;&gt;EmployeePsasController -->
<g id="edge4" class="edge"><title>ApplicationController&#45;&gt;EmployeePsasController</title>
<path fill="none" stroke="black" d="M780.158,-405.581C814,-422.318 865.646,-447.86 899.621,-464.663"/>
</g>
<!-- EmployeesController -->
<g id="node7" class="node"><title>EmployeesController</title>
<ellipse fill="none" stroke="black" cx="468.362" cy="-476.675" rx="88.2844" ry="18"/>
<text text-anchor="middle" x="468.362" y="-472.975" font-family="Times,serif" font-size="14.00">EmployeesController</text>
</g>
<!-- ApplicationController&#45;&gt;EmployeesController -->
<g id="edge5" class="edge"><title>ApplicationController&#45;&gt;EmployeesController</title>
<path fill="none" stroke="black" d="M697.747,-404.067C646.764,-420.205 566.963,-445.464 516.191,-461.535"/>
</g>
<!-- FedexContractsController -->
<g id="node8" class="node"><title>FedexContractsController</title>
<ellipse fill="none" stroke="black" cx="443.816" cy="-21.6957" rx="105.082" ry="18"/>
<text text-anchor="middle" x="443.816" y="-17.9957" font-family="Times,serif" font-size="14.00">FedexContractsController</text>
</g>
<!-- ApplicationController&#45;&gt;FedexContractsController -->
<g id="edge6" class="edge"><title>ApplicationController&#45;&gt;FedexContractsController</title>
<path fill="none" stroke="black" d="M739.324,-370.766C729.121,-345.025 708.255,-296.805 682.299,-260.705 615.228,-167.424 511.065,-76.8766 465.923,-39.5566"/>
</g>
<!-- NotesController -->
<g id="node9" class="node"><title>NotesController</title>
<ellipse fill="none" stroke="black" cx="1364.99" cy="-328.154" rx="69.5877" ry="18"/>
<text text-anchor="middle" x="1364.99" y="-324.454" font-family="Times,serif" font-size="14.00">NotesController</text>
</g>
<!-- ApplicationController&#45;&gt;NotesController -->
<g id="edge7" class="edge"><title>ApplicationController&#45;&gt;NotesController</title>
<path fill="none" stroke="black" d="M827.99,-380.736C952.329,-368.561 1186.3,-345.651 1299.86,-334.531"/>
</g>
<!-- PsaStatesController -->
<g id="node10" class="node"><title>PsaStatesController</title>
<ellipse fill="none" stroke="black" cx="598.157" cy="-260.631" rx="82.5854" ry="18"/>
<text text-anchor="middle" x="598.157" y="-256.931" font-family="Times,serif" font-size="14.00">PsaStatesController</text>
</g>
<!-- ApplicationController&#45;&gt;PsaStatesController -->
<g id="edge8" class="edge"><title>ApplicationController&#45;&gt;PsaStatesController</title>
<path fill="none" stroke="black" d="M725.555,-370.937C697.284,-346.46 646.736,-302.693 618.557,-278.295"/>
</g>
<!-- PsasController -->
<g id="node11" class="node"><title>PsasController</title>
<ellipse fill="none" stroke="black" cx="969.005" cy="-18.3615" rx="64.189" ry="18"/>
<text text-anchor="middle" x="969.005" y="-14.6615" font-family="Times,serif" font-size="14.00">PsasController</text>
</g>
<!-- ApplicationController&#45;&gt;PsasController -->
<g id="edge9" class="edge"><title>ApplicationController&#45;&gt;PsasController</title>
<path fill="none" stroke="black" d="M770.382,-371.195C805.27,-344.695 869.379,-291.148 905.417,-231.095 944.591,-165.816 961.168,-74.644 966.698,-36.3844"/>
</g>
<!-- PsazipsController -->
<g id="node12" class="node"><title>PsazipsController</title>
<ellipse fill="none" stroke="black" cx="828.425" cy="-231.002" rx="75.2868" ry="18"/>
<text text-anchor="middle" x="828.425" y="-227.302" font-family="Times,serif" font-size="14.00">PsazipsController</text>
</g>
<!-- ApplicationController&#45;&gt;PsazipsController -->
<g id="edge10" class="edge"><title>ApplicationController&#45;&gt;PsazipsController</title>
<path fill="none" stroke="black" d="M755.57,-370.656C771.445,-340.227 803.294,-279.174 819.094,-248.887"/>
</g>
<!-- RegionsController -->
<g id="node13" class="node"><title>RegionsController</title>
<ellipse fill="none" stroke="black" cx="113.066" cy="-400.615" rx="77.9862" ry="18"/>
<text text-anchor="middle" x="113.066" y="-396.915" font-family="Times,serif" font-size="14.00">RegionsController</text>
</g>
<!-- ApplicationController&#45;&gt;RegionsController -->
<g id="edge11" class="edge"><title>ApplicationController&#45;&gt;RegionsController</title>
<path fill="none" stroke="black" d="M655.428,-390.452C530.809,-392.787 308.745,-396.948 191.141,-399.152"/>
</g>
<!-- RolesController -->
<g id="node14" class="node"><title>RolesController</title>
<ellipse fill="none" stroke="black" cx="1171.5" cy="-492.61" rx="68.7879" ry="18"/>
<text text-anchor="middle" x="1171.5" y="-488.91" font-family="Times,serif" font-size="14.00">RolesController</text>
</g>
<!-- ApplicationController&#45;&gt;RolesController -->
<g id="edge12" class="edge"><title>ApplicationController&#45;&gt;RolesController</title>
<path fill="none" stroke="black" d="M803.498,-402.759C887.177,-423.19 1041.39,-460.841 1121,-480.279"/>
</g>
<!-- ServiceTypesController -->
<g id="node15" class="node"><title>ServiceTypesController</title>
<ellipse fill="none" stroke="black" cx="1351.53" cy="-715.28" rx="97.4827" ry="18"/>
<text text-anchor="middle" x="1351.53" y="-711.58" font-family="Times,serif" font-size="14.00">ServiceTypesController</text>
</g>
<!-- ApplicationController&#45;&gt;ServiceTypesController -->
<g id="edge13" class="edge"><title>ApplicationController&#45;&gt;ServiceTypesController</title>
<path fill="none" stroke="black" d="M759.129,-406.769C774.477,-427.04 801.659,-459.948 831.042,-481.547 984.479,-594.34 1201,-669.541 1299.32,-700"/>
</g>
<!-- StatesController -->
<g id="node16" class="node"><title>StatesController</title>
<ellipse fill="none" stroke="black" cx="872.164" cy="-720.967" rx="69.5877" ry="18"/>
<text text-anchor="middle" x="872.164" y="-717.267" font-family="Times,serif" font-size="14.00">StatesController</text>
</g>
<!-- ApplicationController&#45;&gt;StatesController -->
<g id="edge14" class="edge"><title>ApplicationController&#45;&gt;StatesController</title>
<path fill="none" stroke="black" d="M753.086,-407.087C775.121,-465.17 843.224,-644.686 865.23,-702.69"/>
</g>
<!-- TerminalsController -->
<g id="node17" class="node"><title>TerminalsController</title>
<ellipse fill="none" stroke="black" cx="1050.1" cy="-271.534" rx="85.2851" ry="18"/>
<text text-anchor="middle" x="1050.1" y="-267.834" font-family="Times,serif" font-size="14.00">TerminalsController</text>
</g>
<!-- ApplicationController&#45;&gt;TerminalsController -->
<g id="edge15" class="edge"><title>ApplicationController&#45;&gt;TerminalsController</title>
<path fill="none" stroke="black" d="M787.759,-372.699C845.969,-350.252 951.038,-309.736 1008.98,-287.393"/>
</g>
<!-- UserRolesController -->
<g id="node18" class="node"><title>UserRolesController</title>
<ellipse fill="none" stroke="black" cx="1303.31" cy="-33.7337" rx="85.5853" ry="18"/>
<text text-anchor="middle" x="1303.31" y="-30.0337" font-family="Times,serif" font-size="14.00">UserRolesController</text>
</g>
<!-- ApplicationController&#45;&gt;UserRolesController -->
<g id="edge16" class="edge"><title>ApplicationController&#45;&gt;UserRolesController</title>
<path fill="none" stroke="black" d="M773.381,-371.388C868.094,-311.04 1182.31,-110.83 1276.44,-50.8558"/>
</g>
<!-- UsersController -->
<g id="node19" class="node"><title>UsersController</title>
<ellipse fill="none" stroke="black" cx="356.496" cy="-715.265" rx="68.7879" ry="18"/>
<text text-anchor="middle" x="356.496" y="-711.565" font-family="Times,serif" font-size="14.00">UsersController</text>
</g>
<!-- ApplicationController&#45;&gt;UsersController -->
<g id="edge17" class="edge"><title>ApplicationController&#45;&gt;UsersController</title>
<path fill="none" stroke="black" d="M725.182,-406.307C657.371,-463.133 444.357,-641.638 377.075,-698.02"/>
</g>
<!-- VehicleFuelsController -->
<g id="node20" class="node"><title>VehicleFuelsController</title>
<ellipse fill="none" stroke="black" cx="96.1915" cy="-719.793" rx="96.3833" ry="18"/>
<text text-anchor="middle" x="96.1915" y="-716.093" font-family="Times,serif" font-size="14.00">VehicleFuelsController</text>
</g>
<!-- ApplicationController&#45;&gt;VehicleFuelsController -->
<g id="edge18" class="edge"><title>ApplicationController&#45;&gt;VehicleFuelsController</title>
<path fill="none" stroke="black" d="M713.006,-405.624C601.644,-462.345 241.478,-645.793 129.638,-702.758"/>
</g>
<!-- VehicleOdometersController -->
<g id="node21" class="node"><title>VehicleOdometersController</title>
<ellipse fill="none" stroke="black" cx="539.227" cy="-750.217" rx="116.18" ry="18"/>
<text text-anchor="middle" x="539.227" y="-746.517" font-family="Times,serif" font-size="14.00">VehicleOdometersController</text>
</g>
<!-- ApplicationController&#45;&gt;VehicleOdometersController -->
<g id="edge19" class="edge"><title>ApplicationController&#45;&gt;VehicleOdometersController</title>
<path fill="none" stroke="black" d="M721.12,-406.116C685.946,-431.906 622.398,-483.759 588.639,-543.493 552.962,-606.619 542.942,-694.634 540.212,-732.137"/>
</g>
<!-- VehicleTypesController -->
<g id="node22" class="node"><title>VehicleTypesController</title>
<ellipse fill="none" stroke="black" cx="689.029" cy="-543.548" rx="98.5829" ry="18"/>
<text text-anchor="middle" x="689.029" y="-539.848" font-family="Times,serif" font-size="14.00">VehicleTypesController</text>
</g>
<!-- ApplicationController&#45;&gt;VehicleTypesController -->
<g id="edge20" class="edge"><title>ApplicationController&#45;&gt;VehicleTypesController</title>
<path fill="none" stroke="black" d="M739.468,-406.812C728.524,-436.48 706.857,-495.219 695.826,-525.123"/>
</g>
<!-- VehiclesController -->
<g id="node23" class="node"><title>VehiclesController</title>
<ellipse fill="none" stroke="black" cx="372.47" cy="-277.579" rx="79.8859" ry="18"/>
<text text-anchor="middle" x="372.47" y="-273.879" font-family="Times,serif" font-size="14.00">VehiclesController</text>
</g>
<!-- ApplicationController&#45;&gt;VehiclesController -->
<g id="edge21" class="edge"><title>ApplicationController&#45;&gt;VehiclesController</title>
<path fill="none" stroke="black" d="M695.737,-373.759C623.624,-352.304 491.885,-313.108 420.883,-291.983"/>
</g>
<!-- ZipsController -->
<g id="node24" class="node"><title>ZipsController</title>
<ellipse fill="none" stroke="black" cx="1060.08" cy="-752.119" rx="64.189" ry="18"/>
<text text-anchor="middle" x="1060.08" y="-748.419" font-family="Times,serif" font-size="14.00">ZipsController</text>
</g>
<!-- ApplicationController&#45;&gt;ZipsController -->
<g id="edge22" class="edge"><title>ApplicationController&#45;&gt;ZipsController</title>
<path fill="none" stroke="black" d="M761.699,-406.771C815.274,-468.778 991.641,-672.903 1044.79,-734.419"/>
</g>
</g>
</svg>
