<?xml version="1.0" encoding="UTF-8" standalone="no"?>
<!DOCTYPE svg PUBLIC "-//W3C//DTD SVG 1.1//EN"
 "http://www.w3.org/Graphics/SVG/1.1/DTD/svg11.dtd">
<!-- Generated by graphviz version 2.29.20121209.0545 (20121209.0545)
 -->
<!-- Title: controllers_diagram Pages: 1 -->
<svg width="930pt" height="596pt"
 viewBox="0.00 0.00 930.00 596.00" xmlns="http://www.w3.org/2000/svg" xmlns:xlink="http://www.w3.org/1999/xlink">
<g id="graph0" class="graph" transform="scale(1 1) rotate(0) translate(4 592)">
<title>controllers_diagram</title>
<polygon fill="white" stroke="white" points="-4,5 -4,-592 927,-592 927,5 -4,5"/>
<!-- _diagram_info -->
<g id="node1" class="node"><title>_diagram_info</title>
<text text-anchor="start" x="722" y="-573.6" font-family="Times,serif" font-size="13.00">Controllers diagram</text>
<text text-anchor="start" x="722" y="-559.6" font-family="Times,serif" font-size="13.00">Date: Dec 10 2012 &#45; 03:08</text>
<text text-anchor="start" x="722" y="-545.6" font-family="Times,serif" font-size="13.00">Migration version: 20121210034931</text>
<text text-anchor="start" x="722" y="-531.6" font-family="Times,serif" font-size="13.00">Generated by RailRoady 1.1.0</text>
<text text-anchor="start" x="722" y="-517.6" font-family="Times,serif" font-size="13.00">http://railroady.prestonlee.com</text>
</g>
<!-- AddendumsController -->
<g id="node2" class="node"><title>AddendumsController</title>
<ellipse fill="none" stroke="black" cx="101.733" cy="-231.74" rx="92.0841" ry="18"/>
<text text-anchor="middle" x="101.733" y="-228.04" font-family="Times,serif" font-size="14.00">AddendumsController</text>
</g>
<!-- ApplicationController -->
<g id="node3" class="node"><title>ApplicationController</title>
<ellipse fill="none" stroke="black" cx="524.039" cy="-233.492" rx="90.9839" ry="18"/>
<text text-anchor="middle" x="524.039" y="-229.792" font-family="Times,serif" font-size="14.00">ApplicationController</text>
</g>
<!-- ApplicationController&#45;&gt;AddendumsController -->
<g id="edge1" class="edge"><title>ApplicationController&#45;&gt;AddendumsController</title>
<path fill="none" stroke="black" d="M432.925,-233.114C362.365,-232.821 265.026,-232.417 194.141,-232.123"/>
</g>
<!-- EmployeesController -->
<g id="node4" class="node"><title>EmployeesController</title>
<ellipse fill="none" stroke="black" cx="290.061" cy="-18" rx="88.2844" ry="18"/>
<text text-anchor="middle" x="290.061" y="-14.3" font-family="Times,serif" font-size="14.00">EmployeesController</text>
</g>
<!-- ApplicationController&#45;&gt;EmployeesController -->
<g id="edge2" class="edge"><title>ApplicationController&#45;&gt;EmployeesController</title>
<path fill="none" stroke="black" d="M504.892,-215.857C460.907,-175.348 353.068,-76.0285 309.145,-35.5761"/>
</g>
<!-- FedexContractsController -->
<g id="node5" class="node"><title>FedexContractsController</title>
<ellipse fill="none" stroke="black" cx="279.176" cy="-443.641" rx="105.082" ry="18"/>
<text text-anchor="middle" x="279.176" y="-439.941" font-family="Times,serif" font-size="14.00">FedexContractsController</text>
</g>
<!-- ApplicationController&#45;&gt;FedexContractsController -->
<g id="edge3" class="edge"><title>ApplicationController&#45;&gt;FedexContractsController</title>
<path fill="none" stroke="black" d="M503.583,-251.048C457.491,-290.605 345.945,-386.337 299.745,-425.987"/>
</g>
<!-- NotesController -->
<g id="node6" class="node"><title>NotesController</title>
<ellipse fill="none" stroke="black" cx="611.059" cy="-416.153" rx="69.5877" ry="18"/>
<text text-anchor="middle" x="611.059" y="-412.453" font-family="Times,serif" font-size="14.00">NotesController</text>
</g>
<!-- ApplicationController&#45;&gt;NotesController -->
<g id="edge4" class="edge"><title>ApplicationController&#45;&gt;NotesController</title>
<path fill="none" stroke="black" d="M532.701,-251.674C549.381,-286.687 585.78,-363.09 602.432,-398.045"/>
</g>
<!-- PsaStatesController -->
<g id="node7" class="node"><title>PsaStatesController</title>
<ellipse fill="none" stroke="black" cx="323.589" cy="-294.502" rx="82.5854" ry="18"/>
<text text-anchor="middle" x="323.589" y="-290.802" font-family="Times,serif" font-size="14.00">PsaStatesController</text>
</g>
<!-- ApplicationController&#45;&gt;PsaStatesController -->
<g id="edge5" class="edge"><title>ApplicationController&#45;&gt;PsaStatesController</title>
<path fill="none" stroke="black" d="M474.232,-248.651C442.926,-258.18 402.745,-270.409 371.756,-279.841"/>
</g>
<!-- PsasController -->
<g id="node8" class="node"><title>PsasController</title>
<ellipse fill="none" stroke="black" cx="89.3585" cy="-43.5739" rx="64.189" ry="18"/>
<text text-anchor="middle" x="89.3585" y="-39.8739" font-family="Times,serif" font-size="14.00">PsasController</text>
</g>
<!-- ApplicationController&#45;&gt;PsasController -->
<g id="edge6" class="edge"><title>ApplicationController&#45;&gt;PsasController</title>
<path fill="none" stroke="black" d="M495.053,-216.295C465.552,-199.147 418.227,-172.609 375.617,-153.015 290.539,-113.892 187.141,-76.8354 130.826,-57.4953"/>
</g>
<!-- PsazipsController -->
<g id="node9" class="node"><title>PsazipsController</title>
<ellipse fill="none" stroke="black" cx="804.1" cy="-46.9541" rx="75.2868" ry="18"/>
<text text-anchor="middle" x="804.1" y="-43.2541" font-family="Times,serif" font-size="14.00">PsazipsController</text>
</g>
<!-- ApplicationController&#45;&gt;PsazipsController -->
<g id="edge7" class="edge"><title>ApplicationController&#45;&gt;PsazipsController</title>
<path fill="none" stroke="black" d="M550.135,-216.111C603.637,-180.475 725.189,-99.514 778.375,-64.0888"/>
</g>
<!-- RegionsController -->
<g id="node10" class="node"><title>RegionsController</title>
<ellipse fill="none" stroke="black" cx="319.169" cy="-166.833" rx="77.9862" ry="18"/>
<text text-anchor="middle" x="319.169" y="-163.133" font-family="Times,serif" font-size="14.00">RegionsController</text>
</g>
<!-- ApplicationController&#45;&gt;RegionsController -->
<g id="edge8" class="edge"><title>ApplicationController&#45;&gt;RegionsController</title>
<path fill="none" stroke="black" d="M476.523,-218.032C442.716,-207.032 397.58,-192.346 364.319,-181.524"/>
</g>
<!-- RolesController -->
<g id="node11" class="node"><title>RolesController</title>
<ellipse fill="none" stroke="black" cx="617.234" cy="-51.0439" rx="68.7879" ry="18"/>
<text text-anchor="middle" x="617.234" y="-47.3439" font-family="Times,serif" font-size="14.00">RolesController</text>
</g>
<!-- ApplicationController&#45;&gt;RolesController -->
<g id="edge9" class="edge"><title>ApplicationController&#45;&gt;RolesController</title>
<path fill="none" stroke="black" d="M533.316,-215.331C551.179,-180.36 590.161,-104.045 607.995,-69.1313"/>
</g>
<!-- StatesController -->
<g id="node12" class="node"><title>StatesController</title>
<ellipse fill="none" stroke="black" cx="460.822" cy="-40.1475" rx="69.5877" ry="18"/>
<text text-anchor="middle" x="460.822" y="-36.4475" font-family="Times,serif" font-size="14.00">StatesController</text>
</g>
<!-- ApplicationController&#45;&gt;StatesController -->
<g id="edge10" class="edge"><title>ApplicationController&#45;&gt;StatesController</title>
<path fill="none" stroke="black" d="M518.092,-215.303C506.012,-178.359 478.734,-94.9323 466.707,-58.1477"/>
</g>
<!-- TerminalsController -->
<g id="node13" class="node"><title>TerminalsController</title>
<ellipse fill="none" stroke="black" cx="85.1424" cy="-420.53" rx="85.2851" ry="18"/>
<text text-anchor="middle" x="85.1424" y="-416.83" font-family="Times,serif" font-size="14.00">TerminalsController</text>
</g>
<!-- ApplicationController&#45;&gt;TerminalsController -->
<g id="edge11" class="edge"><title>ApplicationController&#45;&gt;TerminalsController</title>
<path fill="none" stroke="black" d="M494.507,-250.563C466.26,-266.548 422.215,-290.59 382.558,-308.483 295.422,-347.798 190.009,-385.217 130.966,-405.3"/>
</g>
<!-- UserRolesController -->
<g id="node14" class="node"><title>UserRolesController</title>
<ellipse fill="none" stroke="black" cx="763.253" cy="-234.608" rx="85.5853" ry="18"/>
<text text-anchor="middle" x="763.253" y="-230.908" font-family="Times,serif" font-size="14.00">UserRolesController</text>
</g>
<!-- ApplicationController&#45;&gt;UserRolesController -->
<g id="edge12" class="edge"><title>ApplicationController&#45;&gt;UserRolesController</title>
<path fill="none" stroke="black" d="M615.158,-233.917C635.491,-234.012 656.991,-234.112 677.116,-234.206"/>
</g>
<!-- UsersController -->
<g id="node15" class="node"><title>UsersController</title>
<ellipse fill="none" stroke="black" cx="801.741" cy="-420.789" rx="68.7879" ry="18"/>
<text text-anchor="middle" x="801.741" y="-417.089" font-family="Times,serif" font-size="14.00">UsersController</text>
</g>
<!-- ApplicationController&#45;&gt;UsersController -->
<g id="edge13" class="edge"><title>ApplicationController&#45;&gt;UsersController</title>
<path fill="none" stroke="black" d="M549.667,-250.777C602.704,-286.548 723.938,-368.315 776.577,-403.816"/>
</g>
<!-- ZipsController -->
<g id="node16" class="node"><title>ZipsController</title>
<ellipse fill="none" stroke="black" cx="451.851" cy="-427.95" rx="64.189" ry="18"/>
<text text-anchor="middle" x="451.851" y="-424.25" font-family="Times,serif" font-size="14.00">ZipsController</text>
</g>
<!-- ApplicationController&#45;&gt;ZipsController -->
<g id="edge14" class="edge"><title>ApplicationController&#45;&gt;ZipsController</title>
<path fill="none" stroke="black" d="M517.248,-251.786C503.454,-288.943 472.305,-372.849 458.571,-409.846"/>
</g>
</g>
</svg>
