<?xml version="1.0" encoding="UTF-8" standalone="no"?>
<!DOCTYPE svg PUBLIC "-//W3C//DTD SVG 1.1//EN"
 "http://www.w3.org/Graphics/SVG/1.1/DTD/svg11.dtd">
<!-- Generated by graphviz version 2.29.20121209.0545 (20121209.0545)
 -->
<!-- Title: controllers_diagram Pages: 1 -->
<svg width="996pt" height="929pt"
 viewBox="0.00 0.00 996.00 928.90" xmlns="http://www.w3.org/2000/svg" xmlns:xlink="http://www.w3.org/1999/xlink">
<g id="graph0" class="graph" transform="scale(1 1) rotate(0) translate(4 924.905)">
<title>controllers_diagram</title>
<polygon fill="white" stroke="white" points="-4,5 -4,-924.905 993,-924.905 993,5 -4,5"/>
<!-- _diagram_info -->
<g id="node1" class="node"><title>_diagram_info</title>
<text text-anchor="start" x="788" y="-843.6" font-family="Times,serif" font-size="13.00">Controllers diagram</text>
<text text-anchor="start" x="788" y="-829.6" font-family="Times,serif" font-size="13.00">Date: Dec 10 2012 &#45; 04:05</text>
<text text-anchor="start" x="788" y="-815.6" font-family="Times,serif" font-size="13.00">Migration version: 20121210090429</text>
<text text-anchor="start" x="788" y="-801.6" font-family="Times,serif" font-size="13.00">Generated by RailRoady 1.1.0</text>
<text text-anchor="start" x="788" y="-787.6" font-family="Times,serif" font-size="13.00">http://railroady.prestonlee.com</text>
</g>
<!-- AddendumsController -->
<g id="node2" class="node"><title>AddendumsController</title>
<path fill="none" stroke="black" d="M14.6072,-284.527C14.6072,-284.527 132.607,-284.527 132.607,-284.527 138.607,-284.527 144.607,-290.527 144.607,-296.527 144.607,-296.527 144.607,-455.527 144.607,-455.527 144.607,-461.527 138.607,-467.527 132.607,-467.527 132.607,-467.527 14.6072,-467.527 14.6072,-467.527 8.60719,-467.527 2.60719,-461.527 2.60719,-455.527 2.60719,-455.527 2.60719,-296.527 2.60719,-296.527 2.60719,-290.527 8.60719,-284.527 14.6072,-284.527"/>
<text text-anchor="middle" x="73.6072" y="-452.327" font-family="Times,serif" font-size="14.00">AddendumsController</text>
<polyline fill="none" stroke="black" points="2.60719,-444.527 144.607,-444.527 "/>
<text text-anchor="start" x="10.6072" y="-429.327" font-family="Times,serif" font-size="14.00">create</text>
<text text-anchor="start" x="10.6072" y="-414.327" font-family="Times,serif" font-size="14.00">destroy</text>
<text text-anchor="start" x="10.6072" y="-399.327" font-family="Times,serif" font-size="14.00">edit</text>
<text text-anchor="start" x="10.6072" y="-384.327" font-family="Times,serif" font-size="14.00">index</text>
<text text-anchor="start" x="10.6072" y="-369.327" font-family="Times,serif" font-size="14.00">new</text>
<text text-anchor="start" x="10.6072" y="-354.327" font-family="Times,serif" font-size="14.00">show</text>
<text text-anchor="start" x="10.6072" y="-339.327" font-family="Times,serif" font-size="14.00">update</text>
<polyline fill="none" stroke="black" points="2.60719,-331.527 144.607,-331.527 "/>
<polyline fill="none" stroke="black" points="2.60719,-307.527 144.607,-307.527 "/>
<text text-anchor="start" x="10.6072" y="-292.327" font-family="Times,serif" font-size="14.00">_layout</text>
</g>
<!-- ApplicationController -->
<g id="node3" class="node"><title>ApplicationController</title>
<path fill="none" stroke="black" d="M371.278,-368.338C371.278,-368.338 543.278,-368.338 543.278,-368.338 549.278,-368.338 555.278,-374.338 555.278,-380.338 555.278,-380.338 555.278,-449.338 555.278,-449.338 555.278,-455.338 549.278,-461.338 543.278,-461.338 543.278,-461.338 371.278,-461.338 371.278,-461.338 365.278,-461.338 359.278,-455.338 359.278,-449.338 359.278,-449.338 359.278,-380.338 359.278,-380.338 359.278,-374.338 365.278,-368.338 371.278,-368.338"/>
<text text-anchor="middle" x="457.278" y="-446.138" font-family="Times,serif" font-size="14.00">ApplicationController</text>
<polyline fill="none" stroke="black" points="359.278,-438.338 555.278,-438.338 "/>
<text text-anchor="start" x="367.278" y="-423.138" font-family="Times,serif" font-size="14.00">_one_time_conditions_valid_8?</text>
<polyline fill="none" stroke="black" points="359.278,-415.338 555.278,-415.338 "/>
<polyline fill="none" stroke="black" points="359.278,-391.338 555.278,-391.338 "/>
<text text-anchor="start" x="367.278" y="-376.138" font-family="Times,serif" font-size="14.00">_layout</text>
</g>
<!-- ApplicationController&#45;&gt;AddendumsController -->
<g id="edge1" class="edge"><title>ApplicationController&#45;&gt;AddendumsController</title>
<path fill="none" stroke="black" d="M359.007,-423.325C353.91,-423.611 348.861,-423.861 343.929,-424.061 287.797,-426.341 272.979,-433.07 217.529,-424.061 193.348,-420.132 167.743,-412.719 144.939,-404.871"/>
</g>
<!-- EmployeePsasController -->
<g id="node4" class="node"><title>EmployeePsasController</title>
<path fill="none" stroke="black" d="M217.836,-0.5C217.836,-0.5 349.836,-0.5 349.836,-0.5 355.836,-0.5 361.836,-6.5 361.836,-12.5 361.836,-12.5 361.836,-171.5 361.836,-171.5 361.836,-177.5 355.836,-183.5 349.836,-183.5 349.836,-183.5 217.836,-183.5 217.836,-183.5 211.836,-183.5 205.836,-177.5 205.836,-171.5 205.836,-171.5 205.836,-12.5 205.836,-12.5 205.836,-6.5 211.836,-0.5 217.836,-0.5"/>
<text text-anchor="middle" x="283.836" y="-168.3" font-family="Times,serif" font-size="14.00">EmployeePsasController</text>
<polyline fill="none" stroke="black" points="205.836,-160.5 361.836,-160.5 "/>
<text text-anchor="start" x="213.836" y="-145.3" font-family="Times,serif" font-size="14.00">create</text>
<text text-anchor="start" x="213.836" y="-130.3" font-family="Times,serif" font-size="14.00">destroy</text>
<text text-anchor="start" x="213.836" y="-115.3" font-family="Times,serif" font-size="14.00">edit</text>
<text text-anchor="start" x="213.836" y="-100.3" font-family="Times,serif" font-size="14.00">index</text>
<text text-anchor="start" x="213.836" y="-85.3" font-family="Times,serif" font-size="14.00">new</text>
<text text-anchor="start" x="213.836" y="-70.3" font-family="Times,serif" font-size="14.00">show</text>
<text text-anchor="start" x="213.836" y="-55.3" font-family="Times,serif" font-size="14.00">update</text>
<polyline fill="none" stroke="black" points="205.836,-47.5 361.836,-47.5 "/>
<polyline fill="none" stroke="black" points="205.836,-23.5 361.836,-23.5 "/>
<text text-anchor="start" x="213.836" y="-8.3" font-family="Times,serif" font-size="14.00">_layout</text>
</g>
<!-- ApplicationController&#45;&gt;EmployeePsasController -->
<g id="edge2" class="edge"><title>ApplicationController&#45;&gt;EmployeePsasController</title>
<path fill="none" stroke="black" d="M432.243,-368.239C406.398,-320.133 365.397,-243.816 333.034,-183.576"/>
</g>
<!-- EmployeesController -->
<g id="node5" class="node"><title>EmployeesController</title>
<path fill="none" stroke="black" d="M44.7784,-731.887C44.7784,-731.887 156.778,-731.887 156.778,-731.887 162.778,-731.887 168.778,-737.887 168.778,-743.887 168.778,-743.887 168.778,-902.887 168.778,-902.887 168.778,-908.887 162.778,-914.887 156.778,-914.887 156.778,-914.887 44.7784,-914.887 44.7784,-914.887 38.7784,-914.887 32.7784,-908.887 32.7784,-902.887 32.7784,-902.887 32.7784,-743.887 32.7784,-743.887 32.7784,-737.887 38.7784,-731.887 44.7784,-731.887"/>
<text text-anchor="middle" x="100.778" y="-899.687" font-family="Times,serif" font-size="14.00">EmployeesController</text>
<polyline fill="none" stroke="black" points="32.7784,-891.887 168.778,-891.887 "/>
<text text-anchor="start" x="40.7784" y="-876.687" font-family="Times,serif" font-size="14.00">create</text>
<text text-anchor="start" x="40.7784" y="-861.687" font-family="Times,serif" font-size="14.00">destroy</text>
<text text-anchor="start" x="40.7784" y="-846.687" font-family="Times,serif" font-size="14.00">edit</text>
<text text-anchor="start" x="40.7784" y="-831.687" font-family="Times,serif" font-size="14.00">index</text>
<text text-anchor="start" x="40.7784" y="-816.687" font-family="Times,serif" font-size="14.00">new</text>
<text text-anchor="start" x="40.7784" y="-801.687" font-family="Times,serif" font-size="14.00">show</text>
<text text-anchor="start" x="40.7784" y="-786.687" font-family="Times,serif" font-size="14.00">update</text>
<polyline fill="none" stroke="black" points="32.7784,-778.887 168.778,-778.887 "/>
<polyline fill="none" stroke="black" points="32.7784,-754.887 168.778,-754.887 "/>
<text text-anchor="start" x="40.7784" y="-739.687" font-family="Times,serif" font-size="14.00">_layout</text>
</g>
<!-- ApplicationController&#45;&gt;EmployeesController -->
<g id="edge3" class="edge"><title>ApplicationController&#45;&gt;EmployeesController</title>
<path fill="none" stroke="black" d="M426.51,-461.343C412.361,-483.694 395.889,-511.158 382.957,-536.861 355.151,-592.127 369.437,-617.662 330.651,-665.86 286.898,-720.229 219.467,-763.343 168.933,-790.623"/>
</g>
<!-- FedexContractsController -->
<g id="node6" class="node"><title>FedexContractsController</title>
<path fill="none" stroke="black" d="M398.157,-540.061C398.157,-540.061 536.157,-540.061 536.157,-540.061 542.157,-540.061 548.157,-546.061 548.157,-552.061 548.157,-552.061 548.157,-711.061 548.157,-711.061 548.157,-717.061 542.157,-723.061 536.157,-723.061 536.157,-723.061 398.157,-723.061 398.157,-723.061 392.157,-723.061 386.157,-717.061 386.157,-711.061 386.157,-711.061 386.157,-552.061 386.157,-552.061 386.157,-546.061 392.157,-540.061 398.157,-540.061"/>
<text text-anchor="middle" x="467.157" y="-707.861" font-family="Times,serif" font-size="14.00">FedexContractsController</text>
<polyline fill="none" stroke="black" points="386.157,-700.061 548.157,-700.061 "/>
<text text-anchor="start" x="394.157" y="-684.861" font-family="Times,serif" font-size="14.00">create</text>
<text text-anchor="start" x="394.157" y="-669.861" font-family="Times,serif" font-size="14.00">destroy</text>
<text text-anchor="start" x="394.157" y="-654.861" font-family="Times,serif" font-size="14.00">edit</text>
<text text-anchor="start" x="394.157" y="-639.861" font-family="Times,serif" font-size="14.00">index</text>
<text text-anchor="start" x="394.157" y="-624.861" font-family="Times,serif" font-size="14.00">new</text>
<text text-anchor="start" x="394.157" y="-609.861" font-family="Times,serif" font-size="14.00">show</text>
<text text-anchor="start" x="394.157" y="-594.861" font-family="Times,serif" font-size="14.00">update</text>
<polyline fill="none" stroke="black" points="386.157,-587.061 548.157,-587.061 "/>
<polyline fill="none" stroke="black" points="386.157,-563.061 548.157,-563.061 "/>
<text text-anchor="start" x="394.157" y="-547.861" font-family="Times,serif" font-size="14.00">_layout</text>
</g>
<!-- ApplicationController&#45;&gt;FedexContractsController -->
<g id="edge4" class="edge"><title>ApplicationController&#45;&gt;FedexContractsController</title>
<path fill="none" stroke="black" d="M459.409,-461.597C460.453,-484.493 461.747,-512.884 462.977,-539.862"/>
</g>
<!-- NotesController -->
<g id="node7" class="node"><title>NotesController</title>
<path fill="none" stroke="black" d="M232.451,-479.66C232.451,-479.66 315.451,-479.66 315.451,-479.66 321.451,-479.66 327.451,-485.66 327.451,-491.66 327.451,-491.66 327.451,-650.66 327.451,-650.66 327.451,-656.66 321.451,-662.66 315.451,-662.66 315.451,-662.66 232.451,-662.66 232.451,-662.66 226.451,-662.66 220.451,-656.66 220.451,-650.66 220.451,-650.66 220.451,-491.66 220.451,-491.66 220.451,-485.66 226.451,-479.66 232.451,-479.66"/>
<text text-anchor="middle" x="273.951" y="-647.46" font-family="Times,serif" font-size="14.00">NotesController</text>
<polyline fill="none" stroke="black" points="220.451,-639.66 327.451,-639.66 "/>
<text text-anchor="start" x="228.451" y="-624.46" font-family="Times,serif" font-size="14.00">create</text>
<text text-anchor="start" x="228.451" y="-609.46" font-family="Times,serif" font-size="14.00">destroy</text>
<text text-anchor="start" x="228.451" y="-594.46" font-family="Times,serif" font-size="14.00">edit</text>
<text text-anchor="start" x="228.451" y="-579.46" font-family="Times,serif" font-size="14.00">index</text>
<text text-anchor="start" x="228.451" y="-564.46" font-family="Times,serif" font-size="14.00">new</text>
<text text-anchor="start" x="228.451" y="-549.46" font-family="Times,serif" font-size="14.00">show</text>
<text text-anchor="start" x="228.451" y="-534.46" font-family="Times,serif" font-size="14.00">update</text>
<polyline fill="none" stroke="black" points="220.451,-526.66 327.451,-526.66 "/>
<polyline fill="none" stroke="black" points="220.451,-502.66 327.451,-502.66 "/>
<text text-anchor="start" x="228.451" y="-487.46" font-family="Times,serif" font-size="14.00">_layout</text>
</g>
<!-- ApplicationController&#45;&gt;NotesController -->
<g id="edge5" class="edge"><title>ApplicationController&#45;&gt;NotesController</title>
<path fill="none" stroke="black" d="M402.274,-461.74C378.649,-481.885 351.134,-505.346 327.655,-525.367"/>
</g>
<!-- PsaStatesController -->
<g id="node8" class="node"><title>PsaStatesController</title>
<path fill="none" stroke="black" d="M18.6073,-32.5838C18.6073,-32.5838 121.607,-32.5838 121.607,-32.5838 127.607,-32.5838 133.607,-38.5838 133.607,-44.5838 133.607,-44.5838 133.607,-203.584 133.607,-203.584 133.607,-209.584 127.607,-215.584 121.607,-215.584 121.607,-215.584 18.6073,-215.584 18.6073,-215.584 12.6073,-215.584 6.60731,-209.584 6.60731,-203.584 6.60731,-203.584 6.60731,-44.5838 6.60731,-44.5838 6.60731,-38.5838 12.6073,-32.5838 18.6073,-32.5838"/>
<text text-anchor="middle" x="70.1073" y="-200.384" font-family="Times,serif" font-size="14.00">PsaStatesController</text>
<polyline fill="none" stroke="black" points="6.60731,-192.584 133.607,-192.584 "/>
<text text-anchor="start" x="14.6073" y="-177.384" font-family="Times,serif" font-size="14.00">create</text>
<text text-anchor="start" x="14.6073" y="-162.384" font-family="Times,serif" font-size="14.00">destroy</text>
<text text-anchor="start" x="14.6073" y="-147.384" font-family="Times,serif" font-size="14.00">edit</text>
<text text-anchor="start" x="14.6073" y="-132.384" font-family="Times,serif" font-size="14.00">index</text>
<text text-anchor="start" x="14.6073" y="-117.384" font-family="Times,serif" font-size="14.00">new</text>
<text text-anchor="start" x="14.6073" y="-102.384" font-family="Times,serif" font-size="14.00">show</text>
<text text-anchor="start" x="14.6073" y="-87.3838" font-family="Times,serif" font-size="14.00">update</text>
<polyline fill="none" stroke="black" points="6.60731,-79.5838 133.607,-79.5838 "/>
<polyline fill="none" stroke="black" points="6.60731,-55.5838 133.607,-55.5838 "/>
<text text-anchor="start" x="14.6073" y="-40.3838" font-family="Times,serif" font-size="14.00">_layout</text>
</g>
<!-- ApplicationController&#45;&gt;PsaStatesController -->
<g id="edge6" class="edge"><title>ApplicationController&#45;&gt;PsaStatesController</title>
<path fill="none" stroke="black" d="M438.729,-368.219C420.337,-327.587 388.454,-269.81 343.929,-234.661 291.877,-193.571 264.114,-211.563 202.636,-186.7 179.87,-177.493 155.437,-166.33 133.827,-155.994"/>
</g>
<!-- PsazipsController -->
<g id="node9" class="node"><title>PsazipsController</title>
<path fill="none" stroke="black" d="M615.316,-250.057C615.316,-250.057 707.316,-250.057 707.316,-250.057 713.316,-250.057 719.316,-256.057 719.316,-262.057 719.316,-262.057 719.316,-421.057 719.316,-421.057 719.316,-427.057 713.316,-433.057 707.316,-433.057 707.316,-433.057 615.316,-433.057 615.316,-433.057 609.316,-433.057 603.316,-427.057 603.316,-421.057 603.316,-421.057 603.316,-262.057 603.316,-262.057 603.316,-256.057 609.316,-250.057 615.316,-250.057"/>
<text text-anchor="middle" x="661.316" y="-417.857" font-family="Times,serif" font-size="14.00">PsazipsController</text>
<polyline fill="none" stroke="black" points="603.316,-410.057 719.316,-410.057 "/>
<text text-anchor="start" x="611.316" y="-394.857" font-family="Times,serif" font-size="14.00">create</text>
<text text-anchor="start" x="611.316" y="-379.857" font-family="Times,serif" font-size="14.00">destroy</text>
<text text-anchor="start" x="611.316" y="-364.857" font-family="Times,serif" font-size="14.00">edit</text>
<text text-anchor="start" x="611.316" y="-349.857" font-family="Times,serif" font-size="14.00">index</text>
<text text-anchor="start" x="611.316" y="-334.857" font-family="Times,serif" font-size="14.00">new</text>
<text text-anchor="start" x="611.316" y="-319.857" font-family="Times,serif" font-size="14.00">show</text>
<text text-anchor="start" x="611.316" y="-304.857" font-family="Times,serif" font-size="14.00">update</text>
<polyline fill="none" stroke="black" points="603.316,-297.057 719.316,-297.057 "/>
<polyline fill="none" stroke="black" points="603.316,-273.057 719.316,-273.057 "/>
<text text-anchor="start" x="611.316" y="-257.857" font-family="Times,serif" font-size="14.00">_layout</text>
</g>
<!-- ApplicationController&#45;&gt;PsazipsController -->
<g id="edge7" class="edge"><title>ApplicationController&#45;&gt;PsazipsController</title>
<path fill="none" stroke="black" d="M555.412,-379.593C571.747,-373.726 588.215,-367.812 603.137,-362.452"/>
</g>
<!-- RegionsController -->
<g id="node10" class="node"><title>RegionsController</title>
<path fill="none" stroke="black" d="M232.729,-237.861C232.729,-237.861 328.729,-237.861 328.729,-237.861 334.729,-237.861 340.729,-243.861 340.729,-249.861 340.729,-249.861 340.729,-408.861 340.729,-408.861 340.729,-414.861 334.729,-420.861 328.729,-420.861 328.729,-420.861 232.729,-420.861 232.729,-420.861 226.729,-420.861 220.729,-414.861 220.729,-408.861 220.729,-408.861 220.729,-249.861 220.729,-249.861 220.729,-243.861 226.729,-237.861 232.729,-237.861"/>
<text text-anchor="middle" x="280.729" y="-405.661" font-family="Times,serif" font-size="14.00">RegionsController</text>
<polyline fill="none" stroke="black" points="220.729,-397.861 340.729,-397.861 "/>
<text text-anchor="start" x="228.729" y="-382.661" font-family="Times,serif" font-size="14.00">create</text>
<text text-anchor="start" x="228.729" y="-367.661" font-family="Times,serif" font-size="14.00">destroy</text>
<text text-anchor="start" x="228.729" y="-352.661" font-family="Times,serif" font-size="14.00">edit</text>
<text text-anchor="start" x="228.729" y="-337.661" font-family="Times,serif" font-size="14.00">index</text>
<text text-anchor="start" x="228.729" y="-322.661" font-family="Times,serif" font-size="14.00">new</text>
<text text-anchor="start" x="228.729" y="-307.661" font-family="Times,serif" font-size="14.00">show</text>
<text text-anchor="start" x="228.729" y="-292.661" font-family="Times,serif" font-size="14.00">update</text>
<polyline fill="none" stroke="black" points="220.729,-284.861 340.729,-284.861 "/>
<polyline fill="none" stroke="black" points="220.729,-260.861 340.729,-260.861 "/>
<text text-anchor="start" x="228.729" y="-245.661" font-family="Times,serif" font-size="14.00">_layout</text>
</g>
<!-- ApplicationController&#45;&gt;RegionsController -->
<g id="edge8" class="edge"><title>ApplicationController&#45;&gt;RegionsController</title>
<path fill="none" stroke="black" d="M360.996,-368.223C354.218,-364.941 347.504,-361.69 341.014,-358.549"/>
</g>
<!-- RolesController -->
<g id="node11" class="node"><title>RolesController</title>
<path fill="none" stroke="black" d="M620.777,-11.512C620.777,-11.512 702.777,-11.512 702.777,-11.512 708.777,-11.512 714.777,-17.512 714.777,-23.512 714.777,-23.512 714.777,-182.512 714.777,-182.512 714.777,-188.512 708.777,-194.512 702.777,-194.512 702.777,-194.512 620.777,-194.512 620.777,-194.512 614.777,-194.512 608.777,-188.512 608.777,-182.512 608.777,-182.512 608.777,-23.512 608.777,-23.512 608.777,-17.512 614.777,-11.512 620.777,-11.512"/>
<text text-anchor="middle" x="661.777" y="-179.312" font-family="Times,serif" font-size="14.00">RolesController</text>
<polyline fill="none" stroke="black" points="608.777,-171.512 714.777,-171.512 "/>
<text text-anchor="start" x="616.777" y="-156.312" font-family="Times,serif" font-size="14.00">create</text>
<text text-anchor="start" x="616.777" y="-141.312" font-family="Times,serif" font-size="14.00">destroy</text>
<text text-anchor="start" x="616.777" y="-126.312" font-family="Times,serif" font-size="14.00">edit</text>
<text text-anchor="start" x="616.777" y="-111.312" font-family="Times,serif" font-size="14.00">index</text>
<text text-anchor="start" x="616.777" y="-96.312" font-family="Times,serif" font-size="14.00">new</text>
<text text-anchor="start" x="616.777" y="-81.312" font-family="Times,serif" font-size="14.00">show</text>
<text text-anchor="start" x="616.777" y="-66.312" font-family="Times,serif" font-size="14.00">update</text>
<polyline fill="none" stroke="black" points="608.777,-58.512 714.777,-58.512 "/>
<polyline fill="none" stroke="black" points="608.777,-34.512 714.777,-34.512 "/>
<text text-anchor="start" x="616.777" y="-19.312" font-family="Times,serif" font-size="14.00">_layout</text>
</g>
<!-- ApplicationController&#45;&gt;RolesController -->
<g id="edge9" class="edge"><title>ApplicationController&#45;&gt;RolesController</title>
<path fill="none" stroke="black" d="M487.894,-368.155C519.76,-319.563 570.282,-242.526 608.675,-183.984"/>
</g>
<!-- StatesController -->
<g id="node12" class="node"><title>StatesController</title>
<path fill="none" stroke="black" d="M421.478,-56.075C421.478,-56.075 504.478,-56.075 504.478,-56.075 510.478,-56.075 516.478,-62.075 516.478,-68.075 516.478,-68.075 516.478,-227.075 516.478,-227.075 516.478,-233.075 510.478,-239.075 504.478,-239.075 504.478,-239.075 421.478,-239.075 421.478,-239.075 415.478,-239.075 409.478,-233.075 409.478,-227.075 409.478,-227.075 409.478,-68.075 409.478,-68.075 409.478,-62.075 415.478,-56.075 421.478,-56.075"/>
<text text-anchor="middle" x="462.978" y="-223.875" font-family="Times,serif" font-size="14.00">StatesController</text>
<polyline fill="none" stroke="black" points="409.478,-216.075 516.478,-216.075 "/>
<text text-anchor="start" x="417.478" y="-200.875" font-family="Times,serif" font-size="14.00">create</text>
<text text-anchor="start" x="417.478" y="-185.875" font-family="Times,serif" font-size="14.00">destroy</text>
<text text-anchor="start" x="417.478" y="-170.875" font-family="Times,serif" font-size="14.00">edit</text>
<text text-anchor="start" x="417.478" y="-155.875" font-family="Times,serif" font-size="14.00">index</text>
<text text-anchor="start" x="417.478" y="-140.875" font-family="Times,serif" font-size="14.00">new</text>
<text text-anchor="start" x="417.478" y="-125.875" font-family="Times,serif" font-size="14.00">show</text>
<text text-anchor="start" x="417.478" y="-110.875" font-family="Times,serif" font-size="14.00">update</text>
<polyline fill="none" stroke="black" points="409.478,-103.075 516.478,-103.075 "/>
<polyline fill="none" stroke="black" points="409.478,-79.075 516.478,-79.075 "/>
<text text-anchor="start" x="417.478" y="-63.875" font-family="Times,serif" font-size="14.00">_layout</text>
</g>
<!-- ApplicationController&#45;&gt;StatesController -->
<g id="edge10" class="edge"><title>ApplicationController&#45;&gt;StatesController</title>
<path fill="none" stroke="black" d="M458.271,-368.284C459.028,-332.765 460.096,-282.707 461.023,-239.242"/>
</g>
<!-- TerminalsController -->
<g id="node13" class="node"><title>TerminalsController</title>
<path fill="none" stroke="black" d="M12,-502.682C12,-502.682 119,-502.682 119,-502.682 125,-502.682 131,-508.682 131,-514.682 131,-514.682 131,-673.682 131,-673.682 131,-679.682 125,-685.682 119,-685.682 119,-685.682 12,-685.682 12,-685.682 6,-685.682 0,-679.682 0,-673.682 0,-673.682 0,-514.682 0,-514.682 0,-508.682 6,-502.682 12,-502.682"/>
<text text-anchor="middle" x="65.5" y="-670.482" font-family="Times,serif" font-size="14.00">TerminalsController</text>
<polyline fill="none" stroke="black" points="0,-662.682 131,-662.682 "/>
<text text-anchor="start" x="8" y="-647.482" font-family="Times,serif" font-size="14.00">create</text>
<text text-anchor="start" x="8" y="-632.482" font-family="Times,serif" font-size="14.00">destroy</text>
<text text-anchor="start" x="8" y="-617.482" font-family="Times,serif" font-size="14.00">edit</text>
<text text-anchor="start" x="8" y="-602.482" font-family="Times,serif" font-size="14.00">index</text>
<text text-anchor="start" x="8" y="-587.482" font-family="Times,serif" font-size="14.00">new</text>
<text text-anchor="start" x="8" y="-572.482" font-family="Times,serif" font-size="14.00">show</text>
<text text-anchor="start" x="8" y="-557.482" font-family="Times,serif" font-size="14.00">update</text>
<polyline fill="none" stroke="black" points="0,-549.682 131,-549.682 "/>
<polyline fill="none" stroke="black" points="0,-525.682 131,-525.682 "/>
<text text-anchor="start" x="8" y="-510.482" font-family="Times,serif" font-size="14.00">_layout</text>
</g>
<!-- ApplicationController&#45;&gt;TerminalsController -->
<g id="edge11" class="edge"><title>ApplicationController&#45;&gt;TerminalsController</title>
<path fill="none" stroke="black" d="M359.187,-430.579C314.401,-440.111 261.585,-454.74 217.251,-476.46 186.709,-491.423 156.414,-513.151 131.018,-533.878"/>
</g>
<!-- UserRolesController -->
<g id="node14" class="node"><title>UserRolesController</title>
<path fill="none" stroke="black" d="M617.024,-476.033C617.024,-476.033 725.024,-476.033 725.024,-476.033 731.024,-476.033 737.024,-482.033 737.024,-488.033 737.024,-488.033 737.024,-647.033 737.024,-647.033 737.024,-653.033 731.024,-659.033 725.024,-659.033 725.024,-659.033 617.024,-659.033 617.024,-659.033 611.024,-659.033 605.024,-653.033 605.024,-647.033 605.024,-647.033 605.024,-488.033 605.024,-488.033 605.024,-482.033 611.024,-476.033 617.024,-476.033"/>
<text text-anchor="middle" x="671.024" y="-643.833" font-family="Times,serif" font-size="14.00">UserRolesController</text>
<polyline fill="none" stroke="black" points="605.024,-636.033 737.024,-636.033 "/>
<text text-anchor="start" x="613.024" y="-620.833" font-family="Times,serif" font-size="14.00">create</text>
<text text-anchor="start" x="613.024" y="-605.833" font-family="Times,serif" font-size="14.00">destroy</text>
<text text-anchor="start" x="613.024" y="-590.833" font-family="Times,serif" font-size="14.00">edit</text>
<text text-anchor="start" x="613.024" y="-575.833" font-family="Times,serif" font-size="14.00">index</text>
<text text-anchor="start" x="613.024" y="-560.833" font-family="Times,serif" font-size="14.00">new</text>
<text text-anchor="start" x="613.024" y="-545.833" font-family="Times,serif" font-size="14.00">show</text>
<text text-anchor="start" x="613.024" y="-530.833" font-family="Times,serif" font-size="14.00">update</text>
<polyline fill="none" stroke="black" points="605.024,-523.033 737.024,-523.033 "/>
<polyline fill="none" stroke="black" points="605.024,-499.033 737.024,-499.033 "/>
<text text-anchor="start" x="613.024" y="-483.833" font-family="Times,serif" font-size="14.00">_layout</text>
</g>
<!-- ApplicationController&#45;&gt;UserRolesController -->
<g id="edge12" class="edge"><title>ApplicationController&#45;&gt;UserRolesController</title>
<path fill="none" stroke="black" d="M522.57,-461.481C548.598,-480.075 578.523,-501.453 604.656,-520.122"/>
</g>
<!-- UsersController -->
<g id="node15" class="node"><title>UsersController</title>
<path fill="none" stroke="black" d="M598.863,-730.203C598.863,-730.203 680.863,-730.203 680.863,-730.203 686.863,-730.203 692.863,-736.203 692.863,-742.203 692.863,-742.203 692.863,-901.203 692.863,-901.203 692.863,-907.203 686.863,-913.203 680.863,-913.203 680.863,-913.203 598.863,-913.203 598.863,-913.203 592.863,-913.203 586.863,-907.203 586.863,-901.203 586.863,-901.203 586.863,-742.203 586.863,-742.203 586.863,-736.203 592.863,-730.203 598.863,-730.203"/>
<text text-anchor="middle" x="639.863" y="-898.003" font-family="Times,serif" font-size="14.00">UsersController</text>
<polyline fill="none" stroke="black" points="586.863,-890.203 692.863,-890.203 "/>
<text text-anchor="start" x="594.863" y="-875.003" font-family="Times,serif" font-size="14.00">create</text>
<text text-anchor="start" x="594.863" y="-860.003" font-family="Times,serif" font-size="14.00">destroy</text>
<text text-anchor="start" x="594.863" y="-845.003" font-family="Times,serif" font-size="14.00">edit</text>
<text text-anchor="start" x="594.863" y="-830.003" font-family="Times,serif" font-size="14.00">index</text>
<text text-anchor="start" x="594.863" y="-815.003" font-family="Times,serif" font-size="14.00">new</text>
<text text-anchor="start" x="594.863" y="-800.003" font-family="Times,serif" font-size="14.00">show</text>
<text text-anchor="start" x="594.863" y="-785.003" font-family="Times,serif" font-size="14.00">update</text>
<polyline fill="none" stroke="black" points="586.863,-777.203 692.863,-777.203 "/>
<polyline fill="none" stroke="black" points="586.863,-753.203 692.863,-753.203 "/>
<text text-anchor="start" x="594.863" y="-738.003" font-family="Times,serif" font-size="14.00">_layout</text>
</g>
<!-- ApplicationController&#45;&gt;UsersController -->
<g id="edge13" class="edge"><title>ApplicationController&#45;&gt;UsersController</title>
<path fill="none" stroke="black" d="M499.506,-461.415C517.461,-483.118 537.424,-510.036 551.357,-536.861 583.101,-597.982 605.75,-672.477 620.186,-729.952"/>
</g>
<!-- ZipsController -->
<g id="node16" class="node"><title>ZipsController</title>
<path fill="none" stroke="black" d="M323.42,-737.405C323.42,-737.405 398.42,-737.405 398.42,-737.405 404.42,-737.405 410.42,-743.405 410.42,-749.405 410.42,-749.405 410.42,-908.405 410.42,-908.405 410.42,-914.405 404.42,-920.405 398.42,-920.405 398.42,-920.405 323.42,-920.405 323.42,-920.405 317.42,-920.405 311.42,-914.405 311.42,-908.405 311.42,-908.405 311.42,-749.405 311.42,-749.405 311.42,-743.405 317.42,-737.405 323.42,-737.405"/>
<text text-anchor="middle" x="360.92" y="-905.205" font-family="Times,serif" font-size="14.00">ZipsController</text>
<polyline fill="none" stroke="black" points="311.42,-897.405 410.42,-897.405 "/>
<text text-anchor="start" x="319.42" y="-882.205" font-family="Times,serif" font-size="14.00">create</text>
<text text-anchor="start" x="319.42" y="-867.205" font-family="Times,serif" font-size="14.00">destroy</text>
<text text-anchor="start" x="319.42" y="-852.205" font-family="Times,serif" font-size="14.00">edit</text>
<text text-anchor="start" x="319.42" y="-837.205" font-family="Times,serif" font-size="14.00">index</text>
<text text-anchor="start" x="319.42" y="-822.205" font-family="Times,serif" font-size="14.00">new</text>
<text text-anchor="start" x="319.42" y="-807.205" font-family="Times,serif" font-size="14.00">show</text>
<text text-anchor="start" x="319.42" y="-792.205" font-family="Times,serif" font-size="14.00">update</text>
<polyline fill="none" stroke="black" points="311.42,-784.405 410.42,-784.405 "/>
<polyline fill="none" stroke="black" points="311.42,-760.405 410.42,-760.405 "/>
<text text-anchor="start" x="319.42" y="-745.205" font-family="Times,serif" font-size="14.00">_layout</text>
</g>
<!-- ApplicationController&#45;&gt;ZipsController -->
<g id="edge14" class="edge"><title>ApplicationController&#45;&gt;ZipsController</title>
<path fill="none" stroke="black" d="M421.649,-461.548C407.025,-483.276 391.539,-510.178 382.957,-536.861 362.095,-601.723 357.035,-678.698 356.95,-737.335"/>
</g>
</g>
</svg>
