<?xml version="1.0" encoding="UTF-8" standalone="no"?>
<!DOCTYPE svg PUBLIC "-//W3C//DTD SVG 1.1//EN"
 "http://www.w3.org/Graphics/SVG/1.1/DTD/svg11.dtd">
<!-- Generated by graphviz version 2.29.20121209.0545 (20121209.0545)
 -->
<!-- Title: controllers_diagram Pages: 1 -->
<svg width="2953pt" height="1610pt"
 viewBox="0.00 0.00 2952.87 1610.44" xmlns="http://www.w3.org/2000/svg" xmlns:xlink="http://www.w3.org/1999/xlink">
<g id="graph0" class="graph" transform="scale(1 1) rotate(0) translate(4 1606.44)">
<title>controllers_diagram</title>
<polygon fill="white" stroke="white" points="-4,5 -4,-1606.44 2949.87,-1606.44 2949.87,5 -4,5"/>
<!-- _diagram_info -->
<g id="node1" class="node"><title>_diagram_info</title>
<text text-anchor="start" x="1928" y="-63.6" font-family="Times,serif" font-size="13.00">Controllers diagram</text>
<text text-anchor="start" x="1928" y="-49.6" font-family="Times,serif" font-size="13.00">Date: Dec 17 2012 &#45; 00:47</text>
<text text-anchor="start" x="1928" y="-35.6" font-family="Times,serif" font-size="13.00">Migration version: 20121217053059</text>
<text text-anchor="start" x="1928" y="-21.6" font-family="Times,serif" font-size="13.00">Generated by RailRoady 1.1.0</text>
<text text-anchor="start" x="1928" y="-7.6" font-family="Times,serif" font-size="13.00">http://railroady.prestonlee.com</text>
</g>
<!-- AddendumsController -->
<g id="node2" class="node"><title>AddendumsController</title>
<ellipse fill="none" stroke="black" cx="134.696" cy="-291.243" rx="92.0841" ry="18"/>
<text text-anchor="middle" x="134.696" y="-287.543" font-family="Times,serif" font-size="14.00">AddendumsController</text>
</g>
<!-- ApplicationController -->
<g id="node3" class="node"><title>ApplicationController</title>
<ellipse fill="none" stroke="black" cx="1488.69" cy="-903.221" rx="90.9839" ry="18"/>
<text text-anchor="middle" x="1488.69" y="-899.521" font-family="Times,serif" font-size="14.00">ApplicationController</text>
</g>
<!-- ApplicationController&#45;&gt;AddendumsController -->
<g id="edge1" class="edge"><title>ApplicationController&#45;&gt;AddendumsController</title>
<path fill="none" stroke="black" d="M1452.13,-886.694C1259.5,-799.63 364.028,-394.896 171.303,-307.788"/>
</g>
<!-- BusinessesController -->
<g id="node4" class="node"><title>BusinessesController</title>
<ellipse fill="none" stroke="black" cx="1271.75" cy="-230.467" rx="87.9851" ry="18"/>
<text text-anchor="middle" x="1271.75" y="-226.767" font-family="Times,serif" font-size="14.00">BusinessesController</text>
</g>
<!-- ApplicationController&#45;&gt;BusinessesController -->
<g id="edge2" class="edge"><title>ApplicationController&#45;&gt;BusinessesController</title>
<path fill="none" stroke="black" d="M1494.72,-884.977C1509.46,-837.671 1544.25,-707.462 1518.34,-602.995 1479.5,-446.415 1340.98,-298.351 1290.41,-248.332"/>
</g>
<!-- DailyDataController -->
<g id="node5" class="node"><title>DailyDataController</title>
<ellipse fill="none" stroke="black" cx="1142.2" cy="-1582.4" rx="85.5853" ry="18"/>
<text text-anchor="middle" x="1142.2" y="-1578.7" font-family="Times,serif" font-size="14.00">DailyDataController</text>
</g>
<!-- ApplicationController&#45;&gt;DailyDataController -->
<g id="edge3" class="edge"><title>ApplicationController&#45;&gt;DailyDataController</title>
<path fill="none" stroke="black" d="M1469.94,-921.051C1425.43,-964.405 1312.53,-1080.51 1251.35,-1198.95 1183.84,-1329.62 1153.2,-1507.57 1144.73,-1564.27"/>
</g>
<!-- DailyDataDeliveryExceptionsController -->
<g id="node6" class="node"><title>DailyDataDeliveryExceptionsController</title>
<ellipse fill="none" stroke="black" cx="2340.2" cy="-680.033" rx="157.872" ry="18"/>
<text text-anchor="middle" x="2340.2" y="-676.333" font-family="Times,serif" font-size="14.00">DailyDataDeliveryExceptionsController</text>
</g>
<!-- ApplicationController&#45;&gt;DailyDataDeliveryExceptionsController -->
<g id="edge4" class="edge"><title>ApplicationController&#45;&gt;DailyDataDeliveryExceptionsController</title>
<path fill="none" stroke="black" d="M1543.58,-888.835C1694.74,-849.213 2116.55,-738.654 2277.08,-696.577"/>
</g>
<!-- DailyDataEmployeesController -->
<g id="node7" class="node"><title>DailyDataEmployeesController</title>
<ellipse fill="none" stroke="black" cx="946.179" cy="-888.883" rx="126.178" ry="18"/>
<text text-anchor="middle" x="946.179" y="-885.183" font-family="Times,serif" font-size="14.00">DailyDataEmployeesController</text>
</g>
<!-- ApplicationController&#45;&gt;DailyDataEmployeesController -->
<g id="edge5" class="edge"><title>ApplicationController&#45;&gt;DailyDataEmployeesController</title>
<path fill="none" stroke="black" d="M1403.04,-909.412C1352.43,-912.384 1287.08,-915.033 1229,-913.662 1167.04,-912.199 1097.71,-906.194 1043.2,-900.463"/>
</g>
<!-- DailyDataVehiclesController -->
<g id="node8" class="node"><title>DailyDataVehiclesController</title>
<ellipse fill="none" stroke="black" cx="664.79" cy="-218.233" rx="117.779" ry="18"/>
<text text-anchor="middle" x="664.79" y="-214.533" font-family="Times,serif" font-size="14.00">DailyDataVehiclesController</text>
</g>
<!-- ApplicationController&#45;&gt;DailyDataVehiclesController -->
<g id="edge6" class="edge"><title>ApplicationController&#45;&gt;DailyDataVehiclesController</title>
<path fill="none" stroke="black" d="M1469,-885.391C1414.36,-836.043 1255.92,-693.819 1120.1,-580.434 957.27,-444.496 755.199,-287.852 687.837,-235.947"/>
</g>
<!-- DeliveryExceptionsController -->
<g id="node9" class="node"><title>DeliveryExceptionsController</title>
<ellipse fill="none" stroke="black" cx="2327.19" cy="-218.617" rx="120.479" ry="18"/>
<text text-anchor="middle" x="2327.19" y="-214.917" font-family="Times,serif" font-size="14.00">DeliveryExceptionsController</text>
</g>
<!-- ApplicationController&#45;&gt;DeliveryExceptionsController -->
<g id="edge7" class="edge"><title>ApplicationController&#45;&gt;DeliveryExceptionsController</title>
<path fill="none" stroke="black" d="M1508.6,-885.451C1563.1,-836.918 1719.69,-698.386 1854.02,-588.111 2023.6,-448.905 2234.22,-288.805 2303.73,-236.292"/>
</g>
<!-- EmployeeManagerAssignmentsController -->
<g id="node10" class="node"><title>EmployeeManagerAssignmentsController</title>
<ellipse fill="none" stroke="black" cx="1352.3" cy="-602.979" rx="164.371" ry="18"/>
<text text-anchor="middle" x="1352.3" y="-599.279" font-family="Times,serif" font-size="14.00">EmployeeManagerAssignmentsController</text>
</g>
<!-- ApplicationController&#45;&gt;EmployeeManagerAssignmentsController -->
<g id="edge8" class="edge"><title>ApplicationController&#45;&gt;EmployeeManagerAssignmentsController</title>
<path fill="none" stroke="black" d="M1480.37,-884.892C1455.96,-831.163 1384.79,-674.489 1360.52,-621.069"/>
</g>
<!-- EmployeePaysController -->
<g id="node11" class="node"><title>EmployeePaysController</title>
<ellipse fill="none" stroke="black" cx="1727.06" cy="-225.174" rx="102.082" ry="18"/>
<text text-anchor="middle" x="1727.06" y="-221.474" font-family="Times,serif" font-size="14.00">EmployeePaysController</text>
</g>
<!-- ApplicationController&#45;&gt;EmployeePaysController -->
<g id="edge9" class="edge"><title>ApplicationController&#45;&gt;EmployeePaysController</title>
<path fill="none" stroke="black" d="M1488.89,-885.166C1489.88,-837.778 1495.6,-706.393 1528.37,-603.264 1575.42,-455.209 1678.53,-296.267 1714.43,-243.412"/>
</g>
<!-- EmployeePsasController -->
<g id="node12" class="node"><title>EmployeePsasController</title>
<ellipse fill="none" stroke="black" cx="1631.36" cy="-603.316" rx="101.282" ry="18"/>
<text text-anchor="middle" x="1631.36" y="-599.616" font-family="Times,serif" font-size="14.00">EmployeePsasController</text>
</g>
<!-- ApplicationController&#45;&gt;EmployeePsasController -->
<g id="edge10" class="edge"><title>ApplicationController&#45;&gt;EmployeePsasController</title>
<path fill="none" stroke="black" d="M1497.4,-884.912C1522.93,-831.244 1597.38,-674.746 1622.76,-621.385"/>
</g>
<!-- EmployeeTerminalsController -->
<g id="node13" class="node"><title>EmployeeTerminalsController</title>
<ellipse fill="none" stroke="black" cx="122.189" cy="-893.277" rx="122.379" ry="18"/>
<text text-anchor="middle" x="122.189" y="-889.577" font-family="Times,serif" font-size="14.00">EmployeeTerminalsController</text>
</g>
<!-- ApplicationController&#45;&gt;EmployeeTerminalsController -->
<g id="edge11" class="edge"><title>ApplicationController&#45;&gt;EmployeeTerminalsController</title>
<path fill="none" stroke="black" d="M1400.98,-908.024C1350.66,-910.458 1286.3,-913.033 1229,-913.662 869.154,-917.611 443.566,-904.877 240.931,-897.753"/>
</g>
<!-- EmployeesController -->
<g id="node14" class="node"><title>EmployeesController</title>
<ellipse fill="none" stroke="black" cx="2856.48" cy="-897.964" rx="88.2844" ry="18"/>
<text text-anchor="middle" x="2856.48" y="-894.264" font-family="Times,serif" font-size="14.00">EmployeesController</text>
</g>
<!-- ApplicationController&#45;&gt;EmployeesController -->
<g id="edge12" class="edge"><title>ApplicationController&#45;&gt;EmployeesController</title>
<path fill="none" stroke="black" d="M1572.42,-910.331C1622.98,-914.211 1688.71,-918.532 1747.15,-920.069 2128.66,-930.102 2584.09,-911.365 2770.52,-902.381"/>
</g>
<!-- FedexContractsController -->
<g id="node15" class="node"><title>FedexContractsController</title>
<ellipse fill="none" stroke="black" cx="2340.35" cy="-1114.01" rx="105.082" ry="18"/>
<text text-anchor="middle" x="2340.35" y="-1110.31" font-family="Times,serif" font-size="14.00">FedexContractsController</text>
</g>
<!-- ApplicationController&#45;&gt;FedexContractsController -->
<g id="edge13" class="edge"><title>ApplicationController&#45;&gt;FedexContractsController</title>
<path fill="none" stroke="black" d="M1545.56,-917.297C1699.48,-955.393 2123.18,-1060.26 2280.51,-1099.2"/>
</g>
<!-- FlatPaysController -->
<g id="node16" class="node"><title>FlatPaysController</title>
<ellipse fill="none" stroke="black" cx="1824.96" cy="-1584.44" rx="79.0865" ry="18"/>
<text text-anchor="middle" x="1824.96" y="-1580.74" font-family="Times,serif" font-size="14.00">FlatPaysController</text>
</g>
<!-- ApplicationController&#45;&gt;FlatPaysController -->
<g id="edge14" class="edge"><title>ApplicationController&#45;&gt;FlatPaysController</title>
<path fill="none" stroke="black" d="M1507.51,-920.851C1552.71,-964.269 1668.11,-1081.66 1728.28,-1202.68 1792.96,-1332.78 1816.88,-1509.93 1823.13,-1566.39"/>
</g>
<!-- FrequenciesController -->
<g id="node17" class="node"><title>FrequenciesController</title>
<ellipse fill="none" stroke="black" cx="1947.91" cy="-588.226" rx="92.0841" ry="18"/>
<text text-anchor="middle" x="1947.91" y="-584.526" font-family="Times,serif" font-size="14.00">FrequenciesController</text>
</g>
<!-- ApplicationController&#45;&gt;FrequenciesController -->
<g id="edge15" class="edge"><title>ApplicationController&#45;&gt;FrequenciesController</title>
<path fill="none" stroke="black" d="M1514.04,-885.837C1594.32,-830.765 1842.47,-660.554 1922.64,-605.556"/>
</g>
<!-- NotesController -->
<g id="node18" class="node"><title>NotesController</title>
<ellipse fill="none" stroke="black" cx="1984.22" cy="-185.882" rx="69.5877" ry="18"/>
<text text-anchor="middle" x="1984.22" y="-182.182" font-family="Times,serif" font-size="14.00">NotesController</text>
</g>
<!-- ApplicationController&#45;&gt;NotesController -->
<g id="edge16" class="edge"><title>ApplicationController&#45;&gt;NotesController</title>
<path fill="none" stroke="black" d="M1504.91,-885.367C1545.74,-840.007 1655.19,-715.946 1734.35,-603.368 1838.33,-455.499 1943.08,-263.113 1974.65,-203.966"/>
</g>
<!-- PayProfilesController -->
<g id="node19" class="node"><title>PayProfilesController</title>
<ellipse fill="none" stroke="black" cx="731.62" cy="-1564.6" rx="89.8845" ry="18"/>
<text text-anchor="middle" x="731.62" y="-1560.9" font-family="Times,serif" font-size="14.00">PayProfilesController</text>
</g>
<!-- ApplicationController&#45;&gt;PayProfilesController -->
<g id="edge17" class="edge"><title>ApplicationController&#45;&gt;PayProfilesController</title>
<path fill="none" stroke="black" d="M1468.44,-920.911C1361.1,-1014.69 859.431,-1452.94 751.933,-1546.85"/>
</g>
<!-- PaysController -->
<g id="node20" class="node"><title>PaysController</title>
<ellipse fill="none" stroke="black" cx="152.776" cy="-1489.04" rx="64.9885" ry="18"/>
<text text-anchor="middle" x="152.776" y="-1485.34" font-family="Times,serif" font-size="14.00">PaysController</text>
</g>
<!-- ApplicationController&#45;&gt;PaysController -->
<g id="edge18" class="edge"><title>ApplicationController&#45;&gt;PaysController</title>
<path fill="none" stroke="black" d="M1451.22,-919.655C1257.79,-1004.47 374.256,-1391.92 187.508,-1473.81"/>
</g>
<!-- ProductionPaysController -->
<g id="node21" class="node"><title>ProductionPaysController</title>
<ellipse fill="none" stroke="black" cx="636.389" cy="-1109.31" rx="105.082" ry="18"/>
<text text-anchor="middle" x="636.389" y="-1105.61" font-family="Times,serif" font-size="14.00">ProductionPaysController</text>
</g>
<!-- ApplicationController&#45;&gt;ProductionPaysController -->
<g id="edge19" class="edge"><title>ApplicationController&#45;&gt;ProductionPaysController</title>
<path fill="none" stroke="black" d="M1430.78,-917.225C1276.23,-954.596 855.076,-1056.43 697.222,-1094.6"/>
</g>
<!-- PsaStatesController -->
<g id="node22" class="node"><title>PsaStatesController</title>
<ellipse fill="none" stroke="black" cx="1229.21" cy="-894.062" rx="82.5854" ry="18"/>
<text text-anchor="middle" x="1229.21" y="-890.362" font-family="Times,serif" font-size="14.00">PsaStatesController</text>
</g>
<!-- ApplicationController&#45;&gt;PsaStatesController -->
<g id="edge20" class="edge"><title>ApplicationController&#45;&gt;PsaStatesController</title>
<path fill="none" stroke="black" d="M1399.03,-900.056C1370.46,-899.048 1339.02,-897.938 1311.04,-896.95"/>
</g>
<!-- PsasController -->
<g id="node23" class="node"><title>PsasController</title>
<ellipse fill="none" stroke="black" cx="637.972" cy="-676.426" rx="64.189" ry="18"/>
<text text-anchor="middle" x="637.972" y="-672.726" font-family="Times,serif" font-size="14.00">PsasController</text>
</g>
<!-- ApplicationController&#45;&gt;PsasController -->
<g id="edge21" class="edge"><title>ApplicationController&#45;&gt;PsasController</title>
<path fill="none" stroke="black" d="M1434.18,-888.689C1277.96,-847.041 830.503,-727.753 684.594,-688.855"/>
</g>
<!-- PsazipsController -->
<g id="node24" class="node"><title>PsazipsController</title>
<ellipse fill="none" stroke="black" cx="1946.91" cy="-1206" rx="75.2868" ry="18"/>
<text text-anchor="middle" x="1946.91" y="-1202.3" font-family="Times,serif" font-size="14.00">PsazipsController</text>
</g>
<!-- ApplicationController&#45;&gt;PsazipsController -->
<g id="edge22" class="edge"><title>ApplicationController&#45;&gt;PsazipsController</title>
<path fill="none" stroke="black" d="M1514.97,-920.587C1595.89,-974.054 1840.63,-1135.77 1921.02,-1188.89"/>
</g>
<!-- RegionsController -->
<g id="node25" class="node"><title>RegionsController</title>
<ellipse fill="none" stroke="black" cx="2240.34" cy="-1566.28" rx="77.9862" ry="18"/>
<text text-anchor="middle" x="2240.34" y="-1562.58" font-family="Times,serif" font-size="14.00">RegionsController</text>
</g>
<!-- ApplicationController&#45;&gt;RegionsController -->
<g id="edge23" class="edge"><title>ApplicationController&#45;&gt;RegionsController</title>
<path fill="none" stroke="black" d="M1508.8,-920.956C1615.49,-1015.07 2114.53,-1455.3 2220.52,-1548.8"/>
</g>
<!-- RolesController -->
<g id="node26" class="node"><title>RolesController</title>
<ellipse fill="none" stroke="black" cx="1482.45" cy="-1578.53" rx="68.7879" ry="18"/>
<text text-anchor="middle" x="1482.45" y="-1574.83" font-family="Times,serif" font-size="14.00">RolesController</text>
</g>
<!-- ApplicationController&#45;&gt;RolesController -->
<g id="edge24" class="edge"><title>ApplicationController&#45;&gt;RolesController</title>
<path fill="none" stroke="black" d="M1488.53,-921.284C1487.64,-1017.04 1483.5,-1464.52 1482.62,-1560.41"/>
</g>
<!-- ServiceTypesController -->
<g id="node27" class="node"><title>ServiceTypesController</title>
<ellipse fill="none" stroke="black" cx="1498.31" cy="-185.03" rx="97.4827" ry="18"/>
<text text-anchor="middle" x="1498.31" y="-181.33" font-family="Times,serif" font-size="14.00">ServiceTypesController</text>
</g>
<!-- ApplicationController&#45;&gt;ServiceTypesController -->
<g id="edge25" class="edge"><title>ApplicationController&#45;&gt;ServiceTypesController</title>
<path fill="none" stroke="black" d="M1491.43,-885.003C1498.25,-838.282 1515.62,-710.332 1518.34,-602.995 1522.25,-448.307 1505.79,-261.682 1500.15,-203.352"/>
</g>
<!-- StatesController -->
<g id="node28" class="node"><title>StatesController</title>
<ellipse fill="none" stroke="black" cx="2824.78" cy="-1491.15" rx="69.5877" ry="18"/>
<text text-anchor="middle" x="2824.78" y="-1487.45" font-family="Times,serif" font-size="14.00">StatesController</text>
</g>
<!-- ApplicationController&#45;&gt;StatesController -->
<g id="edge26" class="edge"><title>ApplicationController&#45;&gt;StatesController</title>
<path fill="none" stroke="black" d="M1526.17,-919.714C1719.41,-1004.75 2601.34,-1392.83 2789.43,-1475.6"/>
</g>
<!-- TerminalsController -->
<g id="node29" class="node"><title>TerminalsController</title>
<ellipse fill="none" stroke="black" cx="1338.09" cy="-1199.06" rx="85.2851" ry="18"/>
<text text-anchor="middle" x="1338.09" y="-1195.36" font-family="Times,serif" font-size="14.00">TerminalsController</text>
</g>
<!-- ApplicationController&#45;&gt;TerminalsController -->
<g id="edge27" class="edge"><title>ApplicationController&#45;&gt;TerminalsController</title>
<path fill="none" stroke="black" d="M1479.5,-921.282C1452.61,-974.097 1374.33,-1127.87 1347.35,-1180.86"/>
</g>
<!-- UserRolesController -->
<g id="node30" class="node"><title>UserRolesController</title>
<ellipse fill="none" stroke="black" cx="1032.72" cy="-580.241" rx="85.5853" ry="18"/>
<text text-anchor="middle" x="1032.72" y="-576.541" font-family="Times,serif" font-size="14.00">UserRolesController</text>
</g>
<!-- ApplicationController&#45;&gt;UserRolesController -->
<g id="edge28" class="edge"><title>ApplicationController&#45;&gt;UserRolesController</title>
<path fill="none" stroke="black" d="M1464.18,-885.856C1385,-829.776 1136.7,-653.893 1057.35,-597.691"/>
</g>
<!-- UsersController -->
<g id="node31" class="node"><title>UsersController</title>
<ellipse fill="none" stroke="black" cx="2849.43" cy="-294.966" rx="68.7879" ry="18"/>
<text text-anchor="middle" x="2849.43" y="-291.266" font-family="Times,serif" font-size="14.00">UsersController</text>
</g>
<!-- ApplicationController&#45;&gt;UsersController -->
<g id="edge29" class="edge"><title>ApplicationController&#45;&gt;UsersController</title>
<path fill="none" stroke="black" d="M1525.79,-886.636C1720.77,-799.48 2625.11,-395.237 2814.57,-310.55"/>
</g>
<!-- VehicleFuelsController -->
<g id="node32" class="node"><title>VehicleFuelsController</title>
<ellipse fill="none" stroke="black" cx="1630.49" cy="-1202.65" rx="96.3833" ry="18"/>
<text text-anchor="middle" x="1630.49" y="-1198.95" font-family="Times,serif" font-size="14.00">VehicleFuelsController</text>
</g>
<!-- ApplicationController&#45;&gt;VehicleFuelsController -->
<g id="edge30" class="edge"><title>ApplicationController&#45;&gt;VehicleFuelsController</title>
<path fill="none" stroke="black" d="M1497.35,-921.501C1522.72,-975.083 1596.72,-1131.33 1621.95,-1184.61"/>
</g>
<!-- VehicleOdometersController -->
<g id="node33" class="node"><title>VehicleOdometersController</title>
<ellipse fill="none" stroke="black" cx="1747.79" cy="-900.469" rx="116.18" ry="18"/>
<text text-anchor="middle" x="1747.79" y="-896.769" font-family="Times,serif" font-size="14.00">VehicleOdometersController</text>
</g>
<!-- ApplicationController&#45;&gt;VehicleOdometersController -->
<g id="edge31" class="edge"><title>ApplicationController&#45;&gt;VehicleOdometersController</title>
<path fill="none" stroke="black" d="M1579.68,-902.255C1596.45,-902.077 1614.16,-901.888 1631.56,-901.704"/>
</g>
<!-- VehicleTypesController -->
<g id="node34" class="node"><title>VehicleTypesController</title>
<ellipse fill="none" stroke="black" cx="1014.4" cy="-178" rx="98.5829" ry="18"/>
<text text-anchor="middle" x="1014.4" y="-174.3" font-family="Times,serif" font-size="14.00">VehicleTypesController</text>
</g>
<!-- ApplicationController&#45;&gt;VehicleTypesController -->
<g id="edge32" class="edge"><title>ApplicationController&#45;&gt;VehicleTypesController</title>
<path fill="none" stroke="black" d="M1465.46,-885.71C1410.16,-842.988 1269.2,-727.736 1186.27,-602.963 1091.55,-460.468 1034.71,-257.578 1018.93,-196.244"/>
</g>
<!-- VehiclesController -->
<g id="node35" class="node"><title>VehiclesController</title>
<ellipse fill="none" stroke="black" cx="1024.71" cy="-1200.31" rx="79.8859" ry="18"/>
<text text-anchor="middle" x="1024.71" y="-1196.61" font-family="Times,serif" font-size="14.00">VehiclesController</text>
</g>
<!-- ApplicationController&#45;&gt;VehiclesController -->
<g id="edge33" class="edge"><title>ApplicationController&#45;&gt;VehiclesController</title>
<path fill="none" stroke="black" d="M1461.74,-920.478C1379.64,-973.047 1133.26,-1130.8 1051.45,-1183.19"/>
</g>
<!-- ZipsController -->
<g id="node36" class="node"><title>ZipsController</title>
<ellipse fill="none" stroke="black" cx="2032.06" cy="-896.91" rx="64.189" ry="18"/>
<text text-anchor="middle" x="2032.06" y="-893.21" font-family="Times,serif" font-size="14.00">ZipsController</text>
</g>
<!-- ApplicationController&#45;&gt;ZipsController -->
<g id="edge34" class="edge"><title>ApplicationController&#45;&gt;ZipsController</title>
<path fill="none" stroke="black" d="M1570.22,-895.04C1599.98,-892.174 1633.93,-889.047 1664.85,-886.534 1701.96,-883.52 1711.2,-881.077 1748.43,-880.869 1825.12,-880.441 1913.3,-886.451 1970.7,-891.236"/>
</g>
</g>
</svg>
