<?xml version="1.0" encoding="UTF-8" standalone="no"?>
<!DOCTYPE svg PUBLIC "-//W3C//DTD SVG 1.1//EN"
 "http://www.w3.org/Graphics/SVG/1.1/DTD/svg11.dtd">
<!-- Generated by graphviz version 2.29.20121209.0545 (20121209.0545)
 -->
<!-- Title: models_diagram Pages: 1 -->
<svg width="2362pt" height="876pt"
 viewBox="0.00 0.00 2362.00 876.00" xmlns="http://www.w3.org/2000/svg" xmlns:xlink="http://www.w3.org/1999/xlink">
<g id="graph0" class="graph" transform="scale(1 1) rotate(0) translate(4 872)">
<title>models_diagram</title>
<polygon fill="white" stroke="white" points="-4,5 -4,-872 2359,-872 2359,5 -4,5"/>
<!-- _diagram_info -->
<g id="node1" class="node"><title>_diagram_info</title>
<text text-anchor="start" x="461" y="-771.6" font-family="Times,serif" font-size="13.00">Models diagram</text>
<text text-anchor="start" x="461" y="-757.6" font-family="Times,serif" font-size="13.00">Date: Dec 12 2012 &#45; 16:48</text>
<text text-anchor="start" x="461" y="-743.6" font-family="Times,serif" font-size="13.00">Migration version: 20121212214602</text>
<text text-anchor="start" x="461" y="-729.6" font-family="Times,serif" font-size="13.00">Generated by RailRoady 1.1.0</text>
<text text-anchor="start" x="461" y="-715.6" font-family="Times,serif" font-size="13.00">http://railroady.prestonlee.com</text>
</g>
<!-- Addendum -->
<g id="node2" class="node"><title>Addendum</title>
<path fill="none" stroke="black" d="M12,-370.5C12,-370.5 250,-370.5 250,-370.5 256,-370.5 262,-376.5 262,-382.5 262,-382.5 262,-539.5 262,-539.5 262,-545.5 256,-551.5 250,-551.5 250,-551.5 12,-551.5 12,-551.5 6,-551.5 0,-545.5 0,-539.5 0,-539.5 0,-382.5 0,-382.5 0,-376.5 6,-370.5 12,-370.5"/>
<text text-anchor="middle" x="131" y="-536.3" font-family="Times,serif" font-size="14.00">Addendum</text>
<polyline fill="none" stroke="black" points="0,-528.5 262,-528.5 "/>
<text text-anchor="start" x="8" y="-513.3" font-family="Times,serif" font-size="14.00">id :integer</text>
<text text-anchor="start" x="8" y="-498.3" font-family="Times,serif" font-size="14.00">fedexAddendumName :string</text>
<text text-anchor="start" x="8" y="-483.3" font-family="Times,serif" font-size="14.00">fedexAddendumNumber :integer</text>
<text text-anchor="start" x="8" y="-468.3" font-family="Times,serif" font-size="14.00">fedexContractorAddendumName :string</text>
<text text-anchor="start" x="8" y="-453.3" font-family="Times,serif" font-size="14.00">fedexContractorAddendumNumber :integer</text>
<text text-anchor="start" x="8" y="-438.3" font-family="Times,serif" font-size="14.00">content :text</text>
<text text-anchor="start" x="8" y="-423.3" font-family="Times,serif" font-size="14.00">startDate :datetime</text>
<text text-anchor="start" x="8" y="-408.3" font-family="Times,serif" font-size="14.00">endDate :datetime</text>
<text text-anchor="start" x="8" y="-393.3" font-family="Times,serif" font-size="14.00">created_at :datetime</text>
<text text-anchor="start" x="8" y="-378.3" font-family="Times,serif" font-size="14.00">updated_at :datetime</text>
</g>
<!-- Note -->
<g id="node8" class="node"><title>Note</title>
<path fill="none" stroke="black" d="M334,-144.5C334,-144.5 444,-144.5 444,-144.5 450,-144.5 456,-150.5 456,-156.5 456,-156.5 456,-283.5 456,-283.5 456,-289.5 450,-295.5 444,-295.5 444,-295.5 334,-295.5 334,-295.5 328,-295.5 322,-289.5 322,-283.5 322,-283.5 322,-156.5 322,-156.5 322,-150.5 328,-144.5 334,-144.5"/>
<text text-anchor="middle" x="389" y="-280.3" font-family="Times,serif" font-size="14.00">Note</text>
<polyline fill="none" stroke="black" points="322,-272.5 456,-272.5 "/>
<text text-anchor="start" x="330" y="-257.3" font-family="Times,serif" font-size="14.00">id :integer</text>
<text text-anchor="start" x="330" y="-242.3" font-family="Times,serif" font-size="14.00">notable_id :integer</text>
<text text-anchor="start" x="330" y="-227.3" font-family="Times,serif" font-size="14.00">notable_type :string</text>
<text text-anchor="start" x="330" y="-212.3" font-family="Times,serif" font-size="14.00">content :text</text>
<text text-anchor="start" x="330" y="-197.3" font-family="Times,serif" font-size="14.00">startDate :datetime</text>
<text text-anchor="start" x="330" y="-182.3" font-family="Times,serif" font-size="14.00">endDate :datetime</text>
<text text-anchor="start" x="330" y="-167.3" font-family="Times,serif" font-size="14.00">created_at :datetime</text>
<text text-anchor="start" x="330" y="-152.3" font-family="Times,serif" font-size="14.00">updated_at :datetime</text>
</g>
<!-- Addendum&#45;&gt;Note -->
<g id="edge1" class="edge"><title>Addendum&#45;&gt;Note</title>
<path fill="none" stroke="#e63fd3" d="M233.705,-364.859C260.686,-339.865 289.269,-313.386 314.459,-290.051"/>
<ellipse fill="none" stroke="#e63fd3" cx="230.738" cy="-367.607" rx="4.00002" ry="4.00002"/>
<polygon fill="#e63fd3" stroke="#e63fd3" points="314.479,-290.033 324.873,-286.539 318.147,-286.635 321.815,-283.237 321.815,-283.237 321.815,-283.237 318.147,-286.635 318.757,-279.936 314.479,-290.033 314.479,-290.033"/>
</g>
<!-- DailyDataVehicle -->
<g id="node3" class="node"><title>DailyDataVehicle</title>
<path fill="none" stroke="black" d="M1115,-174.5C1115,-174.5 1225,-174.5 1225,-174.5 1231,-174.5 1237,-180.5 1237,-186.5 1237,-186.5 1237,-253.5 1237,-253.5 1237,-259.5 1231,-265.5 1225,-265.5 1225,-265.5 1115,-265.5 1115,-265.5 1109,-265.5 1103,-259.5 1103,-253.5 1103,-253.5 1103,-186.5 1103,-186.5 1103,-180.5 1109,-174.5 1115,-174.5"/>
<text text-anchor="middle" x="1170" y="-250.3" font-family="Times,serif" font-size="14.00">DailyDataVehicle</text>
<polyline fill="none" stroke="black" points="1103,-242.5 1237,-242.5 "/>
<text text-anchor="start" x="1111" y="-227.3" font-family="Times,serif" font-size="14.00">id :integer</text>
<text text-anchor="start" x="1111" y="-212.3" font-family="Times,serif" font-size="14.00">vehicle_id :integer</text>
<text text-anchor="start" x="1111" y="-197.3" font-family="Times,serif" font-size="14.00">created_at :datetime</text>
<text text-anchor="start" x="1111" y="-182.3" font-family="Times,serif" font-size="14.00">updated_at :datetime</text>
</g>
<!-- DailyDatum -->
<g id="node4" class="node"><title>DailyDatum</title>
<path fill="none" stroke="black" d="M990,-626.5C990,-626.5 1154,-626.5 1154,-626.5 1160,-626.5 1166,-632.5 1166,-638.5 1166,-638.5 1166,-855.5 1166,-855.5 1166,-861.5 1160,-867.5 1154,-867.5 1154,-867.5 990,-867.5 990,-867.5 984,-867.5 978,-861.5 978,-855.5 978,-855.5 978,-638.5 978,-638.5 978,-632.5 984,-626.5 990,-626.5"/>
<text text-anchor="middle" x="1072" y="-852.3" font-family="Times,serif" font-size="14.00">DailyDatum</text>
<polyline fill="none" stroke="black" points="978,-844.5 1166,-844.5 "/>
<text text-anchor="start" x="986" y="-829.3" font-family="Times,serif" font-size="14.00">id :integer</text>
<text text-anchor="start" x="986" y="-814.3" font-family="Times,serif" font-size="14.00">deliveryStop :integer</text>
<text text-anchor="start" x="986" y="-799.3" font-family="Times,serif" font-size="14.00">deliveryPackage :integer</text>
<text text-anchor="start" x="986" y="-784.3" font-family="Times,serif" font-size="14.00">pickupStop :integer</text>
<text text-anchor="start" x="986" y="-769.3" font-family="Times,serif" font-size="14.00">pickupPackage :integer</text>
<text text-anchor="start" x="986" y="-754.3" font-family="Times,serif" font-size="14.00">calltag :integer</text>
<text text-anchor="start" x="986" y="-739.3" font-family="Times,serif" font-size="14.00">didNotAttempt :integer</text>
<text text-anchor="start" x="986" y="-724.3" font-family="Times,serif" font-size="14.00">inboundLocalService :decimal</text>
<text text-anchor="start" x="986" y="-709.3" font-family="Times,serif" font-size="14.00">earlyPickUp :integer</text>
<text text-anchor="start" x="986" y="-694.3" font-family="Times,serif" font-size="14.00">latePickUp :integer</text>
<text text-anchor="start" x="986" y="-679.3" font-family="Times,serif" font-size="14.00">startTime :datetime</text>
<text text-anchor="start" x="986" y="-664.3" font-family="Times,serif" font-size="14.00">endTime :datetime</text>
<text text-anchor="start" x="986" y="-649.3" font-family="Times,serif" font-size="14.00">created_at :datetime</text>
<text text-anchor="start" x="986" y="-634.3" font-family="Times,serif" font-size="14.00">updated_at :datetime</text>
</g>
<!-- DailyDatum&#45;&gt;DailyDataVehicle -->
<g id="edge2" class="edge"><title>DailyDatum&#45;&gt;DailyDataVehicle</title>
<path fill="none" stroke="#82529e" d="M1095.88,-618.063C1116.35,-508.427 1144.83,-355.866 1159.82,-275.51"/>
<ellipse fill="none" stroke="#82529e" cx="1095.09" cy="-622.28" rx="4.00001" ry="4.00001"/>
<polygon fill="#82529e" stroke="#82529e" points="1159.84,-275.435 1166.1,-266.43 1160.76,-270.52 1161.67,-265.605 1161.67,-265.605 1161.67,-265.605 1160.76,-270.52 1157.25,-264.779 1159.84,-275.435 1159.84,-275.435"/>
</g>
<!-- Vehicle -->
<g id="node19" class="node"><title>Vehicle</title>
<path fill="none" stroke="black" d="M1205.5,-333C1205.5,-333 1364.5,-333 1364.5,-333 1370.5,-333 1376.5,-339 1376.5,-345 1376.5,-345 1376.5,-577 1376.5,-577 1376.5,-583 1370.5,-589 1364.5,-589 1364.5,-589 1205.5,-589 1205.5,-589 1199.5,-589 1193.5,-583 1193.5,-577 1193.5,-577 1193.5,-345 1193.5,-345 1193.5,-339 1199.5,-333 1205.5,-333"/>
<text text-anchor="middle" x="1285" y="-573.8" font-family="Times,serif" font-size="14.00">Vehicle</text>
<polyline fill="none" stroke="black" points="1193.5,-566 1376.5,-566 "/>
<text text-anchor="start" x="1201.5" y="-550.8" font-family="Times,serif" font-size="14.00">id :integer</text>
<text text-anchor="start" x="1201.5" y="-535.8" font-family="Times,serif" font-size="14.00">fedexVehicleNumber :integer</text>
<text text-anchor="start" x="1201.5" y="-520.8" font-family="Times,serif" font-size="14.00">fedexVehicleName :string</text>
<text text-anchor="start" x="1201.5" y="-505.8" font-family="Times,serif" font-size="14.00">contractorNumber :integer</text>
<text text-anchor="start" x="1201.5" y="-490.8" font-family="Times,serif" font-size="14.00">contractorName :string</text>
<text text-anchor="start" x="1201.5" y="-475.8" font-family="Times,serif" font-size="14.00">vin :string</text>
<text text-anchor="start" x="1201.5" y="-460.8" font-family="Times,serif" font-size="14.00">startDate :datetime</text>
<text text-anchor="start" x="1201.5" y="-445.8" font-family="Times,serif" font-size="14.00">endDate :datetime</text>
<text text-anchor="start" x="1201.5" y="-430.8" font-family="Times,serif" font-size="14.00">activeBoolean :boolean</text>
<text text-anchor="start" x="1201.5" y="-415.8" font-family="Times,serif" font-size="14.00">vehicleType_id :integer</text>
<text text-anchor="start" x="1201.5" y="-400.8" font-family="Times,serif" font-size="14.00">vehicleFuel_id :integer</text>
<text text-anchor="start" x="1201.5" y="-385.8" font-family="Times,serif" font-size="14.00">vehicleOdometer_id :integer</text>
<text text-anchor="start" x="1201.5" y="-370.8" font-family="Times,serif" font-size="14.00">created_at :datetime</text>
<text text-anchor="start" x="1201.5" y="-355.8" font-family="Times,serif" font-size="14.00">updated_at :datetime</text>
<text text-anchor="start" x="1201.5" y="-340.8" font-family="Times,serif" font-size="14.00">service_type_id :integer</text>
</g>
<!-- DailyDatum&#45;&gt;Vehicle -->
<g id="edge3" class="edge"><title>DailyDatum&#45;&gt;Vehicle</title>
<path fill="none" stroke="#7e9b0a" d="M1167.86,-618.18C1174.29,-609.618 1180.76,-600.987 1187.19,-592.412"/>
<polygon fill="#7e9b0a" stroke="#7e9b0a" points="1167.71,-618.382 1158.11,-623.682 1164.71,-622.382 1161.71,-626.382 1161.71,-626.382 1161.71,-626.382 1164.71,-622.382 1165.31,-629.082 1167.71,-618.382 1167.71,-618.382"/>
<polygon fill="#7e9b0a" stroke="#7e9b0a" points="1187.34,-592.212 1196.94,-586.912 1190.34,-588.212 1193.34,-584.212 1193.34,-584.212 1193.34,-584.212 1190.34,-588.212 1189.74,-581.512 1187.34,-592.212 1187.34,-592.212"/>
</g>
<!-- Employee -->
<g id="node5" class="node"><title>Employee</title>
<path fill="none" stroke="black" d="M527.5,-348C527.5,-348 668.5,-348 668.5,-348 674.5,-348 680.5,-354 680.5,-360 680.5,-360 680.5,-562 680.5,-562 680.5,-568 674.5,-574 668.5,-574 668.5,-574 527.5,-574 527.5,-574 521.5,-574 515.5,-568 515.5,-562 515.5,-562 515.5,-360 515.5,-360 515.5,-354 521.5,-348 527.5,-348"/>
<text text-anchor="middle" x="598" y="-558.8" font-family="Times,serif" font-size="14.00">Employee</text>
<polyline fill="none" stroke="black" points="515.5,-551 680.5,-551 "/>
<text text-anchor="start" x="523.5" y="-535.8" font-family="Times,serif" font-size="14.00">id :integer</text>
<text text-anchor="start" x="523.5" y="-520.8" font-family="Times,serif" font-size="14.00">firstName :string</text>
<text text-anchor="start" x="523.5" y="-505.8" font-family="Times,serif" font-size="14.00">lastName :string</text>
<text text-anchor="start" x="523.5" y="-490.8" font-family="Times,serif" font-size="14.00">fedexNumber :integer</text>
<text text-anchor="start" x="523.5" y="-475.8" font-family="Times,serif" font-size="14.00">contractorNumber :integer</text>
<text text-anchor="start" x="523.5" y="-460.8" font-family="Times,serif" font-size="14.00">hireDate :date</text>
<text text-anchor="start" x="523.5" y="-445.8" font-family="Times,serif" font-size="14.00">dateOfBirth :date</text>
<text text-anchor="start" x="523.5" y="-430.8" font-family="Times,serif" font-size="14.00">activeBoolean :boolean</text>
<text text-anchor="start" x="523.5" y="-415.8" font-family="Times,serif" font-size="14.00">startDate :datetime</text>
<text text-anchor="start" x="523.5" y="-400.8" font-family="Times,serif" font-size="14.00">endDate :datetime</text>
<text text-anchor="start" x="523.5" y="-385.8" font-family="Times,serif" font-size="14.00">terminationDate :datetime</text>
<text text-anchor="start" x="523.5" y="-370.8" font-family="Times,serif" font-size="14.00">created_at :datetime</text>
<text text-anchor="start" x="523.5" y="-355.8" font-family="Times,serif" font-size="14.00">updated_at :datetime</text>
</g>
<!-- Employee&#45;&gt;Note -->
<g id="edge4" class="edge"><title>Employee&#45;&gt;Note</title>
<path fill="none" stroke="#adc8a5" d="M513.843,-341.198C511.234,-338.072 508.617,-335 506,-332 492.989,-317.089 478.244,-301.95 463.714,-287.846"/>
<ellipse fill="none" stroke="#adc8a5" cx="516.64" cy="-344.598" rx="4.00002" ry="4.00002"/>
<polygon fill="#adc8a5" stroke="#adc8a5" points="463.355,-287.501 459.264,-277.327 459.75,-284.037 456.146,-280.572 456.146,-280.572 456.146,-280.572 459.75,-284.037 453.027,-283.816 463.355,-287.501 463.355,-287.501"/>
</g>
<!-- User -->
<g id="node17" class="node"><title>User</title>
<path fill="none" stroke="black" d="M517,-159.5C517,-159.5 665,-159.5 665,-159.5 671,-159.5 677,-165.5 677,-171.5 677,-171.5 677,-268.5 677,-268.5 677,-274.5 671,-280.5 665,-280.5 665,-280.5 517,-280.5 517,-280.5 511,-280.5 505,-274.5 505,-268.5 505,-268.5 505,-171.5 505,-171.5 505,-165.5 511,-159.5 517,-159.5"/>
<text text-anchor="middle" x="591" y="-265.3" font-family="Times,serif" font-size="14.00">User</text>
<polyline fill="none" stroke="black" points="505,-257.5 677,-257.5 "/>
<text text-anchor="start" x="513" y="-242.3" font-family="Times,serif" font-size="14.00">id :integer</text>
<text text-anchor="start" x="513" y="-227.3" font-family="Times,serif" font-size="14.00">contractorBoolean :boolean</text>
<text text-anchor="start" x="513" y="-212.3" font-family="Times,serif" font-size="14.00">activeBoolean :boolean</text>
<text text-anchor="start" x="513" y="-197.3" font-family="Times,serif" font-size="14.00">employee_id :integer</text>
<text text-anchor="start" x="513" y="-182.3" font-family="Times,serif" font-size="14.00">created_at :datetime</text>
<text text-anchor="start" x="513" y="-167.3" font-family="Times,serif" font-size="14.00">updated_at :datetime</text>
</g>
<!-- Employee&#45;&gt;User -->
<g id="edge5" class="edge"><title>Employee&#45;&gt;User</title>
<path fill="none" stroke="#76b1d1" d="M594.476,-339.694C593.966,-322.251 593.455,-304.83 592.989,-288.919"/>
<ellipse fill="none" stroke="#76b1d1" cx="594.598" cy="-343.85" rx="4" ry="4"/>
<ellipse fill="#76b1d1" stroke="#76b1d1" cx="592.867" cy="-284.743" rx="4" ry="4"/>
</g>
<!-- EmployeePsa -->
<g id="node6" class="node"><title>EmployeePsa</title>
<path fill="none" stroke="black" d="M1842,-671.5C1842,-671.5 1966,-671.5 1966,-671.5 1972,-671.5 1978,-677.5 1978,-683.5 1978,-683.5 1978,-810.5 1978,-810.5 1978,-816.5 1972,-822.5 1966,-822.5 1966,-822.5 1842,-822.5 1842,-822.5 1836,-822.5 1830,-816.5 1830,-810.5 1830,-810.5 1830,-683.5 1830,-683.5 1830,-677.5 1836,-671.5 1842,-671.5"/>
<text text-anchor="middle" x="1904" y="-807.3" font-family="Times,serif" font-size="14.00">EmployeePsa</text>
<polyline fill="none" stroke="black" points="1830,-799.5 1978,-799.5 "/>
<text text-anchor="start" x="1838" y="-784.3" font-family="Times,serif" font-size="14.00">id :integer</text>
<text text-anchor="start" x="1838" y="-769.3" font-family="Times,serif" font-size="14.00">startDate :datetime</text>
<text text-anchor="start" x="1838" y="-754.3" font-family="Times,serif" font-size="14.00">endDate :datetime</text>
<text text-anchor="start" x="1838" y="-739.3" font-family="Times,serif" font-size="14.00">activeBoolean :boolean</text>
<text text-anchor="start" x="1838" y="-724.3" font-family="Times,serif" font-size="14.00">employee_id :integer</text>
<text text-anchor="start" x="1838" y="-709.3" font-family="Times,serif" font-size="14.00">psa_id :integer</text>
<text text-anchor="start" x="1838" y="-694.3" font-family="Times,serif" font-size="14.00">created_at :datetime</text>
<text text-anchor="start" x="1838" y="-679.3" font-family="Times,serif" font-size="14.00">updated_at :datetime</text>
</g>
<!-- FedexContract -->
<g id="node7" class="node"><title>FedexContract</title>
<path fill="none" stroke="black" d="M691,-656.5C691,-656.5 881,-656.5 881,-656.5 887,-656.5 893,-662.5 893,-668.5 893,-668.5 893,-825.5 893,-825.5 893,-831.5 887,-837.5 881,-837.5 881,-837.5 691,-837.5 691,-837.5 685,-837.5 679,-831.5 679,-825.5 679,-825.5 679,-668.5 679,-668.5 679,-662.5 685,-656.5 691,-656.5"/>
<text text-anchor="middle" x="786" y="-822.3" font-family="Times,serif" font-size="14.00">FedexContract</text>
<polyline fill="none" stroke="black" points="679,-814.5 893,-814.5 "/>
<text text-anchor="start" x="687" y="-799.3" font-family="Times,serif" font-size="14.00">id :integer</text>
<text text-anchor="start" x="687" y="-784.3" font-family="Times,serif" font-size="14.00">fedexContractName :string</text>
<text text-anchor="start" x="687" y="-769.3" font-family="Times,serif" font-size="14.00">fedexContractNumber :integer</text>
<text text-anchor="start" x="687" y="-754.3" font-family="Times,serif" font-size="14.00">contractorContractName :string</text>
<text text-anchor="start" x="687" y="-739.3" font-family="Times,serif" font-size="14.00">contractorContractNumber :integer</text>
<text text-anchor="start" x="687" y="-724.3" font-family="Times,serif" font-size="14.00">content :text</text>
<text text-anchor="start" x="687" y="-709.3" font-family="Times,serif" font-size="14.00">startDate :datetime</text>
<text text-anchor="start" x="687" y="-694.3" font-family="Times,serif" font-size="14.00">endDate :datetime</text>
<text text-anchor="start" x="687" y="-679.3" font-family="Times,serif" font-size="14.00">created_at :datetime</text>
<text text-anchor="start" x="687" y="-664.3" font-family="Times,serif" font-size="14.00">updated_at :datetime</text>
</g>
<!-- FedexContract&#45;&gt;Employee -->
<g id="edge6" class="edge"><title>FedexContract&#45;&gt;Employee</title>
<path fill="none" stroke="#0b8976" d="M722.04,-649.38C707.857,-627.954 692.653,-604.987 677.922,-582.734"/>
<ellipse fill="none" stroke="#0b8976" cx="724.308" cy="-652.805" rx="4.00002" ry="4.00002"/>
<polygon fill="#0b8976" stroke="#0b8976" points="677.822,-582.583 676.055,-571.76 675.063,-578.414 672.303,-574.244 672.303,-574.244 672.303,-574.244 675.063,-578.414 668.55,-576.728 677.822,-582.583 677.822,-582.583"/>
</g>
<!-- Psa -->
<g id="node9" class="node"><title>Psa</title>
<path fill="none" stroke="black" d="M716.5,-370.5C716.5,-370.5 883.5,-370.5 883.5,-370.5 889.5,-370.5 895.5,-376.5 895.5,-382.5 895.5,-382.5 895.5,-539.5 895.5,-539.5 895.5,-545.5 889.5,-551.5 883.5,-551.5 883.5,-551.5 716.5,-551.5 716.5,-551.5 710.5,-551.5 704.5,-545.5 704.5,-539.5 704.5,-539.5 704.5,-382.5 704.5,-382.5 704.5,-376.5 710.5,-370.5 716.5,-370.5"/>
<text text-anchor="middle" x="800" y="-536.3" font-family="Times,serif" font-size="14.00">Psa</text>
<polyline fill="none" stroke="black" points="704.5,-528.5 895.5,-528.5 "/>
<text text-anchor="start" x="712.5" y="-513.3" font-family="Times,serif" font-size="14.00">id :integer</text>
<text text-anchor="start" x="712.5" y="-498.3" font-family="Times,serif" font-size="14.00">fedexPSAName :string</text>
<text text-anchor="start" x="712.5" y="-483.3" font-family="Times,serif" font-size="14.00">fedexPSANumber :integer</text>
<text text-anchor="start" x="712.5" y="-468.3" font-family="Times,serif" font-size="14.00">contractorPSAName :string</text>
<text text-anchor="start" x="712.5" y="-453.3" font-family="Times,serif" font-size="14.00">contractorPSANumber :integer</text>
<text text-anchor="start" x="712.5" y="-438.3" font-family="Times,serif" font-size="14.00">activeBoolean :boolean</text>
<text text-anchor="start" x="712.5" y="-423.3" font-family="Times,serif" font-size="14.00">startDate :datetime</text>
<text text-anchor="start" x="712.5" y="-408.3" font-family="Times,serif" font-size="14.00">endDate :datetime</text>
<text text-anchor="start" x="712.5" y="-393.3" font-family="Times,serif" font-size="14.00">created_at :datetime</text>
<text text-anchor="start" x="712.5" y="-378.3" font-family="Times,serif" font-size="14.00">updated_at :datetime</text>
</g>
<!-- FedexContract&#45;&gt;Psa -->
<g id="edge7" class="edge"><title>FedexContract&#45;&gt;Psa</title>
<path fill="none" stroke="#8c0a3c" d="M790.838,-647.857C792.208,-620.074 793.7,-589.806 795.074,-561.919"/>
<ellipse fill="none" stroke="#8c0a3c" cx="790.627" cy="-652.145" rx="4" ry="4"/>
<polygon fill="#8c0a3c" stroke="#8c0a3c" points="795.083,-561.75 800.07,-551.983 795.329,-556.756 795.575,-551.762 795.575,-551.762 795.575,-551.762 795.329,-556.756 791.081,-551.54 795.083,-561.75 795.083,-561.75"/>
</g>
<!-- Psazip -->
<g id="node11" class="node"><title>Psazip</title>
<path fill="none" stroke="black" d="M712,-1C712,-1 822,-1 822,-1 828,-1 834,-7 834,-13 834,-13 834,-95 834,-95 834,-101 828,-107 822,-107 822,-107 712,-107 712,-107 706,-107 700,-101 700,-95 700,-95 700,-13 700,-13 700,-7 706,-1 712,-1"/>
<text text-anchor="middle" x="767" y="-91.8" font-family="Times,serif" font-size="14.00">Psazip</text>
<polyline fill="none" stroke="black" points="700,-84 834,-84 "/>
<text text-anchor="start" x="708" y="-68.8" font-family="Times,serif" font-size="14.00">id :integer</text>
<text text-anchor="start" x="708" y="-53.8" font-family="Times,serif" font-size="14.00">psa_id :integer</text>
<text text-anchor="start" x="708" y="-38.8" font-family="Times,serif" font-size="14.00">zip_id :integer</text>
<text text-anchor="start" x="708" y="-23.8" font-family="Times,serif" font-size="14.00">created_at :datetime</text>
<text text-anchor="start" x="708" y="-8.8" font-family="Times,serif" font-size="14.00">updated_at :datetime</text>
</g>
<!-- Psa&#45;&gt;Psazip -->
<g id="edge8" class="edge"><title>Psa&#45;&gt;Psazip</title>
<path fill="none" stroke="#baf181" d="M746.539,-362.612C737.209,-341.259 728.925,-318.342 724,-296 709.457,-230.028 708.925,-209.852 724,-144 726.103,-134.813 729.283,-125.471 732.981,-116.465"/>
<ellipse fill="none" stroke="#baf181" cx="748.248" cy="-366.443" rx="4.00002" ry="4.00002"/>
<polygon fill="#baf181" stroke="#baf181" points="733.012,-116.391 741.125,-109.014 735.005,-111.806 736.998,-107.22 736.998,-107.22 736.998,-107.22 735.005,-111.806 732.871,-105.427 733.012,-116.391 733.012,-116.391"/>
</g>
<!-- Zip -->
<g id="node23" class="node"><title>Zip</title>
<path fill="none" stroke="black" d="M745,-174.5C745,-174.5 855,-174.5 855,-174.5 861,-174.5 867,-180.5 867,-186.5 867,-186.5 867,-253.5 867,-253.5 867,-259.5 861,-265.5 855,-265.5 855,-265.5 745,-265.5 745,-265.5 739,-265.5 733,-259.5 733,-253.5 733,-253.5 733,-186.5 733,-186.5 733,-180.5 739,-174.5 745,-174.5"/>
<text text-anchor="middle" x="800" y="-250.3" font-family="Times,serif" font-size="14.00">Zip</text>
<polyline fill="none" stroke="black" points="733,-242.5 867,-242.5 "/>
<text text-anchor="start" x="741" y="-227.3" font-family="Times,serif" font-size="14.00">id :integer</text>
<text text-anchor="start" x="741" y="-212.3" font-family="Times,serif" font-size="14.00">zip :string</text>
<text text-anchor="start" x="741" y="-197.3" font-family="Times,serif" font-size="14.00">created_at :datetime</text>
<text text-anchor="start" x="741" y="-182.3" font-family="Times,serif" font-size="14.00">updated_at :datetime</text>
</g>
<!-- Psa&#45;&gt;Zip -->
<g id="edge9" class="edge"><title>Psa&#45;&gt;Zip</title>
<path fill="none" stroke="#f20908" d="M800,-360.178C800,-331.222 800,-300.68 800,-275.608"/>
<polygon fill="#f20908" stroke="#f20908" points="800,-360.325 795.5,-370.325 800,-365.325 800,-370.325 800,-370.325 800,-370.325 800,-365.325 804.5,-370.325 800,-360.325 800,-360.325"/>
<polygon fill="#f20908" stroke="#f20908" points="800,-275.575 804.5,-265.575 800,-270.575 800,-265.575 800,-265.575 800,-265.575 800,-270.575 795.5,-265.575 800,-275.575 800,-275.575"/>
</g>
<!-- PsaState -->
<g id="node10" class="node"><title>PsaState</title>
<path fill="none" stroke="black" d="M911,-1C911,-1 1021,-1 1021,-1 1027,-1 1033,-7 1033,-13 1033,-13 1033,-95 1033,-95 1033,-101 1027,-107 1021,-107 1021,-107 911,-107 911,-107 905,-107 899,-101 899,-95 899,-95 899,-13 899,-13 899,-7 905,-1 911,-1"/>
<text text-anchor="middle" x="966" y="-91.8" font-family="Times,serif" font-size="14.00">PsaState</text>
<polyline fill="none" stroke="black" points="899,-84 1033,-84 "/>
<text text-anchor="start" x="907" y="-68.8" font-family="Times,serif" font-size="14.00">id :integer</text>
<text text-anchor="start" x="907" y="-53.8" font-family="Times,serif" font-size="14.00">psa_id :integer</text>
<text text-anchor="start" x="907" y="-38.8" font-family="Times,serif" font-size="14.00">state_id :integer</text>
<text text-anchor="start" x="907" y="-23.8" font-family="Times,serif" font-size="14.00">created_at :datetime</text>
<text text-anchor="start" x="907" y="-8.8" font-family="Times,serif" font-size="14.00">updated_at :datetime</text>
</g>
<!-- Psa&#45;&gt;PsaState -->
<g id="edge10" class="edge"><title>Psa&#45;&gt;PsaState</title>
<path fill="none" stroke="#e0229d" d="M848.67,-362.888C858.507,-341.191 868.208,-318.065 876,-296 899.187,-230.339 887.727,-208.488 914,-144 917.747,-134.802 922.314,-125.409 927.168,-116.338"/>
<ellipse fill="none" stroke="#e0229d" cx="846.995" cy="-366.55" rx="4.00002" ry="4.00002"/>
<polygon fill="#e0229d" stroke="#e0229d" points="927.271,-116.151 936.04,-109.566 929.685,-111.773 932.099,-107.394 932.099,-107.394 932.099,-107.394 929.685,-111.773 928.158,-105.221 927.271,-116.151 927.271,-116.151"/>
</g>
<!-- State -->
<g id="node15" class="node"><title>State</title>
<path fill="none" stroke="black" d="M935,-167C935,-167 1045,-167 1045,-167 1051,-167 1057,-173 1057,-179 1057,-179 1057,-261 1057,-261 1057,-267 1051,-273 1045,-273 1045,-273 935,-273 935,-273 929,-273 923,-267 923,-261 923,-261 923,-179 923,-179 923,-173 929,-167 935,-167"/>
<text text-anchor="middle" x="990" y="-257.8" font-family="Times,serif" font-size="14.00">State</text>
<polyline fill="none" stroke="black" points="923,-250 1057,-250 "/>
<text text-anchor="start" x="931" y="-234.8" font-family="Times,serif" font-size="14.00">id :integer</text>
<text text-anchor="start" x="931" y="-219.8" font-family="Times,serif" font-size="14.00">state :string</text>
<text text-anchor="start" x="931" y="-204.8" font-family="Times,serif" font-size="14.00">abbreviation :string</text>
<text text-anchor="start" x="931" y="-189.8" font-family="Times,serif" font-size="14.00">created_at :datetime</text>
<text text-anchor="start" x="931" y="-174.8" font-family="Times,serif" font-size="14.00">updated_at :datetime</text>
</g>
<!-- Psa&#45;&gt;State -->
<g id="edge11" class="edge"><title>Psa&#45;&gt;State</title>
<path fill="none" stroke="#c34416" d="M877.737,-362.215C899.483,-334.861 922.478,-305.936 941.955,-281.436"/>
<polygon fill="#c34416" stroke="#c34416" points="877.513,-362.497 867.767,-367.525 874.401,-366.411 871.29,-370.325 871.29,-370.325 871.29,-370.325 874.401,-366.411 874.812,-373.126 877.513,-362.497 877.513,-362.497"/>
<polygon fill="#c34416" stroke="#c34416" points="942.195,-281.133 951.941,-276.106 945.307,-277.219 948.418,-273.305 948.418,-273.305 948.418,-273.305 945.307,-277.219 944.896,-270.505 942.195,-281.133 942.195,-281.133"/>
</g>
<!-- Region -->
<g id="node12" class="node"><title>Region</title>
<path fill="none" stroke="black" d="M2008,-671.5C2008,-671.5 2190,-671.5 2190,-671.5 2196,-671.5 2202,-677.5 2202,-683.5 2202,-683.5 2202,-810.5 2202,-810.5 2202,-816.5 2196,-822.5 2190,-822.5 2190,-822.5 2008,-822.5 2008,-822.5 2002,-822.5 1996,-816.5 1996,-810.5 1996,-810.5 1996,-683.5 1996,-683.5 1996,-677.5 2002,-671.5 2008,-671.5"/>
<text text-anchor="middle" x="2099" y="-807.3" font-family="Times,serif" font-size="14.00">Region</text>
<polyline fill="none" stroke="black" points="1996,-799.5 2202,-799.5 "/>
<text text-anchor="start" x="2004" y="-784.3" font-family="Times,serif" font-size="14.00">id :integer</text>
<text text-anchor="start" x="2004" y="-769.3" font-family="Times,serif" font-size="14.00">fedexRegionName :string</text>
<text text-anchor="start" x="2004" y="-754.3" font-family="Times,serif" font-size="14.00">fedexRegionNumber :integer</text>
<text text-anchor="start" x="2004" y="-739.3" font-family="Times,serif" font-size="14.00">fedexRegionPhone :string</text>
<text text-anchor="start" x="2004" y="-724.3" font-family="Times,serif" font-size="14.00">contractorRegionName :string</text>
<text text-anchor="start" x="2004" y="-709.3" font-family="Times,serif" font-size="14.00">contractorRegionNumber :integer</text>
<text text-anchor="start" x="2004" y="-694.3" font-family="Times,serif" font-size="14.00">created_at :datetime</text>
<text text-anchor="start" x="2004" y="-679.3" font-family="Times,serif" font-size="14.00">updated_at :datetime</text>
</g>
<!-- Role -->
<g id="node13" class="node"><title>Role</title>
<path fill="none" stroke="black" d="M2232,-701.5C2232,-701.5 2342,-701.5 2342,-701.5 2348,-701.5 2354,-707.5 2354,-713.5 2354,-713.5 2354,-780.5 2354,-780.5 2354,-786.5 2348,-792.5 2342,-792.5 2342,-792.5 2232,-792.5 2232,-792.5 2226,-792.5 2220,-786.5 2220,-780.5 2220,-780.5 2220,-713.5 2220,-713.5 2220,-707.5 2226,-701.5 2232,-701.5"/>
<text text-anchor="middle" x="2287" y="-777.3" font-family="Times,serif" font-size="14.00">Role</text>
<polyline fill="none" stroke="black" points="2220,-769.5 2354,-769.5 "/>
<text text-anchor="start" x="2228" y="-754.3" font-family="Times,serif" font-size="14.00">id :integer</text>
<text text-anchor="start" x="2228" y="-739.3" font-family="Times,serif" font-size="14.00">name :string</text>
<text text-anchor="start" x="2228" y="-724.3" font-family="Times,serif" font-size="14.00">created_at :datetime</text>
<text text-anchor="start" x="2228" y="-709.3" font-family="Times,serif" font-size="14.00">updated_at :datetime</text>
</g>
<!-- ServiceType -->
<g id="node14" class="node"><title>ServiceType</title>
<path fill="none" stroke="black" d="M1196,-686.5C1196,-686.5 1306,-686.5 1306,-686.5 1312,-686.5 1318,-692.5 1318,-698.5 1318,-698.5 1318,-795.5 1318,-795.5 1318,-801.5 1312,-807.5 1306,-807.5 1306,-807.5 1196,-807.5 1196,-807.5 1190,-807.5 1184,-801.5 1184,-795.5 1184,-795.5 1184,-698.5 1184,-698.5 1184,-692.5 1190,-686.5 1196,-686.5"/>
<text text-anchor="middle" x="1251" y="-792.3" font-family="Times,serif" font-size="14.00">ServiceType</text>
<polyline fill="none" stroke="black" points="1184,-784.5 1318,-784.5 "/>
<text text-anchor="start" x="1192" y="-769.3" font-family="Times,serif" font-size="14.00">id :integer</text>
<text text-anchor="start" x="1192" y="-754.3" font-family="Times,serif" font-size="14.00">serviceType :string</text>
<text text-anchor="start" x="1192" y="-739.3" font-family="Times,serif" font-size="14.00">startDate :datetime</text>
<text text-anchor="start" x="1192" y="-724.3" font-family="Times,serif" font-size="14.00">endDate :datetime</text>
<text text-anchor="start" x="1192" y="-709.3" font-family="Times,serif" font-size="14.00">created_at :datetime</text>
<text text-anchor="start" x="1192" y="-694.3" font-family="Times,serif" font-size="14.00">updated_at :datetime</text>
</g>
<!-- ServiceType&#45;&gt;Vehicle -->
<g id="edge12" class="edge"><title>ServiceType&#45;&gt;Vehicle</title>
<path fill="none" stroke="#d7f4cd" d="M1259.1,-678.311C1261.96,-654.44 1265.29,-626.669 1268.58,-599.141"/>
<ellipse fill="none" stroke="#d7f4cd" cx="1258.6" cy="-682.493" rx="4.00001" ry="4.00001"/>
<polygon fill="#d7f4cd" stroke="#d7f4cd" points="1268.6,-598.947 1274.26,-589.553 1269.2,-593.983 1269.79,-589.018 1269.79,-589.018 1269.79,-589.018 1269.2,-593.983 1265.33,-588.483 1268.6,-598.947 1268.6,-598.947"/>
</g>
<!-- State&#45;&gt;PsaState -->
<g id="edge13" class="edge"><title>State&#45;&gt;PsaState</title>
<path fill="none" stroke="#17a525" d="M981.146,-158.498C979.179,-145.059 977.091,-130.791 975.114,-117.282"/>
<ellipse fill="none" stroke="#17a525" cx="981.761" cy="-162.701" rx="4.00001" ry="4.00001"/>
<polygon fill="#17a525" stroke="#17a525" points="975.076,-117.02 978.081,-106.474 974.352,-112.073 973.628,-107.126 973.628,-107.126 973.628,-107.126 974.352,-112.073 969.176,-107.777 975.076,-117.02 975.076,-117.02"/>
</g>
<!-- Terminal -->
<g id="node16" class="node"><title>Terminal</title>
<path fill="none" stroke="black" d="M292.5,-385.5C292.5,-385.5 485.5,-385.5 485.5,-385.5 491.5,-385.5 497.5,-391.5 497.5,-397.5 497.5,-397.5 497.5,-524.5 497.5,-524.5 497.5,-530.5 491.5,-536.5 485.5,-536.5 485.5,-536.5 292.5,-536.5 292.5,-536.5 286.5,-536.5 280.5,-530.5 280.5,-524.5 280.5,-524.5 280.5,-397.5 280.5,-397.5 280.5,-391.5 286.5,-385.5 292.5,-385.5"/>
<text text-anchor="middle" x="389" y="-521.3" font-family="Times,serif" font-size="14.00">Terminal</text>
<polyline fill="none" stroke="black" points="280.5,-513.5 497.5,-513.5 "/>
<text text-anchor="start" x="288.5" y="-498.3" font-family="Times,serif" font-size="14.00">id :integer</text>
<text text-anchor="start" x="288.5" y="-483.3" font-family="Times,serif" font-size="14.00">fedexTerminalName :string</text>
<text text-anchor="start" x="288.5" y="-468.3" font-family="Times,serif" font-size="14.00">fedexTerminalNumber :integer</text>
<text text-anchor="start" x="288.5" y="-453.3" font-family="Times,serif" font-size="14.00">contractorTerminalName :string</text>
<text text-anchor="start" x="288.5" y="-438.3" font-family="Times,serif" font-size="14.00">contractorTerminalNumber :integer</text>
<text text-anchor="start" x="288.5" y="-423.3" font-family="Times,serif" font-size="14.00">colocationBoolean :boolean</text>
<text text-anchor="start" x="288.5" y="-408.3" font-family="Times,serif" font-size="14.00">created_at :datetime</text>
<text text-anchor="start" x="288.5" y="-393.3" font-family="Times,serif" font-size="14.00">updated_at :datetime</text>
</g>
<!-- Terminal&#45;&gt;Note -->
<g id="edge14" class="edge"><title>Terminal&#45;&gt;Note</title>
<path fill="none" stroke="#a3d3e3" d="M389,-377.251C389,-354.228 389,-329.188 389,-306.035"/>
<ellipse fill="none" stroke="#a3d3e3" cx="389" cy="-381.362" rx="4" ry="4"/>
<polygon fill="#a3d3e3" stroke="#a3d3e3" points="389,-305.894 393.5,-295.894 389,-300.894 389,-295.894 389,-295.894 389,-295.894 389,-300.894 384.5,-295.894 389,-305.894 389,-305.894"/>
</g>
<!-- UserRole -->
<g id="node18" class="node"><title>UserRole</title>
<path fill="none" stroke="black" d="M536,-1C536,-1 646,-1 646,-1 652,-1 658,-7 658,-13 658,-13 658,-95 658,-95 658,-101 652,-107 646,-107 646,-107 536,-107 536,-107 530,-107 524,-101 524,-95 524,-95 524,-13 524,-13 524,-7 530,-1 536,-1"/>
<text text-anchor="middle" x="591" y="-91.8" font-family="Times,serif" font-size="14.00">UserRole</text>
<polyline fill="none" stroke="black" points="524,-84 658,-84 "/>
<text text-anchor="start" x="532" y="-68.8" font-family="Times,serif" font-size="14.00">id :integer</text>
<text text-anchor="start" x="532" y="-53.8" font-family="Times,serif" font-size="14.00">user_id :integer</text>
<text text-anchor="start" x="532" y="-38.8" font-family="Times,serif" font-size="14.00">role_id :integer</text>
<text text-anchor="start" x="532" y="-23.8" font-family="Times,serif" font-size="14.00">created_at :datetime</text>
<text text-anchor="start" x="532" y="-8.8" font-family="Times,serif" font-size="14.00">updated_at :datetime</text>
</g>
<!-- User&#45;&gt;UserRole -->
<g id="edge15" class="edge"><title>User&#45;&gt;UserRole</title>
<path fill="none" stroke="#195b82" d="M591,-151.21C591,-139.915 591,-128.248 591,-117.104"/>
<ellipse fill="none" stroke="#195b82" cx="591" cy="-155.328" rx="4" ry="4"/>
<polygon fill="#195b82" stroke="#195b82" points="591,-117.041 595.5,-107.041 591,-112.041 591,-107.041 591,-107.041 591,-107.041 591,-112.041 586.5,-107.041 591,-117.041 591,-117.041"/>
</g>
<!-- Vehicle&#45;&gt;DailyDataVehicle -->
<g id="edge16" class="edge"><title>Vehicle&#45;&gt;DailyDataVehicle</title>
<path fill="none" stroke="#d295e9" d="M1220.27,-325.483C1211.7,-307.661 1203.34,-290.292 1195.98,-274.995"/>
<ellipse fill="none" stroke="#d295e9" cx="1222.06" cy="-329.198" rx="4.00002" ry="4.00002"/>
<polygon fill="#d295e9" stroke="#d295e9" points="1195.87,-274.764 1195.59,-263.801 1193.7,-270.258 1191.53,-265.752 1191.53,-265.752 1191.53,-265.752 1193.7,-270.258 1187.48,-267.704 1195.87,-274.764 1195.87,-274.764"/>
</g>
<!-- VehicleFuel -->
<g id="node20" class="node"><title>VehicleFuel</title>
<path fill="none" stroke="black" d="M1348.5,-686.5C1348.5,-686.5 1461.5,-686.5 1461.5,-686.5 1467.5,-686.5 1473.5,-692.5 1473.5,-698.5 1473.5,-698.5 1473.5,-795.5 1473.5,-795.5 1473.5,-801.5 1467.5,-807.5 1461.5,-807.5 1461.5,-807.5 1348.5,-807.5 1348.5,-807.5 1342.5,-807.5 1336.5,-801.5 1336.5,-795.5 1336.5,-795.5 1336.5,-698.5 1336.5,-698.5 1336.5,-692.5 1342.5,-686.5 1348.5,-686.5"/>
<text text-anchor="middle" x="1405" y="-792.3" font-family="Times,serif" font-size="14.00">VehicleFuel</text>
<polyline fill="none" stroke="black" points="1336.5,-784.5 1473.5,-784.5 "/>
<text text-anchor="start" x="1344.5" y="-769.3" font-family="Times,serif" font-size="14.00">id :integer</text>
<text text-anchor="start" x="1344.5" y="-754.3" font-family="Times,serif" font-size="14.00">fuelType :string</text>
<text text-anchor="start" x="1344.5" y="-739.3" font-family="Times,serif" font-size="14.00">fuelTankSize :integer</text>
<text text-anchor="start" x="1344.5" y="-724.3" font-family="Times,serif" font-size="14.00">mpg :integer</text>
<text text-anchor="start" x="1344.5" y="-709.3" font-family="Times,serif" font-size="14.00">created_at :datetime</text>
<text text-anchor="start" x="1344.5" y="-694.3" font-family="Times,serif" font-size="14.00">updated_at :datetime</text>
</g>
<!-- VehicleFuel&#45;&gt;Vehicle -->
<g id="edge17" class="edge"><title>VehicleFuel&#45;&gt;Vehicle</title>
<path fill="none" stroke="#73ca7f" d="M1376.69,-679.003C1366.46,-654.792 1354.51,-626.502 1342.68,-598.498"/>
<ellipse fill="none" stroke="#73ca7f" cx="1378.29" cy="-682.78" rx="4.00002" ry="4.00002"/>
<polygon fill="#73ca7f" stroke="#73ca7f" points="1342.56,-598.23 1342.81,-587.267 1340.62,-593.624 1338.67,-589.018 1338.67,-589.018 1338.67,-589.018 1340.62,-593.624 1334.52,-590.77 1342.56,-598.23 1342.56,-598.23"/>
</g>
<!-- VehicleOdometer -->
<g id="node21" class="node"><title>VehicleOdometer</title>
<path fill="none" stroke="black" d="M1504,-686.5C1504,-686.5 1642,-686.5 1642,-686.5 1648,-686.5 1654,-692.5 1654,-698.5 1654,-698.5 1654,-795.5 1654,-795.5 1654,-801.5 1648,-807.5 1642,-807.5 1642,-807.5 1504,-807.5 1504,-807.5 1498,-807.5 1492,-801.5 1492,-795.5 1492,-795.5 1492,-698.5 1492,-698.5 1492,-692.5 1498,-686.5 1504,-686.5"/>
<text text-anchor="middle" x="1573" y="-792.3" font-family="Times,serif" font-size="14.00">VehicleOdometer</text>
<polyline fill="none" stroke="black" points="1492,-784.5 1654,-784.5 "/>
<text text-anchor="start" x="1500" y="-769.3" font-family="Times,serif" font-size="14.00">id :integer</text>
<text text-anchor="start" x="1500" y="-754.3" font-family="Times,serif" font-size="14.00">odometerReading :integer</text>
<text text-anchor="start" x="1500" y="-739.3" font-family="Times,serif" font-size="14.00">startDate :datetime</text>
<text text-anchor="start" x="1500" y="-724.3" font-family="Times,serif" font-size="14.00">endDate :datetime</text>
<text text-anchor="start" x="1500" y="-709.3" font-family="Times,serif" font-size="14.00">created_at :datetime</text>
<text text-anchor="start" x="1500" y="-694.3" font-family="Times,serif" font-size="14.00">updated_at :datetime</text>
</g>
<!-- VehicleOdometer&#45;&gt;Vehicle -->
<g id="edge18" class="edge"><title>VehicleOdometer&#45;&gt;Vehicle</title>
<path fill="none" stroke="#d6f30a" d="M1527.07,-679.835C1513.36,-661.697 1497.77,-642.499 1482,-626 1452.38,-595.005 1417.16,-564.113 1384.74,-537.636"/>
<ellipse fill="none" stroke="#d6f30a" cx="1529.63" cy="-683.26" rx="4.00002" ry="4.00002"/>
<polygon fill="#d6f30a" stroke="#d6f30a" points="1384.33,-537.303 1379.4,-527.508 1380.45,-534.153 1376.57,-531.003 1376.57,-531.003 1376.57,-531.003 1380.45,-534.153 1373.73,-534.497 1384.33,-537.303 1384.33,-537.303"/>
</g>
<!-- VehicleType -->
<g id="node22" class="node"><title>VehicleType</title>
<path fill="none" stroke="black" d="M1684,-679C1684,-679 1800,-679 1800,-679 1806,-679 1812,-685 1812,-691 1812,-691 1812,-803 1812,-803 1812,-809 1806,-815 1800,-815 1800,-815 1684,-815 1684,-815 1678,-815 1672,-809 1672,-803 1672,-803 1672,-691 1672,-691 1672,-685 1678,-679 1684,-679"/>
<text text-anchor="middle" x="1742" y="-799.8" font-family="Times,serif" font-size="14.00">VehicleType</text>
<polyline fill="none" stroke="black" points="1672,-792 1812,-792 "/>
<text text-anchor="start" x="1680" y="-776.8" font-family="Times,serif" font-size="14.00">id :integer</text>
<text text-anchor="start" x="1680" y="-761.8" font-family="Times,serif" font-size="14.00">vehicleSize :string</text>
<text text-anchor="start" x="1680" y="-746.8" font-family="Times,serif" font-size="14.00">bulkBoolean :boolean</text>
<text text-anchor="start" x="1680" y="-731.8" font-family="Times,serif" font-size="14.00">bodyMake :string</text>
<text text-anchor="start" x="1680" y="-716.8" font-family="Times,serif" font-size="14.00">bodyModel :string</text>
<text text-anchor="start" x="1680" y="-701.8" font-family="Times,serif" font-size="14.00">created_at :datetime</text>
<text text-anchor="start" x="1680" y="-686.8" font-family="Times,serif" font-size="14.00">updated_at :datetime</text>
</g>
<!-- VehicleType&#45;&gt;Vehicle -->
<g id="edge19" class="edge"><title>VehicleType&#45;&gt;Vehicle</title>
<path fill="none" stroke="#197129" d="M1702.82,-671.803C1691.59,-655.218 1678.2,-638.779 1663,-626 1581.83,-557.775 1467.93,-513.575 1386.42,-488.451"/>
<ellipse fill="none" stroke="#197129" cx="1705.3" cy="-675.569" rx="4.00002" ry="4.00002"/>
<polygon fill="#197129" stroke="#197129" points="1386.21,-488.388 1377.95,-481.175 1381.43,-486.935 1376.64,-485.481 1376.64,-485.481 1376.64,-485.481 1381.43,-486.935 1375.34,-489.787 1386.21,-488.388 1386.21,-488.388"/>
</g>
<!-- Zip&#45;&gt;Psazip -->
<g id="edge20" class="edge"><title>Zip&#45;&gt;Psazip</title>
<path fill="none" stroke="#da0a3a" d="M789.38,-166.223C786.221,-150.523 782.731,-133.18 779.466,-116.952"/>
<ellipse fill="none" stroke="#da0a3a" cx="790.194" cy="-170.265" rx="4.00001" ry="4.00001"/>
<polygon fill="#da0a3a" stroke="#da0a3a" points="779.44,-116.821 781.878,-106.13 778.453,-111.919 777.467,-107.017 777.467,-107.017 777.467,-107.017 778.453,-111.919 773.055,-107.905 779.44,-116.821 779.44,-116.821"/>
</g>
</g>
</svg>
