<?xml version="1.0" encoding="UTF-8" standalone="no"?>
<!DOCTYPE svg PUBLIC "-//W3C//DTD SVG 1.1//EN"
 "http://www.w3.org/Graphics/SVG/1.1/DTD/svg11.dtd">
<!-- Generated by graphviz version 2.29.20121209.0545 (20121209.0545)
 -->
<!-- Title: models_diagram Pages: 1 -->
<svg width="1542pt" height="302pt"
 viewBox="0.00 0.00 1542.16 302.00" xmlns="http://www.w3.org/2000/svg" xmlns:xlink="http://www.w3.org/1999/xlink">
<g id="graph0" class="graph" transform="scale(1 1) rotate(0) translate(4 298)">
<title>models_diagram</title>
<polygon fill="white" stroke="white" points="-4,5 -4,-298 1539.16,-298 1539.16,5 -4,5"/>
<!-- _diagram_info -->
<g id="node1" class="node"><title>_diagram_info</title>
<text text-anchor="start" x="17.1592" y="-279.6" font-family="Times,serif" font-size="13.00">Models diagram</text>
<text text-anchor="start" x="17.1592" y="-265.6" font-family="Times,serif" font-size="13.00">Date: Dec 12 2012 &#45; 22:01</text>
<text text-anchor="start" x="17.1592" y="-251.6" font-family="Times,serif" font-size="13.00">Migration version: 20121212223518</text>
<text text-anchor="start" x="17.1592" y="-237.6" font-family="Times,serif" font-size="13.00">Generated by RailRoady 1.1.0</text>
<text text-anchor="start" x="17.1592" y="-223.6" font-family="Times,serif" font-size="13.00">http://railroady.prestonlee.com</text>
</g>
<!-- Addendum -->
<g id="node2" class="node"><title>Addendum</title>
<ellipse fill="none" stroke="black" cx="67.1592" cy="-162" rx="51.0191" ry="18"/>
<text text-anchor="middle" x="67.1592" y="-158.3" font-family="Times,serif" font-size="14.00">Addendum</text>
</g>
<!-- Note -->
<g id="node10" class="node"><title>Note</title>
<ellipse fill="none" stroke="black" cx="113.159" cy="-90" rx="28.3955" ry="18"/>
<text text-anchor="middle" x="113.159" y="-86.3" font-family="Times,serif" font-size="14.00">Note</text>
</g>
<!-- Addendum&#45;&gt;Note -->
<g id="edge1" class="edge"><title>Addendum&#45;&gt;Note</title>
<path fill="none" stroke="#8cf2c3" d="M82.4623,-137.713C87.1213,-130.623 92.2566,-122.808 96.972,-115.633"/>
<ellipse fill="none" stroke="#8cf2c3" cx="80.2573" cy="-141.068" rx="4.00002" ry="4.00002"/>
<polygon fill="#8cf2c3" stroke="#8cf2c3" points="97.1609,-115.345 106.413,-109.459 99.9068,-111.167 102.653,-106.988 102.653,-106.988 102.653,-106.988 99.9068,-111.167 98.8921,-104.517 97.1609,-115.345 97.1609,-115.345"/>
</g>
<!-- Business -->
<g id="node3" class="node"><title>Business</title>
<ellipse fill="none" stroke="black" cx="969.159" cy="-255" rx="42.3456" ry="18"/>
<text text-anchor="middle" x="969.159" y="-251.3" font-family="Times,serif" font-size="14.00">Business</text>
</g>
<!-- DailyDataEmployee -->
<g id="node4" class="node"><title>DailyDataEmployee</title>
<ellipse fill="none" stroke="black" cx="366.159" cy="-90" rx="85.2138" ry="18"/>
<text text-anchor="middle" x="366.159" y="-86.3" font-family="Times,serif" font-size="14.00">DailyDataEmployee</text>
</g>
<!-- DailyDataVehicle -->
<g id="node5" class="node"><title>DailyDataVehicle</title>
<ellipse fill="none" stroke="black" cx="557.159" cy="-90" rx="76.5394" ry="18"/>
<text text-anchor="middle" x="557.159" y="-86.3" font-family="Times,serif" font-size="14.00">DailyDataVehicle</text>
</g>
<!-- DailyDatum -->
<g id="node6" class="node"><title>DailyDatum</title>
<ellipse fill="none" stroke="black" cx="291.159" cy="-255" rx="55.3436" ry="18"/>
<text text-anchor="middle" x="291.159" y="-251.3" font-family="Times,serif" font-size="14.00">DailyDatum</text>
</g>
<!-- DailyDatum&#45;&gt;Note -->
<g id="edge2" class="edge"><title>DailyDatum&#45;&gt;Note</title>
<path fill="none" stroke="#0fe8e5" d="M262.155,-233.981C251.291,-227.323 238.567,-220.473 226.159,-216 133.365,-182.55 71.001,-255.193 7.15921,-180 -3.19635,-167.803 -1.25249,-157.61 7.15921,-144 22.2754,-119.542 52.475,-105.993 76.786,-98.7309"/>
<ellipse fill="none" stroke="#0fe8e5" cx="265.621" cy="-236.168" rx="4.00002" ry="4.00002"/>
<polygon fill="#0fe8e5" stroke="#0fe8e5" points="76.8022,-98.7265 87.6374,-100.414 81.6233,-97.4009 86.4444,-96.0753 86.4444,-96.0753 86.4444,-96.0753 81.6233,-97.4009 85.2514,-91.7364 76.8022,-98.7265 76.8022,-98.7265"/>
</g>
<!-- DailyDatum&#45;&gt;DailyDataVehicle -->
<g id="edge3" class="edge"><title>DailyDatum&#45;&gt;DailyDataVehicle</title>
<path fill="none" stroke="#8a7add" d="M323.006,-234.485C373.185,-203.736 470.274,-144.241 522.275,-112.376"/>
<ellipse fill="none" stroke="#8a7add" cx="319.594" cy="-236.575" rx="4.00002" ry="4.00002"/>
<polygon fill="#8a7add" stroke="#8a7add" points="522.303,-112.359 533.181,-110.971 526.567,-109.747 530.83,-107.134 530.83,-107.134 530.83,-107.134 526.567,-109.747 528.479,-103.297 522.303,-112.359 522.303,-112.359"/>
</g>
<!-- Vehicle -->
<g id="node21" class="node"><title>Vehicle</title>
<ellipse fill="none" stroke="black" cx="563.159" cy="-162" rx="38.4949" ry="18"/>
<text text-anchor="middle" x="563.159" y="-158.3" font-family="Times,serif" font-size="14.00">Vehicle</text>
</g>
<!-- DailyDatum&#45;&gt;Vehicle -->
<g id="edge4" class="edge"><title>DailyDatum&#45;&gt;Vehicle</title>
<path fill="none" stroke="#8f3775" d="M322.787,-233.136C333.115,-226.977 344.844,-220.649 356.159,-216 409.686,-194.007 474.841,-179.138 517.577,-170.877"/>
<polygon fill="#8f3775" stroke="#8f3775" points="322.64,-233.226 311.763,-234.623 318.378,-235.842 314.117,-238.458 314.117,-238.458 314.117,-238.458 318.378,-235.842 316.471,-242.293 322.64,-233.226 322.64,-233.226"/>
<polygon fill="#8f3775" stroke="#8f3775" points="517.58,-170.876 528.242,-173.438 522.493,-169.946 527.406,-169.017 527.406,-169.017 527.406,-169.017 522.493,-169.946 526.569,-164.595 517.58,-170.876 517.58,-170.876"/>
</g>
<!-- DailyDatum&#45;&gt;DailyDataEmployee -->
<g id="edge5" class="edge"><title>DailyDatum&#45;&gt;DailyDataEmployee</title>
<path fill="none" stroke="#1946cb" d="M312.389,-231.456C324.314,-217.603 338.499,-198.93 347.159,-180 356.17,-160.303 360.979,-136.179 363.502,-118.018"/>
<ellipse fill="none" stroke="#1946cb" cx="309.74" cy="-234.463" rx="4.00002" ry="4.00002"/>
<polygon fill="#1946cb" stroke="#1946cb" points="363.502,-118.016 369.203,-108.648 364.12,-113.054 364.738,-108.092 364.738,-108.092 364.738,-108.092 364.12,-113.054 360.272,-107.536 363.502,-118.016 363.502,-118.016"/>
</g>
<!-- Employee -->
<g id="node7" class="node"><title>Employee</title>
<ellipse fill="none" stroke="black" cx="291.159" cy="-162" rx="47.169" ry="18"/>
<text text-anchor="middle" x="291.159" y="-158.3" font-family="Times,serif" font-size="14.00">Employee</text>
</g>
<!-- DailyDatum&#45;&gt;Employee -->
<g id="edge6" class="edge"><title>DailyDatum&#45;&gt;Employee</title>
<path fill="none" stroke="#b6910c" d="M291.159,-226.549C291.159,-215.083 291.159,-201.792 291.159,-190.339"/>
<polygon fill="#b6910c" stroke="#b6910c" points="291.159,-226.884 286.659,-236.884 291.159,-231.884 291.159,-236.884 291.159,-236.884 291.159,-236.884 291.159,-231.884 295.659,-236.884 291.159,-226.884 291.159,-226.884"/>
<polygon fill="#b6910c" stroke="#b6910c" points="291.159,-190.04 295.659,-180.04 291.159,-185.04 291.159,-180.04 291.159,-180.04 291.159,-180.04 291.159,-185.04 286.659,-180.04 291.159,-190.04 291.159,-190.04"/>
</g>
<!-- Employee&#45;&gt;Note -->
<g id="edge7" class="edge"><title>Employee&#45;&gt;Note</title>
<path fill="none" stroke="#f5fb5a" d="M251.62,-145.451C219.975,-133.006 176.105,-115.754 146.286,-104.027"/>
<ellipse fill="none" stroke="#f5fb5a" cx="255.614" cy="-147.021" rx="4.00001" ry="4.00001"/>
<polygon fill="#f5fb5a" stroke="#f5fb5a" points="146.057,-103.937 138.397,-96.0896 141.403,-102.107 136.75,-100.277 136.75,-100.277 136.75,-100.277 141.403,-102.107 135.103,-104.465 146.057,-103.937 146.057,-103.937"/>
</g>
<!-- User -->
<g id="node19" class="node"><title>User</title>
<ellipse fill="none" stroke="black" cx="235.159" cy="-90" rx="27.4223" ry="18"/>
<text text-anchor="middle" x="235.159" y="-86.3" font-family="Times,serif" font-size="14.00">User</text>
</g>
<!-- Employee&#45;&gt;User -->
<g id="edge8" class="edge"><title>Employee&#45;&gt;User</title>
<path fill="none" stroke="#c76b21" d="M272.685,-137.908C266.244,-129.856 259.039,-120.85 252.678,-112.898"/>
<ellipse fill="none" stroke="#c76b21" cx="275.389" cy="-141.287" rx="4.00002" ry="4.00002"/>
<ellipse fill="#c76b21" stroke="#c76b21" cx="250.067" cy="-109.634" rx="4.00002" ry="4.00002"/>
</g>
<!-- Employee&#45;&gt;DailyDataEmployee -->
<g id="edge9" class="edge"><title>Employee&#45;&gt;DailyDataEmployee</title>
<path fill="none" stroke="#5512ea" d="M314.032,-139.652C322.506,-131.743 332.162,-122.731 340.841,-114.631"/>
<ellipse fill="none" stroke="#5512ea" cx="311.102" cy="-142.387" rx="4.00002" ry="4.00002"/>
<polygon fill="#5512ea" stroke="#5512ea" points="340.851,-114.621 351.232,-111.087 344.507,-111.209 348.162,-107.797 348.162,-107.797 348.162,-107.797 344.507,-111.209 345.092,-104.508 340.851,-114.621 340.851,-114.621"/>
</g>
<!-- EmployeePsa -->
<g id="node8" class="node"><title>EmployeePsa</title>
<ellipse fill="none" stroke="black" cx="1090.16" cy="-255" rx="60.1672" ry="18"/>
<text text-anchor="middle" x="1090.16" y="-251.3" font-family="Times,serif" font-size="14.00">EmployeePsa</text>
</g>
<!-- FedexContract -->
<g id="node9" class="node"><title>FedexContract</title>
<ellipse fill="none" stroke="black" cx="1233.16" cy="-255" rx="64.0172" ry="18"/>
<text text-anchor="middle" x="1233.16" y="-251.3" font-family="Times,serif" font-size="14.00">FedexContract</text>
</g>
<!-- Psa -->
<g id="node11" class="node"><title>Psa</title>
<ellipse fill="none" stroke="black" cx="1342.16" cy="-255" rx="27" ry="18"/>
<text text-anchor="middle" x="1342.16" y="-251.3" font-family="Times,serif" font-size="14.00">Psa</text>
</g>
<!-- Psazip -->
<g id="node13" class="node"><title>Psazip</title>
<ellipse fill="none" stroke="black" cx="1267.16" cy="-90" rx="34.1708" ry="18"/>
<text text-anchor="middle" x="1267.16" y="-86.3" font-family="Times,serif" font-size="14.00">Psazip</text>
</g>
<!-- Psa&#45;&gt;Psazip -->
<g id="edge10" class="edge"><title>Psa&#45;&gt;Psazip</title>
<path fill="none" stroke="#07d950" d="M1322.98,-233.1C1305.14,-213.466 1280.91,-186.198 1278.16,-180 1269.54,-160.585 1266.98,-136.581 1266.47,-118.397"/>
<ellipse fill="none" stroke="#07d950" cx="1325.81" cy="-236.214" rx="4.00002" ry="4.00002"/>
<polygon fill="#07d950" stroke="#07d950" points="1266.47,-118.18 1270.88,-108.141 1266.43,-113.18 1266.38,-108.181 1266.38,-108.181 1266.38,-108.181 1266.43,-113.18 1261.88,-108.22 1266.47,-118.18 1266.47,-118.18"/>
</g>
<!-- Zip -->
<g id="node25" class="node"><title>Zip</title>
<ellipse fill="none" stroke="black" cx="1314.16" cy="-162" rx="27" ry="18"/>
<text text-anchor="middle" x="1314.16" y="-158.3" font-family="Times,serif" font-size="14.00">Zip</text>
</g>
<!-- Psa&#45;&gt;Zip -->
<g id="edge11" class="edge"><title>Psa&#45;&gt;Zip</title>
<path fill="none" stroke="#f8a41b" d="M1333.96,-227.356C1330.31,-215.493 1326.02,-201.552 1322.37,-189.684"/>
<polygon fill="#f8a41b" stroke="#f8a41b" points="1334.08,-227.751 1332.72,-238.633 1335.55,-232.53 1337.02,-237.309 1337.02,-237.309 1337.02,-237.309 1335.55,-232.53 1341.32,-235.986 1334.08,-227.751 1334.08,-227.751"/>
<polygon fill="#f8a41b" stroke="#f8a41b" points="1322.3,-189.451 1323.66,-178.57 1320.83,-184.672 1319.36,-179.893 1319.36,-179.893 1319.36,-179.893 1320.83,-184.672 1315.06,-181.217 1322.3,-189.451 1322.3,-189.451"/>
</g>
<!-- PsaState -->
<g id="node12" class="node"><title>PsaState</title>
<ellipse fill="none" stroke="black" cx="1397.16" cy="-90" rx="41.394" ry="18"/>
<text text-anchor="middle" x="1397.16" y="-86.3" font-family="Times,serif" font-size="14.00">PsaState</text>
</g>
<!-- Psa&#45;&gt;PsaState -->
<g id="edge12" class="edge"><title>Psa&#45;&gt;PsaState</title>
<path fill="none" stroke="#0176c8" d="M1350.52,-229.236C1360.67,-199.145 1377.73,-148.577 1388.16,-117.657"/>
<ellipse fill="none" stroke="#0176c8" cx="1349.12" cy="-233.38" rx="4.00001" ry="4.00001"/>
<polygon fill="#0176c8" stroke="#0176c8" points="1388.23,-117.458 1395.69,-109.421 1389.83,-112.72 1391.43,-107.983 1391.43,-107.983 1391.43,-107.983 1389.83,-112.72 1387.17,-106.544 1388.23,-117.458 1388.23,-117.458"/>
</g>
<!-- State -->
<g id="node17" class="node"><title>State</title>
<ellipse fill="none" stroke="black" cx="1426.16" cy="-162" rx="28.3955" ry="18"/>
<text text-anchor="middle" x="1426.16" y="-158.3" font-family="Times,serif" font-size="14.00">State</text>
</g>
<!-- Psa&#45;&gt;State -->
<g id="edge13" class="edge"><title>Psa&#45;&gt;State</title>
<path fill="none" stroke="#4fd1ab" d="M1362.76,-231.68C1375.8,-217.556 1392.59,-199.366 1405.62,-185.255"/>
<polygon fill="#4fd1ab" stroke="#4fd1ab" points="1362.44,-232.031 1352.35,-236.327 1359.05,-235.705 1355.66,-239.379 1355.66,-239.379 1355.66,-239.379 1359.05,-235.705 1358.96,-242.432 1362.44,-232.031 1362.44,-232.031"/>
<polygon fill="#4fd1ab" stroke="#4fd1ab" points="1405.63,-185.235 1415.72,-180.939 1409.03,-181.561 1412.42,-177.887 1412.42,-177.887 1412.42,-177.887 1409.03,-181.561 1409.11,-174.834 1405.63,-185.235 1405.63,-185.235"/>
</g>
<!-- Region -->
<g id="node14" class="node"><title>Region</title>
<ellipse fill="none" stroke="black" cx="1424.16" cy="-255" rx="37.0701" ry="18"/>
<text text-anchor="middle" x="1424.16" y="-251.3" font-family="Times,serif" font-size="14.00">Region</text>
</g>
<!-- Role -->
<g id="node15" class="node"><title>Role</title>
<ellipse fill="none" stroke="black" cx="1507.16" cy="-255" rx="27.4223" ry="18"/>
<text text-anchor="middle" x="1507.16" y="-251.3" font-family="Times,serif" font-size="14.00">Role</text>
</g>
<!-- ServiceType -->
<g id="node16" class="node"><title>ServiceType</title>
<ellipse fill="none" stroke="black" cx="852.159" cy="-255" rx="56.3173" ry="18"/>
<text text-anchor="middle" x="852.159" y="-251.3" font-family="Times,serif" font-size="14.00">ServiceType</text>
</g>
<!-- ServiceType&#45;&gt;Vehicle -->
<g id="edge14" class="edge"><title>ServiceType&#45;&gt;Vehicle</title>
<path fill="none" stroke="#1f66fd" d="M822.22,-234.315C811.227,-227.754 798.458,-220.882 786.159,-216 727.188,-192.591 655.171,-177.783 609.234,-169.942"/>
<ellipse fill="none" stroke="#1f66fd" cx="825.75" cy="-236.472" rx="4.00002" ry="4.00002"/>
<polygon fill="#1f66fd" stroke="#1f66fd" points="609.139,-169.926 600.016,-163.843 604.208,-169.104 599.276,-168.281 599.276,-168.281 599.276,-168.281 604.208,-169.104 598.536,-172.72 609.139,-169.926 609.139,-169.926"/>
</g>
<!-- State&#45;&gt;PsaState -->
<g id="edge15" class="edge"><title>State&#45;&gt;PsaState</title>
<path fill="none" stroke="#162a5f" d="M1416.12,-136.778C1413.54,-130.544 1410.75,-123.805 1408.12,-117.463"/>
<ellipse fill="none" stroke="#162a5f" cx="1417.76" cy="-140.716" rx="4.00001" ry="4.00001"/>
<polygon fill="#162a5f" stroke="#162a5f" points="1408.01,-117.195 1408.34,-106.234 1406.1,-112.575 1404.18,-107.956 1404.18,-107.956 1404.18,-107.956 1406.1,-112.575 1400.03,-109.679 1408.01,-117.195 1408.01,-117.195"/>
</g>
<!-- Terminal -->
<g id="node18" class="node"><title>Terminal</title>
<ellipse fill="none" stroke="black" cx="181.159" cy="-162" rx="44.2946" ry="18"/>
<text text-anchor="middle" x="181.159" y="-158.3" font-family="Times,serif" font-size="14.00">Terminal</text>
</g>
<!-- Terminal&#45;&gt;Note -->
<g id="edge16" class="edge"><title>Terminal&#45;&gt;Note</title>
<path fill="none" stroke="#915f75" d="M160.101,-139.322C152.024,-131.008 142.801,-121.514 134.681,-113.155"/>
<ellipse fill="none" stroke="#915f75" cx="162.942" cy="-142.247" rx="4.00002" ry="4.00002"/>
<polygon fill="#915f75" stroke="#915f75" points="134.566,-113.037 130.826,-102.728 131.082,-109.45 127.598,-105.864 127.598,-105.864 127.598,-105.864 131.082,-109.45 124.371,-108.999 134.566,-113.037 134.566,-113.037"/>
</g>
<!-- UserRole -->
<g id="node20" class="node"><title>UserRole</title>
<ellipse fill="none" stroke="black" cx="235.159" cy="-18" rx="44.271" ry="18"/>
<text text-anchor="middle" x="235.159" y="-14.3" font-family="Times,serif" font-size="14.00">UserRole</text>
</g>
<!-- User&#45;&gt;UserRole -->
<g id="edge17" class="edge"><title>User&#45;&gt;UserRole</title>
<path fill="none" stroke="#23e4e0" d="M235.159,-63.6398C235.159,-58.0629 235.159,-52.1319 235.159,-46.4761"/>
<ellipse fill="none" stroke="#23e4e0" cx="235.159" cy="-67.6966" rx="4" ry="4"/>
<polygon fill="#23e4e0" stroke="#23e4e0" points="235.159,-46.1043 239.659,-36.1043 235.159,-41.1043 235.159,-36.1043 235.159,-36.1043 235.159,-36.1043 235.159,-41.1043 230.659,-36.1044 235.159,-46.1043 235.159,-46.1043"/>
</g>
<!-- Vehicle&#45;&gt;DailyDataVehicle -->
<g id="edge18" class="edge"><title>Vehicle&#45;&gt;DailyDataVehicle</title>
<path fill="none" stroke="#0da316" d="M560.985,-135.64C560.507,-130.063 559.999,-124.132 559.514,-118.476"/>
<ellipse fill="none" stroke="#0da316" cx="561.334" cy="-139.711" rx="4" ry="4"/>
<polygon fill="#0da316" stroke="#0da316" points="559.479,-118.068 563.109,-107.72 559.052,-113.086 558.625,-108.104 558.625,-108.104 558.625,-108.104 559.052,-113.086 554.142,-108.489 559.479,-118.068 559.479,-118.068"/>
</g>
<!-- VehicleFuel -->
<g id="node22" class="node"><title>VehicleFuel</title>
<ellipse fill="none" stroke="black" cx="420.159" cy="-255" rx="55.3682" ry="18"/>
<text text-anchor="middle" x="420.159" y="-251.3" font-family="Times,serif" font-size="14.00">VehicleFuel</text>
</g>
<!-- VehicleFuel&#45;&gt;Vehicle -->
<g id="edge19" class="edge"><title>VehicleFuel&#45;&gt;Vehicle</title>
<path fill="none" stroke="#cdc9b5" d="M451.063,-234.334C475.099,-219.039 508.288,-197.918 532.309,-182.632"/>
<ellipse fill="none" stroke="#cdc9b5" cx="447.469" cy="-236.621" rx="4.00002" ry="4.00002"/>
<polygon fill="#cdc9b5" stroke="#cdc9b5" points="532.592,-182.452 543.445,-180.88 536.81,-179.767 541.029,-177.083 541.029,-177.083 541.029,-177.083 536.81,-179.767 538.613,-173.287 532.592,-182.452 532.592,-182.452"/>
</g>
<!-- VehicleOdometer -->
<g id="node23" class="node"><title>VehicleOdometer</title>
<ellipse fill="none" stroke="black" cx="569.159" cy="-255" rx="75.0904" ry="18"/>
<text text-anchor="middle" x="569.159" y="-251.3" font-family="Times,serif" font-size="14.00">VehicleOdometer</text>
</g>
<!-- VehicleOdometer&#45;&gt;Vehicle -->
<g id="edge20" class="edge"><title>VehicleOdometer&#45;&gt;Vehicle</title>
<path fill="none" stroke="#7df974" d="M567.493,-228.729C566.701,-216.725 565.755,-202.362 564.948,-190.129"/>
<ellipse fill="none" stroke="#7df974" cx="567.767" cy="-232.892" rx="4" ry="4"/>
<polygon fill="#7df974" stroke="#7df974" points="564.941,-190.018 568.773,-179.744 564.612,-185.029 564.283,-180.04 564.283,-180.04 564.283,-180.04 564.612,-185.029 559.792,-180.336 564.941,-190.018 564.941,-190.018"/>
</g>
<!-- VehicleType -->
<g id="node24" class="node"><title>VehicleType</title>
<ellipse fill="none" stroke="black" cx="720.159" cy="-255" rx="57.2688" ry="18"/>
<text text-anchor="middle" x="720.159" y="-251.3" font-family="Times,serif" font-size="14.00">VehicleType</text>
</g>
<!-- VehicleType&#45;&gt;Vehicle -->
<g id="edge21" class="edge"><title>VehicleType&#45;&gt;Vehicle</title>
<path fill="none" stroke="#92cfd7" d="M686.902,-234.724C659.917,-219.082 622.101,-197.164 595.394,-181.684"/>
<ellipse fill="none" stroke="#92cfd7" cx="690.42" cy="-236.763" rx="4.00002" ry="4.00002"/>
<polygon fill="#92cfd7" stroke="#92cfd7" points="595.098,-181.513 588.703,-172.604 590.772,-179.005 586.447,-176.498 586.447,-176.498 586.447,-176.498 590.772,-179.005 584.19,-180.391 595.098,-181.513 595.098,-181.513"/>
</g>
<!-- Zip&#45;&gt;Psazip -->
<g id="edge22" class="edge"><title>Zip&#45;&gt;Psazip</title>
<path fill="none" stroke="#18169b" d="M1298.99,-138.409C1294.1,-131.129 1288.66,-123.027 1283.68,-115.61"/>
<ellipse fill="none" stroke="#18169b" cx="1301.26" cy="-141.795" rx="4.00002" ry="4.00002"/>
<polygon fill="#18169b" stroke="#18169b" points="1283.68,-115.609 1281.84,-104.799 1280.9,-111.458 1278.11,-107.307 1278.11,-107.307 1278.11,-107.307 1280.9,-111.458 1274.37,-109.815 1283.68,-115.609 1283.68,-115.609"/>
</g>
</g>
</svg>
