<?xml version="1.0" encoding="UTF-8" standalone="no"?>
<!DOCTYPE svg PUBLIC "-//W3C//DTD SVG 1.1//EN"
 "http://www.w3.org/Graphics/SVG/1.1/DTD/svg11.dtd">
<!-- Generated by graphviz version 2.29.20121209.0545 (20121209.0545)
 -->
<!-- Title: models_diagram Pages: 1 -->
<svg width="1879pt" height="504pt"
 viewBox="0.00 0.00 1879.00 504.00" xmlns="http://www.w3.org/2000/svg" xmlns:xlink="http://www.w3.org/1999/xlink">
<g id="graph0" class="graph" transform="scale(1 1) rotate(0) translate(4 500)">
<title>models_diagram</title>
<polygon fill="white" stroke="white" points="-4,5 -4,-500 1876,-500 1876,5 -4,5"/>
<!-- _diagram_info -->
<g id="node1" class="node"><title>_diagram_info</title>
<text text-anchor="start" x="1525" y="-481.6" font-family="Times,serif" font-size="13.00">Models diagram</text>
<text text-anchor="start" x="1525" y="-467.6" font-family="Times,serif" font-size="13.00">Date: Dec 16 2012 &#45; 17:11</text>
<text text-anchor="start" x="1525" y="-453.6" font-family="Times,serif" font-size="13.00">Migration version: 20121216220234</text>
<text text-anchor="start" x="1525" y="-439.6" font-family="Times,serif" font-size="13.00">Generated by RailRoady 1.1.0</text>
<text text-anchor="start" x="1525" y="-425.6" font-family="Times,serif" font-size="13.00">http://railroady.prestonlee.com</text>
</g>
<!-- Addendum -->
<g id="node2" class="node"><title>Addendum</title>
<ellipse fill="none" stroke="black" cx="1785" cy="-308" rx="51.0191" ry="18"/>
<text text-anchor="middle" x="1785" y="-304.3" font-family="Times,serif" font-size="14.00">Addendum</text>
</g>
<!-- Note -->
<g id="node14" class="node"><title>Note</title>
<ellipse fill="none" stroke="black" cx="664" cy="-18" rx="28.3955" ry="18"/>
<text text-anchor="middle" x="664" y="-14.3" font-family="Times,serif" font-size="14.00">Note</text>
</g>
<!-- Addendum&#45;&gt;Note -->
<g id="edge1" class="edge"><title>Addendum&#45;&gt;Note</title>
<path fill="none" stroke="#c72cc0" d="M1787.86,-281.662C1789.79,-262.328 1792,-235.019 1792,-211 1792,-211 1792,-211 1792,-91 1792,-35.1811 900.682,-21.7064 702.663,-19.4016"/>
<ellipse fill="none" stroke="#c72cc0" cx="1787.44" cy="-285.706" rx="4" ry="4"/>
<polygon fill="#c72cc0" stroke="#c72cc0" points="702.447,-19.3992 692.499,-14.7858 697.447,-19.3424 692.447,-19.2855 692.447,-19.2855 692.447,-19.2855 697.447,-19.3424 692.396,-23.7852 702.447,-19.3992 702.447,-19.3992"/>
</g>
<!-- Business -->
<g id="node3" class="node"><title>Business</title>
<ellipse fill="none" stroke="black" cx="329" cy="-362" rx="42.3456" ry="18"/>
<text text-anchor="middle" x="329" y="-358.3" font-family="Times,serif" font-size="14.00">Business</text>
</g>
<!-- Business&#45;&gt;Note -->
<g id="edge2" class="edge"><title>Business&#45;&gt;Note</title>
<path fill="none" stroke="#494fd9" d="M278.102,-361.045C205.005,-358.13 79,-340.68 79,-255 79,-255 79,-255 79,-91 79,-35.7604 495.199,-22.4828 625.489,-19.6797"/>
<ellipse fill="none" stroke="#494fd9" cx="282.31" cy="-361.186" rx="4" ry="4"/>
<polygon fill="#494fd9" stroke="#494fd9" points="625.786,-19.6736 635.877,-23.9664 630.785,-19.5705 635.784,-19.4674 635.784,-19.4674 635.784,-19.4674 630.785,-19.5705 635.691,-14.9683 625.786,-19.6736 625.786,-19.6736"/>
</g>
<!-- Psa -->
<g id="node15" class="node"><title>Psa</title>
<ellipse fill="none" stroke="black" cx="304" cy="-166" rx="27" ry="18"/>
<text text-anchor="middle" x="304" y="-162.3" font-family="Times,serif" font-size="14.00">Psa</text>
</g>
<!-- Business&#45;&gt;Psa -->
<g id="edge3" class="edge"><title>Business&#45;&gt;Psa</title>
<path fill="none" stroke="#15dd82" d="M325.756,-335.828C321.057,-299.362 312.389,-232.096 307.533,-194.414"/>
<ellipse fill="none" stroke="#15dd82" cx="326.27" cy="-339.817" rx="4.00001" ry="4.00001"/>
<polygon fill="#15dd82" stroke="#15dd82" points="307.492,-194.096 310.677,-183.602 306.853,-189.137 306.214,-184.178 306.214,-184.178 306.214,-184.178 306.853,-189.137 301.751,-184.753 307.492,-194.096 307.492,-194.096"/>
</g>
<!-- Employee -->
<g id="node9" class="node"><title>Employee</title>
<ellipse fill="none" stroke="black" cx="674" cy="-254" rx="47.169" ry="18"/>
<text text-anchor="middle" x="674" y="-250.3" font-family="Times,serif" font-size="14.00">Employee</text>
</g>
<!-- Business&#45;&gt;Employee -->
<g id="edge4" class="edge"><title>Business&#45;&gt;Employee</title>
<path fill="none" stroke="#f49c85" d="M370.394,-348.282C435.457,-328.291 561.176,-289.665 628.623,-268.942"/>
<ellipse fill="none" stroke="#f49c85" cx="366.217" cy="-349.565" rx="4.00001" ry="4.00001"/>
<polygon fill="#f49c85" stroke="#f49c85" points="628.974,-268.834 639.855,-270.199 633.754,-267.366 638.533,-265.897 638.533,-265.897 638.533,-265.897 633.754,-267.366 637.212,-261.596 628.974,-268.834 628.974,-268.834"/>
</g>
<!-- Vehicle -->
<g id="node25" class="node"><title>Vehicle</title>
<ellipse fill="none" stroke="black" cx="1546" cy="-254" rx="38.4949" ry="18"/>
<text text-anchor="middle" x="1546" y="-250.3" font-family="Times,serif" font-size="14.00">Vehicle</text>
</g>
<!-- Business&#45;&gt;Vehicle -->
<g id="edge5" class="edge"><title>Business&#45;&gt;Vehicle</title>
<path fill="none" stroke="#287232" d="M379.013,-357.68C533.143,-347.279 1014.46,-313.531 1412,-272 1441.11,-268.959 1473.68,-264.843 1499.43,-261.422"/>
<ellipse fill="none" stroke="#287232" cx="374.616" cy="-357.976" rx="4" ry="4"/>
<polygon fill="#287232" stroke="#287232" points="1499.74,-261.38 1510.25,-264.513 1504.7,-260.716 1509.65,-260.053 1509.65,-260.053 1509.65,-260.053 1504.7,-260.716 1509.05,-255.592 1499.74,-261.38 1499.74,-261.38"/>
</g>
<!-- DailyDataDeliveryException -->
<g id="node4" class="node"><title>DailyDataDeliveryException</title>
<ellipse fill="none" stroke="black" cx="1437" cy="-166" rx="116.484" ry="18"/>
<text text-anchor="middle" x="1437" y="-162.3" font-family="Times,serif" font-size="14.00">DailyDataDeliveryException</text>
</g>
<!-- DailyDataDeliveryException&#45;&gt;Note -->
<g id="edge6" class="edge"><title>DailyDataDeliveryException&#45;&gt;Note</title>
<path fill="none" stroke="#9a825f" d="M1369.03,-148.539C1287.58,-129.15 1146.84,-96.7105 1025,-74 907.812,-52.1558 768.017,-32.7288 702.047,-23.9528"/>
<ellipse fill="none" stroke="#9a825f" cx="1373.32" cy="-149.561" rx="4.00001" ry="4.00001"/>
<polygon fill="#9a825f" stroke="#9a825f" points="701.645,-23.8998 692.322,-18.1265 696.689,-23.2437 691.732,-22.5876 691.732,-22.5876 691.732,-22.5876 696.689,-23.2437 691.141,-27.0487 701.645,-23.8998 701.645,-23.8998"/>
</g>
<!-- DailyDataEmployee -->
<g id="node5" class="node"><title>DailyDataEmployee</title>
<ellipse fill="none" stroke="black" cx="1217" cy="-166" rx="85.2138" ry="18"/>
<text text-anchor="middle" x="1217" y="-162.3" font-family="Times,serif" font-size="14.00">DailyDataEmployee</text>
</g>
<!-- DailyDataEmployee&#45;&gt;Note -->
<g id="edge7" class="edge"><title>DailyDataEmployee&#45;&gt;Note</title>
<path fill="none" stroke="#2f59b0" d="M1171.24,-146.794C1119.45,-126.733 1032.22,-94.5886 955,-74 865.39,-50.1093 757.59,-32.5803 701.72,-24.3087"/>
<ellipse fill="none" stroke="#2f59b0" cx="1175.2" cy="-148.335" rx="4.00001" ry="4.00001"/>
<polygon fill="#2f59b0" stroke="#2f59b0" points="701.479,-24.2734 692.235,-18.373 696.531,-23.5495 691.584,-22.8255 691.584,-22.8255 691.584,-22.8255 696.531,-23.5495 690.932,-27.2781 701.479,-24.2734 701.479,-24.2734"/>
</g>
<!-- DailyDataVehicle -->
<g id="node6" class="node"><title>DailyDataVehicle</title>
<ellipse fill="none" stroke="black" cx="1649" cy="-166" rx="76.5394" ry="18"/>
<text text-anchor="middle" x="1649" y="-162.3" font-family="Times,serif" font-size="14.00">DailyDataVehicle</text>
</g>
<!-- DailyDataVehicle&#45;&gt;Note -->
<g id="edge8" class="edge"><title>DailyDataVehicle&#45;&gt;Note</title>
<path fill="none" stroke="#1ea737" d="M1584.3,-152.167C1576.78,-150.733 1569.23,-149.316 1562,-148 1367.77,-112.622 1319.41,-102.172 1124,-74 967.947,-51.5016 781.161,-31.2093 702.212,-22.9367"/>
<ellipse fill="none" stroke="#1ea737" cx="1588.48" cy="-152.971" rx="4.00001" ry="4.00001"/>
<polygon fill="#1ea737" stroke="#1ea737" points="701.748,-22.8883 692.269,-17.3745 696.775,-22.3693 691.802,-21.8502 691.802,-21.8502 691.802,-21.8502 696.775,-22.3693 691.335,-26.3259 701.748,-22.8883 701.748,-22.8883"/>
</g>
<!-- DailyDatum -->
<g id="node7" class="node"><title>DailyDatum</title>
<ellipse fill="none" stroke="black" cx="1292" cy="-362" rx="55.3436" ry="18"/>
<text text-anchor="middle" x="1292" y="-358.3" font-family="Times,serif" font-size="14.00">DailyDatum</text>
</g>
<!-- DailyDatum&#45;&gt;Note -->
<g id="edge9" class="edge"><title>DailyDatum&#45;&gt;Note</title>
<path fill="none" stroke="#c31256" d="M1228.95,-359.363C1037.82,-353.755 474.638,-332.212 421,-272 362.568,-206.406 361.358,-210.335 526,-74 555.586,-49.5006 597.457,-34.8918 627.304,-26.9576"/>
<ellipse fill="none" stroke="#c31256" cx="1232.95" cy="-359.479" rx="4" ry="4"/>
<polygon fill="#c31256" stroke="#c31256" points="627.625,-26.8765 638.423,-28.7869 632.472,-25.6504 637.32,-24.4243 637.32,-24.4243 637.32,-24.4243 632.472,-25.6504 636.216,-20.0617 627.625,-26.8765 627.625,-26.8765"/>
</g>
<!-- DailyDatum&#45;&gt;DailyDataVehicle -->
<g id="edge10" class="edge"><title>DailyDatum&#45;&gt;DailyDataVehicle</title>
<path fill="none" stroke="#be71dd" d="M1341.31,-347.446C1357.68,-341.947 1375.63,-334.79 1391,-326 1444.94,-295.147 1445.48,-269.217 1498,-236 1530.31,-215.564 1569.68,-197.78 1600.11,-185.388"/>
<ellipse fill="none" stroke="#be71dd" cx="1337.23" cy="-348.775" rx="4.00001" ry="4.00001"/>
<polygon fill="#be71dd" stroke="#be71dd" points="1600.38,-185.281 1611.34,-185.733 1605.02,-183.419 1609.66,-181.557 1609.66,-181.557 1609.66,-181.557 1605.02,-183.419 1607.99,-177.381 1600.38,-185.281 1600.38,-185.281"/>
</g>
<!-- DailyDatum&#45;&gt;Vehicle -->
<g id="edge11" class="edge"><title>DailyDatum&#45;&gt;Vehicle</title>
<path fill="none" stroke="#95669f" d="M1342.63,-347.182C1347.47,-346.035 1352.32,-344.952 1357,-344 1411.14,-332.993 1432.26,-353.812 1480,-326 1497.51,-315.796 1494.28,-304.917 1508,-290 1512.05,-285.602 1516.56,-281.123 1521.02,-276.902"/>
<polygon fill="#95669f" stroke="#95669f" points="1342.47,-347.221 1331.68,-345.236 1337.61,-348.414 1332.75,-349.606 1332.75,-349.606 1332.75,-349.606 1337.61,-348.414 1333.83,-353.976 1342.47,-347.221 1342.47,-347.221"/>
<polygon fill="#95669f" stroke="#95669f" points="1521.05,-276.882 1531.45,-273.413 1524.72,-273.493 1528.4,-270.104 1528.4,-270.104 1528.4,-270.104 1524.72,-273.493 1525.35,-266.795 1521.05,-276.882 1521.05,-276.882"/>
</g>
<!-- DailyDatum&#45;&gt;DailyDataEmployee -->
<g id="edge12" class="edge"><title>DailyDatum&#45;&gt;DailyDataEmployee</title>
<path fill="none" stroke="#41f5aa" d="M1273.96,-337.874C1261.41,-320.645 1245.33,-296.038 1236,-272 1226.19,-246.737 1221.39,-216.061 1219.07,-194.407"/>
<ellipse fill="none" stroke="#41f5aa" cx="1276.36" cy="-341.114" rx="4.00002" ry="4.00002"/>
<polygon fill="#41f5aa" stroke="#41f5aa" points="1219.06,-194.228 1222.58,-183.843 1218.58,-189.25 1218.1,-184.273 1218.1,-184.273 1218.1,-184.273 1218.58,-189.25 1213.62,-184.703 1219.06,-194.228 1219.06,-194.228"/>
</g>
<!-- DailyDatum&#45;&gt;Employee -->
<g id="edge13" class="edge"><title>DailyDatum&#45;&gt;Employee</title>
<path fill="none" stroke="#63e7cd" d="M1234.27,-351.098C1114.56,-330.565 840.894,-283.626 726.147,-263.944"/>
<polygon fill="#63e7cd" stroke="#63e7cd" points="1234.42,-351.124 1243.52,-357.25 1239.35,-351.969 1244.28,-352.815 1244.28,-352.815 1244.28,-352.815 1239.35,-351.969 1245.04,-348.379 1234.42,-351.124 1234.42,-351.124"/>
<polygon fill="#63e7cd" stroke="#63e7cd" points="726.056,-263.929 716.961,-257.803 721.128,-263.083 716.2,-262.238 716.2,-262.238 716.2,-262.238 721.128,-263.083 715.439,-266.673 726.056,-263.929 726.056,-263.929"/>
</g>
<!-- DailyDatum&#45;&gt;DailyDataDeliveryException -->
<g id="edge14" class="edge"><title>DailyDatum&#45;&gt;DailyDataDeliveryException</title>
<path fill="none" stroke="#7b723e" d="M1328.67,-342.887C1355.75,-327.635 1391.35,-303.302 1412,-272 1427.43,-248.611 1433.36,-216.722 1435.63,-194.242"/>
<ellipse fill="none" stroke="#7b723e" cx="1325.14" cy="-344.829" rx="4.00002" ry="4.00002"/>
<polygon fill="#7b723e" stroke="#7b723e" points="1435.65,-194.006 1440.96,-184.411 1436.06,-189.023 1436.47,-184.04 1436.47,-184.04 1436.47,-184.04 1436.06,-189.023 1431.99,-183.67 1435.65,-194.006 1435.65,-194.006"/>
</g>
<!-- DeliveryException -->
<g id="node8" class="node"><title>DeliveryException</title>
<ellipse fill="none" stroke="black" cx="1324" cy="-254" rx="78.9404" ry="18"/>
<text text-anchor="middle" x="1324" y="-250.3" font-family="Times,serif" font-size="14.00">DeliveryException</text>
</g>
<!-- DailyDatum&#45;&gt;DeliveryException -->
<g id="edge15" class="edge"><title>DailyDatum&#45;&gt;DeliveryException</title>
<path fill="none" stroke="#1d4f96" d="M1300.11,-334.137C1304.95,-318.11 1311.07,-297.829 1315.91,-281.811"/>
<polygon fill="#1d4f96" stroke="#1d4f96" points="1300.03,-334.396 1292.83,-342.669 1298.59,-339.183 1297.14,-343.969 1297.14,-343.969 1297.14,-343.969 1298.59,-339.183 1301.45,-345.27 1300.03,-334.396 1300.03,-334.396"/>
<polygon fill="#1d4f96" stroke="#1d4f96" points="1315.98,-281.562 1323.18,-273.289 1317.43,-276.775 1318.87,-271.988 1318.87,-271.988 1318.87,-271.988 1317.43,-276.775 1314.56,-270.688 1315.98,-281.562 1315.98,-281.562"/>
</g>
<!-- DeliveryException&#45;&gt;DailyDataDeliveryException -->
<g id="edge16" class="edge"><title>DeliveryException&#45;&gt;DailyDataDeliveryException</title>
<path fill="none" stroke="#a67f67" d="M1352.1,-231.617C1368.74,-218.953 1389.82,-202.909 1406.81,-189.976"/>
<ellipse fill="none" stroke="#a67f67" cx="1348.7" cy="-234.199" rx="4.00002" ry="4.00002"/>
<polygon fill="#a67f67" stroke="#a67f67" points="1406.83,-189.961 1417.51,-187.486 1410.81,-186.933 1414.79,-183.905 1414.79,-183.905 1414.79,-183.905 1410.81,-186.933 1412.06,-180.324 1406.83,-189.961 1406.83,-189.961"/>
</g>
<!-- Employee&#45;&gt;Note -->
<g id="edge17" class="edge"><title>Employee&#45;&gt;Note</title>
<path fill="none" stroke="#416530" d="M673.013,-227.646C673.343,-204.932 676.948,-171.649 693,-148 710.939,-121.572 738.495,-137.926 754,-110 761.767,-96.0114 761.827,-87.9551 754,-74 742.223,-53.0002 718.802,-39.063 698.804,-30.4733"/>
<ellipse fill="none" stroke="#416530" cx="673.02" cy="-231.792" rx="4" ry="4"/>
<polygon fill="#416530" stroke="#416530" points="698.612,-30.3963 691.001,-22.5011 693.97,-28.5374 689.329,-26.6786 689.329,-26.6786 689.329,-26.6786 693.97,-28.5374 687.656,-30.8561 698.612,-30.3963 698.612,-30.3963"/>
</g>
<!-- User -->
<g id="node23" class="node"><title>User</title>
<ellipse fill="none" stroke="black" cx="730" cy="-166" rx="27.4223" ry="18"/>
<text text-anchor="middle" x="730" y="-162.3" font-family="Times,serif" font-size="14.00">User</text>
</g>
<!-- Employee&#45;&gt;User -->
<g id="edge18" class="edge"><title>Employee&#45;&gt;User</title>
<path fill="none" stroke="#0634a4" d="M689.293,-229.514C697.344,-217.151 707.172,-202.057 715.155,-189.798"/>
<ellipse fill="none" stroke="#0634a4" cx="686.98" cy="-233.066" rx="4.00002" ry="4.00002"/>
<ellipse fill="#0634a4" stroke="#0634a4" cx="717.432" cy="-186.301" rx="4.00002" ry="4.00002"/>
</g>
<!-- Employee&#45;&gt;DailyDataEmployee -->
<g id="edge19" class="edge"><title>Employee&#45;&gt;DailyDataEmployee</title>
<path fill="none" stroke="#f980e7" d="M725.336,-245.507C808.667,-233.251 978.511,-207.885 1122,-184 1129.41,-182.766 1137.14,-181.443 1144.85,-180.099"/>
<ellipse fill="none" stroke="#f980e7" cx="721.261" cy="-246.106" rx="4.00001" ry="4.00001"/>
<polygon fill="#f980e7" stroke="#f980e7" points="1145.1,-180.056 1155.73,-182.76 1150.02,-179.192 1154.95,-178.327 1154.95,-178.327 1154.95,-178.327 1150.02,-179.192 1154.17,-173.895 1145.1,-180.056 1145.1,-180.056"/>
</g>
<!-- EmployeePsa -->
<g id="node11" class="node"><title>EmployeePsa</title>
<ellipse fill="none" stroke="black" cx="391" cy="-92" rx="60.1672" ry="18"/>
<text text-anchor="middle" x="391" y="-88.3" font-family="Times,serif" font-size="14.00">EmployeePsa</text>
</g>
<!-- Employee&#45;&gt;EmployeePsa -->
<g id="edge20" class="edge"><title>Employee&#45;&gt;EmployeePsa</title>
<path fill="none" stroke="#8902e0" d="M632.232,-238.598C598.471,-226.194 550.273,-206.728 511,-184 476.587,-164.084 440.714,-135.719 417.26,-115.97"/>
<ellipse fill="none" stroke="#8902e0" cx="636.302" cy="-240.077" rx="4.00001" ry="4.00001"/>
<polygon fill="#8902e0" stroke="#8902e0" points="417.12,-115.851 412.42,-105.944 413.312,-112.611 409.504,-109.371 409.504,-109.371 409.504,-109.371 413.312,-112.611 406.588,-112.799 417.12,-115.851 417.12,-115.851"/>
</g>
<!-- Employee&#45;&gt;Psa -->
<g id="edge21" class="edge"><title>Employee&#45;&gt;Psa</title>
<path fill="none" stroke="#4d8a82" d="M620.546,-245.06C580.959,-238.791 525.824,-229.244 478,-218 428.494,-206.361 372.177,-189.101 337.36,-177.95"/>
<polygon fill="#4d8a82" stroke="#4d8a82" points="620.636,-245.074 629.82,-251.067 625.576,-245.847 630.516,-246.621 630.516,-246.621 630.516,-246.621 625.576,-245.847 631.212,-242.175 620.636,-245.074 620.636,-245.074"/>
<polygon fill="#4d8a82" stroke="#4d8a82" points="337.223,-177.906 329.086,-170.555 332.465,-176.372 327.706,-174.838 327.706,-174.838 327.706,-174.838 332.465,-176.372 326.325,-179.121 337.223,-177.906 337.223,-177.906"/>
</g>
<!-- EmployeeTerminal -->
<g id="node12" class="node"><title>EmployeeTerminal</title>
<ellipse fill="none" stroke="black" cx="664" cy="-92" rx="81.3646" ry="18"/>
<text text-anchor="middle" x="664" y="-88.3" font-family="Times,serif" font-size="14.00">EmployeeTerminal</text>
</g>
<!-- Employee&#45;&gt;EmployeeTerminal -->
<g id="edge22" class="edge"><title>Employee&#45;&gt;EmployeeTerminal</title>
<path fill="none" stroke="#688d80" d="M662.781,-228.28C661.636,-224.885 660.654,-221.398 660,-218 653.605,-184.793 656.472,-145.724 659.698,-120.217"/>
<ellipse fill="none" stroke="#688d80" cx="664.262" cy="-232.206" rx="4.00001" ry="4.00001"/>
<polygon fill="#688d80" stroke="#688d80" points="659.717,-120.079 665.535,-110.784 660.397,-115.126 661.077,-110.172 661.077,-110.172 661.077,-110.172 660.397,-115.126 656.619,-109.56 659.717,-120.079 659.717,-120.079"/>
</g>
<!-- Terminal -->
<g id="node22" class="node"><title>Terminal</title>
<ellipse fill="none" stroke="black" cx="564" cy="-166" rx="44.2946" ry="18"/>
<text text-anchor="middle" x="564" y="-162.3" font-family="Times,serif" font-size="14.00">Terminal</text>
</g>
<!-- Employee&#45;&gt;Terminal -->
<g id="edge23" class="edge"><title>Employee&#45;&gt;Terminal</title>
<path fill="none" stroke="#0fbd4c" d="M642.339,-232.638C635.514,-227.988 628.423,-222.953 622,-218 610.605,-209.214 598.572,-198.832 588.437,-189.736"/>
<polygon fill="#0fbd4c" stroke="#0fbd4c" points="642.463,-232.722 648.267,-242.026 646.618,-235.505 650.772,-238.287 650.772,-238.287 650.772,-238.287 646.618,-235.505 653.276,-234.549 642.463,-232.722 642.463,-232.722"/>
<polygon fill="#0fbd4c" stroke="#0fbd4c" points="588.17,-189.494 583.79,-179.44 584.468,-186.133 580.765,-182.772 580.765,-182.772 580.765,-182.772 584.468,-186.133 577.741,-186.104 588.17,-189.494 588.17,-189.494"/>
</g>
<!-- EmployeeManagerAssignment -->
<g id="node10" class="node"><title>EmployeeManagerAssignment</title>
<ellipse fill="none" stroke="black" cx="899" cy="-166" rx="123.234" ry="18"/>
<text text-anchor="middle" x="899" y="-162.3" font-family="Times,serif" font-size="14.00">EmployeeManagerAssignment</text>
</g>
<!-- Employee&#45;&gt;EmployeeManagerAssignment -->
<g id="edge24" class="edge"><title>Employee&#45;&gt;EmployeeManagerAssignment</title>
<path fill="none" stroke="#cfe613" d="M728.392,-249.974C781.803,-245.941 858.452,-236.972 881,-218 888.126,-212.004 892.432,-202.998 895.034,-194.215"/>
<ellipse fill="none" stroke="#cfe613" cx="724.351" cy="-250.268" rx="4" ry="4"/>
<polygon fill="#cfe613" stroke="#cfe613" points="895.098,-193.939 901.754,-185.223 896.235,-189.069 897.372,-184.2 897.372,-184.2 897.372,-184.2 896.235,-189.069 892.99,-183.177 895.098,-193.939 895.098,-193.939"/>
</g>
<!-- Employee&#45;&gt;Employee -->
<g id="edge25" class="edge"><title>Employee&#45;&gt;Employee</title>
<path fill="none" stroke="#2afc47" d="M726.173,-261.461C733.832,-260.286 739,-257.799 739,-254 739,-250.201 733.832,-247.714 726.173,-246.539"/>
<polygon fill="#2afc47" stroke="#2afc47" points="726.169,-261.461 715.85,-257.751 721.184,-261.849 716.199,-262.237 716.199,-262.237 716.199,-262.237 721.184,-261.849 716.548,-266.724 726.169,-261.461 726.169,-261.461"/>
<polygon fill="#2afc47" stroke="#2afc47" points="726.169,-246.539 716.548,-241.276 721.184,-246.151 716.199,-245.763 716.199,-245.763 716.199,-245.763 721.184,-246.151 715.85,-250.249 726.169,-246.539 726.169,-246.539"/>
<text text-anchor="middle" x="766" y="-250.3" font-family="Times,serif" font-size="14.00">managers</text>
</g>
<!-- Employee&#45;&gt;EmployeeManagerAssignment -->
<g id="edge26" class="edge"><title>Employee&#45;&gt;EmployeeManagerAssignment</title>
<path fill="none" stroke="#c21012" d="M697.581,-231.627C712.149,-218.6 728.834,-204.066 733,-202 752.679,-192.243 774.981,-185.2 796.706,-180.118"/>
<ellipse fill="none" stroke="#c21012" cx="694.487" cy="-234.405" rx="4.00002" ry="4.00002"/>
<polygon fill="#c21012" stroke="#c21012" points="796.873,-180.081 807.61,-182.312 801.755,-179 806.636,-177.919 806.636,-177.919 806.636,-177.919 801.755,-179 805.663,-173.525 796.873,-180.081 796.873,-180.081"/>
<text text-anchor="middle" x="805" y="-206.3" font-family="Times,serif" font-size="14.00">subordinate_relationships</text>
</g>
<!-- Employee&#45;&gt;Employee -->
<g id="edge27" class="edge"><title>Employee&#45;&gt;Employee</title>
<path fill="none" stroke="#408b3a" d="M726.173,-261.461C733.832,-260.286 739,-257.799 739,-254 739,-250.201 733.832,-247.714 726.173,-246.539"/>
<polygon fill="#408b3a" stroke="#408b3a" points="726.169,-261.461 715.85,-257.751 721.184,-261.849 716.199,-262.237 716.199,-262.237 716.199,-262.237 721.184,-261.849 716.548,-266.724 726.169,-261.461 726.169,-261.461"/>
<polygon fill="#408b3a" stroke="#408b3a" points="726.169,-246.539 716.548,-241.276 721.184,-246.151 716.199,-245.763 716.199,-245.763 716.199,-245.763 721.184,-246.151 715.85,-250.249 726.169,-246.539 726.169,-246.539"/>
<text text-anchor="middle" x="774.5" y="-250.3" font-family="Times,serif" font-size="14.00">subordinates</text>
</g>
<!-- FedexContract -->
<g id="node13" class="node"><title>FedexContract</title>
<ellipse fill="none" stroke="black" cx="1807" cy="-457" rx="64.0172" ry="18"/>
<text text-anchor="middle" x="1807" y="-453.3" font-family="Times,serif" font-size="14.00">FedexContract</text>
</g>
<!-- FedexContract&#45;&gt;Business -->
<g id="edge28" class="edge"><title>FedexContract&#45;&gt;Business</title>
<path fill="none" stroke="#450267" d="M1776.02,-436.011C1763.48,-428.97 1748.55,-421.855 1734,-418 1519.9,-361.263 959.319,-388.821 738,-380 609.724,-374.887 458.834,-368.525 381.113,-365.223"/>
<ellipse fill="none" stroke="#450267" cx="1779.65" cy="-438.115" rx="4.00002" ry="4.00002"/>
<polygon fill="#450267" stroke="#450267" points="381.087,-365.222 371.287,-360.301 376.092,-365.01 371.096,-364.797 371.096,-364.797 371.096,-364.797 376.092,-365.01 370.905,-369.293 381.087,-365.222 381.087,-365.222"/>
</g>
<!-- FedexContract&#45;&gt;Addendum -->
<g id="edge29" class="edge"><title>FedexContract&#45;&gt;Addendum</title>
<path fill="none" stroke="#0fcbe4" d="M1803.2,-430.58C1799.24,-404.154 1793.07,-362.955 1789.04,-335.969"/>
<ellipse fill="none" stroke="#0fcbe4" cx="1803.84" cy="-434.894" rx="4.00001" ry="4.00001"/>
<polygon fill="#0fcbe4" stroke="#0fcbe4" points="1789.03,-335.931 1792,-325.375 1788.29,-330.986 1787.55,-326.041 1787.55,-326.041 1787.55,-326.041 1788.29,-330.986 1783.1,-326.707 1789.03,-335.931 1789.03,-335.931"/>
</g>
<!-- FedexContract&#45;&gt;Note -->
<g id="edge30" class="edge"><title>FedexContract&#45;&gt;Note</title>
<path fill="none" stroke="#e96235" d="M1825.15,-432.572C1837.27,-414.573 1851,-388.545 1851,-363 1851,-363 1851,-363 1851,-91 1851,-32.0854 907.057,-20.9892 702.711,-19.2773"/>
<ellipse fill="none" stroke="#e96235" cx="1822.73" cy="-436.019" rx="4.00002" ry="4.00002"/>
<polygon fill="#e96235" stroke="#e96235" points="702.461,-19.2754 692.498,-14.6944 697.461,-19.2348 692.462,-19.1942 692.462,-19.1942 692.462,-19.1942 697.461,-19.2348 692.425,-23.6941 702.461,-19.2754 702.461,-19.2754"/>
</g>
<!-- Psa&#45;&gt;Note -->
<g id="edge31" class="edge"><title>Psa&#45;&gt;Note</title>
<path fill="none" stroke="#6f12ec" d="M301.763,-139.863C301.411,-119.243 304.581,-90.8057 322,-74 364.765,-32.7401 545.319,-22.4064 625.435,-19.8391"/>
<ellipse fill="none" stroke="#6f12ec" cx="301.922" cy="-143.892" rx="4" ry="4"/>
<polygon fill="#6f12ec" stroke="#6f12ec" points="625.601,-19.8342 635.73,-24.0362 630.599,-19.6862 635.597,-19.5381 635.597,-19.5381 635.597,-19.5381 630.599,-19.6862 635.464,-15.0401 625.601,-19.8342 625.601,-19.8342"/>
</g>
<!-- Psazip -->
<g id="node17" class="node"><title>Psazip</title>
<ellipse fill="none" stroke="black" cx="185" cy="-18" rx="34.1708" ry="18"/>
<text text-anchor="middle" x="185" y="-14.3" font-family="Times,serif" font-size="14.00">Psazip</text>
</g>
<!-- Psa&#45;&gt;Psazip -->
<g id="edge32" class="edge"><title>Psa&#45;&gt;Psazip</title>
<path fill="none" stroke="#45af43" d="M268.853,-164.772C229.19,-162.393 166.268,-151.757 136,-110 119.917,-87.8116 140.464,-59.7094 159.659,-40.6468"/>
<ellipse fill="none" stroke="#45af43" cx="272.948" cy="-164.969" rx="4" ry="4"/>
<polygon fill="#45af43" stroke="#45af43" points="159.877,-40.44 170.235,-36.8376 163.51,-37.0042 167.142,-33.5684 167.142,-33.5684 167.142,-33.5684 163.51,-37.0042 164.05,-30.2991 159.877,-40.44 159.877,-40.44"/>
</g>
<!-- Zip -->
<g id="node29" class="node"><title>Zip</title>
<ellipse fill="none" stroke="black" cx="248" cy="-92" rx="27" ry="18"/>
<text text-anchor="middle" x="248" y="-88.3" font-family="Times,serif" font-size="14.00">Zip</text>
</g>
<!-- Psa&#45;&gt;Zip -->
<g id="edge33" class="edge"><title>Psa&#45;&gt;Zip</title>
<path fill="none" stroke="#d994b5" d="M285.93,-141.768C279.59,-133.616 272.47,-124.461 266.125,-116.303"/>
<polygon fill="#d994b5" stroke="#d994b5" points="285.984,-141.837 288.572,-152.493 289.054,-145.784 292.124,-149.731 292.124,-149.731 292.124,-149.731 289.054,-145.784 295.676,-146.968 285.984,-141.837 285.984,-141.837"/>
<polygon fill="#d994b5" stroke="#d994b5" points="265.998,-116.141 263.411,-105.485 262.929,-112.194 259.859,-108.247 259.859,-108.247 259.859,-108.247 262.929,-112.194 256.307,-111.01 265.998,-116.141 265.998,-116.141"/>
</g>
<!-- PsaState -->
<g id="node16" class="node"><title>PsaState</title>
<ellipse fill="none" stroke="black" cx="41" cy="-18" rx="41.394" ry="18"/>
<text text-anchor="middle" x="41" y="-14.3" font-family="Times,serif" font-size="14.00">PsaState</text>
</g>
<!-- Psa&#45;&gt;PsaState -->
<g id="edge34" class="edge"><title>Psa&#45;&gt;PsaState</title>
<path fill="none" stroke="#abb81e" d="M269.071,-161.981C236.731,-158.073 188.043,-149.306 150,-130 110.401,-109.905 76.7066,-69.8366 57.6659,-43.7395"/>
<ellipse fill="none" stroke="#abb81e" cx="273.355" cy="-162.466" rx="4.00001" ry="4.00001"/>
<polygon fill="#abb81e" stroke="#abb81e" points="57.5816,-43.621 55.4493,-32.8644 54.6824,-39.5474 51.7831,-35.4737 51.7831,-35.4737 51.7831,-35.4737 54.6824,-39.5474 48.1168,-38.0831 57.5816,-43.621 57.5816,-43.621"/>
</g>
<!-- State -->
<g id="node21" class="node"><title>State</title>
<ellipse fill="none" stroke="black" cx="174" cy="-92" rx="28.3955" ry="18"/>
<text text-anchor="middle" x="174" y="-88.3" font-family="Times,serif" font-size="14.00">State</text>
</g>
<!-- Psa&#45;&gt;State -->
<g id="edge35" class="edge"><title>Psa&#45;&gt;State</title>
<path fill="none" stroke="#5c6940" d="M275.161,-149.028C253.919,-137.263 225.119,-121.312 203.681,-109.439"/>
<polygon fill="#5c6940" stroke="#5c6940" points="275.224,-149.063 281.792,-157.844 279.598,-151.485 283.972,-153.908 283.972,-153.908 283.972,-153.908 279.598,-151.485 286.153,-149.971 275.224,-149.063 275.224,-149.063"/>
<polygon fill="#5c6940" stroke="#5c6940" points="203.443,-109.307 196.876,-100.526 199.069,-106.885 194.695,-104.462 194.695,-104.462 194.695,-104.462 199.069,-106.885 192.515,-108.399 203.443,-109.307 203.443,-109.307"/>
</g>
<!-- Psa&#45;&gt;EmployeePsa -->
<g id="edge36" class="edge"><title>Psa&#45;&gt;EmployeePsa</title>
<path fill="none" stroke="#9b7fec" d="M326.83,-146.106C338.073,-136.801 351.716,-125.511 363.527,-115.736"/>
<ellipse fill="none" stroke="#9b7fec" cx="323.446" cy="-148.907" rx="4.00002" ry="4.00002"/>
<polygon fill="#9b7fec" stroke="#9b7fec" points="363.655,-115.631 374.228,-112.722 367.507,-112.443 371.359,-109.255 371.359,-109.255 371.359,-109.255 367.507,-112.443 368.489,-105.788 363.655,-115.631 363.655,-115.631"/>
</g>
<!-- Region -->
<g id="node18" class="node"><title>Region</title>
<ellipse fill="none" stroke="black" cx="467" cy="-254" rx="37.0701" ry="18"/>
<text text-anchor="middle" x="467" y="-250.3" font-family="Times,serif" font-size="14.00">Region</text>
</g>
<!-- Region&#45;&gt;Psa -->
<g id="edge37" class="edge"><title>Region&#45;&gt;Psa</title>
<path fill="none" stroke="#e0492c" d="M435.846,-236.563C406.443,-221.049 362.665,-197.952 333.735,-182.689"/>
<ellipse fill="none" stroke="#e0492c" cx="439.411" cy="-238.444" rx="4.00002" ry="4.00002"/>
<polygon fill="#e0492c" stroke="#e0492c" points="333.38,-182.501 326.636,-173.855 328.958,-180.168 324.536,-177.835 324.536,-177.835 324.536,-177.835 328.958,-180.168 322.436,-181.815 333.38,-182.501 333.38,-182.501"/>
</g>
<!-- Region&#45;&gt;Terminal -->
<g id="edge38" class="edge"><title>Region&#45;&gt;Terminal</title>
<path fill="none" stroke="#4841bf" d="M490.413,-232.242C504.981,-219.326 523.716,-202.716 538.636,-189.488"/>
<ellipse fill="none" stroke="#4841bf" cx="487.335" cy="-234.971" rx="4.00002" ry="4.00002"/>
<polygon fill="#4841bf" stroke="#4841bf" points="538.999,-189.166 549.467,-185.899 542.74,-185.849 546.481,-182.532 546.481,-182.532 546.481,-182.532 542.74,-185.849 543.496,-179.165 538.999,-189.166 538.999,-189.166"/>
</g>
<!-- Region&#45;&gt;Note -->
<g id="edge39" class="edge"><title>Region&#45;&gt;Note</title>
<path fill="none" stroke="#79d71c" d="M474.529,-228.173C486.858,-190.913 514.431,-120.006 558,-74 577.497,-53.4128 606.414,-39.1251 629.123,-30.2819"/>
<ellipse fill="none" stroke="#79d71c" cx="473.222" cy="-232.218" rx="4.00001" ry="4.00001"/>
<polygon fill="#79d71c" stroke="#79d71c" points="629.37,-30.1901 640.311,-30.9297 634.058,-28.4504 638.745,-26.7108 638.745,-26.7108 638.745,-26.7108 634.058,-28.4504 637.18,-22.4919 629.37,-30.1901 629.37,-30.1901"/>
</g>
<!-- Role -->
<g id="node19" class="node"><title>Role</title>
<ellipse fill="none" stroke="black" cx="1068" cy="-166" rx="27.4223" ry="18"/>
<text text-anchor="middle" x="1068" y="-162.3" font-family="Times,serif" font-size="14.00">Role</text>
</g>
<!-- UserRole -->
<g id="node24" class="node"><title>UserRole</title>
<ellipse fill="none" stroke="black" cx="902" cy="-92" rx="44.271" ry="18"/>
<text text-anchor="middle" x="902" y="-88.3" font-family="Times,serif" font-size="14.00">UserRole</text>
</g>
<!-- Role&#45;&gt;UserRole -->
<g id="edge40" class="edge"><title>Role&#45;&gt;UserRole</title>
<path fill="none" stroke="#ab2ec1" d="M1038.55,-151.379C1036,-150.227 1033.46,-149.088 1031,-148 1001,-134.714 966.828,-120.172 941.197,-109.38"/>
<ellipse fill="none" stroke="#ab2ec1" cx="1042.49" cy="-153.174" rx="4.00002" ry="4.00002"/>
<polygon fill="#ab2ec1" stroke="#ab2ec1" points="941.037,-109.313 933.562,-101.289 936.428,-107.375 931.818,-105.438 931.818,-105.438 931.818,-105.438 936.428,-107.375 930.075,-109.586 941.037,-109.313 941.037,-109.313"/>
</g>
<!-- Role&#45;&gt;Role -->
<g id="edge41" class="edge"><title>Role&#45;&gt;Role</title>
<path fill="none" stroke="#876618" d="M1104.12,-172.104C1109.42,-171.143 1113,-169.108 1113,-166 1113,-162.892 1109.42,-160.857 1104.12,-159.896"/>
<polygon fill="#876618" stroke="#876618" points="1103.88,-172.118 1093.63,-168.217 1098.89,-172.414 1093.9,-172.709 1093.9,-172.709 1093.9,-172.709 1098.89,-172.414 1094.16,-177.201 1103.88,-172.118 1103.88,-172.118"/>
<polygon fill="#876618" stroke="#876618" points="1103.88,-159.882 1094.16,-154.799 1098.89,-159.586 1093.9,-159.291 1093.9,-159.291 1093.9,-159.291 1098.89,-159.586 1093.63,-163.783 1103.88,-159.882 1103.88,-159.882"/>
</g>
<!-- ServiceType -->
<g id="node20" class="node"><title>ServiceType</title>
<ellipse fill="none" stroke="black" cx="804" cy="-362" rx="56.3173" ry="18"/>
<text text-anchor="middle" x="804" y="-358.3" font-family="Times,serif" font-size="14.00">ServiceType</text>
</g>
<!-- ServiceType&#45;&gt;Vehicle -->
<g id="edge42" class="edge"><title>ServiceType&#45;&gt;Vehicle</title>
<path fill="none" stroke="#50abc9" d="M868.021,-359.301C992.856,-355.601 1264.57,-345.532 1356,-326 1411.8,-314.08 1473.07,-288.809 1510.54,-271.861"/>
<ellipse fill="none" stroke="#50abc9" cx="864.013" cy="-359.419" rx="4" ry="4"/>
<polygon fill="#50abc9" stroke="#50abc9" points="1510.9,-271.695 1521.87,-271.624 1515.45,-269.614 1520,-267.532 1520,-267.532 1520,-267.532 1515.45,-269.614 1518.12,-263.441 1510.9,-271.695 1510.9,-271.695"/>
</g>
<!-- ServiceType&#45;&gt;Psa -->
<g id="edge43" class="edge"><title>ServiceType&#45;&gt;Psa</title>
<path fill="none" stroke="#e7b49c" d="M739.807,-359.304C628.032,-355.829 406.772,-346.439 378,-326 328.85,-291.085 349.625,-256.091 323,-202 321.426,-198.801 319.715,-195.471 317.986,-192.193"/>
<ellipse fill="none" stroke="#e7b49c" cx="743.99" cy="-359.432" rx="4" ry="4"/>
<polygon fill="#e7b49c" stroke="#e7b49c" points="317.906,-192.045 317.128,-181.107 315.536,-187.643 313.166,-183.24 313.166,-183.24 313.166,-183.24 315.536,-187.643 309.204,-185.373 317.906,-192.045 317.906,-192.045"/>
</g>
<!-- State&#45;&gt;PsaState -->
<g id="edge44" class="edge"><title>State&#45;&gt;PsaState</title>
<path fill="none" stroke="#9b0b17" d="M145.929,-75.8039C125.284,-64.6273 97.1145,-49.3778 75.1608,-37.4931"/>
<ellipse fill="none" stroke="#9b0b17" cx="149.701" cy="-77.8457" rx="4.00002" ry="4.00002"/>
<polygon fill="#9b0b17" stroke="#9b0b17" points="74.9667,-37.388 68.315,-28.67 70.5697,-35.0077 66.1726,-32.6273 66.1726,-32.6273 66.1726,-32.6273 70.5697,-35.0077 64.0303,-36.5846 74.9667,-37.388 74.9667,-37.388"/>
</g>
<!-- State&#45;&gt;Note -->
<g id="edge45" class="edge"><title>State&#45;&gt;Note</title>
<path fill="none" stroke="#4e667d" d="M203.406,-77.3531C206.288,-76.1643 209.186,-75.0255 212,-74 242.4,-62.9209 250.195,-59.9465 282,-54 406.222,-30.7746 556.174,-22.7501 625.458,-20.1523"/>
<ellipse fill="none" stroke="#4e667d" cx="199.562" cy="-78.9984" rx="4.00002" ry="4.00002"/>
<polygon fill="#4e667d" stroke="#4e667d" points="625.483,-20.1516 635.637,-24.291 630.479,-19.9727 635.476,-19.7939 635.476,-19.7939 635.476,-19.7939 630.479,-19.9727 635.315,-15.2967 625.483,-20.1516 625.483,-20.1516"/>
</g>
<!-- Terminal&#45;&gt;Note -->
<g id="edge46" class="edge"><title>Terminal&#45;&gt;Note</title>
<path fill="none" stroke="#2f87e5" d="M561.051,-139.673C560.067,-120.238 561.604,-93.5172 574,-74 586.908,-53.6758 610.299,-39.7203 629.998,-30.9528"/>
<ellipse fill="none" stroke="#2f87e5" cx="561.342" cy="-143.786" rx="4" ry="4"/>
<polygon fill="#2f87e5" stroke="#2f87e5" points="630.084,-30.917 641.046,-31.2123 634.697,-28.9887 639.311,-27.0604 639.311,-27.0604 639.311,-27.0604 634.697,-28.9887 637.575,-22.9085 630.084,-30.917 630.084,-30.917"/>
</g>
<!-- Terminal&#45;&gt;EmployeeTerminal -->
<g id="edge47" class="edge"><title>Terminal&#45;&gt;EmployeeTerminal</title>
<path fill="none" stroke="#db656b" d="M591.602,-145.127C604.402,-135.911 619.671,-124.917 632.879,-115.407"/>
<ellipse fill="none" stroke="#db656b" cx="587.966" cy="-147.744" rx="4.00002" ry="4.00002"/>
<polygon fill="#db656b" stroke="#db656b" points="633.099,-115.249 643.844,-113.057 637.157,-112.327 641.215,-109.405 641.215,-109.405 641.215,-109.405 637.157,-112.327 638.585,-105.754 633.099,-115.249 633.099,-115.249"/>
</g>
<!-- User&#45;&gt;UserRole -->
<g id="edge48" class="edge"><title>User&#45;&gt;UserRole</title>
<path fill="none" stroke="#f451f7" d="M759.434,-151.335C761.987,-150.193 764.535,-149.068 767,-148 798.645,-134.292 834.851,-119.594 861.796,-108.844"/>
<ellipse fill="none" stroke="#f451f7" cx="755.485" cy="-153.123" rx="4.00002" ry="4.00002"/>
<polygon fill="#f451f7" stroke="#f451f7" points="861.988,-108.768 872.943,-109.252 866.633,-106.919 871.279,-105.071 871.279,-105.071 871.279,-105.071 866.633,-106.919 869.616,-100.89 861.988,-108.768 861.988,-108.768"/>
</g>
<!-- Vehicle&#45;&gt;Note -->
<g id="edge49" class="edge"><title>Vehicle&#45;&gt;Note</title>
<path fill="none" stroke="#b84bc9" d="M1589.91,-245.717C1658.67,-232.506 1779.45,-200.948 1734,-148 1665.21,-67.8739 885.655,-28.7483 702.401,-20.6213"/>
<ellipse fill="none" stroke="#b84bc9" cx="1585.73" cy="-246.501" rx="4.00001" ry="4.00001"/>
<polygon fill="#b84bc9" stroke="#b84bc9" points="702.16,-20.6108 692.367,-15.6768 697.165,-20.3916 692.17,-20.1724 692.17,-20.1724 692.17,-20.1724 697.165,-20.3916 691.973,-24.6681 702.16,-20.6108 702.16,-20.6108"/>
</g>
<!-- Vehicle&#45;&gt;DailyDataVehicle -->
<g id="edge50" class="edge"><title>Vehicle&#45;&gt;DailyDataVehicle</title>
<path fill="none" stroke="#1ac47f" d="M1570.25,-232.754C1585.53,-219.992 1605.32,-203.473 1621.23,-190.186"/>
<ellipse fill="none" stroke="#1ac47f" cx="1567.01" cy="-235.456" rx="4.00002" ry="4.00002"/>
<polygon fill="#1ac47f" stroke="#1ac47f" points="1621.48,-189.978 1632.04,-187.023 1625.32,-186.774 1629.16,-183.569 1629.16,-183.569 1629.16,-183.569 1625.32,-186.774 1626.27,-180.115 1621.48,-189.978 1621.48,-189.978"/>
</g>
<!-- VehicleFuel -->
<g id="node26" class="node"><title>VehicleFuel</title>
<ellipse fill="none" stroke="black" cx="1555" cy="-362" rx="55.3682" ry="18"/>
<text text-anchor="middle" x="1555" y="-358.3" font-family="Times,serif" font-size="14.00">VehicleFuel</text>
</g>
<!-- VehicleFuel&#45;&gt;Vehicle -->
<g id="edge51" class="edge"><title>VehicleFuel&#45;&gt;Vehicle</title>
<path fill="none" stroke="#12ef2f" d="M1552.86,-335.743C1551.48,-319.577 1549.7,-298.617 1548.3,-282.103"/>
<ellipse fill="none" stroke="#12ef2f" cx="1553.22" cy="-339.984" rx="4" ry="4"/>
<polygon fill="#12ef2f" stroke="#12ef2f" points="1548.29,-281.953 1551.93,-271.608 1547.87,-276.971 1547.44,-271.988 1547.44,-271.988 1547.44,-271.988 1547.87,-276.971 1542.96,-272.369 1548.29,-281.953 1548.29,-281.953"/>
</g>
<!-- VehicleOdometer -->
<g id="node27" class="node"><title>VehicleOdometer</title>
<ellipse fill="none" stroke="black" cx="1704" cy="-362" rx="75.0904" ry="18"/>
<text text-anchor="middle" x="1704" y="-358.3" font-family="Times,serif" font-size="14.00">VehicleOdometer</text>
</g>
<!-- VehicleOdometer&#45;&gt;Vehicle -->
<g id="edge52" class="edge"><title>VehicleOdometer&#45;&gt;Vehicle</title>
<path fill="none" stroke="#e611e4" d="M1673.21,-340.343C1645.02,-321.428 1603.56,-293.615 1575.71,-274.932"/>
<ellipse fill="none" stroke="#e611e4" cx="1676.68" cy="-342.672" rx="4.00002" ry="4.00002"/>
<polygon fill="#e611e4" stroke="#e611e4" points="1575.48,-274.781 1569.69,-265.473 1571.33,-271.995 1567.18,-269.21 1567.18,-269.21 1567.18,-269.21 1571.33,-271.995 1564.67,-272.947 1575.48,-274.781 1575.48,-274.781"/>
</g>
<!-- VehicleType -->
<g id="node28" class="node"><title>VehicleType</title>
<ellipse fill="none" stroke="black" cx="1424" cy="-362" rx="57.2688" ry="18"/>
<text text-anchor="middle" x="1424" y="-358.3" font-family="Times,serif" font-size="14.00">VehicleType</text>
</g>
<!-- VehicleType&#45;&gt;Vehicle -->
<g id="edge53" class="edge"><title>VehicleType&#45;&gt;Vehicle</title>
<path fill="none" stroke="#5f1c6b" d="M1472.38,-346.056C1483.93,-340.952 1495.61,-334.357 1505,-326 1518.69,-313.809 1528.98,-295.915 1535.83,-281.141"/>
<ellipse fill="none" stroke="#5f1c6b" cx="1468.52" cy="-347.66" rx="4.00002" ry="4.00002"/>
<polygon fill="#5f1c6b" stroke="#5f1c6b" points="1535.83,-281.138 1543.96,-273.776 1537.83,-276.557 1539.84,-271.975 1539.84,-271.975 1539.84,-271.975 1537.83,-276.557 1535.71,-270.173 1535.83,-281.138 1535.83,-281.138"/>
</g>
<!-- Zip&#45;&gt;Psazip -->
<g id="edge54" class="edge"><title>Zip&#45;&gt;Psazip</title>
<path fill="none" stroke="#217afd" d="M229.421,-69.767C221.882,-61.1506 213.148,-51.1689 205.43,-42.3482"/>
<ellipse fill="none" stroke="#217afd" cx="232.312" cy="-73.0712" rx="4.00002" ry="4.00002"/>
<polygon fill="#217afd" stroke="#217afd" points="205.276,-42.1723 202.077,-31.6832 201.983,-38.4094 198.691,-34.6465 198.691,-34.6465 198.691,-34.6465 201.983,-38.4094 195.304,-37.6098 205.276,-42.1723 205.276,-42.1723"/>
</g>
<!-- Zip&#45;&gt;Note -->
<g id="edge55" class="edge"><title>Zip&#45;&gt;Note</title>
<path fill="none" stroke="#176d5d" d="M266.055,-70.1334C272.622,-63.8873 280.531,-57.7175 289,-54 348.643,-27.8209 542.573,-21.1911 625.653,-19.538"/>
<ellipse fill="none" stroke="#176d5d" cx="263.237" cy="-72.9801" rx="4.00002" ry="4.00002"/>
<polygon fill="#176d5d" stroke="#176d5d" points="625.687,-19.5375 635.769,-23.8513 630.686,-19.4448 635.686,-19.3521 635.686,-19.3521 635.686,-19.3521 630.686,-19.4448 635.602,-14.8528 625.687,-19.5375 625.687,-19.5375"/>
</g>
</g>
</svg>
