<?xml version="1.0" encoding="UTF-8" standalone="no"?>
<!DOCTYPE svg PUBLIC "-//W3C//DTD SVG 1.1//EN"
 "http://www.w3.org/Graphics/SVG/1.1/DTD/svg11.dtd">
<!-- Generated by graphviz version 2.29.20121209.0545 (20121209.0545)
 -->
<!-- Title: models_diagram Pages: 1 -->
<svg width="1777pt" height="446pt"
 viewBox="0.00 0.00 1777.00 446.00" xmlns="http://www.w3.org/2000/svg" xmlns:xlink="http://www.w3.org/1999/xlink">
<g id="graph0" class="graph" transform="scale(1 1) rotate(0) translate(4 442)">
<title>models_diagram</title>
<polygon fill="white" stroke="white" points="-4,5 -4,-442 1774,-442 1774,5 -4,5"/>
<!-- _diagram_info -->
<g id="node1" class="node"><title>_diagram_info</title>
<text text-anchor="start" x="8" y="-423.6" font-family="Times,serif" font-size="13.00">Models diagram</text>
<text text-anchor="start" x="8" y="-409.6" font-family="Times,serif" font-size="13.00">Date: Dec 14 2012 &#45; 13:59</text>
<text text-anchor="start" x="8" y="-395.6" font-family="Times,serif" font-size="13.00">Migration version: 20121214184600</text>
<text text-anchor="start" x="8" y="-381.6" font-family="Times,serif" font-size="13.00">Generated by RailRoady 1.1.0</text>
<text text-anchor="start" x="8" y="-367.6" font-family="Times,serif" font-size="13.00">http://railroady.prestonlee.com</text>
</g>
<!-- Addendum -->
<g id="node2" class="node"><title>Addendum</title>
<ellipse fill="none" stroke="black" cx="357" cy="-234" rx="51.0191" ry="18"/>
<text text-anchor="middle" x="357" y="-230.3" font-family="Times,serif" font-size="14.00">Addendum</text>
</g>
<!-- Note -->
<g id="node12" class="node"><title>Note</title>
<ellipse fill="none" stroke="black" cx="997" cy="-18" rx="28.3955" ry="18"/>
<text text-anchor="middle" x="997" y="-14.3" font-family="Times,serif" font-size="14.00">Note</text>
</g>
<!-- Addendum&#45;&gt;Note -->
<g id="edge1" class="edge"><title>Addendum&#45;&gt;Note</title>
<path fill="none" stroke="#9d7a33" d="M373.718,-209.573C401.23,-173.081 459.845,-103.58 528,-72 604.487,-36.5591 860.985,-23.8511 958.728,-20.2279"/>
<ellipse fill="none" stroke="#9d7a33" cx="371.023" cy="-213.2" rx="4.00002" ry="4.00002"/>
<polygon fill="#9d7a33" stroke="#9d7a33" points="958.77,-20.2264 968.926,-24.3644 963.767,-20.0469 968.764,-19.8673 968.764,-19.8673 968.764,-19.8673 963.767,-20.0469 968.602,-15.3702 958.77,-20.2264 958.77,-20.2264"/>
</g>
<!-- Business -->
<g id="node3" class="node"><title>Business</title>
<ellipse fill="none" stroke="black" cx="1363" cy="-306" rx="42.3456" ry="18"/>
<text text-anchor="middle" x="1363" y="-302.3" font-family="Times,serif" font-size="14.00">Business</text>
</g>
<!-- Business&#45;&gt;Note -->
<g id="edge2" class="edge"><title>Business&#45;&gt;Note</title>
<path fill="none" stroke="#c32163" d="M1392.12,-285.365C1402.66,-276.537 1413.35,-265.135 1419,-252 1425.33,-237.304 1422.32,-231.651 1419,-216 1411.19,-179.201 1362.47,-91.0011 1330,-72 1280.48,-43.0184 1111.54,-27.3446 1035.11,-21.5915"/>
<ellipse fill="none" stroke="#c32163" cx="1388.76" cy="-288.034" rx="4.00002" ry="4.00002"/>
<polygon fill="#c32163" stroke="#c32163" points="1034.93,-21.5787 1025.29,-16.3573 1029.95,-21.2119 1024.96,-20.8452 1024.96,-20.8452 1024.96,-20.8452 1029.95,-21.2119 1024.63,-25.3331 1034.93,-21.5787 1034.93,-21.5787"/>
</g>
<!-- Psa -->
<g id="node13" class="node"><title>Psa</title>
<ellipse fill="none" stroke="black" cx="1530" cy="-162" rx="27" ry="18"/>
<text text-anchor="middle" x="1530" y="-158.3" font-family="Times,serif" font-size="14.00">Psa</text>
</g>
<!-- Business&#45;&gt;Psa -->
<g id="edge3" class="edge"><title>Business&#45;&gt;Psa</title>
<path fill="none" stroke="#0c81f9" d="M1405.82,-293.228C1430.1,-284.856 1459.77,-271.574 1481,-252 1499.66,-234.793 1512.83,-208.806 1520.78,-189.348"/>
<ellipse fill="none" stroke="#0c81f9" cx="1401.94" cy="-294.516" rx="4.00001" ry="4.00001"/>
<polygon fill="#0c81f9" stroke="#0c81f9" points="1520.85,-189.173 1528.66,-181.477 1522.65,-184.511 1524.46,-179.849 1524.46,-179.849 1524.46,-179.849 1522.65,-184.511 1520.27,-178.222 1520.85,-189.173 1520.85,-189.173"/>
</g>
<!-- Employee -->
<g id="node9" class="node"><title>Employee</title>
<ellipse fill="none" stroke="black" cx="1363" cy="-234" rx="47.169" ry="18"/>
<text text-anchor="middle" x="1363" y="-230.3" font-family="Times,serif" font-size="14.00">Employee</text>
</g>
<!-- Business&#45;&gt;Employee -->
<g id="edge4" class="edge"><title>Business&#45;&gt;Employee</title>
<path fill="none" stroke="#207ee3" d="M1363,-279.64C1363,-274.063 1363,-268.132 1363,-262.476"/>
<ellipse fill="none" stroke="#207ee3" cx="1363" cy="-283.697" rx="4" ry="4"/>
<polygon fill="#207ee3" stroke="#207ee3" points="1363,-262.104 1367.5,-252.104 1363,-257.104 1363,-252.104 1363,-252.104 1363,-252.104 1363,-257.104 1358.5,-252.104 1363,-262.104 1363,-262.104"/>
</g>
<!-- Vehicle -->
<g id="node23" class="node"><title>Vehicle</title>
<ellipse fill="none" stroke="black" cx="604" cy="-234" rx="38.4949" ry="18"/>
<text text-anchor="middle" x="604" y="-230.3" font-family="Times,serif" font-size="14.00">Vehicle</text>
</g>
<!-- Business&#45;&gt;Vehicle -->
<g id="edge5" class="edge"><title>Business&#45;&gt;Vehicle</title>
<path fill="none" stroke="#876558" d="M1312.57,-303.04C1200.3,-298.236 921.357,-283.866 690,-252 676.303,-250.113 661.498,-247.425 648.095,-244.742"/>
<ellipse fill="none" stroke="#876558" cx="1316.69" cy="-303.214" rx="4" ry="4"/>
<polygon fill="#876558" stroke="#876558" points="647.958,-244.713 639.066,-238.296 643.06,-243.709 638.162,-242.704 638.162,-242.704 638.162,-242.704 643.06,-243.709 637.257,-247.112 647.958,-244.713 647.958,-244.713"/>
</g>
<!-- DailyDataDeliveryException -->
<g id="node4" class="node"><title>DailyDataDeliveryException</title>
<ellipse fill="none" stroke="black" cx="606" cy="-162" rx="116.484" ry="18"/>
<text text-anchor="middle" x="606" y="-158.3" font-family="Times,serif" font-size="14.00">DailyDataDeliveryException</text>
</g>
<!-- DailyDataDeliveryException&#45;&gt;Note -->
<g id="edge6" class="edge"><title>DailyDataDeliveryException&#45;&gt;Note</title>
<path fill="none" stroke="#080ba2" d="M657.067,-142.454C738.246,-112.972 894.557,-56.2044 963.234,-31.2627"/>
<ellipse fill="none" stroke="#080ba2" cx="653.098" cy="-143.896" rx="4.00001" ry="4.00001"/>
<polygon fill="#080ba2" stroke="#080ba2" points="963.313,-31.2343 974.248,-32.0504 968.012,-29.5275 972.712,-27.8207 972.712,-27.8207 972.712,-27.8207 968.012,-29.5275 971.176,-23.591 963.313,-31.2343 963.313,-31.2343"/>
</g>
<!-- DailyDataEmployee -->
<g id="node5" class="node"><title>DailyDataEmployee</title>
<ellipse fill="none" stroke="black" cx="1112" cy="-162" rx="85.2138" ry="18"/>
<text text-anchor="middle" x="1112" y="-158.3" font-family="Times,serif" font-size="14.00">DailyDataEmployee</text>
</g>
<!-- DailyDataEmployee&#45;&gt;Note -->
<g id="edge7" class="edge"><title>DailyDataEmployee&#45;&gt;Note</title>
<path fill="none" stroke="#d058fe" d="M1109.66,-135.909C1106.78,-116.726 1100.34,-90.5143 1086,-72 1071.78,-53.6332 1049.25,-40.3074 1030.41,-31.6117"/>
<ellipse fill="none" stroke="#d058fe" cx="1110.2" cy="-139.95" rx="4.00001" ry="4.00001"/>
<polygon fill="#d058fe" stroke="#d058fe" points="1030.4,-31.6077 1023.05,-23.4762 1025.82,-29.6033 1021.24,-27.5988 1021.24,-27.5988 1021.24,-27.5988 1025.82,-29.6033 1019.44,-31.7214 1030.4,-31.6077 1030.4,-31.6077"/>
</g>
<!-- DailyDataVehicle -->
<g id="node6" class="node"><title>DailyDataVehicle</title>
<ellipse fill="none" stroke="black" cx="818" cy="-162" rx="76.5394" ry="18"/>
<text text-anchor="middle" x="818" y="-158.3" font-family="Times,serif" font-size="14.00">DailyDataVehicle</text>
</g>
<!-- DailyDataVehicle&#45;&gt;Note -->
<g id="edge8" class="edge"><title>DailyDataVehicle&#45;&gt;Note</title>
<path fill="none" stroke="#11f2fd" d="M838.701,-137.962C856.348,-119.037 882.927,-92.1598 909,-72 926.976,-58.101 948.856,-44.9092 966.301,-35.1632"/>
<ellipse fill="none" stroke="#11f2fd" cx="835.788" cy="-141.116" rx="4.00002" ry="4.00002"/>
<polygon fill="#11f2fd" stroke="#11f2fd" points="966.718,-34.934 977.65,-34.0651 971.101,-32.5274 975.484,-30.1207 975.484,-30.1207 975.484,-30.1207 971.101,-32.5274 973.318,-26.1762 966.718,-34.934 966.718,-34.934"/>
</g>
<!-- DailyDatum -->
<g id="node7" class="node"><title>DailyDatum</title>
<ellipse fill="none" stroke="black" cx="937" cy="-306" rx="55.3436" ry="18"/>
<text text-anchor="middle" x="937" y="-302.3" font-family="Times,serif" font-size="14.00">DailyDatum</text>
</g>
<!-- DailyDatum&#45;&gt;Note -->
<g id="edge9" class="edge"><title>DailyDatum&#45;&gt;Note</title>
<path fill="none" stroke="#c560b7" d="M938.626,-280.005C941.928,-236.81 951.055,-145.742 973,-72 975.763,-62.7151 979.824,-52.9485 983.823,-44.3643"/>
<ellipse fill="none" stroke="#c560b7" cx="938.334" cy="-283.996" rx="4" ry="4"/>
<polygon fill="#c560b7" stroke="#c560b7" points="983.874,-44.2603 992.288,-37.2279 986.056,-39.7619 988.239,-35.2635 988.239,-35.2635 988.239,-35.2635 986.056,-39.7619 984.191,-33.299 983.874,-44.2603 983.874,-44.2603"/>
</g>
<!-- DailyDatum&#45;&gt;DailyDataVehicle -->
<g id="edge10" class="edge"><title>DailyDatum&#45;&gt;DailyDataVehicle</title>
<path fill="none" stroke="#7e4b55" d="M919.311,-282.026C905.175,-263.863 884.701,-237.995 866,-216 857.915,-206.491 848.776,-196.275 840.659,-187.375"/>
<ellipse fill="none" stroke="#7e4b55" cx="921.765" cy="-285.187" rx="4.00002" ry="4.00002"/>
<polygon fill="#7e4b55" stroke="#7e4b55" points="840.601,-187.312 837.156,-176.902 837.22,-183.628 833.84,-179.944 833.84,-179.944 833.84,-179.944 837.22,-183.628 830.524,-182.986 840.601,-187.312 840.601,-187.312"/>
</g>
<!-- DailyDatum&#45;&gt;Vehicle -->
<g id="edge11" class="edge"><title>DailyDatum&#45;&gt;Vehicle</title>
<path fill="none" stroke="#0d2c5b" d="M886.173,-291.444C881.061,-290.221 875.937,-289.049 871,-288 776.659,-267.953 750.717,-274.788 657,-252 652.657,-250.944 648.154,-249.715 643.69,-248.409"/>
<polygon fill="#0d2c5b" stroke="#0d2c5b" points="886.225,-291.457 894.862,-298.214 891.081,-292.651 895.936,-293.844 895.936,-293.844 895.936,-293.844 891.081,-292.651 897.01,-289.475 886.225,-291.457 886.225,-291.457"/>
<polygon fill="#0d2c5b" stroke="#0d2c5b" points="643.62,-248.388 635.371,-241.163 638.838,-246.928 634.056,-245.467 634.056,-245.467 634.056,-245.467 638.838,-246.928 632.742,-249.771 643.62,-248.388 643.62,-248.388"/>
</g>
<!-- DailyDatum&#45;&gt;DailyDataEmployee -->
<g id="edge12" class="edge"><title>DailyDatum&#45;&gt;DailyDataEmployee</title>
<path fill="none" stroke="#64abec" d="M980.517,-289.193C1001.39,-280.287 1025.93,-267.764 1045,-252 1066.62,-234.127 1085.25,-207.94 1097.33,-188.596"/>
<ellipse fill="none" stroke="#64abec" cx="976.705" cy="-290.776" rx="4.00002" ry="4.00002"/>
<polygon fill="#64abec" stroke="#64abec" points="1097.38,-188.526 1106.41,-182.318 1099.97,-184.253 1102.57,-179.98 1102.57,-179.98 1102.57,-179.98 1099.97,-184.253 1098.72,-177.643 1097.38,-188.526 1097.38,-188.526"/>
</g>
<!-- DailyDatum&#45;&gt;Employee -->
<g id="edge13" class="edge"><title>DailyDatum&#45;&gt;Employee</title>
<path fill="none" stroke="#14fe0e" d="M995.429,-295.399C1078.71,-281.714 1230.31,-256.804 1310.31,-243.658"/>
<polygon fill="#14fe0e" stroke="#14fe0e" points="995.321,-295.417 984.723,-292.598 990.387,-296.227 985.453,-297.038 985.453,-297.038 985.453,-297.038 990.387,-296.227 986.183,-301.479 995.321,-295.417 995.321,-295.417"/>
<polygon fill="#14fe0e" stroke="#14fe0e" points="1310.78,-243.582 1321.37,-246.4 1315.71,-242.771 1320.64,-241.96 1320.64,-241.96 1320.64,-241.96 1315.71,-242.771 1319.91,-237.52 1310.78,-243.582 1310.78,-243.582"/>
</g>
<!-- DailyDatum&#45;&gt;DailyDataDeliveryException -->
<g id="edge14" class="edge"><title>DailyDatum&#45;&gt;DailyDataDeliveryException</title>
<path fill="none" stroke="#708d2b" d="M887.469,-291.924C881.924,-290.555 876.348,-289.22 871,-288 791.033,-269.764 761.77,-291.704 690,-252 675.199,-243.812 646.314,-211.379 626.59,-188.029"/>
<ellipse fill="none" stroke="#708d2b" cx="891.661" cy="-292.974" rx="4.00001" ry="4.00001"/>
<polygon fill="#708d2b" stroke="#708d2b" points="626.456,-187.868 623.484,-177.313 623.245,-184.035 620.034,-180.203 620.034,-180.203 620.034,-180.203 623.245,-184.035 616.585,-183.092 626.456,-187.868 626.456,-187.868"/>
</g>
<!-- DeliveryException -->
<g id="node8" class="node"><title>DeliveryException</title>
<ellipse fill="none" stroke="black" cx="778" cy="-234" rx="78.9404" ry="18"/>
<text text-anchor="middle" x="778" y="-230.3" font-family="Times,serif" font-size="14.00">DeliveryException</text>
</g>
<!-- DailyDatum&#45;&gt;DeliveryException -->
<g id="edge15" class="edge"><title>DailyDatum&#45;&gt;DeliveryException</title>
<path fill="none" stroke="#f9df97" d="M896.053,-286.973C873.376,-276.99 845.178,-264.575 822.028,-254.383"/>
<polygon fill="#f9df97" stroke="#f9df97" points="896.054,-286.973 903.393,-295.121 900.63,-288.988 905.206,-291.003 905.206,-291.003 905.206,-291.003 900.63,-288.988 907.019,-286.884 896.054,-286.973 896.054,-286.973"/>
<polygon fill="#f9df97" stroke="#f9df97" points="821.927,-254.339 814.587,-246.191 817.35,-252.324 812.774,-250.309 812.774,-250.309 812.774,-250.309 817.35,-252.324 810.961,-254.428 821.927,-254.339 821.927,-254.339"/>
</g>
<!-- DeliveryException&#45;&gt;DailyDataDeliveryException -->
<g id="edge16" class="edge"><title>DeliveryException&#45;&gt;DailyDataDeliveryException</title>
<path fill="none" stroke="#d57cb1" d="M733.601,-214.931C709.471,-205.11 679.585,-192.947 654.803,-182.862"/>
<ellipse fill="none" stroke="#d57cb1" cx="737.397" cy="-216.475" rx="4.00001" ry="4.00001"/>
<polygon fill="#d57cb1" stroke="#d57cb1" points="654.492,-182.735 646.926,-174.797 649.861,-180.85 645.23,-178.966 645.23,-178.966 645.23,-178.966 649.861,-180.85 643.533,-183.134 654.492,-182.735 654.492,-182.735"/>
</g>
<!-- Employee&#45;&gt;Note -->
<g id="edge17" class="edge"><title>Employee&#45;&gt;Note</title>
<path fill="none" stroke="#3f933e" d="M1371.46,-207.913C1376.22,-189.51 1379.65,-164.297 1371,-144 1366.47,-133.373 1306.3,-77.2339 1296,-72 1210.21,-28.399 1094.74,-20.03 1035.54,-18.8172"/>
<ellipse fill="none" stroke="#3f933e" cx="1370.31" cy="-211.997" rx="4.00001" ry="4.00001"/>
<polygon fill="#3f933e" stroke="#3f933e" points="1035.5,-18.8167 1025.57,-14.1705 1030.5,-18.7434 1025.5,-18.6701 1025.5,-18.6701 1025.5,-18.6701 1030.5,-18.7434 1025.44,-23.1696 1035.5,-18.8167 1035.5,-18.8167"/>
</g>
<!-- User -->
<g id="node21" class="node"><title>User</title>
<ellipse fill="none" stroke="black" cx="1335" cy="-162" rx="27.4223" ry="18"/>
<text text-anchor="middle" x="1335" y="-158.3" font-family="Times,serif" font-size="14.00">User</text>
</g>
<!-- Employee&#45;&gt;User -->
<g id="edge18" class="edge"><title>Employee&#45;&gt;User</title>
<path fill="none" stroke="#e9b2b9" d="M1353.17,-208.431C1350.45,-201.622 1347.49,-194.234 1344.77,-187.433"/>
<ellipse fill="none" stroke="#e9b2b9" cx="1354.74" cy="-212.341" rx="4.00001" ry="4.00001"/>
<ellipse fill="#e9b2b9" stroke="#e9b2b9" cx="1343.2" cy="-183.503" rx="4.00001" ry="4.00001"/>
</g>
<!-- Employee&#45;&gt;DailyDataEmployee -->
<g id="edge19" class="edge"><title>Employee&#45;&gt;DailyDataEmployee</title>
<path fill="none" stroke="#6bcde0" d="M1318.01,-220.452C1277,-209.015 1216.14,-192.043 1171.2,-179.51"/>
<ellipse fill="none" stroke="#6bcde0" cx="1322.11" cy="-221.597" rx="4.00001" ry="4.00001"/>
<polygon fill="#6bcde0" stroke="#6bcde0" points="1170.92,-179.433 1162.5,-172.412 1166.11,-178.089 1161.29,-176.746 1161.29,-176.746 1161.29,-176.746 1166.11,-178.089 1160.08,-181.081 1170.92,-179.433 1170.92,-179.433"/>
</g>
<!-- EmployeePsa -->
<g id="node10" class="node"><title>EmployeePsa</title>
<ellipse fill="none" stroke="black" cx="1442" cy="-90" rx="60.1672" ry="18"/>
<text text-anchor="middle" x="1442" y="-86.3" font-family="Times,serif" font-size="14.00">EmployeePsa</text>
</g>
<!-- Employee&#45;&gt;EmployeePsa -->
<g id="edge20" class="edge"><title>Employee&#45;&gt;EmployeePsa</title>
<path fill="none" stroke="#3645e6" d="M1383.16,-210.421C1390.62,-201.368 1398.77,-190.584 1405,-180 1416.69,-160.138 1426.51,-135.886 1433.09,-117.717"/>
<ellipse fill="none" stroke="#3645e6" cx="1380.46" cy="-213.621" rx="4.00002" ry="4.00002"/>
<polygon fill="#3645e6" stroke="#3645e6" points="1433.17,-117.491 1440.74,-109.553 1434.83,-112.775 1436.49,-108.059 1436.49,-108.059 1436.49,-108.059 1434.83,-112.775 1432.25,-106.564 1433.17,-117.491 1433.17,-117.491"/>
</g>
<!-- Employee&#45;&gt;Psa -->
<g id="edge21" class="edge"><title>Employee&#45;&gt;Psa</title>
<path fill="none" stroke="#4480c7" d="M1402.96,-216.249C1432.22,-203.986 1471.37,-187.573 1498.45,-176.226"/>
<polygon fill="#4480c7" stroke="#4480c7" points="1402.85,-216.295 1391.89,-216.011 1398.24,-218.228 1393.63,-220.161 1393.63,-220.161 1393.63,-220.161 1398.24,-218.228 1395.37,-224.311 1402.85,-216.295 1402.85,-216.295"/>
<polygon fill="#4480c7" stroke="#4480c7" points="1498.61,-176.158 1509.57,-176.442 1503.22,-174.225 1507.83,-172.292 1507.83,-172.292 1507.83,-172.292 1503.22,-174.225 1506.09,-168.142 1498.61,-176.158 1498.61,-176.158"/>
</g>
<!-- FedexContract -->
<g id="node11" class="node"><title>FedexContract</title>
<ellipse fill="none" stroke="black" cx="290" cy="-399" rx="64.0172" ry="18"/>
<text text-anchor="middle" x="290" y="-395.3" font-family="Times,serif" font-size="14.00">FedexContract</text>
</g>
<!-- FedexContract&#45;&gt;Business -->
<g id="edge22" class="edge"><title>FedexContract&#45;&gt;Business</title>
<path fill="none" stroke="#bdedde" d="M358.617,-392.181C558.326,-375.244 1136.19,-326.235 1311.79,-311.343"/>
<ellipse fill="none" stroke="#bdedde" cx="354.361" cy="-392.542" rx="4" ry="4"/>
<polygon fill="#bdedde" stroke="#bdedde" points="1311.83,-311.339 1322.18,-314.978 1316.82,-310.917 1321.8,-310.494 1321.8,-310.494 1321.8,-310.494 1316.82,-310.917 1321.42,-306.01 1311.83,-311.339 1311.83,-311.339"/>
</g>
<!-- FedexContract&#45;&gt;Addendum -->
<g id="edge23" class="edge"><title>FedexContract&#45;&gt;Addendum</title>
<path fill="none" stroke="#b374b1" d="M290.411,-372.435C291.689,-349.315 295.9,-314.879 309,-288 314.384,-276.952 322.783,-266.523 331.059,-257.886"/>
<ellipse fill="none" stroke="#b374b1" cx="290.226" cy="-376.706" rx="4" ry="4"/>
<polygon fill="#b374b1" stroke="#b374b1" points="331.119,-257.827 341.389,-253.983 334.67,-254.307 338.221,-250.787 338.221,-250.787 338.221,-250.787 334.67,-254.307 335.053,-247.591 331.119,-257.827 331.119,-257.827"/>
</g>
<!-- FedexContract&#45;&gt;Note -->
<g id="edge24" class="edge"><title>FedexContract&#45;&gt;Note</title>
<path fill="none" stroke="#847158" d="M280.344,-372.823C269.086,-341.157 252,-284.88 252,-235 252,-235 252,-235 252,-161 252,-56.3477 368.446,-97.2742 470,-72 648.782,-27.5058 870.521,-20.1936 958.468,-19.117"/>
<ellipse fill="none" stroke="#847158" cx="281.84" cy="-376.942" rx="4.00001" ry="4.00001"/>
<polygon fill="#847158" stroke="#847158" points="958.519,-19.1166 968.565,-23.5143 963.519,-19.0656 968.519,-19.0146 968.519,-19.0146 968.519,-19.0146 963.519,-19.0656 968.473,-14.5148 958.519,-19.1166 958.519,-19.1166"/>
</g>
<!-- Psa&#45;&gt;Note -->
<g id="edge25" class="edge"><title>Psa&#45;&gt;Note</title>
<path fill="none" stroke="#d0a5d8" d="M1532,-135.493C1532.07,-115.204 1528.49,-87.7008 1511,-72 1475.76,-40.3578 1148.86,-24.8533 1035.5,-20.3948"/>
<ellipse fill="none" stroke="#d0a5d8" cx="1531.88" cy="-139.693" rx="4" ry="4"/>
<polygon fill="#d0a5d8" stroke="#d0a5d8" points="1035.2,-20.3835 1025.38,-15.501 1030.21,-20.1906 1025.21,-19.9976 1025.21,-19.9976 1025.21,-19.9976 1030.21,-20.1906 1025.04,-24.4943 1035.2,-20.3835 1035.2,-20.3835"/>
</g>
<!-- Psazip -->
<g id="node15" class="node"><title>Psazip</title>
<ellipse fill="none" stroke="black" cx="1735" cy="-18" rx="34.1708" ry="18"/>
<text text-anchor="middle" x="1735" y="-14.3" font-family="Times,serif" font-size="14.00">Psazip</text>
</g>
<!-- Psa&#45;&gt;Psazip -->
<g id="edge26" class="edge"><title>Psa&#45;&gt;Psazip</title>
<path fill="none" stroke="#df2452" d="M1565.29,-160.923C1606.83,-158.844 1675.07,-148.875 1714,-108 1729.61,-91.6074 1734.35,-65.8636 1735.48,-46.2718"/>
<ellipse fill="none" stroke="#df2452" cx="1561.1" cy="-161.089" rx="4" ry="4"/>
<polygon fill="#df2452" stroke="#df2452" points="1735.48,-46.1144 1740.28,-36.2536 1735.63,-41.1166 1735.78,-36.1188 1735.78,-36.1188 1735.78,-36.1188 1735.63,-41.1166 1731.29,-35.9841 1735.48,-46.1144 1735.48,-46.1144"/>
</g>
<!-- Zip -->
<g id="node27" class="node"><title>Zip</title>
<ellipse fill="none" stroke="black" cx="1661" cy="-90" rx="27" ry="18"/>
<text text-anchor="middle" x="1661" y="-86.3" font-family="Times,serif" font-size="14.00">Zip</text>
</g>
<!-- Psa&#45;&gt;Zip -->
<g id="edge27" class="edge"><title>Psa&#45;&gt;Zip</title>
<path fill="none" stroke="#023c72" d="M1559.42,-145.281C1580.98,-133.76 1610.12,-118.189 1631.66,-106.678"/>
<polygon fill="#023c72" stroke="#023c72" points="1559.29,-145.35 1548.35,-146.094 1554.88,-147.706 1550.47,-150.062 1550.47,-150.062 1550.47,-150.062 1554.88,-147.706 1552.59,-154.031 1559.29,-145.35 1559.29,-145.35"/>
<polygon fill="#023c72" stroke="#023c72" points="1631.86,-106.574 1642.8,-105.83 1636.27,-104.217 1640.67,-101.861 1640.67,-101.861 1640.67,-101.861 1636.27,-104.217 1638.55,-97.8918 1631.86,-106.574 1631.86,-106.574"/>
</g>
<!-- PsaState -->
<g id="node14" class="node"><title>PsaState</title>
<ellipse fill="none" stroke="black" cx="1605" cy="-18" rx="41.394" ry="18"/>
<text text-anchor="middle" x="1605" y="-14.3" font-family="Times,serif" font-size="14.00">PsaState</text>
</g>
<!-- Psa&#45;&gt;PsaState -->
<g id="edge28" class="edge"><title>Psa&#45;&gt;PsaState</title>
<path fill="none" stroke="#3192c8" d="M1565.23,-161.122C1604.64,-159.128 1666.9,-149.137 1697,-108 1706.45,-95.088 1705.01,-85.8526 1697,-72 1686.27,-53.4326 1666.29,-40.7951 1647.68,-32.5325"/>
<ellipse fill="none" stroke="#3192c8" cx="1561.18" cy="-161.279" rx="4" ry="4"/>
<polygon fill="#3192c8" stroke="#3192c8" points="1647.67,-32.5257 1640.14,-24.5519 1643.05,-30.6187 1638.42,-28.7118 1638.42,-28.7118 1638.42,-28.7118 1643.05,-30.6187 1636.71,-32.8716 1647.67,-32.5257 1647.67,-32.5257"/>
</g>
<!-- State -->
<g id="node19" class="node"><title>State</title>
<ellipse fill="none" stroke="black" cx="1587" cy="-90" rx="28.3955" ry="18"/>
<text text-anchor="middle" x="1587" y="-86.3" font-family="Times,serif" font-size="14.00">State</text>
</g>
<!-- Psa&#45;&gt;State -->
<g id="edge29" class="edge"><title>Psa&#45;&gt;State</title>
<path fill="none" stroke="#d98e24" d="M1548.74,-137.987C1554.88,-130.441 1561.72,-122.05 1567.89,-114.471"/>
<polygon fill="#d98e24" stroke="#d98e24" points="1548.68,-138.057 1538.88,-142.97 1545.53,-141.934 1542.37,-145.811 1542.37,-145.811 1542.37,-145.811 1545.53,-141.934 1545.86,-148.652 1548.68,-138.057 1548.68,-138.057"/>
<polygon fill="#d98e24" stroke="#d98e24" points="1567.95,-114.398 1577.75,-109.485 1571.1,-110.521 1574.26,-106.644 1574.26,-106.644 1574.26,-106.644 1571.1,-110.521 1570.77,-103.803 1567.95,-114.398 1567.95,-114.398"/>
</g>
<!-- Psa&#45;&gt;EmployeePsa -->
<g id="edge30" class="edge"><title>Psa&#45;&gt;EmployeePsa</title>
<path fill="none" stroke="#82a8df" d="M1506.58,-142.368C1495.48,-133.543 1482.13,-122.925 1470.46,-113.64"/>
<ellipse fill="none" stroke="#82a8df" cx="1509.9" cy="-145.013" rx="4.00002" ry="4.00002"/>
<polygon fill="#82a8df" stroke="#82a8df" points="1470.14,-113.384 1465.11,-103.637 1466.23,-110.271 1462.31,-107.158 1462.31,-107.158 1462.31,-107.158 1466.23,-110.271 1459.51,-110.68 1470.14,-113.384 1470.14,-113.384"/>
</g>
<!-- Region -->
<g id="node16" class="node"><title>Region</title>
<ellipse fill="none" stroke="black" cx="999" cy="-234" rx="37.0701" ry="18"/>
<text text-anchor="middle" x="999" y="-230.3" font-family="Times,serif" font-size="14.00">Region</text>
</g>
<!-- Region&#45;&gt;Psa -->
<g id="edge31" class="edge"><title>Region&#45;&gt;Psa</title>
<path fill="none" stroke="#592040" d="M1042.19,-227.307C1144.22,-213.856 1398.76,-180.301 1493.61,-167.797"/>
<ellipse fill="none" stroke="#592040" cx="1038.22" cy="-227.83" rx="4.00001" ry="4.00001"/>
<polygon fill="#592040" stroke="#592040" points="1493.68,-167.789 1504.18,-170.943 1498.63,-167.135 1503.59,-166.482 1503.59,-166.482 1503.59,-166.482 1498.63,-167.135 1503,-162.02 1493.68,-167.789 1493.68,-167.789"/>
</g>
<!-- Terminal -->
<g id="node20" class="node"><title>Terminal</title>
<ellipse fill="none" stroke="black" cx="1033" cy="-90" rx="44.2946" ry="18"/>
<text text-anchor="middle" x="1033" y="-86.3" font-family="Times,serif" font-size="14.00">Terminal</text>
</g>
<!-- Region&#45;&gt;Terminal -->
<g id="edge32" class="edge"><title>Region&#45;&gt;Terminal</title>
<path fill="none" stroke="#294d4a" d="M1003.95,-207.664C1007.55,-189.799 1012.71,-165.349 1018,-144 1020.13,-135.422 1022.67,-126.129 1025.06,-117.757"/>
<ellipse fill="none" stroke="#294d4a" cx="1003.1" cy="-211.939" rx="4.00001" ry="4.00001"/>
<polygon fill="#294d4a" stroke="#294d4a" points="1025.07,-117.716 1032.17,-109.361 1026.46,-112.913 1027.85,-108.11 1027.85,-108.11 1027.85,-108.11 1026.46,-112.913 1023.53,-106.859 1025.07,-117.716 1025.07,-117.716"/>
</g>
<!-- Region&#45;&gt;Note -->
<g id="edge33" class="edge"><title>Region&#45;&gt;Note</title>
<path fill="none" stroke="#bc8c14" d="M991.87,-208.141C983.741,-176.443 972.492,-119.989 980,-72 981.38,-63.1765 983.98,-53.8161 986.738,-45.4564"/>
<ellipse fill="none" stroke="#bc8c14" cx="992.934" cy="-212.155" rx="4.00001" ry="4.00001"/>
<polygon fill="#bc8c14" stroke="#bc8c14" points="986.795,-45.2938 994.356,-37.351 988.453,-40.5765 990.11,-35.8592 990.11,-35.8592 990.11,-35.8592 988.453,-40.5765 985.865,-34.3675 986.795,-45.2938 986.795,-45.2938"/>
</g>
<!-- Role -->
<g id="node17" class="node"><title>Role</title>
<ellipse fill="none" stroke="black" cx="1243" cy="-162" rx="27.4223" ry="18"/>
<text text-anchor="middle" x="1243" y="-158.3" font-family="Times,serif" font-size="14.00">Role</text>
</g>
<!-- UserRole -->
<g id="node22" class="node"><title>UserRole</title>
<ellipse fill="none" stroke="black" cx="1243" cy="-90" rx="44.271" ry="18"/>
<text text-anchor="middle" x="1243" y="-86.3" font-family="Times,serif" font-size="14.00">UserRole</text>
</g>
<!-- Role&#45;&gt;UserRole -->
<g id="edge34" class="edge"><title>Role&#45;&gt;UserRole</title>
<path fill="none" stroke="#b282c2" d="M1243,-135.64C1243,-130.063 1243,-124.132 1243,-118.476"/>
<ellipse fill="none" stroke="#b282c2" cx="1243" cy="-139.697" rx="4" ry="4"/>
<polygon fill="#b282c2" stroke="#b282c2" points="1243,-118.104 1247.5,-108.104 1243,-113.104 1243,-108.104 1243,-108.104 1243,-108.104 1243,-113.104 1238.5,-108.104 1243,-118.104 1243,-118.104"/>
</g>
<!-- Role&#45;&gt;Role -->
<g id="edge35" class="edge"><title>Role&#45;&gt;Role</title>
<path fill="none" stroke="#b05e7d" d="M1273.04,-175.436C1281.5,-174.857 1288,-170.378 1288,-162 1288,-153.622 1281.5,-149.143 1273.04,-148.564"/>
<polygon fill="#b05e7d" stroke="#b05e7d" points="1272.85,-175.417 1263.34,-169.954 1267.87,-174.924 1262.9,-174.432 1262.9,-174.432 1262.9,-174.432 1267.87,-174.924 1262.45,-178.91 1272.85,-175.417 1272.85,-175.417"/>
<polygon fill="#b05e7d" stroke="#b05e7d" points="1272.85,-148.583 1262.45,-145.09 1267.87,-149.076 1262.9,-149.568 1262.9,-149.568 1262.9,-149.568 1267.87,-149.076 1263.34,-154.046 1272.85,-148.583 1272.85,-148.583"/>
</g>
<!-- ServiceType -->
<g id="node18" class="node"><title>ServiceType</title>
<ellipse fill="none" stroke="black" cx="375" cy="-306" rx="56.3173" ry="18"/>
<text text-anchor="middle" x="375" y="-302.3" font-family="Times,serif" font-size="14.00">ServiceType</text>
</g>
<!-- ServiceType&#45;&gt;Vehicle -->
<g id="edge36" class="edge"><title>ServiceType&#45;&gt;Vehicle</title>
<path fill="none" stroke="#d7bcb7" d="M421.982,-290.639C463.546,-277.933 523.578,-259.583 563.176,-247.479"/>
<ellipse fill="none" stroke="#d7bcb7" cx="417.932" cy="-291.877" rx="4.00001" ry="4.00001"/>
<polygon fill="#d7bcb7" stroke="#d7bcb7" points="563.216,-247.467 574.095,-248.847 567.998,-246.005 572.779,-244.543 572.779,-244.543 572.779,-244.543 567.998,-246.005 571.464,-240.24 563.216,-247.467 563.216,-247.467"/>
</g>
<!-- State&#45;&gt;PsaState -->
<g id="edge37" class="edge"><title>State&#45;&gt;PsaState</title>
<path fill="none" stroke="#822f5a" d="M1593.36,-64.2675C1594.85,-58.4845 1596.44,-52.2913 1597.95,-46.3999"/>
<ellipse fill="none" stroke="#822f5a" cx="1592.35" cy="-68.181" rx="4.00001" ry="4.00001"/>
<polygon fill="#822f5a" stroke="#822f5a" points="1598.07,-45.9602 1604.92,-37.396 1599.31,-41.1178 1600.56,-36.2753 1600.56,-36.2753 1600.56,-36.2753 1599.31,-41.1178 1596.2,-35.1546 1598.07,-45.9602 1598.07,-45.9602"/>
</g>
<!-- State&#45;&gt;Note -->
<g id="edge38" class="edge"><title>State&#45;&gt;Note</title>
<path fill="none" stroke="#d0b593" d="M1557.04,-75.9304C1552.72,-74.4094 1548.29,-73.0346 1544,-72 1357.08,-26.943 1125.49,-19.9804 1035.38,-19.0576"/>
<ellipse fill="none" stroke="#d0b593" cx="1560.88" cy="-77.3752" rx="4.00001" ry="4.00001"/>
<polygon fill="#d0b593" stroke="#d0b593" points="1035.35,-19.0575 1025.39,-14.4745 1030.35,-19.0159 1025.35,-18.9744 1025.35,-18.9744 1025.35,-18.9744 1030.35,-19.0159 1025.31,-23.4742 1035.35,-19.0575 1035.35,-19.0575"/>
</g>
<!-- Terminal&#45;&gt;Note -->
<g id="edge39" class="edge"><title>Terminal&#45;&gt;Note</title>
<path fill="none" stroke="#31140d" d="M1020.6,-64.8894C1017.23,-58.3278 1013.56,-51.1992 1010.15,-44.5603"/>
<ellipse fill="none" stroke="#31140d" cx="1022.46" cy="-68.4978" rx="4.00002" ry="4.00002"/>
<polygon fill="#31140d" stroke="#31140d" points="1009.96,-44.1999 1009.39,-33.2489 1007.67,-39.7534 1005.39,-35.307 1005.39,-35.307 1005.39,-35.307 1007.67,-39.7534 1001.38,-37.3651 1009.96,-44.1999 1009.96,-44.1999"/>
</g>
<!-- User&#45;&gt;UserRole -->
<g id="edge40" class="edge"><title>User&#45;&gt;UserRole</title>
<path fill="none" stroke="#a91bc0" d="M1311.16,-142.864C1298.93,-133.557 1283.95,-122.16 1271.15,-112.422"/>
<ellipse fill="none" stroke="#a91bc0" cx="1314.51" cy="-145.411" rx="4.00002" ry="4.00002"/>
<polygon fill="#a91bc0" stroke="#a91bc0" points="1271.07,-112.356 1265.83,-102.72 1267.09,-109.329 1263.11,-106.301 1263.11,-106.301 1263.11,-106.301 1267.09,-109.329 1260.38,-109.882 1271.07,-112.356 1271.07,-112.356"/>
</g>
<!-- Vehicle&#45;&gt;Note -->
<g id="edge41" class="edge"><title>Vehicle&#45;&gt;Note</title>
<path fill="none" stroke="#60ea3f" d="M559.409,-226.507C531.474,-219.883 497.549,-206.586 480,-180 471.186,-166.647 470.246,-156.683 480,-144 539.109,-67.1362 849.158,-32.2616 958.657,-22.2114"/>
<ellipse fill="none" stroke="#60ea3f" cx="563.578" cy="-227.423" rx="4.00001" ry="4.00001"/>
<polygon fill="#60ea3f" stroke="#60ea3f" points="958.952,-22.185 969.315,-25.7713 963.932,-21.7372 968.912,-21.2894 968.912,-21.2894 968.912,-21.2894 963.932,-21.7372 968.509,-16.8075 958.952,-22.185 958.952,-22.185"/>
</g>
<!-- Vehicle&#45;&gt;DailyDataVehicle -->
<g id="edge42" class="edge"><title>Vehicle&#45;&gt;DailyDataVehicle</title>
<path fill="none" stroke="#850b91" d="M642.326,-220.463C676.621,-209.246 727.214,-192.696 765.309,-180.235"/>
<ellipse fill="none" stroke="#850b91" cx="638.463" cy="-221.727" rx="4.00001" ry="4.00001"/>
<polygon fill="#850b91" stroke="#850b91" points="765.698,-180.108 776.601,-181.276 770.45,-178.554 775.202,-176.999 775.202,-176.999 775.202,-176.999 770.45,-178.554 773.803,-172.722 765.698,-180.108 765.698,-180.108"/>
</g>
<!-- VehicleFuel -->
<g id="node24" class="node"><title>VehicleFuel</title>
<ellipse fill="none" stroke="black" cx="505" cy="-306" rx="55.3682" ry="18"/>
<text text-anchor="middle" x="505" y="-302.3" font-family="Times,serif" font-size="14.00">VehicleFuel</text>
</g>
<!-- VehicleFuel&#45;&gt;Vehicle -->
<g id="edge43" class="edge"><title>VehicleFuel&#45;&gt;Vehicle</title>
<path fill="none" stroke="#f369c2" d="M533.562,-284.804C546.642,-275.556 562.113,-264.617 575.22,-255.35"/>
<ellipse fill="none" stroke="#f369c2" cx="530.237" cy="-287.155" rx="4.00002" ry="4.00002"/>
<polygon fill="#f369c2" stroke="#f369c2" points="575.277,-255.309 586.04,-253.21 579.359,-252.423 583.442,-249.536 583.442,-249.536 583.442,-249.536 579.359,-252.423 580.844,-245.862 575.277,-255.309 575.277,-255.309"/>
</g>
<!-- VehicleOdometer -->
<g id="node25" class="node"><title>VehicleOdometer</title>
<ellipse fill="none" stroke="black" cx="654" cy="-306" rx="75.0904" ry="18"/>
<text text-anchor="middle" x="654" y="-302.3" font-family="Times,serif" font-size="14.00">VehicleOdometer</text>
</g>
<!-- VehicleOdometer&#45;&gt;Vehicle -->
<g id="edge44" class="edge"><title>VehicleOdometer&#45;&gt;Vehicle</title>
<path fill="none" stroke="#f92b04" d="M637.187,-281.462C632.212,-274.497 626.751,-266.851 621.72,-259.809"/>
<ellipse fill="none" stroke="#f92b04" cx="639.571" cy="-284.8" rx="4.00002" ry="4.00002"/>
<polygon fill="#f92b04" stroke="#f92b04" points="621.46,-259.444 619.31,-248.691 618.554,-255.376 615.648,-251.307 615.648,-251.307 615.648,-251.307 618.554,-255.376 611.986,-253.923 621.46,-259.444 621.46,-259.444"/>
</g>
<!-- VehicleType -->
<g id="node26" class="node"><title>VehicleType</title>
<ellipse fill="none" stroke="black" cx="805" cy="-306" rx="57.2688" ry="18"/>
<text text-anchor="middle" x="805" y="-302.3" font-family="Times,serif" font-size="14.00">VehicleType</text>
</g>
<!-- VehicleType&#45;&gt;Vehicle -->
<g id="edge45" class="edge"><title>VehicleType&#45;&gt;Vehicle</title>
<path fill="none" stroke="#1f1fde" d="M760.19,-289.394C725.224,-277.217 677.114,-260.463 643.562,-248.778"/>
<ellipse fill="none" stroke="#1f1fde" cx="764.356" cy="-290.845" rx="4.00001" ry="4.00001"/>
<polygon fill="#1f1fde" stroke="#1f1fde" points="643.522,-248.764 635.558,-241.225 638.8,-247.119 634.078,-245.475 634.078,-245.475 634.078,-245.475 638.8,-247.119 632.598,-249.725 643.522,-248.764 643.522,-248.764"/>
</g>
<!-- Zip&#45;&gt;Psazip -->
<g id="edge46" class="edge"><title>Zip&#45;&gt;Psazip</title>
<path fill="none" stroke="#629906" d="M1681.86,-69.2706C1691.16,-60.4737 1702.15,-50.0758 1711.72,-41.026"/>
<ellipse fill="none" stroke="#629906" cx="1678.88" cy="-72.0856" rx="4.00002" ry="4.00002"/>
<polygon fill="#629906" stroke="#629906" points="1711.76,-40.9856 1722.12,-37.3827 1715.39,-37.5496 1719.02,-34.1135 1719.02,-34.1135 1719.02,-34.1135 1715.39,-37.5496 1715.93,-30.8444 1711.76,-40.9856 1711.76,-40.9856"/>
</g>
<!-- Zip&#45;&gt;Note -->
<g id="edge47" class="edge"><title>Zip&#45;&gt;Note</title>
<path fill="none" stroke="#0e4fed" d="M1632.78,-74.8466C1629.87,-73.7448 1626.91,-72.7651 1624,-72 1511.71,-42.4283 1153.55,-25.4222 1035.3,-20.5045"/>
<ellipse fill="none" stroke="#0e4fed" cx="1636.64" cy="-76.4503" rx="4.00002" ry="4.00002"/>
<polygon fill="#0e4fed" stroke="#0e4fed" points="1035.25,-20.5027 1025.44,-15.596 1030.25,-20.2975 1025.26,-20.0922 1025.26,-20.0922 1025.26,-20.0922 1030.25,-20.2975 1025.07,-24.5884 1035.25,-20.5027 1035.25,-20.5027"/>
</g>
</g>
</svg>
