<?xml version="1.0" encoding="UTF-8" standalone="no"?>
<!DOCTYPE svg PUBLIC "-//W3C//DTD SVG 1.1//EN"
 "http://www.w3.org/Graphics/SVG/1.1/DTD/svg11.dtd">
<!-- Generated by graphviz version 2.29.20121209.0545 (20121209.0545)
 -->
<!-- Title: models_diagram Pages: 1 -->
<svg width="1276pt" height="230pt"
 viewBox="0.00 0.00 1276.00 230.00" xmlns="http://www.w3.org/2000/svg" xmlns:xlink="http://www.w3.org/1999/xlink">
<g id="graph0" class="graph" transform="scale(1 1) rotate(0) translate(4 226)">
<title>models_diagram</title>
<polygon fill="white" stroke="white" points="-4,5 -4,-226 1273,-226 1273,5 -4,5"/>
<!-- _diagram_info -->
<g id="node1" class="node"><title>_diagram_info</title>
<text text-anchor="start" x="8" y="-207.6" font-family="Times,serif" font-size="13.00">Models diagram</text>
<text text-anchor="start" x="8" y="-193.6" font-family="Times,serif" font-size="13.00">Date: Dec 10 2012 &#45; 01:23</text>
<text text-anchor="start" x="8" y="-179.6" font-family="Times,serif" font-size="13.00">Migration version: 20121210034931</text>
<text text-anchor="start" x="8" y="-165.6" font-family="Times,serif" font-size="13.00">Generated by RailRoady 1.1.0</text>
<text text-anchor="start" x="8" y="-151.6" font-family="Times,serif" font-size="13.00">http://railroady.prestonlee.com</text>
</g>
<!-- Addendum -->
<g id="node2" class="node"><title>Addendum</title>
<ellipse fill="none" stroke="black" cx="277" cy="-183" rx="51.0191" ry="18"/>
<text text-anchor="middle" x="277" y="-179.3" font-family="Times,serif" font-size="14.00">Addendum</text>
</g>
<!-- Note -->
<g id="node5" class="node"><title>Note</title>
<ellipse fill="none" stroke="black" cx="391" cy="-90" rx="28.3955" ry="18"/>
<text text-anchor="middle" x="391" y="-86.3" font-family="Times,serif" font-size="14.00">Note</text>
</g>
<!-- Addendum&#45;&gt;Note -->
<g id="edge1" class="edge"><title>Addendum&#45;&gt;Note</title>
<path fill="none" stroke="#290d9c" d="M303.042,-161.212C321.886,-146.17 347.209,-125.956 365.845,-111.08"/>
<ellipse fill="none" stroke="#290d9c" cx="299.723" cy="-163.861" rx="4.00002" ry="4.00002"/>
<polygon fill="#290d9c" stroke="#290d9c" points="366.074,-110.897 376.697,-108.175 369.982,-107.778 373.89,-104.658 373.89,-104.658 373.89,-104.658 369.982,-107.778 371.082,-101.141 366.074,-110.897 366.074,-110.897"/>
</g>
<!-- Employee -->
<g id="node3" class="node"><title>Employee</title>
<ellipse fill="none" stroke="black" cx="501" cy="-183" rx="47.169" ry="18"/>
<text text-anchor="middle" x="501" y="-179.3" font-family="Times,serif" font-size="14.00">Employee</text>
</g>
<!-- Employee&#45;&gt;Note -->
<g id="edge2" class="edge"><title>Employee&#45;&gt;Note</title>
<path fill="none" stroke="#8d6bec" d="M475.651,-161.029C457.573,-146.074 433.398,-126.075 415.512,-111.278"/>
<ellipse fill="none" stroke="#8d6bec" cx="478.757" cy="-163.599" rx="4.00002" ry="4.00002"/>
<polygon fill="#8d6bec" stroke="#8d6bec" points="415.487,-111.257 410.65,-101.416 411.634,-108.07 407.781,-104.883 407.781,-104.883 407.781,-104.883 411.634,-108.07 404.913,-108.35 415.487,-111.257 415.487,-111.257"/>
</g>
<!-- User -->
<g id="node13" class="node"><title>User</title>
<ellipse fill="none" stroke="black" cx="538" cy="-90" rx="27.4223" ry="18"/>
<text text-anchor="middle" x="538" y="-86.3" font-family="Times,serif" font-size="14.00">User</text>
</g>
<!-- Employee&#45;&gt;User -->
<g id="edge3" class="edge"><title>Employee&#45;&gt;User</title>
<path fill="none" stroke="#967279" d="M511.121,-157.107C516.407,-144.108 522.849,-128.264 528.101,-115.346"/>
<ellipse fill="none" stroke="#967279" cx="509.466" cy="-161.178" rx="4.00001" ry="4.00001"/>
<ellipse fill="#967279" stroke="#967279" cx="529.69" cy="-111.438" rx="4.00001" ry="4.00001"/>
</g>
<!-- FedexContract -->
<g id="node4" class="node"><title>FedexContract</title>
<ellipse fill="none" stroke="black" cx="704" cy="-183" rx="64.0172" ry="18"/>
<text text-anchor="middle" x="704" y="-179.3" font-family="Times,serif" font-size="14.00">FedexContract</text>
</g>
<!-- Psa -->
<g id="node6" class="node"><title>Psa</title>
<ellipse fill="none" stroke="black" cx="813" cy="-183" rx="27" ry="18"/>
<text text-anchor="middle" x="813" y="-179.3" font-family="Times,serif" font-size="14.00">Psa</text>
</g>
<!-- PsaState -->
<g id="node7" class="node"><title>PsaState</title>
<ellipse fill="none" stroke="black" cx="900" cy="-183" rx="41.394" ry="18"/>
<text text-anchor="middle" x="900" y="-179.3" font-family="Times,serif" font-size="14.00">PsaState</text>
</g>
<!-- Psazip -->
<g id="node8" class="node"><title>Psazip</title>
<ellipse fill="none" stroke="black" cx="994" cy="-183" rx="34.1708" ry="18"/>
<text text-anchor="middle" x="994" y="-179.3" font-family="Times,serif" font-size="14.00">Psazip</text>
</g>
<!-- Region -->
<g id="node9" class="node"><title>Region</title>
<ellipse fill="none" stroke="black" cx="1083" cy="-183" rx="37.0701" ry="18"/>
<text text-anchor="middle" x="1083" y="-179.3" font-family="Times,serif" font-size="14.00">Region</text>
</g>
<!-- Role -->
<g id="node10" class="node"><title>Role</title>
<ellipse fill="none" stroke="black" cx="594" cy="-183" rx="27.4223" ry="18"/>
<text text-anchor="middle" x="594" y="-179.3" font-family="Times,serif" font-size="14.00">Role</text>
</g>
<!-- UserRole -->
<g id="node14" class="node"><title>UserRole</title>
<ellipse fill="none" stroke="black" cx="566" cy="-18" rx="44.271" ry="18"/>
<text text-anchor="middle" x="566" y="-14.3" font-family="Times,serif" font-size="14.00">UserRole</text>
</g>
<!-- Role&#45;&gt;UserRole -->
<g id="edge4" class="edge"><title>Role&#45;&gt;UserRole</title>
<path fill="none" stroke="#85938b" d="M589.696,-156.945C584.567,-127.085 576.025,-77.3598 570.719,-46.4728"/>
<ellipse fill="none" stroke="#85938b" cx="590.379" cy="-160.922" rx="4.00001" ry="4.00001"/>
<polygon fill="#85938b" stroke="#85938b" points="570.681,-46.2524 573.423,-35.6349 569.835,-41.3246 568.988,-36.3968 568.988,-36.3968 568.988,-36.3968 569.835,-41.3246 564.553,-37.1587 570.681,-46.2524 570.681,-46.2524"/>
</g>
<!-- Role&#45;&gt;User -->
<g id="edge5" class="edge"><title>Role&#45;&gt;User</title>
<path fill="none" stroke="#e1b6b2" d="M578.805,-157.307C570.873,-144.419 561.195,-128.692 553.255,-115.79"/>
<polygon fill="#e1b6b2" stroke="#e1b6b2" points="579.005,-157.632 580.413,-168.507 581.625,-161.891 584.246,-166.149 584.246,-166.149 584.246,-166.149 581.625,-161.891 588.078,-163.791 579.005,-157.632 579.005,-157.632"/>
<polygon fill="#e1b6b2" stroke="#e1b6b2" points="553.072,-115.491 551.663,-104.616 550.451,-111.233 547.831,-106.975 547.831,-106.975 547.831,-106.975 550.451,-111.233 543.998,-109.333 553.072,-115.491 553.072,-115.491"/>
</g>
<!-- State -->
<g id="node11" class="node"><title>State</title>
<ellipse fill="none" stroke="black" cx="1167" cy="-183" rx="28.3955" ry="18"/>
<text text-anchor="middle" x="1167" y="-179.3" font-family="Times,serif" font-size="14.00">State</text>
</g>
<!-- Terminal -->
<g id="node12" class="node"><title>Terminal</title>
<ellipse fill="none" stroke="black" cx="391" cy="-183" rx="44.2946" ry="18"/>
<text text-anchor="middle" x="391" y="-179.3" font-family="Times,serif" font-size="14.00">Terminal</text>
</g>
<!-- Terminal&#45;&gt;Note -->
<g id="edge6" class="edge"><title>Terminal&#45;&gt;Note</title>
<path fill="none" stroke="#0e254d" d="M391,-156.729C391,-144.725 391,-130.362 391,-118.129"/>
<ellipse fill="none" stroke="#0e254d" cx="391" cy="-160.884" rx="4" ry="4"/>
<polygon fill="#0e254d" stroke="#0e254d" points="391,-118.04 395.5,-108.04 391,-113.04 391,-108.04 391,-108.04 391,-108.04 391,-113.04 386.5,-108.04 391,-118.04 391,-118.04"/>
</g>
<!-- User&#45;&gt;UserRole -->
<g id="edge7" class="edge"><title>User&#45;&gt;UserRole</title>
<path fill="none" stroke="#1f1cf1" d="M547.689,-64.7779C550.182,-58.544 552.878,-51.8046 555.415,-45.4634"/>
<ellipse fill="none" stroke="#1f1cf1" cx="546.121" cy="-68.6971" rx="4.00001" ry="4.00001"/>
<polygon fill="#1f1cf1" stroke="#1f1cf1" points="555.504,-45.241 563.396,-37.6275 557.361,-40.5986 559.218,-35.9562 559.218,-35.9562 559.218,-35.9562 557.361,-40.5986 555.039,-34.2849 555.504,-45.241 555.504,-45.241"/>
</g>
<!-- Zip -->
<g id="node15" class="node"><title>Zip</title>
<ellipse fill="none" stroke="black" cx="1241" cy="-183" rx="27" ry="18"/>
<text text-anchor="middle" x="1241" y="-179.3" font-family="Times,serif" font-size="14.00">Zip</text>
</g>
</g>
</svg>
