<?xml version="1.0" encoding="UTF-8" standalone="no"?>
<!DOCTYPE svg PUBLIC "-//W3C//DTD SVG 1.1//EN"
 "http://www.w3.org/Graphics/SVG/1.1/DTD/svg11.dtd">
<!-- Generated by graphviz version 2.29.20121209.0545 (20121209.0545)
 -->
<!-- Title: models_diagram Pages: 1 -->
<svg width="2165pt" height="876pt"
 viewBox="0.00 0.00 2165.00 876.00" xmlns="http://www.w3.org/2000/svg" xmlns:xlink="http://www.w3.org/1999/xlink">
<g id="graph0" class="graph" transform="scale(1 1) rotate(0) translate(4 872)">
<title>models_diagram</title>
<polygon fill="white" stroke="white" points="-4,5 -4,-872 2162,-872 2162,5 -4,5"/>
<!-- _diagram_info -->
<g id="node1" class="node"><title>_diagram_info</title>
<text text-anchor="start" x="8" y="-771.6" font-family="Times,serif" font-size="13.00">Models diagram</text>
<text text-anchor="start" x="8" y="-757.6" font-family="Times,serif" font-size="13.00">Date: Dec 12 2012 &#45; 17:05</text>
<text text-anchor="start" x="8" y="-743.6" font-family="Times,serif" font-size="13.00">Migration version: 20121212215641</text>
<text text-anchor="start" x="8" y="-729.6" font-family="Times,serif" font-size="13.00">Generated by RailRoady 1.1.0</text>
<text text-anchor="start" x="8" y="-715.6" font-family="Times,serif" font-size="13.00">http://railroady.prestonlee.com</text>
</g>
<!-- Addendum -->
<g id="node2" class="node"><title>Addendum</title>
<path fill="none" stroke="black" d="M726,-370.5C726,-370.5 964,-370.5 964,-370.5 970,-370.5 976,-376.5 976,-382.5 976,-382.5 976,-539.5 976,-539.5 976,-545.5 970,-551.5 964,-551.5 964,-551.5 726,-551.5 726,-551.5 720,-551.5 714,-545.5 714,-539.5 714,-539.5 714,-382.5 714,-382.5 714,-376.5 720,-370.5 726,-370.5"/>
<text text-anchor="middle" x="845" y="-536.3" font-family="Times,serif" font-size="14.00">Addendum</text>
<polyline fill="none" stroke="black" points="714,-528.5 976,-528.5 "/>
<text text-anchor="start" x="722" y="-513.3" font-family="Times,serif" font-size="14.00">id :integer</text>
<text text-anchor="start" x="722" y="-498.3" font-family="Times,serif" font-size="14.00">fedexAddendumName :string</text>
<text text-anchor="start" x="722" y="-483.3" font-family="Times,serif" font-size="14.00">fedexAddendumNumber :integer</text>
<text text-anchor="start" x="722" y="-468.3" font-family="Times,serif" font-size="14.00">fedexContractorAddendumName :string</text>
<text text-anchor="start" x="722" y="-453.3" font-family="Times,serif" font-size="14.00">fedexContractorAddendumNumber :integer</text>
<text text-anchor="start" x="722" y="-438.3" font-family="Times,serif" font-size="14.00">content :text</text>
<text text-anchor="start" x="722" y="-423.3" font-family="Times,serif" font-size="14.00">startDate :datetime</text>
<text text-anchor="start" x="722" y="-408.3" font-family="Times,serif" font-size="14.00">endDate :datetime</text>
<text text-anchor="start" x="722" y="-393.3" font-family="Times,serif" font-size="14.00">created_at :datetime</text>
<text text-anchor="start" x="722" y="-378.3" font-family="Times,serif" font-size="14.00">updated_at :datetime</text>
</g>
<!-- Note -->
<g id="node9" class="node"><title>Note</title>
<path fill="none" stroke="black" d="M994,-144.5C994,-144.5 1104,-144.5 1104,-144.5 1110,-144.5 1116,-150.5 1116,-156.5 1116,-156.5 1116,-283.5 1116,-283.5 1116,-289.5 1110,-295.5 1104,-295.5 1104,-295.5 994,-295.5 994,-295.5 988,-295.5 982,-289.5 982,-283.5 982,-283.5 982,-156.5 982,-156.5 982,-150.5 988,-144.5 994,-144.5"/>
<text text-anchor="middle" x="1049" y="-280.3" font-family="Times,serif" font-size="14.00">Note</text>
<polyline fill="none" stroke="black" points="982,-272.5 1116,-272.5 "/>
<text text-anchor="start" x="990" y="-257.3" font-family="Times,serif" font-size="14.00">id :integer</text>
<text text-anchor="start" x="990" y="-242.3" font-family="Times,serif" font-size="14.00">notable_id :integer</text>
<text text-anchor="start" x="990" y="-227.3" font-family="Times,serif" font-size="14.00">notable_type :string</text>
<text text-anchor="start" x="990" y="-212.3" font-family="Times,serif" font-size="14.00">content :text</text>
<text text-anchor="start" x="990" y="-197.3" font-family="Times,serif" font-size="14.00">startDate :datetime</text>
<text text-anchor="start" x="990" y="-182.3" font-family="Times,serif" font-size="14.00">endDate :datetime</text>
<text text-anchor="start" x="990" y="-167.3" font-family="Times,serif" font-size="14.00">created_at :datetime</text>
<text text-anchor="start" x="990" y="-152.3" font-family="Times,serif" font-size="14.00">updated_at :datetime</text>
</g>
<!-- Addendum&#45;&gt;Note -->
<g id="edge1" class="edge"><title>Addendum&#45;&gt;Note</title>
<path fill="none" stroke="#a6ccf0" d="M926.747,-364.228C943.972,-344.048 962,-322.926 978.758,-303.293"/>
<ellipse fill="none" stroke="#a6ccf0" cx="924.139" cy="-367.283" rx="4.00002" ry="4.00002"/>
<polygon fill="#a6ccf0" stroke="#a6ccf0" points="978.868,-303.165 988.783,-298.48 982.114,-299.362 985.36,-295.559 985.36,-295.559 985.36,-295.559 982.114,-299.362 981.937,-292.637 978.868,-303.165 978.868,-303.165"/>
</g>
<!-- DailyDataEmployee -->
<g id="node3" class="node"><title>DailyDataEmployee</title>
<path fill="none" stroke="black" d="M1191.5,-167C1191.5,-167 1302.5,-167 1302.5,-167 1308.5,-167 1314.5,-173 1314.5,-179 1314.5,-179 1314.5,-261 1314.5,-261 1314.5,-267 1308.5,-273 1302.5,-273 1302.5,-273 1191.5,-273 1191.5,-273 1185.5,-273 1179.5,-267 1179.5,-261 1179.5,-261 1179.5,-179 1179.5,-179 1179.5,-173 1185.5,-167 1191.5,-167"/>
<text text-anchor="middle" x="1247" y="-257.8" font-family="Times,serif" font-size="14.00">DailyDataEmployee</text>
<polyline fill="none" stroke="black" points="1179.5,-250 1314.5,-250 "/>
<text text-anchor="start" x="1187.5" y="-234.8" font-family="Times,serif" font-size="14.00">id :integer</text>
<text text-anchor="start" x="1187.5" y="-219.8" font-family="Times,serif" font-size="14.00">employee_id :integer</text>
<text text-anchor="start" x="1187.5" y="-204.8" font-family="Times,serif" font-size="14.00">dailyData_id :integer</text>
<text text-anchor="start" x="1187.5" y="-189.8" font-family="Times,serif" font-size="14.00">created_at :datetime</text>
<text text-anchor="start" x="1187.5" y="-174.8" font-family="Times,serif" font-size="14.00">updated_at :datetime</text>
</g>
<!-- DailyDataVehicle -->
<g id="node4" class="node"><title>DailyDataVehicle</title>
<path fill="none" stroke="black" d="M571,-174.5C571,-174.5 681,-174.5 681,-174.5 687,-174.5 693,-180.5 693,-186.5 693,-186.5 693,-253.5 693,-253.5 693,-259.5 687,-265.5 681,-265.5 681,-265.5 571,-265.5 571,-265.5 565,-265.5 559,-259.5 559,-253.5 559,-253.5 559,-186.5 559,-186.5 559,-180.5 565,-174.5 571,-174.5"/>
<text text-anchor="middle" x="626" y="-250.3" font-family="Times,serif" font-size="14.00">DailyDataVehicle</text>
<polyline fill="none" stroke="black" points="559,-242.5 693,-242.5 "/>
<text text-anchor="start" x="567" y="-227.3" font-family="Times,serif" font-size="14.00">id :integer</text>
<text text-anchor="start" x="567" y="-212.3" font-family="Times,serif" font-size="14.00">vehicle_id :integer</text>
<text text-anchor="start" x="567" y="-197.3" font-family="Times,serif" font-size="14.00">created_at :datetime</text>
<text text-anchor="start" x="567" y="-182.3" font-family="Times,serif" font-size="14.00">updated_at :datetime</text>
</g>
<!-- DailyDatum -->
<g id="node5" class="node"><title>DailyDatum</title>
<path fill="none" stroke="black" d="M922,-626.5C922,-626.5 1086,-626.5 1086,-626.5 1092,-626.5 1098,-632.5 1098,-638.5 1098,-638.5 1098,-855.5 1098,-855.5 1098,-861.5 1092,-867.5 1086,-867.5 1086,-867.5 922,-867.5 922,-867.5 916,-867.5 910,-861.5 910,-855.5 910,-855.5 910,-638.5 910,-638.5 910,-632.5 916,-626.5 922,-626.5"/>
<text text-anchor="middle" x="1004" y="-852.3" font-family="Times,serif" font-size="14.00">DailyDatum</text>
<polyline fill="none" stroke="black" points="910,-844.5 1098,-844.5 "/>
<text text-anchor="start" x="918" y="-829.3" font-family="Times,serif" font-size="14.00">id :integer</text>
<text text-anchor="start" x="918" y="-814.3" font-family="Times,serif" font-size="14.00">deliveryStop :integer</text>
<text text-anchor="start" x="918" y="-799.3" font-family="Times,serif" font-size="14.00">deliveryPackage :integer</text>
<text text-anchor="start" x="918" y="-784.3" font-family="Times,serif" font-size="14.00">pickupStop :integer</text>
<text text-anchor="start" x="918" y="-769.3" font-family="Times,serif" font-size="14.00">pickupPackage :integer</text>
<text text-anchor="start" x="918" y="-754.3" font-family="Times,serif" font-size="14.00">calltag :integer</text>
<text text-anchor="start" x="918" y="-739.3" font-family="Times,serif" font-size="14.00">didNotAttempt :integer</text>
<text text-anchor="start" x="918" y="-724.3" font-family="Times,serif" font-size="14.00">inboundLocalService :decimal</text>
<text text-anchor="start" x="918" y="-709.3" font-family="Times,serif" font-size="14.00">earlyPickUp :integer</text>
<text text-anchor="start" x="918" y="-694.3" font-family="Times,serif" font-size="14.00">latePickUp :integer</text>
<text text-anchor="start" x="918" y="-679.3" font-family="Times,serif" font-size="14.00">startTime :datetime</text>
<text text-anchor="start" x="918" y="-664.3" font-family="Times,serif" font-size="14.00">endTime :datetime</text>
<text text-anchor="start" x="918" y="-649.3" font-family="Times,serif" font-size="14.00">created_at :datetime</text>
<text text-anchor="start" x="918" y="-634.3" font-family="Times,serif" font-size="14.00">updated_at :datetime</text>
</g>
<!-- DailyDatum&#45;&gt;Note -->
<g id="edge2" class="edge"><title>DailyDatum&#45;&gt;Note</title>
<path fill="none" stroke="#ec6d04" d="M1004.47,-618.018C1006.18,-535.947 1011.06,-427.306 1024,-332 1025.17,-323.396 1026.67,-314.474 1028.36,-305.597"/>
<ellipse fill="none" stroke="#ec6d04" cx="1004.39" cy="-622.379" rx="4" ry="4"/>
<polygon fill="#ec6d04" stroke="#ec6d04" points="1028.4,-305.422 1034.76,-296.488 1029.37,-300.517 1030.34,-295.613 1030.34,-295.613 1030.34,-295.613 1029.37,-300.517 1025.93,-294.738 1028.4,-305.422 1028.4,-305.422"/>
</g>
<!-- DailyDatum&#45;&gt;DailyDataVehicle -->
<g id="edge3" class="edge"><title>DailyDatum&#45;&gt;DailyDataVehicle</title>
<path fill="none" stroke="#ba6b44" d="M903.078,-650.583C890.195,-641.341 876.704,-632.868 863,-626 798.611,-593.732 754.009,-642.776 705,-590 665.543,-547.51 680.23,-388.211 666,-332 661.249,-313.235 654.555,-293.198 648,-275.386"/>
<ellipse fill="none" stroke="#ba6b44" cx="906.531" cy="-653.116" rx="4.00002" ry="4.00002"/>
<polygon fill="#ba6b44" stroke="#ba6b44" points="647.895,-275.105 648.6,-264.162 646.141,-270.423 644.386,-265.741 644.386,-265.741 644.386,-265.741 646.141,-270.423 640.172,-267.32 647.895,-275.105 647.895,-275.105"/>
</g>
<!-- Vehicle -->
<g id="node20" class="node"><title>Vehicle</title>
<path fill="none" stroke="black" d="M486.5,-333C486.5,-333 645.5,-333 645.5,-333 651.5,-333 657.5,-339 657.5,-345 657.5,-345 657.5,-577 657.5,-577 657.5,-583 651.5,-589 645.5,-589 645.5,-589 486.5,-589 486.5,-589 480.5,-589 474.5,-583 474.5,-577 474.5,-577 474.5,-345 474.5,-345 474.5,-339 480.5,-333 486.5,-333"/>
<text text-anchor="middle" x="566" y="-573.8" font-family="Times,serif" font-size="14.00">Vehicle</text>
<polyline fill="none" stroke="black" points="474.5,-566 657.5,-566 "/>
<text text-anchor="start" x="482.5" y="-550.8" font-family="Times,serif" font-size="14.00">id :integer</text>
<text text-anchor="start" x="482.5" y="-535.8" font-family="Times,serif" font-size="14.00">fedexVehicleNumber :integer</text>
<text text-anchor="start" x="482.5" y="-520.8" font-family="Times,serif" font-size="14.00">fedexVehicleName :string</text>
<text text-anchor="start" x="482.5" y="-505.8" font-family="Times,serif" font-size="14.00">contractorNumber :integer</text>
<text text-anchor="start" x="482.5" y="-490.8" font-family="Times,serif" font-size="14.00">contractorName :string</text>
<text text-anchor="start" x="482.5" y="-475.8" font-family="Times,serif" font-size="14.00">vin :string</text>
<text text-anchor="start" x="482.5" y="-460.8" font-family="Times,serif" font-size="14.00">startDate :datetime</text>
<text text-anchor="start" x="482.5" y="-445.8" font-family="Times,serif" font-size="14.00">endDate :datetime</text>
<text text-anchor="start" x="482.5" y="-430.8" font-family="Times,serif" font-size="14.00">activeBoolean :boolean</text>
<text text-anchor="start" x="482.5" y="-415.8" font-family="Times,serif" font-size="14.00">vehicleType_id :integer</text>
<text text-anchor="start" x="482.5" y="-400.8" font-family="Times,serif" font-size="14.00">vehicleFuel_id :integer</text>
<text text-anchor="start" x="482.5" y="-385.8" font-family="Times,serif" font-size="14.00">vehicleOdometer_id :integer</text>
<text text-anchor="start" x="482.5" y="-370.8" font-family="Times,serif" font-size="14.00">created_at :datetime</text>
<text text-anchor="start" x="482.5" y="-355.8" font-family="Times,serif" font-size="14.00">updated_at :datetime</text>
<text text-anchor="start" x="482.5" y="-340.8" font-family="Times,serif" font-size="14.00">service_type_id :integer</text>
</g>
<!-- DailyDatum&#45;&gt;Vehicle -->
<g id="edge4" class="edge"><title>DailyDatum&#45;&gt;Vehicle</title>
<path fill="none" stroke="#f0c790" d="M901.215,-648.582C888.925,-640.019 876.079,-632.249 863,-626 785.055,-588.761 746.413,-633.872 672,-590 670.031,-588.839 668.082,-587.628 666.155,-586.37"/>
<polygon fill="#f0c790" stroke="#f0c790" points="901.509,-648.793 907.005,-658.282 905.57,-651.71 909.63,-654.627 909.63,-654.627 909.63,-654.627 905.57,-651.71 912.256,-650.973 901.509,-648.793 901.509,-648.793"/>
<polygon fill="#f0c790" stroke="#f0c790" points="666.041,-586.29 660.414,-576.878 661.94,-583.43 657.839,-580.569 657.839,-580.569 657.839,-580.569 661.94,-583.43 655.265,-584.26 666.041,-586.29 666.041,-586.29"/>
</g>
<!-- DailyDatum&#45;&gt;DailyDataEmployee -->
<g id="edge5" class="edge"><title>DailyDatum&#45;&gt;DailyDataEmployee</title>
<path fill="none" stroke="#c28b81" d="M1105.5,-711.908C1161.21,-687.394 1225.42,-648.244 1258,-590 1311.75,-493.911 1288.41,-360.622 1267.24,-283.326"/>
<ellipse fill="none" stroke="#c28b81" cx="1101.73" cy="-713.537" rx="4.00002" ry="4.00002"/>
<polygon fill="#c28b81" stroke="#c28b81" points="1267.11,-282.889 1268.74,-272.044 1265.76,-278.076 1264.41,-273.262 1264.41,-273.262 1264.41,-273.262 1265.76,-278.076 1260.07,-274.481 1267.11,-282.889 1267.11,-282.889"/>
</g>
<!-- Employee -->
<g id="node6" class="node"><title>Employee</title>
<path fill="none" stroke="black" d="M1318.5,-348C1318.5,-348 1459.5,-348 1459.5,-348 1465.5,-348 1471.5,-354 1471.5,-360 1471.5,-360 1471.5,-562 1471.5,-562 1471.5,-568 1465.5,-574 1459.5,-574 1459.5,-574 1318.5,-574 1318.5,-574 1312.5,-574 1306.5,-568 1306.5,-562 1306.5,-562 1306.5,-360 1306.5,-360 1306.5,-354 1312.5,-348 1318.5,-348"/>
<text text-anchor="middle" x="1389" y="-558.8" font-family="Times,serif" font-size="14.00">Employee</text>
<polyline fill="none" stroke="black" points="1306.5,-551 1471.5,-551 "/>
<text text-anchor="start" x="1314.5" y="-535.8" font-family="Times,serif" font-size="14.00">id :integer</text>
<text text-anchor="start" x="1314.5" y="-520.8" font-family="Times,serif" font-size="14.00">firstName :string</text>
<text text-anchor="start" x="1314.5" y="-505.8" font-family="Times,serif" font-size="14.00">lastName :string</text>
<text text-anchor="start" x="1314.5" y="-490.8" font-family="Times,serif" font-size="14.00">fedexNumber :integer</text>
<text text-anchor="start" x="1314.5" y="-475.8" font-family="Times,serif" font-size="14.00">contractorNumber :integer</text>
<text text-anchor="start" x="1314.5" y="-460.8" font-family="Times,serif" font-size="14.00">hireDate :date</text>
<text text-anchor="start" x="1314.5" y="-445.8" font-family="Times,serif" font-size="14.00">dateOfBirth :date</text>
<text text-anchor="start" x="1314.5" y="-430.8" font-family="Times,serif" font-size="14.00">activeBoolean :boolean</text>
<text text-anchor="start" x="1314.5" y="-415.8" font-family="Times,serif" font-size="14.00">startDate :datetime</text>
<text text-anchor="start" x="1314.5" y="-400.8" font-family="Times,serif" font-size="14.00">endDate :datetime</text>
<text text-anchor="start" x="1314.5" y="-385.8" font-family="Times,serif" font-size="14.00">terminationDate :datetime</text>
<text text-anchor="start" x="1314.5" y="-370.8" font-family="Times,serif" font-size="14.00">created_at :datetime</text>
<text text-anchor="start" x="1314.5" y="-355.8" font-family="Times,serif" font-size="14.00">updated_at :datetime</text>
</g>
<!-- DailyDatum&#45;&gt;Employee -->
<g id="edge6" class="edge"><title>DailyDatum&#45;&gt;Employee</title>
<path fill="none" stroke="#f9f7f3" d="M1107.35,-703.195C1165.41,-676.063 1237.02,-637.199 1292,-590 1295.21,-587.242 1298.39,-584.36 1301.51,-581.38"/>
<polygon fill="#f9f7f3" stroke="#f9f7f3" points="1107.23,-703.251 1096.27,-703.364 1102.7,-705.35 1098.16,-707.449 1098.16,-707.449 1098.16,-707.449 1102.7,-705.35 1100.05,-711.533 1107.23,-703.251 1107.23,-703.251"/>
<polygon fill="#f9f7f3" stroke="#f9f7f3" points="1301.61,-581.286 1311.88,-577.459 1305.17,-577.772 1308.72,-574.258 1308.72,-574.258 1308.72,-574.258 1305.17,-577.772 1305.56,-571.057 1301.61,-581.286 1301.61,-581.286"/>
</g>
<!-- Employee&#45;&gt;Note -->
<g id="edge7" class="edge"><title>Employee&#45;&gt;Note</title>
<path fill="none" stroke="#268ece" d="M1300.27,-364.755C1286.78,-352.877 1272.5,-341.565 1258,-332 1223.07,-308.96 1208.28,-315.018 1171,-296 1155.82,-288.255 1140.02,-279.28 1125.02,-270.29"/>
<ellipse fill="none" stroke="#268ece" cx="1303.43" cy="-367.581" rx="4.00002" ry="4.00002"/>
<polygon fill="#268ece" stroke="#268ece" points="1124.85,-270.185 1118.63,-261.155 1120.57,-267.594 1116.3,-265.004 1116.3,-265.004 1116.3,-265.004 1120.57,-267.594 1113.97,-268.852 1124.85,-270.185 1124.85,-270.185"/>
</g>
<!-- User -->
<g id="node18" class="node"><title>User</title>
<path fill="none" stroke="black" d="M1345,-159.5C1345,-159.5 1493,-159.5 1493,-159.5 1499,-159.5 1505,-165.5 1505,-171.5 1505,-171.5 1505,-268.5 1505,-268.5 1505,-274.5 1499,-280.5 1493,-280.5 1493,-280.5 1345,-280.5 1345,-280.5 1339,-280.5 1333,-274.5 1333,-268.5 1333,-268.5 1333,-171.5 1333,-171.5 1333,-165.5 1339,-159.5 1345,-159.5"/>
<text text-anchor="middle" x="1419" y="-265.3" font-family="Times,serif" font-size="14.00">User</text>
<polyline fill="none" stroke="black" points="1333,-257.5 1505,-257.5 "/>
<text text-anchor="start" x="1341" y="-242.3" font-family="Times,serif" font-size="14.00">id :integer</text>
<text text-anchor="start" x="1341" y="-227.3" font-family="Times,serif" font-size="14.00">contractorBoolean :boolean</text>
<text text-anchor="start" x="1341" y="-212.3" font-family="Times,serif" font-size="14.00">activeBoolean :boolean</text>
<text text-anchor="start" x="1341" y="-197.3" font-family="Times,serif" font-size="14.00">employee_id :integer</text>
<text text-anchor="start" x="1341" y="-182.3" font-family="Times,serif" font-size="14.00">created_at :datetime</text>
<text text-anchor="start" x="1341" y="-167.3" font-family="Times,serif" font-size="14.00">updated_at :datetime</text>
</g>
<!-- Employee&#45;&gt;User -->
<g id="edge8" class="edge"><title>Employee&#45;&gt;User</title>
<path fill="none" stroke="#a7c91d" d="M1404.1,-339.694C1406.29,-322.251 1408.48,-304.83 1410.47,-288.919"/>
<ellipse fill="none" stroke="#a7c91d" cx="1403.58" cy="-343.879" rx="4.00001" ry="4.00001"/>
<ellipse fill="#a7c91d" stroke="#a7c91d" cx="1411" cy="-284.713" rx="4.00001" ry="4.00001"/>
</g>
<!-- Employee&#45;&gt;DailyDataEmployee -->
<g id="edge9" class="edge"><title>Employee&#45;&gt;DailyDataEmployee</title>
<path fill="none" stroke="#926c59" d="M1318.19,-340.812C1306.05,-320.382 1293.9,-299.941 1283.17,-281.875"/>
<ellipse fill="none" stroke="#926c59" cx="1320.32" cy="-344.409" rx="4.00002" ry="4.00002"/>
<polygon fill="#926c59" stroke="#926c59" points="1283.13,-281.805 1281.89,-270.909 1280.57,-277.506 1278.02,-273.208 1278.02,-273.208 1278.02,-273.208 1280.57,-277.506 1274.15,-275.506 1283.13,-281.805 1283.13,-281.805"/>
</g>
<!-- EmployeePsa -->
<g id="node7" class="node"><title>EmployeePsa</title>
<path fill="none" stroke="black" d="M1645,-671.5C1645,-671.5 1769,-671.5 1769,-671.5 1775,-671.5 1781,-677.5 1781,-683.5 1781,-683.5 1781,-810.5 1781,-810.5 1781,-816.5 1775,-822.5 1769,-822.5 1769,-822.5 1645,-822.5 1645,-822.5 1639,-822.5 1633,-816.5 1633,-810.5 1633,-810.5 1633,-683.5 1633,-683.5 1633,-677.5 1639,-671.5 1645,-671.5"/>
<text text-anchor="middle" x="1707" y="-807.3" font-family="Times,serif" font-size="14.00">EmployeePsa</text>
<polyline fill="none" stroke="black" points="1633,-799.5 1781,-799.5 "/>
<text text-anchor="start" x="1641" y="-784.3" font-family="Times,serif" font-size="14.00">id :integer</text>
<text text-anchor="start" x="1641" y="-769.3" font-family="Times,serif" font-size="14.00">startDate :datetime</text>
<text text-anchor="start" x="1641" y="-754.3" font-family="Times,serif" font-size="14.00">endDate :datetime</text>
<text text-anchor="start" x="1641" y="-739.3" font-family="Times,serif" font-size="14.00">activeBoolean :boolean</text>
<text text-anchor="start" x="1641" y="-724.3" font-family="Times,serif" font-size="14.00">employee_id :integer</text>
<text text-anchor="start" x="1641" y="-709.3" font-family="Times,serif" font-size="14.00">psa_id :integer</text>
<text text-anchor="start" x="1641" y="-694.3" font-family="Times,serif" font-size="14.00">created_at :datetime</text>
<text text-anchor="start" x="1641" y="-679.3" font-family="Times,serif" font-size="14.00">updated_at :datetime</text>
</g>
<!-- FedexContract -->
<g id="node8" class="node"><title>FedexContract</title>
<path fill="none" stroke="black" d="M1413,-656.5C1413,-656.5 1603,-656.5 1603,-656.5 1609,-656.5 1615,-662.5 1615,-668.5 1615,-668.5 1615,-825.5 1615,-825.5 1615,-831.5 1609,-837.5 1603,-837.5 1603,-837.5 1413,-837.5 1413,-837.5 1407,-837.5 1401,-831.5 1401,-825.5 1401,-825.5 1401,-668.5 1401,-668.5 1401,-662.5 1407,-656.5 1413,-656.5"/>
<text text-anchor="middle" x="1508" y="-822.3" font-family="Times,serif" font-size="14.00">FedexContract</text>
<polyline fill="none" stroke="black" points="1401,-814.5 1615,-814.5 "/>
<text text-anchor="start" x="1409" y="-799.3" font-family="Times,serif" font-size="14.00">id :integer</text>
<text text-anchor="start" x="1409" y="-784.3" font-family="Times,serif" font-size="14.00">fedexContractName :string</text>
<text text-anchor="start" x="1409" y="-769.3" font-family="Times,serif" font-size="14.00">fedexContractNumber :integer</text>
<text text-anchor="start" x="1409" y="-754.3" font-family="Times,serif" font-size="14.00">contractorContractName :string</text>
<text text-anchor="start" x="1409" y="-739.3" font-family="Times,serif" font-size="14.00">contractorContractNumber :integer</text>
<text text-anchor="start" x="1409" y="-724.3" font-family="Times,serif" font-size="14.00">content :text</text>
<text text-anchor="start" x="1409" y="-709.3" font-family="Times,serif" font-size="14.00">startDate :datetime</text>
<text text-anchor="start" x="1409" y="-694.3" font-family="Times,serif" font-size="14.00">endDate :datetime</text>
<text text-anchor="start" x="1409" y="-679.3" font-family="Times,serif" font-size="14.00">created_at :datetime</text>
<text text-anchor="start" x="1409" y="-664.3" font-family="Times,serif" font-size="14.00">updated_at :datetime</text>
</g>
<!-- FedexContract&#45;&gt;Employee -->
<g id="edge10" class="edge"><title>FedexContract&#45;&gt;Employee</title>
<path fill="none" stroke="#558cef" d="M1467.26,-648.76C1458.46,-627.769 1449.05,-605.324 1439.93,-583.536"/>
<ellipse fill="none" stroke="#558cef" cx="1468.8" cy="-652.451" rx="4.00002" ry="4.00002"/>
<polygon fill="#558cef" stroke="#558cef" points="1439.9,-583.467 1440.18,-572.505 1437.96,-578.856 1436.03,-574.244 1436.03,-574.244 1436.03,-574.244 1437.96,-578.856 1431.88,-575.983 1439.9,-583.467 1439.9,-583.467"/>
</g>
<!-- Psa -->
<g id="node10" class="node"><title>Psa</title>
<path fill="none" stroke="black" d="M1544.5,-370.5C1544.5,-370.5 1711.5,-370.5 1711.5,-370.5 1717.5,-370.5 1723.5,-376.5 1723.5,-382.5 1723.5,-382.5 1723.5,-539.5 1723.5,-539.5 1723.5,-545.5 1717.5,-551.5 1711.5,-551.5 1711.5,-551.5 1544.5,-551.5 1544.5,-551.5 1538.5,-551.5 1532.5,-545.5 1532.5,-539.5 1532.5,-539.5 1532.5,-382.5 1532.5,-382.5 1532.5,-376.5 1538.5,-370.5 1544.5,-370.5"/>
<text text-anchor="middle" x="1628" y="-536.3" font-family="Times,serif" font-size="14.00">Psa</text>
<polyline fill="none" stroke="black" points="1532.5,-528.5 1723.5,-528.5 "/>
<text text-anchor="start" x="1540.5" y="-513.3" font-family="Times,serif" font-size="14.00">id :integer</text>
<text text-anchor="start" x="1540.5" y="-498.3" font-family="Times,serif" font-size="14.00">fedexPSAName :string</text>
<text text-anchor="start" x="1540.5" y="-483.3" font-family="Times,serif" font-size="14.00">fedexPSANumber :integer</text>
<text text-anchor="start" x="1540.5" y="-468.3" font-family="Times,serif" font-size="14.00">contractorPSAName :string</text>
<text text-anchor="start" x="1540.5" y="-453.3" font-family="Times,serif" font-size="14.00">contractorPSANumber :integer</text>
<text text-anchor="start" x="1540.5" y="-438.3" font-family="Times,serif" font-size="14.00">activeBoolean :boolean</text>
<text text-anchor="start" x="1540.5" y="-423.3" font-family="Times,serif" font-size="14.00">startDate :datetime</text>
<text text-anchor="start" x="1540.5" y="-408.3" font-family="Times,serif" font-size="14.00">endDate :datetime</text>
<text text-anchor="start" x="1540.5" y="-393.3" font-family="Times,serif" font-size="14.00">created_at :datetime</text>
<text text-anchor="start" x="1540.5" y="-378.3" font-family="Times,serif" font-size="14.00">updated_at :datetime</text>
</g>
<!-- FedexContract&#45;&gt;Psa -->
<g id="edge11" class="edge"><title>FedexContract&#45;&gt;Psa</title>
<path fill="none" stroke="#24e32b" d="M1549.13,-648.653C1561.06,-620.436 1574.08,-589.6 1586.06,-561.267"/>
<ellipse fill="none" stroke="#24e32b" cx="1547.53" cy="-652.456" rx="4.00002" ry="4.00002"/>
<polygon fill="#24e32b" stroke="#24e32b" points="1586.18,-560.973 1594.22,-553.513 1588.13,-556.368 1590.07,-551.762 1590.07,-551.762 1590.07,-551.762 1588.13,-556.368 1585.93,-550.01 1586.18,-560.973 1586.18,-560.973"/>
</g>
<!-- Psazip -->
<g id="node12" class="node"><title>Psazip</title>
<path fill="none" stroke="black" d="M1540,-1C1540,-1 1650,-1 1650,-1 1656,-1 1662,-7 1662,-13 1662,-13 1662,-95 1662,-95 1662,-101 1656,-107 1650,-107 1650,-107 1540,-107 1540,-107 1534,-107 1528,-101 1528,-95 1528,-95 1528,-13 1528,-13 1528,-7 1534,-1 1540,-1"/>
<text text-anchor="middle" x="1595" y="-91.8" font-family="Times,serif" font-size="14.00">Psazip</text>
<polyline fill="none" stroke="black" points="1528,-84 1662,-84 "/>
<text text-anchor="start" x="1536" y="-68.8" font-family="Times,serif" font-size="14.00">id :integer</text>
<text text-anchor="start" x="1536" y="-53.8" font-family="Times,serif" font-size="14.00">psa_id :integer</text>
<text text-anchor="start" x="1536" y="-38.8" font-family="Times,serif" font-size="14.00">zip_id :integer</text>
<text text-anchor="start" x="1536" y="-23.8" font-family="Times,serif" font-size="14.00">created_at :datetime</text>
<text text-anchor="start" x="1536" y="-8.8" font-family="Times,serif" font-size="14.00">updated_at :datetime</text>
</g>
<!-- Psa&#45;&gt;Psazip -->
<g id="edge12" class="edge"><title>Psa&#45;&gt;Psazip</title>
<path fill="none" stroke="#da4f1b" d="M1574.54,-362.612C1565.21,-341.259 1556.93,-318.342 1552,-296 1537.46,-230.028 1536.93,-209.852 1552,-144 1554.1,-134.813 1557.28,-125.471 1560.98,-116.465"/>
<ellipse fill="none" stroke="#da4f1b" cx="1576.25" cy="-366.443" rx="4.00002" ry="4.00002"/>
<polygon fill="#da4f1b" stroke="#da4f1b" points="1561.01,-116.391 1569.13,-109.014 1563.01,-111.806 1565,-107.22 1565,-107.22 1565,-107.22 1563.01,-111.806 1560.87,-105.427 1561.01,-116.391 1561.01,-116.391"/>
</g>
<!-- Zip -->
<g id="node24" class="node"><title>Zip</title>
<path fill="none" stroke="black" d="M1573,-174.5C1573,-174.5 1683,-174.5 1683,-174.5 1689,-174.5 1695,-180.5 1695,-186.5 1695,-186.5 1695,-253.5 1695,-253.5 1695,-259.5 1689,-265.5 1683,-265.5 1683,-265.5 1573,-265.5 1573,-265.5 1567,-265.5 1561,-259.5 1561,-253.5 1561,-253.5 1561,-186.5 1561,-186.5 1561,-180.5 1567,-174.5 1573,-174.5"/>
<text text-anchor="middle" x="1628" y="-250.3" font-family="Times,serif" font-size="14.00">Zip</text>
<polyline fill="none" stroke="black" points="1561,-242.5 1695,-242.5 "/>
<text text-anchor="start" x="1569" y="-227.3" font-family="Times,serif" font-size="14.00">id :integer</text>
<text text-anchor="start" x="1569" y="-212.3" font-family="Times,serif" font-size="14.00">zip :string</text>
<text text-anchor="start" x="1569" y="-197.3" font-family="Times,serif" font-size="14.00">created_at :datetime</text>
<text text-anchor="start" x="1569" y="-182.3" font-family="Times,serif" font-size="14.00">updated_at :datetime</text>
</g>
<!-- Psa&#45;&gt;Zip -->
<g id="edge13" class="edge"><title>Psa&#45;&gt;Zip</title>
<path fill="none" stroke="#45e8e3" d="M1628,-360.178C1628,-331.222 1628,-300.68 1628,-275.608"/>
<polygon fill="#45e8e3" stroke="#45e8e3" points="1628,-360.325 1623.5,-370.325 1628,-365.325 1628,-370.325 1628,-370.325 1628,-370.325 1628,-365.325 1632.5,-370.325 1628,-360.325 1628,-360.325"/>
<polygon fill="#45e8e3" stroke="#45e8e3" points="1628,-275.575 1632.5,-265.575 1628,-270.575 1628,-265.575 1628,-265.575 1628,-265.575 1628,-270.575 1623.5,-265.575 1628,-275.575 1628,-275.575"/>
</g>
<!-- PsaState -->
<g id="node11" class="node"><title>PsaState</title>
<path fill="none" stroke="black" d="M1739,-1C1739,-1 1849,-1 1849,-1 1855,-1 1861,-7 1861,-13 1861,-13 1861,-95 1861,-95 1861,-101 1855,-107 1849,-107 1849,-107 1739,-107 1739,-107 1733,-107 1727,-101 1727,-95 1727,-95 1727,-13 1727,-13 1727,-7 1733,-1 1739,-1"/>
<text text-anchor="middle" x="1794" y="-91.8" font-family="Times,serif" font-size="14.00">PsaState</text>
<polyline fill="none" stroke="black" points="1727,-84 1861,-84 "/>
<text text-anchor="start" x="1735" y="-68.8" font-family="Times,serif" font-size="14.00">id :integer</text>
<text text-anchor="start" x="1735" y="-53.8" font-family="Times,serif" font-size="14.00">psa_id :integer</text>
<text text-anchor="start" x="1735" y="-38.8" font-family="Times,serif" font-size="14.00">state_id :integer</text>
<text text-anchor="start" x="1735" y="-23.8" font-family="Times,serif" font-size="14.00">created_at :datetime</text>
<text text-anchor="start" x="1735" y="-8.8" font-family="Times,serif" font-size="14.00">updated_at :datetime</text>
</g>
<!-- Psa&#45;&gt;PsaState -->
<g id="edge14" class="edge"><title>Psa&#45;&gt;PsaState</title>
<path fill="none" stroke="#3f2874" d="M1676.67,-362.888C1686.51,-341.191 1696.21,-318.065 1704,-296 1727.19,-230.339 1715.73,-208.488 1742,-144 1745.75,-134.802 1750.31,-125.409 1755.17,-116.338"/>
<ellipse fill="none" stroke="#3f2874" cx="1674.99" cy="-366.55" rx="4.00002" ry="4.00002"/>
<polygon fill="#3f2874" stroke="#3f2874" points="1755.27,-116.151 1764.04,-109.566 1757.69,-111.773 1760.1,-107.394 1760.1,-107.394 1760.1,-107.394 1757.69,-111.773 1756.16,-105.221 1755.27,-116.151 1755.27,-116.151"/>
</g>
<!-- State -->
<g id="node16" class="node"><title>State</title>
<path fill="none" stroke="black" d="M1763,-167C1763,-167 1873,-167 1873,-167 1879,-167 1885,-173 1885,-179 1885,-179 1885,-261 1885,-261 1885,-267 1879,-273 1873,-273 1873,-273 1763,-273 1763,-273 1757,-273 1751,-267 1751,-261 1751,-261 1751,-179 1751,-179 1751,-173 1757,-167 1763,-167"/>
<text text-anchor="middle" x="1818" y="-257.8" font-family="Times,serif" font-size="14.00">State</text>
<polyline fill="none" stroke="black" points="1751,-250 1885,-250 "/>
<text text-anchor="start" x="1759" y="-234.8" font-family="Times,serif" font-size="14.00">id :integer</text>
<text text-anchor="start" x="1759" y="-219.8" font-family="Times,serif" font-size="14.00">state :string</text>
<text text-anchor="start" x="1759" y="-204.8" font-family="Times,serif" font-size="14.00">abbreviation :string</text>
<text text-anchor="start" x="1759" y="-189.8" font-family="Times,serif" font-size="14.00">created_at :datetime</text>
<text text-anchor="start" x="1759" y="-174.8" font-family="Times,serif" font-size="14.00">updated_at :datetime</text>
</g>
<!-- Psa&#45;&gt;State -->
<g id="edge15" class="edge"><title>Psa&#45;&gt;State</title>
<path fill="none" stroke="#2d2adc" d="M1705.74,-362.215C1727.48,-334.861 1750.48,-305.936 1769.95,-281.436"/>
<polygon fill="#2d2adc" stroke="#2d2adc" points="1705.51,-362.497 1695.77,-367.525 1702.4,-366.411 1699.29,-370.325 1699.29,-370.325 1699.29,-370.325 1702.4,-366.411 1702.81,-373.126 1705.51,-362.497 1705.51,-362.497"/>
<polygon fill="#2d2adc" stroke="#2d2adc" points="1770.2,-281.133 1779.94,-276.106 1773.31,-277.219 1776.42,-273.305 1776.42,-273.305 1776.42,-273.305 1773.31,-277.219 1772.9,-270.505 1770.2,-281.133 1770.2,-281.133"/>
</g>
<!-- Region -->
<g id="node13" class="node"><title>Region</title>
<path fill="none" stroke="black" d="M1811,-671.5C1811,-671.5 1993,-671.5 1993,-671.5 1999,-671.5 2005,-677.5 2005,-683.5 2005,-683.5 2005,-810.5 2005,-810.5 2005,-816.5 1999,-822.5 1993,-822.5 1993,-822.5 1811,-822.5 1811,-822.5 1805,-822.5 1799,-816.5 1799,-810.5 1799,-810.5 1799,-683.5 1799,-683.5 1799,-677.5 1805,-671.5 1811,-671.5"/>
<text text-anchor="middle" x="1902" y="-807.3" font-family="Times,serif" font-size="14.00">Region</text>
<polyline fill="none" stroke="black" points="1799,-799.5 2005,-799.5 "/>
<text text-anchor="start" x="1807" y="-784.3" font-family="Times,serif" font-size="14.00">id :integer</text>
<text text-anchor="start" x="1807" y="-769.3" font-family="Times,serif" font-size="14.00">fedexRegionName :string</text>
<text text-anchor="start" x="1807" y="-754.3" font-family="Times,serif" font-size="14.00">fedexRegionNumber :integer</text>
<text text-anchor="start" x="1807" y="-739.3" font-family="Times,serif" font-size="14.00">fedexRegionPhone :string</text>
<text text-anchor="start" x="1807" y="-724.3" font-family="Times,serif" font-size="14.00">contractorRegionName :string</text>
<text text-anchor="start" x="1807" y="-709.3" font-family="Times,serif" font-size="14.00">contractorRegionNumber :integer</text>
<text text-anchor="start" x="1807" y="-694.3" font-family="Times,serif" font-size="14.00">created_at :datetime</text>
<text text-anchor="start" x="1807" y="-679.3" font-family="Times,serif" font-size="14.00">updated_at :datetime</text>
</g>
<!-- Role -->
<g id="node14" class="node"><title>Role</title>
<path fill="none" stroke="black" d="M2035,-701.5C2035,-701.5 2145,-701.5 2145,-701.5 2151,-701.5 2157,-707.5 2157,-713.5 2157,-713.5 2157,-780.5 2157,-780.5 2157,-786.5 2151,-792.5 2145,-792.5 2145,-792.5 2035,-792.5 2035,-792.5 2029,-792.5 2023,-786.5 2023,-780.5 2023,-780.5 2023,-713.5 2023,-713.5 2023,-707.5 2029,-701.5 2035,-701.5"/>
<text text-anchor="middle" x="2090" y="-777.3" font-family="Times,serif" font-size="14.00">Role</text>
<polyline fill="none" stroke="black" points="2023,-769.5 2157,-769.5 "/>
<text text-anchor="start" x="2031" y="-754.3" font-family="Times,serif" font-size="14.00">id :integer</text>
<text text-anchor="start" x="2031" y="-739.3" font-family="Times,serif" font-size="14.00">name :string</text>
<text text-anchor="start" x="2031" y="-724.3" font-family="Times,serif" font-size="14.00">created_at :datetime</text>
<text text-anchor="start" x="2031" y="-709.3" font-family="Times,serif" font-size="14.00">updated_at :datetime</text>
</g>
<!-- ServiceType -->
<g id="node15" class="node"><title>ServiceType</title>
<path fill="none" stroke="black" d="M396,-686.5C396,-686.5 506,-686.5 506,-686.5 512,-686.5 518,-692.5 518,-698.5 518,-698.5 518,-795.5 518,-795.5 518,-801.5 512,-807.5 506,-807.5 506,-807.5 396,-807.5 396,-807.5 390,-807.5 384,-801.5 384,-795.5 384,-795.5 384,-698.5 384,-698.5 384,-692.5 390,-686.5 396,-686.5"/>
<text text-anchor="middle" x="451" y="-792.3" font-family="Times,serif" font-size="14.00">ServiceType</text>
<polyline fill="none" stroke="black" points="384,-784.5 518,-784.5 "/>
<text text-anchor="start" x="392" y="-769.3" font-family="Times,serif" font-size="14.00">id :integer</text>
<text text-anchor="start" x="392" y="-754.3" font-family="Times,serif" font-size="14.00">serviceType :string</text>
<text text-anchor="start" x="392" y="-739.3" font-family="Times,serif" font-size="14.00">startDate :datetime</text>
<text text-anchor="start" x="392" y="-724.3" font-family="Times,serif" font-size="14.00">endDate :datetime</text>
<text text-anchor="start" x="392" y="-709.3" font-family="Times,serif" font-size="14.00">created_at :datetime</text>
<text text-anchor="start" x="392" y="-694.3" font-family="Times,serif" font-size="14.00">updated_at :datetime</text>
</g>
<!-- ServiceType&#45;&gt;Vehicle -->
<g id="edge16" class="edge"><title>ServiceType&#45;&gt;Vehicle</title>
<path fill="none" stroke="#4a1862" d="M478.129,-679.003C487.933,-654.792 499.388,-626.502 510.728,-598.498"/>
<ellipse fill="none" stroke="#4a1862" cx="476.609" cy="-682.757" rx="4.00002" ry="4.00002"/>
<polygon fill="#4a1862" stroke="#4a1862" points="510.813,-598.287 518.738,-590.707 512.69,-593.653 514.567,-589.018 514.567,-589.018 514.567,-589.018 512.69,-593.653 510.396,-587.329 510.813,-598.287 510.813,-598.287"/>
</g>
<!-- State&#45;&gt;PsaState -->
<g id="edge17" class="edge"><title>State&#45;&gt;PsaState</title>
<path fill="none" stroke="#741399" d="M1809.15,-158.498C1807.18,-145.059 1805.09,-130.791 1803.11,-117.282"/>
<ellipse fill="none" stroke="#741399" cx="1809.76" cy="-162.701" rx="4.00001" ry="4.00001"/>
<polygon fill="#741399" stroke="#741399" points="1803.08,-117.02 1806.08,-106.474 1802.35,-112.073 1801.63,-107.126 1801.63,-107.126 1801.63,-107.126 1802.35,-112.073 1797.18,-107.777 1803.08,-117.02 1803.08,-117.02"/>
</g>
<!-- Terminal -->
<g id="node17" class="node"><title>Terminal</title>
<path fill="none" stroke="black" d="M1044.5,-385.5C1044.5,-385.5 1237.5,-385.5 1237.5,-385.5 1243.5,-385.5 1249.5,-391.5 1249.5,-397.5 1249.5,-397.5 1249.5,-524.5 1249.5,-524.5 1249.5,-530.5 1243.5,-536.5 1237.5,-536.5 1237.5,-536.5 1044.5,-536.5 1044.5,-536.5 1038.5,-536.5 1032.5,-530.5 1032.5,-524.5 1032.5,-524.5 1032.5,-397.5 1032.5,-397.5 1032.5,-391.5 1038.5,-385.5 1044.5,-385.5"/>
<text text-anchor="middle" x="1141" y="-521.3" font-family="Times,serif" font-size="14.00">Terminal</text>
<polyline fill="none" stroke="black" points="1032.5,-513.5 1249.5,-513.5 "/>
<text text-anchor="start" x="1040.5" y="-498.3" font-family="Times,serif" font-size="14.00">id :integer</text>
<text text-anchor="start" x="1040.5" y="-483.3" font-family="Times,serif" font-size="14.00">fedexTerminalName :string</text>
<text text-anchor="start" x="1040.5" y="-468.3" font-family="Times,serif" font-size="14.00">fedexTerminalNumber :integer</text>
<text text-anchor="start" x="1040.5" y="-453.3" font-family="Times,serif" font-size="14.00">contractorTerminalName :string</text>
<text text-anchor="start" x="1040.5" y="-438.3" font-family="Times,serif" font-size="14.00">contractorTerminalNumber :integer</text>
<text text-anchor="start" x="1040.5" y="-423.3" font-family="Times,serif" font-size="14.00">colocationBoolean :boolean</text>
<text text-anchor="start" x="1040.5" y="-408.3" font-family="Times,serif" font-size="14.00">created_at :datetime</text>
<text text-anchor="start" x="1040.5" y="-393.3" font-family="Times,serif" font-size="14.00">updated_at :datetime</text>
</g>
<!-- Terminal&#45;&gt;Note -->
<g id="edge18" class="edge"><title>Terminal&#45;&gt;Note</title>
<path fill="none" stroke="#b18168" d="M1109.28,-377.593C1100.31,-354.283 1090.53,-328.883 1081.51,-305.455"/>
<ellipse fill="none" stroke="#b18168" cx="1110.83" cy="-381.629" rx="4.00001" ry="4.00001"/>
<polygon fill="#b18168" stroke="#b18168" points="1081.42,-305.226 1082.03,-294.277 1079.63,-300.56 1077.83,-295.894 1077.83,-295.894 1077.83,-295.894 1079.63,-300.56 1073.63,-297.51 1081.42,-305.226 1081.42,-305.226"/>
</g>
<!-- UserRole -->
<g id="node19" class="node"><title>UserRole</title>
<path fill="none" stroke="black" d="M1364,-1C1364,-1 1474,-1 1474,-1 1480,-1 1486,-7 1486,-13 1486,-13 1486,-95 1486,-95 1486,-101 1480,-107 1474,-107 1474,-107 1364,-107 1364,-107 1358,-107 1352,-101 1352,-95 1352,-95 1352,-13 1352,-13 1352,-7 1358,-1 1364,-1"/>
<text text-anchor="middle" x="1419" y="-91.8" font-family="Times,serif" font-size="14.00">UserRole</text>
<polyline fill="none" stroke="black" points="1352,-84 1486,-84 "/>
<text text-anchor="start" x="1360" y="-68.8" font-family="Times,serif" font-size="14.00">id :integer</text>
<text text-anchor="start" x="1360" y="-53.8" font-family="Times,serif" font-size="14.00">user_id :integer</text>
<text text-anchor="start" x="1360" y="-38.8" font-family="Times,serif" font-size="14.00">role_id :integer</text>
<text text-anchor="start" x="1360" y="-23.8" font-family="Times,serif" font-size="14.00">created_at :datetime</text>
<text text-anchor="start" x="1360" y="-8.8" font-family="Times,serif" font-size="14.00">updated_at :datetime</text>
</g>
<!-- User&#45;&gt;UserRole -->
<g id="edge19" class="edge"><title>User&#45;&gt;UserRole</title>
<path fill="none" stroke="#e20120" d="M1419,-151.21C1419,-139.915 1419,-128.248 1419,-117.104"/>
<ellipse fill="none" stroke="#e20120" cx="1419" cy="-155.328" rx="4" ry="4"/>
<polygon fill="#e20120" stroke="#e20120" points="1419,-117.041 1423.5,-107.041 1419,-112.041 1419,-107.041 1419,-107.041 1419,-107.041 1419,-112.041 1414.5,-107.041 1419,-117.041 1419,-117.041"/>
</g>
<!-- Vehicle&#45;&gt;DailyDataVehicle -->
<g id="edge20" class="edge"><title>Vehicle&#45;&gt;DailyDataVehicle</title>
<path fill="none" stroke="#b6f87a" d="M599.911,-324.922C604.26,-307.597 608.498,-290.717 612.25,-275.772"/>
<ellipse fill="none" stroke="#b6f87a" cx="598.906" cy="-328.923" rx="4.00001" ry="4.00001"/>
<polygon fill="#b6f87a" stroke="#b6f87a" points="612.33,-275.452 619.13,-266.848 613.548,-270.602 614.765,-265.752 614.765,-265.752 614.765,-265.752 613.548,-270.602 610.4,-264.657 612.33,-275.452 612.33,-275.452"/>
</g>
<!-- VehicleFuel -->
<g id="node21" class="node"><title>VehicleFuel</title>
<path fill="none" stroke="black" d="M548.5,-686.5C548.5,-686.5 661.5,-686.5 661.5,-686.5 667.5,-686.5 673.5,-692.5 673.5,-698.5 673.5,-698.5 673.5,-795.5 673.5,-795.5 673.5,-801.5 667.5,-807.5 661.5,-807.5 661.5,-807.5 548.5,-807.5 548.5,-807.5 542.5,-807.5 536.5,-801.5 536.5,-795.5 536.5,-795.5 536.5,-698.5 536.5,-698.5 536.5,-692.5 542.5,-686.5 548.5,-686.5"/>
<text text-anchor="middle" x="605" y="-792.3" font-family="Times,serif" font-size="14.00">VehicleFuel</text>
<polyline fill="none" stroke="black" points="536.5,-784.5 673.5,-784.5 "/>
<text text-anchor="start" x="544.5" y="-769.3" font-family="Times,serif" font-size="14.00">id :integer</text>
<text text-anchor="start" x="544.5" y="-754.3" font-family="Times,serif" font-size="14.00">fuelType :string</text>
<text text-anchor="start" x="544.5" y="-739.3" font-family="Times,serif" font-size="14.00">fuelTankSize :integer</text>
<text text-anchor="start" x="544.5" y="-724.3" font-family="Times,serif" font-size="14.00">mpg :integer</text>
<text text-anchor="start" x="544.5" y="-709.3" font-family="Times,serif" font-size="14.00">created_at :datetime</text>
<text text-anchor="start" x="544.5" y="-694.3" font-family="Times,serif" font-size="14.00">updated_at :datetime</text>
</g>
<!-- VehicleFuel&#45;&gt;Vehicle -->
<g id="edge21" class="edge"><title>VehicleFuel&#45;&gt;Vehicle</title>
<path fill="none" stroke="#5c6e8d" d="M595.705,-678.311C592.427,-654.44 588.613,-626.669 584.833,-599.141"/>
<ellipse fill="none" stroke="#5c6e8d" cx="596.28" cy="-682.501" rx="4.00001" ry="4.00001"/>
<polygon fill="#5c6e8d" stroke="#5c6e8d" points="584.803,-598.925 587.901,-588.406 584.123,-593.972 583.443,-589.018 583.443,-589.018 583.443,-589.018 584.123,-593.972 578.984,-589.63 584.803,-598.925 584.803,-598.925"/>
</g>
<!-- VehicleOdometer -->
<g id="node22" class="node"><title>VehicleOdometer</title>
<path fill="none" stroke="black" d="M704,-686.5C704,-686.5 842,-686.5 842,-686.5 848,-686.5 854,-692.5 854,-698.5 854,-698.5 854,-795.5 854,-795.5 854,-801.5 848,-807.5 842,-807.5 842,-807.5 704,-807.5 704,-807.5 698,-807.5 692,-801.5 692,-795.5 692,-795.5 692,-698.5 692,-698.5 692,-692.5 698,-686.5 704,-686.5"/>
<text text-anchor="middle" x="773" y="-792.3" font-family="Times,serif" font-size="14.00">VehicleOdometer</text>
<polyline fill="none" stroke="black" points="692,-784.5 854,-784.5 "/>
<text text-anchor="start" x="700" y="-769.3" font-family="Times,serif" font-size="14.00">id :integer</text>
<text text-anchor="start" x="700" y="-754.3" font-family="Times,serif" font-size="14.00">odometerReading :integer</text>
<text text-anchor="start" x="700" y="-739.3" font-family="Times,serif" font-size="14.00">startDate :datetime</text>
<text text-anchor="start" x="700" y="-724.3" font-family="Times,serif" font-size="14.00">endDate :datetime</text>
<text text-anchor="start" x="700" y="-709.3" font-family="Times,serif" font-size="14.00">created_at :datetime</text>
<text text-anchor="start" x="700" y="-694.3" font-family="Times,serif" font-size="14.00">updated_at :datetime</text>
</g>
<!-- VehicleOdometer&#45;&gt;Vehicle -->
<g id="edge22" class="edge"><title>VehicleOdometer&#45;&gt;Vehicle</title>
<path fill="none" stroke="#97000e" d="M724.853,-679.943C706.49,-654.75 684.834,-625.038 663.517,-595.792"/>
<ellipse fill="none" stroke="#97000e" cx="727.25" cy="-683.232" rx="4.00002" ry="4.00002"/>
<polygon fill="#97000e" stroke="#97000e" points="663.407,-595.641 661.154,-584.909 660.462,-591.6 657.517,-587.56 657.517,-587.56 657.517,-587.56 660.462,-591.6 653.88,-590.21 663.407,-595.641 663.407,-595.641"/>
</g>
<!-- VehicleType -->
<g id="node23" class="node"><title>VehicleType</title>
<path fill="none" stroke="black" d="M238,-679C238,-679 354,-679 354,-679 360,-679 366,-685 366,-691 366,-691 366,-803 366,-803 366,-809 360,-815 354,-815 354,-815 238,-815 238,-815 232,-815 226,-809 226,-803 226,-803 226,-691 226,-691 226,-685 232,-679 238,-679"/>
<text text-anchor="middle" x="296" y="-799.8" font-family="Times,serif" font-size="14.00">VehicleType</text>
<polyline fill="none" stroke="black" points="226,-792 366,-792 "/>
<text text-anchor="start" x="234" y="-776.8" font-family="Times,serif" font-size="14.00">id :integer</text>
<text text-anchor="start" x="234" y="-761.8" font-family="Times,serif" font-size="14.00">vehicleSize :string</text>
<text text-anchor="start" x="234" y="-746.8" font-family="Times,serif" font-size="14.00">bulkBoolean :boolean</text>
<text text-anchor="start" x="234" y="-731.8" font-family="Times,serif" font-size="14.00">bodyMake :string</text>
<text text-anchor="start" x="234" y="-716.8" font-family="Times,serif" font-size="14.00">bodyModel :string</text>
<text text-anchor="start" x="234" y="-701.8" font-family="Times,serif" font-size="14.00">created_at :datetime</text>
<text text-anchor="start" x="234" y="-686.8" font-family="Times,serif" font-size="14.00">updated_at :datetime</text>
</g>
<!-- VehicleType&#45;&gt;Vehicle -->
<g id="edge23" class="edge"><title>VehicleType&#45;&gt;Vehicle</title>
<path fill="none" stroke="#389323" d="M339.989,-672.081C350.662,-656.264 362.599,-640.089 375,-626 402.287,-594.999 435.452,-564.54 466.439,-538.446"/>
<ellipse fill="none" stroke="#389323" cx="337.711" cy="-675.501" rx="4.00002" ry="4.00002"/>
<polygon fill="#389323" stroke="#389323" points="466.59,-538.32 477.15,-535.362 470.427,-535.114 474.265,-531.909 474.265,-531.909 474.265,-531.909 470.427,-535.114 471.38,-528.455 466.59,-538.32 466.59,-538.32"/>
</g>
<!-- Zip&#45;&gt;Psazip -->
<g id="edge24" class="edge"><title>Zip&#45;&gt;Psazip</title>
<path fill="none" stroke="#7711fd" d="M1617.38,-166.223C1614.22,-150.523 1610.73,-133.18 1607.47,-116.952"/>
<ellipse fill="none" stroke="#7711fd" cx="1618.19" cy="-170.265" rx="4.00001" ry="4.00001"/>
<polygon fill="#7711fd" stroke="#7711fd" points="1607.44,-116.821 1609.88,-106.13 1606.45,-111.919 1605.47,-107.017 1605.47,-107.017 1605.47,-107.017 1606.45,-111.919 1601.06,-107.905 1607.44,-116.821 1607.44,-116.821"/>
</g>
</g>
</svg>
