<?xml version="1.0" encoding="UTF-8" standalone="no"?>
<!DOCTYPE svg PUBLIC "-//W3C//DTD SVG 1.1//EN"
 "http://www.w3.org/Graphics/SVG/1.1/DTD/svg11.dtd">
<!-- Generated by graphviz version 2.29.20121209.0545 (20121209.0545)
 -->
<!-- Title: models_diagram Pages: 1 -->
<svg width="2328pt" height="1462pt"
 viewBox="0.00 0.00 2328.48 1462.00" xmlns="http://www.w3.org/2000/svg" xmlns:xlink="http://www.w3.org/1999/xlink">
<g id="graph0" class="graph" transform="scale(1 1) rotate(0) translate(4 1458)">
<title>models_diagram</title>
<polygon fill="white" stroke="white" points="-4,5 -4,-1458 2325.48,-1458 2325.48,5 -4,5"/>
<!-- _diagram_info -->
<g id="node1" class="node"><title>_diagram_info</title>
<text text-anchor="start" x="738.479" y="-1379.6" font-family="Times,serif" font-size="13.00">Models diagram</text>
<text text-anchor="start" x="738.479" y="-1365.6" font-family="Times,serif" font-size="13.00">Date: Dec 14 2012 &#45; 14:09</text>
<text text-anchor="start" x="738.479" y="-1351.6" font-family="Times,serif" font-size="13.00">Migration version: 20121214184600</text>
<text text-anchor="start" x="738.479" y="-1337.6" font-family="Times,serif" font-size="13.00">Generated by RailRoady 1.1.0</text>
<text text-anchor="start" x="738.479" y="-1323.6" font-family="Times,serif" font-size="13.00">http://railroady.prestonlee.com</text>
</g>
<!-- Addendum -->
<g id="node2" class="node"><title>Addendum</title>
<path fill="none" stroke="black" d="M944.479,-685C944.479,-685 1182.48,-685 1182.48,-685 1188.48,-685 1194.48,-691 1194.48,-697 1194.48,-697 1194.48,-869 1194.48,-869 1194.48,-875 1188.48,-881 1182.48,-881 1182.48,-881 944.479,-881 944.479,-881 938.479,-881 932.479,-875 932.479,-869 932.479,-869 932.479,-697 932.479,-697 932.479,-691 938.479,-685 944.479,-685"/>
<text text-anchor="middle" x="1063.48" y="-865.8" font-family="Times,serif" font-size="14.00">Addendum</text>
<polyline fill="none" stroke="black" points="932.479,-858 1194.48,-858 "/>
<text text-anchor="start" x="940.479" y="-842.8" font-family="Times,serif" font-size="14.00">id :integer</text>
<text text-anchor="start" x="940.479" y="-827.8" font-family="Times,serif" font-size="14.00">fedexAddendumName :string</text>
<text text-anchor="start" x="940.479" y="-812.8" font-family="Times,serif" font-size="14.00">fedexAddendumNumber :integer</text>
<text text-anchor="start" x="940.479" y="-797.8" font-family="Times,serif" font-size="14.00">fedexContractorAddendumName :string</text>
<text text-anchor="start" x="940.479" y="-782.8" font-family="Times,serif" font-size="14.00">fedexContractorAddendumNumber :integer</text>
<text text-anchor="start" x="940.479" y="-767.8" font-family="Times,serif" font-size="14.00">content :text</text>
<text text-anchor="start" x="940.479" y="-752.8" font-family="Times,serif" font-size="14.00">startDate :datetime</text>
<text text-anchor="start" x="940.479" y="-737.8" font-family="Times,serif" font-size="14.00">endDate :datetime</text>
<text text-anchor="start" x="940.479" y="-722.8" font-family="Times,serif" font-size="14.00">created_at :datetime</text>
<text text-anchor="start" x="940.479" y="-707.8" font-family="Times,serif" font-size="14.00">updated_at :datetime</text>
<text text-anchor="start" x="940.479" y="-692.8" font-family="Times,serif" font-size="14.00">fedexContract_id :integer</text>
</g>
<!-- Note -->
<g id="node12" class="node"><title>Note</title>
<path fill="none" stroke="black" d="M1046.48,-0.5C1046.48,-0.5 1156.48,-0.5 1156.48,-0.5 1162.48,-0.5 1168.48,-6.5 1168.48,-12.5 1168.48,-12.5 1168.48,-139.5 1168.48,-139.5 1168.48,-145.5 1162.48,-151.5 1156.48,-151.5 1156.48,-151.5 1046.48,-151.5 1046.48,-151.5 1040.48,-151.5 1034.48,-145.5 1034.48,-139.5 1034.48,-139.5 1034.48,-12.5 1034.48,-12.5 1034.48,-6.5 1040.48,-0.5 1046.48,-0.5"/>
<text text-anchor="middle" x="1101.48" y="-136.3" font-family="Times,serif" font-size="14.00">Note</text>
<polyline fill="none" stroke="black" points="1034.48,-128.5 1168.48,-128.5 "/>
<text text-anchor="start" x="1042.48" y="-113.3" font-family="Times,serif" font-size="14.00">id :integer</text>
<text text-anchor="start" x="1042.48" y="-98.3" font-family="Times,serif" font-size="14.00">notable_id :integer</text>
<text text-anchor="start" x="1042.48" y="-83.3" font-family="Times,serif" font-size="14.00">notable_type :string</text>
<text text-anchor="start" x="1042.48" y="-68.3" font-family="Times,serif" font-size="14.00">content :text</text>
<text text-anchor="start" x="1042.48" y="-53.3" font-family="Times,serif" font-size="14.00">startDate :datetime</text>
<text text-anchor="start" x="1042.48" y="-38.3" font-family="Times,serif" font-size="14.00">endDate :datetime</text>
<text text-anchor="start" x="1042.48" y="-23.3" font-family="Times,serif" font-size="14.00">created_at :datetime</text>
<text text-anchor="start" x="1042.48" y="-8.3" font-family="Times,serif" font-size="14.00">updated_at :datetime</text>
</g>
<!-- Addendum&#45;&gt;Note -->
<g id="edge1" class="edge"><title>Addendum&#45;&gt;Note</title>
<path fill="none" stroke="#87663a" d="M998.157,-677.439C983.89,-649.415 970.859,-618.423 963.479,-588 941.268,-496.433 943.266,-468.029 963.479,-376 980.365,-299.117 1019,-218.447 1051.11,-160.301"/>
<ellipse fill="none" stroke="#87663a" cx="1000.17" cy="-681.327" rx="4.00002" ry="4.00002"/>
<polygon fill="#87663a" stroke="#87663a" points="1051.14,-160.263 1059.93,-153.719 1053.57,-155.895 1056,-151.528 1056,-151.528 1056,-151.528 1053.57,-155.895 1052.07,-149.337 1051.14,-160.263 1051.14,-160.263"/>
</g>
<!-- Business -->
<g id="node3" class="node"><title>Business</title>
<path fill="none" stroke="black" d="M1163.98,-1001C1163.98,-1001 1280.98,-1001 1280.98,-1001 1286.98,-1001 1292.98,-1007 1292.98,-1013 1292.98,-1013 1292.98,-1185 1292.98,-1185 1292.98,-1191 1286.98,-1197 1280.98,-1197 1280.98,-1197 1163.98,-1197 1163.98,-1197 1157.98,-1197 1151.98,-1191 1151.98,-1185 1151.98,-1185 1151.98,-1013 1151.98,-1013 1151.98,-1007 1157.98,-1001 1163.98,-1001"/>
<text text-anchor="middle" x="1222.48" y="-1181.8" font-family="Times,serif" font-size="14.00">Business</text>
<polyline fill="none" stroke="black" points="1151.98,-1174 1292.98,-1174 "/>
<text text-anchor="start" x="1159.98" y="-1158.8" font-family="Times,serif" font-size="14.00">id :integer</text>
<text text-anchor="start" x="1159.98" y="-1143.8" font-family="Times,serif" font-size="14.00">name :string</text>
<text text-anchor="start" x="1159.98" y="-1128.8" font-family="Times,serif" font-size="14.00">taxIDNumber :string</text>
<text text-anchor="start" x="1159.98" y="-1113.8" font-family="Times,serif" font-size="14.00">address :string</text>
<text text-anchor="start" x="1159.98" y="-1098.8" font-family="Times,serif" font-size="14.00">city :string</text>
<text text-anchor="start" x="1159.98" y="-1083.8" font-family="Times,serif" font-size="14.00">state :string</text>
<text text-anchor="start" x="1159.98" y="-1068.8" font-family="Times,serif" font-size="14.00">zip :string</text>
<text text-anchor="start" x="1159.98" y="-1053.8" font-family="Times,serif" font-size="14.00">country :string</text>
<text text-anchor="start" x="1159.98" y="-1038.8" font-family="Times,serif" font-size="14.00">created_at :datetime</text>
<text text-anchor="start" x="1159.98" y="-1023.8" font-family="Times,serif" font-size="14.00">updated_at :datetime</text>
<text text-anchor="start" x="1159.98" y="-1008.8" font-family="Times,serif" font-size="14.00">employees_id :integer</text>
</g>
<!-- Business&#45;&gt;Note -->
<g id="edge2" class="edge"><title>Business&#45;&gt;Note</title>
<path fill="none" stroke="#229b4f" d="M1243.19,-992.788C1257.51,-891.998 1264.46,-738.701 1203.48,-624 1190.79,-600.139 1167.91,-611.448 1154.48,-588 1133.83,-551.961 1115.17,-297.824 1106.54,-162.057"/>
<ellipse fill="none" stroke="#229b4f" cx="1242.58" cy="-996.902" rx="4.00001" ry="4.00001"/>
<polygon fill="#229b4f" stroke="#229b4f" points="1106.51,-161.673 1110.37,-151.41 1106.2,-156.683 1105.88,-151.693 1105.88,-151.693 1105.88,-151.693 1106.2,-156.683 1101.39,-151.977 1106.51,-161.673 1106.51,-161.673"/>
</g>
<!-- Psa -->
<g id="node13" class="node"><title>Psa</title>
<path fill="none" stroke="black" d="M1926.98,-376.5C1926.98,-376.5 2093.98,-376.5 2093.98,-376.5 2099.98,-376.5 2105.98,-382.5 2105.98,-388.5 2105.98,-388.5 2105.98,-575.5 2105.98,-575.5 2105.98,-581.5 2099.98,-587.5 2093.98,-587.5 2093.98,-587.5 1926.98,-587.5 1926.98,-587.5 1920.98,-587.5 1914.98,-581.5 1914.98,-575.5 1914.98,-575.5 1914.98,-388.5 1914.98,-388.5 1914.98,-382.5 1920.98,-376.5 1926.98,-376.5"/>
<text text-anchor="middle" x="2010.48" y="-572.3" font-family="Times,serif" font-size="14.00">Psa</text>
<polyline fill="none" stroke="black" points="1914.98,-564.5 2105.98,-564.5 "/>
<text text-anchor="start" x="1922.98" y="-549.3" font-family="Times,serif" font-size="14.00">id :integer</text>
<text text-anchor="start" x="1922.98" y="-534.3" font-family="Times,serif" font-size="14.00">fedexPSAName :string</text>
<text text-anchor="start" x="1922.98" y="-519.3" font-family="Times,serif" font-size="14.00">fedexPSANumber :integer</text>
<text text-anchor="start" x="1922.98" y="-504.3" font-family="Times,serif" font-size="14.00">contractorPSAName :string</text>
<text text-anchor="start" x="1922.98" y="-489.3" font-family="Times,serif" font-size="14.00">contractorPSANumber :integer</text>
<text text-anchor="start" x="1922.98" y="-474.3" font-family="Times,serif" font-size="14.00">activeBoolean :boolean</text>
<text text-anchor="start" x="1922.98" y="-459.3" font-family="Times,serif" font-size="14.00">startDate :datetime</text>
<text text-anchor="start" x="1922.98" y="-444.3" font-family="Times,serif" font-size="14.00">endDate :datetime</text>
<text text-anchor="start" x="1922.98" y="-429.3" font-family="Times,serif" font-size="14.00">created_at :datetime</text>
<text text-anchor="start" x="1922.98" y="-414.3" font-family="Times,serif" font-size="14.00">updated_at :datetime</text>
<text text-anchor="start" x="1922.98" y="-399.3" font-family="Times,serif" font-size="14.00">regions_id :integer</text>
<text text-anchor="start" x="1922.98" y="-384.3" font-family="Times,serif" font-size="14.00">businesses_id :integer</text>
</g>
<!-- Business&#45;&gt;Psa -->
<g id="edge3" class="edge"><title>Business&#45;&gt;Psa</title>
<path fill="none" stroke="#08fe4b" d="M1300.99,-1093.94C1478.58,-1082.99 1902.58,-1046.26 1991.48,-942 2071.48,-848.171 2061.78,-700.269 2041.55,-597.825"/>
<ellipse fill="none" stroke="#08fe4b" cx="1296.97" cy="-1094.19" rx="4" ry="4"/>
<polygon fill="#08fe4b" stroke="#08fe4b" points="2041.49,-597.544 2043.91,-586.847 2040.5,-592.645 2039.5,-587.746 2039.5,-587.746 2039.5,-587.746 2040.5,-592.645 2035.09,-588.644 2041.49,-597.544 2041.49,-597.544"/>
</g>
<!-- Employee -->
<g id="node9" class="node"><title>Employee</title>
<path fill="none" stroke="black" d="M1462.98,-662.5C1462.98,-662.5 1603.98,-662.5 1603.98,-662.5 1609.98,-662.5 1615.98,-668.5 1615.98,-674.5 1615.98,-674.5 1615.98,-891.5 1615.98,-891.5 1615.98,-897.5 1609.98,-903.5 1603.98,-903.5 1603.98,-903.5 1462.98,-903.5 1462.98,-903.5 1456.98,-903.5 1450.98,-897.5 1450.98,-891.5 1450.98,-891.5 1450.98,-674.5 1450.98,-674.5 1450.98,-668.5 1456.98,-662.5 1462.98,-662.5"/>
<text text-anchor="middle" x="1533.48" y="-888.3" font-family="Times,serif" font-size="14.00">Employee</text>
<polyline fill="none" stroke="black" points="1450.98,-880.5 1615.98,-880.5 "/>
<text text-anchor="start" x="1458.98" y="-865.3" font-family="Times,serif" font-size="14.00">id :integer</text>
<text text-anchor="start" x="1458.98" y="-850.3" font-family="Times,serif" font-size="14.00">firstName :string</text>
<text text-anchor="start" x="1458.98" y="-835.3" font-family="Times,serif" font-size="14.00">lastName :string</text>
<text text-anchor="start" x="1458.98" y="-820.3" font-family="Times,serif" font-size="14.00">fedexNumber :integer</text>
<text text-anchor="start" x="1458.98" y="-805.3" font-family="Times,serif" font-size="14.00">contractorNumber :integer</text>
<text text-anchor="start" x="1458.98" y="-790.3" font-family="Times,serif" font-size="14.00">hireDate :date</text>
<text text-anchor="start" x="1458.98" y="-775.3" font-family="Times,serif" font-size="14.00">dateOfBirth :date</text>
<text text-anchor="start" x="1458.98" y="-760.3" font-family="Times,serif" font-size="14.00">activeBoolean :boolean</text>
<text text-anchor="start" x="1458.98" y="-745.3" font-family="Times,serif" font-size="14.00">startDate :datetime</text>
<text text-anchor="start" x="1458.98" y="-730.3" font-family="Times,serif" font-size="14.00">endDate :datetime</text>
<text text-anchor="start" x="1458.98" y="-715.3" font-family="Times,serif" font-size="14.00">terminationDate :datetime</text>
<text text-anchor="start" x="1458.98" y="-700.3" font-family="Times,serif" font-size="14.00">created_at :datetime</text>
<text text-anchor="start" x="1458.98" y="-685.3" font-family="Times,serif" font-size="14.00">updated_at :datetime</text>
<text text-anchor="start" x="1458.98" y="-670.3" font-family="Times,serif" font-size="14.00">business_id :integer</text>
</g>
<!-- Business&#45;&gt;Employee -->
<g id="edge4" class="edge"><title>Business&#45;&gt;Employee</title>
<path fill="none" stroke="#1d7608" d="M1298.89,-1020.85C1342.62,-976.704 1397.71,-921.074 1443.52,-874.824"/>
<ellipse fill="none" stroke="#1d7608" cx="1295.86" cy="-1023.91" rx="4.00002" ry="4.00002"/>
<polygon fill="#1d7608" stroke="#1d7608" points="1443.76,-874.589 1453.99,-870.651 1447.27,-871.037 1450.79,-867.484 1450.79,-867.484 1450.79,-867.484 1447.27,-871.037 1447.6,-864.318 1443.76,-874.589 1443.76,-874.589"/>
</g>
<!-- Vehicle -->
<g id="node23" class="node"><title>Vehicle</title>
<path fill="none" stroke="black" d="M384.979,-625C384.979,-625 543.979,-625 543.979,-625 549.979,-625 555.979,-631 555.979,-637 555.979,-637 555.979,-929 555.979,-929 555.979,-935 549.979,-941 543.979,-941 543.979,-941 384.979,-941 384.979,-941 378.979,-941 372.979,-935 372.979,-929 372.979,-929 372.979,-637 372.979,-637 372.979,-631 378.979,-625 384.979,-625"/>
<text text-anchor="middle" x="464.479" y="-925.8" font-family="Times,serif" font-size="14.00">Vehicle</text>
<polyline fill="none" stroke="black" points="372.979,-918 555.979,-918 "/>
<text text-anchor="start" x="380.979" y="-902.8" font-family="Times,serif" font-size="14.00">id :integer</text>
<text text-anchor="start" x="380.979" y="-887.8" font-family="Times,serif" font-size="14.00">fedexVehicleNumber :integer</text>
<text text-anchor="start" x="380.979" y="-872.8" font-family="Times,serif" font-size="14.00">fedexVehicleName :string</text>
<text text-anchor="start" x="380.979" y="-857.8" font-family="Times,serif" font-size="14.00">contractorNumber :integer</text>
<text text-anchor="start" x="380.979" y="-842.8" font-family="Times,serif" font-size="14.00">contractorName :string</text>
<text text-anchor="start" x="380.979" y="-827.8" font-family="Times,serif" font-size="14.00">vin :string</text>
<text text-anchor="start" x="380.979" y="-812.8" font-family="Times,serif" font-size="14.00">startDate :datetime</text>
<text text-anchor="start" x="380.979" y="-797.8" font-family="Times,serif" font-size="14.00">endDate :datetime</text>
<text text-anchor="start" x="380.979" y="-782.8" font-family="Times,serif" font-size="14.00">activeBoolean :boolean</text>
<text text-anchor="start" x="380.979" y="-767.8" font-family="Times,serif" font-size="14.00">vehicleType_id :integer</text>
<text text-anchor="start" x="380.979" y="-752.8" font-family="Times,serif" font-size="14.00">vehicleFuel_id :integer</text>
<text text-anchor="start" x="380.979" y="-737.8" font-family="Times,serif" font-size="14.00">vehicleOdometer_id :integer</text>
<text text-anchor="start" x="380.979" y="-722.8" font-family="Times,serif" font-size="14.00">created_at :datetime</text>
<text text-anchor="start" x="380.979" y="-707.8" font-family="Times,serif" font-size="14.00">updated_at :datetime</text>
<text text-anchor="start" x="380.979" y="-692.8" font-family="Times,serif" font-size="14.00">service_type_id :integer</text>
<text text-anchor="start" x="380.979" y="-677.8" font-family="Times,serif" font-size="14.00">business_id :integer</text>
<text text-anchor="start" x="380.979" y="-662.8" font-family="Times,serif" font-size="14.00">serviceFuel_id :integer</text>
<text text-anchor="start" x="380.979" y="-647.8" font-family="Times,serif" font-size="14.00">serviceOdometer_id :integer</text>
<text text-anchor="start" x="380.979" y="-632.8" font-family="Times,serif" font-size="14.00">serviceType_id :integer</text>
</g>
<!-- Business&#45;&gt;Vehicle -->
<g id="edge5" class="edge"><title>Business&#45;&gt;Vehicle</title>
<path fill="none" stroke="#9814d0" d="M1144.16,-1061.76C1083.67,-1035.09 997.269,-999.821 918.479,-978 824.263,-951.907 792.405,-977.917 701.479,-942 653.287,-922.963 604.841,-893.041 564.423,-864.333"/>
<ellipse fill="none" stroke="#9814d0" cx="1148.11" cy="-1063.52" rx="4.00002" ry="4.00002"/>
<polygon fill="#9814d0" stroke="#9814d0" points="564.31,-864.252 558.81,-854.765 560.248,-861.336 556.186,-858.421 556.186,-858.421 556.186,-858.421 560.248,-861.336 553.562,-862.076 564.31,-864.252 564.31,-864.252"/>
</g>
<!-- DailyDataDeliveryException -->
<g id="node4" class="node"><title>DailyDataDeliveryException</title>
<path fill="none" stroke="black" d="M743.979,-414C743.979,-414 902.979,-414 902.979,-414 908.979,-414 914.979,-420 914.979,-426 914.979,-426 914.979,-538 914.979,-538 914.979,-544 908.979,-550 902.979,-550 902.979,-550 743.979,-550 743.979,-550 737.979,-550 731.979,-544 731.979,-538 731.979,-538 731.979,-426 731.979,-426 731.979,-420 737.979,-414 743.979,-414"/>
<text text-anchor="middle" x="823.479" y="-534.8" font-family="Times,serif" font-size="14.00">DailyDataDeliveryException</text>
<polyline fill="none" stroke="black" points="731.979,-527 914.979,-527 "/>
<text text-anchor="start" x="739.979" y="-511.8" font-family="Times,serif" font-size="14.00">id :integer</text>
<text text-anchor="start" x="739.979" y="-496.8" font-family="Times,serif" font-size="14.00">startDate :datetime</text>
<text text-anchor="start" x="739.979" y="-481.8" font-family="Times,serif" font-size="14.00">endDate :datetime</text>
<text text-anchor="start" x="739.979" y="-466.8" font-family="Times,serif" font-size="14.00">dailyData_id :integer</text>
<text text-anchor="start" x="739.979" y="-451.8" font-family="Times,serif" font-size="14.00">deliveryException_id :integer</text>
<text text-anchor="start" x="739.979" y="-436.8" font-family="Times,serif" font-size="14.00">created_at :datetime</text>
<text text-anchor="start" x="739.979" y="-421.8" font-family="Times,serif" font-size="14.00">updated_at :datetime</text>
</g>
<!-- DailyDataDeliveryException&#45;&gt;Note -->
<g id="edge6" class="edge"><title>DailyDataDeliveryException&#45;&gt;Note</title>
<path fill="none" stroke="#e2e048" d="M836.659,-405.862C850.849,-342.407 878.587,-251.919 929.479,-188 954.88,-156.097 992.066,-130.493 1025.37,-111.95"/>
<ellipse fill="none" stroke="#e2e048" cx="835.766" cy="-409.944" rx="4.00001" ry="4.00001"/>
<polygon fill="#e2e048" stroke="#e2e048" points="1025.41,-111.929 1036.34,-111.102 1029.8,-109.539 1034.19,-107.149 1034.19,-107.149 1034.19,-107.149 1029.8,-109.539 1032.04,-103.196 1025.41,-111.929 1025.41,-111.929"/>
</g>
<!-- DailyDataEmployee -->
<g id="node5" class="node"><title>DailyDataEmployee</title>
<path fill="none" stroke="black" d="M983.979,-429C983.979,-429 1094.98,-429 1094.98,-429 1100.98,-429 1106.98,-435 1106.98,-441 1106.98,-441 1106.98,-523 1106.98,-523 1106.98,-529 1100.98,-535 1094.98,-535 1094.98,-535 983.979,-535 983.979,-535 977.979,-535 971.979,-529 971.979,-523 971.979,-523 971.979,-441 971.979,-441 971.979,-435 977.979,-429 983.979,-429"/>
<text text-anchor="middle" x="1039.48" y="-519.8" font-family="Times,serif" font-size="14.00">DailyDataEmployee</text>
<polyline fill="none" stroke="black" points="971.979,-512 1106.98,-512 "/>
<text text-anchor="start" x="979.979" y="-496.8" font-family="Times,serif" font-size="14.00">id :integer</text>
<text text-anchor="start" x="979.979" y="-481.8" font-family="Times,serif" font-size="14.00">employee_id :integer</text>
<text text-anchor="start" x="979.979" y="-466.8" font-family="Times,serif" font-size="14.00">dailyData_id :integer</text>
<text text-anchor="start" x="979.979" y="-451.8" font-family="Times,serif" font-size="14.00">created_at :datetime</text>
<text text-anchor="start" x="979.979" y="-436.8" font-family="Times,serif" font-size="14.00">updated_at :datetime</text>
</g>
<!-- DailyDataEmployee&#45;&gt;Note -->
<g id="edge7" class="edge"><title>DailyDataEmployee&#45;&gt;Note</title>
<path fill="none" stroke="#2b552a" d="M1048.76,-420.519C1059.3,-351.833 1076.58,-239.277 1088.46,-161.835"/>
<ellipse fill="none" stroke="#2b552a" cx="1048.13" cy="-424.645" rx="4.00001" ry="4.00001"/>
<polygon fill="#2b552a" stroke="#2b552a" points="1088.51,-161.508 1094.47,-152.306 1089.27,-156.566 1090.03,-151.624 1090.03,-151.624 1090.03,-151.624 1089.27,-156.566 1085.58,-150.941 1088.51,-161.508 1088.51,-161.508"/>
</g>
<!-- DailyDataVehicle -->
<g id="node6" class="node"><title>DailyDataVehicle</title>
<path fill="none" stroke="black" d="M586.979,-429C586.979,-429 701.979,-429 701.979,-429 707.979,-429 713.979,-435 713.979,-441 713.979,-441 713.979,-523 713.979,-523 713.979,-529 707.979,-535 701.979,-535 701.979,-535 586.979,-535 586.979,-535 580.979,-535 574.979,-529 574.979,-523 574.979,-523 574.979,-441 574.979,-441 574.979,-435 580.979,-429 586.979,-429"/>
<text text-anchor="middle" x="644.479" y="-519.8" font-family="Times,serif" font-size="14.00">DailyDataVehicle</text>
<polyline fill="none" stroke="black" points="574.979,-512 713.979,-512 "/>
<text text-anchor="start" x="582.979" y="-496.8" font-family="Times,serif" font-size="14.00">id :integer</text>
<text text-anchor="start" x="582.979" y="-481.8" font-family="Times,serif" font-size="14.00">vehicle_id :integer</text>
<text text-anchor="start" x="582.979" y="-466.8" font-family="Times,serif" font-size="14.00">created_at :datetime</text>
<text text-anchor="start" x="582.979" y="-451.8" font-family="Times,serif" font-size="14.00">updated_at :datetime</text>
<text text-anchor="start" x="582.979" y="-436.8" font-family="Times,serif" font-size="14.00">daily_data_id :integer</text>
</g>
<!-- DailyDataVehicle&#45;&gt;Note -->
<g id="edge8" class="edge"><title>DailyDataVehicle&#45;&gt;Note</title>
<path fill="none" stroke="#1f27d0" d="M673.611,-421.652C708.047,-356.761 770.869,-253.33 850.479,-188 901.797,-145.887 971.604,-116.735 1024.57,-98.9097"/>
<ellipse fill="none" stroke="#1f27d0" cx="671.619" cy="-425.438" rx="4.00002" ry="4.00002"/>
<polygon fill="#1f27d0" stroke="#1f27d0" points="1024.76,-98.847 1035.67,-99.986 1029.51,-97.2799 1034.26,-95.7127 1034.26,-95.7127 1034.26,-95.7127 1029.51,-97.2799 1032.85,-91.4394 1024.76,-98.847 1024.76,-98.847"/>
</g>
<!-- DailyDatum -->
<g id="node7" class="node"><title>DailyDatum</title>
<path fill="none" stroke="black" d="M733.479,-978.5C733.479,-978.5 897.479,-978.5 897.479,-978.5 903.479,-978.5 909.479,-984.5 909.479,-990.5 909.479,-990.5 909.479,-1207.5 909.479,-1207.5 909.479,-1213.5 903.479,-1219.5 897.479,-1219.5 897.479,-1219.5 733.479,-1219.5 733.479,-1219.5 727.479,-1219.5 721.479,-1213.5 721.479,-1207.5 721.479,-1207.5 721.479,-990.5 721.479,-990.5 721.479,-984.5 727.479,-978.5 733.479,-978.5"/>
<text text-anchor="middle" x="815.479" y="-1204.3" font-family="Times,serif" font-size="14.00">DailyDatum</text>
<polyline fill="none" stroke="black" points="721.479,-1196.5 909.479,-1196.5 "/>
<text text-anchor="start" x="729.479" y="-1181.3" font-family="Times,serif" font-size="14.00">id :integer</text>
<text text-anchor="start" x="729.479" y="-1166.3" font-family="Times,serif" font-size="14.00">deliveryStop :integer</text>
<text text-anchor="start" x="729.479" y="-1151.3" font-family="Times,serif" font-size="14.00">deliveryPackage :integer</text>
<text text-anchor="start" x="729.479" y="-1136.3" font-family="Times,serif" font-size="14.00">pickupStop :integer</text>
<text text-anchor="start" x="729.479" y="-1121.3" font-family="Times,serif" font-size="14.00">pickupPackage :integer</text>
<text text-anchor="start" x="729.479" y="-1106.3" font-family="Times,serif" font-size="14.00">calltag :integer</text>
<text text-anchor="start" x="729.479" y="-1091.3" font-family="Times,serif" font-size="14.00">didNotAttempt :integer</text>
<text text-anchor="start" x="729.479" y="-1076.3" font-family="Times,serif" font-size="14.00">inboundLocalService :decimal</text>
<text text-anchor="start" x="729.479" y="-1061.3" font-family="Times,serif" font-size="14.00">earlyPickUp :integer</text>
<text text-anchor="start" x="729.479" y="-1046.3" font-family="Times,serif" font-size="14.00">latePickUp :integer</text>
<text text-anchor="start" x="729.479" y="-1031.3" font-family="Times,serif" font-size="14.00">startTime :datetime</text>
<text text-anchor="start" x="729.479" y="-1016.3" font-family="Times,serif" font-size="14.00">endTime :datetime</text>
<text text-anchor="start" x="729.479" y="-1001.3" font-family="Times,serif" font-size="14.00">created_at :datetime</text>
<text text-anchor="start" x="729.479" y="-986.3" font-family="Times,serif" font-size="14.00">updated_at :datetime</text>
</g>
<!-- DailyDatum&#45;&gt;Note -->
<g id="edge9" class="edge"><title>DailyDatum&#45;&gt;Note</title>
<path fill="none" stroke="#6de3a3" d="M714.679,-979.535C713.948,-979.017 713.214,-978.505 712.479,-978 673.2,-951.016 641.4,-979.091 611.479,-942 561.672,-880.257 570.601,-667.163 565.479,-588 559.396,-493.974 533.496,-464.628 565.479,-376 602.334,-273.871 630.73,-247.609 721.479,-188 814.992,-126.576 943.232,-98.386 1024.22,-86.0012"/>
<ellipse fill="none" stroke="#6de3a3" cx="717.985" cy="-981.981" rx="4.00002" ry="4.00002"/>
<polygon fill="#6de3a3" stroke="#6de3a3" points="1024.46,-85.9665 1035.01,-88.9487 1029.4,-85.232 1034.35,-84.4975 1034.35,-84.4975 1034.35,-84.4975 1029.4,-85.232 1033.69,-80.0463 1024.46,-85.9665 1024.46,-85.9665"/>
</g>
<!-- DailyDatum&#45;&gt;DailyDataVehicle -->
<g id="edge10" class="edge"><title>DailyDatum&#45;&gt;DailyDataVehicle</title>
<path fill="none" stroke="#5e1719" d="M715.216,-980.56C714.304,-979.699 713.391,-978.846 712.479,-978 692.661,-959.628 676.18,-965.853 663.479,-942 595.647,-814.602 614.221,-637.954 630.937,-545.347"/>
<ellipse fill="none" stroke="#5e1719" cx="718.343" cy="-983.565" rx="4.00002" ry="4.00002"/>
<polygon fill="#5e1719" stroke="#5e1719" points="630.978,-545.126 637.229,-536.116 631.891,-540.21 632.804,-535.294 632.804,-535.294 632.804,-535.294 631.891,-540.21 628.38,-534.472 630.978,-545.126 630.978,-545.126"/>
</g>
<!-- DailyDatum&#45;&gt;Vehicle -->
<g id="edge11" class="edge"><title>DailyDatum&#45;&gt;Vehicle</title>
<path fill="none" stroke="#7c295e" d="M713.047,-978.354C712.858,-978.236 712.669,-978.118 712.479,-978 657.14,-943.698 623.692,-979.516 570.479,-942 568.294,-940.459 566.141,-938.858 564.021,-937.202"/>
<polygon fill="#7c295e" stroke="#7c295e" points="713.14,-978.416 718.945,-987.719 717.294,-981.198 721.449,-983.98 721.449,-983.98 721.449,-983.98 717.294,-981.198 723.953,-980.241 713.14,-978.416 713.14,-978.416"/>
<polygon fill="#7c295e" stroke="#7c295e" points="563.699,-936.936 558.875,-927.088 559.851,-933.744 556.002,-930.552 556.002,-930.552 556.002,-930.552 559.851,-933.744 553.13,-934.016 563.699,-936.936 563.699,-936.936"/>
</g>
<!-- DailyDatum&#45;&gt;DailyDataEmployee -->
<g id="edge12" class="edge"><title>DailyDatum&#45;&gt;DailyDataEmployee</title>
<path fill="none" stroke="#173f61" d="M875.374,-970.676C878.777,-961.086 881.868,-951.461 884.479,-942 922.355,-804.737 867.344,-754.86 923.479,-624 936.166,-594.425 957.034,-566.132 977.599,-542.755"/>
<ellipse fill="none" stroke="#173f61" cx="873.948" cy="-974.595" rx="4.00001" ry="4.00001"/>
<polygon fill="#173f61" stroke="#173f61" points="977.865,-542.459 987.896,-538.029 981.207,-538.74 984.549,-535.021 984.549,-535.021 984.549,-535.021 981.207,-538.74 981.202,-532.014 977.865,-542.459 977.865,-542.459"/>
</g>
<!-- DailyDatum&#45;&gt;Employee -->
<g id="edge13" class="edge"><title>DailyDatum&#45;&gt;Employee</title>
<path fill="none" stroke="#9b7671" d="M919.294,-1058.35C997.871,-1027.84 1108.17,-983.926 1203.48,-942 1284.83,-906.214 1375.84,-862.348 1441.64,-829.924"/>
<polygon fill="#9b7671" stroke="#9b7671" points="919.196,-1058.39 908.245,-1057.81 914.534,-1060.2 909.872,-1062.01 909.872,-1062.01 909.872,-1062.01 914.534,-1060.2 911.499,-1066.2 919.196,-1058.39 919.196,-1058.39"/>
<polygon fill="#9b7671" stroke="#9b7671" points="1441.79,-829.852 1452.75,-829.462 1446.27,-827.639 1450.75,-825.427 1450.75,-825.427 1450.75,-825.427 1446.27,-827.639 1448.76,-821.391 1441.79,-829.852 1441.79,-829.852"/>
</g>
<!-- DailyDatum&#45;&gt;DailyDataDeliveryException -->
<g id="edge14" class="edge"><title>DailyDatum&#45;&gt;DailyDataDeliveryException</title>
<path fill="none" stroke="#e93f7e" d="M717.323,-978.495C710.986,-966.655 705.531,-954.411 701.479,-942 657.619,-807.644 652.136,-756.44 701.479,-624 707.265,-608.47 727.94,-582.807 750.667,-557.6"/>
<ellipse fill="none" stroke="#e93f7e" cx="719.44" cy="-982.314" rx="4.00002" ry="4.00002"/>
<polygon fill="#e93f7e" stroke="#e93f7e" points="750.711,-557.552 760.772,-553.19 754.078,-553.856 757.445,-550.159 757.445,-550.159 757.445,-550.159 754.078,-553.856 754.119,-547.129 750.711,-557.552 750.711,-557.552"/>
</g>
<!-- DeliveryException -->
<g id="node8" class="node"><title>DeliveryException</title>
<path fill="none" stroke="black" d="M722.979,-730C722.979,-730 863.979,-730 863.979,-730 869.979,-730 875.979,-736 875.979,-742 875.979,-742 875.979,-824 875.979,-824 875.979,-830 869.979,-836 863.979,-836 863.979,-836 722.979,-836 722.979,-836 716.979,-836 710.979,-830 710.979,-824 710.979,-824 710.979,-742 710.979,-742 710.979,-736 716.979,-730 722.979,-730"/>
<text text-anchor="middle" x="793.479" y="-820.8" font-family="Times,serif" font-size="14.00">DeliveryException</text>
<polyline fill="none" stroke="black" points="710.979,-813 875.979,-813 "/>
<text text-anchor="start" x="718.979" y="-797.8" font-family="Times,serif" font-size="14.00">id :integer</text>
<text text-anchor="start" x="718.979" y="-782.8" font-family="Times,serif" font-size="14.00">exceptionType :string</text>
<text text-anchor="start" x="718.979" y="-767.8" font-family="Times,serif" font-size="14.00">exceptionDescription :text</text>
<text text-anchor="start" x="718.979" y="-752.8" font-family="Times,serif" font-size="14.00">created_at :datetime</text>
<text text-anchor="start" x="718.979" y="-737.8" font-family="Times,serif" font-size="14.00">updated_at :datetime</text>
</g>
<!-- DailyDatum&#45;&gt;DeliveryException -->
<g id="edge15" class="edge"><title>DailyDatum&#45;&gt;DeliveryException</title>
<path fill="none" stroke="#530ca5" d="M806.387,-968.234C803.426,-925.977 800.276,-881.005 797.828,-846.072"/>
<polygon fill="#530ca5" stroke="#530ca5" points="806.4,-968.419 802.61,-978.709 806.749,-973.407 807.099,-978.394 807.099,-978.394 807.099,-978.394 806.749,-973.407 811.588,-978.08 806.4,-968.419 806.4,-968.419"/>
<polygon fill="#530ca5" stroke="#530ca5" points="797.824,-846.008 801.614,-835.718 797.474,-841.02 797.125,-836.032 797.125,-836.032 797.125,-836.032 797.474,-841.02 792.636,-836.347 797.824,-846.008 797.824,-846.008"/>
</g>
<!-- DeliveryException&#45;&gt;DailyDataDeliveryException -->
<g id="edge16" class="edge"><title>DeliveryException&#45;&gt;DailyDataDeliveryException</title>
<path fill="none" stroke="#baebba" d="M799.517,-721.823C804.179,-675.359 810.665,-610.718 815.713,-560.402"/>
<ellipse fill="none" stroke="#baebba" cx="799.104" cy="-725.938" rx="4" ry="4"/>
<polygon fill="#baebba" stroke="#baebba" points="815.736,-560.168 821.212,-550.667 816.236,-555.193 816.735,-550.218 816.735,-550.218 816.735,-550.218 816.236,-555.193 812.257,-549.769 815.736,-560.168 815.736,-560.168"/>
</g>
<!-- Employee&#45;&gt;Note -->
<g id="edge17" class="edge"><title>Employee&#45;&gt;Note</title>
<path fill="none" stroke="#2cf128" d="M1537.07,-654.287C1538.11,-554.346 1535.07,-424.451 1514.48,-376 1505.87,-355.745 1494.37,-357.073 1480.48,-340 1428.51,-276.109 1438.83,-239.403 1374.48,-188 1316.57,-141.74 1236.77,-112.29 1178.41,-95.4391"/>
<ellipse fill="none" stroke="#2cf128" cx="1537.02" cy="-658.338" rx="4" ry="4"/>
<polygon fill="#2cf128" stroke="#2cf128" points="1178.13,-95.3594 1169.73,-88.3098 1173.32,-93.9999 1168.51,-92.6403 1168.51,-92.6403 1168.51,-92.6403 1173.32,-93.9999 1167.28,-96.9708 1178.13,-95.3594 1178.13,-95.3594"/>
</g>
<!-- User -->
<g id="node21" class="node"><title>User</title>
<path fill="none" stroke="black" d="M1345.48,-421.5C1345.48,-421.5 1493.48,-421.5 1493.48,-421.5 1499.48,-421.5 1505.48,-427.5 1505.48,-433.5 1505.48,-433.5 1505.48,-530.5 1505.48,-530.5 1505.48,-536.5 1499.48,-542.5 1493.48,-542.5 1493.48,-542.5 1345.48,-542.5 1345.48,-542.5 1339.48,-542.5 1333.48,-536.5 1333.48,-530.5 1333.48,-530.5 1333.48,-433.5 1333.48,-433.5 1333.48,-427.5 1339.48,-421.5 1345.48,-421.5"/>
<text text-anchor="middle" x="1419.48" y="-527.3" font-family="Times,serif" font-size="14.00">User</text>
<polyline fill="none" stroke="black" points="1333.48,-519.5 1505.48,-519.5 "/>
<text text-anchor="start" x="1341.48" y="-504.3" font-family="Times,serif" font-size="14.00">id :integer</text>
<text text-anchor="start" x="1341.48" y="-489.3" font-family="Times,serif" font-size="14.00">contractorBoolean :boolean</text>
<text text-anchor="start" x="1341.48" y="-474.3" font-family="Times,serif" font-size="14.00">activeBoolean :boolean</text>
<text text-anchor="start" x="1341.48" y="-459.3" font-family="Times,serif" font-size="14.00">employee_id :integer</text>
<text text-anchor="start" x="1341.48" y="-444.3" font-family="Times,serif" font-size="14.00">created_at :datetime</text>
<text text-anchor="start" x="1341.48" y="-429.3" font-family="Times,serif" font-size="14.00">updated_at :datetime</text>
</g>
<!-- Employee&#45;&gt;User -->
<g id="edge18" class="edge"><title>Employee&#45;&gt;User</title>
<path fill="none" stroke="#361caa" d="M1484.82,-654.368C1471.16,-618.551 1456.85,-581.023 1445.12,-550.247"/>
<ellipse fill="none" stroke="#361caa" cx="1486.34" cy="-658.371" rx="4.00001" ry="4.00001"/>
<ellipse fill="#361caa" stroke="#361caa" cx="1443.62" cy="-546.31" rx="4.00001" ry="4.00001"/>
</g>
<!-- Employee&#45;&gt;DailyDataEmployee -->
<g id="edge19" class="edge"><title>Employee&#45;&gt;DailyDataEmployee</title>
<path fill="none" stroke="#2f988c" d="M1443.26,-744.073C1363.98,-708.858 1247.14,-652.289 1154.48,-588 1135.12,-574.569 1115.61,-558.114 1098.3,-542.25"/>
<ellipse fill="none" stroke="#2f988c" cx="1447.15" cy="-745.795" rx="4.00002" ry="4.00002"/>
<polygon fill="#2f988c" stroke="#2f988c" points="1097.84,-541.82 1093.58,-531.718 1094.18,-538.418 1090.51,-535.015 1090.51,-535.015 1090.51,-535.015 1094.18,-538.418 1087.45,-538.313 1097.84,-541.82 1097.84,-541.82"/>
</g>
<!-- EmployeePsa -->
<g id="node10" class="node"><title>EmployeePsa</title>
<path fill="none" stroke="black" d="M1719.48,-188.5C1719.48,-188.5 1843.48,-188.5 1843.48,-188.5 1849.48,-188.5 1855.48,-194.5 1855.48,-200.5 1855.48,-200.5 1855.48,-327.5 1855.48,-327.5 1855.48,-333.5 1849.48,-339.5 1843.48,-339.5 1843.48,-339.5 1719.48,-339.5 1719.48,-339.5 1713.48,-339.5 1707.48,-333.5 1707.48,-327.5 1707.48,-327.5 1707.48,-200.5 1707.48,-200.5 1707.48,-194.5 1713.48,-188.5 1719.48,-188.5"/>
<text text-anchor="middle" x="1781.48" y="-324.3" font-family="Times,serif" font-size="14.00">EmployeePsa</text>
<polyline fill="none" stroke="black" points="1707.48,-316.5 1855.48,-316.5 "/>
<text text-anchor="start" x="1715.48" y="-301.3" font-family="Times,serif" font-size="14.00">id :integer</text>
<text text-anchor="start" x="1715.48" y="-286.3" font-family="Times,serif" font-size="14.00">startDate :datetime</text>
<text text-anchor="start" x="1715.48" y="-271.3" font-family="Times,serif" font-size="14.00">endDate :datetime</text>
<text text-anchor="start" x="1715.48" y="-256.3" font-family="Times,serif" font-size="14.00">activeBoolean :boolean</text>
<text text-anchor="start" x="1715.48" y="-241.3" font-family="Times,serif" font-size="14.00">employee_id :integer</text>
<text text-anchor="start" x="1715.48" y="-226.3" font-family="Times,serif" font-size="14.00">psa_id :integer</text>
<text text-anchor="start" x="1715.48" y="-211.3" font-family="Times,serif" font-size="14.00">created_at :datetime</text>
<text text-anchor="start" x="1715.48" y="-196.3" font-family="Times,serif" font-size="14.00">updated_at :datetime</text>
</g>
<!-- Employee&#45;&gt;EmployeePsa -->
<g id="edge20" class="edge"><title>Employee&#45;&gt;EmployeePsa</title>
<path fill="none" stroke="#6467cd" d="M1622.96,-720.408C1666.33,-690.852 1719.34,-655.173 1767.48,-624 1792.94,-607.508 1810.73,-614.513 1825.48,-588 1866.34,-514.549 1844.98,-417.613 1819.84,-349.162"/>
<ellipse fill="none" stroke="#6467cd" cx="1619.39" cy="-722.843" rx="4.00002" ry="4.00002"/>
<polygon fill="#6467cd" stroke="#6467cd" points="1819.8,-349.055 1820.49,-338.111 1818.04,-344.376 1816.28,-339.697 1816.28,-339.697 1816.28,-339.697 1818.04,-344.376 1812.07,-341.284 1819.8,-349.055 1819.8,-349.055"/>
</g>
<!-- Employee&#45;&gt;Psa -->
<g id="edge21" class="edge"><title>Employee&#45;&gt;Psa</title>
<path fill="none" stroke="#6821bd" d="M1624.29,-713.808C1666.49,-683.952 1718.14,-649.9 1767.48,-624 1806.36,-603.59 1820.74,-608.676 1859.48,-588 1875.05,-579.69 1890.93,-570.075 1906.27,-560.105"/>
<polygon fill="#6821bd" stroke="#6821bd" points="1624.13,-713.923 1613.38,-716.054 1620.06,-716.821 1615.99,-719.72 1615.99,-719.72 1615.99,-719.72 1620.06,-716.821 1618.59,-723.387 1624.13,-713.923 1624.13,-713.923"/>
<polygon fill="#6821bd" stroke="#6821bd" points="1906.37,-560.035 1917.2,-558.294 1910.55,-557.285 1914.73,-554.536 1914.73,-554.536 1914.73,-554.536 1910.55,-557.285 1912.25,-550.777 1906.37,-560.035 1906.37,-560.035"/>
</g>
<!-- EmployeeTerminal -->
<g id="node28" class="node"><title>EmployeeTerminal</title>
<ellipse fill="none" stroke="black" cx="1570.48" cy="-264" rx="81.3646" ry="18"/>
<text text-anchor="middle" x="1570.48" y="-260.3" font-family="Times,serif" font-size="14.00">EmployeeTerminal</text>
</g>
<!-- Employee&#45;&gt;EmployeeTerminal -->
<g id="edge22" class="edge"><title>Employee&#45;&gt;EmployeeTerminal</title>
<path fill="none" stroke="#9f000e" d="M1542.71,-654.355C1544.3,-632.23 1545.94,-609.448 1547.48,-588 1555.34,-478.392 1564.6,-347.855 1568.55,-292.252"/>
<ellipse fill="none" stroke="#9f000e" cx="1542.41" cy="-658.483" rx="4" ry="4"/>
<polygon fill="#9f000e" stroke="#9f000e" points="1568.56,-292.133 1573.75,-282.477 1568.91,-287.146 1569.26,-282.158 1569.26,-282.158 1569.26,-282.158 1568.91,-287.146 1564.77,-281.84 1568.56,-292.133 1568.56,-292.133"/>
</g>
<!-- Terminal -->
<g id="node20" class="node"><title>Terminal</title>
<path fill="none" stroke="black" d="M1611.98,-399C1611.98,-399 1804.98,-399 1804.98,-399 1810.98,-399 1816.98,-405 1816.98,-411 1816.98,-411 1816.98,-553 1816.98,-553 1816.98,-559 1810.98,-565 1804.98,-565 1804.98,-565 1611.98,-565 1611.98,-565 1605.98,-565 1599.98,-559 1599.98,-553 1599.98,-553 1599.98,-411 1599.98,-411 1599.98,-405 1605.98,-399 1611.98,-399"/>
<text text-anchor="middle" x="1708.48" y="-549.8" font-family="Times,serif" font-size="14.00">Terminal</text>
<polyline fill="none" stroke="black" points="1599.98,-542 1816.98,-542 "/>
<text text-anchor="start" x="1607.98" y="-526.8" font-family="Times,serif" font-size="14.00">id :integer</text>
<text text-anchor="start" x="1607.98" y="-511.8" font-family="Times,serif" font-size="14.00">fedexTerminalName :string</text>
<text text-anchor="start" x="1607.98" y="-496.8" font-family="Times,serif" font-size="14.00">fedexTerminalNumber :integer</text>
<text text-anchor="start" x="1607.98" y="-481.8" font-family="Times,serif" font-size="14.00">contractorTerminalName :string</text>
<text text-anchor="start" x="1607.98" y="-466.8" font-family="Times,serif" font-size="14.00">contractorTerminalNumber :integer</text>
<text text-anchor="start" x="1607.98" y="-451.8" font-family="Times,serif" font-size="14.00">colocationBoolean :boolean</text>
<text text-anchor="start" x="1607.98" y="-436.8" font-family="Times,serif" font-size="14.00">created_at :datetime</text>
<text text-anchor="start" x="1607.98" y="-421.8" font-family="Times,serif" font-size="14.00">updated_at :datetime</text>
<text text-anchor="start" x="1607.98" y="-406.8" font-family="Times,serif" font-size="14.00">regions_id :integer</text>
</g>
<!-- Employee&#45;&gt;Terminal -->
<g id="edge23" class="edge"><title>Employee&#45;&gt;Terminal</title>
<path fill="none" stroke="#194095" d="M1608.8,-653.308C1624.43,-626.611 1640.58,-599.011 1655.22,-574.003"/>
<polygon fill="#194095" stroke="#194095" points="1608.7,-653.478 1599.77,-659.835 1606.18,-657.793 1603.65,-662.108 1603.65,-662.108 1603.65,-662.108 1606.18,-657.793 1607.53,-664.381 1608.7,-653.478 1608.7,-653.478"/>
<polygon fill="#194095" stroke="#194095" points="1655.28,-573.902 1664.21,-567.545 1657.8,-569.587 1660.33,-565.272 1660.33,-565.272 1660.33,-565.272 1657.8,-569.587 1656.44,-562.999 1655.28,-573.902 1655.28,-573.902"/>
</g>
<!-- FedexContract -->
<g id="node11" class="node"><title>FedexContract</title>
<path fill="none" stroke="black" d="M968.479,-1257C968.479,-1257 1158.48,-1257 1158.48,-1257 1164.48,-1257 1170.48,-1263 1170.48,-1269 1170.48,-1269 1170.48,-1441 1170.48,-1441 1170.48,-1447 1164.48,-1453 1158.48,-1453 1158.48,-1453 968.479,-1453 968.479,-1453 962.479,-1453 956.479,-1447 956.479,-1441 956.479,-1441 956.479,-1269 956.479,-1269 956.479,-1263 962.479,-1257 968.479,-1257"/>
<text text-anchor="middle" x="1063.48" y="-1437.8" font-family="Times,serif" font-size="14.00">FedexContract</text>
<polyline fill="none" stroke="black" points="956.479,-1430 1170.48,-1430 "/>
<text text-anchor="start" x="964.479" y="-1414.8" font-family="Times,serif" font-size="14.00">id :integer</text>
<text text-anchor="start" x="964.479" y="-1399.8" font-family="Times,serif" font-size="14.00">fedexContractName :string</text>
<text text-anchor="start" x="964.479" y="-1384.8" font-family="Times,serif" font-size="14.00">fedexContractNumber :integer</text>
<text text-anchor="start" x="964.479" y="-1369.8" font-family="Times,serif" font-size="14.00">contractorContractName :string</text>
<text text-anchor="start" x="964.479" y="-1354.8" font-family="Times,serif" font-size="14.00">contractorContractNumber :integer</text>
<text text-anchor="start" x="964.479" y="-1339.8" font-family="Times,serif" font-size="14.00">content :text</text>
<text text-anchor="start" x="964.479" y="-1324.8" font-family="Times,serif" font-size="14.00">startDate :datetime</text>
<text text-anchor="start" x="964.479" y="-1309.8" font-family="Times,serif" font-size="14.00">endDate :datetime</text>
<text text-anchor="start" x="964.479" y="-1294.8" font-family="Times,serif" font-size="14.00">created_at :datetime</text>
<text text-anchor="start" x="964.479" y="-1279.8" font-family="Times,serif" font-size="14.00">updated_at :datetime</text>
<text text-anchor="start" x="964.479" y="-1264.8" font-family="Times,serif" font-size="14.00">businesses_id :integer</text>
</g>
<!-- FedexContract&#45;&gt;Business -->
<g id="edge24" class="edge"><title>FedexContract&#45;&gt;Business</title>
<path fill="none" stroke="#776830" d="M1128.61,-1249.95C1137.76,-1235.33 1147.18,-1220.29 1156.35,-1205.64"/>
<ellipse fill="none" stroke="#776830" cx="1126.39" cy="-1253.5" rx="4.00002" ry="4.00002"/>
<polygon fill="#776830" stroke="#776830" points="1156.42,-1205.54 1165.54,-1199.45 1159.07,-1201.3 1161.72,-1197.06 1161.72,-1197.06 1161.72,-1197.06 1159.07,-1201.3 1157.91,-1194.67 1156.42,-1205.54 1156.42,-1205.54"/>
</g>
<!-- FedexContract&#45;&gt;Addendum -->
<g id="edge25" class="edge"><title>FedexContract&#45;&gt;Addendum</title>
<path fill="none" stroke="#68b5bd" d="M1063.48,-1248.88C1063.48,-1147.1 1063.48,-993.559 1063.48,-891.113"/>
<ellipse fill="none" stroke="#68b5bd" cx="1063.48" cy="-1252.98" rx="4" ry="4"/>
<polygon fill="#68b5bd" stroke="#68b5bd" points="1063.48,-891.052 1067.98,-881.052 1063.48,-886.052 1063.48,-881.052 1063.48,-881.052 1063.48,-881.052 1063.48,-886.052 1058.98,-881.052 1063.48,-891.052 1063.48,-891.052"/>
</g>
<!-- FedexContract&#45;&gt;Note -->
<g id="edge26" class="edge"><title>FedexContract&#45;&gt;Note</title>
<path fill="none" stroke="#fd5d7b" d="M948.859,-1256.55C948.4,-1256.36 947.94,-1256.18 947.479,-1256 856.18,-1220.47 135.848,-1289.18 66.479,-1220 -70.8584,-1083.03 47.479,-977.962 47.479,-784 47.479,-784 47.479,-784 47.479,-481 47.479,-259.913 245.778,-273.939 449.479,-188 645.248,-105.408 898.668,-84.2204 1024.1,-78.8202"/>
<ellipse fill="none" stroke="#fd5d7b" cx="952.585" cy="-1258.16" rx="4.00002" ry="4.00002"/>
<polygon fill="#fd5d7b" stroke="#fd5d7b" points="1024.38,-78.8089 1034.56,-82.8974 1029.38,-78.605 1034.38,-78.4012 1034.38,-78.4012 1034.38,-78.4012 1029.38,-78.605 1034.19,-73.9049 1024.38,-78.8089 1024.38,-78.8089"/>
</g>
<!-- Psa&#45;&gt;Note -->
<g id="edge27" class="edge"><title>Psa&#45;&gt;Note</title>
<path fill="none" stroke="#9da611" d="M1952.59,-369.05C1948.27,-359.323 1944.16,-349.55 1940.48,-340 1915.21,-274.5 1950.41,-234.126 1897.48,-188 1791.26,-95.4322 1357.25,-79.8354 1178.73,-77.3757"/>
<ellipse fill="none" stroke="#9da611" cx="1954.29" cy="-372.828" rx="4.00002" ry="4.00002"/>
<polygon fill="#9da611" stroke="#9da611" points="1178.62,-77.3744 1168.68,-72.7472 1173.63,-77.3106 1168.63,-77.2468 1168.63,-77.2468 1168.63,-77.2468 1173.63,-77.3106 1168.57,-81.7464 1178.62,-77.3744 1178.62,-77.3744"/>
</g>
<!-- Psazip -->
<g id="node15" class="node"><title>Psazip</title>
<path fill="none" stroke="black" d="M2003.48,-23C2003.48,-23 2113.48,-23 2113.48,-23 2119.48,-23 2125.48,-29 2125.48,-35 2125.48,-35 2125.48,-117 2125.48,-117 2125.48,-123 2119.48,-129 2113.48,-129 2113.48,-129 2003.48,-129 2003.48,-129 1997.48,-129 1991.48,-123 1991.48,-117 1991.48,-117 1991.48,-35 1991.48,-35 1991.48,-29 1997.48,-23 2003.48,-23"/>
<text text-anchor="middle" x="2058.48" y="-113.8" font-family="Times,serif" font-size="14.00">Psazip</text>
<polyline fill="none" stroke="black" points="1991.48,-106 2125.48,-106 "/>
<text text-anchor="start" x="1999.48" y="-90.8" font-family="Times,serif" font-size="14.00">id :integer</text>
<text text-anchor="start" x="1999.48" y="-75.8" font-family="Times,serif" font-size="14.00">psa_id :integer</text>
<text text-anchor="start" x="1999.48" y="-60.8" font-family="Times,serif" font-size="14.00">zip_id :integer</text>
<text text-anchor="start" x="1999.48" y="-45.8" font-family="Times,serif" font-size="14.00">created_at :datetime</text>
<text text-anchor="start" x="1999.48" y="-30.8" font-family="Times,serif" font-size="14.00">updated_at :datetime</text>
</g>
<!-- Psa&#45;&gt;Psazip -->
<g id="edge28" class="edge"><title>Psa&#45;&gt;Psazip</title>
<path fill="none" stroke="#be221b" d="M2082.49,-368.673C2086.47,-359.22 2089.89,-349.6 2092.48,-340 2110.07,-274.774 2102.48,-254.811 2092.48,-188 2090.04,-171.741 2085.71,-154.574 2080.93,-138.728"/>
<ellipse fill="none" stroke="#be221b" cx="2080.79" cy="-372.55" rx="4.00002" ry="4.00002"/>
<polygon fill="#be221b" stroke="#be221b" points="2080.89,-138.598 2082.21,-127.712 2079.4,-133.825 2077.91,-129.052 2077.91,-129.052 2077.91,-129.052 2079.4,-133.825 2073.62,-130.392 2080.89,-138.598 2080.89,-138.598"/>
</g>
<!-- Zip -->
<g id="node27" class="node"><title>Zip</title>
<path fill="none" stroke="black" d="M1961.48,-218.5C1961.48,-218.5 2071.48,-218.5 2071.48,-218.5 2077.48,-218.5 2083.48,-224.5 2083.48,-230.5 2083.48,-230.5 2083.48,-297.5 2083.48,-297.5 2083.48,-303.5 2077.48,-309.5 2071.48,-309.5 2071.48,-309.5 1961.48,-309.5 1961.48,-309.5 1955.48,-309.5 1949.48,-303.5 1949.48,-297.5 1949.48,-297.5 1949.48,-230.5 1949.48,-230.5 1949.48,-224.5 1955.48,-218.5 1961.48,-218.5"/>
<text text-anchor="middle" x="2016.48" y="-294.3" font-family="Times,serif" font-size="14.00">Zip</text>
<polyline fill="none" stroke="black" points="1949.48,-286.5 2083.48,-286.5 "/>
<text text-anchor="start" x="1957.48" y="-271.3" font-family="Times,serif" font-size="14.00">id :integer</text>
<text text-anchor="start" x="1957.48" y="-256.3" font-family="Times,serif" font-size="14.00">zip :string</text>
<text text-anchor="start" x="1957.48" y="-241.3" font-family="Times,serif" font-size="14.00">created_at :datetime</text>
<text text-anchor="start" x="1957.48" y="-226.3" font-family="Times,serif" font-size="14.00">updated_at :datetime</text>
</g>
<!-- Psa&#45;&gt;Zip -->
<g id="edge29" class="edge"><title>Psa&#45;&gt;Zip</title>
<path fill="none" stroke="#e58d3c" d="M2013.67,-366.254C2014.12,-350.041 2014.56,-334.031 2014.96,-319.694"/>
<polygon fill="#e58d3c" stroke="#e58d3c" points="2013.66,-366.484 2008.88,-376.355 2013.52,-371.482 2013.38,-376.48 2013.38,-376.48 2013.38,-376.48 2013.52,-371.482 2017.88,-376.605 2013.66,-366.484 2013.66,-366.484"/>
<polygon fill="#e58d3c" stroke="#e58d3c" points="2014.96,-319.567 2019.74,-309.696 2015.1,-314.569 2015.24,-309.571 2015.24,-309.571 2015.24,-309.571 2015.1,-314.569 2010.74,-309.446 2014.96,-319.567 2014.96,-319.567"/>
</g>
<!-- PsaState -->
<g id="node14" class="node"><title>PsaState</title>
<path fill="none" stroke="black" d="M2198.48,-23C2198.48,-23 2308.48,-23 2308.48,-23 2314.48,-23 2320.48,-29 2320.48,-35 2320.48,-35 2320.48,-117 2320.48,-117 2320.48,-123 2314.48,-129 2308.48,-129 2308.48,-129 2198.48,-129 2198.48,-129 2192.48,-129 2186.48,-123 2186.48,-117 2186.48,-117 2186.48,-35 2186.48,-35 2186.48,-29 2192.48,-23 2198.48,-23"/>
<text text-anchor="middle" x="2253.48" y="-113.8" font-family="Times,serif" font-size="14.00">PsaState</text>
<polyline fill="none" stroke="black" points="2186.48,-106 2320.48,-106 "/>
<text text-anchor="start" x="2194.48" y="-90.8" font-family="Times,serif" font-size="14.00">id :integer</text>
<text text-anchor="start" x="2194.48" y="-75.8" font-family="Times,serif" font-size="14.00">psa_id :integer</text>
<text text-anchor="start" x="2194.48" y="-60.8" font-family="Times,serif" font-size="14.00">state_id :integer</text>
<text text-anchor="start" x="2194.48" y="-45.8" font-family="Times,serif" font-size="14.00">created_at :datetime</text>
<text text-anchor="start" x="2194.48" y="-30.8" font-family="Times,serif" font-size="14.00">updated_at :datetime</text>
</g>
<!-- Psa&#45;&gt;PsaState -->
<g id="edge30" class="edge"><title>Psa&#45;&gt;PsaState</title>
<path fill="none" stroke="#edcb88" d="M2113.97,-456.187C2174.46,-435.789 2245.91,-400.147 2282.48,-340 2319.59,-278.963 2300.91,-195.037 2280.53,-138.55"/>
<ellipse fill="none" stroke="#edcb88" cx="2110.07" cy="-457.471" rx="4.00001" ry="4.00001"/>
<polygon fill="#edcb88" stroke="#edcb88" points="2280.48,-138.403 2281.21,-127.462 2278.73,-133.717 2276.99,-129.032 2276.99,-129.032 2276.99,-129.032 2278.73,-133.717 2272.77,-130.602 2280.48,-138.403 2280.48,-138.403"/>
</g>
<!-- State -->
<g id="node19" class="node"><title>State</title>
<path fill="none" stroke="black" d="M2151.48,-211C2151.48,-211 2261.48,-211 2261.48,-211 2267.48,-211 2273.48,-217 2273.48,-223 2273.48,-223 2273.48,-305 2273.48,-305 2273.48,-311 2267.48,-317 2261.48,-317 2261.48,-317 2151.48,-317 2151.48,-317 2145.48,-317 2139.48,-311 2139.48,-305 2139.48,-305 2139.48,-223 2139.48,-223 2139.48,-217 2145.48,-211 2151.48,-211"/>
<text text-anchor="middle" x="2206.48" y="-301.8" font-family="Times,serif" font-size="14.00">State</text>
<polyline fill="none" stroke="black" points="2139.48,-294 2273.48,-294 "/>
<text text-anchor="start" x="2147.48" y="-278.8" font-family="Times,serif" font-size="14.00">id :integer</text>
<text text-anchor="start" x="2147.48" y="-263.8" font-family="Times,serif" font-size="14.00">state :string</text>
<text text-anchor="start" x="2147.48" y="-248.8" font-family="Times,serif" font-size="14.00">abbreviation :string</text>
<text text-anchor="start" x="2147.48" y="-233.8" font-family="Times,serif" font-size="14.00">created_at :datetime</text>
<text text-anchor="start" x="2147.48" y="-218.8" font-family="Times,serif" font-size="14.00">updated_at :datetime</text>
</g>
<!-- Psa&#45;&gt;State -->
<g id="edge31" class="edge"><title>Psa&#45;&gt;State</title>
<path fill="none" stroke="#bc5087" d="M2112.32,-368.765C2126.1,-353.583 2139.77,-338.514 2152.25,-324.758"/>
<polygon fill="#bc5087" stroke="#bc5087" points="2112.04,-369.074 2101.99,-373.456 2108.68,-372.777 2105.32,-376.48 2105.32,-376.48 2105.32,-376.48 2108.68,-372.777 2108.65,-379.504 2112.04,-369.074 2112.04,-369.074"/>
<polygon fill="#bc5087" stroke="#bc5087" points="2152.34,-324.665 2162.39,-320.283 2155.7,-320.962 2159.06,-317.259 2159.06,-317.259 2159.06,-317.259 2155.7,-320.962 2155.73,-314.235 2152.34,-324.665 2152.34,-324.665"/>
</g>
<!-- Psa&#45;&gt;EmployeePsa -->
<g id="edge32" class="edge"><title>Psa&#45;&gt;EmployeePsa</title>
<path fill="none" stroke="#db9b9a" d="M1908.66,-384.957C1893.46,-370.624 1877.96,-356.006 1863.25,-342.13"/>
<ellipse fill="none" stroke="#db9b9a" cx="1911.78" cy="-387.903" rx="4.00002" ry="4.00002"/>
<polygon fill="#db9b9a" stroke="#db9b9a" points="1862.91,-341.809 1858.72,-331.674 1859.27,-338.378 1855.64,-334.947 1855.64,-334.947 1855.64,-334.947 1859.27,-338.378 1852.55,-338.221 1862.91,-341.809 1862.91,-341.809"/>
</g>
<!-- Region -->
<g id="node16" class="node"><title>Region</title>
<path fill="none" stroke="black" d="M1788.48,-707.5C1788.48,-707.5 1970.48,-707.5 1970.48,-707.5 1976.48,-707.5 1982.48,-713.5 1982.48,-719.5 1982.48,-719.5 1982.48,-846.5 1982.48,-846.5 1982.48,-852.5 1976.48,-858.5 1970.48,-858.5 1970.48,-858.5 1788.48,-858.5 1788.48,-858.5 1782.48,-858.5 1776.48,-852.5 1776.48,-846.5 1776.48,-846.5 1776.48,-719.5 1776.48,-719.5 1776.48,-713.5 1782.48,-707.5 1788.48,-707.5"/>
<text text-anchor="middle" x="1879.48" y="-843.3" font-family="Times,serif" font-size="14.00">Region</text>
<polyline fill="none" stroke="black" points="1776.48,-835.5 1982.48,-835.5 "/>
<text text-anchor="start" x="1784.48" y="-820.3" font-family="Times,serif" font-size="14.00">id :integer</text>
<text text-anchor="start" x="1784.48" y="-805.3" font-family="Times,serif" font-size="14.00">fedexRegionName :string</text>
<text text-anchor="start" x="1784.48" y="-790.3" font-family="Times,serif" font-size="14.00">fedexRegionNumber :integer</text>
<text text-anchor="start" x="1784.48" y="-775.3" font-family="Times,serif" font-size="14.00">fedexRegionPhone :string</text>
<text text-anchor="start" x="1784.48" y="-760.3" font-family="Times,serif" font-size="14.00">contractorRegionName :string</text>
<text text-anchor="start" x="1784.48" y="-745.3" font-family="Times,serif" font-size="14.00">contractorRegionNumber :integer</text>
<text text-anchor="start" x="1784.48" y="-730.3" font-family="Times,serif" font-size="14.00">created_at :datetime</text>
<text text-anchor="start" x="1784.48" y="-715.3" font-family="Times,serif" font-size="14.00">updated_at :datetime</text>
</g>
<!-- Region&#45;&gt;Psa -->
<g id="edge33" class="edge"><title>Region&#45;&gt;Psa</title>
<path fill="none" stroke="#73dcc5" d="M1915.59,-699.583C1929.44,-667.974 1945.5,-631.318 1960.42,-597.252"/>
<ellipse fill="none" stroke="#73dcc5" cx="1913.8" cy="-703.657" rx="4.00002" ry="4.00002"/>
<polygon fill="#73dcc5" stroke="#73dcc5" points="1960.59,-596.878 1968.72,-589.524 1962.59,-592.298 1964.6,-587.718 1964.6,-587.718 1964.6,-587.718 1962.59,-592.298 1960.48,-585.913 1960.59,-596.878 1960.59,-596.878"/>
</g>
<!-- Region&#45;&gt;Terminal -->
<g id="edge34" class="edge"><title>Region&#45;&gt;Terminal</title>
<path fill="none" stroke="#11b3b5" d="M1832.66,-700.129C1810.29,-661.017 1783.45,-614.081 1760.45,-573.87"/>
<ellipse fill="none" stroke="#11b3b5" cx="1834.78" cy="-703.849" rx="4.00002" ry="4.00002"/>
<polygon fill="#11b3b5" stroke="#11b3b5" points="1760.42,-573.813 1759.36,-562.899 1757.93,-569.473 1755.45,-565.133 1755.45,-565.133 1755.45,-565.133 1757.93,-569.473 1751.54,-567.367 1760.42,-573.813 1760.42,-573.813"/>
</g>
<!-- Region&#45;&gt;Note -->
<g id="edge35" class="edge"><title>Region&#45;&gt;Note</title>
<path fill="none" stroke="#24aa68" d="M1883.18,-699.248C1889.24,-544.902 1897.56,-225.286 1864.48,-188 1775.03,-87.1935 1354.23,-76.2951 1178.68,-76.2348"/>
<ellipse fill="none" stroke="#24aa68" cx="1883.01" cy="-703.375" rx="4" ry="4"/>
<polygon fill="#24aa68" stroke="#24aa68" points="1178.49,-76.2349 1168.49,-71.7435 1173.49,-76.2392 1168.49,-76.2435 1168.49,-76.2435 1168.49,-76.2435 1173.49,-76.2392 1168.49,-80.7435 1178.49,-76.2349 1178.49,-76.2349"/>
</g>
<!-- Role -->
<g id="node17" class="node"><title>Role</title>
<path fill="none" stroke="black" d="M1175.48,-436.5C1175.48,-436.5 1285.48,-436.5 1285.48,-436.5 1291.48,-436.5 1297.48,-442.5 1297.48,-448.5 1297.48,-448.5 1297.48,-515.5 1297.48,-515.5 1297.48,-521.5 1291.48,-527.5 1285.48,-527.5 1285.48,-527.5 1175.48,-527.5 1175.48,-527.5 1169.48,-527.5 1163.48,-521.5 1163.48,-515.5 1163.48,-515.5 1163.48,-448.5 1163.48,-448.5 1163.48,-442.5 1169.48,-436.5 1175.48,-436.5"/>
<text text-anchor="middle" x="1230.48" y="-512.3" font-family="Times,serif" font-size="14.00">Role</text>
<polyline fill="none" stroke="black" points="1163.48,-504.5 1297.48,-504.5 "/>
<text text-anchor="start" x="1171.48" y="-489.3" font-family="Times,serif" font-size="14.00">id :integer</text>
<text text-anchor="start" x="1171.48" y="-474.3" font-family="Times,serif" font-size="14.00">name :string</text>
<text text-anchor="start" x="1171.48" y="-459.3" font-family="Times,serif" font-size="14.00">created_at :datetime</text>
<text text-anchor="start" x="1171.48" y="-444.3" font-family="Times,serif" font-size="14.00">updated_at :datetime</text>
</g>
<!-- UserRole -->
<g id="node22" class="node"><title>UserRole</title>
<path fill="none" stroke="black" d="M1243.48,-211C1243.48,-211 1353.48,-211 1353.48,-211 1359.48,-211 1365.48,-217 1365.48,-223 1365.48,-223 1365.48,-305 1365.48,-305 1365.48,-311 1359.48,-317 1353.48,-317 1353.48,-317 1243.48,-317 1243.48,-317 1237.48,-317 1231.48,-311 1231.48,-305 1231.48,-305 1231.48,-223 1231.48,-223 1231.48,-217 1237.48,-211 1243.48,-211"/>
<text text-anchor="middle" x="1298.48" y="-301.8" font-family="Times,serif" font-size="14.00">UserRole</text>
<polyline fill="none" stroke="black" points="1231.48,-294 1365.48,-294 "/>
<text text-anchor="start" x="1239.48" y="-278.8" font-family="Times,serif" font-size="14.00">id :integer</text>
<text text-anchor="start" x="1239.48" y="-263.8" font-family="Times,serif" font-size="14.00">user_id :integer</text>
<text text-anchor="start" x="1239.48" y="-248.8" font-family="Times,serif" font-size="14.00">role_id :integer</text>
<text text-anchor="start" x="1239.48" y="-233.8" font-family="Times,serif" font-size="14.00">created_at :datetime</text>
<text text-anchor="start" x="1239.48" y="-218.8" font-family="Times,serif" font-size="14.00">updated_at :datetime</text>
</g>
<!-- Role&#45;&gt;UserRole -->
<g id="edge36" class="edge"><title>Role&#45;&gt;UserRole</title>
<path fill="none" stroke="#f74104" d="M1247.06,-428.33C1256.69,-397.752 1268.87,-359.066 1278.95,-327.02"/>
<ellipse fill="none" stroke="#f74104" cx="1245.77" cy="-432.429" rx="4.00001" ry="4.00001"/>
<polygon fill="#f74104" stroke="#f74104" points="1279.01,-326.843 1286.31,-318.656 1280.51,-322.074 1282.01,-317.305 1282.01,-317.305 1282.01,-317.305 1280.51,-322.074 1277.72,-315.953 1279.01,-326.843 1279.01,-326.843"/>
</g>
<!-- Role&#45;&gt;Role -->
<g id="edge37" class="edge"><title>Role&#45;&gt;Role</title>
<path fill="none" stroke="#780272" d="M1305.8,-513.1C1311.78,-506.291 1315.48,-495.924 1315.48,-482 1315.48,-468.076 1311.78,-457.709 1305.8,-450.9"/>
<polygon fill="#780272" stroke="#780272" points="1305.64,-513.229 1295.01,-515.94 1301.73,-516.344 1297.82,-519.46 1297.82,-519.46 1297.82,-519.46 1301.73,-516.344 1300.62,-522.979 1305.64,-513.229 1305.64,-513.229"/>
<polygon fill="#780272" stroke="#780272" points="1305.64,-450.771 1300.62,-441.021 1301.73,-447.656 1297.82,-444.54 1297.82,-444.54 1297.82,-444.54 1301.73,-447.656 1295.01,-448.06 1305.64,-450.771 1305.64,-450.771"/>
</g>
<!-- ServiceType -->
<g id="node18" class="node"><title>ServiceType</title>
<path fill="none" stroke="black" d="M87.479,-1038.5C87.479,-1038.5 197.479,-1038.5 197.479,-1038.5 203.479,-1038.5 209.479,-1044.5 209.479,-1050.5 209.479,-1050.5 209.479,-1147.5 209.479,-1147.5 209.479,-1153.5 203.479,-1159.5 197.479,-1159.5 197.479,-1159.5 87.479,-1159.5 87.479,-1159.5 81.479,-1159.5 75.479,-1153.5 75.479,-1147.5 75.479,-1147.5 75.479,-1050.5 75.479,-1050.5 75.479,-1044.5 81.479,-1038.5 87.479,-1038.5"/>
<text text-anchor="middle" x="142.479" y="-1144.3" font-family="Times,serif" font-size="14.00">ServiceType</text>
<polyline fill="none" stroke="black" points="75.479,-1136.5 209.479,-1136.5 "/>
<text text-anchor="start" x="83.479" y="-1121.3" font-family="Times,serif" font-size="14.00">id :integer</text>
<text text-anchor="start" x="83.479" y="-1106.3" font-family="Times,serif" font-size="14.00">serviceType :string</text>
<text text-anchor="start" x="83.479" y="-1091.3" font-family="Times,serif" font-size="14.00">startDate :datetime</text>
<text text-anchor="start" x="83.479" y="-1076.3" font-family="Times,serif" font-size="14.00">endDate :datetime</text>
<text text-anchor="start" x="83.479" y="-1061.3" font-family="Times,serif" font-size="14.00">created_at :datetime</text>
<text text-anchor="start" x="83.479" y="-1046.3" font-family="Times,serif" font-size="14.00">updated_at :datetime</text>
</g>
<!-- ServiceType&#45;&gt;Vehicle -->
<g id="edge38" class="edge"><title>ServiceType&#45;&gt;Vehicle</title>
<path fill="none" stroke="#91f3bd" d="M179.171,-1031.24C190.609,-1013.07 204.045,-994.006 218.479,-978 261.521,-930.27 317.24,-885.27 364.763,-850.649"/>
<ellipse fill="none" stroke="#91f3bd" cx="176.831" cy="-1035.02" rx="4.00002" ry="4.00002"/>
<polygon fill="#91f3bd" stroke="#91f3bd" points="364.821,-850.606 375.561,-848.392 368.873,-847.676 372.924,-844.746 372.924,-844.746 372.924,-844.746 368.873,-847.676 370.287,-841.099 364.821,-850.606 364.821,-850.606"/>
</g>
<!-- State&#45;&gt;PsaState -->
<g id="edge39" class="edge"><title>State&#45;&gt;PsaState</title>
<path fill="none" stroke="#8f5313" d="M2221.69,-202.788C2226.84,-182.412 2232.6,-159.628 2237.79,-139.107"/>
<ellipse fill="none" stroke="#8f5313" cx="2220.68" cy="-206.816" rx="4.00001" ry="4.00001"/>
<polygon fill="#8f5313" stroke="#8f5313" points="2237.83,-138.931 2244.64,-130.338 2239.05,-134.083 2240.28,-129.236 2240.28,-129.236 2240.28,-129.236 2239.05,-134.083 2235.92,-128.133 2237.83,-138.931 2237.83,-138.931"/>
</g>
<!-- State&#45;&gt;Note -->
<g id="edge40" class="edge"><title>State&#45;&gt;Note</title>
<path fill="none" stroke="#e1dbbe" d="M2132.31,-207.201C2119.55,-199.684 2106.01,-192.891 2092.48,-188 1924.24,-127.211 1381.83,-92.2322 1178.99,-81.0065"/>
<ellipse fill="none" stroke="#e1dbbe" cx="2135.9" cy="-209.373" rx="4.00002" ry="4.00002"/>
<polygon fill="#e1dbbe" stroke="#e1dbbe" points="1178.7,-80.991 1168.96,-75.9493 1173.71,-80.7167 1168.72,-80.4425 1168.72,-80.4425 1168.72,-80.4425 1173.71,-80.7167 1168.47,-84.9357 1178.7,-80.991 1178.7,-80.991"/>
</g>
<!-- Terminal&#45;&gt;Note -->
<g id="edge41" class="edge"><title>Terminal&#45;&gt;Note</title>
<path fill="none" stroke="#22a69e" d="M1698.87,-390.493C1689.48,-309.923 1674.57,-202.577 1660.48,-188 1594.81,-120.081 1316.04,-91.7244 1178.65,-81.7007"/>
<ellipse fill="none" stroke="#22a69e" cx="1699.36" cy="-394.721" rx="4.00001" ry="4.00001"/>
<polygon fill="#22a69e" stroke="#22a69e" points="1178.58,-81.6959 1168.93,-76.4938 1173.6,-81.3391 1168.61,-80.9823 1168.61,-80.9823 1168.61,-80.9823 1173.6,-81.3391 1168.29,-85.4708 1178.58,-81.6959 1178.58,-81.6959"/>
</g>
<!-- Terminal&#45;&gt;EmployeeTerminal -->
<g id="edge42" class="edge"><title>Terminal&#45;&gt;EmployeeTerminal</title>
<path fill="none" stroke="#6a42f1" d="M1651.55,-391.89C1628.13,-355.237 1602.8,-315.588 1586.8,-290.544"/>
<ellipse fill="none" stroke="#6a42f1" cx="1653.76" cy="-395.353" rx="4.00002" ry="4.00002"/>
<polygon fill="#6a42f1" stroke="#6a42f1" points="1586.73,-290.438 1585.14,-279.588 1584.04,-286.225 1581.35,-282.011 1581.35,-282.011 1581.35,-282.011 1584.04,-286.225 1577.56,-284.434 1586.73,-290.438 1586.73,-290.438"/>
</g>
<!-- User&#45;&gt;UserRole -->
<g id="edge43" class="edge"><title>User&#45;&gt;UserRole</title>
<path fill="none" stroke="#b3a024" d="M1382.17,-414.399C1366.34,-386.139 1348.01,-353.422 1332.55,-325.822"/>
<ellipse fill="none" stroke="#b3a024" cx="1384.14" cy="-417.916" rx="4.00002" ry="4.00002"/>
<polygon fill="#b3a024" stroke="#b3a024" points="1332.53,-325.777 1331.56,-314.854 1330.08,-321.415 1327.64,-317.053 1327.64,-317.053 1327.64,-317.053 1330.08,-321.415 1323.71,-319.252 1332.53,-325.777 1332.53,-325.777"/>
</g>
<!-- Vehicle&#45;&gt;Note -->
<g id="edge44" class="edge"><title>Vehicle&#45;&gt;Note</title>
<path fill="none" stroke="#e4dc1b" d="M435.138,-616.646C421.7,-483.88 427.586,-301.488 532.479,-188 597.959,-117.154 884.443,-90.1684 1024.22,-81.0818"/>
<ellipse fill="none" stroke="#e4dc1b" cx="435.589" cy="-620.941" rx="4" ry="4"/>
<polygon fill="#e4dc1b" stroke="#e4dc1b" points="1024.45,-81.0671 1034.72,-84.9237 1029.44,-80.7499 1034.43,-80.4328 1034.43,-80.4328 1034.43,-80.4328 1029.44,-80.7499 1034.15,-75.9419 1024.45,-81.0671 1024.45,-81.0671"/>
</g>
<!-- Vehicle&#45;&gt;DailyDataVehicle -->
<g id="edge45" class="edge"><title>Vehicle&#45;&gt;DailyDataVehicle</title>
<path fill="none" stroke="#e5b65a" d="M560.4,-622.665C577.337,-594.53 593.994,-566.861 607.957,-543.667"/>
<ellipse fill="none" stroke="#e5b65a" cx="558.124" cy="-626.445" rx="4.00002" ry="4.00002"/>
<polygon fill="#e5b65a" stroke="#e5b65a" points="608.014,-543.573 617.027,-537.327 610.592,-539.289 613.171,-535.006 613.171,-535.006 613.171,-535.006 610.592,-539.289 609.316,-532.685 608.014,-543.573 608.014,-543.573"/>
</g>
<!-- VehicleFuel -->
<g id="node24" class="node"><title>VehicleFuel</title>
<path fill="none" stroke="black" d="M239.979,-1038.5C239.979,-1038.5 352.979,-1038.5 352.979,-1038.5 358.979,-1038.5 364.979,-1044.5 364.979,-1050.5 364.979,-1050.5 364.979,-1147.5 364.979,-1147.5 364.979,-1153.5 358.979,-1159.5 352.979,-1159.5 352.979,-1159.5 239.979,-1159.5 239.979,-1159.5 233.979,-1159.5 227.979,-1153.5 227.979,-1147.5 227.979,-1147.5 227.979,-1050.5 227.979,-1050.5 227.979,-1044.5 233.979,-1038.5 239.979,-1038.5"/>
<text text-anchor="middle" x="296.479" y="-1144.3" font-family="Times,serif" font-size="14.00">VehicleFuel</text>
<polyline fill="none" stroke="black" points="227.979,-1136.5 364.979,-1136.5 "/>
<text text-anchor="start" x="235.979" y="-1121.3" font-family="Times,serif" font-size="14.00">id :integer</text>
<text text-anchor="start" x="235.979" y="-1106.3" font-family="Times,serif" font-size="14.00">fuelType :string</text>
<text text-anchor="start" x="235.979" y="-1091.3" font-family="Times,serif" font-size="14.00">fuelTankSize :integer</text>
<text text-anchor="start" x="235.979" y="-1076.3" font-family="Times,serif" font-size="14.00">mpg :integer</text>
<text text-anchor="start" x="235.979" y="-1061.3" font-family="Times,serif" font-size="14.00">created_at :datetime</text>
<text text-anchor="start" x="235.979" y="-1046.3" font-family="Times,serif" font-size="14.00">updated_at :datetime</text>
</g>
<!-- VehicleFuel&#45;&gt;Vehicle -->
<g id="edge46" class="edge"><title>VehicleFuel&#45;&gt;Vehicle</title>
<path fill="none" stroke="#022045" d="M332.393,-1030.88C345.225,-1006.89 360.315,-978.687 375.621,-950.08"/>
<ellipse fill="none" stroke="#022045" cx="330.361" cy="-1034.67" rx="4.00002" ry="4.00002"/>
<polygon fill="#022045" stroke="#022045" points="375.658,-950.01 384.343,-943.316 378.017,-945.602 380.376,-941.193 380.376,-941.193 380.376,-941.193 378.017,-945.602 376.408,-939.07 375.658,-950.01 375.658,-950.01"/>
</g>
<!-- VehicleOdometer -->
<g id="node25" class="node"><title>VehicleOdometer</title>
<path fill="none" stroke="black" d="M395.479,-1038.5C395.479,-1038.5 533.479,-1038.5 533.479,-1038.5 539.479,-1038.5 545.479,-1044.5 545.479,-1050.5 545.479,-1050.5 545.479,-1147.5 545.479,-1147.5 545.479,-1153.5 539.479,-1159.5 533.479,-1159.5 533.479,-1159.5 395.479,-1159.5 395.479,-1159.5 389.479,-1159.5 383.479,-1153.5 383.479,-1147.5 383.479,-1147.5 383.479,-1050.5 383.479,-1050.5 383.479,-1044.5 389.479,-1038.5 395.479,-1038.5"/>
<text text-anchor="middle" x="464.479" y="-1144.3" font-family="Times,serif" font-size="14.00">VehicleOdometer</text>
<polyline fill="none" stroke="black" points="383.479,-1136.5 545.479,-1136.5 "/>
<text text-anchor="start" x="391.479" y="-1121.3" font-family="Times,serif" font-size="14.00">id :integer</text>
<text text-anchor="start" x="391.479" y="-1106.3" font-family="Times,serif" font-size="14.00">odometerReading :integer</text>
<text text-anchor="start" x="391.479" y="-1091.3" font-family="Times,serif" font-size="14.00">startDate :datetime</text>
<text text-anchor="start" x="391.479" y="-1076.3" font-family="Times,serif" font-size="14.00">endDate :datetime</text>
<text text-anchor="start" x="391.479" y="-1061.3" font-family="Times,serif" font-size="14.00">created_at :datetime</text>
<text text-anchor="start" x="391.479" y="-1046.3" font-family="Times,serif" font-size="14.00">updated_at :datetime</text>
</g>
<!-- VehicleOdometer&#45;&gt;Vehicle -->
<g id="edge47" class="edge"><title>VehicleOdometer&#45;&gt;Vehicle</title>
<path fill="none" stroke="#77d1d7" d="M464.479,-1030.2C464.479,-1006.75 464.479,-979.331 464.479,-951.471"/>
<ellipse fill="none" stroke="#77d1d7" cx="464.479" cy="-1034.2" rx="4" ry="4"/>
<polygon fill="#77d1d7" stroke="#77d1d7" points="464.479,-951.193 468.979,-941.193 464.479,-946.193 464.479,-941.193 464.479,-941.193 464.479,-941.193 464.479,-946.193 459.979,-941.193 464.479,-951.193 464.479,-951.193"/>
</g>
<!-- VehicleType -->
<g id="node26" class="node"><title>VehicleType</title>
<path fill="none" stroke="black" d="M575.479,-1031C575.479,-1031 691.479,-1031 691.479,-1031 697.479,-1031 703.479,-1037 703.479,-1043 703.479,-1043 703.479,-1155 703.479,-1155 703.479,-1161 697.479,-1167 691.479,-1167 691.479,-1167 575.479,-1167 575.479,-1167 569.479,-1167 563.479,-1161 563.479,-1155 563.479,-1155 563.479,-1043 563.479,-1043 563.479,-1037 569.479,-1031 575.479,-1031"/>
<text text-anchor="middle" x="633.479" y="-1151.8" font-family="Times,serif" font-size="14.00">VehicleType</text>
<polyline fill="none" stroke="black" points="563.479,-1144 703.479,-1144 "/>
<text text-anchor="start" x="571.479" y="-1128.8" font-family="Times,serif" font-size="14.00">id :integer</text>
<text text-anchor="start" x="571.479" y="-1113.8" font-family="Times,serif" font-size="14.00">vehicleSize :string</text>
<text text-anchor="start" x="571.479" y="-1098.8" font-family="Times,serif" font-size="14.00">bulkBoolean :boolean</text>
<text text-anchor="start" x="571.479" y="-1083.8" font-family="Times,serif" font-size="14.00">bodyMake :string</text>
<text text-anchor="start" x="571.479" y="-1068.8" font-family="Times,serif" font-size="14.00">bodyModel :string</text>
<text text-anchor="start" x="571.479" y="-1053.8" font-family="Times,serif" font-size="14.00">created_at :datetime</text>
<text text-anchor="start" x="571.479" y="-1038.8" font-family="Times,serif" font-size="14.00">updated_at :datetime</text>
</g>
<!-- VehicleType&#45;&gt;Vehicle -->
<g id="edge48" class="edge"><title>VehicleType&#45;&gt;Vehicle</title>
<path fill="none" stroke="#96cd64" d="M593.33,-1023.4C581.38,-1001.2 567.777,-975.927 553.996,-950.322"/>
<ellipse fill="none" stroke="#96cd64" cx="595.329" cy="-1027.12" rx="4.00002" ry="4.00002"/>
<polygon fill="#96cd64" stroke="#96cd64" points="553.856,-950.062 553.079,-939.123 551.486,-945.659 549.117,-941.256 549.117,-941.256 549.117,-941.256 551.486,-945.659 545.154,-943.389 553.856,-950.062 553.856,-950.062"/>
</g>
<!-- Zip&#45;&gt;Psazip -->
<g id="edge49" class="edge"><title>Zip&#45;&gt;Psazip</title>
<path fill="none" stroke="#3ec7d6" d="M2028.36,-210.375C2033.37,-188.21 2039.23,-162.247 2044.45,-139.148"/>
<ellipse fill="none" stroke="#3ec7d6" cx="2027.42" cy="-214.547" rx="4.00001" ry="4.00001"/>
<polygon fill="#3ec7d6" stroke="#3ec7d6" points="2044.51,-138.858 2051.1,-130.094 2045.61,-133.98 2046.71,-129.103 2046.71,-129.103 2046.71,-129.103 2045.61,-133.98 2042.32,-128.112 2044.51,-138.858 2044.51,-138.858"/>
</g>
<!-- Zip&#45;&gt;Note -->
<g id="edge50" class="edge"><title>Zip&#45;&gt;Note</title>
<path fill="none" stroke="#9033fe" d="M1971.81,-212.751C1960.85,-203.11 1948.5,-194.125 1935.48,-188 1801.85,-125.148 1359.02,-92.3349 1178.79,-81.319"/>
<ellipse fill="none" stroke="#9033fe" cx="1974.79" cy="-215.466" rx="4.00002" ry="4.00002"/>
<polygon fill="#9033fe" stroke="#9033fe" points="1178.58,-81.3062 1168.87,-76.2102 1173.59,-81.0041 1168.6,-80.702 1168.6,-80.702 1168.6,-80.702 1173.59,-81.0041 1168.33,-85.1938 1178.58,-81.3062 1178.58,-81.3062"/>
</g>
</g>
</svg>
