<?xml version="1.0" encoding="UTF-8" standalone="no"?>
<!DOCTYPE svg PUBLIC "-//W3C//DTD SVG 1.1//EN"
 "http://www.w3.org/Graphics/SVG/1.1/DTD/svg11.dtd">
<!-- Generated by graphviz version 2.29.20121209.0545 (20121209.0545)
 -->
<!-- Title: models_diagram Pages: 1 -->
<svg width="1054pt" height="374pt"
 viewBox="0.00 0.00 1054.00 374.00" xmlns="http://www.w3.org/2000/svg" xmlns:xlink="http://www.w3.org/1999/xlink">
<g id="graph0" class="graph" transform="scale(1 1) rotate(0) translate(4 370)">
<title>models_diagram</title>
<polygon fill="white" stroke="white" points="-4,5 -4,-370 1051,-370 1051,5 -4,5"/>
<!-- _diagram_info -->
<g id="node1" class="node"><title>_diagram_info</title>
<text text-anchor="start" x="488" y="-351.6" font-family="Times,serif" font-size="13.00">Models diagram</text>
<text text-anchor="start" x="488" y="-337.6" font-family="Times,serif" font-size="13.00">Date: Dec 14 2012 &#45; 07:19</text>
<text text-anchor="start" x="488" y="-323.6" font-family="Times,serif" font-size="13.00">Migration version: 20121214121703</text>
<text text-anchor="start" x="488" y="-309.6" font-family="Times,serif" font-size="13.00">Generated by RailRoady 1.1.0</text>
<text text-anchor="start" x="488" y="-295.6" font-family="Times,serif" font-size="13.00">http://railroady.prestonlee.com</text>
</g>
<!-- Addendum -->
<g id="node2" class="node"><title>Addendum</title>
<ellipse fill="none" stroke="black" cx="553" cy="-162" rx="51.0191" ry="18"/>
<text text-anchor="middle" x="553" y="-158.3" font-family="Times,serif" font-size="14.00">Addendum</text>
</g>
<!-- Note -->
<g id="node10" class="node"><title>Note</title>
<ellipse fill="none" stroke="black" cx="631" cy="-90" rx="28.3955" ry="18"/>
<text text-anchor="middle" x="631" y="-86.3" font-family="Times,serif" font-size="14.00">Note</text>
</g>
<!-- Addendum&#45;&gt;Note -->
<g id="edge1" class="edge"><title>Addendum&#45;&gt;Note</title>
<path fill="none" stroke="#634483" d="M577.34,-139.157C587.041,-130.451 598.158,-120.474 607.748,-111.868"/>
<ellipse fill="none" stroke="#634483" cx="574.068" cy="-142.093" rx="4.00002" ry="4.00002"/>
<polygon fill="#634483" stroke="#634483" points="607.937,-111.697 618.385,-108.367 611.658,-108.358 615.38,-105.018 615.38,-105.018 615.38,-105.018 611.658,-108.358 612.374,-101.669 607.937,-111.697 607.937,-111.697"/>
</g>
<!-- Business -->
<g id="node3" class="node"><title>Business</title>
<ellipse fill="none" stroke="black" cx="770" cy="-234" rx="42.3456" ry="18"/>
<text text-anchor="middle" x="770" y="-230.3" font-family="Times,serif" font-size="14.00">Business</text>
</g>
<!-- Psa -->
<g id="node11" class="node"><title>Psa</title>
<ellipse fill="none" stroke="black" cx="910" cy="-162" rx="27" ry="18"/>
<text text-anchor="middle" x="910" y="-158.3" font-family="Times,serif" font-size="14.00">Psa</text>
</g>
<!-- Business&#45;&gt;Psa -->
<g id="edge2" class="edge"><title>Business&#45;&gt;Psa</title>
<path fill="none" stroke="#49484c" d="M803.53,-216.235C826.714,-204.643 857.303,-189.349 879.743,-178.129"/>
<ellipse fill="none" stroke="#49484c" cx="799.911" cy="-218.045" rx="4.00002" ry="4.00002"/>
<polygon fill="#49484c" stroke="#49484c" points="879.871,-178.064 890.828,-177.617 884.343,-175.828 888.815,-173.592 888.815,-173.592 888.815,-173.592 884.343,-175.828 886.803,-169.567 879.871,-178.064 879.871,-178.064"/>
</g>
<!-- Employee -->
<g id="node7" class="node"><title>Employee</title>
<ellipse fill="none" stroke="black" cx="707" cy="-162" rx="47.169" ry="18"/>
<text text-anchor="middle" x="707" y="-158.3" font-family="Times,serif" font-size="14.00">Employee</text>
</g>
<!-- Business&#45;&gt;Employee -->
<g id="edge3" class="edge"><title>Business&#45;&gt;Employee</title>
<path fill="none" stroke="#810aad" d="M749.878,-210.643C743.111,-203.123 735.534,-194.704 728.654,-187.06"/>
<ellipse fill="none" stroke="#810aad" cx="752.712" cy="-213.791" rx="4.00002" ry="4.00002"/>
<polygon fill="#810aad" stroke="#810aad" points="728.222,-186.58 724.877,-176.137 724.877,-182.864 721.533,-179.147 721.533,-179.147 721.533,-179.147 724.877,-182.864 718.188,-182.158 728.222,-186.58 728.222,-186.58"/>
</g>
<!-- DailyDataEmployee -->
<g id="node4" class="node"><title>DailyDataEmployee</title>
<ellipse fill="none" stroke="black" cx="499" cy="-90" rx="85.2138" ry="18"/>
<text text-anchor="middle" x="499" y="-86.3" font-family="Times,serif" font-size="14.00">DailyDataEmployee</text>
</g>
<!-- DailyDataVehicle -->
<g id="node5" class="node"><title>DailyDataVehicle</title>
<ellipse fill="none" stroke="black" cx="319" cy="-90" rx="76.5394" ry="18"/>
<text text-anchor="middle" x="319" y="-86.3" font-family="Times,serif" font-size="14.00">DailyDataVehicle</text>
</g>
<!-- DailyDatum -->
<g id="node6" class="node"><title>DailyDatum</title>
<ellipse fill="none" stroke="black" cx="617" cy="-234" rx="55.3436" ry="18"/>
<text text-anchor="middle" x="617" y="-230.3" font-family="Times,serif" font-size="14.00">DailyDatum</text>
</g>
<!-- DailyDatum&#45;&gt;Note -->
<g id="edge4" class="edge"><title>DailyDatum&#45;&gt;Note</title>
<path fill="none" stroke="#b5c379" d="M619.508,-207.558C621.984,-182.444 625.758,-144.164 628.299,-118.393"/>
<ellipse fill="none" stroke="#b5c379" cx="619.081" cy="-211.891" rx="4" ry="4"/>
<polygon fill="#b5c379" stroke="#b5c379" points="628.324,-118.141 633.784,-108.631 628.815,-113.165 629.305,-108.189 629.305,-108.189 629.305,-108.189 628.815,-113.165 624.827,-107.748 628.324,-118.141 628.324,-118.141"/>
</g>
<!-- DailyDatum&#45;&gt;DailyDataVehicle -->
<g id="edge5" class="edge"><title>DailyDatum&#45;&gt;DailyDataVehicle</title>
<path fill="none" stroke="#13e050" d="M572.941,-217.494C546.018,-207.611 511.091,-194.056 481,-180 436.087,-159.021 386.389,-130.954 354.036,-111.992"/>
<ellipse fill="none" stroke="#13e050" cx="576.91" cy="-218.941" rx="4.00001" ry="4.00001"/>
<polygon fill="#13e050" stroke="#13e050" points="354.005,-111.973 347.672,-103.021 349.697,-109.436 345.388,-106.898 345.388,-106.898 345.388,-106.898 349.697,-109.436 343.104,-110.775 354.005,-111.973 354.005,-111.973"/>
</g>
<!-- Vehicle -->
<g id="node21" class="node"><title>Vehicle</title>
<ellipse fill="none" stroke="black" cx="319" cy="-162" rx="38.4949" ry="18"/>
<text text-anchor="middle" x="319" y="-158.3" font-family="Times,serif" font-size="14.00">Vehicle</text>
</g>
<!-- DailyDatum&#45;&gt;Vehicle -->
<g id="edge6" class="edge"><title>DailyDatum&#45;&gt;Vehicle</title>
<path fill="none" stroke="#f1472e" d="M565.498,-219.368C560.938,-218.21 556.389,-217.073 552,-216 486.487,-199.986 410.217,-182.937 363.272,-172.626"/>
<polygon fill="#f1472e" stroke="#f1472e" points="565.753,-219.434 574.322,-226.277 570.597,-220.676 575.44,-221.918 575.44,-221.918 575.44,-221.918 570.597,-220.676 576.558,-217.559 565.753,-219.434 565.753,-219.434"/>
<polygon fill="#f1472e" stroke="#f1472e" points="363.196,-172.61 354.391,-166.073 358.312,-171.539 353.428,-170.468 353.428,-170.468 353.428,-170.468 358.312,-171.539 352.464,-174.864 363.196,-172.61 363.196,-172.61"/>
</g>
<!-- DailyDatum&#45;&gt;DailyDataEmployee -->
<g id="edge7" class="edge"><title>DailyDatum&#45;&gt;DailyDataEmployee</title>
<path fill="none" stroke="#d3b6b0" d="M569.643,-218.771C538.571,-208.368 502.066,-193.734 493,-180 480.979,-161.788 484.009,-136.662 489.163,-117.749"/>
<ellipse fill="none" stroke="#d3b6b0" cx="573.606" cy="-220.073" rx="4.00001" ry="4.00001"/>
<polygon fill="#d3b6b0" stroke="#d3b6b0" points="489.231,-117.526 496.465,-109.284 490.697,-112.746 492.163,-107.965 492.163,-107.965 492.163,-107.965 490.697,-112.746 487.86,-106.646 489.231,-117.526 489.231,-117.526"/>
</g>
<!-- DailyDatum&#45;&gt;Employee -->
<g id="edge8" class="edge"><title>DailyDatum&#45;&gt;Employee</title>
<path fill="none" stroke="#94af98" d="M645.473,-210.854C656.12,-202.573 668.2,-193.178 678.82,-184.918"/>
<polygon fill="#94af98" stroke="#94af98" points="645.316,-210.976 634.66,-213.564 641.369,-214.046 637.422,-217.116 637.422,-217.116 637.422,-217.116 641.369,-214.046 640.185,-220.668 645.316,-210.976 645.316,-210.976"/>
<polygon fill="#94af98" stroke="#94af98" points="679.075,-184.72 689.731,-182.132 683.022,-181.65 686.968,-178.58 686.968,-178.58 686.968,-178.58 683.022,-181.65 684.206,-175.028 679.075,-184.72 679.075,-184.72"/>
</g>
<!-- Employee&#45;&gt;Note -->
<g id="edge9" class="edge"><title>Employee&#45;&gt;Note</title>
<path fill="none" stroke="#a93143" d="M683.664,-139.506C674.196,-130.785 663.293,-120.744 653.873,-112.067"/>
<ellipse fill="none" stroke="#a93143" cx="686.812" cy="-142.406" rx="4.00002" ry="4.00002"/>
<polygon fill="#a93143" stroke="#a93143" points="653.728,-111.934 649.421,-101.849 650.05,-108.546 646.373,-105.159 646.373,-105.159 646.373,-105.159 650.05,-108.546 643.324,-108.469 653.728,-111.934 653.728,-111.934"/>
</g>
<!-- User -->
<g id="node19" class="node"><title>User</title>
<ellipse fill="none" stroke="black" cx="798" cy="-90" rx="27.4223" ry="18"/>
<text text-anchor="middle" x="798" y="-86.3" font-family="Times,serif" font-size="14.00">User</text>
</g>
<!-- Employee&#45;&gt;User -->
<g id="edge10" class="edge"><title>Employee&#45;&gt;User</title>
<path fill="none" stroke="#ce90bd" d="M733.92,-140.293C746.757,-130.418 761.976,-118.711 774.361,-109.184"/>
<ellipse fill="none" stroke="#ce90bd" cx="730.366" cy="-143.026" rx="4.00002" ry="4.00002"/>
<ellipse fill="#ce90bd" stroke="#ce90bd" cx="777.746" cy="-106.58" rx="4.00002" ry="4.00002"/>
</g>
<!-- Employee&#45;&gt;DailyDataEmployee -->
<g id="edge11" class="edge"><title>Employee&#45;&gt;DailyDataEmployee</title>
<path fill="none" stroke="#669d57" d="M664.845,-146.813C632.288,-135.857 587.032,-120.626 552.018,-108.843"/>
<ellipse fill="none" stroke="#669d57" cx="668.862" cy="-148.165" rx="4.00001" ry="4.00001"/>
<polygon fill="#669d57" stroke="#669d57" points="551.911,-108.807 543.869,-101.352 547.172,-107.212 542.433,-105.617 542.433,-105.617 542.433,-105.617 547.172,-107.212 540.998,-109.882 551.911,-108.807 551.911,-108.807"/>
</g>
<!-- EmployeePsa -->
<g id="node8" class="node"><title>EmployeePsa</title>
<ellipse fill="none" stroke="black" cx="913" cy="-327" rx="60.1672" ry="18"/>
<text text-anchor="middle" x="913" y="-323.3" font-family="Times,serif" font-size="14.00">EmployeePsa</text>
</g>
<!-- FedexContract -->
<g id="node9" class="node"><title>FedexContract</title>
<ellipse fill="none" stroke="black" cx="770" cy="-327" rx="64.0172" ry="18"/>
<text text-anchor="middle" x="770" y="-323.3" font-family="Times,serif" font-size="14.00">FedexContract</text>
</g>
<!-- FedexContract&#45;&gt;Business -->
<g id="edge12" class="edge"><title>FedexContract&#45;&gt;Business</title>
<path fill="none" stroke="#b67bee" d="M770,-300.729C770,-288.725 770,-274.362 770,-262.129"/>
<ellipse fill="none" stroke="#b67bee" cx="770" cy="-304.884" rx="4" ry="4"/>
<polygon fill="#b67bee" stroke="#b67bee" points="770,-262.04 774.5,-252.04 770,-257.04 770,-252.04 770,-252.04 770,-252.04 770,-257.04 765.5,-252.04 770,-262.04 770,-262.04"/>
</g>
<!-- Psazip -->
<g id="node13" class="node"><title>Psazip</title>
<ellipse fill="none" stroke="black" cx="1012" cy="-18" rx="34.1708" ry="18"/>
<text text-anchor="middle" x="1012" y="-14.3" font-family="Times,serif" font-size="14.00">Psazip</text>
</g>
<!-- Psa&#45;&gt;Psazip -->
<g id="edge13" class="edge"><title>Psa&#45;&gt;Psazip</title>
<path fill="none" stroke="#4c246e" d="M943.745,-154.896C969.806,-148.218 1004.17,-134.682 1021,-108 1032.73,-89.4049 1028.73,-64.1612 1022.82,-45.3076"/>
<ellipse fill="none" stroke="#4c246e" cx="939.843" cy="-155.827" rx="4.00001" ry="4.00001"/>
<polygon fill="#4c246e" stroke="#4c246e" points="1022.81,-45.2819 1023.77,-34.3584 1021.17,-40.5595 1019.52,-35.8372 1019.52,-35.8372 1019.52,-35.8372 1021.17,-40.5595 1015.27,-37.3159 1022.81,-45.2819 1022.81,-45.2819"/>
</g>
<!-- Zip -->
<g id="node25" class="node"><title>Zip</title>
<ellipse fill="none" stroke="black" cx="985" cy="-90" rx="27" ry="18"/>
<text text-anchor="middle" x="985" y="-86.3" font-family="Times,serif" font-size="14.00">Zip</text>
</g>
<!-- Psa&#45;&gt;Zip -->
<g id="edge14" class="edge"><title>Psa&#45;&gt;Zip</title>
<path fill="none" stroke="#35f0db" d="M932.672,-139.839C942.076,-131.062 952.964,-120.901 962.364,-112.127"/>
<polygon fill="#35f0db" stroke="#35f0db" points="932.488,-140.011 922.107,-143.545 928.833,-143.423 925.177,-146.834 925.177,-146.834 925.177,-146.834 928.833,-143.423 928.248,-150.124 932.488,-140.011 932.488,-140.011"/>
<polygon fill="#35f0db" stroke="#35f0db" points="962.535,-111.968 972.916,-108.434 966.19,-108.556 969.845,-105.144 969.845,-105.144 969.845,-105.144 966.19,-108.556 966.775,-101.855 962.535,-111.968 962.535,-111.968"/>
</g>
<!-- PsaState -->
<g id="node12" class="node"><title>PsaState</title>
<ellipse fill="none" stroke="black" cx="882" cy="-18" rx="41.394" ry="18"/>
<text text-anchor="middle" x="882" y="-14.3" font-family="Times,serif" font-size="14.00">PsaState</text>
</g>
<!-- Psa&#45;&gt;PsaState -->
<g id="edge15" class="edge"><title>Psa&#45;&gt;PsaState</title>
<path fill="none" stroke="#d8fec4" d="M890.812,-139.888C883.767,-130.765 876.63,-119.543 873,-108 866.651,-87.8138 869.61,-63.9026 873.768,-45.9505"/>
<ellipse fill="none" stroke="#d8fec4" cx="893.355" cy="-143.027" rx="4.00002" ry="4.00002"/>
<polygon fill="#d8fec4" stroke="#d8fec4" points="873.799,-45.8265 880.651,-37.2642 875.046,-40.9844 876.293,-36.1423 876.293,-36.1423 876.293,-36.1423 875.046,-40.9844 871.935,-35.0204 873.799,-45.8265 873.799,-45.8265"/>
</g>
<!-- State -->
<g id="node17" class="node"><title>State</title>
<ellipse fill="none" stroke="black" cx="911" cy="-90" rx="28.3955" ry="18"/>
<text text-anchor="middle" x="911" y="-86.3" font-family="Times,serif" font-size="14.00">State</text>
</g>
<!-- Psa&#45;&gt;State -->
<g id="edge16" class="edge"><title>Psa&#45;&gt;State</title>
<path fill="none" stroke="#2bb30e" d="M910.39,-133.665C910.464,-128.552 910.54,-123.21 910.613,-118.104"/>
<polygon fill="#2bb30e" stroke="#2bb30e" points="910.39,-133.698 905.748,-143.632 910.319,-138.697 910.247,-143.697 910.247,-143.697 910.247,-143.697 910.319,-138.697 914.747,-143.761 910.39,-133.698 910.39,-133.698"/>
<polygon fill="#2bb30e" stroke="#2bb30e" points="910.613,-118.103 915.255,-108.169 910.684,-113.104 910.756,-108.104 910.756,-108.104 910.756,-108.104 910.684,-113.104 906.256,-108.04 910.613,-118.103 910.613,-118.103"/>
</g>
<!-- Region -->
<g id="node14" class="node"><title>Region</title>
<ellipse fill="none" stroke="black" cx="890" cy="-234" rx="37.0701" ry="18"/>
<text text-anchor="middle" x="890" y="-230.3" font-family="Times,serif" font-size="14.00">Region</text>
</g>
<!-- Region&#45;&gt;Psa -->
<g id="edge17" class="edge"><title>Region&#45;&gt;Psa</title>
<path fill="none" stroke="#88fc49" d="M897.101,-208.146C898.822,-202.124 900.668,-195.664 902.41,-189.566"/>
<ellipse fill="none" stroke="#88fc49" cx="895.94" cy="-212.209" rx="4.00001" ry="4.00001"/>
<polygon fill="#88fc49" stroke="#88fc49" points="902.456,-189.404 909.53,-181.025 903.83,-184.597 905.203,-179.789 905.203,-179.789 905.203,-179.789 903.83,-184.597 900.876,-178.553 902.456,-189.404 902.456,-189.404"/>
</g>
<!-- Terminal -->
<g id="node18" class="node"><title>Terminal</title>
<ellipse fill="none" stroke="black" cx="820" cy="-162" rx="44.2946" ry="18"/>
<text text-anchor="middle" x="820" y="-158.3" font-family="Times,serif" font-size="14.00">Terminal</text>
</g>
<!-- Region&#45;&gt;Terminal -->
<g id="edge18" class="edge"><title>Region&#45;&gt;Terminal</title>
<path fill="none" stroke="#5eca54" d="M868.542,-211.542C860.505,-203.505 851.341,-194.341 843.157,-186.157"/>
<ellipse fill="none" stroke="#5eca54" cx="871.636" cy="-214.636" rx="4.00002" ry="4.00002"/>
<polygon fill="#5eca54" stroke="#5eca54" points="843.048,-186.048 839.159,-175.795 839.513,-182.513 835.977,-178.977 835.977,-178.977 835.977,-178.977 839.513,-182.513 832.795,-182.159 843.048,-186.048 843.048,-186.048"/>
</g>
<!-- Role -->
<g id="node15" class="node"><title>Role</title>
<ellipse fill="none" stroke="black" cx="706" cy="-90" rx="27.4223" ry="18"/>
<text text-anchor="middle" x="706" y="-86.3" font-family="Times,serif" font-size="14.00">Role</text>
</g>
<!-- UserRole -->
<g id="node20" class="node"><title>UserRole</title>
<ellipse fill="none" stroke="black" cx="756" cy="-18" rx="44.271" ry="18"/>
<text text-anchor="middle" x="756" y="-14.3" font-family="Times,serif" font-size="14.00">UserRole</text>
</g>
<!-- Role&#45;&gt;UserRole -->
<g id="edge19" class="edge"><title>Role&#45;&gt;UserRole</title>
<path fill="none" stroke="#a1ea8e" d="M721.89,-66.7546C727.1,-59.4607 732.921,-51.3106 738.259,-43.8374"/>
<ellipse fill="none" stroke="#a1ea8e" cx="719.422" cy="-70.2098" rx="4.00002" ry="4.00002"/>
<polygon fill="#a1ea8e" stroke="#a1ea8e" points="738.425,-43.6045 747.9,-38.0828 741.332,-39.5359 744.238,-35.4672 744.238,-35.4672 744.238,-35.4672 741.332,-39.5359 740.576,-32.8516 738.425,-43.6045 738.425,-43.6045"/>
</g>
<!-- Role&#45;&gt;Role -->
<g id="edge20" class="edge"><title>Role&#45;&gt;Role</title>
<path fill="none" stroke="#0c8483" d="M736.039,-103.436C744.501,-102.857 751,-98.3782 751,-90 751,-81.6218 744.501,-77.1433 736.039,-76.5644"/>
<polygon fill="#0c8483" stroke="#0c8483" points="735.846,-103.417 726.338,-97.954 730.871,-102.924 725.895,-102.432 725.895,-102.432 725.895,-102.432 730.871,-102.924 725.452,-106.91 735.846,-103.417 735.846,-103.417"/>
<polygon fill="#0c8483" stroke="#0c8483" points="735.846,-76.5834 725.452,-73.0897 730.871,-77.0757 725.895,-77.5679 725.895,-77.5679 725.895,-77.5679 730.871,-77.0757 726.338,-82.046 735.846,-76.5834 735.846,-76.5834"/>
</g>
<!-- ServiceType -->
<g id="node16" class="node"><title>ServiceType</title>
<ellipse fill="none" stroke="black" cx="189" cy="-234" rx="56.3173" ry="18"/>
<text text-anchor="middle" x="189" y="-230.3" font-family="Times,serif" font-size="14.00">ServiceType</text>
</g>
<!-- ServiceType&#45;&gt;Vehicle -->
<g id="edge21" class="edge"><title>ServiceType&#45;&gt;Vehicle</title>
<path fill="none" stroke="#bea7c4" d="M223.885,-214.216C243.065,-203.888 266.737,-191.142 285.667,-180.949"/>
<ellipse fill="none" stroke="#bea7c4" cx="220.092" cy="-216.258" rx="4.00002" ry="4.00002"/>
<polygon fill="#bea7c4" stroke="#bea7c4" points="285.734,-180.913 296.672,-180.134 290.136,-178.542 294.538,-176.172 294.538,-176.172 294.538,-176.172 290.136,-178.542 292.405,-172.209 285.734,-180.913 285.734,-180.913"/>
</g>
<!-- State&#45;&gt;PsaState -->
<g id="edge22" class="edge"><title>State&#45;&gt;PsaState</title>
<path fill="none" stroke="#10f7ba" d="M900.965,-64.7779C898.383,-58.544 895.59,-51.8046 892.963,-45.4634"/>
<ellipse fill="none" stroke="#10f7ba" cx="902.596" cy="-68.7155" rx="4.00001" ry="4.00001"/>
<polygon fill="#10f7ba" stroke="#10f7ba" points="892.852,-45.1948 893.182,-34.2339 890.938,-40.5755 889.025,-35.9562 889.025,-35.9562 889.025,-35.9562 890.938,-40.5755 884.867,-37.6786 892.852,-45.1948 892.852,-45.1948"/>
</g>
<!-- Terminal&#45;&gt;Note -->
<g id="edge23" class="edge"><title>Terminal&#45;&gt;Note</title>
<path fill="none" stroke="#bbe4b2" d="M778.529,-147.479C747.998,-137.275 705.606,-122.583 669,-108 666.927,-107.174 664.801,-106.3 662.666,-105.402"/>
<ellipse fill="none" stroke="#bbe4b2" cx="782.622" cy="-148.841" rx="4.00001" ry="4.00001"/>
<polygon fill="#bbe4b2" stroke="#bbe4b2" points="662.55,-105.352 655.161,-97.2499 657.962,-103.366 653.373,-101.38 653.373,-101.38 653.373,-101.38 657.962,-103.366 651.586,-105.509 662.55,-105.352 662.55,-105.352"/>
</g>
<!-- User&#45;&gt;UserRole -->
<g id="edge24" class="edge"><title>User&#45;&gt;UserRole</title>
<path fill="none" stroke="#109cdb" d="M784.332,-66.2205C780.153,-59.2551 775.531,-51.5513 771.253,-44.4219"/>
<ellipse fill="none" stroke="#109cdb" cx="786.412" cy="-69.6859" rx="4.00002" ry="4.00002"/>
<polygon fill="#109cdb" stroke="#109cdb" points="771.223,-44.3723 769.937,-33.4821 768.651,-40.0848 766.078,-35.7973 766.078,-35.7973 766.078,-35.7973 768.651,-40.0848 762.22,-38.1126 771.223,-44.3723 771.223,-44.3723"/>
</g>
<!-- Vehicle&#45;&gt;DailyDataVehicle -->
<g id="edge25" class="edge"><title>Vehicle&#45;&gt;DailyDataVehicle</title>
<path fill="none" stroke="#c75ee6" d="M319,-135.64C319,-130.063 319,-124.132 319,-118.476"/>
<ellipse fill="none" stroke="#c75ee6" cx="319" cy="-139.697" rx="4" ry="4"/>
<polygon fill="#c75ee6" stroke="#c75ee6" points="319,-118.104 323.5,-108.104 319,-113.104 319,-108.104 319,-108.104 319,-108.104 319,-113.104 314.5,-108.104 319,-118.104 319,-118.104"/>
</g>
<!-- VehicleFuel -->
<g id="node22" class="node"><title>VehicleFuel</title>
<ellipse fill="none" stroke="black" cx="319" cy="-234" rx="55.3682" ry="18"/>
<text text-anchor="middle" x="319" y="-230.3" font-family="Times,serif" font-size="14.00">VehicleFuel</text>
</g>
<!-- VehicleFuel&#45;&gt;Vehicle -->
<g id="edge26" class="edge"><title>VehicleFuel&#45;&gt;Vehicle</title>
<path fill="none" stroke="#787f9f" d="M319,-207.64C319,-202.063 319,-196.132 319,-190.476"/>
<ellipse fill="none" stroke="#787f9f" cx="319" cy="-211.697" rx="4" ry="4"/>
<polygon fill="#787f9f" stroke="#787f9f" points="319,-190.104 323.5,-180.104 319,-185.104 319,-180.104 319,-180.104 319,-180.104 319,-185.104 314.5,-180.104 319,-190.104 319,-190.104"/>
</g>
<!-- VehicleOdometer -->
<g id="node23" class="node"><title>VehicleOdometer</title>
<ellipse fill="none" stroke="black" cx="468" cy="-234" rx="75.0904" ry="18"/>
<text text-anchor="middle" x="468" y="-230.3" font-family="Times,serif" font-size="14.00">VehicleOdometer</text>
</g>
<!-- VehicleOdometer&#45;&gt;Vehicle -->
<g id="edge27" class="edge"><title>VehicleOdometer&#45;&gt;Vehicle</title>
<path fill="none" stroke="#4cef2d" d="M427.759,-214.095C404.898,-203.355 376.535,-190.03 354.506,-179.68"/>
<ellipse fill="none" stroke="#4cef2d" cx="431.681" cy="-215.937" rx="4.00002" ry="4.00002"/>
<polygon fill="#4cef2d" stroke="#4cef2d" points="354.231,-179.552 347.094,-171.227 349.706,-177.426 345.18,-175.299 345.18,-175.299 345.18,-175.299 349.706,-177.426 343.267,-179.372 354.231,-179.552 354.231,-179.552"/>
</g>
<!-- VehicleType -->
<g id="node24" class="node"><title>VehicleType</title>
<ellipse fill="none" stroke="black" cx="57" cy="-234" rx="57.2688" ry="18"/>
<text text-anchor="middle" x="57" y="-230.3" font-family="Times,serif" font-size="14.00">VehicleType</text>
</g>
<!-- VehicleType&#45;&gt;Vehicle -->
<g id="edge28" class="edge"><title>VehicleType&#45;&gt;Vehicle</title>
<path fill="none" stroke="#6c33bb" d="M106.99,-219.644C156.191,-206.498 230.49,-186.648 276.804,-174.274"/>
<ellipse fill="none" stroke="#6c33bb" cx="102.959" cy="-220.721" rx="4.00001" ry="4.00001"/>
<polygon fill="#6c33bb" stroke="#6c33bb" points="276.865,-174.257 287.688,-176.024 281.696,-172.967 286.527,-171.676 286.527,-171.676 286.527,-171.676 281.696,-172.967 285.365,-167.329 276.865,-174.257 276.865,-174.257"/>
</g>
<!-- Zip&#45;&gt;Psazip -->
<g id="edge29" class="edge"><title>Zip&#45;&gt;Psazip</title>
<path fill="none" stroke="#e8f302" d="M994.343,-64.7779C996.747,-58.544 999.347,-51.8046 1001.79,-45.4634"/>
<ellipse fill="none" stroke="#e8f302" cx="992.838" cy="-68.679" rx="4.00001" ry="4.00001"/>
<polygon fill="#e8f302" stroke="#e8f302" points="1001.86,-45.2862 1009.66,-37.5757 1003.66,-40.6212 1005.46,-35.9562 1005.46,-35.9562 1005.46,-35.9562 1003.66,-40.6212 1001.26,-34.3368 1001.86,-45.2862 1001.86,-45.2862"/>
</g>
</g>
</svg>
