<?xml version="1.0" encoding="UTF-8" standalone="no"?>
<!DOCTYPE svg PUBLIC "-//W3C//DTD SVG 1.1//EN"
 "http://www.w3.org/Graphics/SVG/1.1/DTD/svg11.dtd">
<!-- Generated by graphviz version 2.29.20121209.0545 (20121209.0545)
 -->
<!-- Title: models_diagram Pages: 1 -->
<svg width="2228pt" height="236pt"
 viewBox="0.00 0.00 2228.00 236.00" xmlns="http://www.w3.org/2000/svg" xmlns:xlink="http://www.w3.org/1999/xlink">
<g id="graph0" class="graph" transform="scale(1 1) rotate(0) translate(4 232)">
<title>models_diagram</title>
<polygon fill="white" stroke="white" points="-4,5 -4,-232 2225,-232 2225,5 -4,5"/>
<!-- _diagram_info -->
<g id="node1" class="node"><title>_diagram_info</title>
<text text-anchor="start" x="8" y="-138.6" font-family="Times,serif" font-size="13.00">Models diagram</text>
<text text-anchor="start" x="8" y="-124.6" font-family="Times,serif" font-size="13.00">Date: Dec 09 2012 &#45; 22:06</text>
<text text-anchor="start" x="8" y="-110.6" font-family="Times,serif" font-size="13.00">Migration version: 20121209214940</text>
<text text-anchor="start" x="8" y="-96.6" font-family="Times,serif" font-size="13.00">Generated by RailRoady 1.1.0</text>
<text text-anchor="start" x="8" y="-82.6" font-family="Times,serif" font-size="13.00">http://railroady.prestonlee.com</text>
</g>
<!-- Addendum -->
<g id="node2" class="node"><title>Addendum</title>
<path fill="none" stroke="black" d="M238,-23.5C238,-23.5 476,-23.5 476,-23.5 482,-23.5 488,-29.5 488,-35.5 488,-35.5 488,-192.5 488,-192.5 488,-198.5 482,-204.5 476,-204.5 476,-204.5 238,-204.5 238,-204.5 232,-204.5 226,-198.5 226,-192.5 226,-192.5 226,-35.5 226,-35.5 226,-29.5 232,-23.5 238,-23.5"/>
<text text-anchor="middle" x="357" y="-189.3" font-family="Times,serif" font-size="14.00">Addendum</text>
<polyline fill="none" stroke="black" points="226,-181.5 488,-181.5 "/>
<text text-anchor="start" x="234" y="-166.3" font-family="Times,serif" font-size="14.00">id :integer</text>
<text text-anchor="start" x="234" y="-151.3" font-family="Times,serif" font-size="14.00">fedexAddendumName :string</text>
<text text-anchor="start" x="234" y="-136.3" font-family="Times,serif" font-size="14.00">fedexAddendumNumber :integer</text>
<text text-anchor="start" x="234" y="-121.3" font-family="Times,serif" font-size="14.00">fedexContractorAddendumName :string</text>
<text text-anchor="start" x="234" y="-106.3" font-family="Times,serif" font-size="14.00">fedexContractorAddendumNumber :integer</text>
<text text-anchor="start" x="234" y="-91.3" font-family="Times,serif" font-size="14.00">content :text</text>
<text text-anchor="start" x="234" y="-76.3" font-family="Times,serif" font-size="14.00">startDate :datetime</text>
<text text-anchor="start" x="234" y="-61.3" font-family="Times,serif" font-size="14.00">endDate :datetime</text>
<text text-anchor="start" x="234" y="-46.3" font-family="Times,serif" font-size="14.00">created_at :datetime</text>
<text text-anchor="start" x="234" y="-31.3" font-family="Times,serif" font-size="14.00">updated_at :datetime</text>
</g>
<!-- Employee -->
<g id="node3" class="node"><title>Employee</title>
<path fill="none" stroke="black" d="M518.5,-1C518.5,-1 659.5,-1 659.5,-1 665.5,-1 671.5,-7 671.5,-13 671.5,-13 671.5,-215 671.5,-215 671.5,-221 665.5,-227 659.5,-227 659.5,-227 518.5,-227 518.5,-227 512.5,-227 506.5,-221 506.5,-215 506.5,-215 506.5,-13 506.5,-13 506.5,-7 512.5,-1 518.5,-1"/>
<text text-anchor="middle" x="589" y="-211.8" font-family="Times,serif" font-size="14.00">Employee</text>
<polyline fill="none" stroke="black" points="506.5,-204 671.5,-204 "/>
<text text-anchor="start" x="514.5" y="-188.8" font-family="Times,serif" font-size="14.00">id :integer</text>
<text text-anchor="start" x="514.5" y="-173.8" font-family="Times,serif" font-size="14.00">firstName :string</text>
<text text-anchor="start" x="514.5" y="-158.8" font-family="Times,serif" font-size="14.00">lastName :string</text>
<text text-anchor="start" x="514.5" y="-143.8" font-family="Times,serif" font-size="14.00">fedexNumber :integer</text>
<text text-anchor="start" x="514.5" y="-128.8" font-family="Times,serif" font-size="14.00">contractorNumber :integer</text>
<text text-anchor="start" x="514.5" y="-113.8" font-family="Times,serif" font-size="14.00">hireDate :date</text>
<text text-anchor="start" x="514.5" y="-98.8" font-family="Times,serif" font-size="14.00">dateOfBirth :date</text>
<text text-anchor="start" x="514.5" y="-83.8" font-family="Times,serif" font-size="14.00">activeBoolean :boolean</text>
<text text-anchor="start" x="514.5" y="-68.8" font-family="Times,serif" font-size="14.00">startDate :datetime</text>
<text text-anchor="start" x="514.5" y="-53.8" font-family="Times,serif" font-size="14.00">endDate :datetime</text>
<text text-anchor="start" x="514.5" y="-38.8" font-family="Times,serif" font-size="14.00">terminationDate :datetime</text>
<text text-anchor="start" x="514.5" y="-23.8" font-family="Times,serif" font-size="14.00">created_at :datetime</text>
<text text-anchor="start" x="514.5" y="-8.8" font-family="Times,serif" font-size="14.00">updated_at :datetime</text>
</g>
<!-- FedexContract -->
<g id="node4" class="node"><title>FedexContract</title>
<path fill="none" stroke="black" d="M702,-23.5C702,-23.5 892,-23.5 892,-23.5 898,-23.5 904,-29.5 904,-35.5 904,-35.5 904,-192.5 904,-192.5 904,-198.5 898,-204.5 892,-204.5 892,-204.5 702,-204.5 702,-204.5 696,-204.5 690,-198.5 690,-192.5 690,-192.5 690,-35.5 690,-35.5 690,-29.5 696,-23.5 702,-23.5"/>
<text text-anchor="middle" x="797" y="-189.3" font-family="Times,serif" font-size="14.00">FedexContract</text>
<polyline fill="none" stroke="black" points="690,-181.5 904,-181.5 "/>
<text text-anchor="start" x="698" y="-166.3" font-family="Times,serif" font-size="14.00">id :integer</text>
<text text-anchor="start" x="698" y="-151.3" font-family="Times,serif" font-size="14.00">fedexContractName :string</text>
<text text-anchor="start" x="698" y="-136.3" font-family="Times,serif" font-size="14.00">fedexContractNumber :integer</text>
<text text-anchor="start" x="698" y="-121.3" font-family="Times,serif" font-size="14.00">contractorContractName :string</text>
<text text-anchor="start" x="698" y="-106.3" font-family="Times,serif" font-size="14.00">contractorContractNumber :integer</text>
<text text-anchor="start" x="698" y="-91.3" font-family="Times,serif" font-size="14.00">content :text</text>
<text text-anchor="start" x="698" y="-76.3" font-family="Times,serif" font-size="14.00">startDate :datetime</text>
<text text-anchor="start" x="698" y="-61.3" font-family="Times,serif" font-size="14.00">endDate :datetime</text>
<text text-anchor="start" x="698" y="-46.3" font-family="Times,serif" font-size="14.00">created_at :datetime</text>
<text text-anchor="start" x="698" y="-31.3" font-family="Times,serif" font-size="14.00">updated_at :datetime</text>
</g>
<!-- Note -->
<g id="node5" class="node"><title>Note</title>
<path fill="none" stroke="black" d="M934,-38.5C934,-38.5 1044,-38.5 1044,-38.5 1050,-38.5 1056,-44.5 1056,-50.5 1056,-50.5 1056,-177.5 1056,-177.5 1056,-183.5 1050,-189.5 1044,-189.5 1044,-189.5 934,-189.5 934,-189.5 928,-189.5 922,-183.5 922,-177.5 922,-177.5 922,-50.5 922,-50.5 922,-44.5 928,-38.5 934,-38.5"/>
<text text-anchor="middle" x="989" y="-174.3" font-family="Times,serif" font-size="14.00">Note</text>
<polyline fill="none" stroke="black" points="922,-166.5 1056,-166.5 "/>
<text text-anchor="start" x="930" y="-151.3" font-family="Times,serif" font-size="14.00">id :integer</text>
<text text-anchor="start" x="930" y="-136.3" font-family="Times,serif" font-size="14.00">notable_id :integer</text>
<text text-anchor="start" x="930" y="-121.3" font-family="Times,serif" font-size="14.00">notable_type :string</text>
<text text-anchor="start" x="930" y="-106.3" font-family="Times,serif" font-size="14.00">content :text</text>
<text text-anchor="start" x="930" y="-91.3" font-family="Times,serif" font-size="14.00">startDate :datetime</text>
<text text-anchor="start" x="930" y="-76.3" font-family="Times,serif" font-size="14.00">endDate :datetime</text>
<text text-anchor="start" x="930" y="-61.3" font-family="Times,serif" font-size="14.00">created_at :datetime</text>
<text text-anchor="start" x="930" y="-46.3" font-family="Times,serif" font-size="14.00">updated_at :datetime</text>
</g>
<!-- Psa -->
<g id="node6" class="node"><title>Psa</title>
<path fill="none" stroke="black" d="M1086.5,-23.5C1086.5,-23.5 1253.5,-23.5 1253.5,-23.5 1259.5,-23.5 1265.5,-29.5 1265.5,-35.5 1265.5,-35.5 1265.5,-192.5 1265.5,-192.5 1265.5,-198.5 1259.5,-204.5 1253.5,-204.5 1253.5,-204.5 1086.5,-204.5 1086.5,-204.5 1080.5,-204.5 1074.5,-198.5 1074.5,-192.5 1074.5,-192.5 1074.5,-35.5 1074.5,-35.5 1074.5,-29.5 1080.5,-23.5 1086.5,-23.5"/>
<text text-anchor="middle" x="1170" y="-189.3" font-family="Times,serif" font-size="14.00">Psa</text>
<polyline fill="none" stroke="black" points="1074.5,-181.5 1265.5,-181.5 "/>
<text text-anchor="start" x="1082.5" y="-166.3" font-family="Times,serif" font-size="14.00">id :integer</text>
<text text-anchor="start" x="1082.5" y="-151.3" font-family="Times,serif" font-size="14.00">fedexPSAName :string</text>
<text text-anchor="start" x="1082.5" y="-136.3" font-family="Times,serif" font-size="14.00">fedexPSANumber :integer</text>
<text text-anchor="start" x="1082.5" y="-121.3" font-family="Times,serif" font-size="14.00">contractorPSAName :string</text>
<text text-anchor="start" x="1082.5" y="-106.3" font-family="Times,serif" font-size="14.00">contractorPSANumber :integer</text>
<text text-anchor="start" x="1082.5" y="-91.3" font-family="Times,serif" font-size="14.00">activeBoolean :boolean</text>
<text text-anchor="start" x="1082.5" y="-76.3" font-family="Times,serif" font-size="14.00">startDate :datetime</text>
<text text-anchor="start" x="1082.5" y="-61.3" font-family="Times,serif" font-size="14.00">endDate :datetime</text>
<text text-anchor="start" x="1082.5" y="-46.3" font-family="Times,serif" font-size="14.00">created_at :datetime</text>
<text text-anchor="start" x="1082.5" y="-31.3" font-family="Times,serif" font-size="14.00">updated_at :datetime</text>
</g>
<!-- Region -->
<g id="node7" class="node"><title>Region</title>
<path fill="none" stroke="black" d="M1296,-38.5C1296,-38.5 1478,-38.5 1478,-38.5 1484,-38.5 1490,-44.5 1490,-50.5 1490,-50.5 1490,-177.5 1490,-177.5 1490,-183.5 1484,-189.5 1478,-189.5 1478,-189.5 1296,-189.5 1296,-189.5 1290,-189.5 1284,-183.5 1284,-177.5 1284,-177.5 1284,-50.5 1284,-50.5 1284,-44.5 1290,-38.5 1296,-38.5"/>
<text text-anchor="middle" x="1387" y="-174.3" font-family="Times,serif" font-size="14.00">Region</text>
<polyline fill="none" stroke="black" points="1284,-166.5 1490,-166.5 "/>
<text text-anchor="start" x="1292" y="-151.3" font-family="Times,serif" font-size="14.00">id :integer</text>
<text text-anchor="start" x="1292" y="-136.3" font-family="Times,serif" font-size="14.00">fedexRegionName :string</text>
<text text-anchor="start" x="1292" y="-121.3" font-family="Times,serif" font-size="14.00">fedexRegionNumber :integer</text>
<text text-anchor="start" x="1292" y="-106.3" font-family="Times,serif" font-size="14.00">fedexRegionPhone :string</text>
<text text-anchor="start" x="1292" y="-91.3" font-family="Times,serif" font-size="14.00">contractorRegionName :string</text>
<text text-anchor="start" x="1292" y="-76.3" font-family="Times,serif" font-size="14.00">contractorRegionNumber :integer</text>
<text text-anchor="start" x="1292" y="-61.3" font-family="Times,serif" font-size="14.00">created_at :datetime</text>
<text text-anchor="start" x="1292" y="-46.3" font-family="Times,serif" font-size="14.00">updated_at :datetime</text>
</g>
<!-- Role -->
<g id="node8" class="node"><title>Role</title>
<path fill="none" stroke="black" d="M1520,-68.5C1520,-68.5 1630,-68.5 1630,-68.5 1636,-68.5 1642,-74.5 1642,-80.5 1642,-80.5 1642,-147.5 1642,-147.5 1642,-153.5 1636,-159.5 1630,-159.5 1630,-159.5 1520,-159.5 1520,-159.5 1514,-159.5 1508,-153.5 1508,-147.5 1508,-147.5 1508,-80.5 1508,-80.5 1508,-74.5 1514,-68.5 1520,-68.5"/>
<text text-anchor="middle" x="1575" y="-144.3" font-family="Times,serif" font-size="14.00">Role</text>
<polyline fill="none" stroke="black" points="1508,-136.5 1642,-136.5 "/>
<text text-anchor="start" x="1516" y="-121.3" font-family="Times,serif" font-size="14.00">id :integer</text>
<text text-anchor="start" x="1516" y="-106.3" font-family="Times,serif" font-size="14.00">name :string</text>
<text text-anchor="start" x="1516" y="-91.3" font-family="Times,serif" font-size="14.00">created_at :datetime</text>
<text text-anchor="start" x="1516" y="-76.3" font-family="Times,serif" font-size="14.00">updated_at :datetime</text>
</g>
<!-- Terminal -->
<g id="node9" class="node"><title>Terminal</title>
<path fill="none" stroke="black" d="M1672.5,-38.5C1672.5,-38.5 1865.5,-38.5 1865.5,-38.5 1871.5,-38.5 1877.5,-44.5 1877.5,-50.5 1877.5,-50.5 1877.5,-177.5 1877.5,-177.5 1877.5,-183.5 1871.5,-189.5 1865.5,-189.5 1865.5,-189.5 1672.5,-189.5 1672.5,-189.5 1666.5,-189.5 1660.5,-183.5 1660.5,-177.5 1660.5,-177.5 1660.5,-50.5 1660.5,-50.5 1660.5,-44.5 1666.5,-38.5 1672.5,-38.5"/>
<text text-anchor="middle" x="1769" y="-174.3" font-family="Times,serif" font-size="14.00">Terminal</text>
<polyline fill="none" stroke="black" points="1660.5,-166.5 1877.5,-166.5 "/>
<text text-anchor="start" x="1668.5" y="-151.3" font-family="Times,serif" font-size="14.00">id :integer</text>
<text text-anchor="start" x="1668.5" y="-136.3" font-family="Times,serif" font-size="14.00">fedexTerminalName :string</text>
<text text-anchor="start" x="1668.5" y="-121.3" font-family="Times,serif" font-size="14.00">fedexTerminalNumber :integer</text>
<text text-anchor="start" x="1668.5" y="-106.3" font-family="Times,serif" font-size="14.00">contractorTerminalName :string</text>
<text text-anchor="start" x="1668.5" y="-91.3" font-family="Times,serif" font-size="14.00">contractorTerminalNumber :integer</text>
<text text-anchor="start" x="1668.5" y="-76.3" font-family="Times,serif" font-size="14.00">colocationBoolean :boolean</text>
<text text-anchor="start" x="1668.5" y="-61.3" font-family="Times,serif" font-size="14.00">created_at :datetime</text>
<text text-anchor="start" x="1668.5" y="-46.3" font-family="Times,serif" font-size="14.00">updated_at :datetime</text>
</g>
<!-- User -->
<g id="node10" class="node"><title>User</title>
<path fill="none" stroke="black" d="M1908,-53.5C1908,-53.5 2056,-53.5 2056,-53.5 2062,-53.5 2068,-59.5 2068,-65.5 2068,-65.5 2068,-162.5 2068,-162.5 2068,-168.5 2062,-174.5 2056,-174.5 2056,-174.5 1908,-174.5 1908,-174.5 1902,-174.5 1896,-168.5 1896,-162.5 1896,-162.5 1896,-65.5 1896,-65.5 1896,-59.5 1902,-53.5 1908,-53.5"/>
<text text-anchor="middle" x="1982" y="-159.3" font-family="Times,serif" font-size="14.00">User</text>
<polyline fill="none" stroke="black" points="1896,-151.5 2068,-151.5 "/>
<text text-anchor="start" x="1904" y="-136.3" font-family="Times,serif" font-size="14.00">id :integer</text>
<text text-anchor="start" x="1904" y="-121.3" font-family="Times,serif" font-size="14.00">contractorBoolean :boolean</text>
<text text-anchor="start" x="1904" y="-106.3" font-family="Times,serif" font-size="14.00">activeBoolean :boolean</text>
<text text-anchor="start" x="1904" y="-91.3" font-family="Times,serif" font-size="14.00">employee_id :integer</text>
<text text-anchor="start" x="1904" y="-76.3" font-family="Times,serif" font-size="14.00">created_at :datetime</text>
<text text-anchor="start" x="1904" y="-61.3" font-family="Times,serif" font-size="14.00">updated_at :datetime</text>
</g>
<!-- UserRole -->
<g id="node11" class="node"><title>UserRole</title>
<path fill="none" stroke="black" d="M2098,-61C2098,-61 2208,-61 2208,-61 2214,-61 2220,-67 2220,-73 2220,-73 2220,-155 2220,-155 2220,-161 2214,-167 2208,-167 2208,-167 2098,-167 2098,-167 2092,-167 2086,-161 2086,-155 2086,-155 2086,-73 2086,-73 2086,-67 2092,-61 2098,-61"/>
<text text-anchor="middle" x="2153" y="-151.8" font-family="Times,serif" font-size="14.00">UserRole</text>
<polyline fill="none" stroke="black" points="2086,-144 2220,-144 "/>
<text text-anchor="start" x="2094" y="-128.8" font-family="Times,serif" font-size="14.00">id :integer</text>
<text text-anchor="start" x="2094" y="-113.8" font-family="Times,serif" font-size="14.00">user_id :integer</text>
<text text-anchor="start" x="2094" y="-98.8" font-family="Times,serif" font-size="14.00">role_id :integer</text>
<text text-anchor="start" x="2094" y="-83.8" font-family="Times,serif" font-size="14.00">created_at :datetime</text>
<text text-anchor="start" x="2094" y="-68.8" font-family="Times,serif" font-size="14.00">updated_at :datetime</text>
</g>
</g>
</svg>
