<?xml version="1.0" encoding="UTF-8" standalone="no"?>
<!DOCTYPE svg PUBLIC "-//W3C//DTD SVG 1.1//EN"
 "http://www.w3.org/Graphics/SVG/1.1/DTD/svg11.dtd">
<!-- Generated by graphviz version 2.29.20121209.0545 (20121209.0545)
 -->
<!-- Title: models_diagram Pages: 1 -->
<svg width="2002pt" height="816pt"
 viewBox="0.00 0.00 2002.00 816.00" xmlns="http://www.w3.org/2000/svg" xmlns:xlink="http://www.w3.org/1999/xlink">
<g id="graph0" class="graph" transform="scale(1 1) rotate(0) translate(4 812)">
<title>models_diagram</title>
<polygon fill="white" stroke="white" points="-4,5 -4,-812 1999,-812 1999,5 -4,5"/>
<!-- _diagram_info -->
<g id="node1" class="node"><title>_diagram_info</title>
<text text-anchor="start" x="374" y="-741.6" font-family="Times,serif" font-size="13.00">Models diagram</text>
<text text-anchor="start" x="374" y="-727.6" font-family="Times,serif" font-size="13.00">Date: Dec 12 2012 &#45; 04:00</text>
<text text-anchor="start" x="374" y="-713.6" font-family="Times,serif" font-size="13.00">Migration version: 20121212081655</text>
<text text-anchor="start" x="374" y="-699.6" font-family="Times,serif" font-size="13.00">Generated by RailRoady 1.1.0</text>
<text text-anchor="start" x="374" y="-685.6" font-family="Times,serif" font-size="13.00">http://railroady.prestonlee.com</text>
</g>
<!-- Addendum -->
<g id="node2" class="node"><title>Addendum</title>
<path fill="none" stroke="black" d="M12,-370.5C12,-370.5 250,-370.5 250,-370.5 256,-370.5 262,-376.5 262,-382.5 262,-382.5 262,-539.5 262,-539.5 262,-545.5 256,-551.5 250,-551.5 250,-551.5 12,-551.5 12,-551.5 6,-551.5 0,-545.5 0,-539.5 0,-539.5 0,-382.5 0,-382.5 0,-376.5 6,-370.5 12,-370.5"/>
<text text-anchor="middle" x="131" y="-536.3" font-family="Times,serif" font-size="14.00">Addendum</text>
<polyline fill="none" stroke="black" points="0,-528.5 262,-528.5 "/>
<text text-anchor="start" x="8" y="-513.3" font-family="Times,serif" font-size="14.00">id :integer</text>
<text text-anchor="start" x="8" y="-498.3" font-family="Times,serif" font-size="14.00">fedexAddendumName :string</text>
<text text-anchor="start" x="8" y="-483.3" font-family="Times,serif" font-size="14.00">fedexAddendumNumber :integer</text>
<text text-anchor="start" x="8" y="-468.3" font-family="Times,serif" font-size="14.00">fedexContractorAddendumName :string</text>
<text text-anchor="start" x="8" y="-453.3" font-family="Times,serif" font-size="14.00">fedexContractorAddendumNumber :integer</text>
<text text-anchor="start" x="8" y="-438.3" font-family="Times,serif" font-size="14.00">content :text</text>
<text text-anchor="start" x="8" y="-423.3" font-family="Times,serif" font-size="14.00">startDate :datetime</text>
<text text-anchor="start" x="8" y="-408.3" font-family="Times,serif" font-size="14.00">endDate :datetime</text>
<text text-anchor="start" x="8" y="-393.3" font-family="Times,serif" font-size="14.00">created_at :datetime</text>
<text text-anchor="start" x="8" y="-378.3" font-family="Times,serif" font-size="14.00">updated_at :datetime</text>
</g>
<!-- Note -->
<g id="node6" class="node"><title>Note</title>
<path fill="none" stroke="black" d="M334,-144.5C334,-144.5 444,-144.5 444,-144.5 450,-144.5 456,-150.5 456,-156.5 456,-156.5 456,-283.5 456,-283.5 456,-289.5 450,-295.5 444,-295.5 444,-295.5 334,-295.5 334,-295.5 328,-295.5 322,-289.5 322,-283.5 322,-283.5 322,-156.5 322,-156.5 322,-150.5 328,-144.5 334,-144.5"/>
<text text-anchor="middle" x="389" y="-280.3" font-family="Times,serif" font-size="14.00">Note</text>
<polyline fill="none" stroke="black" points="322,-272.5 456,-272.5 "/>
<text text-anchor="start" x="330" y="-257.3" font-family="Times,serif" font-size="14.00">id :integer</text>
<text text-anchor="start" x="330" y="-242.3" font-family="Times,serif" font-size="14.00">notable_id :integer</text>
<text text-anchor="start" x="330" y="-227.3" font-family="Times,serif" font-size="14.00">notable_type :string</text>
<text text-anchor="start" x="330" y="-212.3" font-family="Times,serif" font-size="14.00">content :text</text>
<text text-anchor="start" x="330" y="-197.3" font-family="Times,serif" font-size="14.00">startDate :datetime</text>
<text text-anchor="start" x="330" y="-182.3" font-family="Times,serif" font-size="14.00">endDate :datetime</text>
<text text-anchor="start" x="330" y="-167.3" font-family="Times,serif" font-size="14.00">created_at :datetime</text>
<text text-anchor="start" x="330" y="-152.3" font-family="Times,serif" font-size="14.00">updated_at :datetime</text>
</g>
<!-- Addendum&#45;&gt;Note -->
<g id="edge1" class="edge"><title>Addendum&#45;&gt;Note</title>
<path fill="none" stroke="#a7ec2f" d="M233.705,-364.859C260.686,-339.865 289.269,-313.386 314.459,-290.051"/>
<ellipse fill="none" stroke="#a7ec2f" cx="230.738" cy="-367.607" rx="4.00002" ry="4.00002"/>
<polygon fill="#a7ec2f" stroke="#a7ec2f" points="314.479,-290.033 324.873,-286.539 318.147,-286.635 321.815,-283.237 321.815,-283.237 321.815,-283.237 318.147,-286.635 318.757,-279.936 314.479,-290.033 314.479,-290.033"/>
</g>
<!-- Employee -->
<g id="node3" class="node"><title>Employee</title>
<path fill="none" stroke="black" d="M527.5,-348C527.5,-348 668.5,-348 668.5,-348 674.5,-348 680.5,-354 680.5,-360 680.5,-360 680.5,-562 680.5,-562 680.5,-568 674.5,-574 668.5,-574 668.5,-574 527.5,-574 527.5,-574 521.5,-574 515.5,-568 515.5,-562 515.5,-562 515.5,-360 515.5,-360 515.5,-354 521.5,-348 527.5,-348"/>
<text text-anchor="middle" x="598" y="-558.8" font-family="Times,serif" font-size="14.00">Employee</text>
<polyline fill="none" stroke="black" points="515.5,-551 680.5,-551 "/>
<text text-anchor="start" x="523.5" y="-535.8" font-family="Times,serif" font-size="14.00">id :integer</text>
<text text-anchor="start" x="523.5" y="-520.8" font-family="Times,serif" font-size="14.00">firstName :string</text>
<text text-anchor="start" x="523.5" y="-505.8" font-family="Times,serif" font-size="14.00">lastName :string</text>
<text text-anchor="start" x="523.5" y="-490.8" font-family="Times,serif" font-size="14.00">fedexNumber :integer</text>
<text text-anchor="start" x="523.5" y="-475.8" font-family="Times,serif" font-size="14.00">contractorNumber :integer</text>
<text text-anchor="start" x="523.5" y="-460.8" font-family="Times,serif" font-size="14.00">hireDate :date</text>
<text text-anchor="start" x="523.5" y="-445.8" font-family="Times,serif" font-size="14.00">dateOfBirth :date</text>
<text text-anchor="start" x="523.5" y="-430.8" font-family="Times,serif" font-size="14.00">activeBoolean :boolean</text>
<text text-anchor="start" x="523.5" y="-415.8" font-family="Times,serif" font-size="14.00">startDate :datetime</text>
<text text-anchor="start" x="523.5" y="-400.8" font-family="Times,serif" font-size="14.00">endDate :datetime</text>
<text text-anchor="start" x="523.5" y="-385.8" font-family="Times,serif" font-size="14.00">terminationDate :datetime</text>
<text text-anchor="start" x="523.5" y="-370.8" font-family="Times,serif" font-size="14.00">created_at :datetime</text>
<text text-anchor="start" x="523.5" y="-355.8" font-family="Times,serif" font-size="14.00">updated_at :datetime</text>
</g>
<!-- Employee&#45;&gt;Note -->
<g id="edge2" class="edge"><title>Employee&#45;&gt;Note</title>
<path fill="none" stroke="#55f4c0" d="M513.843,-341.198C511.234,-338.072 508.617,-335 506,-332 492.989,-317.089 478.244,-301.95 463.714,-287.846"/>
<ellipse fill="none" stroke="#55f4c0" cx="516.64" cy="-344.598" rx="4.00002" ry="4.00002"/>
<polygon fill="#55f4c0" stroke="#55f4c0" points="463.355,-287.501 459.264,-277.327 459.75,-284.037 456.146,-280.572 456.146,-280.572 456.146,-280.572 459.75,-284.037 453.027,-283.816 463.355,-287.501 463.355,-287.501"/>
</g>
<!-- User -->
<g id="node15" class="node"><title>User</title>
<path fill="none" stroke="black" d="M517,-159.5C517,-159.5 665,-159.5 665,-159.5 671,-159.5 677,-165.5 677,-171.5 677,-171.5 677,-268.5 677,-268.5 677,-274.5 671,-280.5 665,-280.5 665,-280.5 517,-280.5 517,-280.5 511,-280.5 505,-274.5 505,-268.5 505,-268.5 505,-171.5 505,-171.5 505,-165.5 511,-159.5 517,-159.5"/>
<text text-anchor="middle" x="591" y="-265.3" font-family="Times,serif" font-size="14.00">User</text>
<polyline fill="none" stroke="black" points="505,-257.5 677,-257.5 "/>
<text text-anchor="start" x="513" y="-242.3" font-family="Times,serif" font-size="14.00">id :integer</text>
<text text-anchor="start" x="513" y="-227.3" font-family="Times,serif" font-size="14.00">contractorBoolean :boolean</text>
<text text-anchor="start" x="513" y="-212.3" font-family="Times,serif" font-size="14.00">activeBoolean :boolean</text>
<text text-anchor="start" x="513" y="-197.3" font-family="Times,serif" font-size="14.00">employee_id :integer</text>
<text text-anchor="start" x="513" y="-182.3" font-family="Times,serif" font-size="14.00">created_at :datetime</text>
<text text-anchor="start" x="513" y="-167.3" font-family="Times,serif" font-size="14.00">updated_at :datetime</text>
</g>
<!-- Employee&#45;&gt;User -->
<g id="edge3" class="edge"><title>Employee&#45;&gt;User</title>
<path fill="none" stroke="#0e1ebf" d="M594.476,-339.694C593.966,-322.251 593.455,-304.83 592.989,-288.919"/>
<ellipse fill="none" stroke="#0e1ebf" cx="594.598" cy="-343.85" rx="4" ry="4"/>
<ellipse fill="#0e1ebf" stroke="#0e1ebf" cx="592.867" cy="-284.743" rx="4" ry="4"/>
</g>
<!-- EmployeePsa -->
<g id="node4" class="node"><title>EmployeePsa</title>
<path fill="none" stroke="black" d="M836,-641.5C836,-641.5 960,-641.5 960,-641.5 966,-641.5 972,-647.5 972,-653.5 972,-653.5 972,-780.5 972,-780.5 972,-786.5 966,-792.5 960,-792.5 960,-792.5 836,-792.5 836,-792.5 830,-792.5 824,-786.5 824,-780.5 824,-780.5 824,-653.5 824,-653.5 824,-647.5 830,-641.5 836,-641.5"/>
<text text-anchor="middle" x="898" y="-777.3" font-family="Times,serif" font-size="14.00">EmployeePsa</text>
<polyline fill="none" stroke="black" points="824,-769.5 972,-769.5 "/>
<text text-anchor="start" x="832" y="-754.3" font-family="Times,serif" font-size="14.00">id :integer</text>
<text text-anchor="start" x="832" y="-739.3" font-family="Times,serif" font-size="14.00">startDate :datetime</text>
<text text-anchor="start" x="832" y="-724.3" font-family="Times,serif" font-size="14.00">endDate :datetime</text>
<text text-anchor="start" x="832" y="-709.3" font-family="Times,serif" font-size="14.00">activeBoolean :boolean</text>
<text text-anchor="start" x="832" y="-694.3" font-family="Times,serif" font-size="14.00">employee_id :integer</text>
<text text-anchor="start" x="832" y="-679.3" font-family="Times,serif" font-size="14.00">psa_id :integer</text>
<text text-anchor="start" x="832" y="-664.3" font-family="Times,serif" font-size="14.00">created_at :datetime</text>
<text text-anchor="start" x="832" y="-649.3" font-family="Times,serif" font-size="14.00">updated_at :datetime</text>
</g>
<!-- FedexContract -->
<g id="node5" class="node"><title>FedexContract</title>
<path fill="none" stroke="black" d="M604,-626.5C604,-626.5 794,-626.5 794,-626.5 800,-626.5 806,-632.5 806,-638.5 806,-638.5 806,-795.5 806,-795.5 806,-801.5 800,-807.5 794,-807.5 794,-807.5 604,-807.5 604,-807.5 598,-807.5 592,-801.5 592,-795.5 592,-795.5 592,-638.5 592,-638.5 592,-632.5 598,-626.5 604,-626.5"/>
<text text-anchor="middle" x="699" y="-792.3" font-family="Times,serif" font-size="14.00">FedexContract</text>
<polyline fill="none" stroke="black" points="592,-784.5 806,-784.5 "/>
<text text-anchor="start" x="600" y="-769.3" font-family="Times,serif" font-size="14.00">id :integer</text>
<text text-anchor="start" x="600" y="-754.3" font-family="Times,serif" font-size="14.00">fedexContractName :string</text>
<text text-anchor="start" x="600" y="-739.3" font-family="Times,serif" font-size="14.00">fedexContractNumber :integer</text>
<text text-anchor="start" x="600" y="-724.3" font-family="Times,serif" font-size="14.00">contractorContractName :string</text>
<text text-anchor="start" x="600" y="-709.3" font-family="Times,serif" font-size="14.00">contractorContractNumber :integer</text>
<text text-anchor="start" x="600" y="-694.3" font-family="Times,serif" font-size="14.00">content :text</text>
<text text-anchor="start" x="600" y="-679.3" font-family="Times,serif" font-size="14.00">startDate :datetime</text>
<text text-anchor="start" x="600" y="-664.3" font-family="Times,serif" font-size="14.00">endDate :datetime</text>
<text text-anchor="start" x="600" y="-649.3" font-family="Times,serif" font-size="14.00">created_at :datetime</text>
<text text-anchor="start" x="600" y="-634.3" font-family="Times,serif" font-size="14.00">updated_at :datetime</text>
</g>
<!-- FedexContract&#45;&gt;Employee -->
<g id="edge4" class="edge"><title>FedexContract&#45;&gt;Employee</title>
<path fill="none" stroke="#b68002" d="M660.383,-618.884C655.811,-607.387 651.102,-595.543 646.416,-583.759"/>
<ellipse fill="none" stroke="#b68002" cx="661.913" cy="-622.732" rx="4.00001" ry="4.00001"/>
<polygon fill="#b68002" stroke="#b68002" points="646.361,-583.622 646.848,-572.667 644.514,-578.976 642.666,-574.329 642.666,-574.329 642.666,-574.329 644.514,-578.976 638.485,-575.992 646.361,-583.622 646.361,-583.622"/>
</g>
<!-- Psa -->
<g id="node7" class="node"><title>Psa</title>
<path fill="none" stroke="black" d="M716.5,-370.5C716.5,-370.5 883.5,-370.5 883.5,-370.5 889.5,-370.5 895.5,-376.5 895.5,-382.5 895.5,-382.5 895.5,-539.5 895.5,-539.5 895.5,-545.5 889.5,-551.5 883.5,-551.5 883.5,-551.5 716.5,-551.5 716.5,-551.5 710.5,-551.5 704.5,-545.5 704.5,-539.5 704.5,-539.5 704.5,-382.5 704.5,-382.5 704.5,-376.5 710.5,-370.5 716.5,-370.5"/>
<text text-anchor="middle" x="800" y="-536.3" font-family="Times,serif" font-size="14.00">Psa</text>
<polyline fill="none" stroke="black" points="704.5,-528.5 895.5,-528.5 "/>
<text text-anchor="start" x="712.5" y="-513.3" font-family="Times,serif" font-size="14.00">id :integer</text>
<text text-anchor="start" x="712.5" y="-498.3" font-family="Times,serif" font-size="14.00">fedexPSAName :string</text>
<text text-anchor="start" x="712.5" y="-483.3" font-family="Times,serif" font-size="14.00">fedexPSANumber :integer</text>
<text text-anchor="start" x="712.5" y="-468.3" font-family="Times,serif" font-size="14.00">contractorPSAName :string</text>
<text text-anchor="start" x="712.5" y="-453.3" font-family="Times,serif" font-size="14.00">contractorPSANumber :integer</text>
<text text-anchor="start" x="712.5" y="-438.3" font-family="Times,serif" font-size="14.00">activeBoolean :boolean</text>
<text text-anchor="start" x="712.5" y="-423.3" font-family="Times,serif" font-size="14.00">startDate :datetime</text>
<text text-anchor="start" x="712.5" y="-408.3" font-family="Times,serif" font-size="14.00">endDate :datetime</text>
<text text-anchor="start" x="712.5" y="-393.3" font-family="Times,serif" font-size="14.00">created_at :datetime</text>
<text text-anchor="start" x="712.5" y="-378.3" font-family="Times,serif" font-size="14.00">updated_at :datetime</text>
</g>
<!-- FedexContract&#45;&gt;Psa -->
<g id="edge5" class="edge"><title>FedexContract&#45;&gt;Psa</title>
<path fill="none" stroke="#473923" d="M737.574,-618.993C745.106,-600.05 753.014,-580.162 760.574,-561.151"/>
<ellipse fill="none" stroke="#473923" cx="736.087" cy="-622.732" rx="4.00001" ry="4.00001"/>
<polygon fill="#473923" stroke="#473923" points="760.677,-560.891 768.554,-553.261 762.525,-556.245 764.372,-551.598 764.372,-551.598 764.372,-551.598 762.525,-556.245 760.191,-549.936 760.677,-560.891 760.677,-560.891"/>
</g>
<!-- Psazip -->
<g id="node9" class="node"><title>Psazip</title>
<path fill="none" stroke="black" d="M712,-1C712,-1 822,-1 822,-1 828,-1 834,-7 834,-13 834,-13 834,-95 834,-95 834,-101 828,-107 822,-107 822,-107 712,-107 712,-107 706,-107 700,-101 700,-95 700,-95 700,-13 700,-13 700,-7 706,-1 712,-1"/>
<text text-anchor="middle" x="767" y="-91.8" font-family="Times,serif" font-size="14.00">Psazip</text>
<polyline fill="none" stroke="black" points="700,-84 834,-84 "/>
<text text-anchor="start" x="708" y="-68.8" font-family="Times,serif" font-size="14.00">id :integer</text>
<text text-anchor="start" x="708" y="-53.8" font-family="Times,serif" font-size="14.00">psa_id :integer</text>
<text text-anchor="start" x="708" y="-38.8" font-family="Times,serif" font-size="14.00">zip_id :integer</text>
<text text-anchor="start" x="708" y="-23.8" font-family="Times,serif" font-size="14.00">created_at :datetime</text>
<text text-anchor="start" x="708" y="-8.8" font-family="Times,serif" font-size="14.00">updated_at :datetime</text>
</g>
<!-- Psa&#45;&gt;Psazip -->
<g id="edge6" class="edge"><title>Psa&#45;&gt;Psazip</title>
<path fill="none" stroke="#a482ad" d="M746.539,-362.612C737.209,-341.259 728.925,-318.342 724,-296 709.457,-230.028 708.925,-209.852 724,-144 726.103,-134.813 729.283,-125.471 732.981,-116.465"/>
<ellipse fill="none" stroke="#a482ad" cx="748.248" cy="-366.443" rx="4.00002" ry="4.00002"/>
<polygon fill="#a482ad" stroke="#a482ad" points="733.012,-116.391 741.125,-109.014 735.005,-111.806 736.998,-107.22 736.998,-107.22 736.998,-107.22 735.005,-111.806 732.871,-105.427 733.012,-116.391 733.012,-116.391"/>
</g>
<!-- Zip -->
<g id="node21" class="node"><title>Zip</title>
<path fill="none" stroke="black" d="M745,-174.5C745,-174.5 855,-174.5 855,-174.5 861,-174.5 867,-180.5 867,-186.5 867,-186.5 867,-253.5 867,-253.5 867,-259.5 861,-265.5 855,-265.5 855,-265.5 745,-265.5 745,-265.5 739,-265.5 733,-259.5 733,-253.5 733,-253.5 733,-186.5 733,-186.5 733,-180.5 739,-174.5 745,-174.5"/>
<text text-anchor="middle" x="800" y="-250.3" font-family="Times,serif" font-size="14.00">Zip</text>
<polyline fill="none" stroke="black" points="733,-242.5 867,-242.5 "/>
<text text-anchor="start" x="741" y="-227.3" font-family="Times,serif" font-size="14.00">id :integer</text>
<text text-anchor="start" x="741" y="-212.3" font-family="Times,serif" font-size="14.00">zip :string</text>
<text text-anchor="start" x="741" y="-197.3" font-family="Times,serif" font-size="14.00">created_at :datetime</text>
<text text-anchor="start" x="741" y="-182.3" font-family="Times,serif" font-size="14.00">updated_at :datetime</text>
</g>
<!-- Psa&#45;&gt;Zip -->
<g id="edge7" class="edge"><title>Psa&#45;&gt;Zip</title>
<path fill="none" stroke="#703cc8" d="M800,-360.178C800,-331.222 800,-300.68 800,-275.608"/>
<polygon fill="#703cc8" stroke="#703cc8" points="800,-360.325 795.5,-370.325 800,-365.325 800,-370.325 800,-370.325 800,-370.325 800,-365.325 804.5,-370.325 800,-360.325 800,-360.325"/>
<polygon fill="#703cc8" stroke="#703cc8" points="800,-275.575 804.5,-265.575 800,-270.575 800,-265.575 800,-265.575 800,-265.575 800,-270.575 795.5,-265.575 800,-275.575 800,-275.575"/>
</g>
<!-- PsaState -->
<g id="node8" class="node"><title>PsaState</title>
<path fill="none" stroke="black" d="M911,-1C911,-1 1021,-1 1021,-1 1027,-1 1033,-7 1033,-13 1033,-13 1033,-95 1033,-95 1033,-101 1027,-107 1021,-107 1021,-107 911,-107 911,-107 905,-107 899,-101 899,-95 899,-95 899,-13 899,-13 899,-7 905,-1 911,-1"/>
<text text-anchor="middle" x="966" y="-91.8" font-family="Times,serif" font-size="14.00">PsaState</text>
<polyline fill="none" stroke="black" points="899,-84 1033,-84 "/>
<text text-anchor="start" x="907" y="-68.8" font-family="Times,serif" font-size="14.00">id :integer</text>
<text text-anchor="start" x="907" y="-53.8" font-family="Times,serif" font-size="14.00">psa_id :integer</text>
<text text-anchor="start" x="907" y="-38.8" font-family="Times,serif" font-size="14.00">state_id :integer</text>
<text text-anchor="start" x="907" y="-23.8" font-family="Times,serif" font-size="14.00">created_at :datetime</text>
<text text-anchor="start" x="907" y="-8.8" font-family="Times,serif" font-size="14.00">updated_at :datetime</text>
</g>
<!-- Psa&#45;&gt;PsaState -->
<g id="edge8" class="edge"><title>Psa&#45;&gt;PsaState</title>
<path fill="none" stroke="#8e5bdb" d="M848.67,-362.888C858.507,-341.191 868.208,-318.065 876,-296 899.187,-230.339 887.727,-208.488 914,-144 917.747,-134.802 922.314,-125.409 927.168,-116.338"/>
<ellipse fill="none" stroke="#8e5bdb" cx="846.995" cy="-366.55" rx="4.00002" ry="4.00002"/>
<polygon fill="#8e5bdb" stroke="#8e5bdb" points="927.271,-116.151 936.04,-109.566 929.685,-111.773 932.099,-107.394 932.099,-107.394 932.099,-107.394 929.685,-111.773 928.158,-105.221 927.271,-116.151 927.271,-116.151"/>
</g>
<!-- State -->
<g id="node13" class="node"><title>State</title>
<path fill="none" stroke="black" d="M935,-167C935,-167 1045,-167 1045,-167 1051,-167 1057,-173 1057,-179 1057,-179 1057,-261 1057,-261 1057,-267 1051,-273 1045,-273 1045,-273 935,-273 935,-273 929,-273 923,-267 923,-261 923,-261 923,-179 923,-179 923,-173 929,-167 935,-167"/>
<text text-anchor="middle" x="990" y="-257.8" font-family="Times,serif" font-size="14.00">State</text>
<polyline fill="none" stroke="black" points="923,-250 1057,-250 "/>
<text text-anchor="start" x="931" y="-234.8" font-family="Times,serif" font-size="14.00">id :integer</text>
<text text-anchor="start" x="931" y="-219.8" font-family="Times,serif" font-size="14.00">state :string</text>
<text text-anchor="start" x="931" y="-204.8" font-family="Times,serif" font-size="14.00">abbreviation :string</text>
<text text-anchor="start" x="931" y="-189.8" font-family="Times,serif" font-size="14.00">created_at :datetime</text>
<text text-anchor="start" x="931" y="-174.8" font-family="Times,serif" font-size="14.00">updated_at :datetime</text>
</g>
<!-- Psa&#45;&gt;State -->
<g id="edge9" class="edge"><title>Psa&#45;&gt;State</title>
<path fill="none" stroke="#1d8b96" d="M877.737,-362.215C899.483,-334.861 922.478,-305.936 941.955,-281.436"/>
<polygon fill="#1d8b96" stroke="#1d8b96" points="877.513,-362.497 867.767,-367.525 874.401,-366.411 871.29,-370.325 871.29,-370.325 871.29,-370.325 874.401,-366.411 874.812,-373.126 877.513,-362.497 877.513,-362.497"/>
<polygon fill="#1d8b96" stroke="#1d8b96" points="942.195,-281.133 951.941,-276.106 945.307,-277.219 948.418,-273.305 948.418,-273.305 948.418,-273.305 945.307,-277.219 944.896,-270.505 942.195,-281.133 942.195,-281.133"/>
</g>
<!-- Region -->
<g id="node10" class="node"><title>Region</title>
<path fill="none" stroke="black" d="M1002,-641.5C1002,-641.5 1184,-641.5 1184,-641.5 1190,-641.5 1196,-647.5 1196,-653.5 1196,-653.5 1196,-780.5 1196,-780.5 1196,-786.5 1190,-792.5 1184,-792.5 1184,-792.5 1002,-792.5 1002,-792.5 996,-792.5 990,-786.5 990,-780.5 990,-780.5 990,-653.5 990,-653.5 990,-647.5 996,-641.5 1002,-641.5"/>
<text text-anchor="middle" x="1093" y="-777.3" font-family="Times,serif" font-size="14.00">Region</text>
<polyline fill="none" stroke="black" points="990,-769.5 1196,-769.5 "/>
<text text-anchor="start" x="998" y="-754.3" font-family="Times,serif" font-size="14.00">id :integer</text>
<text text-anchor="start" x="998" y="-739.3" font-family="Times,serif" font-size="14.00">fedexRegionName :string</text>
<text text-anchor="start" x="998" y="-724.3" font-family="Times,serif" font-size="14.00">fedexRegionNumber :integer</text>
<text text-anchor="start" x="998" y="-709.3" font-family="Times,serif" font-size="14.00">fedexRegionPhone :string</text>
<text text-anchor="start" x="998" y="-694.3" font-family="Times,serif" font-size="14.00">contractorRegionName :string</text>
<text text-anchor="start" x="998" y="-679.3" font-family="Times,serif" font-size="14.00">contractorRegionNumber :integer</text>
<text text-anchor="start" x="998" y="-664.3" font-family="Times,serif" font-size="14.00">created_at :datetime</text>
<text text-anchor="start" x="998" y="-649.3" font-family="Times,serif" font-size="14.00">updated_at :datetime</text>
</g>
<!-- Role -->
<g id="node11" class="node"><title>Role</title>
<path fill="none" stroke="black" d="M1226,-671.5C1226,-671.5 1336,-671.5 1336,-671.5 1342,-671.5 1348,-677.5 1348,-683.5 1348,-683.5 1348,-750.5 1348,-750.5 1348,-756.5 1342,-762.5 1336,-762.5 1336,-762.5 1226,-762.5 1226,-762.5 1220,-762.5 1214,-756.5 1214,-750.5 1214,-750.5 1214,-683.5 1214,-683.5 1214,-677.5 1220,-671.5 1226,-671.5"/>
<text text-anchor="middle" x="1281" y="-747.3" font-family="Times,serif" font-size="14.00">Role</text>
<polyline fill="none" stroke="black" points="1214,-739.5 1348,-739.5 "/>
<text text-anchor="start" x="1222" y="-724.3" font-family="Times,serif" font-size="14.00">id :integer</text>
<text text-anchor="start" x="1222" y="-709.3" font-family="Times,serif" font-size="14.00">name :string</text>
<text text-anchor="start" x="1222" y="-694.3" font-family="Times,serif" font-size="14.00">created_at :datetime</text>
<text text-anchor="start" x="1222" y="-679.3" font-family="Times,serif" font-size="14.00">updated_at :datetime</text>
</g>
<!-- ServiceType -->
<g id="node12" class="node"><title>ServiceType</title>
<path fill="none" stroke="black" d="M1378,-656.5C1378,-656.5 1488,-656.5 1488,-656.5 1494,-656.5 1500,-662.5 1500,-668.5 1500,-668.5 1500,-765.5 1500,-765.5 1500,-771.5 1494,-777.5 1488,-777.5 1488,-777.5 1378,-777.5 1378,-777.5 1372,-777.5 1366,-771.5 1366,-765.5 1366,-765.5 1366,-668.5 1366,-668.5 1366,-662.5 1372,-656.5 1378,-656.5"/>
<text text-anchor="middle" x="1433" y="-762.3" font-family="Times,serif" font-size="14.00">ServiceType</text>
<polyline fill="none" stroke="black" points="1366,-754.5 1500,-754.5 "/>
<text text-anchor="start" x="1374" y="-739.3" font-family="Times,serif" font-size="14.00">id :integer</text>
<text text-anchor="start" x="1374" y="-724.3" font-family="Times,serif" font-size="14.00">serviceType :string</text>
<text text-anchor="start" x="1374" y="-709.3" font-family="Times,serif" font-size="14.00">startDate :datetime</text>
<text text-anchor="start" x="1374" y="-694.3" font-family="Times,serif" font-size="14.00">endDate :datetime</text>
<text text-anchor="start" x="1374" y="-679.3" font-family="Times,serif" font-size="14.00">created_at :datetime</text>
<text text-anchor="start" x="1374" y="-664.3" font-family="Times,serif" font-size="14.00">updated_at :datetime</text>
</g>
<!-- Vehicle -->
<g id="node17" class="node"><title>Vehicle</title>
<path fill="none" stroke="black" d="M1591.5,-333C1591.5,-333 1750.5,-333 1750.5,-333 1756.5,-333 1762.5,-339 1762.5,-345 1762.5,-345 1762.5,-577 1762.5,-577 1762.5,-583 1756.5,-589 1750.5,-589 1750.5,-589 1591.5,-589 1591.5,-589 1585.5,-589 1579.5,-583 1579.5,-577 1579.5,-577 1579.5,-345 1579.5,-345 1579.5,-339 1585.5,-333 1591.5,-333"/>
<text text-anchor="middle" x="1671" y="-573.8" font-family="Times,serif" font-size="14.00">Vehicle</text>
<polyline fill="none" stroke="black" points="1579.5,-566 1762.5,-566 "/>
<text text-anchor="start" x="1587.5" y="-550.8" font-family="Times,serif" font-size="14.00">id :integer</text>
<text text-anchor="start" x="1587.5" y="-535.8" font-family="Times,serif" font-size="14.00">fedexVehicleNumber :integer</text>
<text text-anchor="start" x="1587.5" y="-520.8" font-family="Times,serif" font-size="14.00">fedexVehicleName :string</text>
<text text-anchor="start" x="1587.5" y="-505.8" font-family="Times,serif" font-size="14.00">contractorNumber :integer</text>
<text text-anchor="start" x="1587.5" y="-490.8" font-family="Times,serif" font-size="14.00">contractorName :string</text>
<text text-anchor="start" x="1587.5" y="-475.8" font-family="Times,serif" font-size="14.00">vin :string</text>
<text text-anchor="start" x="1587.5" y="-460.8" font-family="Times,serif" font-size="14.00">startDate :datetime</text>
<text text-anchor="start" x="1587.5" y="-445.8" font-family="Times,serif" font-size="14.00">endDate :datetime</text>
<text text-anchor="start" x="1587.5" y="-430.8" font-family="Times,serif" font-size="14.00">activeBoolean :boolean</text>
<text text-anchor="start" x="1587.5" y="-415.8" font-family="Times,serif" font-size="14.00">vehicleType_id :integer</text>
<text text-anchor="start" x="1587.5" y="-400.8" font-family="Times,serif" font-size="14.00">vehicleFuel_id :integer</text>
<text text-anchor="start" x="1587.5" y="-385.8" font-family="Times,serif" font-size="14.00">vehicleOdometer_id :integer</text>
<text text-anchor="start" x="1587.5" y="-370.8" font-family="Times,serif" font-size="14.00">created_at :datetime</text>
<text text-anchor="start" x="1587.5" y="-355.8" font-family="Times,serif" font-size="14.00">updated_at :datetime</text>
<text text-anchor="start" x="1587.5" y="-340.8" font-family="Times,serif" font-size="14.00">service_type_id :integer</text>
</g>
<!-- ServiceType&#45;&gt;Vehicle -->
<g id="edge10" class="edge"><title>ServiceType&#45;&gt;Vehicle</title>
<path fill="none" stroke="#7ecadf" d="M1488.42,-650.165C1495.59,-641.953 1502.91,-633.731 1510,-626 1529.74,-604.464 1551.36,-581.83 1572.17,-560.489"/>
<ellipse fill="none" stroke="#7ecadf" cx="1485.59" cy="-653.416" rx="4.00002" ry="4.00002"/>
<polygon fill="#7ecadf" stroke="#7ecadf" points="1572.2,-560.456 1582.41,-556.45 1575.7,-556.881 1579.19,-553.305 1579.19,-553.305 1579.19,-553.305 1575.7,-556.881 1575.97,-550.16 1572.2,-560.456 1572.2,-560.456"/>
</g>
<!-- State&#45;&gt;PsaState -->
<g id="edge11" class="edge"><title>State&#45;&gt;PsaState</title>
<path fill="none" stroke="#559e3a" d="M981.146,-158.498C979.179,-145.059 977.091,-130.791 975.114,-117.282"/>
<ellipse fill="none" stroke="#559e3a" cx="981.761" cy="-162.701" rx="4.00001" ry="4.00001"/>
<polygon fill="#559e3a" stroke="#559e3a" points="975.076,-117.02 978.081,-106.474 974.352,-112.073 973.628,-107.126 973.628,-107.126 973.628,-107.126 974.352,-112.073 969.176,-107.777 975.076,-117.02 975.076,-117.02"/>
</g>
<!-- Terminal -->
<g id="node14" class="node"><title>Terminal</title>
<path fill="none" stroke="black" d="M292.5,-385.5C292.5,-385.5 485.5,-385.5 485.5,-385.5 491.5,-385.5 497.5,-391.5 497.5,-397.5 497.5,-397.5 497.5,-524.5 497.5,-524.5 497.5,-530.5 491.5,-536.5 485.5,-536.5 485.5,-536.5 292.5,-536.5 292.5,-536.5 286.5,-536.5 280.5,-530.5 280.5,-524.5 280.5,-524.5 280.5,-397.5 280.5,-397.5 280.5,-391.5 286.5,-385.5 292.5,-385.5"/>
<text text-anchor="middle" x="389" y="-521.3" font-family="Times,serif" font-size="14.00">Terminal</text>
<polyline fill="none" stroke="black" points="280.5,-513.5 497.5,-513.5 "/>
<text text-anchor="start" x="288.5" y="-498.3" font-family="Times,serif" font-size="14.00">id :integer</text>
<text text-anchor="start" x="288.5" y="-483.3" font-family="Times,serif" font-size="14.00">fedexTerminalName :string</text>
<text text-anchor="start" x="288.5" y="-468.3" font-family="Times,serif" font-size="14.00">fedexTerminalNumber :integer</text>
<text text-anchor="start" x="288.5" y="-453.3" font-family="Times,serif" font-size="14.00">contractorTerminalName :string</text>
<text text-anchor="start" x="288.5" y="-438.3" font-family="Times,serif" font-size="14.00">contractorTerminalNumber :integer</text>
<text text-anchor="start" x="288.5" y="-423.3" font-family="Times,serif" font-size="14.00">colocationBoolean :boolean</text>
<text text-anchor="start" x="288.5" y="-408.3" font-family="Times,serif" font-size="14.00">created_at :datetime</text>
<text text-anchor="start" x="288.5" y="-393.3" font-family="Times,serif" font-size="14.00">updated_at :datetime</text>
</g>
<!-- Terminal&#45;&gt;Note -->
<g id="edge12" class="edge"><title>Terminal&#45;&gt;Note</title>
<path fill="none" stroke="#5e56e8" d="M389,-377.251C389,-354.228 389,-329.188 389,-306.035"/>
<ellipse fill="none" stroke="#5e56e8" cx="389" cy="-381.362" rx="4" ry="4"/>
<polygon fill="#5e56e8" stroke="#5e56e8" points="389,-305.894 393.5,-295.894 389,-300.894 389,-295.894 389,-295.894 389,-295.894 389,-300.894 384.5,-295.894 389,-305.894 389,-305.894"/>
</g>
<!-- UserRole -->
<g id="node16" class="node"><title>UserRole</title>
<path fill="none" stroke="black" d="M536,-1C536,-1 646,-1 646,-1 652,-1 658,-7 658,-13 658,-13 658,-95 658,-95 658,-101 652,-107 646,-107 646,-107 536,-107 536,-107 530,-107 524,-101 524,-95 524,-95 524,-13 524,-13 524,-7 530,-1 536,-1"/>
<text text-anchor="middle" x="591" y="-91.8" font-family="Times,serif" font-size="14.00">UserRole</text>
<polyline fill="none" stroke="black" points="524,-84 658,-84 "/>
<text text-anchor="start" x="532" y="-68.8" font-family="Times,serif" font-size="14.00">id :integer</text>
<text text-anchor="start" x="532" y="-53.8" font-family="Times,serif" font-size="14.00">user_id :integer</text>
<text text-anchor="start" x="532" y="-38.8" font-family="Times,serif" font-size="14.00">role_id :integer</text>
<text text-anchor="start" x="532" y="-23.8" font-family="Times,serif" font-size="14.00">created_at :datetime</text>
<text text-anchor="start" x="532" y="-8.8" font-family="Times,serif" font-size="14.00">updated_at :datetime</text>
</g>
<!-- User&#45;&gt;UserRole -->
<g id="edge13" class="edge"><title>User&#45;&gt;UserRole</title>
<path fill="none" stroke="#e20b6d" d="M591,-151.21C591,-139.915 591,-128.248 591,-117.104"/>
<ellipse fill="none" stroke="#e20b6d" cx="591" cy="-155.328" rx="4" ry="4"/>
<polygon fill="#e20b6d" stroke="#e20b6d" points="591,-117.041 595.5,-107.041 591,-112.041 591,-107.041 591,-107.041 591,-107.041 591,-112.041 586.5,-107.041 591,-117.041 591,-117.041"/>
</g>
<!-- VehicleFuel -->
<g id="node18" class="node"><title>VehicleFuel</title>
<path fill="none" stroke="black" d="M1530.5,-656.5C1530.5,-656.5 1643.5,-656.5 1643.5,-656.5 1649.5,-656.5 1655.5,-662.5 1655.5,-668.5 1655.5,-668.5 1655.5,-765.5 1655.5,-765.5 1655.5,-771.5 1649.5,-777.5 1643.5,-777.5 1643.5,-777.5 1530.5,-777.5 1530.5,-777.5 1524.5,-777.5 1518.5,-771.5 1518.5,-765.5 1518.5,-765.5 1518.5,-668.5 1518.5,-668.5 1518.5,-662.5 1524.5,-656.5 1530.5,-656.5"/>
<text text-anchor="middle" x="1587" y="-762.3" font-family="Times,serif" font-size="14.00">VehicleFuel</text>
<polyline fill="none" stroke="black" points="1518.5,-754.5 1655.5,-754.5 "/>
<text text-anchor="start" x="1526.5" y="-739.3" font-family="Times,serif" font-size="14.00">id :integer</text>
<text text-anchor="start" x="1526.5" y="-724.3" font-family="Times,serif" font-size="14.00">fuelType :string</text>
<text text-anchor="start" x="1526.5" y="-709.3" font-family="Times,serif" font-size="14.00">fuelTankSize :integer</text>
<text text-anchor="start" x="1526.5" y="-694.3" font-family="Times,serif" font-size="14.00">mpg :integer</text>
<text text-anchor="start" x="1526.5" y="-679.3" font-family="Times,serif" font-size="14.00">created_at :datetime</text>
<text text-anchor="start" x="1526.5" y="-664.3" font-family="Times,serif" font-size="14.00">updated_at :datetime</text>
</g>
<!-- VehicleFuel&#45;&gt;Vehicle -->
<g id="edge14" class="edge"><title>VehicleFuel&#45;&gt;Vehicle</title>
<path fill="none" stroke="#2e0a5b" d="M1609.26,-648.687C1614.4,-633.133 1620.06,-616.033 1625.8,-598.69"/>
<ellipse fill="none" stroke="#2e0a5b" cx="1607.95" cy="-652.651" rx="4.00001" ry="4.00001"/>
<polygon fill="#2e0a5b" stroke="#2e0a5b" points="1625.85,-598.533 1633.26,-590.451 1627.42,-593.786 1628.99,-589.039 1628.99,-589.039 1628.99,-589.039 1627.42,-593.786 1624.71,-587.626 1625.85,-598.533 1625.85,-598.533"/>
</g>
<!-- VehicleOdometer -->
<g id="node19" class="node"><title>VehicleOdometer</title>
<path fill="none" stroke="black" d="M1686,-656.5C1686,-656.5 1824,-656.5 1824,-656.5 1830,-656.5 1836,-662.5 1836,-668.5 1836,-668.5 1836,-765.5 1836,-765.5 1836,-771.5 1830,-777.5 1824,-777.5 1824,-777.5 1686,-777.5 1686,-777.5 1680,-777.5 1674,-771.5 1674,-765.5 1674,-765.5 1674,-668.5 1674,-668.5 1674,-662.5 1680,-656.5 1686,-656.5"/>
<text text-anchor="middle" x="1755" y="-762.3" font-family="Times,serif" font-size="14.00">VehicleOdometer</text>
<polyline fill="none" stroke="black" points="1674,-754.5 1836,-754.5 "/>
<text text-anchor="start" x="1682" y="-739.3" font-family="Times,serif" font-size="14.00">id :integer</text>
<text text-anchor="start" x="1682" y="-724.3" font-family="Times,serif" font-size="14.00">odometerReading :integer</text>
<text text-anchor="start" x="1682" y="-709.3" font-family="Times,serif" font-size="14.00">startDate :datetime</text>
<text text-anchor="start" x="1682" y="-694.3" font-family="Times,serif" font-size="14.00">endDate :datetime</text>
<text text-anchor="start" x="1682" y="-679.3" font-family="Times,serif" font-size="14.00">created_at :datetime</text>
<text text-anchor="start" x="1682" y="-664.3" font-family="Times,serif" font-size="14.00">updated_at :datetime</text>
</g>
<!-- VehicleOdometer&#45;&gt;Vehicle -->
<g id="edge15" class="edge"><title>VehicleOdometer&#45;&gt;Vehicle</title>
<path fill="none" stroke="#0ade25" d="M1732.74,-648.687C1727.6,-633.133 1721.94,-616.033 1716.2,-598.69"/>
<ellipse fill="none" stroke="#0ade25" cx="1734.05" cy="-652.651" rx="4.00001" ry="4.00001"/>
<polygon fill="#0ade25" stroke="#0ade25" points="1716.15,-598.533 1717.29,-587.626 1714.58,-593.786 1713.01,-589.039 1713.01,-589.039 1713.01,-589.039 1714.58,-593.786 1708.74,-590.451 1716.15,-598.533 1716.15,-598.533"/>
</g>
<!-- VehicleType -->
<g id="node20" class="node"><title>VehicleType</title>
<path fill="none" stroke="black" d="M1866,-649C1866,-649 1982,-649 1982,-649 1988,-649 1994,-655 1994,-661 1994,-661 1994,-773 1994,-773 1994,-779 1988,-785 1982,-785 1982,-785 1866,-785 1866,-785 1860,-785 1854,-779 1854,-773 1854,-773 1854,-661 1854,-661 1854,-655 1860,-649 1866,-649"/>
<text text-anchor="middle" x="1924" y="-769.8" font-family="Times,serif" font-size="14.00">VehicleType</text>
<polyline fill="none" stroke="black" points="1854,-762 1994,-762 "/>
<text text-anchor="start" x="1862" y="-746.8" font-family="Times,serif" font-size="14.00">id :integer</text>
<text text-anchor="start" x="1862" y="-731.8" font-family="Times,serif" font-size="14.00">vehicleSize :string</text>
<text text-anchor="start" x="1862" y="-716.8" font-family="Times,serif" font-size="14.00">bulkBoolean :boolean</text>
<text text-anchor="start" x="1862" y="-701.8" font-family="Times,serif" font-size="14.00">bodyMake :string</text>
<text text-anchor="start" x="1862" y="-686.8" font-family="Times,serif" font-size="14.00">bodyModel :string</text>
<text text-anchor="start" x="1862" y="-671.8" font-family="Times,serif" font-size="14.00">created_at :datetime</text>
<text text-anchor="start" x="1862" y="-656.8" font-family="Times,serif" font-size="14.00">updated_at :datetime</text>
</g>
<!-- VehicleType&#45;&gt;Vehicle -->
<g id="edge16" class="edge"><title>VehicleType&#45;&gt;Vehicle</title>
<path fill="none" stroke="#8f10ba" d="M1860.43,-642.412C1855.28,-636.8 1850.09,-631.273 1845,-626 1821.39,-601.534 1795.07,-575.933 1770.2,-552.43"/>
<ellipse fill="none" stroke="#8f10ba" cx="1863.32" cy="-645.572" rx="4.00002" ry="4.00002"/>
<polygon fill="#8f10ba" stroke="#8f10ba" points="1770.15,-552.391 1765.96,-542.259 1766.51,-548.963 1762.88,-545.534 1762.88,-545.534 1762.88,-545.534 1766.51,-548.963 1759.79,-548.81 1770.15,-552.391 1770.15,-552.391"/>
</g>
<!-- Zip&#45;&gt;Psazip -->
<g id="edge17" class="edge"><title>Zip&#45;&gt;Psazip</title>
<path fill="none" stroke="#87b3bd" d="M789.38,-166.223C786.221,-150.523 782.731,-133.18 779.466,-116.952"/>
<ellipse fill="none" stroke="#87b3bd" cx="790.194" cy="-170.265" rx="4.00001" ry="4.00001"/>
<polygon fill="#87b3bd" stroke="#87b3bd" points="779.44,-116.821 781.878,-106.13 778.453,-111.919 777.467,-107.017 777.467,-107.017 777.467,-107.017 778.453,-111.919 773.055,-107.905 779.44,-116.821 779.44,-116.821"/>
</g>
</g>
</svg>
