<?xml version="1.0" encoding="UTF-8" standalone="no"?>
<!DOCTYPE svg PUBLIC "-//W3C//DTD SVG 1.1//EN"
 "http://www.w3.org/Graphics/SVG/1.1/DTD/svg11.dtd">
<!-- Generated by graphviz version 2.29.20121209.0545 (20121209.0545)
 -->
<!-- Title: models_diagram Pages: 1 -->
<svg width="1440pt" height="302pt"
 viewBox="0.00 0.00 1440.00 302.00" xmlns="http://www.w3.org/2000/svg" xmlns:xlink="http://www.w3.org/1999/xlink">
<g id="graph0" class="graph" transform="scale(1 1) rotate(0) translate(4 298)">
<title>models_diagram</title>
<polygon fill="white" stroke="white" points="-4,5 -4,-298 1437,-298 1437,5 -4,5"/>
<!-- _diagram_info -->
<g id="node1" class="node"><title>_diagram_info</title>
<text text-anchor="start" x="9" y="-279.6" font-family="Times,serif" font-size="13.00">Models diagram</text>
<text text-anchor="start" x="9" y="-265.6" font-family="Times,serif" font-size="13.00">Date: Dec 11 2012 &#45; 02:20</text>
<text text-anchor="start" x="9" y="-251.6" font-family="Times,serif" font-size="13.00">Migration version: 20121211062031</text>
<text text-anchor="start" x="9" y="-237.6" font-family="Times,serif" font-size="13.00">Generated by RailRoady 1.1.0</text>
<text text-anchor="start" x="9" y="-223.6" font-family="Times,serif" font-size="13.00">http://railroady.prestonlee.com</text>
</g>
<!-- Addendum -->
<g id="node2" class="node"><title>Addendum</title>
<ellipse fill="none" stroke="black" cx="51" cy="-162" rx="51.0191" ry="18"/>
<text text-anchor="middle" x="51" y="-158.3" font-family="Times,serif" font-size="14.00">Addendum</text>
</g>
<!-- Note -->
<g id="node6" class="node"><title>Note</title>
<ellipse fill="none" stroke="black" cx="165" cy="-90" rx="28.3955" ry="18"/>
<text text-anchor="middle" x="165" y="-86.3" font-family="Times,serif" font-size="14.00">Note</text>
</g>
<!-- Addendum&#45;&gt;Note -->
<g id="edge1" class="edge"><title>Addendum&#45;&gt;Note</title>
<path fill="none" stroke="#9a488e" d="M82.3068,-141.777C99.2362,-131.381 119.99,-118.638 136.471,-108.518"/>
<ellipse fill="none" stroke="#9a488e" cx="78.8646" cy="-143.89" rx="4.00002" ry="4.00002"/>
<polygon fill="#9a488e" stroke="#9a488e" points="136.614,-108.43 147.49,-107.032 140.875,-105.814 145.136,-103.197 145.136,-103.197 145.136,-103.197 140.875,-105.814 142.781,-99.3627 136.614,-108.43 136.614,-108.43"/>
</g>
<!-- Employee -->
<g id="node3" class="node"><title>Employee</title>
<ellipse fill="none" stroke="black" cx="275" cy="-162" rx="47.169" ry="18"/>
<text text-anchor="middle" x="275" y="-158.3" font-family="Times,serif" font-size="14.00">Employee</text>
</g>
<!-- Employee&#45;&gt;Note -->
<g id="edge2" class="edge"><title>Employee&#45;&gt;Note</title>
<path fill="none" stroke="#9ec86a" d="M244.809,-141.788C228.654,-131.507 208.885,-118.927 193.064,-108.859"/>
<ellipse fill="none" stroke="#9ec86a" cx="248.297" cy="-144.007" rx="4.00002" ry="4.00002"/>
<polygon fill="#9ec86a" stroke="#9ec86a" points="192.699,-108.627 186.679,-99.4617 188.481,-105.943 184.263,-103.258 184.263,-103.258 184.263,-103.258 188.481,-105.943 181.847,-107.055 192.699,-108.627 192.699,-108.627"/>
</g>
<!-- User -->
<g id="node13" class="node"><title>User</title>
<ellipse fill="none" stroke="black" cx="470" cy="-90" rx="27.4223" ry="18"/>
<text text-anchor="middle" x="470" y="-86.3" font-family="Times,serif" font-size="14.00">User</text>
</g>
<!-- Employee&#45;&gt;User -->
<g id="edge3" class="edge"><title>Employee&#45;&gt;User</title>
<path fill="none" stroke="#a2dfa6" d="M315.716,-146.384C352.307,-133.249 405.276,-114.234 438.659,-102.251"/>
<ellipse fill="none" stroke="#a2dfa6" cx="311.844" cy="-147.774" rx="4.00001" ry="4.00001"/>
<ellipse fill="#a2dfa6" stroke="#a2dfa6" cx="442.527" cy="-100.862" rx="4.00001" ry="4.00001"/>
</g>
<!-- EmployeePsa -->
<g id="node4" class="node"><title>EmployeePsa</title>
<ellipse fill="none" stroke="black" cx="520" cy="-255" rx="60.1672" ry="18"/>
<text text-anchor="middle" x="520" y="-251.3" font-family="Times,serif" font-size="14.00">EmployeePsa</text>
</g>
<!-- FedexContract -->
<g id="node5" class="node"><title>FedexContract</title>
<ellipse fill="none" stroke="black" cx="291" cy="-255" rx="64.0172" ry="18"/>
<text text-anchor="middle" x="291" y="-251.3" font-family="Times,serif" font-size="14.00">FedexContract</text>
</g>
<!-- FedexContract&#45;&gt;Employee -->
<g id="edge4" class="edge"><title>FedexContract&#45;&gt;Employee</title>
<path fill="none" stroke="#b2cc90" d="M286.557,-228.729C284.446,-216.725 281.921,-202.362 279.77,-190.129"/>
<ellipse fill="none" stroke="#b2cc90" cx="287.298" cy="-232.944" rx="4.00001" ry="4.00001"/>
<polygon fill="#b2cc90" stroke="#b2cc90" points="279.728,-189.889 282.428,-179.26 278.862,-184.964 277.996,-180.04 277.996,-180.04 277.996,-180.04 278.862,-184.964 273.564,-180.819 279.728,-189.889 279.728,-189.889"/>
</g>
<!-- Psa -->
<g id="node20" class="node"><title>Psa</title>
<ellipse fill="none" stroke="black" cx="367" cy="-162" rx="27" ry="18"/>
<text text-anchor="middle" x="367" y="-158.3" font-family="Times,serif" font-size="14.00">Psa</text>
</g>
<!-- FedexContract&#45;&gt;Psa -->
<g id="edge5" class="edge"><title>FedexContract&#45;&gt;Psa</title>
<path fill="none" stroke="#93490e" d="M310.197,-231.014C321.673,-217.273 336.207,-199.87 347.701,-186.108"/>
<ellipse fill="none" stroke="#93490e" cx="307.504" cy="-234.239" rx="4.00002" ry="4.00002"/>
<polygon fill="#93490e" stroke="#93490e" points="348,-185.75 357.864,-180.959 351.205,-181.912 354.41,-178.075 354.41,-178.075 354.41,-178.075 351.205,-181.912 350.956,-175.19 348,-185.75 348,-185.75"/>
</g>
<!-- PsaState -->
<g id="node7" class="node"><title>PsaState</title>
<ellipse fill="none" stroke="black" cx="640" cy="-255" rx="41.394" ry="18"/>
<text text-anchor="middle" x="640" y="-251.3" font-family="Times,serif" font-size="14.00">PsaState</text>
</g>
<!-- Psazip -->
<g id="node8" class="node"><title>Psazip</title>
<ellipse fill="none" stroke="black" cx="446" cy="-162" rx="34.1708" ry="18"/>
<text text-anchor="middle" x="446" y="-158.3" font-family="Times,serif" font-size="14.00">Psazip</text>
</g>
<!-- Region -->
<g id="node9" class="node"><title>Region</title>
<ellipse fill="none" stroke="black" cx="737" cy="-255" rx="37.0701" ry="18"/>
<text text-anchor="middle" x="737" y="-251.3" font-family="Times,serif" font-size="14.00">Region</text>
</g>
<!-- Role -->
<g id="node10" class="node"><title>Role</title>
<ellipse fill="none" stroke="black" cx="526" cy="-162" rx="27.4223" ry="18"/>
<text text-anchor="middle" x="526" y="-158.3" font-family="Times,serif" font-size="14.00">Role</text>
</g>
<!-- UserRole -->
<g id="node14" class="node"><title>UserRole</title>
<ellipse fill="none" stroke="black" cx="498" cy="-18" rx="44.271" ry="18"/>
<text text-anchor="middle" x="498" y="-14.3" font-family="Times,serif" font-size="14.00">UserRole</text>
</g>
<!-- Role&#45;&gt;UserRole -->
<g id="edge6" class="edge"><title>Role&#45;&gt;UserRole</title>
<path fill="none" stroke="#aedaf6" d="M521.056,-135.929C516.087,-110.725 508.45,-71.9942 503.343,-46.0947"/>
<ellipse fill="none" stroke="#aedaf6" cx="521.849" cy="-139.947" rx="4.00001" ry="4.00001"/>
<polygon fill="#aedaf6" stroke="#aedaf6" points="503.324,-46.0004 505.804,-35.3187 502.357,-41.0948 501.389,-36.1893 501.389,-36.1893 501.389,-36.1893 502.357,-41.0948 496.974,-37.0599 503.324,-46.0004 503.324,-46.0004"/>
</g>
<!-- Role&#45;&gt;User -->
<g id="edge7" class="edge"><title>Role&#45;&gt;User</title>
<path fill="none" stroke="#0437b5" d="M507.498,-137.872C501.371,-130.213 494.555,-121.694 488.433,-114.041"/>
<polygon fill="#0437b5" stroke="#0437b5" points="507.602,-138.002 510.335,-148.622 510.725,-141.907 513.849,-145.811 513.849,-145.811 513.849,-145.811 510.725,-141.907 517.363,-143 507.602,-138.002 507.602,-138.002"/>
<polygon fill="#0437b5" stroke="#0437b5" points="488.374,-113.968 485.641,-103.348 485.251,-110.064 482.127,-106.159 482.127,-106.159 482.127,-106.159 485.251,-110.064 478.614,-108.97 488.374,-113.968 488.374,-113.968"/>
</g>
<!-- ServiceType -->
<g id="node11" class="node"><title>ServiceType</title>
<ellipse fill="none" stroke="black" cx="849" cy="-255" rx="56.3173" ry="18"/>
<text text-anchor="middle" x="849" y="-251.3" font-family="Times,serif" font-size="14.00">ServiceType</text>
</g>
<!-- Terminal -->
<g id="node12" class="node"><title>Terminal</title>
<ellipse fill="none" stroke="black" cx="165" cy="-162" rx="44.2946" ry="18"/>
<text text-anchor="middle" x="165" y="-158.3" font-family="Times,serif" font-size="14.00">Terminal</text>
</g>
<!-- Terminal&#45;&gt;Note -->
<g id="edge8" class="edge"><title>Terminal&#45;&gt;Note</title>
<path fill="none" stroke="#3f0b4e" d="M165,-135.64C165,-130.063 165,-124.132 165,-118.476"/>
<ellipse fill="none" stroke="#3f0b4e" cx="165" cy="-139.697" rx="4" ry="4"/>
<polygon fill="#3f0b4e" stroke="#3f0b4e" points="165,-118.104 169.5,-108.104 165,-113.104 165,-108.104 165,-108.104 165,-108.104 165,-113.104 160.5,-108.104 165,-118.104 165,-118.104"/>
</g>
<!-- User&#45;&gt;UserRole -->
<g id="edge9" class="edge"><title>User&#45;&gt;UserRole</title>
<path fill="none" stroke="#f838d9" d="M479.689,-64.7779C482.182,-58.544 484.878,-51.8046 487.415,-45.4634"/>
<ellipse fill="none" stroke="#f838d9" cx="478.121" cy="-68.6971" rx="4.00001" ry="4.00001"/>
<polygon fill="#f838d9" stroke="#f838d9" points="487.504,-45.241 495.396,-37.6275 489.361,-40.5986 491.218,-35.9562 491.218,-35.9562 491.218,-35.9562 489.361,-40.5986 487.039,-34.2849 487.504,-45.241 487.504,-45.241"/>
</g>
<!-- Vehicle -->
<g id="node15" class="node"><title>Vehicle</title>
<ellipse fill="none" stroke="black" cx="963" cy="-255" rx="38.4949" ry="18"/>
<text text-anchor="middle" x="963" y="-251.3" font-family="Times,serif" font-size="14.00">Vehicle</text>
</g>
<!-- VehicleFuel -->
<g id="node16" class="node"><title>VehicleFuel</title>
<ellipse fill="none" stroke="black" cx="1075" cy="-255" rx="55.3682" ry="18"/>
<text text-anchor="middle" x="1075" y="-251.3" font-family="Times,serif" font-size="14.00">VehicleFuel</text>
</g>
<!-- VehicleOdometer -->
<g id="node17" class="node"><title>VehicleOdometer</title>
<ellipse fill="none" stroke="black" cx="1224" cy="-255" rx="75.0904" ry="18"/>
<text text-anchor="middle" x="1224" y="-251.3" font-family="Times,serif" font-size="14.00">VehicleOdometer</text>
</g>
<!-- VehicleType -->
<g id="node18" class="node"><title>VehicleType</title>
<ellipse fill="none" stroke="black" cx="1375" cy="-255" rx="57.2688" ry="18"/>
<text text-anchor="middle" x="1375" y="-251.3" font-family="Times,serif" font-size="14.00">VehicleType</text>
</g>
<!-- Zip -->
<g id="node19" class="node"><title>Zip</title>
<ellipse fill="none" stroke="black" cx="415" cy="-255" rx="27" ry="18"/>
<text text-anchor="middle" x="415" y="-251.3" font-family="Times,serif" font-size="14.00">Zip</text>
</g>
<!-- Zip&#45;&gt;Psazip -->
<g id="edge10" class="edge"><title>Zip&#45;&gt;Psazip</title>
<path fill="none" stroke="#1ebac1" d="M423.332,-229.543C427.553,-217.152 432.684,-202.09 436.996,-189.432"/>
<ellipse fill="none" stroke="#1ebac1" cx="421.976" cy="-233.523" rx="4.00001" ry="4.00001"/>
<polygon fill="#1ebac1" stroke="#1ebac1" points="437.02,-189.359 444.505,-181.344 438.633,-184.626 440.245,-179.893 440.245,-179.893 440.245,-179.893 438.633,-184.626 435.986,-178.442 437.02,-189.359 437.02,-189.359"/>
</g>
<!-- Zip&#45;&gt;Psa -->
<g id="edge11" class="edge"><title>Zip&#45;&gt;Psa</title>
<path fill="none" stroke="#096171" d="M401.543,-228.487C394.89,-215.874 386.887,-200.703 380.261,-188.141"/>
<polygon fill="#096171" stroke="#096171" points="401.753,-228.886 402.438,-239.831 404.086,-233.309 406.419,-237.731 406.419,-237.731 406.419,-237.731 404.086,-233.309 410.399,-235.632 401.753,-228.886 401.753,-228.886"/>
<polygon fill="#096171" stroke="#096171" points="380.173,-187.973 379.487,-177.029 377.84,-183.551 375.507,-179.128 375.507,-179.128 375.507,-179.128 377.84,-183.551 371.527,-181.228 380.173,-187.973 380.173,-187.973"/>
</g>
</g>
</svg>
