<?xml version="1.0" encoding="UTF-8" standalone="no"?>
<!DOCTYPE svg PUBLIC "-//W3C//DTD SVG 1.1//EN"
 "http://www.w3.org/Graphics/SVG/1.1/DTD/svg11.dtd">
<!-- Generated by graphviz version 2.29.20121209.0545 (20121209.0545)
 -->
<!-- Title: models_diagram Pages: 1 -->
<svg width="1903pt" height="504pt"
 viewBox="0.00 0.00 1903.00 504.00" xmlns="http://www.w3.org/2000/svg" xmlns:xlink="http://www.w3.org/1999/xlink">
<g id="graph0" class="graph" transform="scale(1 1) rotate(0) translate(4 500)">
<title>models_diagram</title>
<polygon fill="white" stroke="white" points="-4,5 -4,-500 1900,-500 1900,5 -4,5"/>
<!-- _diagram_info -->
<g id="node1" class="node"><title>_diagram_info</title>
<text text-anchor="start" x="1313" y="-481.6" font-family="Times,serif" font-size="13.00">Models diagram</text>
<text text-anchor="start" x="1313" y="-467.6" font-family="Times,serif" font-size="13.00">Date: Dec 16 2012 &#45; 22:02</text>
<text text-anchor="start" x="1313" y="-453.6" font-family="Times,serif" font-size="13.00">Migration version: 20121217020539</text>
<text text-anchor="start" x="1313" y="-439.6" font-family="Times,serif" font-size="13.00">Generated by RailRoady 1.1.0</text>
<text text-anchor="start" x="1313" y="-425.6" font-family="Times,serif" font-size="13.00">http://railroady.prestonlee.com</text>
</g>
<!-- Addendum -->
<g id="node2" class="node"><title>Addendum</title>
<ellipse fill="none" stroke="black" cx="1479" cy="-308" rx="51.0191" ry="18"/>
<text text-anchor="middle" x="1479" y="-304.3" font-family="Times,serif" font-size="14.00">Addendum</text>
</g>
<!-- Note -->
<g id="node15" class="node"><title>Note</title>
<ellipse fill="none" stroke="black" cx="1400" cy="-18" rx="28.3955" ry="18"/>
<text text-anchor="middle" x="1400" y="-14.3" font-family="Times,serif" font-size="14.00">Note</text>
</g>
<!-- Addendum&#45;&gt;Note -->
<g id="edge1" class="edge"><title>Addendum&#45;&gt;Note</title>
<path fill="none" stroke="#256682" d="M1472.14,-282.003C1457.36,-228.118 1422.61,-101.409 1407.37,-45.8752"/>
<ellipse fill="none" stroke="#256682" cx="1473.24" cy="-285.989" rx="4.00001" ry="4.00001"/>
<polygon fill="#256682" stroke="#256682" points="1407.33,-45.7071 1409.02,-34.8729 1406,-40.8852 1404.68,-36.0633 1404.68,-36.0633 1404.68,-36.0633 1406,-40.8852 1400.34,-37.2538 1407.33,-45.7071 1407.33,-45.7071"/>
</g>
<!-- Business -->
<g id="node3" class="node"><title>Business</title>
<ellipse fill="none" stroke="black" cx="1595" cy="-362" rx="42.3456" ry="18"/>
<text text-anchor="middle" x="1595" y="-358.3" font-family="Times,serif" font-size="14.00">Business</text>
</g>
<!-- Business&#45;&gt;Note -->
<g id="edge2" class="edge"><title>Business&#45;&gt;Note</title>
<path fill="none" stroke="#12ed02" d="M1595,-335.475C1595,-314.005 1595,-282.496 1595,-255 1595,-255 1595,-255 1595,-91 1595,-57.7059 1493.7,-35.0021 1437.12,-24.9187"/>
<ellipse fill="none" stroke="#12ed02" cx="1595" cy="-339.742" rx="4" ry="4"/>
<polygon fill="#12ed02" stroke="#12ed02" points="1436.97,-24.8918 1427.88,-18.7493 1432.04,-24.0374 1427.11,-23.1831 1427.11,-23.1831 1427.11,-23.1831 1432.04,-24.0374 1426.34,-27.6169 1436.97,-24.8918 1436.97,-24.8918"/>
</g>
<!-- Psa -->
<g id="node17" class="node"><title>Psa</title>
<ellipse fill="none" stroke="black" cx="1726" cy="-166" rx="27" ry="18"/>
<text text-anchor="middle" x="1726" y="-162.3" font-family="Times,serif" font-size="14.00">Psa</text>
</g>
<!-- Business&#45;&gt;Psa -->
<g id="edge3" class="edge"><title>Business&#45;&gt;Psa</title>
<path fill="none" stroke="#7a0174" d="M1627.97,-343.309C1653.39,-327.896 1687.26,-303.148 1706,-272 1720.22,-248.359 1724.67,-216.764 1725.9,-194.426"/>
<ellipse fill="none" stroke="#7a0174" cx="1624.49" cy="-345.369" rx="4.00002" ry="4.00002"/>
<polygon fill="#7a0174" stroke="#7a0174" points="1725.91,-194.273 1730.77,-184.446 1726.09,-189.277 1726.28,-184.28 1726.28,-184.28 1726.28,-184.28 1726.09,-189.277 1721.78,-184.114 1725.91,-194.273 1725.91,-194.273"/>
</g>
<!-- Employee -->
<g id="node9" class="node"><title>Employee</title>
<ellipse fill="none" stroke="black" cx="1125" cy="-254" rx="47.169" ry="18"/>
<text text-anchor="middle" x="1125" y="-250.3" font-family="Times,serif" font-size="14.00">Employee</text>
</g>
<!-- Business&#45;&gt;Employee -->
<g id="edge4" class="edge"><title>Business&#45;&gt;Employee</title>
<path fill="none" stroke="#5a8a58" d="M1548.54,-352.295C1513,-345.506 1462.8,-335.64 1419,-326 1332.16,-306.889 1231.57,-281.996 1173.41,-267.331"/>
<ellipse fill="none" stroke="#5a8a58" cx="1552.87" cy="-353.119" rx="4.00001" ry="4.00001"/>
<polygon fill="#5a8a58" stroke="#5a8a58" points="1173.11,-267.253 1164.51,-260.441 1168.26,-266.029 1163.41,-264.804 1163.41,-264.804 1163.41,-264.804 1168.26,-266.029 1162.31,-269.167 1173.11,-267.253 1173.11,-267.253"/>
</g>
<!-- Vehicle -->
<g id="node27" class="node"><title>Vehicle</title>
<ellipse fill="none" stroke="black" cx="1396" cy="-254" rx="38.4949" ry="18"/>
<text text-anchor="middle" x="1396" y="-250.3" font-family="Times,serif" font-size="14.00">Vehicle</text>
</g>
<!-- Business&#45;&gt;Vehicle -->
<g id="edge5" class="edge"><title>Business&#45;&gt;Vehicle</title>
<path fill="none" stroke="#5ace83" d="M1572.07,-339.642C1567.62,-335.239 1563.08,-330.554 1559,-326 1545.48,-310.899 1547.94,-301.137 1531,-290 1504.99,-272.895 1471.05,-264.143 1443.71,-259.668"/>
<ellipse fill="none" stroke="#5ace83" cx="1575.16" cy="-342.645" rx="4.00002" ry="4.00002"/>
<polygon fill="#5ace83" stroke="#5ace83" points="1443.48,-259.633 1434.25,-253.704 1438.53,-258.894 1433.59,-258.154 1433.59,-258.154 1433.59,-258.154 1438.53,-258.894 1432.92,-262.605 1443.48,-259.633 1443.48,-259.633"/>
</g>
<!-- DailyDataDeliveryException -->
<g id="node4" class="node"><title>DailyDataDeliveryException</title>
<ellipse fill="none" stroke="black" cx="116" cy="-166" rx="116.484" ry="18"/>
<text text-anchor="middle" x="116" y="-162.3" font-family="Times,serif" font-size="14.00">DailyDataDeliveryException</text>
</g>
<!-- DailyDataDeliveryException&#45;&gt;Note -->
<g id="edge6" class="edge"><title>DailyDataDeliveryException&#45;&gt;Note</title>
<path fill="none" stroke="#de6378" d="M157.662,-145.224C216.384,-118.513 327.562,-72.1595 428,-54 611.752,-20.7768 1203.49,-18.8356 1361.12,-18.9224"/>
<ellipse fill="none" stroke="#de6378" cx="153.713" cy="-147.033" rx="4.00002" ry="4.00002"/>
<polygon fill="#de6378" stroke="#de6378" points="1361.29,-18.9224 1371.28,-23.4312 1366.29,-18.9268 1371.29,-18.9312 1371.29,-18.9312 1371.29,-18.9312 1366.29,-18.9268 1371.29,-14.4312 1361.29,-18.9224 1361.29,-18.9224"/>
</g>
<!-- DailyDataEmployee -->
<g id="node5" class="node"><title>DailyDataEmployee</title>
<ellipse fill="none" stroke="black" cx="336" cy="-166" rx="85.2138" ry="18"/>
<text text-anchor="middle" x="336" y="-162.3" font-family="Times,serif" font-size="14.00">DailyDataEmployee</text>
</g>
<!-- DailyDataEmployee&#45;&gt;Note -->
<g id="edge7" class="edge"><title>DailyDataEmployee&#45;&gt;Note</title>
<path fill="none" stroke="#d489fb" d="M349.346,-140.863C365.635,-114.127 395.909,-72.373 435,-54 477.563,-33.9951 1187.14,-22.1664 1361.53,-19.553"/>
<ellipse fill="none" stroke="#d489fb" cx="347.168" cy="-144.533" rx="4.00002" ry="4.00002"/>
<polygon fill="#d489fb" stroke="#d489fb" points="1361.77,-19.5495 1371.83,-23.9004 1366.76,-19.4752 1371.76,-19.4009 1371.76,-19.4009 1371.76,-19.4009 1366.76,-19.4752 1371.7,-14.9014 1361.77,-19.5495 1361.77,-19.5495"/>
</g>
<!-- DailyDataVehicle -->
<g id="node6" class="node"><title>DailyDataVehicle</title>
<ellipse fill="none" stroke="black" cx="554" cy="-166" rx="76.5394" ry="18"/>
<text text-anchor="middle" x="554" y="-162.3" font-family="Times,serif" font-size="14.00">DailyDataVehicle</text>
</g>
<!-- DailyDataVehicle&#45;&gt;Note -->
<g id="edge8" class="edge"><title>DailyDataVehicle&#45;&gt;Note</title>
<path fill="none" stroke="#4c316a" d="M601.406,-147.746C660.622,-126.91 765.43,-92.3788 858,-74 1044.54,-36.9648 1272.42,-24.1769 1361.62,-20.3944"/>
<ellipse fill="none" stroke="#4c316a" cx="597.482" cy="-149.133" rx="4.00001" ry="4.00001"/>
<polygon fill="#4c316a" stroke="#4c316a" points="1361.81,-20.3869 1371.98,-24.473 1366.8,-20.1818 1371.8,-19.9768 1371.8,-19.9768 1371.8,-19.9768 1366.8,-20.1818 1371.61,-15.4806 1361.81,-20.3869 1361.81,-20.3869"/>
</g>
<!-- DailyDatum -->
<g id="node7" class="node"><title>DailyDatum</title>
<ellipse fill="none" stroke="black" cx="449" cy="-362" rx="55.3436" ry="18"/>
<text text-anchor="middle" x="449" y="-358.3" font-family="Times,serif" font-size="14.00">DailyDatum</text>
</g>
<!-- DailyDatum&#45;&gt;Note -->
<g id="edge9" class="edge"><title>DailyDatum&#45;&gt;Note</title>
<path fill="none" stroke="#63339f" d="M449,-335.475C449,-314.005 449,-282.496 449,-255 449,-255 449,-255 449,-91 449,-44.4258 1183.81,-24.0984 1361.61,-19.8615"/>
<ellipse fill="none" stroke="#63339f" cx="449" cy="-339.742" rx="4" ry="4"/>
<polygon fill="#63339f" stroke="#63339f" points="1361.8,-19.8571 1371.9,-24.1206 1366.8,-19.7395 1371.8,-19.6219 1371.8,-19.6219 1371.8,-19.6219 1366.8,-19.7395 1371.69,-15.1231 1361.8,-19.8571 1361.8,-19.8571"/>
</g>
<!-- DailyDatum&#45;&gt;DailyDataVehicle -->
<g id="edge10" class="edge"><title>DailyDatum&#45;&gt;DailyDataVehicle</title>
<path fill="none" stroke="#69bdba" d="M462.162,-336.682C482.064,-299.91 519.652,-230.462 540.025,-192.821"/>
<ellipse fill="none" stroke="#69bdba" cx="460.038" cy="-340.605" rx="4.00002" ry="4.00002"/>
<polygon fill="#69bdba" stroke="#69bdba" points="540.052,-192.77 548.769,-186.118 542.432,-188.373 544.812,-183.976 544.812,-183.976 544.812,-183.976 542.432,-188.373 540.854,-181.834 540.052,-192.77 540.052,-192.77"/>
</g>
<!-- DailyDatum&#45;&gt;Vehicle -->
<g id="edge11" class="edge"><title>DailyDatum&#45;&gt;Vehicle</title>
<path fill="none" stroke="#a7e92e" d="M511.21,-354.822C581.551,-347.834 699.507,-336.111 801,-326 921.224,-314.023 1223.64,-296.268 1342,-272 1346.74,-271.027 1351.66,-269.799 1356.51,-268.449"/>
<polygon fill="#a7e92e" stroke="#a7e92e" points="511.135,-354.829 500.74,-351.339 506.16,-355.323 501.184,-355.817 501.184,-355.817 501.184,-355.817 506.16,-355.323 501.629,-360.295 511.135,-354.829 511.135,-354.829"/>
<polygon fill="#a7e92e" stroke="#a7e92e" points="1356.71,-268.392 1367.57,-269.868 1361.5,-266.972 1366.3,-265.553 1366.3,-265.553 1366.3,-265.553 1361.5,-266.972 1365.02,-261.238 1356.71,-268.392 1356.71,-268.392"/>
</g>
<!-- DailyDatum&#45;&gt;DailyDataEmployee -->
<g id="edge12" class="edge"><title>DailyDatum&#45;&gt;DailyDataEmployee</title>
<path fill="none" stroke="#d3d8e0" d="M436.081,-337.034C419.022,-305.66 387.772,-249.116 359,-202 357.124,-198.928 355.114,-195.736 353.091,-192.584"/>
<ellipse fill="none" stroke="#d3d8e0" cx="437.994" cy="-340.561" rx="4.00002" ry="4.00002"/>
<polygon fill="#d3d8e0" stroke="#d3d8e0" points="352.92,-192.322 351.229,-181.487 350.19,-188.133 347.46,-183.945 347.46,-183.945 347.46,-183.945 350.19,-188.133 343.69,-186.402 352.92,-192.322 352.92,-192.322"/>
</g>
<!-- DailyDatum&#45;&gt;Employee -->
<g id="edge13" class="edge"><title>DailyDatum&#45;&gt;Employee</title>
<path fill="none" stroke="#307847" d="M507.946,-351.757C638.015,-331.362 947.895,-282.771 1072.14,-263.289"/>
<polygon fill="#307847" stroke="#307847" points="507.767,-351.785 497.191,-348.888 502.828,-352.559 497.888,-353.334 497.888,-353.334 497.888,-353.334 502.828,-352.559 498.585,-357.78 507.767,-351.785 507.767,-351.785"/>
<polygon fill="#307847" stroke="#307847" points="1072.29,-263.266 1082.86,-266.162 1077.23,-262.491 1082.17,-261.716 1082.17,-261.716 1082.17,-261.716 1077.23,-262.491 1081.47,-257.271 1072.29,-263.266 1072.29,-263.266"/>
</g>
<!-- DailyDatum&#45;&gt;DailyDataDeliveryException -->
<g id="edge14" class="edge"><title>DailyDatum&#45;&gt;DailyDataDeliveryException</title>
<path fill="none" stroke="#c0c60b" d="M423.577,-339.695C385.929,-308.398 316.812,-251.974 289,-236 252.734,-215.17 208.953,-197.775 174.509,-185.661"/>
<ellipse fill="none" stroke="#c0c60b" cx="426.707" cy="-342.302" rx="4.00002" ry="4.00002"/>
<polygon fill="#c0c60b" stroke="#c0c60b" points="174.504,-185.66 166.528,-178.134 169.78,-184.023 165.055,-182.386 165.055,-182.386 165.055,-182.386 169.78,-184.023 163.582,-186.638 174.504,-185.66 174.504,-185.66"/>
</g>
<!-- DeliveryException -->
<g id="node8" class="node"><title>DeliveryException</title>
<ellipse fill="none" stroke="black" cx="201" cy="-254" rx="78.9404" ry="18"/>
<text text-anchor="middle" x="201" y="-250.3" font-family="Times,serif" font-size="14.00">DeliveryException</text>
</g>
<!-- DailyDatum&#45;&gt;DeliveryException -->
<g id="edge15" class="edge"><title>DailyDatum&#45;&gt;DeliveryException</title>
<path fill="none" stroke="#38bbec" d="M396.053,-347.871C375.413,-342.09 351.771,-334.638 331,-326 297.228,-311.955 260.854,-291.6 235.195,-276.283"/>
<polygon fill="#38bbec" stroke="#38bbec" points="396.273,-347.932 404.729,-354.913 401.095,-349.252 405.918,-350.573 405.918,-350.573 405.918,-350.573 401.095,-349.252 407.107,-346.233 396.273,-347.932 396.273,-347.932"/>
<polygon fill="#38bbec" stroke="#38bbec" points="235.151,-276.256 228.911,-267.239 230.869,-273.675 226.587,-271.093 226.587,-271.093 226.587,-271.093 230.869,-273.675 224.264,-274.947 235.151,-276.256 235.151,-276.256"/>
</g>
<!-- DeliveryException&#45;&gt;DailyDataDeliveryException -->
<g id="edge16" class="edge"><title>DeliveryException&#45;&gt;DailyDataDeliveryException</title>
<path fill="none" stroke="#62b9ce" d="M178.328,-230.062C166.46,-218.054 151.933,-203.356 139.89,-191.171"/>
<ellipse fill="none" stroke="#62b9ce" cx="181.395" cy="-233.164" rx="4.00002" ry="4.00002"/>
<polygon fill="#62b9ce" stroke="#62b9ce" points="139.788,-191.068 135.959,-180.792 136.273,-187.512 132.758,-183.956 132.758,-183.956 132.758,-183.956 136.273,-187.512 129.558,-187.119 139.788,-191.068 139.788,-191.068"/>
</g>
<!-- Employee&#45;&gt;Note -->
<g id="edge17" class="edge"><title>Employee&#45;&gt;Note</title>
<path fill="none" stroke="#bffab5" d="M1178.06,-246.795C1222.17,-239.053 1283.99,-221.858 1324,-184 1364.45,-145.724 1385.25,-81.7532 1394.27,-45.7416"/>
<ellipse fill="none" stroke="#bffab5" cx="1173.98" cy="-247.475" rx="4.00001" ry="4.00001"/>
<polygon fill="#bffab5" stroke="#bffab5" points="1394.29,-45.674 1400.98,-36.989 1395.45,-40.8101 1396.61,-35.9462 1396.61,-35.9462 1396.61,-35.9462 1395.45,-40.8101 1392.23,-34.9033 1394.29,-45.674 1394.29,-45.674"/>
</g>
<!-- User -->
<g id="node25" class="node"><title>User</title>
<ellipse fill="none" stroke="black" cx="1033" cy="-166" rx="27.4223" ry="18"/>
<text text-anchor="middle" x="1033" y="-162.3" font-family="Times,serif" font-size="14.00">User</text>
</g>
<!-- Employee&#45;&gt;User -->
<g id="edge18" class="edge"><title>Employee&#45;&gt;User</title>
<path fill="none" stroke="#10ef7f" d="M1094.7,-233.766C1087.95,-228.948 1081.01,-223.557 1075,-218 1065.65,-209.352 1056.51,-198.611 1049.15,-189.219"/>
<ellipse fill="none" stroke="#10ef7f" cx="1098.07" cy="-236.1" rx="4.00002" ry="4.00002"/>
<ellipse fill="#10ef7f" stroke="#10ef7f" cx="1046.57" cy="-185.844" rx="4.00002" ry="4.00002"/>
</g>
<!-- Employee&#45;&gt;DailyDataEmployee -->
<g id="edge19" class="edge"><title>Employee&#45;&gt;DailyDataEmployee</title>
<path fill="none" stroke="#8e9d30" d="M1071.43,-247.9C959.327,-237.113 691.863,-210.769 468,-184 451.219,-181.993 433.251,-179.746 416.145,-177.558"/>
<ellipse fill="none" stroke="#8e9d30" cx="1075.57" cy="-248.298" rx="4" ry="4"/>
<polygon fill="#8e9d30" stroke="#8e9d30" points="416.107,-177.553 406.761,-171.816 411.147,-176.917 406.188,-176.28 406.188,-176.28 406.188,-176.28 411.147,-176.917 405.615,-180.743 416.107,-177.553 416.107,-177.553"/>
</g>
<!-- EmployeePsa -->
<g id="node12" class="node"><title>EmployeePsa</title>
<ellipse fill="none" stroke="black" cx="1507" cy="-92" rx="60.1672" ry="18"/>
<text text-anchor="middle" x="1507" y="-88.3" font-family="Times,serif" font-size="14.00">EmployeePsa</text>
</g>
<!-- Employee&#45;&gt;EmployeePsa -->
<g id="edge20" class="edge"><title>Employee&#45;&gt;EmployeePsa</title>
<path fill="none" stroke="#6575f0" d="M1180.54,-252.737C1228.62,-250.634 1299.04,-242.967 1355,-218 1383.07,-205.479 1446.75,-148.83 1482.13,-116.254"/>
<ellipse fill="none" stroke="#6575f0" cx="1176.42" cy="-252.895" rx="4" ry="4"/>
<polygon fill="#6575f0" stroke="#6575f0" points="1482.3,-116.095 1492.7,-112.61 1485.97,-112.7 1489.64,-109.306 1489.64,-109.306 1489.64,-109.306 1485.97,-112.7 1486.59,-106.002 1482.3,-116.095 1482.3,-116.095"/>
</g>
<!-- Employee&#45;&gt;Psa -->
<g id="edge21" class="edge"><title>Employee&#45;&gt;Psa</title>
<path fill="none" stroke="#0e8fe8" d="M1178.89,-245.893C1231.1,-238.959 1312.52,-228.021 1383,-218 1494.84,-202.099 1627.01,-182.108 1689.62,-172.566"/>
<polygon fill="#0e8fe8" stroke="#0e8fe8" points="1178.76,-245.91 1168.26,-242.764 1173.8,-246.568 1168.85,-247.225 1168.85,-247.225 1168.85,-247.225 1173.8,-246.568 1169.44,-251.686 1178.76,-245.91 1178.76,-245.91"/>
<polygon fill="#0e8fe8" stroke="#0e8fe8" points="1689.88,-172.525 1700.45,-175.466 1694.82,-171.771 1699.77,-171.017 1699.77,-171.017 1699.77,-171.017 1694.82,-171.771 1699.09,-166.569 1689.88,-172.525 1689.88,-172.525"/>
</g>
<!-- EmployeeTerminal -->
<g id="node13" class="node"><title>EmployeeTerminal</title>
<ellipse fill="none" stroke="black" cx="1196" cy="-92" rx="81.3646" ry="18"/>
<text text-anchor="middle" x="1196" y="-88.3" font-family="Times,serif" font-size="14.00">EmployeeTerminal</text>
</g>
<!-- Employee&#45;&gt;EmployeeTerminal -->
<g id="edge22" class="edge"><title>Employee&#45;&gt;EmployeeTerminal</title>
<path fill="none" stroke="#865779" d="M1147.15,-231.144C1158.73,-218.444 1172.1,-201.523 1180,-184 1189.09,-163.829 1193.03,-138.978 1194.73,-120.344"/>
<ellipse fill="none" stroke="#865779" cx="1144.38" cy="-234.104" rx="4.00002" ry="4.00002"/>
<polygon fill="#865779" stroke="#865779" points="1194.75,-120.146 1199.98,-110.511 1195.12,-115.16 1195.5,-110.174 1195.5,-110.174 1195.5,-110.174 1195.12,-115.16 1191.01,-109.837 1194.75,-120.146 1194.75,-120.146"/>
</g>
<!-- Terminal -->
<g id="node24" class="node"><title>Terminal</title>
<ellipse fill="none" stroke="black" cx="1271" cy="-166" rx="44.2946" ry="18"/>
<text text-anchor="middle" x="1271" y="-162.3" font-family="Times,serif" font-size="14.00">Terminal</text>
</g>
<!-- Employee&#45;&gt;Terminal -->
<g id="edge23" class="edge"><title>Employee&#45;&gt;Terminal</title>
<path fill="none" stroke="#d57071" d="M1170.18,-238.438C1184.38,-232.978 1199.79,-226.099 1213,-218 1225.57,-210.294 1238.04,-199.798 1248.18,-190.33"/>
<polygon fill="#d57071" stroke="#d57071" points="1169.96,-238.519 1159.02,-237.769 1165.27,-240.254 1160.58,-241.989 1160.58,-241.989 1160.58,-241.989 1165.27,-240.254 1162.14,-246.21 1169.96,-238.519 1169.96,-238.519"/>
<polygon fill="#d57071" stroke="#d57071" points="1248.24,-190.282 1258.56,-186.599 1251.84,-186.818 1255.45,-183.354 1255.45,-183.354 1255.45,-183.354 1251.84,-186.818 1252.33,-180.109 1248.24,-190.282 1248.24,-190.282"/>
</g>
<!-- EmployeeManagerAssignment -->
<g id="node10" class="node"><title>EmployeeManagerAssignment</title>
<ellipse fill="none" stroke="black" cx="772" cy="-166" rx="123.234" ry="18"/>
<text text-anchor="middle" x="772" y="-162.3" font-family="Times,serif" font-size="14.00">EmployeeManagerAssignment</text>
</g>
<!-- Employee&#45;&gt;EmployeeManagerAssignment -->
<g id="edge24" class="edge"><title>Employee&#45;&gt;EmployeeManagerAssignment</title>
<path fill="none" stroke="#3209e0" d="M1081.08,-240.144C1043.52,-229.343 987.921,-213.822 939,-202 910.919,-195.214 879.997,-188.519 852.474,-182.831"/>
<ellipse fill="none" stroke="#3209e0" cx="1084.97" cy="-241.266" rx="4.00001" ry="4.00001"/>
<polygon fill="#3209e0" stroke="#3209e0" points="852.295,-182.794 843.405,-176.374 847.398,-181.788 842.5,-180.782 842.5,-180.782 842.5,-180.782 847.398,-181.788 841.594,-185.19 852.295,-182.794 852.295,-182.794"/>
</g>
<!-- Employee&#45;&gt;Employee -->
<g id="edge25" class="edge"><title>Employee&#45;&gt;Employee</title>
<path fill="none" stroke="#6cf984" d="M1177.17,-261.461C1184.83,-260.286 1190,-257.799 1190,-254 1190,-250.201 1184.83,-247.714 1177.17,-246.539"/>
<polygon fill="#6cf984" stroke="#6cf984" points="1177.17,-261.461 1166.85,-257.751 1172.18,-261.849 1167.2,-262.237 1167.2,-262.237 1167.2,-262.237 1172.18,-261.849 1167.55,-266.724 1177.17,-261.461 1177.17,-261.461"/>
<polygon fill="#6cf984" stroke="#6cf984" points="1177.17,-246.539 1167.55,-241.276 1172.18,-246.151 1167.2,-245.763 1167.2,-245.763 1167.2,-245.763 1172.18,-246.151 1166.85,-250.249 1177.17,-246.539 1177.17,-246.539"/>
<text text-anchor="middle" x="1217" y="-250.3" font-family="Times,serif" font-size="14.00">managers</text>
</g>
<!-- Employee&#45;&gt;EmployeeManagerAssignment -->
<g id="edge26" class="edge"><title>Employee&#45;&gt;EmployeeManagerAssignment</title>
<path fill="none" stroke="#aac909" d="M1070.21,-250.393C981.114,-245.694 812.563,-234.71 791,-218 783.512,-212.197 778.975,-203.116 776.226,-194.215"/>
<ellipse fill="none" stroke="#aac909" cx="1074.32" cy="-250.607" rx="4" ry="4"/>
<polygon fill="#aac909" stroke="#aac909" points="776.207,-194.138 778.19,-183.353 775.013,-189.282 773.82,-184.427 773.82,-184.427 773.82,-184.427 775.013,-189.282 769.45,-185.501 776.207,-194.138 776.207,-194.138"/>
<text text-anchor="middle" x="863" y="-206.3" font-family="Times,serif" font-size="14.00">subordinate_relationships</text>
</g>
<!-- Employee&#45;&gt;Employee -->
<g id="edge27" class="edge"><title>Employee&#45;&gt;Employee</title>
<path fill="none" stroke="#275f0c" d="M1177.17,-261.461C1184.83,-260.286 1190,-257.799 1190,-254 1190,-250.201 1184.83,-247.714 1177.17,-246.539"/>
<polygon fill="#275f0c" stroke="#275f0c" points="1177.17,-261.461 1166.85,-257.751 1172.18,-261.849 1167.2,-262.237 1167.2,-262.237 1167.2,-262.237 1172.18,-261.849 1167.55,-266.724 1177.17,-261.461 1177.17,-261.461"/>
<polygon fill="#275f0c" stroke="#275f0c" points="1177.17,-246.539 1167.55,-241.276 1172.18,-246.151 1167.2,-245.763 1167.2,-245.763 1167.2,-245.763 1172.18,-246.151 1166.85,-250.249 1177.17,-246.539 1177.17,-246.539"/>
<text text-anchor="middle" x="1225.5" y="-250.3" font-family="Times,serif" font-size="14.00">subordinates</text>
</g>
<!-- EmployeePay -->
<g id="node11" class="node"><title>EmployeePay</title>
<ellipse fill="none" stroke="black" cx="1036" cy="-92" rx="61.1419" ry="18"/>
<text text-anchor="middle" x="1036" y="-88.3" font-family="Times,serif" font-size="14.00">EmployeePay</text>
</g>
<!-- Employee&#45;&gt;EmployeePay -->
<g id="edge28" class="edge"><title>Employee&#45;&gt;EmployeePay</title>
<path fill="none" stroke="#fd8037" d="M1112.51,-228.748C1101.38,-207.344 1084.5,-175.38 1069,-148 1063.57,-138.407 1057.4,-128.008 1051.88,-118.861"/>
<ellipse fill="none" stroke="#fd8037" cx="1114.49" cy="-232.577" rx="4.00002" ry="4.00002"/>
<polygon fill="#fd8037" stroke="#fd8037" points="1051.82,-118.756 1050.48,-107.873 1049.22,-114.482 1046.63,-110.208 1046.63,-110.208 1046.63,-110.208 1049.22,-114.482 1042.78,-112.544 1051.82,-118.756 1051.82,-118.756"/>
</g>
<!-- Pay -->
<g id="node16" class="node"><title>Pay</title>
<ellipse fill="none" stroke="black" cx="1144" cy="-166" rx="27" ry="18"/>
<text text-anchor="middle" x="1144" y="-162.3" font-family="Times,serif" font-size="14.00">Pay</text>
</g>
<!-- Employee&#45;&gt;Pay -->
<g id="edge29" class="edge"><title>Employee&#45;&gt;Pay</title>
<path fill="none" stroke="#e63232" d="M1130.95,-226.09C1133.2,-215.865 1135.78,-204.222 1138.04,-193.989"/>
<polygon fill="#e63232" stroke="#e63232" points="1130.91,-226.245 1124.36,-235.038 1129.83,-231.127 1128.75,-236.009 1128.75,-236.009 1128.75,-236.009 1129.83,-231.127 1133.15,-236.98 1130.91,-226.245 1130.91,-226.245"/>
<polygon fill="#e63232" stroke="#e63232" points="1138.1,-193.72 1144.65,-184.926 1139.18,-188.838 1140.25,-183.956 1140.25,-183.956 1140.25,-183.956 1139.18,-188.838 1135.86,-182.985 1138.1,-193.72 1138.1,-193.72"/>
</g>
<!-- FedexContract -->
<g id="node14" class="node"><title>FedexContract</title>
<ellipse fill="none" stroke="black" cx="1595" cy="-457" rx="64.0172" ry="18"/>
<text text-anchor="middle" x="1595" y="-453.3" font-family="Times,serif" font-size="14.00">FedexContract</text>
</g>
<!-- FedexContract&#45;&gt;Business -->
<g id="edge30" class="edge"><title>FedexContract&#45;&gt;Business</title>
<path fill="none" stroke="#d04996" d="M1595,-430.562C1595,-418.078 1595,-403.025 1595,-390.299"/>
<ellipse fill="none" stroke="#d04996" cx="1595" cy="-434.942" rx="4" ry="4"/>
<polygon fill="#d04996" stroke="#d04996" points="1595,-390.264 1599.5,-380.264 1595,-385.264 1595,-380.264 1595,-380.264 1595,-380.264 1595,-385.264 1590.5,-380.264 1595,-390.264 1595,-390.264"/>
</g>
<!-- FedexContract&#45;&gt;Addendum -->
<g id="edge31" class="edge"><title>FedexContract&#45;&gt;Addendum</title>
<path fill="none" stroke="#1bad09" d="M1576.66,-432.753C1555.32,-405.719 1520.26,-361.285 1498.46,-333.661"/>
<ellipse fill="none" stroke="#1bad09" cx="1579.22" cy="-435.997" rx="4.00002" ry="4.00002"/>
<polygon fill="#1bad09" stroke="#1bad09" points="1498.35,-333.516 1495.68,-322.878 1495.25,-329.591 1492.15,-325.666 1492.15,-325.666 1492.15,-325.666 1495.25,-329.591 1488.62,-328.454 1498.35,-333.516 1498.35,-333.516"/>
</g>
<!-- FedexContract&#45;&gt;Note -->
<g id="edge32" class="edge"><title>FedexContract&#45;&gt;Note</title>
<path fill="none" stroke="#35e6b7" d="M1662.02,-448.819C1750.45,-437.448 1895,-411.449 1895,-363 1895,-363 1895,-363 1895,-128 1895,-34.6677 1555.12,-21.1688 1438.63,-19.2832"/>
<ellipse fill="none" stroke="#35e6b7" cx="1657.88" cy="-449.341" rx="4.00001" ry="4.00001"/>
<polygon fill="#35e6b7" stroke="#35e6b7" points="1438.39,-19.2799 1428.45,-14.6389 1433.39,-19.2092 1428.39,-19.1385 1428.39,-19.1385 1428.39,-19.1385 1433.39,-19.2092 1428.33,-23.638 1438.39,-19.2799 1438.39,-19.2799"/>
</g>
<!-- Pay&#45;&gt;EmployeePay -->
<g id="edge33" class="edge"><title>Pay&#45;&gt;EmployeePay</title>
<path fill="none" stroke="#6bb830" d="M1123.57,-144.72C1117.25,-138.964 1110.08,-132.928 1103,-128 1094.84,-122.327 1085.65,-116.948 1076.75,-112.186"/>
<ellipse fill="none" stroke="#6bb830" cx="1126.66" cy="-147.599" rx="4.00002" ry="4.00002"/>
<polygon fill="#6bb830" stroke="#6bb830" points="1076.51,-112.063 1069.71,-103.465 1072.08,-109.762 1067.64,-107.46 1067.64,-107.46 1067.64,-107.46 1072.08,-109.762 1065.57,-111.455 1076.51,-112.063 1076.51,-112.063"/>
</g>
<!-- Psa&#45;&gt;Note -->
<g id="edge34" class="edge"><title>Psa&#45;&gt;Note</title>
<path fill="none" stroke="#869663" d="M1711.2,-142.24C1690.94,-111.389 1656.03,-59.491 1647,-54 1612.79,-33.1909 1499.15,-24.1829 1438.66,-20.7843"/>
<ellipse fill="none" stroke="#869663" cx="1713.58" cy="-145.873" rx="4.00002" ry="4.00002"/>
<polygon fill="#869663" stroke="#869663" points="1438.35,-20.768 1428.61,-15.7379 1433.36,-20.4997 1428.37,-20.2315 1428.37,-20.2315 1428.37,-20.2315 1433.36,-20.4997 1428.13,-24.725 1438.35,-20.768 1438.35,-20.768"/>
</g>
<!-- Psazip -->
<g id="node19" class="node"><title>Psazip</title>
<ellipse fill="none" stroke="black" cx="1842" cy="-18" rx="34.1708" ry="18"/>
<text text-anchor="middle" x="1842" y="-14.3" font-family="Times,serif" font-size="14.00">Psazip</text>
</g>
<!-- Psa&#45;&gt;Psazip -->
<g id="edge35" class="edge"><title>Psa&#45;&gt;Psazip</title>
<path fill="none" stroke="#e2c9d9" d="M1760.85,-162.739C1793.73,-158.395 1840.14,-145.873 1855,-110 1863.55,-89.3489 1858.86,-64.0551 1852.85,-45.3806"/>
<ellipse fill="none" stroke="#e2c9d9" cx="1756.78" cy="-163.213" rx="4.00001" ry="4.00001"/>
<polygon fill="#e2c9d9" stroke="#e2c9d9" points="1852.78,-45.1878 1853.69,-34.26 1851.11,-40.4731 1849.45,-35.7583 1849.45,-35.7583 1849.45,-35.7583 1851.11,-40.4731 1845.21,-37.2567 1852.78,-45.1878 1852.78,-45.1878"/>
</g>
<!-- Zip -->
<g id="node31" class="node"><title>Zip</title>
<ellipse fill="none" stroke="black" cx="1802" cy="-92" rx="27" ry="18"/>
<text text-anchor="middle" x="1802" y="-88.3" font-family="Times,serif" font-size="14.00">Zip</text>
</g>
<!-- Psa&#45;&gt;Zip -->
<g id="edge36" class="edge"><title>Psa&#45;&gt;Zip</title>
<path fill="none" stroke="#a77333" d="M1748.36,-143.818C1758.19,-134.506 1769.71,-123.591 1779.55,-114.269"/>
<polygon fill="#a77333" stroke="#a77333" points="1748.27,-143.898 1737.92,-147.508 1744.64,-147.336 1741.02,-150.775 1741.02,-150.775 1741.02,-150.775 1744.64,-147.336 1744.11,-154.042 1748.27,-143.898 1748.27,-143.898"/>
<polygon fill="#a77333" stroke="#a77333" points="1779.76,-114.073 1790.11,-110.462 1783.39,-110.634 1787.02,-107.195 1787.02,-107.195 1787.02,-107.195 1783.39,-110.634 1783.92,-103.929 1779.76,-114.073 1779.76,-114.073"/>
</g>
<!-- PsaState -->
<g id="node18" class="node"><title>PsaState</title>
<ellipse fill="none" stroke="black" cx="1743" cy="-18" rx="41.394" ry="18"/>
<text text-anchor="middle" x="1743" y="-14.3" font-family="Times,serif" font-size="14.00">PsaState</text>
</g>
<!-- Psa&#45;&gt;PsaState -->
<g id="edge37" class="edge"><title>Psa&#45;&gt;PsaState</title>
<path fill="none" stroke="#ad0dcb" d="M1759.6,-158.511C1785.97,-151.462 1820.98,-137.327 1838,-110 1846.46,-96.4198 1845.99,-87.8612 1838,-74 1826.71,-54.42 1805.49,-41.1777 1785.97,-32.6032"/>
<ellipse fill="none" stroke="#ad0dcb" cx="1755.6" cy="-159.509" rx="4.00001" ry="4.00001"/>
<polygon fill="#ad0dcb" stroke="#ad0dcb" points="1785.83,-32.5456 1778.27,-24.5962 1781.2,-30.6536 1776.57,-28.7616 1776.57,-28.7616 1776.57,-28.7616 1781.2,-30.6536 1774.87,-32.927 1785.83,-32.5456 1785.83,-32.5456"/>
</g>
<!-- State -->
<g id="node23" class="node"><title>State</title>
<ellipse fill="none" stroke="black" cx="1728" cy="-92" rx="28.3955" ry="18"/>
<text text-anchor="middle" x="1728" y="-88.3" font-family="Times,serif" font-size="14.00">State</text>
</g>
<!-- Psa&#45;&gt;State -->
<g id="edge38" class="edge"><title>Psa&#45;&gt;State</title>
<path fill="none" stroke="#2ace1f" d="M1726.76,-137.719C1726.91,-132.145 1727.08,-126.274 1727.23,-120.686"/>
<polygon fill="#2ace1f" stroke="#2ace1f" points="1726.75,-137.941 1721.98,-147.812 1726.61,-142.939 1726.47,-147.937 1726.47,-147.937 1726.47,-147.937 1726.61,-142.939 1730.97,-148.062 1726.75,-137.941 1726.75,-137.941"/>
<polygon fill="#2ace1f" stroke="#2ace1f" points="1727.24,-120.437 1732.01,-110.566 1727.38,-115.439 1727.52,-110.441 1727.52,-110.441 1727.52,-110.441 1727.38,-115.439 1723.02,-110.316 1727.24,-120.437 1727.24,-120.437"/>
</g>
<!-- Psa&#45;&gt;EmployeePsa -->
<g id="edge39" class="edge"><title>Psa&#45;&gt;EmployeePsa</title>
<path fill="none" stroke="#ae1f31" d="M1694.2,-154.547C1657.78,-142.572 1597.7,-122.818 1555.44,-108.926"/>
<ellipse fill="none" stroke="#ae1f31" cx="1698.35" cy="-155.908" rx="4.00001" ry="4.00001"/>
<polygon fill="#ae1f31" stroke="#ae1f31" points="1555.41,-108.916 1547.32,-101.518 1550.66,-107.354 1545.91,-105.793 1545.91,-105.793 1545.91,-105.793 1550.66,-107.354 1544.51,-110.068 1555.41,-108.916 1555.41,-108.916"/>
</g>
<!-- Region -->
<g id="node20" class="node"><title>Region</title>
<ellipse fill="none" stroke="black" cx="1660" cy="-254" rx="37.0701" ry="18"/>
<text text-anchor="middle" x="1660" y="-250.3" font-family="Times,serif" font-size="14.00">Region</text>
</g>
<!-- Region&#45;&gt;Psa -->
<g id="edge40" class="edge"><title>Region&#45;&gt;Psa</title>
<path fill="none" stroke="#cdb7ec" d="M1677.5,-230.201C1686.95,-217.882 1698.6,-202.701 1708.12,-190.305"/>
<ellipse fill="none" stroke="#cdb7ec" cx="1674.85" cy="-233.651" rx="4.00002" ry="4.00002"/>
<polygon fill="#cdb7ec" stroke="#cdb7ec" points="1708.22,-190.17 1717.88,-184.977 1711.26,-186.204 1714.31,-182.237 1714.31,-182.237 1714.31,-182.237 1711.26,-186.204 1710.74,-179.498 1708.22,-190.17 1708.22,-190.17"/>
</g>
<!-- Region&#45;&gt;Terminal -->
<g id="edge41" class="edge"><title>Region&#45;&gt;Terminal</title>
<path fill="none" stroke="#2e552b" d="M1618.89,-243.912C1546.33,-227.869 1395.91,-194.616 1318.83,-177.573"/>
<ellipse fill="none" stroke="#2e552b" cx="1622.93" cy="-244.804" rx="4.00001" ry="4.00001"/>
<polygon fill="#2e552b" stroke="#2e552b" points="1318.66,-177.537 1309.87,-170.985 1313.78,-176.458 1308.9,-175.379 1308.9,-175.379 1308.9,-175.379 1313.78,-176.458 1307.93,-179.773 1318.66,-177.537 1318.66,-177.537"/>
</g>
<!-- Region&#45;&gt;Note -->
<g id="edge42" class="edge"><title>Region&#45;&gt;Note</title>
<path fill="none" stroke="#ddf9c6" d="M1661.58,-227.65C1662.72,-185.03 1658.27,-99.2537 1609,-54 1584.68,-31.6607 1491.68,-23.4408 1438.29,-20.5233"/>
<ellipse fill="none" stroke="#ddf9c6" cx="1661.42" cy="-231.819" rx="4" ry="4"/>
<polygon fill="#ddf9c6" stroke="#ddf9c6" points="1438.16,-20.5168 1428.4,-15.5137 1433.17,-20.2623 1428.18,-20.0079 1428.18,-20.0079 1428.18,-20.0079 1433.17,-20.2623 1427.95,-24.5021 1438.16,-20.5168 1438.16,-20.5168"/>
</g>
<!-- Role -->
<g id="node21" class="node"><title>Role</title>
<ellipse fill="none" stroke="black" cx="941" cy="-166" rx="27.4223" ry="18"/>
<text text-anchor="middle" x="941" y="-162.3" font-family="Times,serif" font-size="14.00">Role</text>
</g>
<!-- UserRole -->
<g id="node26" class="node"><title>UserRole</title>
<ellipse fill="none" stroke="black" cx="912" cy="-92" rx="44.271" ry="18"/>
<text text-anchor="middle" x="912" y="-88.3" font-family="Times,serif" font-size="14.00">UserRole</text>
</g>
<!-- Role&#45;&gt;UserRole -->
<g id="edge43" class="edge"><title>Role&#45;&gt;UserRole</title>
<path fill="none" stroke="#fd41a4" d="M931.18,-140.619C928.467,-133.884 925.51,-126.541 922.747,-119.683"/>
<ellipse fill="none" stroke="#fd41a4" cx="932.779" cy="-144.59" rx="4.00001" ry="4.00001"/>
<polygon fill="#fd41a4" stroke="#fd41a4" points="922.627,-119.385 923.065,-108.427 920.759,-114.747 918.891,-110.109 918.891,-110.109 918.891,-110.109 920.759,-114.747 914.717,-111.79 922.627,-119.385 922.627,-119.385"/>
</g>
<!-- Role&#45;&gt;Role -->
<g id="edge44" class="edge"><title>Role&#45;&gt;Role</title>
<path fill="none" stroke="#458a54" d="M977.12,-172.104C982.422,-171.143 986,-169.108 986,-166 986,-162.892 982.422,-160.857 977.12,-159.896"/>
<polygon fill="#458a54" stroke="#458a54" points="976.879,-172.118 966.63,-168.217 971.887,-172.414 966.896,-172.709 966.896,-172.709 966.896,-172.709 971.887,-172.414 967.162,-177.201 976.879,-172.118 976.879,-172.118"/>
<polygon fill="#458a54" stroke="#458a54" points="976.879,-159.882 967.162,-154.799 971.887,-159.586 966.896,-159.291 966.896,-159.291 966.896,-159.291 971.887,-159.586 966.63,-163.783 976.879,-159.882 976.879,-159.882"/>
</g>
<!-- ServiceType -->
<g id="node22" class="node"><title>ServiceType</title>
<ellipse fill="none" stroke="black" cx="1738" cy="-362" rx="56.3173" ry="18"/>
<text text-anchor="middle" x="1738" y="-358.3" font-family="Times,serif" font-size="14.00">ServiceType</text>
</g>
<!-- ServiceType&#45;&gt;Vehicle -->
<g id="edge45" class="edge"><title>ServiceType&#45;&gt;Vehicle</title>
<path fill="none" stroke="#c35dc3" d="M1699.18,-343.805C1662.75,-328.166 1606.46,-305.26 1556,-290 1518.06,-278.526 1473.99,-269.169 1441.72,-263.026"/>
<ellipse fill="none" stroke="#c35dc3" cx="1702.97" cy="-345.442" rx="4.00002" ry="4.00002"/>
<polygon fill="#c35dc3" stroke="#c35dc3" points="1441.51,-262.987 1432.51,-256.723 1436.59,-262.067 1431.68,-261.146 1431.68,-261.146 1431.68,-261.146 1436.59,-262.067 1430.85,-265.569 1441.51,-262.987 1441.51,-262.987"/>
</g>
<!-- ServiceType&#45;&gt;Psa -->
<g id="edge46" class="edge"><title>ServiceType&#45;&gt;Psa</title>
<path fill="none" stroke="#0b4534" d="M1741.02,-335.38C1744.1,-303.75 1747.35,-248.441 1739,-202 1738.47,-199.069 1737.72,-196.063 1736.83,-193.104"/>
<ellipse fill="none" stroke="#0b4534" cx="1740.58" cy="-339.668" rx="4" ry="4"/>
<polygon fill="#0b4534" stroke="#0b4534" points="1736.74,-192.842 1737.71,-181.919 1735.1,-188.118 1733.46,-183.395 1733.46,-183.395 1733.46,-183.395 1735.1,-188.118 1729.21,-184.871 1736.74,-192.842 1736.74,-192.842"/>
</g>
<!-- State&#45;&gt;PsaState -->
<g id="edge47" class="edge"><title>State&#45;&gt;PsaState</title>
<path fill="none" stroke="#eabf10" d="M1733.22,-65.965C1734.57,-59.4522 1736.04,-52.41 1737.41,-45.8095"/>
<ellipse fill="none" stroke="#eabf10" cx="1732.37" cy="-70.0211" rx="4.00001" ry="4.00001"/>
<polygon fill="#eabf10" stroke="#eabf10" points="1737.43,-45.7303 1743.88,-36.8583 1738.45,-40.8354 1739.47,-35.9405 1739.47,-35.9405 1739.47,-35.9405 1738.45,-40.8354 1735.07,-35.0227 1737.43,-45.7303 1737.43,-45.7303"/>
</g>
<!-- State&#45;&gt;Note -->
<g id="edge48" class="edge"><title>State&#45;&gt;Note</title>
<path fill="none" stroke="#465f8d" d="M1708.84,-70.279C1701.94,-64.0431 1693.69,-57.8425 1685,-54 1641.72,-34.8621 1505.9,-24.8609 1438.59,-20.9699"/>
<ellipse fill="none" stroke="#465f8d" cx="1711.88" cy="-73.1863" rx="4.00002" ry="4.00002"/>
<polygon fill="#465f8d" stroke="#465f8d" points="1438.39,-20.9584 1428.65,-15.9045 1433.39,-20.6779 1428.4,-20.3974 1428.4,-20.3974 1428.4,-20.3974 1433.39,-20.6779 1428.15,-24.8903 1438.39,-20.9584 1438.39,-20.9584"/>
</g>
<!-- Terminal&#45;&gt;Note -->
<g id="edge49" class="edge"><title>Terminal&#45;&gt;Note</title>
<path fill="none" stroke="#793419" d="M1278.87,-140.098C1287.69,-115.554 1304.13,-78.2967 1329,-54 1339.26,-43.9757 1352.96,-36.3069 1365.59,-30.7394"/>
<ellipse fill="none" stroke="#793419" cx="1277.47" cy="-144.118" rx="4.00001" ry="4.00001"/>
<polygon fill="#793419" stroke="#793419" points="1365.71,-30.6891 1376.67,-31.0494 1370.33,-28.7882 1374.96,-26.8873 1374.96,-26.8873 1374.96,-26.8873 1370.33,-28.7882 1373.25,-22.7252 1365.71,-30.6891 1365.71,-30.6891"/>
</g>
<!-- Terminal&#45;&gt;EmployeeTerminal -->
<g id="edge50" class="edge"><title>Terminal&#45;&gt;EmployeeTerminal</title>
<path fill="none" stroke="#e9f734" d="M1248.37,-143.273C1239.68,-134.937 1229.73,-125.382 1220.85,-116.856"/>
<ellipse fill="none" stroke="#e9f734" cx="1251.47" cy="-146.251" rx="4.00002" ry="4.00002"/>
<polygon fill="#e9f734" stroke="#e9f734" points="1220.59,-116.61 1216.5,-106.439 1216.99,-113.148 1213.38,-109.685 1213.38,-109.685 1213.38,-109.685 1216.99,-113.148 1210.26,-112.931 1220.59,-116.61 1220.59,-116.61"/>
</g>
<!-- User&#45;&gt;UserRole -->
<g id="edge51" class="edge"><title>User&#45;&gt;UserRole</title>
<path fill="none" stroke="#e6fd7f" d="M1006.21,-149.056C988.036,-138.244 963.908,-123.888 944.62,-112.41"/>
<ellipse fill="none" stroke="#e6fd7f" cx="1009.85" cy="-151.226" rx="4.00002" ry="4.00002"/>
<polygon fill="#e6fd7f" stroke="#e6fd7f" points="944.457,-112.313 938.164,-103.332 940.16,-109.756 935.863,-107.199 935.863,-107.199 935.863,-107.199 940.16,-109.756 933.562,-111.067 944.457,-112.313 944.457,-112.313"/>
</g>
<!-- Vehicle&#45;&gt;Note -->
<g id="edge52" class="edge"><title>Vehicle&#45;&gt;Note</title>
<path fill="none" stroke="#d0f742" d="M1396.44,-227.497C1397.2,-183.079 1398.75,-91.9132 1399.53,-46.2811"/>
<ellipse fill="none" stroke="#d0f742" cx="1396.36" cy="-231.794" rx="4" ry="4"/>
<polygon fill="#d0f742" stroke="#d0f742" points="1399.53,-46.2303 1404.2,-36.3088 1399.62,-41.2311 1399.71,-36.2318 1399.71,-36.2318 1399.71,-36.2318 1399.62,-41.2311 1395.21,-36.1548 1399.53,-46.2303 1399.53,-46.2303"/>
</g>
<!-- Vehicle&#45;&gt;DailyDataVehicle -->
<g id="edge53" class="edge"><title>Vehicle&#45;&gt;DailyDataVehicle</title>
<path fill="none" stroke="#5a24e5" d="M1358.44,-240.014C1352.97,-238.465 1347.38,-237.06 1342,-236 1165.64,-201.245 1118.28,-214.957 939,-202 806.217,-192.403 772.046,-200.947 640,-184 632.839,-183.081 625.379,-181.919 617.976,-180.635"/>
<ellipse fill="none" stroke="#5a24e5" cx="1362.48" cy="-241.219" rx="4.00001" ry="4.00001"/>
<polygon fill="#5a24e5" stroke="#5a24e5" points="617.792,-180.602 608.753,-174.393 612.872,-179.711 607.951,-178.821 607.951,-178.821 607.951,-178.821 612.872,-179.711 607.15,-183.249 617.792,-180.602 617.792,-180.602"/>
</g>
<!-- VehicleFuel -->
<g id="node28" class="node"><title>VehicleFuel</title>
<ellipse fill="none" stroke="black" cx="1138" cy="-362" rx="55.3682" ry="18"/>
<text text-anchor="middle" x="1138" y="-358.3" font-family="Times,serif" font-size="14.00">VehicleFuel</text>
</g>
<!-- VehicleFuel&#45;&gt;Vehicle -->
<g id="edge54" class="edge"><title>VehicleFuel&#45;&gt;Vehicle</title>
<path fill="none" stroke="#316602" d="M1178.44,-344.386C1227.81,-324.101 1310.65,-290.067 1358.6,-270.366"/>
<ellipse fill="none" stroke="#316602" cx="1174.64" cy="-345.947" rx="4.00002" ry="4.00002"/>
<polygon fill="#316602" stroke="#316602" points="1358.74,-270.307 1369.7,-270.669 1363.37,-268.407 1367.99,-266.507 1367.99,-266.507 1367.99,-266.507 1363.37,-268.407 1366.28,-262.345 1358.74,-270.307 1358.74,-270.307"/>
</g>
<!-- VehicleOdometer -->
<g id="node29" class="node"><title>VehicleOdometer</title>
<ellipse fill="none" stroke="black" cx="1287" cy="-362" rx="75.0904" ry="18"/>
<text text-anchor="middle" x="1287" y="-358.3" font-family="Times,serif" font-size="14.00">VehicleOdometer</text>
</g>
<!-- VehicleOdometer&#45;&gt;Vehicle -->
<g id="edge55" class="edge"><title>VehicleOdometer&#45;&gt;Vehicle</title>
<path fill="none" stroke="#86c6e5" d="M1309.97,-338.663C1328.4,-320.735 1354.18,-295.673 1372.7,-277.66"/>
<ellipse fill="none" stroke="#86c6e5" cx="1306.9" cy="-341.649" rx="4.00002" ry="4.00002"/>
<polygon fill="#86c6e5" stroke="#86c6e5" points="1372.98,-277.385 1383.29,-273.639 1376.57,-273.899 1380.15,-270.413 1380.15,-270.413 1380.15,-270.413 1376.57,-273.899 1377.01,-267.187 1372.98,-277.385 1372.98,-277.385"/>
</g>
<!-- VehicleType -->
<g id="node30" class="node"><title>VehicleType</title>
<ellipse fill="none" stroke="black" cx="1438" cy="-362" rx="57.2688" ry="18"/>
<text text-anchor="middle" x="1438" y="-358.3" font-family="Times,serif" font-size="14.00">VehicleType</text>
</g>
<!-- VehicleType&#45;&gt;Vehicle -->
<g id="edge56" class="edge"><title>VehicleType&#45;&gt;Vehicle</title>
<path fill="none" stroke="#b4e331" d="M1428.2,-336.271C1421.72,-319.914 1413.23,-298.476 1406.59,-281.725"/>
<ellipse fill="none" stroke="#b4e331" cx="1429.78" cy="-340.251" rx="4.00001" ry="4.00001"/>
<polygon fill="#b4e331" stroke="#b4e331" points="1406.41,-281.285 1406.91,-270.331 1404.57,-276.637 1402.73,-271.988 1402.73,-271.988 1402.73,-271.988 1404.57,-276.637 1398.55,-273.646 1406.41,-281.285 1406.41,-281.285"/>
</g>
<!-- Zip&#45;&gt;Psazip -->
<g id="edge57" class="edge"><title>Zip&#45;&gt;Psazip</title>
<path fill="none" stroke="#0e4724" d="M1815.08,-67.4621C1819.12,-60.1862 1823.59,-52.1355 1827.71,-44.72"/>
<ellipse fill="none" stroke="#0e4724" cx="1813.02" cy="-71.1655" rx="4.00002" ry="4.00002"/>
<polygon fill="#0e4724" stroke="#0e4724" points="1827.83,-44.5145 1836.62,-37.9583 1830.25,-40.1437 1832.68,-35.7729 1832.68,-35.7729 1832.68,-35.7729 1830.25,-40.1437 1828.75,-33.5875 1827.83,-44.5145 1827.83,-44.5145"/>
</g>
<!-- Zip&#45;&gt;Note -->
<g id="edge58" class="edge"><title>Zip&#45;&gt;Note</title>
<path fill="none" stroke="#3ada12" d="M1773.36,-77.4059C1770.55,-76.2063 1767.73,-75.0505 1765,-74 1737.18,-63.3128 1730.15,-60.1925 1701,-54 1607.74,-34.189 1495.68,-24.8872 1438.17,-21.1433"/>
<ellipse fill="none" stroke="#3ada12" cx="1777.02" cy="-79.0239" rx="4.00002" ry="4.00002"/>
<polygon fill="#3ada12" stroke="#3ada12" points="1438.07,-21.1367 1428.37,-16.0166 1433.08,-20.8222 1428.09,-20.5077 1428.09,-20.5077 1428.09,-20.5077 1433.08,-20.8222 1427.8,-24.9988 1438.07,-21.1367 1438.07,-21.1367"/>
</g>
</g>
</svg>
