<?xml version="1.0" encoding="UTF-8" standalone="no"?>
<!DOCTYPE svg PUBLIC "-//W3C//DTD SVG 1.1//EN"
 "http://www.w3.org/Graphics/SVG/1.1/DTD/svg11.dtd">
<!-- Generated by graphviz version 2.29.20121209.0545 (20121209.0545)
 -->
<!-- Title: models_diagram Pages: 1 -->
<svg width="1446pt" height="302pt"
 viewBox="0.00 0.00 1446.00 302.00" xmlns="http://www.w3.org/2000/svg" xmlns:xlink="http://www.w3.org/1999/xlink">
<g id="graph0" class="graph" transform="scale(1 1) rotate(0) translate(4 298)">
<title>models_diagram</title>
<polygon fill="white" stroke="white" points="-4,5 -4,-298 1443,-298 1443,5 -4,5"/>
<!-- _diagram_info -->
<g id="node1" class="node"><title>_diagram_info</title>
<text text-anchor="start" x="8" y="-279.6" font-family="Times,serif" font-size="13.00">Models diagram</text>
<text text-anchor="start" x="8" y="-265.6" font-family="Times,serif" font-size="13.00">Date: Dec 12 2012 &#45; 17:05</text>
<text text-anchor="start" x="8" y="-251.6" font-family="Times,serif" font-size="13.00">Migration version: 20121212215641</text>
<text text-anchor="start" x="8" y="-237.6" font-family="Times,serif" font-size="13.00">Generated by RailRoady 1.1.0</text>
<text text-anchor="start" x="8" y="-223.6" font-family="Times,serif" font-size="13.00">http://railroady.prestonlee.com</text>
</g>
<!-- Addendum -->
<g id="node2" class="node"><title>Addendum</title>
<ellipse fill="none" stroke="black" cx="692" cy="-162" rx="51.0191" ry="18"/>
<text text-anchor="middle" x="692" y="-158.3" font-family="Times,serif" font-size="14.00">Addendum</text>
</g>
<!-- Note -->
<g id="node9" class="node"><title>Note</title>
<ellipse fill="none" stroke="black" cx="774" cy="-90" rx="28.3955" ry="18"/>
<text text-anchor="middle" x="774" y="-86.3" font-family="Times,serif" font-size="14.00">Note</text>
</g>
<!-- Addendum&#45;&gt;Note -->
<g id="edge1" class="edge"><title>Addendum&#45;&gt;Note</title>
<path fill="none" stroke="#e938db" d="M716.863,-139.776C727.312,-130.856 739.425,-120.516 749.801,-111.657"/>
<ellipse fill="none" stroke="#e938db" cx="713.649" cy="-142.519" rx="4.00002" ry="4.00002"/>
<polygon fill="#e938db" stroke="#e938db" points="750.08,-111.419 760.608,-108.349 753.883,-108.173 757.686,-104.927 757.686,-104.927 757.686,-104.927 753.883,-108.173 754.764,-101.504 750.08,-111.419 750.08,-111.419"/>
</g>
<!-- DailyDataEmployee -->
<g id="node3" class="node"><title>DailyDataEmployee</title>
<ellipse fill="none" stroke="black" cx="912" cy="-90" rx="85.2138" ry="18"/>
<text text-anchor="middle" x="912" y="-86.3" font-family="Times,serif" font-size="14.00">DailyDataEmployee</text>
</g>
<!-- DailyDataVehicle -->
<g id="node4" class="node"><title>DailyDataVehicle</title>
<ellipse fill="none" stroke="black" cx="579" cy="-90" rx="76.5394" ry="18"/>
<text text-anchor="middle" x="579" y="-86.3" font-family="Times,serif" font-size="14.00">DailyDataVehicle</text>
</g>
<!-- DailyDatum -->
<g id="node5" class="node"><title>DailyDatum</title>
<ellipse fill="none" stroke="black" cx="844" cy="-255" rx="55.3436" ry="18"/>
<text text-anchor="middle" x="844" y="-251.3" font-family="Times,serif" font-size="14.00">DailyDatum</text>
</g>
<!-- DailyDatum&#45;&gt;Note -->
<g id="edge2" class="edge"><title>DailyDatum&#45;&gt;Note</title>
<path fill="none" stroke="#a6c22a" d="M823.016,-231.053C811.515,-217.231 798.008,-198.724 790,-180 781.576,-160.304 777.587,-136.319 775.698,-118.213"/>
<ellipse fill="none" stroke="#a6c22a" cx="825.872" cy="-234.4" rx="4.00002" ry="4.00002"/>
<polygon fill="#a6c22a" stroke="#a6c22a" points="775.68,-118.01 779.274,-107.65 775.236,-113.03 774.791,-108.05 774.791,-108.05 774.791,-108.05 775.236,-113.03 770.309,-108.449 775.68,-118.01 775.68,-118.01"/>
</g>
<!-- DailyDatum&#45;&gt;DailyDataVehicle -->
<g id="edge3" class="edge"><title>DailyDatum&#45;&gt;DailyDataVehicle</title>
<path fill="none" stroke="#6cab30" d="M814.263,-234.183C803.499,-227.674 791.027,-220.868 779,-216 716.65,-190.763 686.075,-220.004 632,-180 610.975,-164.446 596.733,-137.842 588.354,-117.762"/>
<ellipse fill="none" stroke="#6cab30" cx="817.667" cy="-236.289" rx="4.00002" ry="4.00002"/>
<polygon fill="#6cab30" stroke="#6cab30" points="588.264,-117.534 588.792,-106.581 586.434,-112.881 584.604,-108.228 584.604,-108.228 584.604,-108.228 586.434,-112.881 580.416,-109.875 588.264,-117.534 588.264,-117.534"/>
</g>
<!-- Vehicle -->
<g id="node20" class="node"><title>Vehicle</title>
<ellipse fill="none" stroke="black" cx="546" cy="-162" rx="38.4949" ry="18"/>
<text text-anchor="middle" x="546" y="-158.3" font-family="Times,serif" font-size="14.00">Vehicle</text>
</g>
<!-- DailyDatum&#45;&gt;Vehicle -->
<g id="edge4" class="edge"><title>DailyDatum&#45;&gt;Vehicle</title>
<path fill="none" stroke="#97afc1" d="M812.772,-232.923C802.391,-226.697 790.53,-220.382 779,-216 702.738,-187.015 677.969,-200.492 599,-180 594.674,-178.877 590.181,-177.606 585.723,-176.275"/>
<polygon fill="#97afc1" stroke="#97afc1" points="812.973,-233.048 819.096,-242.145 817.221,-235.685 821.469,-238.322 821.469,-238.322 821.469,-238.322 817.221,-235.685 823.843,-234.499 812.973,-233.048 812.973,-233.048"/>
<polygon fill="#97afc1" stroke="#97afc1" points="585.652,-176.253 577.425,-169.004 580.875,-174.779 576.097,-173.304 576.097,-173.304 576.097,-173.304 580.875,-174.779 574.77,-177.604 585.652,-176.253 585.652,-176.253"/>
</g>
<!-- DailyDatum&#45;&gt;DailyDataEmployee -->
<g id="edge5" class="edge"><title>DailyDatum&#45;&gt;DailyDataEmployee</title>
<path fill="none" stroke="#f21e34" d="M863.962,-231.206C875.078,-217.311 888.207,-198.681 896,-180 904.247,-160.229 908.249,-136.249 910.187,-118.164"/>
<ellipse fill="none" stroke="#f21e34" cx="861.235" cy="-234.532" rx="4.00002" ry="4.00002"/>
<polygon fill="#f21e34" stroke="#f21e34" points="910.205,-117.972 915.607,-108.43 910.666,-112.994 911.127,-108.015 911.127,-108.015 911.127,-108.015 910.666,-112.994 906.646,-107.6 910.205,-117.972 910.205,-117.972"/>
</g>
<!-- Employee -->
<g id="node6" class="node"><title>Employee</title>
<ellipse fill="none" stroke="black" cx="990" cy="-162" rx="47.169" ry="18"/>
<text text-anchor="middle" x="990" y="-158.3" font-family="Times,serif" font-size="14.00">Employee</text>
</g>
<!-- DailyDatum&#45;&gt;Employee -->
<g id="edge6" class="edge"><title>DailyDatum&#45;&gt;Employee</title>
<path fill="none" stroke="#1a455d" d="M877.225,-233.291C901.358,-218.25 933.839,-198.004 957.745,-183.104"/>
<polygon fill="#1a455d" stroke="#1a455d" points="876.924,-233.479 866.057,-234.95 872.68,-236.124 868.437,-238.769 868.437,-238.769 868.437,-238.769 872.68,-236.124 870.817,-242.588 876.924,-233.479 876.924,-233.479"/>
<polygon fill="#1a455d" stroke="#1a455d" points="957.965,-182.967 968.832,-181.497 962.208,-180.322 966.451,-177.678 966.451,-177.678 966.451,-177.678 962.208,-180.322 964.071,-173.859 957.965,-182.967 957.965,-182.967"/>
</g>
<!-- Employee&#45;&gt;Note -->
<g id="edge7" class="edge"><title>Employee&#45;&gt;Note</title>
<path fill="none" stroke="#c307c1" d="M945.426,-148.194C910.539,-137.948 860.909,-122.88 818,-108 814.465,-106.774 810.79,-105.444 807.139,-104.087"/>
<ellipse fill="none" stroke="#c307c1" cx="949.682" cy="-149.44" rx="4.00001" ry="4.00001"/>
<polygon fill="#c307c1" stroke="#c307c1" points="806.986,-104.029 799.233,-96.2736 802.311,-102.255 797.637,-100.481 797.637,-100.481 797.637,-100.481 802.311,-102.255 796.04,-104.688 806.986,-104.029 806.986,-104.029"/>
</g>
<!-- User -->
<g id="node18" class="node"><title>User</title>
<ellipse fill="none" stroke="black" cx="1043" cy="-90" rx="27.4223" ry="18"/>
<text text-anchor="middle" x="1043" y="-86.3" font-family="Times,serif" font-size="14.00">User</text>
</g>
<!-- Employee&#45;&gt;User -->
<g id="edge8" class="edge"><title>Employee&#45;&gt;User</title>
<path fill="none" stroke="#81b0b8" d="M1007.48,-137.908C1013.58,-129.856 1020.4,-120.85 1026.42,-112.898"/>
<ellipse fill="none" stroke="#81b0b8" cx="1004.97" cy="-141.222" rx="4.00002" ry="4.00002"/>
<ellipse fill="#81b0b8" stroke="#81b0b8" cx="1028.84" cy="-109.7" rx="4.00002" ry="4.00002"/>
</g>
<!-- Employee&#45;&gt;DailyDataEmployee -->
<g id="edge9" class="edge"><title>Employee&#45;&gt;DailyDataEmployee</title>
<path fill="none" stroke="#f8723b" d="M966.212,-139.652C957.4,-131.743 947.358,-122.731 938.331,-114.631"/>
<ellipse fill="none" stroke="#f8723b" cx="969.324" cy="-142.444" rx="4.00002" ry="4.00002"/>
<polygon fill="#f8723b" stroke="#f8723b" points="938.159,-114.476 933.723,-104.448 934.438,-111.137 930.717,-107.797 930.717,-107.797 930.717,-107.797 934.438,-111.137 927.711,-111.146 938.159,-114.476 938.159,-114.476"/>
</g>
<!-- EmployeePsa -->
<g id="node7" class="node"><title>EmployeePsa</title>
<ellipse fill="none" stroke="black" cx="1213" cy="-255" rx="60.1672" ry="18"/>
<text text-anchor="middle" x="1213" y="-251.3" font-family="Times,serif" font-size="14.00">EmployeePsa</text>
</g>
<!-- FedexContract -->
<g id="node8" class="node"><title>FedexContract</title>
<ellipse fill="none" stroke="black" cx="1070" cy="-255" rx="64.0172" ry="18"/>
<text text-anchor="middle" x="1070" y="-251.3" font-family="Times,serif" font-size="14.00">FedexContract</text>
</g>
<!-- FedexContract&#45;&gt;Employee -->
<g id="edge10" class="edge"><title>FedexContract&#45;&gt;Employee</title>
<path fill="none" stroke="#2c0eb1" d="M1049.93,-231.174C1038.06,-217.668 1023.04,-200.581 1011,-186.893"/>
<ellipse fill="none" stroke="#2c0eb1" cx="1052.69" cy="-234.305" rx="4.00002" ry="4.00002"/>
<polygon fill="#2c0eb1" stroke="#2c0eb1" points="1010.91,-186.789 1007.69,-176.308 1007.61,-183.034 1004.31,-179.279 1004.31,-179.279 1004.31,-179.279 1007.61,-183.034 1000.93,-182.25 1010.91,-186.789 1010.91,-186.789"/>
</g>
<!-- Psa -->
<g id="node10" class="node"><title>Psa</title>
<ellipse fill="none" stroke="black" cx="1154" cy="-162" rx="27" ry="18"/>
<text text-anchor="middle" x="1154" y="-158.3" font-family="Times,serif" font-size="14.00">Psa</text>
</g>
<!-- FedexContract&#45;&gt;Psa -->
<g id="edge11" class="edge"><title>FedexContract&#45;&gt;Psa</title>
<path fill="none" stroke="#6058eb" d="M1090.85,-231.416C1103.77,-217.412 1120.32,-199.489 1133.23,-185.501"/>
<ellipse fill="none" stroke="#6058eb" cx="1088.12" cy="-234.37" rx="4.00002" ry="4.00002"/>
<polygon fill="#6058eb" stroke="#6058eb" points="1133.58,-185.127 1143.66,-180.831 1136.97,-181.453 1140.36,-177.779 1140.36,-177.779 1140.36,-177.779 1136.97,-181.453 1137.05,-174.727 1133.58,-185.127 1133.58,-185.127"/>
</g>
<!-- Psazip -->
<g id="node12" class="node"><title>Psazip</title>
<ellipse fill="none" stroke="black" cx="1147" cy="-18" rx="34.1708" ry="18"/>
<text text-anchor="middle" x="1147" y="-14.3" font-family="Times,serif" font-size="14.00">Psazip</text>
</g>
<!-- Psa&#45;&gt;Psazip -->
<g id="edge12" class="edge"><title>Psa&#45;&gt;Psazip</title>
<path fill="none" stroke="#24fa12" d="M1135.12,-139.543C1128.33,-130.456 1121.49,-119.353 1118,-108 1113.3,-92.7067 1114.04,-87.5013 1118,-72 1120.48,-62.2986 1125.14,-52.4622 1130.02,-43.9406"/>
<ellipse fill="none" stroke="#24fa12" cx="1137.78" cy="-142.923" rx="4.00002" ry="4.00002"/>
<polygon fill="#24fa12" stroke="#24fa12" points="1130.09,-43.8184 1139.14,-37.6196 1132.69,-39.5484 1135.29,-35.2784 1135.29,-35.2784 1135.29,-35.2784 1132.69,-39.5484 1131.45,-32.9372 1130.09,-43.8184 1130.09,-43.8184"/>
</g>
<!-- Zip -->
<g id="node24" class="node"><title>Zip</title>
<ellipse fill="none" stroke="black" cx="1154" cy="-90" rx="27" ry="18"/>
<text text-anchor="middle" x="1154" y="-86.3" font-family="Times,serif" font-size="14.00">Zip</text>
</g>
<!-- Psa&#45;&gt;Zip -->
<g id="edge13" class="edge"><title>Psa&#45;&gt;Zip</title>
<path fill="none" stroke="#b8ca80" d="M1154,-133.665C1154,-128.687 1154,-123.491 1154,-118.507"/>
<polygon fill="#b8ca80" stroke="#b8ca80" points="1154,-133.697 1149.5,-143.697 1154,-138.697 1154,-143.697 1154,-143.697 1154,-143.697 1154,-138.697 1158.5,-143.697 1154,-133.697 1154,-133.697"/>
<polygon fill="#b8ca80" stroke="#b8ca80" points="1154,-118.104 1158.5,-108.104 1154,-113.104 1154,-108.104 1154,-108.104 1154,-108.104 1154,-113.104 1149.5,-108.104 1154,-118.104 1154,-118.104"/>
</g>
<!-- PsaState -->
<g id="node11" class="node"><title>PsaState</title>
<ellipse fill="none" stroke="black" cx="1257" cy="-18" rx="41.394" ry="18"/>
<text text-anchor="middle" x="1257" y="-14.3" font-family="Times,serif" font-size="14.00">PsaState</text>
</g>
<!-- Psa&#45;&gt;PsaState -->
<g id="edge14" class="edge"><title>Psa&#45;&gt;PsaState</title>
<path fill="none" stroke="#403cde" d="M1170.17,-138.703C1188.96,-112.797 1219.87,-70.1942 1239.29,-43.4163"/>
<ellipse fill="none" stroke="#403cde" cx="1167.57" cy="-142.295" rx="4.00002" ry="4.00002"/>
<polygon fill="#403cde" stroke="#403cde" points="1239.29,-43.4143 1248.81,-37.9617 1242.23,-39.3669 1245.16,-35.3195 1245.16,-35.3195 1245.16,-35.3195 1242.23,-39.3669 1241.52,-32.6773 1239.29,-43.4143 1239.29,-43.4143"/>
</g>
<!-- State -->
<g id="node16" class="node"><title>State</title>
<ellipse fill="none" stroke="black" cx="1266" cy="-90" rx="28.3955" ry="18"/>
<text text-anchor="middle" x="1266" y="-86.3" font-family="Times,serif" font-size="14.00">State</text>
</g>
<!-- Psa&#45;&gt;State -->
<g id="edge15" class="edge"><title>Psa&#45;&gt;State</title>
<path fill="none" stroke="#73c3e6" d="M1181.73,-143.668C1198.88,-132.949 1220.83,-119.233 1238.02,-108.486"/>
<polygon fill="#73c3e6" stroke="#73c3e6" points="1181.48,-143.825 1170.61,-145.309 1177.24,-146.475 1173,-149.125 1173,-149.125 1173,-149.125 1177.24,-146.475 1175.38,-152.941 1181.48,-143.825 1181.48,-143.825"/>
<polygon fill="#73c3e6" stroke="#73c3e6" points="1238.05,-108.468 1248.92,-106.984 1242.29,-105.818 1246.53,-103.168 1246.53,-103.168 1246.53,-103.168 1242.29,-105.818 1244.15,-99.3521 1238.05,-108.468 1238.05,-108.468"/>
</g>
<!-- Region -->
<g id="node13" class="node"><title>Region</title>
<ellipse fill="none" stroke="black" cx="1328" cy="-255" rx="37.0701" ry="18"/>
<text text-anchor="middle" x="1328" y="-251.3" font-family="Times,serif" font-size="14.00">Region</text>
</g>
<!-- Role -->
<g id="node14" class="node"><title>Role</title>
<ellipse fill="none" stroke="black" cx="1411" cy="-255" rx="27.4223" ry="18"/>
<text text-anchor="middle" x="1411" y="-251.3" font-family="Times,serif" font-size="14.00">Role</text>
</g>
<!-- ServiceType -->
<g id="node15" class="node"><title>ServiceType</title>
<ellipse fill="none" stroke="black" cx="416" cy="-255" rx="56.3173" ry="18"/>
<text text-anchor="middle" x="416" y="-251.3" font-family="Times,serif" font-size="14.00">ServiceType</text>
</g>
<!-- ServiceType&#45;&gt;Vehicle -->
<g id="edge16" class="edge"><title>ServiceType&#45;&gt;Vehicle</title>
<path fill="none" stroke="#5cee08" d="M444.936,-233.745C466.339,-218.763 495.375,-198.438 516.832,-183.417"/>
<ellipse fill="none" stroke="#5cee08" cx="441.625" cy="-236.063" rx="4.00002" ry="4.00002"/>
<polygon fill="#5cee08" stroke="#5cee08" points="517.038,-183.273 527.811,-181.225 521.134,-180.406 525.23,-177.539 525.23,-177.539 525.23,-177.539 521.134,-180.406 522.65,-173.852 517.038,-183.273 517.038,-183.273"/>
</g>
<!-- State&#45;&gt;PsaState -->
<g id="edge17" class="edge"><title>State&#45;&gt;PsaState</title>
<path fill="none" stroke="#83fdd8" d="M1262.74,-63.6398C1262,-57.92 1261.22,-51.8276 1260.48,-46.0416"/>
<ellipse fill="none" stroke="#83fdd8" cx="1263.27" cy="-67.7293" rx="4.00001" ry="4.00001"/>
<polygon fill="#83fdd8" stroke="#83fdd8" points="1260.47,-46.0227 1263.66,-35.5304 1259.84,-41.0635 1259.2,-36.1043 1259.2,-36.1043 1259.2,-36.1043 1259.84,-41.0635 1254.74,-36.6782 1260.47,-46.0227 1260.47,-46.0227"/>
</g>
<!-- Terminal -->
<g id="node17" class="node"><title>Terminal</title>
<ellipse fill="none" stroke="black" cx="843" cy="-162" rx="44.2946" ry="18"/>
<text text-anchor="middle" x="843" y="-158.3" font-family="Times,serif" font-size="14.00">Terminal</text>
</g>
<!-- Terminal&#45;&gt;Note -->
<g id="edge18" class="edge"><title>Terminal&#45;&gt;Note</title>
<path fill="none" stroke="#6dac87" d="M821.632,-139.322C813.436,-131.008 804.078,-121.514 795.838,-113.155"/>
<ellipse fill="none" stroke="#6dac87" cx="824.535" cy="-142.267" rx="4.00002" ry="4.00002"/>
<polygon fill="#6dac87" stroke="#6dac87" points="795.672,-112.986 791.856,-102.705 792.162,-109.425 788.652,-105.864 788.652,-105.864 788.652,-105.864 792.162,-109.425 785.447,-109.023 795.672,-112.986 795.672,-112.986"/>
</g>
<!-- UserRole -->
<g id="node19" class="node"><title>UserRole</title>
<ellipse fill="none" stroke="black" cx="1043" cy="-18" rx="44.271" ry="18"/>
<text text-anchor="middle" x="1043" y="-14.3" font-family="Times,serif" font-size="14.00">UserRole</text>
</g>
<!-- User&#45;&gt;UserRole -->
<g id="edge19" class="edge"><title>User&#45;&gt;UserRole</title>
<path fill="none" stroke="#8a67f4" d="M1043,-63.6398C1043,-58.0629 1043,-52.1319 1043,-46.4761"/>
<ellipse fill="none" stroke="#8a67f4" cx="1043" cy="-67.6966" rx="4" ry="4"/>
<polygon fill="#8a67f4" stroke="#8a67f4" points="1043,-46.1043 1047.5,-36.1043 1043,-41.1043 1043,-36.1043 1043,-36.1043 1043,-36.1043 1043,-41.1043 1038.5,-36.1044 1043,-46.1043 1043,-46.1043"/>
</g>
<!-- Vehicle&#45;&gt;DailyDataVehicle -->
<g id="edge20" class="edge"><title>Vehicle&#45;&gt;DailyDataVehicle</title>
<path fill="none" stroke="#98f86e" d="M557.528,-136.548C560.412,-130.428 563.521,-123.835 566.452,-117.616"/>
<ellipse fill="none" stroke="#98f86e" cx="555.694" cy="-140.437" rx="4.00002" ry="4.00002"/>
<polygon fill="#98f86e" stroke="#98f86e" points="566.592,-117.321 574.926,-110.194 568.724,-112.798 570.856,-108.275 570.856,-108.275 570.856,-108.275 568.724,-112.798 566.786,-106.356 566.592,-117.321 566.592,-117.321"/>
</g>
<!-- VehicleFuel -->
<g id="node21" class="node"><title>VehicleFuel</title>
<ellipse fill="none" stroke="black" cx="546" cy="-255" rx="55.3682" ry="18"/>
<text text-anchor="middle" x="546" y="-251.3" font-family="Times,serif" font-size="14.00">VehicleFuel</text>
</g>
<!-- VehicleFuel&#45;&gt;Vehicle -->
<g id="edge21" class="edge"><title>VehicleFuel&#45;&gt;Vehicle</title>
<path fill="none" stroke="#0bcdc8" d="M546,-228.729C546,-216.725 546,-202.362 546,-190.129"/>
<ellipse fill="none" stroke="#0bcdc8" cx="546" cy="-232.884" rx="4" ry="4"/>
<polygon fill="#0bcdc8" stroke="#0bcdc8" points="546,-190.04 550.5,-180.04 546,-185.04 546,-180.04 546,-180.04 546,-180.04 546,-185.04 541.5,-180.04 546,-190.04 546,-190.04"/>
</g>
<!-- VehicleOdometer -->
<g id="node22" class="node"><title>VehicleOdometer</title>
<ellipse fill="none" stroke="black" cx="695" cy="-255" rx="75.0904" ry="18"/>
<text text-anchor="middle" x="695" y="-251.3" font-family="Times,serif" font-size="14.00">VehicleOdometer</text>
</g>
<!-- VehicleOdometer&#45;&gt;Vehicle -->
<g id="edge22" class="edge"><title>VehicleOdometer&#45;&gt;Vehicle</title>
<path fill="none" stroke="#980866" d="M661.764,-233.701C636.512,-218.279 602.02,-197.214 577.266,-182.096"/>
<ellipse fill="none" stroke="#980866" cx="665.291" cy="-235.856" rx="4.00002" ry="4.00002"/>
<polygon fill="#980866" stroke="#980866" points="577.157,-182.029 570.968,-172.976 572.889,-179.422 568.622,-176.816 568.622,-176.816 568.622,-176.816 572.889,-179.422 566.277,-180.657 577.157,-182.029 577.157,-182.029"/>
</g>
<!-- VehicleType -->
<g id="node23" class="node"><title>VehicleType</title>
<ellipse fill="none" stroke="black" cx="284" cy="-255" rx="57.2688" ry="18"/>
<text text-anchor="middle" x="284" y="-251.3" font-family="Times,serif" font-size="14.00">VehicleType</text>
</g>
<!-- VehicleType&#45;&gt;Vehicle -->
<g id="edge23" class="edge"><title>VehicleType&#45;&gt;Vehicle</title>
<path fill="none" stroke="#d0213f" d="M314.296,-234.364C325.234,-227.871 337.878,-221.029 350,-216 399.976,-195.267 460.484,-180.343 500.928,-171.715"/>
<ellipse fill="none" stroke="#d0213f" cx="310.797" cy="-236.484" rx="4.00002" ry="4.00002"/>
<polygon fill="#d0213f" stroke="#d0213f" points="500.972,-171.706 511.681,-174.062 505.866,-170.682 510.76,-169.658 510.76,-169.658 510.76,-169.658 505.866,-170.682 509.838,-165.253 500.972,-171.706 500.972,-171.706"/>
</g>
<!-- Zip&#45;&gt;Psazip -->
<g id="edge24" class="edge"><title>Zip&#45;&gt;Psazip</title>
<path fill="none" stroke="#ae3f00" d="M1151.46,-63.6398C1150.91,-58.0629 1150.31,-52.1319 1149.75,-46.4761"/>
<ellipse fill="none" stroke="#ae3f00" cx="1151.87" cy="-67.7165" rx="4" ry="4"/>
<polygon fill="#ae3f00" stroke="#ae3f00" points="1149.71,-46.0547 1153.19,-35.6565 1149.21,-41.0795 1148.71,-36.1043 1148.71,-36.1043 1148.71,-36.1043 1149.21,-41.0795 1144.23,-36.5521 1149.71,-46.0547 1149.71,-46.0547"/>
</g>
</g>
</svg>
