<?xml version="1.0" encoding="UTF-8" standalone="no"?>
<!DOCTYPE svg PUBLIC "-//W3C//DTD SVG 1.1//EN"
 "http://www.w3.org/Graphics/SVG/1.1/DTD/svg11.dtd">
<!-- Generated by graphviz version 2.29.20121209.0545 (20121209.0545)
 -->
<!-- Title: models_diagram Pages: 1 -->
<svg width="1197pt" height="230pt"
 viewBox="0.00 0.00 1197.00 230.00" xmlns="http://www.w3.org/2000/svg" xmlns:xlink="http://www.w3.org/1999/xlink">
<g id="graph0" class="graph" transform="scale(1 1) rotate(0) translate(4 226)">
<title>models_diagram</title>
<polygon fill="white" stroke="white" points="-4,5 -4,-226 1194,-226 1194,5 -4,5"/>
<!-- _diagram_info -->
<g id="node1" class="node"><title>_diagram_info</title>
<text text-anchor="start" x="8" y="-207.6" font-family="Times,serif" font-size="13.00">Models diagram</text>
<text text-anchor="start" x="8" y="-193.6" font-family="Times,serif" font-size="13.00">Date: Dec 12 2012 &#45; 02:45</text>
<text text-anchor="start" x="8" y="-179.6" font-family="Times,serif" font-size="13.00">Migration version: 20121212072611</text>
<text text-anchor="start" x="8" y="-165.6" font-family="Times,serif" font-size="13.00">Generated by RailRoady 1.1.0</text>
<text text-anchor="start" x="8" y="-151.6" font-family="Times,serif" font-size="13.00">http://railroady.prestonlee.com</text>
</g>
<!-- Addendum -->
<g id="node2" class="node"><title>Addendum</title>
<ellipse fill="none" stroke="black" cx="277" cy="-183" rx="51.0191" ry="18"/>
<text text-anchor="middle" x="277" y="-179.3" font-family="Times,serif" font-size="14.00">Addendum</text>
</g>
<!-- Employee -->
<g id="node3" class="node"><title>Employee</title>
<ellipse fill="none" stroke="black" cx="394" cy="-183" rx="47.169" ry="18"/>
<text text-anchor="middle" x="394" y="-179.3" font-family="Times,serif" font-size="14.00">Employee</text>
</g>
<!-- FedexContract -->
<g id="node4" class="node"><title>FedexContract</title>
<ellipse fill="none" stroke="black" cx="524" cy="-183" rx="64.0172" ry="18"/>
<text text-anchor="middle" x="524" y="-179.3" font-family="Times,serif" font-size="14.00">FedexContract</text>
</g>
<!-- Note -->
<g id="node5" class="node"><title>Note</title>
<ellipse fill="none" stroke="black" cx="635" cy="-183" rx="28.3955" ry="18"/>
<text text-anchor="middle" x="635" y="-179.3" font-family="Times,serif" font-size="14.00">Note</text>
</g>
<!-- Psa -->
<g id="node6" class="node"><title>Psa</title>
<ellipse fill="none" stroke="black" cx="709" cy="-183" rx="27" ry="18"/>
<text text-anchor="middle" x="709" y="-179.3" font-family="Times,serif" font-size="14.00">Psa</text>
</g>
<!-- Psazip -->
<g id="node8" class="node"><title>Psazip</title>
<ellipse fill="none" stroke="black" cx="634" cy="-18" rx="34.1708" ry="18"/>
<text text-anchor="middle" x="634" y="-14.3" font-family="Times,serif" font-size="14.00">Psazip</text>
</g>
<!-- Psa&#45;&gt;Psazip -->
<g id="edge1" class="edge"><title>Psa&#45;&gt;Psazip</title>
<path fill="none" stroke="#6eab08" d="M688.879,-161.533C672.158,-144.047 650.281,-119.89 645,-108 636.376,-88.5849 633.82,-64.5812 633.314,-46.3967"/>
<ellipse fill="none" stroke="#6eab08" cx="691.989" cy="-164.759" rx="4.00002" ry="4.00002"/>
<polygon fill="#6eab08" stroke="#6eab08" points="633.312,-46.1802 637.725,-36.1413 633.269,-41.1804 633.225,-36.1806 633.225,-36.1806 633.225,-36.1806 633.269,-41.1804 628.725,-36.2198 633.312,-46.1802 633.312,-46.1802"/>
</g>
<!-- Zip -->
<g id="node15" class="node"><title>Zip</title>
<ellipse fill="none" stroke="black" cx="681" cy="-90" rx="27" ry="18"/>
<text text-anchor="middle" x="681" y="-86.3" font-family="Times,serif" font-size="14.00">Zip</text>
</g>
<!-- Psa&#45;&gt;Zip -->
<g id="edge2" class="edge"><title>Psa&#45;&gt;Zip</title>
<path fill="none" stroke="#3683c3" d="M700.802,-155.356C697.152,-143.493 692.862,-129.552 689.211,-117.684"/>
<polygon fill="#3683c3" stroke="#3683c3" points="700.923,-155.751 699.563,-166.633 702.394,-160.53 703.864,-165.309 703.864,-165.309 703.864,-165.309 702.394,-160.53 708.165,-163.986 700.923,-155.751 700.923,-155.751"/>
<polygon fill="#3683c3" stroke="#3683c3" points="689.139,-117.451 690.499,-106.57 687.668,-112.672 686.198,-107.893 686.198,-107.893 686.198,-107.893 687.668,-112.672 681.897,-109.217 689.139,-117.451 689.139,-117.451"/>
</g>
<!-- PsaState -->
<g id="node7" class="node"><title>PsaState</title>
<ellipse fill="none" stroke="black" cx="764" cy="-18" rx="41.394" ry="18"/>
<text text-anchor="middle" x="764" y="-14.3" font-family="Times,serif" font-size="14.00">PsaState</text>
</g>
<!-- Psa&#45;&gt;PsaState -->
<g id="edge3" class="edge"><title>Psa&#45;&gt;PsaState</title>
<path fill="none" stroke="#0db224" d="M717.356,-157.236C727.509,-127.145 744.572,-76.5773 755.005,-45.6573"/>
<ellipse fill="none" stroke="#0db224" cx="715.958" cy="-161.38" rx="4.00001" ry="4.00001"/>
<polygon fill="#0db224" stroke="#0db224" points="755.072,-45.4577 762.534,-37.4213 756.671,-40.7201 758.27,-35.9826 758.27,-35.9826 758.27,-35.9826 756.671,-40.7201 754.006,-34.5438 755.072,-45.4577 755.072,-45.4577"/>
</g>
<!-- State -->
<g id="node11" class="node"><title>State</title>
<ellipse fill="none" stroke="black" cx="793" cy="-90" rx="28.3955" ry="18"/>
<text text-anchor="middle" x="793" y="-86.3" font-family="Times,serif" font-size="14.00">State</text>
</g>
<!-- Psa&#45;&gt;State -->
<g id="edge4" class="edge"><title>Psa&#45;&gt;State</title>
<path fill="none" stroke="#b7b465" d="M729.603,-159.68C742.64,-145.556 759.431,-127.366 772.457,-113.255"/>
<polygon fill="#b7b465" stroke="#b7b465" points="729.279,-160.031 719.189,-164.327 725.887,-163.705 722.496,-167.379 722.496,-167.379 722.496,-167.379 725.887,-163.705 725.803,-170.432 729.279,-160.031 729.279,-160.031"/>
<polygon fill="#b7b465" stroke="#b7b465" points="772.476,-113.235 782.565,-108.939 775.867,-109.561 779.258,-105.887 779.258,-105.887 779.258,-105.887 775.867,-109.561 775.952,-102.834 772.476,-113.235 772.476,-113.235"/>
</g>
<!-- Region -->
<g id="node9" class="node"><title>Region</title>
<ellipse fill="none" stroke="black" cx="791" cy="-183" rx="37.0701" ry="18"/>
<text text-anchor="middle" x="791" y="-179.3" font-family="Times,serif" font-size="14.00">Region</text>
</g>
<!-- Role -->
<g id="node10" class="node"><title>Role</title>
<ellipse fill="none" stroke="black" cx="874" cy="-183" rx="27.4223" ry="18"/>
<text text-anchor="middle" x="874" y="-179.3" font-family="Times,serif" font-size="14.00">Role</text>
</g>
<!-- State&#45;&gt;PsaState -->
<g id="edge5" class="edge"><title>State&#45;&gt;PsaState</title>
<path fill="none" stroke="#85b435" d="M782.965,-64.7779C780.383,-58.544 777.59,-51.8046 774.963,-45.4634"/>
<ellipse fill="none" stroke="#85b435" cx="784.596" cy="-68.7155" rx="4.00001" ry="4.00001"/>
<polygon fill="#85b435" stroke="#85b435" points="774.852,-45.1948 775.182,-34.2339 772.938,-40.5755 771.025,-35.9562 771.025,-35.9562 771.025,-35.9562 772.938,-40.5755 766.867,-37.6786 774.852,-45.1948 774.852,-45.1948"/>
</g>
<!-- Terminal -->
<g id="node12" class="node"><title>Terminal</title>
<ellipse fill="none" stroke="black" cx="964" cy="-183" rx="44.2946" ry="18"/>
<text text-anchor="middle" x="964" y="-179.3" font-family="Times,serif" font-size="14.00">Terminal</text>
</g>
<!-- User -->
<g id="node13" class="node"><title>User</title>
<ellipse fill="none" stroke="black" cx="1054" cy="-183" rx="27.4223" ry="18"/>
<text text-anchor="middle" x="1054" y="-179.3" font-family="Times,serif" font-size="14.00">User</text>
</g>
<!-- UserRole -->
<g id="node14" class="node"><title>UserRole</title>
<ellipse fill="none" stroke="black" cx="1145" cy="-183" rx="44.271" ry="18"/>
<text text-anchor="middle" x="1145" y="-179.3" font-family="Times,serif" font-size="14.00">UserRole</text>
</g>
<!-- Zip&#45;&gt;Psazip -->
<g id="edge6" class="edge"><title>Zip&#45;&gt;Psazip</title>
<path fill="none" stroke="#324015" d="M665.831,-66.4085C660.944,-59.1291 655.504,-51.027 650.524,-43.6096"/>
<ellipse fill="none" stroke="#324015" cx="668.105" cy="-69.795" rx="4.00002" ry="4.00002"/>
<polygon fill="#324015" stroke="#324015" points="650.523,-43.6092 648.685,-32.7985 647.736,-39.4581 644.949,-35.307 644.949,-35.307 644.949,-35.307 647.736,-39.4581 641.213,-37.8155 650.523,-43.6092 650.523,-43.6092"/>
</g>
</g>
</svg>
