<?xml version="1.0" encoding="UTF-8" standalone="no"?>
<!DOCTYPE svg PUBLIC "-//W3C//DTD SVG 1.1//EN"
 "http://www.w3.org/Graphics/SVG/1.1/DTD/svg11.dtd">
<!-- Generated by graphviz version 2.29.20121209.0545 (20121209.0545)
 -->
<!-- Title: models_diagram Pages: 1 -->
<svg width="1264pt" height="302pt"
 viewBox="0.00 0.00 1264.00 302.00" xmlns="http://www.w3.org/2000/svg" xmlns:xlink="http://www.w3.org/1999/xlink">
<g id="graph0" class="graph" transform="scale(1 1) rotate(0) translate(4 298)">
<title>models_diagram</title>
<polygon fill="white" stroke="white" points="-4,5 -4,-298 1261,-298 1261,5 -4,5"/>
<!-- _diagram_info -->
<g id="node1" class="node"><title>_diagram_info</title>
<text text-anchor="start" x="44" y="-279.6" font-family="Times,serif" font-size="13.00">Models diagram</text>
<text text-anchor="start" x="44" y="-265.6" font-family="Times,serif" font-size="13.00">Date: Dec 12 2012 &#45; 03:28</text>
<text text-anchor="start" x="44" y="-251.6" font-family="Times,serif" font-size="13.00">Migration version: 20121212081655</text>
<text text-anchor="start" x="44" y="-237.6" font-family="Times,serif" font-size="13.00">Generated by RailRoady 1.1.0</text>
<text text-anchor="start" x="44" y="-223.6" font-family="Times,serif" font-size="13.00">http://railroady.prestonlee.com</text>
</g>
<!-- Addendum -->
<g id="node2" class="node"><title>Addendum</title>
<ellipse fill="none" stroke="black" cx="51" cy="-162" rx="51.0191" ry="18"/>
<text text-anchor="middle" x="51" y="-158.3" font-family="Times,serif" font-size="14.00">Addendum</text>
</g>
<!-- Note -->
<g id="node6" class="node"><title>Note</title>
<ellipse fill="none" stroke="black" cx="165" cy="-90" rx="28.3955" ry="18"/>
<text text-anchor="middle" x="165" y="-86.3" font-family="Times,serif" font-size="14.00">Note</text>
</g>
<!-- Addendum&#45;&gt;Note -->
<g id="edge1" class="edge"><title>Addendum&#45;&gt;Note</title>
<path fill="none" stroke="#5c8b82" d="M82.3068,-141.777C99.2362,-131.381 119.99,-118.638 136.471,-108.518"/>
<ellipse fill="none" stroke="#5c8b82" cx="78.8646" cy="-143.89" rx="4.00002" ry="4.00002"/>
<polygon fill="#5c8b82" stroke="#5c8b82" points="136.614,-108.43 147.49,-107.032 140.875,-105.814 145.136,-103.197 145.136,-103.197 145.136,-103.197 140.875,-105.814 142.781,-99.3627 136.614,-108.43 136.614,-108.43"/>
</g>
<!-- Employee -->
<g id="node3" class="node"><title>Employee</title>
<ellipse fill="none" stroke="black" cx="275" cy="-162" rx="47.169" ry="18"/>
<text text-anchor="middle" x="275" y="-158.3" font-family="Times,serif" font-size="14.00">Employee</text>
</g>
<!-- Employee&#45;&gt;Note -->
<g id="edge2" class="edge"><title>Employee&#45;&gt;Note</title>
<path fill="none" stroke="#0c58bc" d="M244.809,-141.788C228.654,-131.507 208.885,-118.927 193.064,-108.859"/>
<ellipse fill="none" stroke="#0c58bc" cx="248.297" cy="-144.007" rx="4.00002" ry="4.00002"/>
<polygon fill="#0c58bc" stroke="#0c58bc" points="192.699,-108.627 186.679,-99.4617 188.481,-105.943 184.263,-103.258 184.263,-103.258 184.263,-103.258 188.481,-105.943 181.847,-107.055 192.699,-108.627 192.699,-108.627"/>
</g>
<!-- User -->
<g id="node15" class="node"><title>User</title>
<ellipse fill="none" stroke="black" cx="265" cy="-90" rx="27.4223" ry="18"/>
<text text-anchor="middle" x="265" y="-86.3" font-family="Times,serif" font-size="14.00">User</text>
</g>
<!-- Employee&#45;&gt;User -->
<g id="edge3" class="edge"><title>Employee&#45;&gt;User</title>
<path fill="none" stroke="#5cf44d" d="M271.377,-135.64C270.478,-129.348 269.515,-122.605 268.617,-116.316"/>
<ellipse fill="none" stroke="#5cf44d" cx="271.962" cy="-139.737" rx="4.00001" ry="4.00001"/>
<ellipse fill="#5cf44d" stroke="#5cf44d" cx="268.009" cy="-112.064" rx="4.00001" ry="4.00001"/>
</g>
<!-- EmployeePsa -->
<g id="node4" class="node"><title>EmployeePsa</title>
<ellipse fill="none" stroke="black" cx="469" cy="-255" rx="60.1672" ry="18"/>
<text text-anchor="middle" x="469" y="-251.3" font-family="Times,serif" font-size="14.00">EmployeePsa</text>
</g>
<!-- FedexContract -->
<g id="node5" class="node"><title>FedexContract</title>
<ellipse fill="none" stroke="black" cx="326" cy="-255" rx="64.0172" ry="18"/>
<text text-anchor="middle" x="326" y="-251.3" font-family="Times,serif" font-size="14.00">FedexContract</text>
</g>
<!-- FedexContract&#45;&gt;Employee -->
<g id="edge4" class="edge"><title>FedexContract&#45;&gt;Employee</title>
<path fill="none" stroke="#a21173" d="M312.291,-229.538C305.182,-216.853 296.505,-201.371 289.31,-188.534"/>
<ellipse fill="none" stroke="#a21173" cx="314.452" cy="-233.394" rx="4.00002" ry="4.00002"/>
<polygon fill="#a21173" stroke="#a21173" points="289.266,-188.456 288.303,-177.532 286.822,-184.094 284.377,-179.732 284.377,-179.732 284.377,-179.732 286.822,-184.094 280.452,-181.932 289.266,-188.456 289.266,-188.456"/>
</g>
<!-- Psa -->
<g id="node7" class="node"><title>Psa</title>
<ellipse fill="none" stroke="black" cx="376" cy="-162" rx="27" ry="18"/>
<text text-anchor="middle" x="376" y="-158.3" font-family="Times,serif" font-size="14.00">Psa</text>
</g>
<!-- FedexContract&#45;&gt;Psa -->
<g id="edge5" class="edge"><title>FedexContract&#45;&gt;Psa</title>
<path fill="none" stroke="#1497ed" d="M339.494,-229.441C346.559,-216.582 355.193,-200.869 362.289,-187.953"/>
<ellipse fill="none" stroke="#1497ed" cx="337.331" cy="-233.378" rx="4.00002" ry="4.00002"/>
<polygon fill="#1497ed" stroke="#1497ed" points="362.326,-187.887 371.085,-181.29 364.733,-183.505 367.141,-179.123 367.141,-179.123 367.141,-179.123 364.733,-183.505 363.197,-176.956 362.326,-187.887 362.326,-187.887"/>
</g>
<!-- Psazip -->
<g id="node9" class="node"><title>Psazip</title>
<ellipse fill="none" stroke="black" cx="369" cy="-18" rx="34.1708" ry="18"/>
<text text-anchor="middle" x="369" y="-14.3" font-family="Times,serif" font-size="14.00">Psazip</text>
</g>
<!-- Psa&#45;&gt;Psazip -->
<g id="edge6" class="edge"><title>Psa&#45;&gt;Psazip</title>
<path fill="none" stroke="#cbe755" d="M357.124,-139.543C350.333,-130.456 343.491,-119.353 340,-108 335.297,-92.7067 336.036,-87.5013 340,-72 342.481,-62.2986 347.144,-52.4622 352.018,-43.9406"/>
<ellipse fill="none" stroke="#cbe755" cx="359.779" cy="-142.923" rx="4.00002" ry="4.00002"/>
<polygon fill="#cbe755" stroke="#cbe755" points="352.092,-43.8184 361.138,-37.6196 354.693,-39.5484 357.295,-35.2784 357.295,-35.2784 357.295,-35.2784 354.693,-39.5484 353.452,-32.9372 352.092,-43.8184 352.092,-43.8184"/>
</g>
<!-- Zip -->
<g id="node21" class="node"><title>Zip</title>
<ellipse fill="none" stroke="black" cx="376" cy="-90" rx="27" ry="18"/>
<text text-anchor="middle" x="376" y="-86.3" font-family="Times,serif" font-size="14.00">Zip</text>
</g>
<!-- Psa&#45;&gt;Zip -->
<g id="edge7" class="edge"><title>Psa&#45;&gt;Zip</title>
<path fill="none" stroke="#887ab8" d="M376,-133.665C376,-128.687 376,-123.491 376,-118.507"/>
<polygon fill="#887ab8" stroke="#887ab8" points="376,-133.697 371.5,-143.697 376,-138.697 376,-143.697 376,-143.697 376,-143.697 376,-138.697 380.5,-143.697 376,-133.697 376,-133.697"/>
<polygon fill="#887ab8" stroke="#887ab8" points="376,-118.104 380.5,-108.104 376,-113.104 376,-108.104 376,-108.104 376,-108.104 376,-113.104 371.5,-108.104 376,-118.104 376,-118.104"/>
</g>
<!-- PsaState -->
<g id="node8" class="node"><title>PsaState</title>
<ellipse fill="none" stroke="black" cx="475" cy="-18" rx="41.394" ry="18"/>
<text text-anchor="middle" x="475" y="-14.3" font-family="Times,serif" font-size="14.00">PsaState</text>
</g>
<!-- Psa&#45;&gt;PsaState -->
<g id="edge8" class="edge"><title>Psa&#45;&gt;PsaState</title>
<path fill="none" stroke="#f28507" d="M391.724,-138.446C409.643,-112.745 438.851,-70.8507 457.484,-44.1241"/>
<ellipse fill="none" stroke="#f28507" cx="389.261" cy="-141.98" rx="4.00002" ry="4.00002"/>
<polygon fill="#f28507" stroke="#f28507" points="457.647,-43.8903 467.057,-38.2607 460.506,-39.7887 463.366,-35.6871 463.366,-35.6871 463.366,-35.6871 460.506,-39.7887 459.675,-33.1135 457.647,-43.8903 457.647,-43.8903"/>
</g>
<!-- State -->
<g id="node13" class="node"><title>State</title>
<ellipse fill="none" stroke="black" cx="488" cy="-90" rx="28.3955" ry="18"/>
<text text-anchor="middle" x="488" y="-86.3" font-family="Times,serif" font-size="14.00">State</text>
</g>
<!-- Psa&#45;&gt;State -->
<g id="edge9" class="edge"><title>Psa&#45;&gt;State</title>
<path fill="none" stroke="#c3df0c" d="M403.732,-143.668C420.882,-132.949 442.827,-119.233 460.022,-108.486"/>
<polygon fill="#c3df0c" stroke="#c3df0c" points="403.479,-143.825 392.614,-145.309 399.239,-146.475 394.999,-149.125 394.999,-149.125 394.999,-149.125 399.239,-146.475 397.384,-152.941 403.479,-143.825 403.479,-143.825"/>
<polygon fill="#c3df0c" stroke="#c3df0c" points="460.051,-108.468 470.916,-106.984 464.291,-105.818 468.531,-103.168 468.531,-103.168 468.531,-103.168 464.291,-105.818 466.146,-99.3521 460.051,-108.468 460.051,-108.468"/>
</g>
<!-- Region -->
<g id="node10" class="node"><title>Region</title>
<ellipse fill="none" stroke="black" cx="584" cy="-255" rx="37.0701" ry="18"/>
<text text-anchor="middle" x="584" y="-251.3" font-family="Times,serif" font-size="14.00">Region</text>
</g>
<!-- Role -->
<g id="node11" class="node"><title>Role</title>
<ellipse fill="none" stroke="black" cx="667" cy="-255" rx="27.4223" ry="18"/>
<text text-anchor="middle" x="667" y="-251.3" font-family="Times,serif" font-size="14.00">Role</text>
</g>
<!-- ServiceType -->
<g id="node12" class="node"><title>ServiceType</title>
<ellipse fill="none" stroke="black" cx="769" cy="-255" rx="56.3173" ry="18"/>
<text text-anchor="middle" x="769" y="-251.3" font-family="Times,serif" font-size="14.00">ServiceType</text>
</g>
<!-- Vehicle -->
<g id="node17" class="node"><title>Vehicle</title>
<ellipse fill="none" stroke="black" cx="973" cy="-162" rx="38.4949" ry="18"/>
<text text-anchor="middle" x="973" y="-158.3" font-family="Times,serif" font-size="14.00">Vehicle</text>
</g>
<!-- ServiceType&#45;&gt;Vehicle -->
<g id="edge10" class="edge"><title>ServiceType&#45;&gt;Vehicle</title>
<path fill="none" stroke="#c4f7bf" d="M800.73,-234.396C811.426,-228.15 823.556,-221.451 835,-216 867.089,-200.715 904.846,-186.456 932.748,-176.587"/>
<ellipse fill="none" stroke="#c4f7bf" cx="797.023" cy="-236.59" rx="4.00002" ry="4.00002"/>
<polygon fill="#c4f7bf" stroke="#c4f7bf" points="933.114,-176.459 944.039,-177.404 937.833,-174.808 942.553,-173.156 942.553,-173.156 942.553,-173.156 937.833,-174.808 941.066,-168.909 933.114,-176.459 933.114,-176.459"/>
</g>
<!-- State&#45;&gt;PsaState -->
<g id="edge11" class="edge"><title>State&#45;&gt;PsaState</title>
<path fill="none" stroke="#069067" d="M483.355,-63.9868C482.289,-58.2493 481.151,-52.1211 480.069,-46.2929"/>
<ellipse fill="none" stroke="#069067" cx="484.123" cy="-68.1222" rx="4.00001" ry="4.00001"/>
<polygon fill="#069067" stroke="#069067" points="480.034,-46.1072 482.633,-35.4536 479.121,-41.1912 478.208,-36.2753 478.208,-36.2753 478.208,-36.2753 479.121,-41.1912 473.784,-37.097 480.034,-46.1072 480.034,-46.1072"/>
</g>
<!-- Terminal -->
<g id="node14" class="node"><title>Terminal</title>
<ellipse fill="none" stroke="black" cx="165" cy="-162" rx="44.2946" ry="18"/>
<text text-anchor="middle" x="165" y="-158.3" font-family="Times,serif" font-size="14.00">Terminal</text>
</g>
<!-- Terminal&#45;&gt;Note -->
<g id="edge12" class="edge"><title>Terminal&#45;&gt;Note</title>
<path fill="none" stroke="#0f3b13" d="M165,-135.64C165,-130.063 165,-124.132 165,-118.476"/>
<ellipse fill="none" stroke="#0f3b13" cx="165" cy="-139.697" rx="4" ry="4"/>
<polygon fill="#0f3b13" stroke="#0f3b13" points="165,-118.104 169.5,-108.104 165,-113.104 165,-108.104 165,-108.104 165,-108.104 165,-113.104 160.5,-108.104 165,-118.104 165,-118.104"/>
</g>
<!-- UserRole -->
<g id="node16" class="node"><title>UserRole</title>
<ellipse fill="none" stroke="black" cx="265" cy="-18" rx="44.271" ry="18"/>
<text text-anchor="middle" x="265" y="-14.3" font-family="Times,serif" font-size="14.00">UserRole</text>
</g>
<!-- User&#45;&gt;UserRole -->
<g id="edge13" class="edge"><title>User&#45;&gt;UserRole</title>
<path fill="none" stroke="#266454" d="M265,-63.6398C265,-58.0629 265,-52.1319 265,-46.4761"/>
<ellipse fill="none" stroke="#266454" cx="265" cy="-67.6966" rx="4" ry="4"/>
<polygon fill="#266454" stroke="#266454" points="265,-46.1043 269.5,-36.1043 265,-41.1043 265,-36.1043 265,-36.1043 265,-36.1043 265,-41.1043 260.5,-36.1044 265,-46.1043 265,-46.1043"/>
</g>
<!-- VehicleFuel -->
<g id="node18" class="node"><title>VehicleFuel</title>
<ellipse fill="none" stroke="black" cx="899" cy="-255" rx="55.3682" ry="18"/>
<text text-anchor="middle" x="899" y="-251.3" font-family="Times,serif" font-size="14.00">VehicleFuel</text>
</g>
<!-- VehicleFuel&#45;&gt;Vehicle -->
<g id="edge14" class="edge"><title>VehicleFuel&#45;&gt;Vehicle</title>
<path fill="none" stroke="#c1cf73" d="M917.946,-230.701C928.864,-217.276 942.558,-200.435 953.558,-186.908"/>
<ellipse fill="none" stroke="#c1cf73" cx="915.096" cy="-234.206" rx="4.00002" ry="4.00002"/>
<polygon fill="#c1cf73" stroke="#c1cf73" points="953.7,-186.733 963.501,-181.814 956.855,-182.854 960.01,-178.975 960.01,-178.975 960.01,-178.975 956.855,-182.854 956.518,-176.136 953.7,-186.733 953.7,-186.733"/>
</g>
<!-- VehicleOdometer -->
<g id="node19" class="node"><title>VehicleOdometer</title>
<ellipse fill="none" stroke="black" cx="1048" cy="-255" rx="75.0904" ry="18"/>
<text text-anchor="middle" x="1048" y="-251.3" font-family="Times,serif" font-size="14.00">VehicleOdometer</text>
</g>
<!-- VehicleOdometer&#45;&gt;Vehicle -->
<g id="edge15" class="edge"><title>VehicleOdometer&#45;&gt;Vehicle</title>
<path fill="none" stroke="#2e4255" d="M1028.47,-230.308C1017.48,-216.972 1003.79,-200.363 992.764,-186.981"/>
<ellipse fill="none" stroke="#2e4255" cx="1031.35" cy="-233.797" rx="4.00002" ry="4.00002"/>
<polygon fill="#2e4255" stroke="#2e4255" points="992.648,-186.84 989.761,-176.261 989.468,-182.982 986.288,-179.123 986.288,-179.123 986.288,-179.123 989.468,-182.982 982.816,-181.985 992.648,-186.84 992.648,-186.84"/>
</g>
<!-- VehicleType -->
<g id="node20" class="node"><title>VehicleType</title>
<ellipse fill="none" stroke="black" cx="1199" cy="-255" rx="57.2688" ry="18"/>
<text text-anchor="middle" x="1199" y="-251.3" font-family="Times,serif" font-size="14.00">VehicleType</text>
</g>
<!-- VehicleType&#45;&gt;Vehicle -->
<g id="edge16" class="edge"><title>VehicleType&#45;&gt;Vehicle</title>
<path fill="none" stroke="#1f7203" d="M1167.49,-234.459C1156.5,-228.095 1143.93,-221.309 1132,-216 1093.46,-198.841 1047.57,-184.117 1015.02,-174.574"/>
<ellipse fill="none" stroke="#1f7203" cx="1171.02" cy="-236.532" rx="4.00002" ry="4.00002"/>
<polygon fill="#1f7203" stroke="#1f7203" points="1014.97,-174.561 1006.62,-167.459 1010.17,-173.171 1005.37,-171.782 1005.37,-171.782 1005.37,-171.782 1010.17,-173.171 1004.11,-176.104 1014.97,-174.561 1014.97,-174.561"/>
</g>
<!-- Zip&#45;&gt;Psazip -->
<g id="edge17" class="edge"><title>Zip&#45;&gt;Psazip</title>
<path fill="none" stroke="#6ac21e" d="M373.464,-63.6398C372.906,-58.0629 372.313,-52.1319 371.748,-46.4761"/>
<ellipse fill="none" stroke="#6ac21e" cx="373.872" cy="-67.7165" rx="4" ry="4"/>
<polygon fill="#6ac21e" stroke="#6ac21e" points="371.706,-46.0547 375.188,-35.6565 371.208,-41.0795 370.71,-36.1043 370.71,-36.1043 370.71,-36.1043 371.208,-41.0795 366.233,-36.5521 371.706,-46.0547 371.706,-46.0547"/>
</g>
</g>
</svg>
