<?xml version="1.0" encoding="UTF-8" standalone="no"?>
<!DOCTYPE svg PUBLIC "-//W3C//DTD SVG 1.1//EN"
 "http://www.w3.org/Graphics/SVG/1.1/DTD/svg11.dtd">
<!-- Generated by graphviz version 2.29.20121209.0545 (20121209.0545)
 -->
<!-- Title: models_diagram Pages: 1 -->
<svg width="2416pt" height="504pt"
 viewBox="0.00 0.00 2416.00 504.00" xmlns="http://www.w3.org/2000/svg" xmlns:xlink="http://www.w3.org/1999/xlink">
<g id="graph0" class="graph" transform="scale(1 1) rotate(0) translate(4 500)">
<title>models_diagram</title>
<polygon fill="white" stroke="white" points="-4,5 -4,-500 2413,-500 2413,5 -4,5"/>
<!-- _diagram_info -->
<g id="node1" class="node"><title>_diagram_info</title>
<text text-anchor="start" x="2006" y="-481.6" font-family="Times,serif" font-size="13.00">Models diagram</text>
<text text-anchor="start" x="2006" y="-467.6" font-family="Times,serif" font-size="13.00">Date: Dec 17 2012 &#45; 00:47</text>
<text text-anchor="start" x="2006" y="-453.6" font-family="Times,serif" font-size="13.00">Migration version: 20121217053059</text>
<text text-anchor="start" x="2006" y="-439.6" font-family="Times,serif" font-size="13.00">Generated by RailRoady 1.1.0</text>
<text text-anchor="start" x="2006" y="-425.6" font-family="Times,serif" font-size="13.00">http://railroady.prestonlee.com</text>
</g>
<!-- Addendum -->
<g id="node2" class="node"><title>Addendum</title>
<ellipse fill="none" stroke="black" cx="2288" cy="-308" rx="51.0191" ry="18"/>
<text text-anchor="middle" x="2288" y="-304.3" font-family="Times,serif" font-size="14.00">Addendum</text>
</g>
<!-- Note -->
<g id="node17" class="node"><title>Note</title>
<ellipse fill="none" stroke="black" cx="1859" cy="-18" rx="28.3955" ry="18"/>
<text text-anchor="middle" x="1859" y="-14.3" font-family="Times,serif" font-size="14.00">Note</text>
</g>
<!-- Addendum&#45;&gt;Note -->
<g id="edge1" class="edge"><title>Addendum&#45;&gt;Note</title>
<path fill="none" stroke="#b25c4d" d="M2293.36,-281.863C2301.9,-234.278 2312.52,-130.734 2258,-74 2208.95,-22.9538 1987.88,-18.2495 1897.59,-18.5134"/>
<ellipse fill="none" stroke="#b25c4d" cx="2292.61" cy="-285.877" rx="4.00001" ry="4.00001"/>
<polygon fill="#b25c4d" stroke="#b25c4d" points="1897.5,-18.5138 1887.48,-14.0656 1892.5,-18.5397 1887.5,-18.5656 1887.5,-18.5656 1887.5,-18.5656 1892.5,-18.5397 1887.52,-23.0655 1897.5,-18.5138 1897.5,-18.5138"/>
</g>
<!-- Business -->
<g id="node3" class="node"><title>Business</title>
<ellipse fill="none" stroke="black" cx="2054" cy="-362" rx="42.3456" ry="18"/>
<text text-anchor="middle" x="2054" y="-358.3" font-family="Times,serif" font-size="14.00">Business</text>
</g>
<!-- Business&#45;&gt;Note -->
<g id="edge2" class="edge"><title>Business&#45;&gt;Note</title>
<path fill="none" stroke="#2c5dee" d="M2054,-335.475C2054,-314.005 2054,-282.496 2054,-255 2054,-255 2054,-255 2054,-91 2054,-57.7059 1952.7,-35.0021 1896.12,-24.9187"/>
<ellipse fill="none" stroke="#2c5dee" cx="2054" cy="-339.742" rx="4" ry="4"/>
<polygon fill="#2c5dee" stroke="#2c5dee" points="1895.97,-24.8918 1886.88,-18.7493 1891.04,-24.0374 1886.11,-23.1831 1886.11,-23.1831 1886.11,-23.1831 1891.04,-24.0374 1885.34,-27.6169 1895.97,-24.8918 1895.97,-24.8918"/>
</g>
<!-- Psa -->
<g id="node21" class="node"><title>Psa</title>
<ellipse fill="none" stroke="black" cx="2109" cy="-166" rx="27" ry="18"/>
<text text-anchor="middle" x="2109" y="-162.3" font-family="Times,serif" font-size="14.00">Psa</text>
</g>
<!-- Business&#45;&gt;Psa -->
<g id="edge3" class="edge"><title>Business&#45;&gt;Psa</title>
<path fill="none" stroke="#8dbe5c" d="M2064.23,-336.574C2065.57,-333.052 2066.87,-329.452 2068,-326 2082.98,-280.24 2096.04,-225.648 2103.2,-193.798"/>
<ellipse fill="none" stroke="#8dbe5c" cx="2062.74" cy="-340.349" rx="4.00001" ry="4.00001"/>
<polygon fill="#8dbe5c" stroke="#8dbe5c" points="2103.22,-193.677 2109.78,-184.89 2104.31,-188.796 2105.39,-183.915 2105.39,-183.915 2105.39,-183.915 2104.31,-188.796 2101,-182.94 2103.22,-193.677 2103.22,-193.677"/>
</g>
<!-- Employee -->
<g id="node9" class="node"><title>Employee</title>
<ellipse fill="none" stroke="black" cx="1482" cy="-254" rx="47.169" ry="18"/>
<text text-anchor="middle" x="1482" y="-250.3" font-family="Times,serif" font-size="14.00">Employee</text>
</g>
<!-- Business&#45;&gt;Employee -->
<g id="edge4" class="edge"><title>Business&#45;&gt;Employee</title>
<path fill="none" stroke="#b84724" d="M2007.39,-352.362C1901.6,-332.758 1643.97,-285.016 1533.59,-264.56"/>
<ellipse fill="none" stroke="#b84724" cx="2011.65" cy="-353.152" rx="4.00001" ry="4.00001"/>
<polygon fill="#b84724" stroke="#b84724" points="1533.52,-264.548 1524.51,-258.301 1528.61,-263.637 1523.69,-262.726 1523.69,-262.726 1523.69,-262.726 1528.61,-263.637 1522.87,-267.151 1533.52,-264.548 1533.52,-264.548"/>
</g>
<!-- Vehicle -->
<g id="node31" class="node"><title>Vehicle</title>
<ellipse fill="none" stroke="black" cx="287" cy="-254" rx="38.4949" ry="18"/>
<text text-anchor="middle" x="287" y="-250.3" font-family="Times,serif" font-size="14.00">Vehicle</text>
</g>
<!-- Business&#45;&gt;Vehicle -->
<g id="edge5" class="edge"><title>Business&#45;&gt;Vehicle</title>
<path fill="none" stroke="#565165" d="M2003.48,-359.297C1759.4,-350.92 700.626,-312.844 373,-272 359.16,-270.275 344.208,-267.606 330.714,-264.891"/>
<ellipse fill="none" stroke="#565165" cx="2007.82" cy="-359.445" rx="4" ry="4"/>
<polygon fill="#565165" stroke="#565165" points="330.514,-264.849 321.635,-258.414 325.618,-263.835 320.722,-262.82 320.722,-262.82 320.722,-262.82 325.618,-263.835 319.809,-267.226 330.514,-264.849 330.514,-264.849"/>
</g>
<!-- DailyDataDeliveryException -->
<g id="node4" class="node"><title>DailyDataDeliveryException</title>
<ellipse fill="none" stroke="black" cx="468" cy="-166" rx="116.484" ry="18"/>
<text text-anchor="middle" x="468" y="-162.3" font-family="Times,serif" font-size="14.00">DailyDataDeliveryException</text>
</g>
<!-- DailyDataDeliveryException&#45;&gt;Note -->
<g id="edge6" class="edge"><title>DailyDataDeliveryException&#45;&gt;Note</title>
<path fill="none" stroke="#afccfc" d="M486.631,-141.69C509.72,-114.819 551.831,-72.0437 599,-54 657.386,-31.6657 1615.6,-21.3154 1820.6,-19.3511"/>
<ellipse fill="none" stroke="#afccfc" cx="484.033" cy="-144.768" rx="4.00002" ry="4.00002"/>
<polygon fill="#afccfc" stroke="#afccfc" points="1820.6,-19.3512 1830.64,-23.756 1825.6,-19.3037 1830.6,-19.2562 1830.6,-19.2562 1830.6,-19.2562 1825.6,-19.3037 1830.56,-14.7564 1820.6,-19.3512 1820.6,-19.3512"/>
</g>
<!-- DailyDataEmployee -->
<g id="node5" class="node"><title>DailyDataEmployee</title>
<ellipse fill="none" stroke="black" cx="1100" cy="-166" rx="85.2138" ry="18"/>
<text text-anchor="middle" x="1100" y="-162.3" font-family="Times,serif" font-size="14.00">DailyDataEmployee</text>
</g>
<!-- DailyDataEmployee&#45;&gt;Note -->
<g id="edge7" class="edge"><title>DailyDataEmployee&#45;&gt;Note</title>
<path fill="none" stroke="#6f5b2f" d="M1147.62,-147.094C1204.66,-126.355 1303.48,-92.6566 1391,-74 1548.36,-40.4549 1740.15,-25.9906 1820.6,-21.0879"/>
<ellipse fill="none" stroke="#6f5b2f" cx="1143.61" cy="-148.559" rx="4.00001" ry="4.00001"/>
<polygon fill="#6f5b2f" stroke="#6f5b2f" points="1820.76,-21.078 1831.01,-24.9765 1825.75,-20.7812 1830.75,-20.4844 1830.75,-20.4844 1830.75,-20.4844 1825.75,-20.7812 1830.48,-15.9924 1820.76,-21.078 1820.76,-21.078"/>
</g>
<!-- DailyDataVehicle -->
<g id="node6" class="node"><title>DailyDataVehicle</title>
<ellipse fill="none" stroke="black" cx="218" cy="-166" rx="76.5394" ry="18"/>
<text text-anchor="middle" x="218" y="-162.3" font-family="Times,serif" font-size="14.00">DailyDataVehicle</text>
</g>
<!-- DailyDataVehicle&#45;&gt;Note -->
<g id="edge8" class="edge"><title>DailyDataVehicle&#45;&gt;Note</title>
<path fill="none" stroke="#f526b0" d="M229.712,-140.82C244.173,-114.045 271.527,-72.2556 309,-54 378.968,-19.9137 1588.03,-18.8509 1820.51,-18.9628"/>
<ellipse fill="none" stroke="#f526b0" cx="227.836" cy="-144.399" rx="4.00002" ry="4.00002"/>
<polygon fill="#f526b0" stroke="#f526b0" points="1820.53,-18.9627 1830.53,-23.4686 1825.53,-18.9656 1830.53,-18.9686 1830.53,-18.9686 1830.53,-18.9686 1825.53,-18.9656 1830.53,-14.4686 1820.53,-18.9627 1820.53,-18.9627"/>
</g>
<!-- DailyDatum -->
<g id="node7" class="node"><title>DailyDatum</title>
<ellipse fill="none" stroke="black" cx="538" cy="-362" rx="55.3436" ry="18"/>
<text text-anchor="middle" x="538" y="-358.3" font-family="Times,serif" font-size="14.00">DailyDatum</text>
</g>
<!-- DailyDatum&#45;&gt;Note -->
<g id="edge9" class="edge"><title>DailyDatum&#45;&gt;Note</title>
<path fill="none" stroke="#009207" d="M565.078,-339.696C586.561,-320.209 613,-289.265 613,-255 613,-255 613,-255 613,-91 613,-78.2886 624.019,-78.2478 636,-74 749.842,-33.637 1625.81,-21.5895 1820.67,-19.3965"/>
<ellipse fill="none" stroke="#009207" cx="561.898" cy="-342.486" rx="4.00002" ry="4.00002"/>
<polygon fill="#009207" stroke="#009207" points="1820.73,-19.396 1830.77,-23.7851 1825.73,-19.3407 1830.72,-19.2854 1830.72,-19.2854 1830.72,-19.2854 1825.73,-19.3407 1830.68,-14.7856 1820.73,-19.396 1820.73,-19.396"/>
</g>
<!-- DailyDatum&#45;&gt;DailyDataVehicle -->
<g id="edge10" class="edge"><title>DailyDatum&#45;&gt;DailyDataVehicle</title>
<path fill="none" stroke="#83ebcf" d="M499.314,-343.551C464.815,-327.211 413.633,-301.011 373,-272 353.802,-258.293 352.906,-250.106 334,-236 309.628,-217.815 280.156,-200.336 257.018,-187.52"/>
<ellipse fill="none" stroke="#83ebcf" cx="503.222" cy="-345.387" rx="4.00002" ry="4.00002"/>
<polygon fill="#83ebcf" stroke="#83ebcf" points="256.937,-187.475 250.327,-178.725 252.551,-185.073 248.166,-182.672 248.166,-182.672 248.166,-182.672 252.551,-185.073 246.004,-186.619 256.937,-187.475 256.937,-187.475"/>
</g>
<!-- DailyDatum&#45;&gt;Vehicle -->
<g id="edge11" class="edge"><title>DailyDatum&#45;&gt;Vehicle</title>
<path fill="none" stroke="#9fd4d4" d="M478.139,-352.462C425.178,-344.549 354.545,-332.978 343,-326 325.653,-315.515 327.554,-305.914 315,-290 312.158,-286.397 309.14,-282.597 306.177,-278.882"/>
<polygon fill="#9fd4d4" stroke="#9fd4d4" points="478.246,-352.478 487.478,-358.395 483.192,-353.211 488.138,-353.944 488.138,-353.944 488.138,-353.944 483.192,-353.211 488.798,-349.493 478.246,-352.478 478.246,-352.478"/>
<polygon fill="#9fd4d4" stroke="#9fd4d4" points="306.115,-278.804 303.385,-268.183 302.993,-274.899 299.87,-270.993 299.87,-270.993 299.87,-270.993 302.993,-274.899 296.355,-273.803 306.115,-278.804 306.115,-278.804"/>
</g>
<!-- DailyDatum&#45;&gt;DailyDataEmployee -->
<g id="edge12" class="edge"><title>DailyDatum&#45;&gt;DailyDataEmployee</title>
<path fill="none" stroke="#54508c" d="M582.058,-345.792C684.501,-310.429 938.329,-222.808 1048.07,-184.924"/>
<ellipse fill="none" stroke="#54508c" cx="578.222" cy="-347.115" rx="4.00001" ry="4.00001"/>
<polygon fill="#54508c" stroke="#54508c" points="1048.16,-184.896 1059.08,-185.887 1052.88,-183.265 1057.61,-181.633 1057.61,-181.633 1057.61,-181.633 1052.88,-183.265 1056.14,-177.379 1048.16,-184.896 1048.16,-184.896"/>
</g>
<!-- DailyDatum&#45;&gt;Employee -->
<g id="edge13" class="edge"><title>DailyDatum&#45;&gt;Employee</title>
<path fill="none" stroke="#6eb331" d="M599.6,-354.083C772.748,-334.641 1261.86,-279.719 1426.86,-261.192"/>
<polygon fill="#6eb331" stroke="#6eb331" points="599.361,-354.11 588.922,-350.754 594.393,-354.668 589.424,-355.226 589.424,-355.226 589.424,-355.226 594.393,-354.668 589.926,-359.698 599.361,-354.11 599.361,-354.11"/>
<polygon fill="#6eb331" stroke="#6eb331" points="1427.31,-261.141 1437.75,-264.497 1432.28,-260.583 1437.25,-260.025 1437.25,-260.025 1437.25,-260.025 1432.28,-260.583 1436.75,-255.553 1427.31,-261.141 1427.31,-261.141"/>
</g>
<!-- DailyDatum&#45;&gt;DailyDataDeliveryException -->
<g id="edge14" class="edge"><title>DailyDatum&#45;&gt;DailyDataDeliveryException</title>
<path fill="none" stroke="#675db5" d="M547.281,-335.981C555.417,-309.803 563.835,-268.124 549,-236 540.097,-216.72 522.855,-200.841 506.56,-189.197"/>
<ellipse fill="none" stroke="#675db5" cx="545.928" cy="-340.103" rx="4.00001" ry="4.00001"/>
<polygon fill="#675db5" stroke="#675db5" points="506.445,-189.119 500.703,-179.776 502.309,-186.309 498.174,-183.498 498.174,-183.498 498.174,-183.498 502.309,-186.309 495.644,-187.22 506.445,-189.119 506.445,-189.119"/>
</g>
<!-- DeliveryException -->
<g id="node8" class="node"><title>DeliveryException</title>
<ellipse fill="none" stroke="black" cx="461" cy="-254" rx="78.9404" ry="18"/>
<text text-anchor="middle" x="461" y="-250.3" font-family="Times,serif" font-size="14.00">DeliveryException</text>
</g>
<!-- DailyDatum&#45;&gt;DeliveryException -->
<g id="edge15" class="edge"><title>DailyDatum&#45;&gt;DeliveryException</title>
<path fill="none" stroke="#fdea31" d="M519.653,-335.743C507.463,-318.962 491.519,-297.013 479.331,-280.236"/>
<polygon fill="#fdea31" stroke="#fdea31" points="519.751,-335.879 521.988,-346.614 522.69,-339.924 525.629,-343.969 525.629,-343.969 525.629,-343.969 522.69,-339.924 529.269,-341.325 519.751,-335.879 519.751,-335.879"/>
<polygon fill="#fdea31" stroke="#fdea31" points="479.218,-280.079 476.981,-269.344 476.279,-276.034 473.341,-271.988 473.341,-271.988 473.341,-271.988 476.279,-276.034 469.7,-274.633 479.218,-280.079 479.218,-280.079"/>
</g>
<!-- DeliveryException&#45;&gt;DailyDataDeliveryException -->
<g id="edge16" class="edge"><title>DeliveryException&#45;&gt;DailyDataDeliveryException</title>
<path fill="none" stroke="#d21885" d="M463.089,-227.339C463.942,-216.855 464.93,-204.718 465.795,-194.091"/>
<ellipse fill="none" stroke="#d21885" cx="462.741" cy="-231.61" rx="4" ry="4"/>
<polygon fill="#d21885" stroke="#d21885" points="465.798,-194.051 471.095,-184.449 466.204,-189.068 466.609,-184.084 466.609,-184.084 466.609,-184.084 466.204,-189.068 462.124,-183.719 465.798,-194.051 465.798,-194.051"/>
</g>
<!-- Employee&#45;&gt;Note -->
<g id="edge17" class="edge"><title>Employee&#45;&gt;Note</title>
<path fill="none" stroke="#c89251" d="M1535.25,-247.671C1639.04,-236.742 1860.17,-210.572 1882,-184 1890.59,-173.549 1874.34,-90.26 1864.97,-46.1687"/>
<ellipse fill="none" stroke="#c89251" cx="1531.07" cy="-248.109" rx="4" ry="4"/>
<polygon fill="#c89251" stroke="#c89251" points="1864.91,-45.9011 1867.21,-35.1785 1863.86,-41.0128 1862.81,-36.1246 1862.81,-36.1246 1862.81,-36.1246 1863.86,-41.0128 1858.41,-37.0707 1864.91,-45.9011 1864.91,-45.9011"/>
</g>
<!-- User -->
<g id="node29" class="node"><title>User</title>
<ellipse fill="none" stroke="black" cx="761" cy="-166" rx="27.4223" ry="18"/>
<text text-anchor="middle" x="761" y="-162.3" font-family="Times,serif" font-size="14.00">User</text>
</g>
<!-- Employee&#45;&gt;User -->
<g id="edge18" class="edge"><title>Employee&#45;&gt;User</title>
<path fill="none" stroke="#a88963" d="M1426.61,-251.384C1302.24,-247.472 1003.98,-236.433 905,-218 855.945,-208.864 844.537,-202.006 798,-184 795.495,-183.031 792.918,-181.975 790.346,-180.879"/>
<ellipse fill="none" stroke="#a88963" cx="1430.9" cy="-251.517" rx="4" ry="4"/>
<ellipse fill="#a88963" stroke="#a88963" cx="786.382" cy="-179.132" rx="4.00002" ry="4.00002"/>
</g>
<!-- Employee&#45;&gt;DailyDataEmployee -->
<g id="edge19" class="edge"><title>Employee&#45;&gt;DailyDataEmployee</title>
<path fill="none" stroke="#aa0fb9" d="M1431.39,-244.359C1394.1,-237.766 1342.23,-228.12 1297,-218 1250.48,-207.589 1198.26,-193.983 1159.29,-183.444"/>
<ellipse fill="none" stroke="#aa0fb9" cx="1435.65" cy="-245.108" rx="4.00001" ry="4.00001"/>
<polygon fill="#aa0fb9" stroke="#aa0fb9" points="1158.82,-183.316 1150.35,-176.353 1153.99,-182.006 1149.17,-180.696 1149.17,-180.696 1149.17,-180.696 1153.99,-182.006 1147.99,-185.039 1158.82,-183.316 1158.82,-183.316"/>
</g>
<!-- EmployeePsa -->
<g id="node12" class="node"><title>EmployeePsa</title>
<ellipse fill="none" stroke="black" cx="1966" cy="-92" rx="60.1672" ry="18"/>
<text text-anchor="middle" x="1966" y="-88.3" font-family="Times,serif" font-size="14.00">EmployeePsa</text>
</g>
<!-- Employee&#45;&gt;EmployeePsa -->
<g id="edge20" class="edge"><title>Employee&#45;&gt;EmployeePsa</title>
<path fill="none" stroke="#c259f2" d="M1536.81,-250.622C1624.72,-246.334 1793.12,-236.031 1850,-218 1863.66,-213.669 1865.33,-208.694 1878,-202 1894.17,-193.459 1901.7,-196.55 1915,-184 1934.04,-166.031 1947.84,-139.334 1956.25,-119.499"/>
<ellipse fill="none" stroke="#c259f2" cx="1532.82" cy="-250.814" rx="4" ry="4"/>
<polygon fill="#c259f2" stroke="#c259f2" points="1956.3,-119.379 1964.22,-111.795 1958.17,-114.744 1960.05,-110.108 1960.05,-110.108 1960.05,-110.108 1958.17,-114.744 1955.87,-108.421 1956.3,-119.379 1956.3,-119.379"/>
</g>
<!-- Employee&#45;&gt;Psa -->
<g id="edge21" class="edge"><title>Employee&#45;&gt;Psa</title>
<path fill="none" stroke="#e301e1" d="M1539.02,-250.277C1616.22,-246.064 1758.12,-236.452 1878,-218 1948.42,-207.161 2029.48,-187.591 2074.42,-176.101"/>
<polygon fill="#e301e1" stroke="#e301e1" points="1538.55,-250.302 1528.33,-246.343 1533.56,-250.569 1528.57,-250.836 1528.57,-250.836 1528.57,-250.836 1533.56,-250.569 1528.81,-255.33 1538.55,-250.302 1538.55,-250.302"/>
<polygon fill="#e301e1" stroke="#e301e1" points="2074.56,-176.066 2085.37,-177.929 2079.4,-174.819 2084.25,-173.571 2084.25,-173.571 2084.25,-173.571 2079.4,-174.819 2083.12,-169.214 2074.56,-176.066 2074.56,-176.066"/>
</g>
<!-- EmployeeTerminal -->
<g id="node13" class="node"><title>EmployeeTerminal</title>
<ellipse fill="none" stroke="black" cx="1481" cy="-92" rx="81.3646" ry="18"/>
<text text-anchor="middle" x="1481" y="-88.3" font-family="Times,serif" font-size="14.00">EmployeeTerminal</text>
</g>
<!-- Employee&#45;&gt;EmployeeTerminal -->
<g id="edge22" class="edge"><title>Employee&#45;&gt;EmployeeTerminal</title>
<path fill="none" stroke="#397445" d="M1481.84,-227.704C1481.66,-198.565 1481.36,-150.845 1481.17,-120.72"/>
<ellipse fill="none" stroke="#397445" cx="1481.87" cy="-231.877" rx="4" ry="4"/>
<polygon fill="#397445" stroke="#397445" points="1481.17,-120.485 1485.61,-110.457 1481.14,-115.485 1481.11,-110.485 1481.11,-110.485 1481.11,-110.485 1481.14,-115.485 1476.61,-110.513 1481.17,-120.485 1481.17,-120.485"/>
</g>
<!-- Terminal -->
<g id="node28" class="node"><title>Terminal</title>
<ellipse fill="none" stroke="black" cx="1550" cy="-166" rx="44.2946" ry="18"/>
<text text-anchor="middle" x="1550" y="-162.3" font-family="Times,serif" font-size="14.00">Terminal</text>
</g>
<!-- Employee&#45;&gt;Terminal -->
<g id="edge23" class="edge"><title>Employee&#45;&gt;Terminal</title>
<path fill="none" stroke="#eaf2f9" d="M1501.49,-228.35C1510.71,-216.693 1521.68,-202.823 1530.85,-191.221"/>
<polygon fill="#eaf2f9" stroke="#eaf2f9" points="1501.31,-228.574 1491.58,-233.627 1498.21,-232.496 1495.11,-236.418 1495.11,-236.418 1495.11,-236.418 1498.21,-232.496 1498.64,-239.209 1501.31,-228.574 1501.31,-228.574"/>
<polygon fill="#eaf2f9" stroke="#eaf2f9" points="1530.96,-191.083 1540.69,-186.03 1534.06,-187.161 1537.16,-183.239 1537.16,-183.239 1537.16,-183.239 1534.06,-187.161 1533.63,-180.448 1530.96,-191.083 1530.96,-191.083"/>
</g>
<!-- EmployeeManagerAssignment -->
<g id="node10" class="node"><title>EmployeeManagerAssignment</title>
<ellipse fill="none" stroke="black" cx="1327" cy="-166" rx="123.234" ry="18"/>
<text text-anchor="middle" x="1327" y="-162.3" font-family="Times,serif" font-size="14.00">EmployeeManagerAssignment</text>
</g>
<!-- Employee&#45;&gt;EmployeeManagerAssignment -->
<g id="edge24" class="edge"><title>Employee&#45;&gt;EmployeeManagerAssignment</title>
<path fill="none" stroke="#327c82" d="M1427.3,-249.698C1380.88,-245.618 1319.43,-236.758 1304,-218 1297.8,-210.461 1300.01,-200.981 1304.99,-192.247"/>
<ellipse fill="none" stroke="#327c82" cx="1431.5" cy="-250.049" rx="4" ry="4"/>
<polygon fill="#327c82" stroke="#327c82" points="1305.06,-192.136 1314.4,-186.385 1307.87,-187.998 1310.67,-183.86 1310.67,-183.86 1310.67,-183.86 1307.87,-187.998 1306.95,-181.334 1305.06,-192.136 1305.06,-192.136"/>
</g>
<!-- Employee&#45;&gt;Employee -->
<g id="edge25" class="edge"><title>Employee&#45;&gt;Employee</title>
<path fill="none" stroke="#3d4622" d="M1534.17,-261.461C1541.83,-260.286 1547,-257.799 1547,-254 1547,-250.201 1541.83,-247.714 1534.17,-246.539"/>
<polygon fill="#3d4622" stroke="#3d4622" points="1534.17,-261.461 1523.85,-257.751 1529.18,-261.849 1524.2,-262.237 1524.2,-262.237 1524.2,-262.237 1529.18,-261.849 1524.55,-266.724 1534.17,-261.461 1534.17,-261.461"/>
<polygon fill="#3d4622" stroke="#3d4622" points="1534.17,-246.539 1524.55,-241.276 1529.18,-246.151 1524.2,-245.763 1524.2,-245.763 1524.2,-245.763 1529.18,-246.151 1523.85,-250.249 1534.17,-246.539 1534.17,-246.539"/>
<text text-anchor="middle" x="1574" y="-250.3" font-family="Times,serif" font-size="14.00">managers</text>
</g>
<!-- Employee&#45;&gt;EmployeeManagerAssignment -->
<g id="edge26" class="edge"><title>Employee&#45;&gt;EmployeeManagerAssignment</title>
<path fill="none" stroke="#e58a97" d="M1428.42,-248.237C1387.88,-243.393 1337.03,-234.227 1324,-218 1318.71,-211.411 1317.77,-202.663 1318.68,-194.276"/>
<ellipse fill="none" stroke="#e58a97" cx="1432.4" cy="-248.694" rx="4.00001" ry="4.00001"/>
<polygon fill="#e58a97" stroke="#e58a97" points="1318.69,-194.222 1324.96,-185.224 1319.61,-189.308 1320.54,-184.393 1320.54,-184.393 1320.54,-184.393 1319.61,-189.308 1316.11,-183.563 1318.69,-194.222 1318.69,-194.222"/>
<text text-anchor="middle" x="1396" y="-206.3" font-family="Times,serif" font-size="14.00">subordinate_relationships</text>
</g>
<!-- Employee&#45;&gt;Employee -->
<g id="edge27" class="edge"><title>Employee&#45;&gt;Employee</title>
<path fill="none" stroke="#8d0475" d="M1534.17,-261.461C1541.83,-260.286 1547,-257.799 1547,-254 1547,-250.201 1541.83,-247.714 1534.17,-246.539"/>
<polygon fill="#8d0475" stroke="#8d0475" points="1534.17,-261.461 1523.85,-257.751 1529.18,-261.849 1524.2,-262.237 1524.2,-262.237 1524.2,-262.237 1529.18,-261.849 1524.55,-266.724 1534.17,-261.461 1534.17,-261.461"/>
<polygon fill="#8d0475" stroke="#8d0475" points="1534.17,-246.539 1524.55,-241.276 1529.18,-246.151 1524.2,-245.763 1524.2,-245.763 1524.2,-245.763 1529.18,-246.151 1523.85,-250.249 1534.17,-246.539 1534.17,-246.539"/>
<text text-anchor="middle" x="1582.5" y="-250.3" font-family="Times,serif" font-size="14.00">subordinates</text>
</g>
<!-- EmployeePay -->
<g id="node11" class="node"><title>EmployeePay</title>
<ellipse fill="none" stroke="black" cx="960" cy="-92" rx="61.1419" ry="18"/>
<text text-anchor="middle" x="960" y="-88.3" font-family="Times,serif" font-size="14.00">EmployeePay</text>
</g>
<!-- Employee&#45;&gt;EmployeePay -->
<g id="edge28" class="edge"><title>Employee&#45;&gt;EmployeePay</title>
<path fill="none" stroke="#9d3014" d="M1426.89,-251.328C1316.31,-246.978 1072.28,-232.06 1006,-184 984.913,-168.71 972.87,-140.934 966.44,-120.076"/>
<ellipse fill="none" stroke="#9d3014" cx="1430.94" cy="-251.483" rx="4" ry="4"/>
<polygon fill="#9d3014" stroke="#9d3014" points="966.366,-119.813 967.976,-108.966 965.006,-115.002 963.646,-110.19 963.646,-110.19 963.646,-110.19 965.006,-115.002 959.316,-111.414 966.366,-119.813 966.366,-119.813"/>
</g>
<!-- Pay -->
<g id="node18" class="node"><title>Pay</title>
<ellipse fill="none" stroke="black" cx="932" cy="-166" rx="27" ry="18"/>
<text text-anchor="middle" x="932" y="-162.3" font-family="Times,serif" font-size="14.00">Pay</text>
</g>
<!-- Employee&#45;&gt;Pay -->
<g id="edge29" class="edge"><title>Employee&#45;&gt;Pay</title>
<path fill="none" stroke="#de112f" d="M1424.54,-251.633C1299.8,-248.294 1012.19,-238.46 973,-218 961.784,-212.144 952.567,-201.73 945.732,-191.833"/>
<polygon fill="#de112f" stroke="#de112f" points="1424.67,-251.636 1434.55,-256.397 1429.67,-251.767 1434.67,-251.899 1434.67,-251.899 1434.67,-251.899 1429.67,-251.767 1434.79,-247.4 1424.67,-251.636 1424.67,-251.636"/>
<polygon fill="#de112f" stroke="#de112f" points="945.728,-191.826 944.143,-180.976 943.038,-187.611 940.349,-183.396 940.349,-183.396 940.349,-183.396 943.038,-187.611 936.555,-185.817 945.728,-191.826 945.728,-191.826"/>
</g>
<!-- PayProfile -->
<g id="node19" class="node"><title>PayProfile</title>
<ellipse fill="none" stroke="black" cx="1714" cy="-92" rx="48.6179" ry="18"/>
<text text-anchor="middle" x="1714" y="-88.3" font-family="Times,serif" font-size="14.00">PayProfile</text>
</g>
<!-- Employee&#45;&gt;PayProfile -->
<g id="edge30" class="edge"><title>Employee&#45;&gt;PayProfile</title>
<path fill="none" stroke="#939a73" d="M1517.5,-235.642C1542.38,-222.8 1575.9,-204.11 1603,-184 1621.68,-170.138 1623.24,-163.024 1641,-148 1654.72,-136.4 1670.58,-124.304 1684,-114.419"/>
<ellipse fill="none" stroke="#939a73" cx="1513.64" cy="-237.616" rx="4.00002" ry="4.00002"/>
<polygon fill="#939a73" stroke="#939a73" points="1684.35,-114.166 1695.08,-111.905 1688.39,-111.218 1692.43,-108.271 1692.43,-108.271 1692.43,-108.271 1688.39,-111.218 1689.77,-104.636 1684.35,-114.166 1684.35,-114.166"/>
</g>
<!-- FlatPay -->
<g id="node15" class="node"><title>FlatPay</title>
<ellipse fill="none" stroke="black" cx="1835" cy="-166" rx="38.0212" ry="18"/>
<text text-anchor="middle" x="1835" y="-162.3" font-family="Times,serif" font-size="14.00">FlatPay</text>
</g>
<!-- Employee&#45;&gt;FlatPay -->
<g id="edge31" class="edge"><title>Employee&#45;&gt;FlatPay</title>
<path fill="none" stroke="#aafce8" d="M1534.35,-244.175C1571.08,-237.695 1621.25,-228.262 1665,-218 1719.8,-205.146 1733.33,-200.961 1787,-184 1790.08,-183.028 1793.25,-181.987 1796.44,-180.917"/>
<polygon fill="#aafce8" stroke="#aafce8" points="1534.22,-244.199 1523.59,-241.49 1529.29,-245.061 1524.37,-245.923 1524.37,-245.923 1524.37,-245.923 1529.29,-245.061 1525.14,-250.356 1534.22,-244.199 1534.22,-244.199"/>
<polygon fill="#aafce8" stroke="#aafce8" points="1796.46,-180.909 1807.38,-181.916 1801.19,-179.285 1805.92,-177.66 1805.92,-177.66 1805.92,-177.66 1801.19,-179.285 1804.45,-173.404 1796.46,-180.909 1796.46,-180.909"/>
</g>
<!-- ProductionPay -->
<g id="node20" class="node"><title>ProductionPay</title>
<ellipse fill="none" stroke="black" cx="1714" cy="-166" rx="64.0172" ry="18"/>
<text text-anchor="middle" x="1714" y="-162.3" font-family="Times,serif" font-size="14.00">ProductionPay</text>
</g>
<!-- Employee&#45;&gt;ProductionPay -->
<g id="edge32" class="edge"><title>Employee&#45;&gt;ProductionPay</title>
<path fill="none" stroke="#bdb706" d="M1536.04,-245.558C1566.26,-240.215 1604.14,-231.518 1636,-218 1653.39,-210.621 1671.14,-199.363 1685.31,-189.3"/>
<polygon fill="#bdb706" stroke="#bdb706" points="1535.96,-245.571 1525.35,-242.807 1531.03,-246.407 1526.1,-247.244 1526.1,-247.244 1526.1,-247.244 1531.03,-246.407 1526.85,-251.68 1535.96,-245.571 1535.96,-245.571"/>
<polygon fill="#bdb706" stroke="#bdb706" points="1685.55,-189.124 1696.29,-186.871 1689.59,-186.179 1693.63,-183.234 1693.63,-183.234 1693.63,-183.234 1689.59,-186.179 1690.98,-179.598 1685.55,-189.124 1685.55,-189.124"/>
</g>
<!-- Version -->
<g id="node36" class="node"><title>Version</title>
<ellipse fill="none" stroke="black" cx="847" cy="-166" rx="39.4691" ry="18"/>
<text text-anchor="middle" x="847" y="-162.3" font-family="Times,serif" font-size="14.00">Version</text>
</g>
<!-- Employee&#45;&gt;Version -->
<g id="edge33" class="edge"><title>Employee&#45;&gt;Version</title>
<path fill="none" stroke="#916e80" d="M1426.51,-252.098C1309,-249.74 1038.6,-241.828 950,-218 924.382,-211.11 897.594,-197.622 877.76,-186.247"/>
<ellipse fill="none" stroke="#916e80" cx="1430.7" cy="-252.18" rx="4" ry="4"/>
<polygon fill="#916e80" stroke="#916e80" points="877.513,-186.103 871.171,-177.157 873.203,-183.57 868.892,-181.036 868.892,-181.036 868.892,-181.036 873.203,-183.57 866.612,-184.916 877.513,-186.103 877.513,-186.103"/>
</g>
<!-- FedexContract -->
<g id="node14" class="node"><title>FedexContract</title>
<ellipse fill="none" stroke="black" cx="2288" cy="-457" rx="64.0172" ry="18"/>
<text text-anchor="middle" x="2288" y="-453.3" font-family="Times,serif" font-size="14.00">FedexContract</text>
</g>
<!-- FedexContract&#45;&gt;Business -->
<g id="edge34" class="edge"><title>FedexContract&#45;&gt;Business</title>
<path fill="none" stroke="#088de8" d="M2253.51,-436.686C2241.51,-430.333 2227.83,-423.496 2215,-418 2176.12,-401.352 2130.37,-386.121 2097.59,-375.93"/>
<ellipse fill="none" stroke="#088de8" cx="2257.22" cy="-438.674" rx="4.00002" ry="4.00002"/>
<polygon fill="#088de8" stroke="#088de8" points="2097.41,-375.876 2089.18,-368.632 2092.63,-374.404 2087.86,-372.933 2087.86,-372.933 2087.86,-372.933 2092.63,-374.404 2086.53,-377.234 2097.41,-375.876 2097.41,-375.876"/>
</g>
<!-- FedexContract&#45;&gt;Addendum -->
<g id="edge35" class="edge"><title>FedexContract&#45;&gt;Addendum</title>
<path fill="none" stroke="#2882c1" d="M2288,-430.58C2288,-404.271 2288,-363.319 2288,-336.328"/>
<ellipse fill="none" stroke="#2882c1" cx="2288" cy="-434.85" rx="4" ry="4"/>
<polygon fill="#2882c1" stroke="#2882c1" points="2288,-336.041 2292.5,-326.041 2288,-331.041 2288,-326.041 2288,-326.041 2288,-326.041 2288,-331.041 2283.5,-326.041 2288,-336.041 2288,-336.041"/>
</g>
<!-- FedexContract&#45;&gt;Note -->
<g id="edge36" class="edge"><title>FedexContract&#45;&gt;Note</title>
<path fill="none" stroke="#2d7eed" d="M2314.94,-434.455C2333.19,-417.282 2354,-391.46 2354,-363 2354,-363 2354,-363 2354,-128 2354,-34.6677 2014.12,-21.1688 1897.63,-19.2832"/>
<ellipse fill="none" stroke="#2d7eed" cx="2311.85" cy="-437.254" rx="4.00002" ry="4.00002"/>
<polygon fill="#2d7eed" stroke="#2d7eed" points="1897.39,-19.2799 1887.45,-14.6389 1892.39,-19.2092 1887.39,-19.1385 1887.39,-19.1385 1887.39,-19.1385 1892.39,-19.2092 1887.33,-23.638 1897.39,-19.2799 1897.39,-19.2799"/>
</g>
<!-- FlatPay&#45;&gt;PayProfile -->
<g id="edge37" class="edge"><title>FlatPay&#45;&gt;PayProfile</title>
<path fill="none" stroke="#aab6f1" d="M1805.3,-147.327C1787.89,-136.969 1765.85,-123.851 1747.78,-113.1"/>
<ellipse fill="none" stroke="#aab6f1" cx="1808.8" cy="-149.412" rx="4.00002" ry="4.00002"/>
<polygon fill="#aab6f1" stroke="#aab6f1" points="1747.33,-112.835 1741.04,-103.854 1743.04,-110.278 1738.74,-107.721 1738.74,-107.721 1738.74,-107.721 1743.04,-110.278 1736.44,-111.588 1747.33,-112.835 1747.33,-112.835"/>
</g>
<!-- Frequency -->
<g id="node16" class="node"><title>Frequency</title>
<ellipse fill="none" stroke="black" cx="1835" cy="-254" rx="49.0941" ry="18"/>
<text text-anchor="middle" x="1835" y="-250.3" font-family="Times,serif" font-size="14.00">Frequency</text>
</g>
<!-- Frequency&#45;&gt;FlatPay -->
<g id="edge38" class="edge"><title>Frequency&#45;&gt;FlatPay</title>
<path fill="none" stroke="#3ab7f2" d="M1835,-227.339C1835,-216.855 1835,-204.718 1835,-194.091"/>
<ellipse fill="none" stroke="#3ab7f2" cx="1835" cy="-231.597" rx="4" ry="4"/>
<polygon fill="#3ab7f2" stroke="#3ab7f2" points="1835,-194.084 1839.5,-184.084 1835,-189.084 1835,-184.084 1835,-184.084 1835,-184.084 1835,-189.084 1830.5,-184.084 1835,-194.084 1835,-194.084"/>
</g>
<!-- Pay&#45;&gt;EmployeePay -->
<g id="edge39" class="edge"><title>Pay&#45;&gt;EmployeePay</title>
<path fill="none" stroke="#ae26ce" d="M941.482,-140.619C944.101,-133.884 946.956,-126.541 949.623,-119.683"/>
<ellipse fill="none" stroke="#ae26ce" cx="939.944" cy="-144.573" rx="4.00001" ry="4.00001"/>
<polygon fill="#ae26ce" stroke="#ae26ce" points="949.722,-119.429 957.541,-111.74 951.534,-114.769 953.347,-110.109 953.347,-110.109 953.347,-110.109 951.534,-114.769 949.153,-108.478 949.722,-119.429 949.722,-119.429"/>
</g>
<!-- ProductionPay&#45;&gt;PayProfile -->
<g id="edge40" class="edge"><title>ProductionPay&#45;&gt;PayProfile</title>
<path fill="none" stroke="#5ce6c1" d="M1714,-139.792C1714,-133.58 1714,-126.896 1714,-120.579"/>
<ellipse fill="none" stroke="#5ce6c1" cx="1714" cy="-143.937" rx="4" ry="4"/>
<polygon fill="#5ce6c1" stroke="#5ce6c1" points="1714,-120.441 1718.5,-110.441 1714,-115.441 1714,-110.441 1714,-110.441 1714,-110.441 1714,-115.441 1709.5,-110.441 1714,-120.441 1714,-120.441"/>
</g>
<!-- Psa&#45;&gt;Note -->
<g id="edge41" class="edge"><title>Psa&#45;&gt;Note</title>
<path fill="none" stroke="#ef588b" d="M2106.83,-139.543C2103.21,-113.9 2093.59,-75.1845 2068,-54 2042.63,-32.9966 1950.5,-24.2517 1897.41,-20.8925"/>
<ellipse fill="none" stroke="#ef588b" cx="2107.34" cy="-143.725" rx="4.00001" ry="4.00001"/>
<polygon fill="#ef588b" stroke="#ef588b" points="1897.33,-20.8876 1887.61,-15.7984 1892.34,-20.589 1887.34,-20.2904 1887.34,-20.2904 1887.34,-20.2904 1892.34,-20.589 1887.08,-24.7824 1897.33,-20.8876 1897.33,-20.8876"/>
</g>
<!-- Psazip -->
<g id="node23" class="node"><title>Psazip</title>
<ellipse fill="none" stroke="black" cx="2222" cy="-18" rx="34.1708" ry="18"/>
<text text-anchor="middle" x="2222" y="-14.3" font-family="Times,serif" font-size="14.00">Psazip</text>
</g>
<!-- Psa&#45;&gt;Psazip -->
<g id="edge42" class="edge"><title>Psa&#45;&gt;Psazip</title>
<path fill="none" stroke="#0cebe9" d="M2144.18,-163.024C2179.57,-158.941 2232.46,-146.652 2258,-110 2272.47,-89.2362 2257.91,-61.8264 2243.21,-42.5346"/>
<ellipse fill="none" stroke="#0cebe9" cx="2140" cy="-163.45" rx="4" ry="4"/>
<polygon fill="#0cebe9" stroke="#0cebe9" points="2243.05,-42.3328 2240.27,-31.7249 2239.9,-38.442 2236.76,-34.5512 2236.76,-34.5512 2236.76,-34.5512 2239.9,-38.442 2233.26,-37.3776 2243.05,-42.3328 2243.05,-42.3328"/>
</g>
<!-- Zip -->
<g id="node35" class="node"><title>Zip</title>
<ellipse fill="none" stroke="black" cx="2147" cy="-92" rx="27" ry="18"/>
<text text-anchor="middle" x="2147" y="-88.3" font-family="Times,serif" font-size="14.00">Zip</text>
</g>
<!-- Psa&#45;&gt;Zip -->
<g id="edge43" class="edge"><title>Psa&#45;&gt;Zip</title>
<path fill="none" stroke="#fc1fc2" d="M2122.29,-139.813C2125.97,-132.846 2129.96,-125.282 2133.64,-118.308"/>
<polygon fill="#fc1fc2" stroke="#fc1fc2" points="2122.29,-139.818 2113.64,-146.562 2119.96,-144.24 2117.62,-148.662 2117.62,-148.662 2117.62,-148.662 2119.96,-144.24 2121.6,-150.763 2122.29,-139.818 2122.29,-139.818"/>
<polygon fill="#fc1fc2" stroke="#fc1fc2" points="2133.74,-118.117 2142.39,-111.374 2136.08,-113.695 2138.41,-109.273 2138.41,-109.273 2138.41,-109.273 2136.08,-113.695 2134.43,-107.173 2133.74,-118.117 2133.74,-118.117"/>
</g>
<!-- PsaState -->
<g id="node22" class="node"><title>PsaState</title>
<ellipse fill="none" stroke="black" cx="2367" cy="-18" rx="41.394" ry="18"/>
<text text-anchor="middle" x="2367" y="-14.3" font-family="Times,serif" font-size="14.00">PsaState</text>
</g>
<!-- Psa&#45;&gt;PsaState -->
<g id="edge44" class="edge"><title>Psa&#45;&gt;PsaState</title>
<path fill="none" stroke="#d675d5" d="M2144.18,-161.958C2175.02,-158.074 2220.24,-149.358 2255,-130 2294.11,-108.221 2328.95,-68.9785 2349.02,-43.4665"/>
<ellipse fill="none" stroke="#d675d5" cx="2139.85" cy="-162.464" rx="4.00001" ry="4.00001"/>
<polygon fill="#d675d5" stroke="#d675d5" points="2349.14,-43.3079 2358.81,-38.1324 2352.2,-39.347 2355.25,-35.3861 2355.25,-35.3861 2355.25,-35.3861 2352.2,-39.347 2351.68,-32.6398 2349.14,-43.3079 2349.14,-43.3079"/>
</g>
<!-- State -->
<g id="node27" class="node"><title>State</title>
<ellipse fill="none" stroke="black" cx="2221" cy="-92" rx="28.3955" ry="18"/>
<text text-anchor="middle" x="2221" y="-88.3" font-family="Times,serif" font-size="14.00">State</text>
</g>
<!-- Psa&#45;&gt;State -->
<g id="edge45" class="edge"><title>Psa&#45;&gt;State</title>
<path fill="none" stroke="#d19240" d="M2136.25,-147.481C2153.54,-136.368 2175.84,-122.032 2193.23,-110.855"/>
<polygon fill="#d19240" stroke="#d19240" points="2136.16,-147.541 2125.31,-149.164 2131.95,-150.245 2127.75,-152.949 2127.75,-152.949 2127.75,-152.949 2131.95,-150.245 2130.18,-156.734 2136.16,-147.541 2136.16,-147.541"/>
<polygon fill="#d19240" stroke="#d19240" points="2193.41,-110.739 2204.25,-109.117 2197.61,-108.036 2201.82,-105.332 2201.82,-105.332 2201.82,-105.332 2197.61,-108.036 2199.38,-101.547 2193.41,-110.739 2193.41,-110.739"/>
</g>
<!-- Psa&#45;&gt;EmployeePsa -->
<g id="edge46" class="edge"><title>Psa&#45;&gt;EmployeePsa</title>
<path fill="none" stroke="#4b318d" d="M2080.62,-150.71C2058.84,-139.744 2028.54,-124.488 2004.56,-112.416"/>
<ellipse fill="none" stroke="#4b318d" cx="2084.33" cy="-152.577" rx="4.00002" ry="4.00002"/>
<polygon fill="#4b318d" stroke="#4b318d" points="2004.32,-112.292 1997.41,-103.775 1999.85,-110.043 1995.38,-107.794 1995.38,-107.794 1995.38,-107.794 1999.85,-110.043 1993.36,-111.814 2004.32,-112.292 2004.32,-112.292"/>
</g>
<!-- Region -->
<g id="node24" class="node"><title>Region</title>
<ellipse fill="none" stroke="black" cx="1939" cy="-254" rx="37.0701" ry="18"/>
<text text-anchor="middle" x="1939" y="-250.3" font-family="Times,serif" font-size="14.00">Region</text>
</g>
<!-- Region&#45;&gt;Psa -->
<g id="edge47" class="edge"><title>Region&#45;&gt;Psa</title>
<path fill="none" stroke="#d5e0d0" d="M1957.14,-230.278C1966.1,-220.359 1977.63,-209.341 1990,-202 2015.6,-186.803 2048.26,-177.812 2072.88,-172.757"/>
<ellipse fill="none" stroke="#d5e0d0" cx="1954.27" cy="-233.572" rx="4.00002" ry="4.00002"/>
<polygon fill="#d5e0d0" stroke="#d5e0d0" points="2073.08,-172.719 2083.75,-175.243 2077.99,-171.771 2082.9,-170.824 2082.9,-170.824 2082.9,-170.824 2077.99,-171.771 2082.05,-166.406 2073.08,-172.719 2073.08,-172.719"/>
</g>
<!-- Region&#45;&gt;Terminal -->
<g id="edge48" class="edge"><title>Region&#45;&gt;Terminal</title>
<path fill="none" stroke="#d7202e" d="M1903.43,-239.236C1899.93,-238.068 1896.41,-236.967 1893,-236 1865.03,-228.072 1687.12,-193.421 1599.13,-176.444"/>
<ellipse fill="none" stroke="#d7202e" cx="1907.23" cy="-240.557" rx="4.00001" ry="4.00001"/>
<polygon fill="#d7202e" stroke="#d7202e" points="1598.94,-176.406 1589.97,-170.094 1594.03,-175.46 1589.12,-174.513 1589.12,-174.513 1589.12,-174.513 1594.03,-175.46 1588.27,-178.932 1598.94,-176.406 1598.94,-176.406"/>
</g>
<!-- Region&#45;&gt;Note -->
<g id="edge49" class="edge"><title>Region&#45;&gt;Note</title>
<path fill="none" stroke="#4f4a72" d="M1934.86,-227.946C1930.93,-206.401 1924.24,-174.673 1915,-148 1908.88,-130.342 1904.6,-127.071 1897,-110 1887.3,-88.2263 1876.91,-63.222 1869.45,-44.9403"/>
<ellipse fill="none" stroke="#4f4a72" cx="1935.58" cy="-232.014" rx="4.00001" ry="4.00001"/>
<polygon fill="#4f4a72" stroke="#4f4a72" points="1869.4,-44.803 1869.8,-33.8446 1867.52,-40.1708 1865.63,-35.5386 1865.63,-35.5386 1865.63,-35.5386 1867.52,-40.1708 1861.47,-37.2327 1869.4,-44.803 1869.4,-44.803"/>
</g>
<!-- Role -->
<g id="node25" class="node"><title>Role</title>
<ellipse fill="none" stroke="black" cx="669" cy="-166" rx="27.4223" ry="18"/>
<text text-anchor="middle" x="669" y="-162.3" font-family="Times,serif" font-size="14.00">Role</text>
</g>
<!-- UserRole -->
<g id="node30" class="node"><title>UserRole</title>
<ellipse fill="none" stroke="black" cx="690" cy="-92" rx="44.271" ry="18"/>
<text text-anchor="middle" x="690" y="-88.3" font-family="Times,serif" font-size="14.00">UserRole</text>
</g>
<!-- Role&#45;&gt;UserRole -->
<g id="edge50" class="edge"><title>Role&#45;&gt;UserRole</title>
<path fill="none" stroke="#8cc61b" d="M676.302,-139.965C678.201,-133.452 680.255,-126.41 682.181,-119.809"/>
<ellipse fill="none" stroke="#8cc61b" cx="675.097" cy="-144.097" rx="4.00001" ry="4.00001"/>
<polygon fill="#8cc61b" stroke="#8cc61b" points="682.259,-119.541 689.379,-111.201 683.659,-114.741 685.059,-109.941 685.059,-109.941 685.059,-109.941 683.659,-114.741 680.739,-108.68 682.259,-119.541 682.259,-119.541"/>
</g>
<!-- Role&#45;&gt;Role -->
<g id="edge51" class="edge"><title>Role&#45;&gt;Role</title>
<path fill="none" stroke="#9e29ec" d="M705.12,-172.104C710.422,-171.143 714,-169.108 714,-166 714,-162.892 710.422,-160.857 705.12,-159.896"/>
<polygon fill="#9e29ec" stroke="#9e29ec" points="704.879,-172.118 694.63,-168.217 699.887,-172.414 694.896,-172.709 694.896,-172.709 694.896,-172.709 699.887,-172.414 695.162,-177.201 704.879,-172.118 704.879,-172.118"/>
<polygon fill="#9e29ec" stroke="#9e29ec" points="704.879,-159.882 695.162,-154.799 699.887,-159.586 694.896,-159.291 694.896,-159.291 694.896,-159.291 699.887,-159.586 694.63,-163.783 704.879,-159.882 704.879,-159.882"/>
</g>
<!-- ServiceType -->
<g id="node26" class="node"><title>ServiceType</title>
<ellipse fill="none" stroke="black" cx="1303" cy="-362" rx="56.3173" ry="18"/>
<text text-anchor="middle" x="1303" y="-358.3" font-family="Times,serif" font-size="14.00">ServiceType</text>
</g>
<!-- ServiceType&#45;&gt;Vehicle -->
<g id="edge52" class="edge"><title>ServiceType&#45;&gt;Vehicle</title>
<path fill="none" stroke="#a2356c" d="M1238.64,-359.481C1085.67,-355.616 703.699,-344.39 577,-326 486.937,-312.928 384.005,-284.391 328.218,-267.75"/>
<ellipse fill="none" stroke="#a2356c" cx="1243.06" cy="-359.592" rx="4" ry="4"/>
<polygon fill="#a2356c" stroke="#a2356c" points="327.94,-267.666 319.659,-260.478 323.152,-266.227 318.363,-264.787 318.363,-264.787 318.363,-264.787 323.152,-266.227 317.068,-269.097 327.94,-267.666 327.94,-267.666"/>
</g>
<!-- ServiceType&#45;&gt;Psa -->
<g id="edge53" class="edge"><title>ServiceType&#45;&gt;Psa</title>
<path fill="none" stroke="#701f65" d="M1365.85,-357.34C1512.76,-348.063 1874.53,-320.829 1985,-272 2027.84,-253.065 2067.27,-214.525 2089.69,-189.774"/>
<ellipse fill="none" stroke="#701f65" cx="1361.75" cy="-357.597" rx="4" ry="4"/>
<polygon fill="#701f65" stroke="#701f65" points="2089.72,-189.744 2099.72,-185.253 2093.04,-186.005 2096.36,-182.265 2096.36,-182.265 2096.36,-182.265 2093.04,-186.005 2092.99,-179.278 2089.72,-189.744 2089.72,-189.744"/>
</g>
<!-- State&#45;&gt;PsaState -->
<g id="edge54" class="edge"><title>State&#45;&gt;PsaState</title>
<path fill="none" stroke="#033013" d="M2250.31,-76.5436C2273.77,-64.9744 2306.76,-48.7096 2331.67,-36.4222"/>
<ellipse fill="none" stroke="#033013" cx="2246.45" cy="-78.4517" rx="4.00002" ry="4.00002"/>
<polygon fill="#033013" stroke="#033013" points="2331.82,-36.3487 2342.78,-35.9617 2336.31,-34.1372 2340.79,-31.9257 2340.79,-31.9257 2340.79,-31.9257 2336.31,-34.1372 2338.8,-27.8898 2331.82,-36.3487 2331.82,-36.3487"/>
</g>
<!-- State&#45;&gt;Note -->
<g id="edge55" class="edge"><title>State&#45;&gt;Note</title>
<path fill="none" stroke="#d6508a" d="M2190.84,-77.1661C2188.2,-76.0605 2185.56,-74.9899 2183,-74 2156.39,-63.7161 2149.81,-60.3533 2122,-54 2043.02,-35.9594 1948.42,-26.1871 1896.95,-21.8375"/>
<ellipse fill="none" stroke="#d6508a" cx="2194.99" cy="-78.9566" rx="4.00001" ry="4.00001"/>
<polygon fill="#d6508a" stroke="#d6508a" points="1896.91,-21.8344 1887.31,-16.5299 1891.92,-21.4246 1886.94,-21.0148 1886.94,-21.0148 1886.94,-21.0148 1891.92,-21.4246 1886.57,-25.4997 1896.91,-21.8344 1896.91,-21.8344"/>
</g>
<!-- Terminal&#45;&gt;Note -->
<g id="edge56" class="edge"><title>Terminal&#45;&gt;Note</title>
<path fill="none" stroke="#15472d" d="M1570.02,-142.874C1589.92,-122.185 1622.25,-91.8717 1656,-74 1709.55,-45.6457 1778.97,-30.941 1821.19,-24.104"/>
<ellipse fill="none" stroke="#15472d" cx="1567.26" cy="-145.794" rx="4.00002" ry="4.00002"/>
<polygon fill="#15472d" stroke="#15472d" points="1821.43,-24.0668 1832,-26.9784 1826.37,-23.2993 1831.31,-22.5317 1831.31,-22.5317 1831.31,-22.5317 1826.37,-23.2993 1830.62,-18.0851 1821.43,-24.0668 1821.43,-24.0668"/>
</g>
<!-- Terminal&#45;&gt;EmployeeTerminal -->
<g id="edge57" class="edge"><title>Terminal&#45;&gt;EmployeeTerminal</title>
<path fill="none" stroke="#ab4a1b" d="M1528.89,-142.973C1521.03,-134.769 1512.07,-125.419 1504.04,-117.043"/>
<ellipse fill="none" stroke="#ab4a1b" cx="1531.92" cy="-146.133" rx="4.00002" ry="4.00002"/>
<polygon fill="#ab4a1b" stroke="#ab4a1b" points="1503.91,-116.905 1500.24,-106.571 1500.45,-113.295 1496.99,-109.685 1496.99,-109.685 1496.99,-109.685 1500.45,-113.295 1493.74,-112.799 1503.91,-116.905 1503.91,-116.905"/>
</g>
<!-- User&#45;&gt;UserRole -->
<g id="edge58" class="edge"><title>User&#45;&gt;UserRole</title>
<path fill="none" stroke="#670be8" d="M740.761,-144.476C732.1,-135.693 721.942,-125.391 712.997,-116.321"/>
<ellipse fill="none" stroke="#670be8" cx="743.823" cy="-147.582" rx="4.00002" ry="4.00002"/>
<polygon fill="#670be8" stroke="#670be8" points="712.85,-116.172 709.033,-105.892 709.34,-112.612 705.829,-109.052 705.829,-109.052 705.829,-109.052 709.34,-112.612 702.625,-112.211 712.85,-116.172 712.85,-116.172"/>
</g>
<!-- Vehicle&#45;&gt;Note -->
<g id="edge59" class="edge"><title>Vehicle&#45;&gt;Note</title>
<path fill="none" stroke="#0341ee" d="M294.623,-228.095C302.916,-204.687 318.258,-170.045 342,-148 428.684,-67.512 473.856,-70.4244 591,-54 837.294,-19.4678 1636.03,-18.6251 1820.66,-18.9053"/>
<ellipse fill="none" stroke="#0341ee" cx="293.268" cy="-232.08" rx="4.00001" ry="4.00001"/>
<polygon fill="#0341ee" stroke="#0341ee" points="1820.71,-18.9053 1830.71,-23.4226 1825.71,-18.9139 1830.71,-18.9226 1830.71,-18.9226 1830.71,-18.9226 1825.71,-18.9139 1830.72,-14.4226 1820.71,-18.9053 1820.71,-18.9053"/>
</g>
<!-- Vehicle&#45;&gt;DailyDataVehicle -->
<g id="edge60" class="edge"><title>Vehicle&#45;&gt;DailyDataVehicle</title>
<path fill="none" stroke="#17e908" d="M268.916,-230.46C259.431,-218.639 247.789,-204.129 238.032,-191.968"/>
<ellipse fill="none" stroke="#17e908" cx="271.518" cy="-233.704" rx="4.00002" ry="4.00002"/>
<polygon fill="#17e908" stroke="#17e908" points="237.886,-191.786 235.138,-181.17 234.757,-187.886 231.628,-183.986 231.628,-183.986 231.628,-183.986 234.757,-187.886 228.118,-186.802 237.886,-191.786 237.886,-191.786"/>
</g>
<!-- VehicleFuel -->
<g id="node32" class="node"><title>VehicleFuel</title>
<ellipse fill="none" stroke="black" cx="55" cy="-362" rx="55.3682" ry="18"/>
<text text-anchor="middle" x="55" y="-358.3" font-family="Times,serif" font-size="14.00">VehicleFuel</text>
</g>
<!-- VehicleFuel&#45;&gt;Vehicle -->
<g id="edge61" class="edge"><title>VehicleFuel&#45;&gt;Vehicle</title>
<path fill="none" stroke="#8190e6" d="M93.0886,-343.597C136.914,-323.574 208.329,-290.944 251.176,-271.368"/>
<ellipse fill="none" stroke="#8190e6" cx="89.446" cy="-345.262" rx="4.00002" ry="4.00002"/>
<polygon fill="#8190e6" stroke="#8190e6" points="251.288,-271.317 262.253,-271.254 255.835,-269.239 260.383,-267.161 260.383,-267.161 260.383,-267.161 255.835,-269.239 258.513,-263.068 251.288,-271.317 251.288,-271.317"/>
</g>
<!-- VehicleOdometer -->
<g id="node33" class="node"><title>VehicleOdometer</title>
<ellipse fill="none" stroke="black" cx="204" cy="-362" rx="75.0904" ry="18"/>
<text text-anchor="middle" x="204" y="-358.3" font-family="Times,serif" font-size="14.00">VehicleOdometer</text>
</g>
<!-- VehicleOdometer&#45;&gt;Vehicle -->
<g id="edge62" class="edge"><title>VehicleOdometer&#45;&gt;Vehicle</title>
<path fill="none" stroke="#2f4f87" d="M222.403,-337.498C235.931,-320.221 254.263,-296.808 267.943,-279.338"/>
<ellipse fill="none" stroke="#2f4f87" cx="219.801" cy="-340.82" rx="4.00002" ry="4.00002"/>
<polygon fill="#2f4f87" stroke="#2f4f87" points="268.078,-279.166 277.786,-274.067 271.16,-275.229 274.243,-271.292 274.243,-271.292 274.243,-271.292 271.16,-275.229 270.7,-268.518 268.078,-279.166 268.078,-279.166"/>
</g>
<!-- VehicleType -->
<g id="node34" class="node"><title>VehicleType</title>
<ellipse fill="none" stroke="black" cx="355" cy="-362" rx="57.2688" ry="18"/>
<text text-anchor="middle" x="355" y="-358.3" font-family="Times,serif" font-size="14.00">VehicleType</text>
</g>
<!-- VehicleType&#45;&gt;Vehicle -->
<g id="edge63" class="edge"><title>VehicleType&#45;&gt;Vehicle</title>
<path fill="none" stroke="#f9d5fa" d="M329.11,-339.119C325.088,-335.015 321.21,-330.57 318,-326 308.481,-312.45 300.948,-295.512 295.692,-281.578"/>
<ellipse fill="none" stroke="#f9d5fa" cx="332.168" cy="-342.08" rx="4.00002" ry="4.00002"/>
<polygon fill="#f9d5fa" stroke="#f9d5fa" points="295.652,-281.466 296.507,-270.533 293.962,-276.76 292.272,-272.054 292.272,-272.054 292.272,-272.054 293.962,-276.76 288.037,-273.575 295.652,-281.466 295.652,-281.466"/>
</g>
<!-- Zip&#45;&gt;Psazip -->
<g id="edge64" class="edge"><title>Zip&#45;&gt;Psazip</title>
<path fill="none" stroke="#537e50" d="M2167.86,-70.976C2177.52,-61.6977 2189.04,-50.6433 2198.96,-41.1195"/>
<ellipse fill="none" stroke="#537e50" cx="2164.7" cy="-74.005" rx="4.00002" ry="4.00002"/>
<polygon fill="#537e50" stroke="#537e50" points="2198.96,-41.115 2209.29,-37.4359 2202.57,-37.6523 2206.18,-34.1896 2206.18,-34.1896 2206.18,-34.1896 2202.57,-37.6523 2203.06,-30.9434 2198.96,-41.115 2198.96,-41.115"/>
</g>
<!-- Zip&#45;&gt;Note -->
<g id="edge65" class="edge"><title>Zip&#45;&gt;Note</title>
<path fill="none" stroke="#e33263" d="M2128.44,-69.9861C2121.94,-63.8849 2114.21,-57.8385 2106,-54 2069.73,-37.0374 1957,-26.3195 1897.18,-21.6745"/>
<ellipse fill="none" stroke="#e33263" cx="2131.65" cy="-73.1998" rx="4.00002" ry="4.00002"/>
<polygon fill="#e33263" stroke="#e33263" points="1896.98,-21.6591 1887.35,-16.4163 1891.99,-21.2813 1887.01,-20.9034 1887.01,-20.9034 1887.01,-20.9034 1891.99,-21.2813 1886.67,-25.3905 1896.98,-21.6591 1896.98,-21.6591"/>
</g>
</g>
</svg>
