<?xml version="1.0" encoding="UTF-8" standalone="no"?>
<!DOCTYPE svg PUBLIC "-//W3C//DTD SVG 1.1//EN"
 "http://www.w3.org/Graphics/SVG/1.1/DTD/svg11.dtd">
<!-- Generated by graphviz version 2.29.20121209.0545 (20121209.0545)
 -->
<!-- Title: models_diagram Pages: 1 -->
<svg width="2341pt" height="568pt"
 viewBox="0.00 0.00 2341.00 568.00" xmlns="http://www.w3.org/2000/svg" xmlns:xlink="http://www.w3.org/1999/xlink">
<g id="graph0" class="graph" transform="scale(1 1) rotate(0) translate(4 564)">
<title>models_diagram</title>
<polygon fill="white" stroke="white" points="-4,5 -4,-564 2338,-564 2338,5 -4,5"/>
<!-- _diagram_info -->
<g id="node1" class="node"><title>_diagram_info</title>
<text text-anchor="start" x="8" y="-470.6" font-family="Times,serif" font-size="13.00">Models diagram</text>
<text text-anchor="start" x="8" y="-456.6" font-family="Times,serif" font-size="13.00">Date: Dec 10 2012 &#45; 01:23</text>
<text text-anchor="start" x="8" y="-442.6" font-family="Times,serif" font-size="13.00">Migration version: 20121210034931</text>
<text text-anchor="start" x="8" y="-428.6" font-family="Times,serif" font-size="13.00">Generated by RailRoady 1.1.0</text>
<text text-anchor="start" x="8" y="-414.6" font-family="Times,serif" font-size="13.00">http://railroady.prestonlee.com</text>
</g>
<!-- Addendum -->
<g id="node2" class="node"><title>Addendum</title>
<path fill="none" stroke="black" d="M238,-355.5C238,-355.5 476,-355.5 476,-355.5 482,-355.5 488,-361.5 488,-367.5 488,-367.5 488,-524.5 488,-524.5 488,-530.5 482,-536.5 476,-536.5 476,-536.5 238,-536.5 238,-536.5 232,-536.5 226,-530.5 226,-524.5 226,-524.5 226,-367.5 226,-367.5 226,-361.5 232,-355.5 238,-355.5"/>
<text text-anchor="middle" x="357" y="-521.3" font-family="Times,serif" font-size="14.00">Addendum</text>
<polyline fill="none" stroke="black" points="226,-513.5 488,-513.5 "/>
<text text-anchor="start" x="234" y="-498.3" font-family="Times,serif" font-size="14.00">id :integer</text>
<text text-anchor="start" x="234" y="-483.3" font-family="Times,serif" font-size="14.00">fedexAddendumName :string</text>
<text text-anchor="start" x="234" y="-468.3" font-family="Times,serif" font-size="14.00">fedexAddendumNumber :integer</text>
<text text-anchor="start" x="234" y="-453.3" font-family="Times,serif" font-size="14.00">fedexContractorAddendumName :string</text>
<text text-anchor="start" x="234" y="-438.3" font-family="Times,serif" font-size="14.00">fedexContractorAddendumNumber :integer</text>
<text text-anchor="start" x="234" y="-423.3" font-family="Times,serif" font-size="14.00">content :text</text>
<text text-anchor="start" x="234" y="-408.3" font-family="Times,serif" font-size="14.00">startDate :datetime</text>
<text text-anchor="start" x="234" y="-393.3" font-family="Times,serif" font-size="14.00">endDate :datetime</text>
<text text-anchor="start" x="234" y="-378.3" font-family="Times,serif" font-size="14.00">created_at :datetime</text>
<text text-anchor="start" x="234" y="-363.3" font-family="Times,serif" font-size="14.00">updated_at :datetime</text>
</g>
<!-- Note -->
<g id="node5" class="node"><title>Note</title>
<path fill="none" stroke="black" d="M560,-144.5C560,-144.5 670,-144.5 670,-144.5 676,-144.5 682,-150.5 682,-156.5 682,-156.5 682,-283.5 682,-283.5 682,-289.5 676,-295.5 670,-295.5 670,-295.5 560,-295.5 560,-295.5 554,-295.5 548,-289.5 548,-283.5 548,-283.5 548,-156.5 548,-156.5 548,-150.5 554,-144.5 560,-144.5"/>
<text text-anchor="middle" x="615" y="-280.3" font-family="Times,serif" font-size="14.00">Note</text>
<polyline fill="none" stroke="black" points="548,-272.5 682,-272.5 "/>
<text text-anchor="start" x="556" y="-257.3" font-family="Times,serif" font-size="14.00">id :integer</text>
<text text-anchor="start" x="556" y="-242.3" font-family="Times,serif" font-size="14.00">notable_id :integer</text>
<text text-anchor="start" x="556" y="-227.3" font-family="Times,serif" font-size="14.00">notable_type :string</text>
<text text-anchor="start" x="556" y="-212.3" font-family="Times,serif" font-size="14.00">content :text</text>
<text text-anchor="start" x="556" y="-197.3" font-family="Times,serif" font-size="14.00">startDate :datetime</text>
<text text-anchor="start" x="556" y="-182.3" font-family="Times,serif" font-size="14.00">endDate :datetime</text>
<text text-anchor="start" x="556" y="-167.3" font-family="Times,serif" font-size="14.00">created_at :datetime</text>
<text text-anchor="start" x="556" y="-152.3" font-family="Times,serif" font-size="14.00">updated_at :datetime</text>
</g>
<!-- Addendum&#45;&gt;Note -->
<g id="edge1" class="edge"><title>Addendum&#45;&gt;Note</title>
<path fill="none" stroke="#04f9e2" d="M466.687,-349.768C491.468,-328.253 517.221,-305.893 540.178,-285.962"/>
<ellipse fill="none" stroke="#04f9e2" cx="463.472" cy="-352.559" rx="4.00002" ry="4.00002"/>
<polygon fill="#04f9e2" stroke="#04f9e2" points="540.299,-285.857 550.8,-282.699 544.075,-282.579 547.85,-279.301 547.85,-279.301 547.85,-279.301 544.075,-282.579 544.9,-275.903 540.299,-285.857 540.299,-285.857"/>
</g>
<!-- Employee -->
<g id="node3" class="node"><title>Employee</title>
<path fill="none" stroke="black" d="M753.5,-333C753.5,-333 894.5,-333 894.5,-333 900.5,-333 906.5,-339 906.5,-345 906.5,-345 906.5,-547 906.5,-547 906.5,-553 900.5,-559 894.5,-559 894.5,-559 753.5,-559 753.5,-559 747.5,-559 741.5,-553 741.5,-547 741.5,-547 741.5,-345 741.5,-345 741.5,-339 747.5,-333 753.5,-333"/>
<text text-anchor="middle" x="824" y="-543.8" font-family="Times,serif" font-size="14.00">Employee</text>
<polyline fill="none" stroke="black" points="741.5,-536 906.5,-536 "/>
<text text-anchor="start" x="749.5" y="-520.8" font-family="Times,serif" font-size="14.00">id :integer</text>
<text text-anchor="start" x="749.5" y="-505.8" font-family="Times,serif" font-size="14.00">firstName :string</text>
<text text-anchor="start" x="749.5" y="-490.8" font-family="Times,serif" font-size="14.00">lastName :string</text>
<text text-anchor="start" x="749.5" y="-475.8" font-family="Times,serif" font-size="14.00">fedexNumber :integer</text>
<text text-anchor="start" x="749.5" y="-460.8" font-family="Times,serif" font-size="14.00">contractorNumber :integer</text>
<text text-anchor="start" x="749.5" y="-445.8" font-family="Times,serif" font-size="14.00">hireDate :date</text>
<text text-anchor="start" x="749.5" y="-430.8" font-family="Times,serif" font-size="14.00">dateOfBirth :date</text>
<text text-anchor="start" x="749.5" y="-415.8" font-family="Times,serif" font-size="14.00">activeBoolean :boolean</text>
<text text-anchor="start" x="749.5" y="-400.8" font-family="Times,serif" font-size="14.00">startDate :datetime</text>
<text text-anchor="start" x="749.5" y="-385.8" font-family="Times,serif" font-size="14.00">endDate :datetime</text>
<text text-anchor="start" x="749.5" y="-370.8" font-family="Times,serif" font-size="14.00">terminationDate :datetime</text>
<text text-anchor="start" x="749.5" y="-355.8" font-family="Times,serif" font-size="14.00">created_at :datetime</text>
<text text-anchor="start" x="749.5" y="-340.8" font-family="Times,serif" font-size="14.00">updated_at :datetime</text>
</g>
<!-- Employee&#45;&gt;Note -->
<g id="edge2" class="edge"><title>Employee&#45;&gt;Note</title>
<path fill="none" stroke="#b72d80" d="M735.781,-336.112C734.518,-334.728 733.258,-333.357 732,-332 718.709,-317.661 703.963,-302.886 689.546,-288.98"/>
<ellipse fill="none" stroke="#b72d80" cx="738.647" cy="-339.287" rx="4.00002" ry="4.00002"/>
<polygon fill="#b72d80" stroke="#b72d80" points="689.266,-288.712 685.159,-278.544 685.656,-285.253 682.046,-281.794 682.046,-281.794 682.046,-281.794 685.656,-285.253 678.932,-285.043 689.266,-288.712 689.266,-288.712"/>
</g>
<!-- User -->
<g id="node13" class="node"><title>User</title>
<path fill="none" stroke="black" d="M804,-159.5C804,-159.5 952,-159.5 952,-159.5 958,-159.5 964,-165.5 964,-171.5 964,-171.5 964,-268.5 964,-268.5 964,-274.5 958,-280.5 952,-280.5 952,-280.5 804,-280.5 804,-280.5 798,-280.5 792,-274.5 792,-268.5 792,-268.5 792,-171.5 792,-171.5 792,-165.5 798,-159.5 804,-159.5"/>
<text text-anchor="middle" x="878" y="-265.3" font-family="Times,serif" font-size="14.00">User</text>
<polyline fill="none" stroke="black" points="792,-257.5 964,-257.5 "/>
<text text-anchor="start" x="800" y="-242.3" font-family="Times,serif" font-size="14.00">id :integer</text>
<text text-anchor="start" x="800" y="-227.3" font-family="Times,serif" font-size="14.00">contractorBoolean :boolean</text>
<text text-anchor="start" x="800" y="-212.3" font-family="Times,serif" font-size="14.00">activeBoolean :boolean</text>
<text text-anchor="start" x="800" y="-197.3" font-family="Times,serif" font-size="14.00">employee_id :integer</text>
<text text-anchor="start" x="800" y="-182.3" font-family="Times,serif" font-size="14.00">created_at :datetime</text>
<text text-anchor="start" x="800" y="-167.3" font-family="Times,serif" font-size="14.00">updated_at :datetime</text>
</g>
<!-- Employee&#45;&gt;User -->
<g id="edge3" class="edge"><title>Employee&#45;&gt;User</title>
<path fill="none" stroke="#cef098" d="M853.011,-324.658C856.008,-312.227 858.972,-299.933 861.753,-288.394"/>
<ellipse fill="none" stroke="#cef098" cx="852.017" cy="-328.783" rx="4.00001" ry="4.00001"/>
<ellipse fill="#cef098" stroke="#cef098" cx="862.71" cy="-284.423" rx="4.00001" ry="4.00001"/>
</g>
<!-- FedexContract -->
<g id="node4" class="node"><title>FedexContract</title>
<path fill="none" stroke="black" d="M1089,-355.5C1089,-355.5 1279,-355.5 1279,-355.5 1285,-355.5 1291,-361.5 1291,-367.5 1291,-367.5 1291,-524.5 1291,-524.5 1291,-530.5 1285,-536.5 1279,-536.5 1279,-536.5 1089,-536.5 1089,-536.5 1083,-536.5 1077,-530.5 1077,-524.5 1077,-524.5 1077,-367.5 1077,-367.5 1077,-361.5 1083,-355.5 1089,-355.5"/>
<text text-anchor="middle" x="1184" y="-521.3" font-family="Times,serif" font-size="14.00">FedexContract</text>
<polyline fill="none" stroke="black" points="1077,-513.5 1291,-513.5 "/>
<text text-anchor="start" x="1085" y="-498.3" font-family="Times,serif" font-size="14.00">id :integer</text>
<text text-anchor="start" x="1085" y="-483.3" font-family="Times,serif" font-size="14.00">fedexContractName :string</text>
<text text-anchor="start" x="1085" y="-468.3" font-family="Times,serif" font-size="14.00">fedexContractNumber :integer</text>
<text text-anchor="start" x="1085" y="-453.3" font-family="Times,serif" font-size="14.00">contractorContractName :string</text>
<text text-anchor="start" x="1085" y="-438.3" font-family="Times,serif" font-size="14.00">contractorContractNumber :integer</text>
<text text-anchor="start" x="1085" y="-423.3" font-family="Times,serif" font-size="14.00">content :text</text>
<text text-anchor="start" x="1085" y="-408.3" font-family="Times,serif" font-size="14.00">startDate :datetime</text>
<text text-anchor="start" x="1085" y="-393.3" font-family="Times,serif" font-size="14.00">endDate :datetime</text>
<text text-anchor="start" x="1085" y="-378.3" font-family="Times,serif" font-size="14.00">created_at :datetime</text>
<text text-anchor="start" x="1085" y="-363.3" font-family="Times,serif" font-size="14.00">updated_at :datetime</text>
</g>
<!-- Psa -->
<g id="node6" class="node"><title>Psa</title>
<path fill="none" stroke="black" d="M1321.5,-355.5C1321.5,-355.5 1488.5,-355.5 1488.5,-355.5 1494.5,-355.5 1500.5,-361.5 1500.5,-367.5 1500.5,-367.5 1500.5,-524.5 1500.5,-524.5 1500.5,-530.5 1494.5,-536.5 1488.5,-536.5 1488.5,-536.5 1321.5,-536.5 1321.5,-536.5 1315.5,-536.5 1309.5,-530.5 1309.5,-524.5 1309.5,-524.5 1309.5,-367.5 1309.5,-367.5 1309.5,-361.5 1315.5,-355.5 1321.5,-355.5"/>
<text text-anchor="middle" x="1405" y="-521.3" font-family="Times,serif" font-size="14.00">Psa</text>
<polyline fill="none" stroke="black" points="1309.5,-513.5 1500.5,-513.5 "/>
<text text-anchor="start" x="1317.5" y="-498.3" font-family="Times,serif" font-size="14.00">id :integer</text>
<text text-anchor="start" x="1317.5" y="-483.3" font-family="Times,serif" font-size="14.00">fedexPSAName :string</text>
<text text-anchor="start" x="1317.5" y="-468.3" font-family="Times,serif" font-size="14.00">fedexPSANumber :integer</text>
<text text-anchor="start" x="1317.5" y="-453.3" font-family="Times,serif" font-size="14.00">contractorPSAName :string</text>
<text text-anchor="start" x="1317.5" y="-438.3" font-family="Times,serif" font-size="14.00">contractorPSANumber :integer</text>
<text text-anchor="start" x="1317.5" y="-423.3" font-family="Times,serif" font-size="14.00">activeBoolean :boolean</text>
<text text-anchor="start" x="1317.5" y="-408.3" font-family="Times,serif" font-size="14.00">startDate :datetime</text>
<text text-anchor="start" x="1317.5" y="-393.3" font-family="Times,serif" font-size="14.00">endDate :datetime</text>
<text text-anchor="start" x="1317.5" y="-378.3" font-family="Times,serif" font-size="14.00">created_at :datetime</text>
<text text-anchor="start" x="1317.5" y="-363.3" font-family="Times,serif" font-size="14.00">updated_at :datetime</text>
</g>
<!-- PsaState -->
<g id="node7" class="node"><title>PsaState</title>
<path fill="none" stroke="black" d="M1531,-393C1531,-393 1641,-393 1641,-393 1647,-393 1653,-399 1653,-405 1653,-405 1653,-487 1653,-487 1653,-493 1647,-499 1641,-499 1641,-499 1531,-499 1531,-499 1525,-499 1519,-493 1519,-487 1519,-487 1519,-405 1519,-405 1519,-399 1525,-393 1531,-393"/>
<text text-anchor="middle" x="1586" y="-483.8" font-family="Times,serif" font-size="14.00">PsaState</text>
<polyline fill="none" stroke="black" points="1519,-476 1653,-476 "/>
<text text-anchor="start" x="1527" y="-460.8" font-family="Times,serif" font-size="14.00">id :integer</text>
<text text-anchor="start" x="1527" y="-445.8" font-family="Times,serif" font-size="14.00">psa_id :integer</text>
<text text-anchor="start" x="1527" y="-430.8" font-family="Times,serif" font-size="14.00">state_id :integer</text>
<text text-anchor="start" x="1527" y="-415.8" font-family="Times,serif" font-size="14.00">created_at :datetime</text>
<text text-anchor="start" x="1527" y="-400.8" font-family="Times,serif" font-size="14.00">updated_at :datetime</text>
</g>
<!-- Psazip -->
<g id="node8" class="node"><title>Psazip</title>
<path fill="none" stroke="black" d="M1683,-393C1683,-393 1793,-393 1793,-393 1799,-393 1805,-399 1805,-405 1805,-405 1805,-487 1805,-487 1805,-493 1799,-499 1793,-499 1793,-499 1683,-499 1683,-499 1677,-499 1671,-493 1671,-487 1671,-487 1671,-405 1671,-405 1671,-399 1677,-393 1683,-393"/>
<text text-anchor="middle" x="1738" y="-483.8" font-family="Times,serif" font-size="14.00">Psazip</text>
<polyline fill="none" stroke="black" points="1671,-476 1805,-476 "/>
<text text-anchor="start" x="1679" y="-460.8" font-family="Times,serif" font-size="14.00">id :integer</text>
<text text-anchor="start" x="1679" y="-445.8" font-family="Times,serif" font-size="14.00">psa_id :integer</text>
<text text-anchor="start" x="1679" y="-430.8" font-family="Times,serif" font-size="14.00">zip_id :integer</text>
<text text-anchor="start" x="1679" y="-415.8" font-family="Times,serif" font-size="14.00">created_at :datetime</text>
<text text-anchor="start" x="1679" y="-400.8" font-family="Times,serif" font-size="14.00">updated_at :datetime</text>
</g>
<!-- Region -->
<g id="node9" class="node"><title>Region</title>
<path fill="none" stroke="black" d="M1835,-370.5C1835,-370.5 2017,-370.5 2017,-370.5 2023,-370.5 2029,-376.5 2029,-382.5 2029,-382.5 2029,-509.5 2029,-509.5 2029,-515.5 2023,-521.5 2017,-521.5 2017,-521.5 1835,-521.5 1835,-521.5 1829,-521.5 1823,-515.5 1823,-509.5 1823,-509.5 1823,-382.5 1823,-382.5 1823,-376.5 1829,-370.5 1835,-370.5"/>
<text text-anchor="middle" x="1926" y="-506.3" font-family="Times,serif" font-size="14.00">Region</text>
<polyline fill="none" stroke="black" points="1823,-498.5 2029,-498.5 "/>
<text text-anchor="start" x="1831" y="-483.3" font-family="Times,serif" font-size="14.00">id :integer</text>
<text text-anchor="start" x="1831" y="-468.3" font-family="Times,serif" font-size="14.00">fedexRegionName :string</text>
<text text-anchor="start" x="1831" y="-453.3" font-family="Times,serif" font-size="14.00">fedexRegionNumber :integer</text>
<text text-anchor="start" x="1831" y="-438.3" font-family="Times,serif" font-size="14.00">fedexRegionPhone :string</text>
<text text-anchor="start" x="1831" y="-423.3" font-family="Times,serif" font-size="14.00">contractorRegionName :string</text>
<text text-anchor="start" x="1831" y="-408.3" font-family="Times,serif" font-size="14.00">contractorRegionNumber :integer</text>
<text text-anchor="start" x="1831" y="-393.3" font-family="Times,serif" font-size="14.00">created_at :datetime</text>
<text text-anchor="start" x="1831" y="-378.3" font-family="Times,serif" font-size="14.00">updated_at :datetime</text>
</g>
<!-- Role -->
<g id="node10" class="node"><title>Role</title>
<path fill="none" stroke="black" d="M937,-400.5C937,-400.5 1047,-400.5 1047,-400.5 1053,-400.5 1059,-406.5 1059,-412.5 1059,-412.5 1059,-479.5 1059,-479.5 1059,-485.5 1053,-491.5 1047,-491.5 1047,-491.5 937,-491.5 937,-491.5 931,-491.5 925,-485.5 925,-479.5 925,-479.5 925,-412.5 925,-412.5 925,-406.5 931,-400.5 937,-400.5"/>
<text text-anchor="middle" x="992" y="-476.3" font-family="Times,serif" font-size="14.00">Role</text>
<polyline fill="none" stroke="black" points="925,-468.5 1059,-468.5 "/>
<text text-anchor="start" x="933" y="-453.3" font-family="Times,serif" font-size="14.00">id :integer</text>
<text text-anchor="start" x="933" y="-438.3" font-family="Times,serif" font-size="14.00">name :string</text>
<text text-anchor="start" x="933" y="-423.3" font-family="Times,serif" font-size="14.00">created_at :datetime</text>
<text text-anchor="start" x="933" y="-408.3" font-family="Times,serif" font-size="14.00">updated_at :datetime</text>
</g>
<!-- UserRole -->
<g id="node14" class="node"><title>UserRole</title>
<path fill="none" stroke="black" d="M880,-1C880,-1 990,-1 990,-1 996,-1 1002,-7 1002,-13 1002,-13 1002,-95 1002,-95 1002,-101 996,-107 990,-107 990,-107 880,-107 880,-107 874,-107 868,-101 868,-95 868,-95 868,-13 868,-13 868,-7 874,-1 880,-1"/>
<text text-anchor="middle" x="935" y="-91.8" font-family="Times,serif" font-size="14.00">UserRole</text>
<polyline fill="none" stroke="black" points="868,-84 1002,-84 "/>
<text text-anchor="start" x="876" y="-68.8" font-family="Times,serif" font-size="14.00">id :integer</text>
<text text-anchor="start" x="876" y="-53.8" font-family="Times,serif" font-size="14.00">user_id :integer</text>
<text text-anchor="start" x="876" y="-38.8" font-family="Times,serif" font-size="14.00">role_id :integer</text>
<text text-anchor="start" x="876" y="-23.8" font-family="Times,serif" font-size="14.00">created_at :datetime</text>
<text text-anchor="start" x="876" y="-8.8" font-family="Times,serif" font-size="14.00">updated_at :datetime</text>
</g>
<!-- Role&#45;&gt;UserRole -->
<g id="edge4" class="edge"><title>Role&#45;&gt;UserRole</title>
<path fill="none" stroke="#feb4ce" d="M994.034,-392.153C995.144,-331.414 993.232,-229.145 973,-144 970.838,-134.901 967.82,-125.552 964.419,-116.49"/>
<ellipse fill="none" stroke="#feb4ce" cx="993.944" cy="-396.443" rx="4" ry="4"/>
<polygon fill="#feb4ce" stroke="#feb4ce" points="964.416,-116.481 964.946,-105.528 962.587,-111.828 960.758,-107.174 960.758,-107.174 960.758,-107.174 962.587,-111.828 956.57,-108.82 964.416,-116.481 964.416,-116.481"/>
</g>
<!-- Role&#45;&gt;User -->
<g id="edge5" class="edge"><title>Role&#45;&gt;User</title>
<path fill="none" stroke="#79a46e" d="M964.693,-391.345C949.189,-360.88 929.617,-322.424 912.995,-289.763"/>
<polygon fill="#79a46e" stroke="#79a46e" points="964.805,-391.565 965.33,-402.518 967.073,-396.021 969.341,-400.477 969.341,-400.477 969.341,-400.477 967.073,-396.021 973.351,-398.436 964.805,-391.565 964.805,-391.565"/>
<polygon fill="#79a46e" stroke="#79a46e" points="912.927,-289.628 912.402,-278.675 910.659,-285.172 908.391,-280.716 908.391,-280.716 908.391,-280.716 910.659,-285.172 904.381,-282.757 912.927,-289.628 912.927,-289.628"/>
</g>
<!-- State -->
<g id="node11" class="node"><title>State</title>
<path fill="none" stroke="black" d="M2059,-385.5C2059,-385.5 2169,-385.5 2169,-385.5 2175,-385.5 2181,-391.5 2181,-397.5 2181,-397.5 2181,-494.5 2181,-494.5 2181,-500.5 2175,-506.5 2169,-506.5 2169,-506.5 2059,-506.5 2059,-506.5 2053,-506.5 2047,-500.5 2047,-494.5 2047,-494.5 2047,-397.5 2047,-397.5 2047,-391.5 2053,-385.5 2059,-385.5"/>
<text text-anchor="middle" x="2114" y="-491.3" font-family="Times,serif" font-size="14.00">State</text>
<polyline fill="none" stroke="black" points="2047,-483.5 2181,-483.5 "/>
<text text-anchor="start" x="2055" y="-468.3" font-family="Times,serif" font-size="14.00">id :integer</text>
<text text-anchor="start" x="2055" y="-453.3" font-family="Times,serif" font-size="14.00">state :string</text>
<text text-anchor="start" x="2055" y="-438.3" font-family="Times,serif" font-size="14.00">abbreviation :string</text>
<text text-anchor="start" x="2055" y="-423.3" font-family="Times,serif" font-size="14.00">psa_id :integer</text>
<text text-anchor="start" x="2055" y="-408.3" font-family="Times,serif" font-size="14.00">created_at :datetime</text>
<text text-anchor="start" x="2055" y="-393.3" font-family="Times,serif" font-size="14.00">updated_at :datetime</text>
</g>
<!-- Terminal -->
<g id="node12" class="node"><title>Terminal</title>
<path fill="none" stroke="black" d="M518.5,-370.5C518.5,-370.5 711.5,-370.5 711.5,-370.5 717.5,-370.5 723.5,-376.5 723.5,-382.5 723.5,-382.5 723.5,-509.5 723.5,-509.5 723.5,-515.5 717.5,-521.5 711.5,-521.5 711.5,-521.5 518.5,-521.5 518.5,-521.5 512.5,-521.5 506.5,-515.5 506.5,-509.5 506.5,-509.5 506.5,-382.5 506.5,-382.5 506.5,-376.5 512.5,-370.5 518.5,-370.5"/>
<text text-anchor="middle" x="615" y="-506.3" font-family="Times,serif" font-size="14.00">Terminal</text>
<polyline fill="none" stroke="black" points="506.5,-498.5 723.5,-498.5 "/>
<text text-anchor="start" x="514.5" y="-483.3" font-family="Times,serif" font-size="14.00">id :integer</text>
<text text-anchor="start" x="514.5" y="-468.3" font-family="Times,serif" font-size="14.00">fedexTerminalName :string</text>
<text text-anchor="start" x="514.5" y="-453.3" font-family="Times,serif" font-size="14.00">fedexTerminalNumber :integer</text>
<text text-anchor="start" x="514.5" y="-438.3" font-family="Times,serif" font-size="14.00">contractorTerminalName :string</text>
<text text-anchor="start" x="514.5" y="-423.3" font-family="Times,serif" font-size="14.00">contractorTerminalNumber :integer</text>
<text text-anchor="start" x="514.5" y="-408.3" font-family="Times,serif" font-size="14.00">colocationBoolean :boolean</text>
<text text-anchor="start" x="514.5" y="-393.3" font-family="Times,serif" font-size="14.00">created_at :datetime</text>
<text text-anchor="start" x="514.5" y="-378.3" font-family="Times,serif" font-size="14.00">updated_at :datetime</text>
</g>
<!-- Terminal&#45;&gt;Note -->
<g id="edge6" class="edge"><title>Terminal&#45;&gt;Note</title>
<path fill="none" stroke="#aa735f" d="M615,-362.144C615,-343.757 615,-324.243 615,-305.78"/>
<ellipse fill="none" stroke="#aa735f" cx="615" cy="-366.411" rx="4" ry="4"/>
<polygon fill="#aa735f" stroke="#aa735f" points="615,-305.645 619.5,-295.645 615,-300.645 615,-295.645 615,-295.645 615,-295.645 615,-300.645 610.5,-295.645 615,-305.645 615,-305.645"/>
</g>
<!-- User&#45;&gt;UserRole -->
<g id="edge7" class="edge"><title>User&#45;&gt;UserRole</title>
<path fill="none" stroke="#e637f7" d="M901.419,-151.62C905.459,-139.996 909.639,-127.968 913.621,-116.51"/>
<ellipse fill="none" stroke="#e637f7" cx="900.053" cy="-155.55" rx="4.00001" ry="4.00001"/>
<polygon fill="#e637f7" stroke="#e637f7" points="913.629,-116.487 921.163,-108.518 915.271,-111.764 916.913,-107.041 916.913,-107.041 916.913,-107.041 915.271,-111.764 912.662,-105.564 913.629,-116.487 913.629,-116.487"/>
</g>
<!-- Zip -->
<g id="node15" class="node"><title>Zip</title>
<path fill="none" stroke="black" d="M2211,-393C2211,-393 2321,-393 2321,-393 2327,-393 2333,-399 2333,-405 2333,-405 2333,-487 2333,-487 2333,-493 2327,-499 2321,-499 2321,-499 2211,-499 2211,-499 2205,-499 2199,-493 2199,-487 2199,-487 2199,-405 2199,-405 2199,-399 2205,-393 2211,-393"/>
<text text-anchor="middle" x="2266" y="-483.8" font-family="Times,serif" font-size="14.00">Zip</text>
<polyline fill="none" stroke="black" points="2199,-476 2333,-476 "/>
<text text-anchor="start" x="2207" y="-460.8" font-family="Times,serif" font-size="14.00">id :integer</text>
<text text-anchor="start" x="2207" y="-445.8" font-family="Times,serif" font-size="14.00">zip :string</text>
<text text-anchor="start" x="2207" y="-430.8" font-family="Times,serif" font-size="14.00">psa_id :integer</text>
<text text-anchor="start" x="2207" y="-415.8" font-family="Times,serif" font-size="14.00">created_at :datetime</text>
<text text-anchor="start" x="2207" y="-400.8" font-family="Times,serif" font-size="14.00">updated_at :datetime</text>
</g>
</g>
</svg>
