<?xml version="1.0" encoding="UTF-8" standalone="no"?>
<!DOCTYPE svg PUBLIC "-//W3C//DTD SVG 1.1//EN"
 "http://www.w3.org/Graphics/SVG/1.1/DTD/svg11.dtd">
<!-- Generated by graphviz version 2.29.20121209.0545 (20121209.0545)
 -->
<!-- Title: models_diagram Pages: 1 -->
<svg width="892pt" height="302pt"
 viewBox="0.00 0.00 892.00 302.00" xmlns="http://www.w3.org/2000/svg" xmlns:xlink="http://www.w3.org/1999/xlink">
<g id="graph0" class="graph" transform="scale(1 1) rotate(0) translate(4 298)">
<title>models_diagram</title>
<polygon fill="white" stroke="white" points="-4,5 -4,-298 889,-298 889,5 -4,5"/>
<!-- _diagram_info -->
<g id="node1" class="node"><title>_diagram_info</title>
<text text-anchor="start" x="8" y="-279.6" font-family="Times,serif" font-size="13.00">Models diagram</text>
<text text-anchor="start" x="8" y="-265.6" font-family="Times,serif" font-size="13.00">Date: Dec 10 2012 &#45; 04:05</text>
<text text-anchor="start" x="8" y="-251.6" font-family="Times,serif" font-size="13.00">Migration version: 20121210090429</text>
<text text-anchor="start" x="8" y="-237.6" font-family="Times,serif" font-size="13.00">Generated by RailRoady 1.1.0</text>
<text text-anchor="start" x="8" y="-223.6" font-family="Times,serif" font-size="13.00">http://railroady.prestonlee.com</text>
</g>
<!-- Addendum -->
<g id="node2" class="node"><title>Addendum</title>
<ellipse fill="none" stroke="black" cx="560" cy="-162" rx="51.0191" ry="18"/>
<text text-anchor="middle" x="560" y="-158.3" font-family="Times,serif" font-size="14.00">Addendum</text>
</g>
<!-- Note -->
<g id="node6" class="node"><title>Note</title>
<ellipse fill="none" stroke="black" cx="446" cy="-90" rx="28.3955" ry="18"/>
<text text-anchor="middle" x="446" y="-86.3" font-family="Times,serif" font-size="14.00">Note</text>
</g>
<!-- Addendum&#45;&gt;Note -->
<g id="edge1" class="edge"><title>Addendum&#45;&gt;Note</title>
<path fill="none" stroke="#d5afac" d="M528.693,-141.777C511.764,-131.381 491.01,-118.638 474.529,-108.518"/>
<ellipse fill="none" stroke="#d5afac" cx="532.135" cy="-143.89" rx="4.00002" ry="4.00002"/>
<polygon fill="#d5afac" stroke="#d5afac" points="474.386,-108.43 468.219,-99.3627 470.125,-105.814 465.864,-103.197 465.864,-103.197 465.864,-103.197 470.125,-105.814 463.51,-107.032 474.386,-108.43 474.386,-108.43"/>
</g>
<!-- Employee -->
<g id="node3" class="node"><title>Employee</title>
<ellipse fill="none" stroke="black" cx="336" cy="-162" rx="47.169" ry="18"/>
<text text-anchor="middle" x="336" y="-158.3" font-family="Times,serif" font-size="14.00">Employee</text>
</g>
<!-- Employee&#45;&gt;Note -->
<g id="edge2" class="edge"><title>Employee&#45;&gt;Note</title>
<path fill="none" stroke="#4dd1cd" d="M366.191,-141.788C382.346,-131.507 402.115,-118.927 417.936,-108.859"/>
<ellipse fill="none" stroke="#4dd1cd" cx="362.703" cy="-144.007" rx="4.00002" ry="4.00002"/>
<polygon fill="#4dd1cd" stroke="#4dd1cd" points="418.301,-108.627 429.153,-107.055 422.519,-105.943 426.737,-103.258 426.737,-103.258 426.737,-103.258 422.519,-105.943 424.321,-99.4617 418.301,-108.627 418.301,-108.627"/>
</g>
<!-- User -->
<g id="node13" class="node"><title>User</title>
<ellipse fill="none" stroke="black" cx="227" cy="-90" rx="27.4223" ry="18"/>
<text text-anchor="middle" x="227" y="-86.3" font-family="Times,serif" font-size="14.00">User</text>
</g>
<!-- Employee&#45;&gt;User -->
<g id="edge3" class="edge"><title>Employee&#45;&gt;User</title>
<path fill="none" stroke="#64bfef" d="M306.084,-141.788C289.477,-131.123 269.016,-117.983 253.068,-107.741"/>
<ellipse fill="none" stroke="#64bfef" cx="309.518" cy="-143.993" rx="4.00002" ry="4.00002"/>
<ellipse fill="#64bfef" stroke="#64bfef" cx="249.453" cy="-105.42" rx="4.00002" ry="4.00002"/>
</g>
<!-- EmployeePsa -->
<g id="node4" class="node"><title>EmployeePsa</title>
<ellipse fill="none" stroke="black" cx="475" cy="-255" rx="60.1672" ry="18"/>
<text text-anchor="middle" x="475" y="-251.3" font-family="Times,serif" font-size="14.00">EmployeePsa</text>
</g>
<!-- FedexContract -->
<g id="node5" class="node"><title>FedexContract</title>
<ellipse fill="none" stroke="black" cx="290" cy="-255" rx="64.0172" ry="18"/>
<text text-anchor="middle" x="290" y="-251.3" font-family="Times,serif" font-size="14.00">FedexContract</text>
</g>
<!-- FedexContract&#45;&gt;Employee -->
<g id="edge4" class="edge"><title>FedexContract&#45;&gt;Employee</title>
<path fill="none" stroke="#a8d9e6" d="M302.365,-229.538C308.715,-216.976 316.452,-201.672 322.903,-188.909"/>
<ellipse fill="none" stroke="#a8d9e6" cx="300.457" cy="-233.314" rx="4.00002" ry="4.00002"/>
<polygon fill="#a8d9e6" stroke="#a8d9e6" points="323.031,-188.657 331.558,-181.762 325.286,-184.194 327.542,-179.732 327.542,-179.732 327.542,-179.732 325.286,-184.194 323.526,-177.702 323.031,-188.657 323.031,-188.657"/>
</g>
<!-- Psa -->
<g id="node16" class="node"><title>Psa</title>
<ellipse fill="none" stroke="black" cx="244" cy="-162" rx="27" ry="18"/>
<text text-anchor="middle" x="244" y="-158.3" font-family="Times,serif" font-size="14.00">Psa</text>
</g>
<!-- FedexContract&#45;&gt;Psa -->
<g id="edge5" class="edge"><title>FedexContract&#45;&gt;Psa</title>
<path fill="none" stroke="#6405d3" d="M277.61,-229.489C271.217,-216.842 263.423,-201.423 256.95,-188.619"/>
<ellipse fill="none" stroke="#6405d3" cx="279.543" cy="-233.314" rx="4.00002" ry="4.00002"/>
<polygon fill="#6405d3" stroke="#6405d3" points="256.815,-188.351 256.32,-177.397 254.559,-183.889 252.304,-179.427 252.304,-179.427 252.304,-179.427 254.559,-183.889 248.288,-181.457 256.815,-188.351 256.815,-188.351"/>
</g>
<!-- PsaState -->
<g id="node7" class="node"><title>PsaState</title>
<ellipse fill="none" stroke="black" cx="671" cy="-162" rx="41.394" ry="18"/>
<text text-anchor="middle" x="671" y="-158.3" font-family="Times,serif" font-size="14.00">PsaState</text>
</g>
<!-- Psazip -->
<g id="node8" class="node"><title>Psazip</title>
<ellipse fill="none" stroke="black" cx="765" cy="-162" rx="34.1708" ry="18"/>
<text text-anchor="middle" x="765" y="-158.3" font-family="Times,serif" font-size="14.00">Psazip</text>
</g>
<!-- Region -->
<g id="node9" class="node"><title>Region</title>
<ellipse fill="none" stroke="black" cx="847" cy="-255" rx="37.0701" ry="18"/>
<text text-anchor="middle" x="847" y="-251.3" font-family="Times,serif" font-size="14.00">Region</text>
</g>
<!-- Role -->
<g id="node10" class="node"><title>Role</title>
<ellipse fill="none" stroke="black" cx="171" cy="-162" rx="27.4223" ry="18"/>
<text text-anchor="middle" x="171" y="-158.3" font-family="Times,serif" font-size="14.00">Role</text>
</g>
<!-- UserRole -->
<g id="node14" class="node"><title>UserRole</title>
<ellipse fill="none" stroke="black" cx="199" cy="-18" rx="44.271" ry="18"/>
<text text-anchor="middle" x="199" y="-14.3" font-family="Times,serif" font-size="14.00">UserRole</text>
</g>
<!-- Role&#45;&gt;UserRole -->
<g id="edge6" class="edge"><title>Role&#45;&gt;UserRole</title>
<path fill="none" stroke="#30b86c" d="M175.944,-135.929C180.913,-110.725 188.55,-71.9942 193.657,-46.0947"/>
<ellipse fill="none" stroke="#30b86c" cx="175.151" cy="-139.947" rx="4.00001" ry="4.00001"/>
<polygon fill="#30b86c" stroke="#30b86c" points="193.676,-46.0004 200.026,-37.0599 194.643,-41.0948 195.611,-36.1893 195.611,-36.1893 195.611,-36.1893 194.643,-41.0948 191.196,-35.3187 193.676,-46.0004 193.676,-46.0004"/>
</g>
<!-- Role&#45;&gt;User -->
<g id="edge7" class="edge"><title>Role&#45;&gt;User</title>
<path fill="none" stroke="#cba8e9" d="M189.502,-137.872C195.629,-130.213 202.445,-121.694 208.567,-114.041"/>
<polygon fill="#cba8e9" stroke="#cba8e9" points="189.398,-138.002 179.637,-143 186.275,-141.907 183.151,-145.811 183.151,-145.811 183.151,-145.811 186.275,-141.907 186.665,-148.622 189.398,-138.002 189.398,-138.002"/>
<polygon fill="#cba8e9" stroke="#cba8e9" points="208.626,-113.968 218.386,-108.97 211.749,-110.064 214.873,-106.159 214.873,-106.159 214.873,-106.159 211.749,-110.064 211.359,-103.348 208.626,-113.968 208.626,-113.968"/>
</g>
<!-- State -->
<g id="node11" class="node"><title>State</title>
<ellipse fill="none" stroke="black" cx="671" cy="-255" rx="28.3955" ry="18"/>
<text text-anchor="middle" x="671" y="-251.3" font-family="Times,serif" font-size="14.00">State</text>
</g>
<!-- State&#45;&gt;PsaState -->
<g id="edge8" class="edge"><title>State&#45;&gt;PsaState</title>
<path fill="none" stroke="#cd29ea" d="M671,-228.729C671,-216.725 671,-202.362 671,-190.129"/>
<ellipse fill="none" stroke="#cd29ea" cx="671" cy="-232.884" rx="4" ry="4"/>
<polygon fill="#cd29ea" stroke="#cd29ea" points="671,-190.04 675.5,-180.04 671,-185.04 671,-180.04 671,-180.04 671,-180.04 671,-185.04 666.5,-180.04 671,-190.04 671,-190.04"/>
</g>
<!-- Terminal -->
<g id="node12" class="node"><title>Terminal</title>
<ellipse fill="none" stroke="black" cx="446" cy="-162" rx="44.2946" ry="18"/>
<text text-anchor="middle" x="446" y="-158.3" font-family="Times,serif" font-size="14.00">Terminal</text>
</g>
<!-- Terminal&#45;&gt;Note -->
<g id="edge9" class="edge"><title>Terminal&#45;&gt;Note</title>
<path fill="none" stroke="#88f8e7" d="M446,-135.64C446,-130.063 446,-124.132 446,-118.476"/>
<ellipse fill="none" stroke="#88f8e7" cx="446" cy="-139.697" rx="4" ry="4"/>
<polygon fill="#88f8e7" stroke="#88f8e7" points="446,-118.104 450.5,-108.104 446,-113.104 446,-108.104 446,-108.104 446,-108.104 446,-113.104 441.5,-108.104 446,-118.104 446,-118.104"/>
</g>
<!-- User&#45;&gt;UserRole -->
<g id="edge10" class="edge"><title>User&#45;&gt;UserRole</title>
<path fill="none" stroke="#db3796" d="M217.311,-64.7779C214.818,-58.544 212.122,-51.8046 209.585,-45.4634"/>
<ellipse fill="none" stroke="#db3796" cx="218.879" cy="-68.6971" rx="4.00001" ry="4.00001"/>
<polygon fill="#db3796" stroke="#db3796" points="209.496,-45.241 209.961,-34.2849 207.639,-40.5986 205.782,-35.9562 205.782,-35.9562 205.782,-35.9562 207.639,-40.5986 201.604,-37.6275 209.496,-45.241 209.496,-45.241"/>
</g>
<!-- Zip -->
<g id="node15" class="node"><title>Zip</title>
<ellipse fill="none" stroke="black" cx="765" cy="-255" rx="27" ry="18"/>
<text text-anchor="middle" x="765" y="-251.3" font-family="Times,serif" font-size="14.00">Zip</text>
</g>
<!-- Zip&#45;&gt;Psazip -->
<g id="edge11" class="edge"><title>Zip&#45;&gt;Psazip</title>
<path fill="none" stroke="#d6a74d" d="M765,-228.729C765,-216.725 765,-202.362 765,-190.129"/>
<ellipse fill="none" stroke="#d6a74d" cx="765" cy="-232.884" rx="4" ry="4"/>
<polygon fill="#d6a74d" stroke="#d6a74d" points="765,-190.04 769.5,-180.04 765,-185.04 765,-180.04 765,-180.04 765,-180.04 765,-185.04 760.5,-180.04 765,-190.04 765,-190.04"/>
</g>
</g>
</svg>
