<?xml version="1.0" encoding="UTF-8" standalone="no"?>
<!DOCTYPE svg PUBLIC "-//W3C//DTD SVG 1.1//EN"
 "http://www.w3.org/Graphics/SVG/1.1/DTD/svg11.dtd">
<!-- Generated by graphviz version 2.29.20121209.0545 (20121209.0545)
 -->
<!-- Title: models_diagram Pages: 1 -->
<svg width="1435pt" height="302pt"
 viewBox="0.00 0.00 1435.00 302.00" xmlns="http://www.w3.org/2000/svg" xmlns:xlink="http://www.w3.org/1999/xlink">
<g id="graph0" class="graph" transform="scale(1 1) rotate(0) translate(4 298)">
<title>models_diagram</title>
<polygon fill="white" stroke="white" points="-4,5 -4,-298 1432,-298 1432,5 -4,5"/>
<!-- _diagram_info -->
<g id="node1" class="node"><title>_diagram_info</title>
<text text-anchor="start" x="86" y="-279.6" font-family="Times,serif" font-size="13.00">Models diagram</text>
<text text-anchor="start" x="86" y="-265.6" font-family="Times,serif" font-size="13.00">Date: Dec 12 2012 &#45; 16:49</text>
<text text-anchor="start" x="86" y="-251.6" font-family="Times,serif" font-size="13.00">Migration version: 20121212214602</text>
<text text-anchor="start" x="86" y="-237.6" font-family="Times,serif" font-size="13.00">Generated by RailRoady 1.1.0</text>
<text text-anchor="start" x="86" y="-223.6" font-family="Times,serif" font-size="13.00">http://railroady.prestonlee.com</text>
</g>
<!-- Addendum -->
<g id="node2" class="node"><title>Addendum</title>
<ellipse fill="none" stroke="black" cx="51" cy="-162" rx="51.0191" ry="18"/>
<text text-anchor="middle" x="51" y="-158.3" font-family="Times,serif" font-size="14.00">Addendum</text>
</g>
<!-- Note -->
<g id="node8" class="node"><title>Note</title>
<ellipse fill="none" stroke="black" cx="165" cy="-90" rx="28.3955" ry="18"/>
<text text-anchor="middle" x="165" y="-86.3" font-family="Times,serif" font-size="14.00">Note</text>
</g>
<!-- Addendum&#45;&gt;Note -->
<g id="edge1" class="edge"><title>Addendum&#45;&gt;Note</title>
<path fill="none" stroke="#f10853" d="M82.3068,-141.777C99.2362,-131.381 119.99,-118.638 136.471,-108.518"/>
<ellipse fill="none" stroke="#f10853" cx="78.8646" cy="-143.89" rx="4.00002" ry="4.00002"/>
<polygon fill="#f10853" stroke="#f10853" points="136.614,-108.43 147.49,-107.032 140.875,-105.814 145.136,-103.197 145.136,-103.197 145.136,-103.197 140.875,-105.814 142.781,-99.3627 136.614,-108.43 136.614,-108.43"/>
</g>
<!-- DailyDataVehicle -->
<g id="node3" class="node"><title>DailyDataVehicle</title>
<ellipse fill="none" stroke="black" cx="685" cy="-90" rx="76.5394" ry="18"/>
<text text-anchor="middle" x="685" y="-86.3" font-family="Times,serif" font-size="14.00">DailyDataVehicle</text>
</g>
<!-- DailyDatum -->
<g id="node4" class="node"><title>DailyDatum</title>
<ellipse fill="none" stroke="black" cx="506" cy="-255" rx="55.3436" ry="18"/>
<text text-anchor="middle" x="506" y="-251.3" font-family="Times,serif" font-size="14.00">DailyDatum</text>
</g>
<!-- DailyDatum&#45;&gt;DailyDataVehicle -->
<g id="edge2" class="edge"><title>DailyDatum&#45;&gt;DailyDataVehicle</title>
<path fill="none" stroke="#8fde43" d="M529.765,-232.359C563.271,-201.849 624.175,-146.388 658.902,-114.765"/>
<ellipse fill="none" stroke="#8fde43" cx="526.775" cy="-235.082" rx="4.00002" ry="4.00002"/>
<polygon fill="#8fde43" stroke="#8fde43" points="659.328,-114.378 669.751,-110.972 663.025,-111.011 666.722,-107.645 666.722,-107.645 666.722,-107.645 663.025,-111.011 663.692,-104.317 659.328,-114.378 659.328,-114.378"/>
</g>
<!-- Vehicle -->
<g id="node19" class="node"><title>Vehicle</title>
<ellipse fill="none" stroke="black" cx="701" cy="-162" rx="38.4949" ry="18"/>
<text text-anchor="middle" x="701" y="-158.3" font-family="Times,serif" font-size="14.00">Vehicle</text>
</g>
<!-- DailyDatum&#45;&gt;Vehicle -->
<g id="edge3" class="edge"><title>DailyDatum&#45;&gt;Vehicle</title>
<path fill="none" stroke="#e4321f" d="M538.574,-233.37C548.492,-227.442 559.54,-221.184 570,-216 600.018,-201.123 635.285,-187.037 661.661,-177.131"/>
<polygon fill="#e4321f" stroke="#e4321f" points="538.378,-233.488 527.496,-234.835 534.105,-236.085 529.832,-238.681 529.832,-238.681 529.832,-238.681 534.105,-236.085 532.169,-242.527 538.378,-233.488 538.378,-233.488"/>
<polygon fill="#e4321f" stroke="#e4321f" points="661.932,-177.031 672.873,-177.764 666.618,-175.288 671.305,-173.546 671.305,-173.546 671.305,-173.546 666.618,-175.288 669.737,-169.328 661.932,-177.031 661.932,-177.031"/>
</g>
<!-- Employee -->
<g id="node5" class="node"><title>Employee</title>
<ellipse fill="none" stroke="black" cx="275" cy="-162" rx="47.169" ry="18"/>
<text text-anchor="middle" x="275" y="-158.3" font-family="Times,serif" font-size="14.00">Employee</text>
</g>
<!-- Employee&#45;&gt;Note -->
<g id="edge4" class="edge"><title>Employee&#45;&gt;Note</title>
<path fill="none" stroke="#4bef1c" d="M244.809,-141.788C228.654,-131.507 208.885,-118.927 193.064,-108.859"/>
<ellipse fill="none" stroke="#4bef1c" cx="248.297" cy="-144.007" rx="4.00002" ry="4.00002"/>
<polygon fill="#4bef1c" stroke="#4bef1c" points="192.699,-108.627 186.679,-99.4617 188.481,-105.943 184.263,-103.258 184.263,-103.258 184.263,-103.258 188.481,-105.943 181.847,-107.055 192.699,-108.627 192.699,-108.627"/>
</g>
<!-- User -->
<g id="node17" class="node"><title>User</title>
<ellipse fill="none" stroke="black" cx="265" cy="-90" rx="27.4223" ry="18"/>
<text text-anchor="middle" x="265" y="-86.3" font-family="Times,serif" font-size="14.00">User</text>
</g>
<!-- Employee&#45;&gt;User -->
<g id="edge5" class="edge"><title>Employee&#45;&gt;User</title>
<path fill="none" stroke="#86a95d" d="M271.377,-135.64C270.478,-129.348 269.515,-122.605 268.617,-116.316"/>
<ellipse fill="none" stroke="#86a95d" cx="271.962" cy="-139.737" rx="4.00001" ry="4.00001"/>
<ellipse fill="#86a95d" stroke="#86a95d" cx="268.009" cy="-112.064" rx="4.00001" ry="4.00001"/>
</g>
<!-- EmployeePsa -->
<g id="node6" class="node"><title>EmployeePsa</title>
<ellipse fill="none" stroke="black" cx="1202" cy="-255" rx="60.1672" ry="18"/>
<text text-anchor="middle" x="1202" y="-251.3" font-family="Times,serif" font-size="14.00">EmployeePsa</text>
</g>
<!-- FedexContract -->
<g id="node7" class="node"><title>FedexContract</title>
<ellipse fill="none" stroke="black" cx="368" cy="-255" rx="64.0172" ry="18"/>
<text text-anchor="middle" x="368" y="-251.3" font-family="Times,serif" font-size="14.00">FedexContract</text>
</g>
<!-- FedexContract&#45;&gt;Employee -->
<g id="edge6" class="edge"><title>FedexContract&#45;&gt;Employee</title>
<path fill="none" stroke="#b22ffc" d="M345.071,-231.565C331.002,-217.798 313.019,-200.202 298.794,-186.282"/>
<ellipse fill="none" stroke="#b22ffc" cx="348.083" cy="-234.512" rx="4.00002" ry="4.00002"/>
<polygon fill="#b22ffc" stroke="#b22ffc" points="298.473,-185.968 294.473,-175.758 294.9,-182.472 291.326,-178.975 291.326,-178.975 291.326,-178.975 294.9,-182.472 288.179,-182.191 298.473,-185.968 298.473,-185.968"/>
</g>
<!-- Psa -->
<g id="node9" class="node"><title>Psa</title>
<ellipse fill="none" stroke="black" cx="376" cy="-162" rx="27" ry="18"/>
<text text-anchor="middle" x="376" y="-158.3" font-family="Times,serif" font-size="14.00">Psa</text>
</g>
<!-- FedexContract&#45;&gt;Psa -->
<g id="edge7" class="edge"><title>FedexContract&#45;&gt;Psa</title>
<path fill="none" stroke="#04ca0b" d="M370.222,-228.729C371.277,-216.725 372.54,-202.362 373.615,-190.129"/>
<ellipse fill="none" stroke="#04ca0b" cx="369.855" cy="-232.899" rx="4" ry="4"/>
<polygon fill="#04ca0b" stroke="#04ca0b" points="373.626,-190.001 378.985,-180.434 374.064,-185.02 374.502,-180.04 374.502,-180.04 374.502,-180.04 374.064,-185.02 370.019,-179.646 373.626,-190.001 373.626,-190.001"/>
</g>
<!-- Psazip -->
<g id="node11" class="node"><title>Psazip</title>
<ellipse fill="none" stroke="black" cx="369" cy="-18" rx="34.1708" ry="18"/>
<text text-anchor="middle" x="369" y="-14.3" font-family="Times,serif" font-size="14.00">Psazip</text>
</g>
<!-- Psa&#45;&gt;Psazip -->
<g id="edge8" class="edge"><title>Psa&#45;&gt;Psazip</title>
<path fill="none" stroke="#b251b6" d="M357.124,-139.543C350.333,-130.456 343.491,-119.353 340,-108 335.297,-92.7067 336.036,-87.5013 340,-72 342.481,-62.2986 347.144,-52.4622 352.018,-43.9406"/>
<ellipse fill="none" stroke="#b251b6" cx="359.779" cy="-142.923" rx="4.00002" ry="4.00002"/>
<polygon fill="#b251b6" stroke="#b251b6" points="352.092,-43.8184 361.138,-37.6196 354.693,-39.5484 357.295,-35.2784 357.295,-35.2784 357.295,-35.2784 354.693,-39.5484 353.452,-32.9372 352.092,-43.8184 352.092,-43.8184"/>
</g>
<!-- Zip -->
<g id="node23" class="node"><title>Zip</title>
<ellipse fill="none" stroke="black" cx="376" cy="-90" rx="27" ry="18"/>
<text text-anchor="middle" x="376" y="-86.3" font-family="Times,serif" font-size="14.00">Zip</text>
</g>
<!-- Psa&#45;&gt;Zip -->
<g id="edge9" class="edge"><title>Psa&#45;&gt;Zip</title>
<path fill="none" stroke="#ccf9a7" d="M376,-133.665C376,-128.687 376,-123.491 376,-118.507"/>
<polygon fill="#ccf9a7" stroke="#ccf9a7" points="376,-133.697 371.5,-143.697 376,-138.697 376,-143.697 376,-143.697 376,-143.697 376,-138.697 380.5,-143.697 376,-133.697 376,-133.697"/>
<polygon fill="#ccf9a7" stroke="#ccf9a7" points="376,-118.104 380.5,-108.104 376,-113.104 376,-108.104 376,-108.104 376,-108.104 376,-113.104 371.5,-108.104 376,-118.104 376,-118.104"/>
</g>
<!-- PsaState -->
<g id="node10" class="node"><title>PsaState</title>
<ellipse fill="none" stroke="black" cx="475" cy="-18" rx="41.394" ry="18"/>
<text text-anchor="middle" x="475" y="-14.3" font-family="Times,serif" font-size="14.00">PsaState</text>
</g>
<!-- Psa&#45;&gt;PsaState -->
<g id="edge10" class="edge"><title>Psa&#45;&gt;PsaState</title>
<path fill="none" stroke="#75f314" d="M391.724,-138.446C409.643,-112.745 438.851,-70.8507 457.484,-44.1241"/>
<ellipse fill="none" stroke="#75f314" cx="389.261" cy="-141.98" rx="4.00002" ry="4.00002"/>
<polygon fill="#75f314" stroke="#75f314" points="457.647,-43.8903 467.057,-38.2607 460.506,-39.7887 463.366,-35.6871 463.366,-35.6871 463.366,-35.6871 460.506,-39.7887 459.675,-33.1135 457.647,-43.8903 457.647,-43.8903"/>
</g>
<!-- State -->
<g id="node15" class="node"><title>State</title>
<ellipse fill="none" stroke="black" cx="488" cy="-90" rx="28.3955" ry="18"/>
<text text-anchor="middle" x="488" y="-86.3" font-family="Times,serif" font-size="14.00">State</text>
</g>
<!-- Psa&#45;&gt;State -->
<g id="edge11" class="edge"><title>Psa&#45;&gt;State</title>
<path fill="none" stroke="#8810b2" d="M403.732,-143.668C420.882,-132.949 442.827,-119.233 460.022,-108.486"/>
<polygon fill="#8810b2" stroke="#8810b2" points="403.479,-143.825 392.614,-145.309 399.239,-146.475 394.999,-149.125 394.999,-149.125 394.999,-149.125 399.239,-146.475 397.384,-152.941 403.479,-143.825 403.479,-143.825"/>
<polygon fill="#8810b2" stroke="#8810b2" points="460.051,-108.468 470.916,-106.984 464.291,-105.818 468.531,-103.168 468.531,-103.168 468.531,-103.168 464.291,-105.818 466.146,-99.3521 460.051,-108.468 460.051,-108.468"/>
</g>
<!-- Region -->
<g id="node12" class="node"><title>Region</title>
<ellipse fill="none" stroke="black" cx="1317" cy="-255" rx="37.0701" ry="18"/>
<text text-anchor="middle" x="1317" y="-251.3" font-family="Times,serif" font-size="14.00">Region</text>
</g>
<!-- Role -->
<g id="node13" class="node"><title>Role</title>
<ellipse fill="none" stroke="black" cx="1400" cy="-255" rx="27.4223" ry="18"/>
<text text-anchor="middle" x="1400" y="-251.3" font-family="Times,serif" font-size="14.00">Role</text>
</g>
<!-- ServiceType -->
<g id="node14" class="node"><title>ServiceType</title>
<ellipse fill="none" stroke="black" cx="636" cy="-255" rx="56.3173" ry="18"/>
<text text-anchor="middle" x="636" y="-251.3" font-family="Times,serif" font-size="14.00">ServiceType</text>
</g>
<!-- ServiceType&#45;&gt;Vehicle -->
<g id="edge12" class="edge"><title>ServiceType&#45;&gt;Vehicle</title>
<path fill="none" stroke="#3ea73c" d="M652.612,-230.744C662.047,-217.535 673.851,-201.008 683.439,-187.585"/>
<ellipse fill="none" stroke="#3ea73c" cx="650.247" cy="-234.054" rx="4.00002" ry="4.00002"/>
<polygon fill="#3ea73c" stroke="#3ea73c" points="683.56,-187.416 693.034,-181.894 686.466,-183.347 689.372,-179.279 689.372,-179.279 689.372,-179.279 686.466,-183.347 685.71,-176.663 683.56,-187.416 683.56,-187.416"/>
</g>
<!-- State&#45;&gt;PsaState -->
<g id="edge13" class="edge"><title>State&#45;&gt;PsaState</title>
<path fill="none" stroke="#bc9553" d="M483.355,-63.9868C482.289,-58.2493 481.151,-52.1211 480.069,-46.2929"/>
<ellipse fill="none" stroke="#bc9553" cx="484.123" cy="-68.1222" rx="4.00001" ry="4.00001"/>
<polygon fill="#bc9553" stroke="#bc9553" points="480.034,-46.1072 482.633,-35.4536 479.121,-41.1912 478.208,-36.2753 478.208,-36.2753 478.208,-36.2753 479.121,-41.1912 473.784,-37.097 480.034,-46.1072 480.034,-46.1072"/>
</g>
<!-- Terminal -->
<g id="node16" class="node"><title>Terminal</title>
<ellipse fill="none" stroke="black" cx="165" cy="-162" rx="44.2946" ry="18"/>
<text text-anchor="middle" x="165" y="-158.3" font-family="Times,serif" font-size="14.00">Terminal</text>
</g>
<!-- Terminal&#45;&gt;Note -->
<g id="edge14" class="edge"><title>Terminal&#45;&gt;Note</title>
<path fill="none" stroke="#2f5be3" d="M165,-135.64C165,-130.063 165,-124.132 165,-118.476"/>
<ellipse fill="none" stroke="#2f5be3" cx="165" cy="-139.697" rx="4" ry="4"/>
<polygon fill="#2f5be3" stroke="#2f5be3" points="165,-118.104 169.5,-108.104 165,-113.104 165,-108.104 165,-108.104 165,-108.104 165,-113.104 160.5,-108.104 165,-118.104 165,-118.104"/>
</g>
<!-- UserRole -->
<g id="node18" class="node"><title>UserRole</title>
<ellipse fill="none" stroke="black" cx="265" cy="-18" rx="44.271" ry="18"/>
<text text-anchor="middle" x="265" y="-14.3" font-family="Times,serif" font-size="14.00">UserRole</text>
</g>
<!-- User&#45;&gt;UserRole -->
<g id="edge15" class="edge"><title>User&#45;&gt;UserRole</title>
<path fill="none" stroke="#23d388" d="M265,-63.6398C265,-58.0629 265,-52.1319 265,-46.4761"/>
<ellipse fill="none" stroke="#23d388" cx="265" cy="-67.6966" rx="4" ry="4"/>
<polygon fill="#23d388" stroke="#23d388" points="265,-46.1043 269.5,-36.1043 265,-41.1043 265,-36.1043 265,-36.1043 265,-36.1043 265,-41.1043 260.5,-36.1044 265,-46.1043 265,-46.1043"/>
</g>
<!-- Vehicle&#45;&gt;DailyDataVehicle -->
<g id="edge16" class="edge"><title>Vehicle&#45;&gt;DailyDataVehicle</title>
<path fill="none" stroke="#76ab03" d="M695.283,-135.987C693.971,-130.249 692.571,-124.121 691.238,-118.293"/>
<ellipse fill="none" stroke="#76ab03" cx="696.236" cy="-140.156" rx="4.00001" ry="4.00001"/>
<polygon fill="#76ab03" stroke="#76ab03" points="691.177,-118.024 693.336,-107.273 690.063,-113.15 688.949,-108.275 688.949,-108.275 688.949,-108.275 690.063,-113.15 684.562,-109.278 691.177,-118.024 691.177,-118.024"/>
</g>
<!-- VehicleFuel -->
<g id="node20" class="node"><title>VehicleFuel</title>
<ellipse fill="none" stroke="black" cx="766" cy="-255" rx="55.3682" ry="18"/>
<text text-anchor="middle" x="766" y="-251.3" font-family="Times,serif" font-size="14.00">VehicleFuel</text>
</g>
<!-- VehicleFuel&#45;&gt;Vehicle -->
<g id="edge17" class="edge"><title>VehicleFuel&#45;&gt;Vehicle</title>
<path fill="none" stroke="#a2863b" d="M749.388,-230.744C739.953,-217.535 728.149,-201.008 718.561,-187.585"/>
<ellipse fill="none" stroke="#a2863b" cx="751.753" cy="-234.054" rx="4.00002" ry="4.00002"/>
<polygon fill="#a2863b" stroke="#a2863b" points="718.44,-187.416 716.29,-176.663 715.534,-183.347 712.628,-179.279 712.628,-179.279 712.628,-179.279 715.534,-183.347 708.966,-181.894 718.44,-187.416 718.44,-187.416"/>
</g>
<!-- VehicleOdometer -->
<g id="node21" class="node"><title>VehicleOdometer</title>
<ellipse fill="none" stroke="black" cx="915" cy="-255" rx="75.0904" ry="18"/>
<text text-anchor="middle" x="915" y="-251.3" font-family="Times,serif" font-size="14.00">VehicleOdometer</text>
</g>
<!-- VehicleOdometer&#45;&gt;Vehicle -->
<g id="edge18" class="edge"><title>VehicleOdometer&#45;&gt;Vehicle</title>
<path fill="none" stroke="#b961d3" d="M874.053,-235.39C860.114,-229.137 844.415,-222.182 830,-216 799.416,-202.884 764.489,-188.575 738.697,-178.134"/>
<ellipse fill="none" stroke="#b961d3" cx="877.948" cy="-237.142" rx="4.00002" ry="4.00002"/>
<polygon fill="#b961d3" stroke="#b961d3" points="738.56,-178.079 730.974,-170.16 733.924,-176.206 729.288,-174.333 729.288,-174.333 729.288,-174.333 733.924,-176.206 727.602,-178.505 738.56,-178.079 738.56,-178.079"/>
</g>
<!-- VehicleType -->
<g id="node22" class="node"><title>VehicleType</title>
<ellipse fill="none" stroke="black" cx="1066" cy="-255" rx="57.2688" ry="18"/>
<text text-anchor="middle" x="1066" y="-251.3" font-family="Times,serif" font-size="14.00">VehicleType</text>
</g>
<!-- VehicleType&#45;&gt;Vehicle -->
<g id="edge19" class="edge"><title>VehicleType&#45;&gt;Vehicle</title>
<path fill="none" stroke="#529333" d="M1036,-234.094C1024.79,-227.447 1011.69,-220.575 999,-216 914.125,-185.406 809.057,-172.009 749.057,-166.504"/>
<ellipse fill="none" stroke="#529333" cx="1039.65" cy="-236.322" rx="4.00002" ry="4.00002"/>
<polygon fill="#529333" stroke="#529333" points="748.713,-166.474 739.147,-161.113 743.732,-166.035 738.752,-165.596 738.752,-165.596 738.752,-165.596 743.732,-166.035 738.357,-170.078 748.713,-166.474 748.713,-166.474"/>
</g>
<!-- Zip&#45;&gt;Psazip -->
<g id="edge20" class="edge"><title>Zip&#45;&gt;Psazip</title>
<path fill="none" stroke="#8c312e" d="M373.464,-63.6398C372.906,-58.0629 372.313,-52.1319 371.748,-46.4761"/>
<ellipse fill="none" stroke="#8c312e" cx="373.872" cy="-67.7165" rx="4" ry="4"/>
<polygon fill="#8c312e" stroke="#8c312e" points="371.706,-46.0547 375.188,-35.6565 371.208,-41.0795 370.71,-36.1043 370.71,-36.1043 370.71,-36.1043 371.208,-41.0795 366.233,-36.5521 371.706,-46.0547 371.706,-46.0547"/>
</g>
</g>
</svg>
