<?xml version="1.0" encoding="UTF-8" standalone="no"?>
<!DOCTYPE svg PUBLIC "-//W3C//DTD SVG 1.1//EN"
 "http://www.w3.org/Graphics/SVG/1.1/DTD/svg11.dtd">
<!-- Generated by graphviz version 2.29.20121209.0545 (20121209.0545)
 -->
<!-- Title: models_diagram Pages: 1 -->
<svg width="1512pt" height="446pt"
 viewBox="0.00 0.00 1511.93 446.00" xmlns="http://www.w3.org/2000/svg" xmlns:xlink="http://www.w3.org/1999/xlink">
<g id="graph0" class="graph" transform="scale(1 1) rotate(0) translate(4 442)">
<title>models_diagram</title>
<polygon fill="white" stroke="white" points="-4,5 -4,-442 1508.93,-442 1508.93,5 -4,5"/>
<!-- _diagram_info -->
<g id="node1" class="node"><title>_diagram_info</title>
<text text-anchor="start" x="455.93" y="-423.6" font-family="Times,serif" font-size="13.00">Models diagram</text>
<text text-anchor="start" x="455.93" y="-409.6" font-family="Times,serif" font-size="13.00">Date: Dec 14 2012 &#45; 11:47</text>
<text text-anchor="start" x="455.93" y="-395.6" font-family="Times,serif" font-size="13.00">Migration version: 20121214160647</text>
<text text-anchor="start" x="455.93" y="-381.6" font-family="Times,serif" font-size="13.00">Generated by RailRoady 1.1.0</text>
<text text-anchor="start" x="455.93" y="-367.6" font-family="Times,serif" font-size="13.00">http://railroady.prestonlee.com</text>
</g>
<!-- Addendum -->
<g id="node2" class="node"><title>Addendum</title>
<ellipse fill="none" stroke="black" cx="737.93" cy="-234" rx="51.0191" ry="18"/>
<text text-anchor="middle" x="737.93" y="-230.3" font-family="Times,serif" font-size="14.00">Addendum</text>
</g>
<!-- Note -->
<g id="node10" class="node"><title>Note</title>
<ellipse fill="none" stroke="black" cx="798.93" cy="-18" rx="28.3955" ry="18"/>
<text text-anchor="middle" x="798.93" y="-14.3" font-family="Times,serif" font-size="14.00">Note</text>
</g>
<!-- Addendum&#45;&gt;Note -->
<g id="edge1" class="edge"><title>Addendum&#45;&gt;Note</title>
<path fill="none" stroke="#f98cbb" d="M745.078,-207.924C756.669,-167.262 779.46,-87.3052 791.333,-45.6526"/>
<ellipse fill="none" stroke="#f98cbb" cx="743.916" cy="-212.002" rx="4.00001" ry="4.00001"/>
<polygon fill="#f98cbb" stroke="#f98cbb" points="791.361,-45.5523 798.43,-37.169 792.732,-40.7439 794.103,-35.9354 794.103,-35.9354 794.103,-35.9354 792.732,-40.7439 789.775,-34.7018 791.361,-45.5523 791.361,-45.5523"/>
</g>
<!-- Business -->
<g id="node3" class="node"><title>Business</title>
<ellipse fill="none" stroke="black" cx="854.93" cy="-306" rx="42.3456" ry="18"/>
<text text-anchor="middle" x="854.93" y="-302.3" font-family="Times,serif" font-size="14.00">Business</text>
</g>
<!-- Business&#45;&gt;Note -->
<g id="edge2" class="edge"><title>Business&#45;&gt;Note</title>
<path fill="none" stroke="#0b85bd" d="M904.727,-301.339C968.641,-295.485 1074.15,-281.528 1097.93,-252 1107.97,-239.539 1099.46,-231.926 1097.93,-216 1091.68,-151.102 1116.01,-118.127 1069.93,-72 1037.77,-39.8053 904.276,-26.2137 837.427,-21.3389"/>
<ellipse fill="none" stroke="#0b85bd" cx="900.365" cy="-301.726" rx="4" ry="4"/>
<polygon fill="#0b85bd" stroke="#0b85bd" points="837.272,-21.3282 827.611,-16.1409 832.284,-20.979 827.296,-20.6299 827.296,-20.6299 827.296,-20.6299 832.284,-20.979 826.982,-25.1189 837.272,-21.3282 837.272,-21.3282"/>
</g>
<!-- Psa -->
<g id="node11" class="node"><title>Psa</title>
<ellipse fill="none" stroke="black" cx="1264.93" cy="-162" rx="27" ry="18"/>
<text text-anchor="middle" x="1264.93" y="-158.3" font-family="Times,serif" font-size="14.00">Psa</text>
</g>
<!-- Business&#45;&gt;Psa -->
<g id="edge3" class="edge"><title>Business&#45;&gt;Psa</title>
<path fill="none" stroke="#10504d" d="M904.669,-301.395C961.263,-295.957 1055.6,-282.79 1130.93,-252 1172.74,-234.913 1215.2,-203.897 1240.8,-183.37"/>
<ellipse fill="none" stroke="#10504d" cx="900.583" cy="-301.773" rx="4" ry="4"/>
<polygon fill="#10504d" stroke="#10504d" points="1241.06,-183.16 1251.66,-180.335 1244.94,-180.003 1248.82,-176.846 1248.82,-176.846 1248.82,-176.846 1244.94,-180.003 1245.97,-173.356 1241.06,-183.16 1241.06,-183.16"/>
</g>
<!-- Employee -->
<g id="node7" class="node"><title>Employee</title>
<ellipse fill="none" stroke="black" cx="854.93" cy="-234" rx="47.169" ry="18"/>
<text text-anchor="middle" x="854.93" y="-230.3" font-family="Times,serif" font-size="14.00">Employee</text>
</g>
<!-- Business&#45;&gt;Employee -->
<g id="edge4" class="edge"><title>Business&#45;&gt;Employee</title>
<path fill="none" stroke="#ac7937" d="M854.93,-279.64C854.93,-274.063 854.93,-268.132 854.93,-262.476"/>
<ellipse fill="none" stroke="#ac7937" cx="854.93" cy="-283.697" rx="4" ry="4"/>
<polygon fill="#ac7937" stroke="#ac7937" points="854.93,-262.104 859.43,-252.104 854.93,-257.104 854.93,-252.104 854.93,-252.104 854.93,-252.104 854.93,-257.104 850.43,-252.104 854.93,-262.104 854.93,-262.104"/>
</g>
<!-- Vehicle -->
<g id="node21" class="node"><title>Vehicle</title>
<ellipse fill="none" stroke="black" cx="324.93" cy="-234" rx="38.4949" ry="18"/>
<text text-anchor="middle" x="324.93" y="-230.3" font-family="Times,serif" font-size="14.00">Vehicle</text>
</g>
<!-- Business&#45;&gt;Vehicle -->
<g id="edge5" class="edge"><title>Business&#45;&gt;Vehicle</title>
<path fill="none" stroke="#983338" d="M806.905,-298.657C705.758,-285.298 471.897,-254.411 371.784,-241.188"/>
<ellipse fill="none" stroke="#983338" cx="811.128" cy="-299.215" rx="4.00001" ry="4.00001"/>
<polygon fill="#983338" stroke="#983338" points="371.584,-241.162 362.259,-235.391 366.627,-240.507 361.67,-239.852 361.67,-239.852 361.67,-239.852 366.627,-240.507 361.081,-244.314 371.584,-241.162 371.584,-241.162"/>
</g>
<!-- DailyDataEmployee -->
<g id="node4" class="node"><title>DailyDataEmployee</title>
<ellipse fill="none" stroke="black" cx="647.93" cy="-162" rx="85.2138" ry="18"/>
<text text-anchor="middle" x="647.93" y="-158.3" font-family="Times,serif" font-size="14.00">DailyDataEmployee</text>
</g>
<!-- DailyDataEmployee&#45;&gt;Note -->
<g id="edge6" class="edge"><title>DailyDataEmployee&#45;&gt;Note</title>
<path fill="none" stroke="#a3fd75" d="M671.805,-138.549C700.504,-111.56 748.302,-66.6109 776.392,-40.1946"/>
<ellipse fill="none" stroke="#a3fd75" cx="668.759" cy="-141.413" rx="4.00002" ry="4.00002"/>
<polygon fill="#a3fd75" stroke="#a3fd75" points="776.476,-40.1163 786.843,-36.5438 780.118,-36.691 783.76,-33.2657 783.76,-33.2657 783.76,-33.2657 780.118,-36.691 780.678,-29.9875 776.476,-40.1163 776.476,-40.1163"/>
</g>
<!-- DailyDataVehicle -->
<g id="node5" class="node"><title>DailyDataVehicle</title>
<ellipse fill="none" stroke="black" cx="467.93" cy="-162" rx="76.5394" ry="18"/>
<text text-anchor="middle" x="467.93" y="-158.3" font-family="Times,serif" font-size="14.00">DailyDataVehicle</text>
</g>
<!-- DailyDataVehicle&#45;&gt;Note -->
<g id="edge7" class="edge"><title>DailyDataVehicle&#45;&gt;Note</title>
<path fill="none" stroke="#200c17" d="M510.506,-142.735C577.655,-113.928 706.676,-58.5772 766.722,-32.8176"/>
<ellipse fill="none" stroke="#200c17" cx="506.716" cy="-144.361" rx="4.00002" ry="4.00002"/>
<polygon fill="#200c17" stroke="#200c17" points="766.896,-32.7429 777.86,-32.9358 771.491,-30.7716 776.086,-28.8003 776.086,-28.8003 776.086,-28.8003 771.491,-30.7716 774.312,-24.6648 766.896,-32.7429 766.896,-32.7429"/>
</g>
<!-- DailyDatum -->
<g id="node6" class="node"><title>DailyDatum</title>
<ellipse fill="none" stroke="black" cx="647.93" cy="-306" rx="55.3436" ry="18"/>
<text text-anchor="middle" x="647.93" y="-302.3" font-family="Times,serif" font-size="14.00">DailyDatum</text>
</g>
<!-- DailyDatum&#45;&gt;Note -->
<g id="edge8" class="edge"><title>DailyDatum&#45;&gt;Note</title>
<path fill="none" stroke="#631f24" d="M602.217,-290.194C532.987,-266.738 406.938,-219.629 381.93,-180 373.392,-166.469 372.64,-157.027 381.93,-144 426.978,-80.8353 667.966,-38.5887 761.647,-24.3334"/>
<ellipse fill="none" stroke="#631f24" cx="606.168" cy="-291.523" rx="4.00001" ry="4.00001"/>
<polygon fill="#631f24" stroke="#631f24" points="761.654,-24.3324 772.211,-27.2988 766.599,-23.5905 771.543,-22.8486 771.543,-22.8486 771.543,-22.8486 766.599,-23.5905 770.875,-18.3984 761.654,-24.3324 761.654,-24.3324"/>
</g>
<!-- DailyDatum&#45;&gt;DailyDataVehicle -->
<g id="edge9" class="edge"><title>DailyDatum&#45;&gt;DailyDataVehicle</title>
<path fill="none" stroke="#89d3bd" d="M621.223,-283.931C587.933,-257.669 531.247,-212.95 496.924,-185.873"/>
<ellipse fill="none" stroke="#89d3bd" cx="624.491" cy="-286.509" rx="4.00002" ry="4.00002"/>
<polygon fill="#89d3bd" stroke="#89d3bd" points="496.559,-185.585 491.495,-175.859 492.634,-182.488 488.708,-179.392 488.708,-179.392 488.708,-179.392 492.634,-182.488 485.921,-182.925 496.559,-185.585 496.559,-185.585"/>
</g>
<!-- DailyDatum&#45;&gt;Vehicle -->
<g id="edge10" class="edge"><title>DailyDatum&#45;&gt;Vehicle</title>
<path fill="none" stroke="#91b268" d="M597.274,-291.323C592.438,-290.147 587.599,-289.019 582.93,-288 492.551,-268.28 467.737,-274.179 377.93,-252 373.591,-250.928 369.09,-249.689 364.627,-248.378"/>
<polygon fill="#91b268" stroke="#91b268" points="597.436,-291.363 606.048,-298.152 602.287,-292.575 607.138,-293.786 607.138,-293.786 607.138,-293.786 602.287,-292.575 608.228,-289.42 597.436,-291.363 597.436,-291.363"/>
<polygon fill="#91b268" stroke="#91b268" points="364.558,-248.357 356.313,-241.126 359.777,-246.893 354.996,-245.429 354.996,-245.429 354.996,-245.429 359.777,-246.893 353.678,-249.732 364.558,-248.357 364.558,-248.357"/>
</g>
<!-- DailyDatum&#45;&gt;DailyDataEmployee -->
<g id="edge11" class="edge"><title>DailyDatum&#45;&gt;DailyDataEmployee</title>
<path fill="none" stroke="#d62294" d="M647.93,-279.558C647.93,-254.444 647.93,-216.164 647.93,-190.393"/>
<ellipse fill="none" stroke="#d62294" cx="647.93" cy="-283.871" rx="4" ry="4"/>
<polygon fill="#d62294" stroke="#d62294" points="647.93,-190.189 652.43,-180.189 647.93,-185.189 647.93,-180.189 647.93,-180.189 647.93,-180.189 647.93,-185.189 643.43,-180.189 647.93,-190.189 647.93,-190.189"/>
</g>
<!-- DailyDatum&#45;&gt;Employee -->
<g id="edge12" class="edge"><title>DailyDatum&#45;&gt;Employee</title>
<path fill="none" stroke="#ec45f3" d="M694.816,-289.145C729.647,-277.366 776.835,-261.409 810.952,-249.872"/>
<polygon fill="#ec45f3" stroke="#ec45f3" points="694.411,-289.282 683.496,-288.223 689.674,-290.884 684.938,-292.485 684.938,-292.485 684.938,-292.485 689.674,-290.884 686.379,-296.748 694.411,-289.282 694.411,-289.282"/>
<polygon fill="#ec45f3" stroke="#ec45f3" points="811.176,-249.796 822.09,-250.856 815.912,-248.195 820.649,-246.593 820.649,-246.593 820.649,-246.593 815.912,-248.195 819.207,-242.33 811.176,-249.796 811.176,-249.796"/>
</g>
<!-- Employee&#45;&gt;Note -->
<g id="edge13" class="edge"><title>Employee&#45;&gt;Note</title>
<path fill="none" stroke="#7a1120" d="M835.289,-210.151C828.7,-201.285 821.999,-190.698 817.93,-180 800.939,-135.33 798.129,-79.0847 798.163,-46.2731"/>
<ellipse fill="none" stroke="#7a1120" cx="837.811" cy="-213.407" rx="4.00002" ry="4.00002"/>
<polygon fill="#7a1120" stroke="#7a1120" points="798.165,-46.0941 802.767,-36.1407 798.216,-41.0943 798.267,-36.0946 798.267,-36.0946 798.267,-36.0946 798.216,-41.0943 793.767,-36.0485 798.165,-46.0941 798.165,-46.0941"/>
</g>
<!-- User -->
<g id="node19" class="node"><title>User</title>
<ellipse fill="none" stroke="black" cx="854.93" cy="-162" rx="27.4223" ry="18"/>
<text text-anchor="middle" x="854.93" y="-158.3" font-family="Times,serif" font-size="14.00">User</text>
</g>
<!-- Employee&#45;&gt;User -->
<g id="edge14" class="edge"><title>Employee&#45;&gt;User</title>
<path fill="none" stroke="#826ef2" d="M854.93,-207.64C854.93,-201.348 854.93,-194.605 854.93,-188.316"/>
<ellipse fill="none" stroke="#826ef2" cx="854.93" cy="-211.697" rx="4" ry="4"/>
<ellipse fill="#826ef2" stroke="#826ef2" cx="854.93" cy="-184.104" rx="4" ry="4"/>
</g>
<!-- Employee&#45;&gt;DailyDataEmployee -->
<g id="edge15" class="edge"><title>Employee&#45;&gt;DailyDataEmployee</title>
<path fill="none" stroke="#206cd8" d="M812.978,-218.813C780.577,-207.857 735.538,-192.626 700.694,-180.843"/>
<ellipse fill="none" stroke="#206cd8" cx="816.959" cy="-220.16" rx="4.00001" ry="4.00001"/>
<polygon fill="#206cd8" stroke="#206cd8" points="700.628,-180.821 692.596,-173.354 695.891,-179.219 691.155,-177.617 691.155,-177.617 691.155,-177.617 695.891,-179.219 689.713,-181.88 700.628,-180.821 700.628,-180.821"/>
</g>
<!-- EmployeePsa -->
<g id="node8" class="node"><title>EmployeePsa</title>
<ellipse fill="none" stroke="black" cx="1176.93" cy="-90" rx="60.1672" ry="18"/>
<text text-anchor="middle" x="1176.93" y="-86.3" font-family="Times,serif" font-size="14.00">EmployeePsa</text>
</g>
<!-- Employee&#45;&gt;EmployeePsa -->
<g id="edge16" class="edge"><title>Employee&#45;&gt;EmployeePsa</title>
<path fill="none" stroke="#b54096" d="M893.721,-217.38C919.185,-207.018 953.162,-192.986 982.93,-180 1036.47,-156.643 1097.64,-128.304 1136.73,-109.975"/>
<ellipse fill="none" stroke="#b54096" cx="889.812" cy="-218.968" rx="4.00001" ry="4.00001"/>
<polygon fill="#b54096" stroke="#b54096" points="1137.13,-109.79 1148.09,-109.614 1141.65,-107.665 1146.18,-105.54 1146.18,-105.54 1146.18,-105.54 1141.65,-107.665 1144.27,-101.467 1137.13,-109.79 1137.13,-109.79"/>
</g>
<!-- Employee&#45;&gt;Psa -->
<g id="edge17" class="edge"><title>Employee&#45;&gt;Psa</title>
<path fill="none" stroke="#e449ad" d="M907.379,-224.045C991.963,-209.604 1156.34,-181.54 1228.96,-169.141"/>
<polygon fill="#e449ad" stroke="#e449ad" points="907.121,-224.089 896.506,-221.337 902.192,-224.931 897.263,-225.772 897.263,-225.772 897.263,-225.772 902.192,-224.931 898.021,-230.208 907.121,-224.089 907.121,-224.089"/>
<polygon fill="#e449ad" stroke="#e449ad" points="1229.13,-169.112 1239.74,-171.865 1234.06,-168.271 1238.99,-167.429 1238.99,-167.429 1238.99,-167.429 1234.06,-168.271 1238.23,-162.994 1229.13,-169.112 1229.13,-169.112"/>
</g>
<!-- FedexContract -->
<g id="node9" class="node"><title>FedexContract</title>
<ellipse fill="none" stroke="black" cx="737.93" cy="-399" rx="64.0172" ry="18"/>
<text text-anchor="middle" x="737.93" y="-395.3" font-family="Times,serif" font-size="14.00">FedexContract</text>
</g>
<!-- FedexContract&#45;&gt;Business -->
<g id="edge18" class="edge"><title>FedexContract&#45;&gt;Business</title>
<path fill="none" stroke="#6567d3" d="M764.966,-376.972C783.679,-362.417 808.508,-343.106 827.34,-328.459"/>
<ellipse fill="none" stroke="#6567d3" cx="761.736" cy="-379.485" rx="4.00002" ry="4.00002"/>
<polygon fill="#6567d3" stroke="#6567d3" points="827.374,-328.433 838.03,-325.845 831.321,-325.363 835.268,-322.293 835.268,-322.293 835.268,-322.293 831.321,-325.363 832.505,-318.741 827.374,-328.433 827.374,-328.433"/>
</g>
<!-- FedexContract&#45;&gt;Addendum -->
<g id="edge19" class="edge"><title>FedexContract&#45;&gt;Addendum</title>
<path fill="none" stroke="#eba23c" d="M737.93,-372.52C737.93,-342.6 737.93,-293.164 737.93,-262.427"/>
<ellipse fill="none" stroke="#eba23c" cx="737.93" cy="-376.864" rx="4" ry="4"/>
<polygon fill="#eba23c" stroke="#eba23c" points="737.93,-262.397 742.43,-252.397 737.93,-257.397 737.93,-252.397 737.93,-252.397 737.93,-252.397 737.93,-257.397 733.43,-252.397 737.93,-262.397 737.93,-262.397"/>
</g>
<!-- FedexContract&#45;&gt;Note -->
<g id="edge20" class="edge"><title>FedexContract&#45;&gt;Note</title>
<path fill="none" stroke="#09973d" d="M706.915,-378.145C694.37,-371.123 679.442,-363.984 664.93,-360 595.927,-341.056 76.2797,-370.545 21.9302,-324 -8.79059,-297.691 2.9302,-275.447 2.9302,-235 2.9302,-235 2.9302,-235 2.9302,-161 2.9302,-83.1259 601.002,-33.5635 760.325,-21.742"/>
<ellipse fill="none" stroke="#09973d" cx="710.542" cy="-380.241" rx="4.00002" ry="4.00002"/>
<polygon fill="#09973d" stroke="#09973d" points="760.627,-21.7199 770.93,-25.4749 765.614,-21.3534 770.6,-20.987 770.6,-20.987 770.6,-20.987 765.614,-21.3534 770.27,-16.4991 760.627,-21.7199 760.627,-21.7199"/>
</g>
<!-- Psa&#45;&gt;Note -->
<g id="edge21" class="edge"><title>Psa&#45;&gt;Note</title>
<path fill="none" stroke="#5ccf83" d="M1266.86,-135.563C1266.9,-115.316 1263.3,-87.8339 1245.93,-72 1215.95,-44.6677 940.505,-26.8048 837.532,-21.0325"/>
<ellipse fill="none" stroke="#5ccf83" cx="1266.76" cy="-139.744" rx="4" ry="4"/>
<polygon fill="#5ccf83" stroke="#5ccf83" points="837.251,-21.0171 827.514,-15.9721 832.258,-20.7412 827.266,-20.4652 827.266,-20.4652 827.266,-20.4652 832.258,-20.7412 827.017,-24.9584 837.251,-21.0171 837.251,-21.0171"/>
</g>
<!-- Psazip -->
<g id="node13" class="node"><title>Psazip</title>
<ellipse fill="none" stroke="black" cx="1469.93" cy="-18" rx="34.1708" ry="18"/>
<text text-anchor="middle" x="1469.93" y="-14.3" font-family="Times,serif" font-size="14.00">Psazip</text>
</g>
<!-- Psa&#45;&gt;Psazip -->
<g id="edge22" class="edge"><title>Psa&#45;&gt;Psazip</title>
<path fill="none" stroke="#fcbcc6" d="M1300.22,-160.923C1341.76,-158.844 1410,-148.875 1448.93,-108 1464.54,-91.6074 1469.28,-65.8636 1470.41,-46.2718"/>
<ellipse fill="none" stroke="#fcbcc6" cx="1296.03" cy="-161.089" rx="4" ry="4"/>
<polygon fill="#fcbcc6" stroke="#fcbcc6" points="1470.41,-46.1144 1475.21,-36.2536 1470.56,-41.1166 1470.71,-36.1188 1470.71,-36.1188 1470.71,-36.1188 1470.56,-41.1166 1466.22,-35.9841 1470.41,-46.1144 1470.41,-46.1144"/>
</g>
<!-- Zip -->
<g id="node25" class="node"><title>Zip</title>
<ellipse fill="none" stroke="black" cx="1395.93" cy="-90" rx="27" ry="18"/>
<text text-anchor="middle" x="1395.93" y="-86.3" font-family="Times,serif" font-size="14.00">Zip</text>
</g>
<!-- Psa&#45;&gt;Zip -->
<g id="edge23" class="edge"><title>Psa&#45;&gt;Zip</title>
<path fill="none" stroke="#86c870" d="M1294.35,-145.281C1315.91,-133.76 1345.05,-118.189 1366.59,-106.678"/>
<polygon fill="#86c870" stroke="#86c870" points="1294.22,-145.35 1283.28,-146.094 1289.81,-147.706 1285.4,-150.062 1285.4,-150.062 1285.4,-150.062 1289.81,-147.706 1287.52,-154.031 1294.22,-145.35 1294.22,-145.35"/>
<polygon fill="#86c870" stroke="#86c870" points="1366.79,-106.574 1377.73,-105.83 1371.2,-104.217 1375.61,-101.861 1375.61,-101.861 1375.61,-101.861 1371.2,-104.217 1373.48,-97.8918 1366.79,-106.574 1366.79,-106.574"/>
</g>
<!-- PsaState -->
<g id="node12" class="node"><title>PsaState</title>
<ellipse fill="none" stroke="black" cx="1339.93" cy="-18" rx="41.394" ry="18"/>
<text text-anchor="middle" x="1339.93" y="-14.3" font-family="Times,serif" font-size="14.00">PsaState</text>
</g>
<!-- Psa&#45;&gt;PsaState -->
<g id="edge24" class="edge"><title>Psa&#45;&gt;PsaState</title>
<path fill="none" stroke="#3a3cce" d="M1300.16,-161.122C1339.57,-159.128 1401.83,-149.137 1431.93,-108 1441.38,-95.088 1439.94,-85.8526 1431.93,-72 1421.2,-53.4326 1401.22,-40.7951 1382.61,-32.5325"/>
<ellipse fill="none" stroke="#3a3cce" cx="1296.11" cy="-161.279" rx="4" ry="4"/>
<polygon fill="#3a3cce" stroke="#3a3cce" points="1382.6,-32.5257 1375.07,-24.5519 1377.98,-30.6187 1373.35,-28.7118 1373.35,-28.7118 1373.35,-28.7118 1377.98,-30.6187 1371.64,-32.8716 1382.6,-32.5257 1382.6,-32.5257"/>
</g>
<!-- State -->
<g id="node17" class="node"><title>State</title>
<ellipse fill="none" stroke="black" cx="1321.93" cy="-90" rx="28.3955" ry="18"/>
<text text-anchor="middle" x="1321.93" y="-86.3" font-family="Times,serif" font-size="14.00">State</text>
</g>
<!-- Psa&#45;&gt;State -->
<g id="edge25" class="edge"><title>Psa&#45;&gt;State</title>
<path fill="none" stroke="#c2a03d" d="M1283.67,-137.987C1289.81,-130.441 1296.65,-122.05 1302.82,-114.471"/>
<polygon fill="#c2a03d" stroke="#c2a03d" points="1283.61,-138.057 1273.81,-142.97 1280.46,-141.934 1277.3,-145.811 1277.3,-145.811 1277.3,-145.811 1280.46,-141.934 1280.79,-148.652 1283.61,-138.057 1283.61,-138.057"/>
<polygon fill="#c2a03d" stroke="#c2a03d" points="1302.88,-114.398 1312.68,-109.485 1306.03,-110.521 1309.19,-106.644 1309.19,-106.644 1309.19,-106.644 1306.03,-110.521 1305.7,-103.803 1302.88,-114.398 1302.88,-114.398"/>
</g>
<!-- Psa&#45;&gt;EmployeePsa -->
<g id="edge26" class="edge"><title>Psa&#45;&gt;EmployeePsa</title>
<path fill="none" stroke="#6cb9e1" d="M1241.51,-142.368C1230.41,-133.543 1217.06,-122.925 1205.39,-113.64"/>
<ellipse fill="none" stroke="#6cb9e1" cx="1244.83" cy="-145.013" rx="4.00002" ry="4.00002"/>
<polygon fill="#6cb9e1" stroke="#6cb9e1" points="1205.07,-113.384 1200.04,-103.637 1201.16,-110.271 1197.24,-107.158 1197.24,-107.158 1197.24,-107.158 1201.16,-110.271 1194.44,-110.68 1205.07,-113.384 1205.07,-113.384"/>
</g>
<!-- Region -->
<g id="node14" class="node"><title>Region</title>
<ellipse fill="none" stroke="black" cx="1051.93" cy="-234" rx="37.0701" ry="18"/>
<text text-anchor="middle" x="1051.93" y="-230.3" font-family="Times,serif" font-size="14.00">Region</text>
</g>
<!-- Region&#45;&gt;Psa -->
<g id="edge27" class="edge"><title>Region&#45;&gt;Psa</title>
<path fill="none" stroke="#577703" d="M1089.86,-220.535C1130.13,-207.302 1193.15,-186.591 1231.58,-173.96"/>
<ellipse fill="none" stroke="#577703" cx="1085.8" cy="-221.87" rx="4.00001" ry="4.00001"/>
<polygon fill="#577703" stroke="#577703" points="1231.76,-173.901 1242.66,-175.054 1236.51,-172.34 1241.26,-170.779 1241.26,-170.779 1241.26,-170.779 1236.51,-172.34 1239.86,-166.504 1231.76,-173.901 1231.76,-173.901"/>
</g>
<!-- Terminal -->
<g id="node18" class="node"><title>Terminal</title>
<ellipse fill="none" stroke="black" cx="1016.93" cy="-90" rx="44.2946" ry="18"/>
<text text-anchor="middle" x="1016.93" y="-86.3" font-family="Times,serif" font-size="14.00">Terminal</text>
</g>
<!-- Region&#45;&gt;Terminal -->
<g id="edge28" class="edge"><title>Region&#45;&gt;Terminal</title>
<path fill="none" stroke="#3697bf" d="M1057.3,-207.462C1060.03,-189.319 1061.56,-164.617 1054.93,-144 1051.6,-133.652 1045.43,-123.612 1039.01,-115.104"/>
<ellipse fill="none" stroke="#3697bf" cx="1056.55" cy="-211.852" rx="4.00001" ry="4.00001"/>
<polygon fill="#3697bf" stroke="#3697bf" points="1038.88,-114.94 1036.11,-104.33 1035.74,-111.046 1032.6,-107.152 1032.6,-107.152 1032.6,-107.152 1035.74,-111.046 1029.1,-109.975 1038.88,-114.94 1038.88,-114.94"/>
</g>
<!-- Region&#45;&gt;Note -->
<g id="edge29" class="edge"><title>Region&#45;&gt;Note</title>
<path fill="none" stroke="#110c0e" d="M1035.8,-209.691C1008.07,-170.143 951.77,-92.2108 924.93,-72 897.698,-51.4937 861.354,-37.313 834.699,-28.8155"/>
<ellipse fill="none" stroke="#110c0e" cx="1038.34" cy="-213.328" rx="4.00002" ry="4.00002"/>
<polygon fill="#110c0e" stroke="#110c0e" points="834.556,-28.7717 826.318,-21.534 829.776,-27.3037 824.997,-25.8357 824.997,-25.8357 824.997,-25.8357 829.776,-27.3037 823.676,-30.1374 834.556,-28.7717 834.556,-28.7717"/>
</g>
<!-- Role -->
<g id="node15" class="node"><title>Role</title>
<ellipse fill="none" stroke="black" cx="928.93" cy="-162" rx="27.4223" ry="18"/>
<text text-anchor="middle" x="928.93" y="-158.3" font-family="Times,serif" font-size="14.00">Role</text>
</g>
<!-- UserRole -->
<g id="node20" class="node"><title>UserRole</title>
<ellipse fill="none" stroke="black" cx="871.93" cy="-90" rx="44.271" ry="18"/>
<text text-anchor="middle" x="871.93" y="-86.3" font-family="Times,serif" font-size="14.00">UserRole</text>
</g>
<!-- Role&#45;&gt;UserRole -->
<g id="edge30" class="edge"><title>Role&#45;&gt;UserRole</title>
<path fill="none" stroke="#5743c5" d="M911.335,-139.392C905.217,-131.879 898.31,-123.396 892.007,-115.655"/>
<ellipse fill="none" stroke="#5743c5" cx="914.036" cy="-142.709" rx="4.00002" ry="4.00002"/>
<polygon fill="#5743c5" stroke="#5743c5" points="891.784,-115.382 888.959,-104.786 888.627,-111.505 885.47,-107.628 885.47,-107.628 885.47,-107.628 888.627,-111.505 881.981,-110.469 891.784,-115.382 891.784,-115.382"/>
</g>
<!-- Role&#45;&gt;Role -->
<g id="edge31" class="edge"><title>Role&#45;&gt;Role</title>
<path fill="none" stroke="#3bece7" d="M958.97,-175.436C967.431,-174.857 973.93,-170.378 973.93,-162 973.93,-153.622 967.431,-149.143 958.97,-148.564"/>
<polygon fill="#3bece7" stroke="#3bece7" points="958.777,-175.417 949.268,-169.954 953.801,-174.924 948.825,-174.432 948.825,-174.432 948.825,-174.432 953.801,-174.924 948.382,-178.91 958.777,-175.417 958.777,-175.417"/>
<polygon fill="#3bece7" stroke="#3bece7" points="958.777,-148.583 948.382,-145.09 953.801,-149.076 948.825,-149.568 948.825,-149.568 948.825,-149.568 953.801,-149.076 949.268,-154.046 958.777,-148.583 958.777,-148.583"/>
</g>
<!-- ServiceType -->
<g id="node16" class="node"><title>ServiceType</title>
<ellipse fill="none" stroke="black" cx="517.93" cy="-306" rx="56.3173" ry="18"/>
<text text-anchor="middle" x="517.93" y="-302.3" font-family="Times,serif" font-size="14.00">ServiceType</text>
</g>
<!-- ServiceType&#45;&gt;Vehicle -->
<g id="edge32" class="edge"><title>ServiceType&#45;&gt;Vehicle</title>
<path fill="none" stroke="#7f1d6c" d="M474.513,-289.253C441.371,-277.233 396.103,-260.814 364.07,-249.196"/>
<ellipse fill="none" stroke="#7f1d6c" cx="478.32" cy="-290.634" rx="4.00001" ry="4.00001"/>
<polygon fill="#7f1d6c" stroke="#7f1d6c" points="363.983,-249.164 356.116,-241.524 359.282,-247.459 354.582,-245.755 354.582,-245.755 354.582,-245.755 359.282,-247.459 353.048,-249.985 363.983,-249.164 363.983,-249.164"/>
</g>
<!-- State&#45;&gt;PsaState -->
<g id="edge33" class="edge"><title>State&#45;&gt;PsaState</title>
<path fill="none" stroke="#f3de74" d="M1328.29,-64.2675C1329.78,-58.4845 1331.37,-52.2913 1332.88,-46.3999"/>
<ellipse fill="none" stroke="#f3de74" cx="1327.28" cy="-68.181" rx="4.00001" ry="4.00001"/>
<polygon fill="#f3de74" stroke="#f3de74" points="1333,-45.9602 1339.85,-37.396 1334.24,-41.1178 1335.49,-36.2753 1335.49,-36.2753 1335.49,-36.2753 1334.24,-41.1178 1331.13,-35.1546 1333,-45.9602 1333,-45.9602"/>
</g>
<!-- State&#45;&gt;Note -->
<g id="edge34" class="edge"><title>State&#45;&gt;Note</title>
<path fill="none" stroke="#7d89d4" d="M1291.96,-75.9834C1287.64,-74.4545 1283.22,-73.0633 1278.93,-72 1118.15,-32.1029 919.612,-22.2201 837.383,-19.7873"/>
<ellipse fill="none" stroke="#7d89d4" cx="1295.8" cy="-77.4316" rx="4.00001" ry="4.00001"/>
<polygon fill="#7d89d4" stroke="#7d89d4" points="837.249,-19.7837 827.377,-15.0101 832.251,-19.6461 827.253,-19.5084 827.253,-19.5084 827.253,-19.5084 832.251,-19.6461 827.129,-24.0067 837.249,-19.7837 837.249,-19.7837"/>
</g>
<!-- Terminal&#45;&gt;Note -->
<g id="edge35" class="edge"><title>Terminal&#45;&gt;Note</title>
<path fill="none" stroke="#cbb580" d="M975.559,-75.7156C934.422,-62.5065 872.038,-42.4751 833.474,-30.0919"/>
<ellipse fill="none" stroke="#cbb580" cx="979.537" cy="-76.993" rx="4.00001" ry="4.00001"/>
<polygon fill="#cbb580" stroke="#cbb580" points="833.259,-30.0231 825.114,-22.6812 828.498,-28.4944 823.738,-26.9657 823.738,-26.9657 823.738,-26.9657 828.498,-28.4944 822.362,-31.2503 833.259,-30.0231 833.259,-30.0231"/>
</g>
<!-- User&#45;&gt;UserRole -->
<g id="edge36" class="edge"><title>User&#45;&gt;UserRole</title>
<path fill="none" stroke="#2f5221" d="M860.937,-136.267C862.341,-130.485 863.845,-124.291 865.276,-118.4"/>
<ellipse fill="none" stroke="#2f5221" cx="859.989" cy="-140.168" rx="4.00001" ry="4.00001"/>
<polygon fill="#2f5221" stroke="#2f5221" points="865.375,-117.993 872.108,-109.337 866.555,-113.134 867.735,-108.275 867.735,-108.275 867.735,-108.275 866.555,-113.134 863.362,-107.213 865.375,-117.993 865.375,-117.993"/>
</g>
<!-- Vehicle&#45;&gt;Note -->
<g id="edge37" class="edge"><title>Vehicle&#45;&gt;Note</title>
<path fill="none" stroke="#e002de" d="M320.331,-207.982C315.369,-172.333 312.493,-107.334 348.93,-72 378.311,-43.5091 657.289,-26.3159 760.653,-20.8796"/>
<ellipse fill="none" stroke="#e002de" cx="320.944" cy="-212.005" rx="4.00001" ry="4.00001"/>
<polygon fill="#e002de" stroke="#e002de" points="760.677,-20.8785 770.896,-24.8551 765.67,-20.6198 770.664,-20.3611 770.664,-20.3611 770.664,-20.3611 765.67,-20.6198 770.431,-15.8672 760.677,-20.8785 760.677,-20.8785"/>
</g>
<!-- Vehicle&#45;&gt;DailyDataVehicle -->
<g id="edge38" class="edge"><title>Vehicle&#45;&gt;DailyDataVehicle</title>
<path fill="none" stroke="#56f9d0" d="M357.855,-216.883C378.503,-206.775 405.277,-193.67 427.249,-182.914"/>
<ellipse fill="none" stroke="#56f9d0" cx="354.088" cy="-218.727" rx="4.00002" ry="4.00002"/>
<polygon fill="#56f9d0" stroke="#56f9d0" points="427.358,-182.861 438.318,-182.506 431.849,-180.662 436.339,-178.464 436.339,-178.464 436.339,-178.464 431.849,-180.662 434.361,-174.422 427.358,-182.861 427.358,-182.861"/>
</g>
<!-- VehicleFuel -->
<g id="node22" class="node"><title>VehicleFuel</title>
<ellipse fill="none" stroke="black" cx="85.9302" cy="-306" rx="55.3682" ry="18"/>
<text text-anchor="middle" x="85.9302" y="-302.3" font-family="Times,serif" font-size="14.00">VehicleFuel</text>
</g>
<!-- VehicleFuel&#45;&gt;Vehicle -->
<g id="edge39" class="edge"><title>VehicleFuel&#45;&gt;Vehicle</title>
<path fill="none" stroke="#7df2f4" d="M133.635,-291.028C177.394,-278.211 241.565,-259.417 283.297,-247.194"/>
<ellipse fill="none" stroke="#7df2f4" cx="129.503" cy="-292.238" rx="4.00001" ry="4.00001"/>
<polygon fill="#7df2f4" stroke="#7df2f4" points="283.541,-247.122 294.403,-248.63 288.339,-245.717 293.138,-244.312 293.138,-244.312 293.138,-244.312 288.339,-245.717 291.873,-239.993 283.541,-247.122 283.541,-247.122"/>
</g>
<!-- VehicleOdometer -->
<g id="node23" class="node"><title>VehicleOdometer</title>
<ellipse fill="none" stroke="black" cx="234.93" cy="-306" rx="75.0904" ry="18"/>
<text text-anchor="middle" x="234.93" y="-302.3" font-family="Times,serif" font-size="14.00">VehicleOdometer</text>
</g>
<!-- VehicleOdometer&#45;&gt;Vehicle -->
<g id="edge40" class="edge"><title>VehicleOdometer&#45;&gt;Vehicle</title>
<path fill="none" stroke="#bc1b61" d="M262.883,-283.259C274.019,-274.597 286.79,-264.665 297.839,-256.071"/>
<ellipse fill="none" stroke="#bc1b61" cx="259.416" cy="-285.955" rx="4.00002" ry="4.00002"/>
<polygon fill="#bc1b61" stroke="#bc1b61" points="298.003,-255.943 308.66,-253.356 301.95,-252.873 305.897,-249.804 305.897,-249.804 305.897,-249.804 301.95,-252.873 303.134,-246.252 298.003,-255.943 298.003,-255.943"/>
</g>
<!-- VehicleType -->
<g id="node24" class="node"><title>VehicleType</title>
<ellipse fill="none" stroke="black" cx="385.93" cy="-306" rx="57.2688" ry="18"/>
<text text-anchor="middle" x="385.93" y="-302.3" font-family="Times,serif" font-size="14.00">VehicleType</text>
</g>
<!-- VehicleType&#45;&gt;Vehicle -->
<g id="edge41" class="edge"><title>VehicleType&#45;&gt;Vehicle</title>
<path fill="none" stroke="#051fdb" d="M366.142,-282.293C359.603,-274.789 352.311,-266.421 345.701,-258.835"/>
<ellipse fill="none" stroke="#051fdb" cx="368.846" cy="-285.395" rx="4.00002" ry="4.00002"/>
<polygon fill="#051fdb" stroke="#051fdb" points="345.433,-258.527 342.255,-248.032 342.148,-254.758 338.863,-250.988 338.863,-250.988 338.863,-250.988 342.148,-254.758 335.47,-253.945 345.433,-258.527 345.433,-258.527"/>
</g>
<!-- Zip&#45;&gt;Psazip -->
<g id="edge42" class="edge"><title>Zip&#45;&gt;Psazip</title>
<path fill="none" stroke="#c7fcc7" d="M1416.79,-69.2706C1426.09,-60.4737 1437.08,-50.0758 1446.65,-41.026"/>
<ellipse fill="none" stroke="#c7fcc7" cx="1413.81" cy="-72.0856" rx="4.00002" ry="4.00002"/>
<polygon fill="#c7fcc7" stroke="#c7fcc7" points="1446.69,-40.9856 1457.05,-37.3827 1450.32,-37.5496 1453.95,-34.1135 1453.95,-34.1135 1453.95,-34.1135 1450.32,-37.5496 1450.86,-30.8444 1446.69,-40.9856 1446.69,-40.9856"/>
</g>
<!-- Zip&#45;&gt;Note -->
<g id="edge43" class="edge"><title>Zip&#45;&gt;Note</title>
<path fill="none" stroke="#da89b5" d="M1367.71,-74.877C1364.79,-73.7691 1361.83,-72.7797 1358.93,-72 1168.42,-20.8045 929.888,-17.4032 837.737,-18.2461"/>
<ellipse fill="none" stroke="#da89b5" cx="1371.56" cy="-76.4852" rx="4.00002" ry="4.00002"/>
<polygon fill="#da89b5" stroke="#da89b5" points="837.491,-18.2488 827.44,-13.8638 832.491,-18.3061 827.492,-18.3635 827.492,-18.3635 827.492,-18.3635 832.491,-18.3061 827.543,-22.8632 837.491,-18.2488 837.491,-18.2488"/>
</g>
</g>
</svg>
