<?xml version="1.0" encoding="UTF-8" standalone="no"?>
<!DOCTYPE svg PUBLIC "-//W3C//DTD SVG 1.1//EN"
 "http://www.w3.org/Graphics/SVG/1.1/DTD/svg11.dtd">
<!-- Generated by graphviz version 2.29.20121209.0545 (20121209.0545)
 -->
<!-- Title: models_diagram Pages: 1 -->
<svg width="1293pt" height="786pt"
 viewBox="0.00 0.00 1293.00 786.00" xmlns="http://www.w3.org/2000/svg" xmlns:xlink="http://www.w3.org/1999/xlink">
<g id="graph0" class="graph" transform="scale(1 1) rotate(0) translate(4 782)">
<title>models_diagram</title>
<polygon fill="white" stroke="white" points="-4,5 -4,-782 1290,-782 1290,5 -4,5"/>
<!-- _diagram_info -->
<g id="node1" class="node"><title>_diagram_info</title>
<text text-anchor="start" x="21" y="-711.6" font-family="Times,serif" font-size="13.00">Models diagram</text>
<text text-anchor="start" x="21" y="-697.6" font-family="Times,serif" font-size="13.00">Date: Dec 10 2012 &#45; 03:08</text>
<text text-anchor="start" x="21" y="-683.6" font-family="Times,serif" font-size="13.00">Migration version: 20121210034931</text>
<text text-anchor="start" x="21" y="-669.6" font-family="Times,serif" font-size="13.00">Generated by RailRoady 1.1.0</text>
<text text-anchor="start" x="21" y="-655.6" font-family="Times,serif" font-size="13.00">http://railroady.prestonlee.com</text>
</g>
<!-- Addendum -->
<g id="node2" class="node"><title>Addendum</title>
<path fill="none" stroke="black" d="M792,-355.5C792,-355.5 1030,-355.5 1030,-355.5 1036,-355.5 1042,-361.5 1042,-367.5 1042,-367.5 1042,-524.5 1042,-524.5 1042,-530.5 1036,-536.5 1030,-536.5 1030,-536.5 792,-536.5 792,-536.5 786,-536.5 780,-530.5 780,-524.5 780,-524.5 780,-367.5 780,-367.5 780,-361.5 786,-355.5 792,-355.5"/>
<text text-anchor="middle" x="911" y="-521.3" font-family="Times,serif" font-size="14.00">Addendum</text>
<polyline fill="none" stroke="black" points="780,-513.5 1042,-513.5 "/>
<text text-anchor="start" x="788" y="-498.3" font-family="Times,serif" font-size="14.00">id :integer</text>
<text text-anchor="start" x="788" y="-483.3" font-family="Times,serif" font-size="14.00">fedexAddendumName :string</text>
<text text-anchor="start" x="788" y="-468.3" font-family="Times,serif" font-size="14.00">fedexAddendumNumber :integer</text>
<text text-anchor="start" x="788" y="-453.3" font-family="Times,serif" font-size="14.00">fedexContractorAddendumName :string</text>
<text text-anchor="start" x="788" y="-438.3" font-family="Times,serif" font-size="14.00">fedexContractorAddendumNumber :integer</text>
<text text-anchor="start" x="788" y="-423.3" font-family="Times,serif" font-size="14.00">content :text</text>
<text text-anchor="start" x="788" y="-408.3" font-family="Times,serif" font-size="14.00">startDate :datetime</text>
<text text-anchor="start" x="788" y="-393.3" font-family="Times,serif" font-size="14.00">endDate :datetime</text>
<text text-anchor="start" x="788" y="-378.3" font-family="Times,serif" font-size="14.00">created_at :datetime</text>
<text text-anchor="start" x="788" y="-363.3" font-family="Times,serif" font-size="14.00">updated_at :datetime</text>
</g>
<!-- Note -->
<g id="node5" class="node"><title>Note</title>
<path fill="none" stroke="black" d="M598,-144.5C598,-144.5 708,-144.5 708,-144.5 714,-144.5 720,-150.5 720,-156.5 720,-156.5 720,-283.5 720,-283.5 720,-289.5 714,-295.5 708,-295.5 708,-295.5 598,-295.5 598,-295.5 592,-295.5 586,-289.5 586,-283.5 586,-283.5 586,-156.5 586,-156.5 586,-150.5 592,-144.5 598,-144.5"/>
<text text-anchor="middle" x="653" y="-280.3" font-family="Times,serif" font-size="14.00">Note</text>
<polyline fill="none" stroke="black" points="586,-272.5 720,-272.5 "/>
<text text-anchor="start" x="594" y="-257.3" font-family="Times,serif" font-size="14.00">id :integer</text>
<text text-anchor="start" x="594" y="-242.3" font-family="Times,serif" font-size="14.00">notable_id :integer</text>
<text text-anchor="start" x="594" y="-227.3" font-family="Times,serif" font-size="14.00">notable_type :string</text>
<text text-anchor="start" x="594" y="-212.3" font-family="Times,serif" font-size="14.00">content :text</text>
<text text-anchor="start" x="594" y="-197.3" font-family="Times,serif" font-size="14.00">startDate :datetime</text>
<text text-anchor="start" x="594" y="-182.3" font-family="Times,serif" font-size="14.00">endDate :datetime</text>
<text text-anchor="start" x="594" y="-167.3" font-family="Times,serif" font-size="14.00">created_at :datetime</text>
<text text-anchor="start" x="594" y="-152.3" font-family="Times,serif" font-size="14.00">updated_at :datetime</text>
</g>
<!-- Addendum&#45;&gt;Note -->
<g id="edge1" class="edge"><title>Addendum&#45;&gt;Note</title>
<path fill="none" stroke="#0208cf" d="M801.313,-349.768C776.532,-328.253 750.779,-305.893 727.822,-285.962"/>
<ellipse fill="none" stroke="#0208cf" cx="804.528" cy="-352.559" rx="4.00002" ry="4.00002"/>
<polygon fill="#0208cf" stroke="#0208cf" points="727.701,-285.857 723.1,-275.903 723.925,-282.579 720.15,-279.301 720.15,-279.301 720.15,-279.301 723.925,-282.579 717.2,-282.699 727.701,-285.857 727.701,-285.857"/>
</g>
<!-- Employee -->
<g id="node3" class="node"><title>Employee</title>
<path fill="none" stroke="black" d="M373.5,-333C373.5,-333 514.5,-333 514.5,-333 520.5,-333 526.5,-339 526.5,-345 526.5,-345 526.5,-547 526.5,-547 526.5,-553 520.5,-559 514.5,-559 514.5,-559 373.5,-559 373.5,-559 367.5,-559 361.5,-553 361.5,-547 361.5,-547 361.5,-345 361.5,-345 361.5,-339 367.5,-333 373.5,-333"/>
<text text-anchor="middle" x="444" y="-543.8" font-family="Times,serif" font-size="14.00">Employee</text>
<polyline fill="none" stroke="black" points="361.5,-536 526.5,-536 "/>
<text text-anchor="start" x="369.5" y="-520.8" font-family="Times,serif" font-size="14.00">id :integer</text>
<text text-anchor="start" x="369.5" y="-505.8" font-family="Times,serif" font-size="14.00">firstName :string</text>
<text text-anchor="start" x="369.5" y="-490.8" font-family="Times,serif" font-size="14.00">lastName :string</text>
<text text-anchor="start" x="369.5" y="-475.8" font-family="Times,serif" font-size="14.00">fedexNumber :integer</text>
<text text-anchor="start" x="369.5" y="-460.8" font-family="Times,serif" font-size="14.00">contractorNumber :integer</text>
<text text-anchor="start" x="369.5" y="-445.8" font-family="Times,serif" font-size="14.00">hireDate :date</text>
<text text-anchor="start" x="369.5" y="-430.8" font-family="Times,serif" font-size="14.00">dateOfBirth :date</text>
<text text-anchor="start" x="369.5" y="-415.8" font-family="Times,serif" font-size="14.00">activeBoolean :boolean</text>
<text text-anchor="start" x="369.5" y="-400.8" font-family="Times,serif" font-size="14.00">startDate :datetime</text>
<text text-anchor="start" x="369.5" y="-385.8" font-family="Times,serif" font-size="14.00">endDate :datetime</text>
<text text-anchor="start" x="369.5" y="-370.8" font-family="Times,serif" font-size="14.00">terminationDate :datetime</text>
<text text-anchor="start" x="369.5" y="-355.8" font-family="Times,serif" font-size="14.00">created_at :datetime</text>
<text text-anchor="start" x="369.5" y="-340.8" font-family="Times,serif" font-size="14.00">updated_at :datetime</text>
</g>
<!-- Employee&#45;&gt;Note -->
<g id="edge2" class="edge"><title>Employee&#45;&gt;Note</title>
<path fill="none" stroke="#89b382" d="M532.219,-336.112C533.482,-334.728 534.742,-333.357 536,-332 549.291,-317.661 564.037,-302.886 578.454,-288.98"/>
<ellipse fill="none" stroke="#89b382" cx="529.353" cy="-339.287" rx="4.00002" ry="4.00002"/>
<polygon fill="#89b382" stroke="#89b382" points="578.734,-288.712 589.068,-285.043 582.344,-285.253 585.954,-281.794 585.954,-281.794 585.954,-281.794 582.344,-285.253 582.841,-278.544 578.734,-288.712 578.734,-288.712"/>
</g>
<!-- User -->
<g id="node13" class="node"><title>User</title>
<path fill="none" stroke="black" d="M107,-159.5C107,-159.5 255,-159.5 255,-159.5 261,-159.5 267,-165.5 267,-171.5 267,-171.5 267,-268.5 267,-268.5 267,-274.5 261,-280.5 255,-280.5 255,-280.5 107,-280.5 107,-280.5 101,-280.5 95,-274.5 95,-268.5 95,-268.5 95,-171.5 95,-171.5 95,-165.5 101,-159.5 107,-159.5"/>
<text text-anchor="middle" x="181" y="-265.3" font-family="Times,serif" font-size="14.00">User</text>
<polyline fill="none" stroke="black" points="95,-257.5 267,-257.5 "/>
<text text-anchor="start" x="103" y="-242.3" font-family="Times,serif" font-size="14.00">id :integer</text>
<text text-anchor="start" x="103" y="-227.3" font-family="Times,serif" font-size="14.00">contractorBoolean :boolean</text>
<text text-anchor="start" x="103" y="-212.3" font-family="Times,serif" font-size="14.00">activeBoolean :boolean</text>
<text text-anchor="start" x="103" y="-197.3" font-family="Times,serif" font-size="14.00">employee_id :integer</text>
<text text-anchor="start" x="103" y="-182.3" font-family="Times,serif" font-size="14.00">created_at :datetime</text>
<text text-anchor="start" x="103" y="-167.3" font-family="Times,serif" font-size="14.00">updated_at :datetime</text>
</g>
<!-- Employee&#45;&gt;User -->
<g id="edge3" class="edge"><title>Employee&#45;&gt;User</title>
<path fill="none" stroke="#60b704" d="M355.196,-334.914C354.133,-333.93 353.068,-332.959 352,-332 328.549,-310.945 300.724,-291.108 274.405,-274.189"/>
<ellipse fill="none" stroke="#60b704" cx="358.353" cy="-337.914" rx="4.00002" ry="4.00002"/>
<ellipse fill="#60b704" stroke="#60b704" cx="270.764" cy="-271.872" rx="4.00002" ry="4.00002"/>
</g>
<!-- FedexContract -->
<g id="node4" class="node"><title>FedexContract</title>
<path fill="none" stroke="black" d="M251,-596.5C251,-596.5 441,-596.5 441,-596.5 447,-596.5 453,-602.5 453,-608.5 453,-608.5 453,-765.5 453,-765.5 453,-771.5 447,-777.5 441,-777.5 441,-777.5 251,-777.5 251,-777.5 245,-777.5 239,-771.5 239,-765.5 239,-765.5 239,-608.5 239,-608.5 239,-602.5 245,-596.5 251,-596.5"/>
<text text-anchor="middle" x="346" y="-762.3" font-family="Times,serif" font-size="14.00">FedexContract</text>
<polyline fill="none" stroke="black" points="239,-754.5 453,-754.5 "/>
<text text-anchor="start" x="247" y="-739.3" font-family="Times,serif" font-size="14.00">id :integer</text>
<text text-anchor="start" x="247" y="-724.3" font-family="Times,serif" font-size="14.00">fedexContractName :string</text>
<text text-anchor="start" x="247" y="-709.3" font-family="Times,serif" font-size="14.00">fedexContractNumber :integer</text>
<text text-anchor="start" x="247" y="-694.3" font-family="Times,serif" font-size="14.00">contractorContractName :string</text>
<text text-anchor="start" x="247" y="-679.3" font-family="Times,serif" font-size="14.00">contractorContractNumber :integer</text>
<text text-anchor="start" x="247" y="-664.3" font-family="Times,serif" font-size="14.00">content :text</text>
<text text-anchor="start" x="247" y="-649.3" font-family="Times,serif" font-size="14.00">startDate :datetime</text>
<text text-anchor="start" x="247" y="-634.3" font-family="Times,serif" font-size="14.00">endDate :datetime</text>
<text text-anchor="start" x="247" y="-619.3" font-family="Times,serif" font-size="14.00">created_at :datetime</text>
<text text-anchor="start" x="247" y="-604.3" font-family="Times,serif" font-size="14.00">updated_at :datetime</text>
</g>
<!-- FedexContract&#45;&gt;Employee -->
<g id="edge4" class="edge"><title>FedexContract&#45;&gt;Employee</title>
<path fill="none" stroke="#f32ce4" d="M385.92,-588.645C388.574,-582.171 391.266,-575.607 393.962,-569.032"/>
<ellipse fill="none" stroke="#f32ce4" cx="384.288" cy="-592.624" rx="4.00001" ry="4.00001"/>
<polygon fill="#f32ce4" stroke="#f32ce4" points="394.117,-568.654 402.074,-561.109 396.014,-564.028 397.911,-559.402 397.911,-559.402 397.911,-559.402 396.014,-564.028 393.747,-557.695 394.117,-568.654 394.117,-568.654"/>
</g>
<!-- Psa -->
<g id="node6" class="node"><title>Psa</title>
<path fill="none" stroke="black" d="M164.5,-355.5C164.5,-355.5 331.5,-355.5 331.5,-355.5 337.5,-355.5 343.5,-361.5 343.5,-367.5 343.5,-367.5 343.5,-524.5 343.5,-524.5 343.5,-530.5 337.5,-536.5 331.5,-536.5 331.5,-536.5 164.5,-536.5 164.5,-536.5 158.5,-536.5 152.5,-530.5 152.5,-524.5 152.5,-524.5 152.5,-367.5 152.5,-367.5 152.5,-361.5 158.5,-355.5 164.5,-355.5"/>
<text text-anchor="middle" x="248" y="-521.3" font-family="Times,serif" font-size="14.00">Psa</text>
<polyline fill="none" stroke="black" points="152.5,-513.5 343.5,-513.5 "/>
<text text-anchor="start" x="160.5" y="-498.3" font-family="Times,serif" font-size="14.00">id :integer</text>
<text text-anchor="start" x="160.5" y="-483.3" font-family="Times,serif" font-size="14.00">fedexPSAName :string</text>
<text text-anchor="start" x="160.5" y="-468.3" font-family="Times,serif" font-size="14.00">fedexPSANumber :integer</text>
<text text-anchor="start" x="160.5" y="-453.3" font-family="Times,serif" font-size="14.00">contractorPSAName :string</text>
<text text-anchor="start" x="160.5" y="-438.3" font-family="Times,serif" font-size="14.00">contractorPSANumber :integer</text>
<text text-anchor="start" x="160.5" y="-423.3" font-family="Times,serif" font-size="14.00">activeBoolean :boolean</text>
<text text-anchor="start" x="160.5" y="-408.3" font-family="Times,serif" font-size="14.00">startDate :datetime</text>
<text text-anchor="start" x="160.5" y="-393.3" font-family="Times,serif" font-size="14.00">endDate :datetime</text>
<text text-anchor="start" x="160.5" y="-378.3" font-family="Times,serif" font-size="14.00">created_at :datetime</text>
<text text-anchor="start" x="160.5" y="-363.3" font-family="Times,serif" font-size="14.00">updated_at :datetime</text>
</g>
<!-- FedexContract&#45;&gt;Psa -->
<g id="edge5" class="edge"><title>FedexContract&#45;&gt;Psa</title>
<path fill="none" stroke="#cf8bbc" d="M306.026,-588.513C300.326,-574.611 294.456,-560.297 288.741,-546.359"/>
<ellipse fill="none" stroke="#cf8bbc" cx="307.712" cy="-592.624" rx="4.00001" ry="4.00001"/>
<polygon fill="#cf8bbc" stroke="#cf8bbc" points="288.607,-546.032 288.977,-535.072 286.71,-541.406 284.813,-536.78 284.813,-536.78 284.813,-536.78 286.71,-541.406 280.65,-538.487 288.607,-546.032 288.607,-546.032"/>
</g>
<!-- PsaState -->
<g id="node7" class="node"><title>PsaState</title>
<path fill="none" stroke="black" d="M483,-634C483,-634 593,-634 593,-634 599,-634 605,-640 605,-646 605,-646 605,-728 605,-728 605,-734 599,-740 593,-740 593,-740 483,-740 483,-740 477,-740 471,-734 471,-728 471,-728 471,-646 471,-646 471,-640 477,-634 483,-634"/>
<text text-anchor="middle" x="538" y="-724.8" font-family="Times,serif" font-size="14.00">PsaState</text>
<polyline fill="none" stroke="black" points="471,-717 605,-717 "/>
<text text-anchor="start" x="479" y="-701.8" font-family="Times,serif" font-size="14.00">id :integer</text>
<text text-anchor="start" x="479" y="-686.8" font-family="Times,serif" font-size="14.00">psa_id :integer</text>
<text text-anchor="start" x="479" y="-671.8" font-family="Times,serif" font-size="14.00">state_id :integer</text>
<text text-anchor="start" x="479" y="-656.8" font-family="Times,serif" font-size="14.00">created_at :datetime</text>
<text text-anchor="start" x="479" y="-641.8" font-family="Times,serif" font-size="14.00">updated_at :datetime</text>
</g>
<!-- Psazip -->
<g id="node8" class="node"><title>Psazip</title>
<path fill="none" stroke="black" d="M635,-634C635,-634 745,-634 745,-634 751,-634 757,-640 757,-646 757,-646 757,-728 757,-728 757,-734 751,-740 745,-740 745,-740 635,-740 635,-740 629,-740 623,-734 623,-728 623,-728 623,-646 623,-646 623,-640 629,-634 635,-634"/>
<text text-anchor="middle" x="690" y="-724.8" font-family="Times,serif" font-size="14.00">Psazip</text>
<polyline fill="none" stroke="black" points="623,-717 757,-717 "/>
<text text-anchor="start" x="631" y="-701.8" font-family="Times,serif" font-size="14.00">id :integer</text>
<text text-anchor="start" x="631" y="-686.8" font-family="Times,serif" font-size="14.00">psa_id :integer</text>
<text text-anchor="start" x="631" y="-671.8" font-family="Times,serif" font-size="14.00">zip_id :integer</text>
<text text-anchor="start" x="631" y="-656.8" font-family="Times,serif" font-size="14.00">created_at :datetime</text>
<text text-anchor="start" x="631" y="-641.8" font-family="Times,serif" font-size="14.00">updated_at :datetime</text>
</g>
<!-- Region -->
<g id="node9" class="node"><title>Region</title>
<path fill="none" stroke="black" d="M787,-611.5C787,-611.5 969,-611.5 969,-611.5 975,-611.5 981,-617.5 981,-623.5 981,-623.5 981,-750.5 981,-750.5 981,-756.5 975,-762.5 969,-762.5 969,-762.5 787,-762.5 787,-762.5 781,-762.5 775,-756.5 775,-750.5 775,-750.5 775,-623.5 775,-623.5 775,-617.5 781,-611.5 787,-611.5"/>
<text text-anchor="middle" x="878" y="-747.3" font-family="Times,serif" font-size="14.00">Region</text>
<polyline fill="none" stroke="black" points="775,-739.5 981,-739.5 "/>
<text text-anchor="start" x="783" y="-724.3" font-family="Times,serif" font-size="14.00">id :integer</text>
<text text-anchor="start" x="783" y="-709.3" font-family="Times,serif" font-size="14.00">fedexRegionName :string</text>
<text text-anchor="start" x="783" y="-694.3" font-family="Times,serif" font-size="14.00">fedexRegionNumber :integer</text>
<text text-anchor="start" x="783" y="-679.3" font-family="Times,serif" font-size="14.00">fedexRegionPhone :string</text>
<text text-anchor="start" x="783" y="-664.3" font-family="Times,serif" font-size="14.00">contractorRegionName :string</text>
<text text-anchor="start" x="783" y="-649.3" font-family="Times,serif" font-size="14.00">contractorRegionNumber :integer</text>
<text text-anchor="start" x="783" y="-634.3" font-family="Times,serif" font-size="14.00">created_at :datetime</text>
<text text-anchor="start" x="783" y="-619.3" font-family="Times,serif" font-size="14.00">updated_at :datetime</text>
</g>
<!-- Role -->
<g id="node10" class="node"><title>Role</title>
<path fill="none" stroke="black" d="M12,-400.5C12,-400.5 122,-400.5 122,-400.5 128,-400.5 134,-406.5 134,-412.5 134,-412.5 134,-479.5 134,-479.5 134,-485.5 128,-491.5 122,-491.5 122,-491.5 12,-491.5 12,-491.5 6,-491.5 0,-485.5 0,-479.5 0,-479.5 0,-412.5 0,-412.5 0,-406.5 6,-400.5 12,-400.5"/>
<text text-anchor="middle" x="67" y="-476.3" font-family="Times,serif" font-size="14.00">Role</text>
<polyline fill="none" stroke="black" points="0,-468.5 134,-468.5 "/>
<text text-anchor="start" x="8" y="-453.3" font-family="Times,serif" font-size="14.00">id :integer</text>
<text text-anchor="start" x="8" y="-438.3" font-family="Times,serif" font-size="14.00">name :string</text>
<text text-anchor="start" x="8" y="-423.3" font-family="Times,serif" font-size="14.00">created_at :datetime</text>
<text text-anchor="start" x="8" y="-408.3" font-family="Times,serif" font-size="14.00">updated_at :datetime</text>
</g>
<!-- UserRole -->
<g id="node14" class="node"><title>UserRole</title>
<path fill="none" stroke="black" d="M69,-1C69,-1 179,-1 179,-1 185,-1 191,-7 191,-13 191,-13 191,-95 191,-95 191,-101 185,-107 179,-107 179,-107 69,-107 69,-107 63,-107 57,-101 57,-95 57,-95 57,-13 57,-13 57,-7 63,-1 69,-1"/>
<text text-anchor="middle" x="124" y="-91.8" font-family="Times,serif" font-size="14.00">UserRole</text>
<polyline fill="none" stroke="black" points="57,-84 191,-84 "/>
<text text-anchor="start" x="65" y="-68.8" font-family="Times,serif" font-size="14.00">id :integer</text>
<text text-anchor="start" x="65" y="-53.8" font-family="Times,serif" font-size="14.00">user_id :integer</text>
<text text-anchor="start" x="65" y="-38.8" font-family="Times,serif" font-size="14.00">role_id :integer</text>
<text text-anchor="start" x="65" y="-23.8" font-family="Times,serif" font-size="14.00">created_at :datetime</text>
<text text-anchor="start" x="65" y="-8.8" font-family="Times,serif" font-size="14.00">updated_at :datetime</text>
</g>
<!-- Role&#45;&gt;UserRole -->
<g id="edge6" class="edge"><title>Role&#45;&gt;UserRole</title>
<path fill="none" stroke="#669d2a" d="M64.9656,-392.153C63.8558,-331.414 65.7685,-229.145 86,-144 88.162,-134.901 91.1804,-125.552 94.5805,-116.49"/>
<ellipse fill="none" stroke="#669d2a" cx="65.0561" cy="-396.443" rx="4" ry="4"/>
<polygon fill="#669d2a" stroke="#669d2a" points="94.584,-116.481 102.43,-108.82 96.4131,-111.828 98.2422,-107.174 98.2422,-107.174 98.2422,-107.174 96.4131,-111.828 94.054,-105.528 94.584,-116.481 94.584,-116.481"/>
</g>
<!-- Role&#45;&gt;User -->
<g id="edge7" class="edge"><title>Role&#45;&gt;User</title>
<path fill="none" stroke="#99476d" d="M94.3066,-391.345C109.811,-360.88 129.383,-322.424 146.005,-289.763"/>
<polygon fill="#99476d" stroke="#99476d" points="94.1948,-391.565 85.6485,-398.436 91.9269,-396.021 89.659,-400.477 89.659,-400.477 89.659,-400.477 91.9269,-396.021 93.6695,-402.518 94.1948,-391.565 94.1948,-391.565"/>
<polygon fill="#99476d" stroke="#99476d" points="146.073,-289.628 154.619,-282.757 148.341,-285.172 150.609,-280.716 150.609,-280.716 150.609,-280.716 148.341,-285.172 146.598,-278.675 146.073,-289.628 146.073,-289.628"/>
</g>
<!-- State -->
<g id="node11" class="node"><title>State</title>
<path fill="none" stroke="black" d="M1011,-626.5C1011,-626.5 1121,-626.5 1121,-626.5 1127,-626.5 1133,-632.5 1133,-638.5 1133,-638.5 1133,-735.5 1133,-735.5 1133,-741.5 1127,-747.5 1121,-747.5 1121,-747.5 1011,-747.5 1011,-747.5 1005,-747.5 999,-741.5 999,-735.5 999,-735.5 999,-638.5 999,-638.5 999,-632.5 1005,-626.5 1011,-626.5"/>
<text text-anchor="middle" x="1066" y="-732.3" font-family="Times,serif" font-size="14.00">State</text>
<polyline fill="none" stroke="black" points="999,-724.5 1133,-724.5 "/>
<text text-anchor="start" x="1007" y="-709.3" font-family="Times,serif" font-size="14.00">id :integer</text>
<text text-anchor="start" x="1007" y="-694.3" font-family="Times,serif" font-size="14.00">state :string</text>
<text text-anchor="start" x="1007" y="-679.3" font-family="Times,serif" font-size="14.00">abbreviation :string</text>
<text text-anchor="start" x="1007" y="-664.3" font-family="Times,serif" font-size="14.00">psa_id :integer</text>
<text text-anchor="start" x="1007" y="-649.3" font-family="Times,serif" font-size="14.00">created_at :datetime</text>
<text text-anchor="start" x="1007" y="-634.3" font-family="Times,serif" font-size="14.00">updated_at :datetime</text>
</g>
<!-- Terminal -->
<g id="node12" class="node"><title>Terminal</title>
<path fill="none" stroke="black" d="M556.5,-370.5C556.5,-370.5 749.5,-370.5 749.5,-370.5 755.5,-370.5 761.5,-376.5 761.5,-382.5 761.5,-382.5 761.5,-509.5 761.5,-509.5 761.5,-515.5 755.5,-521.5 749.5,-521.5 749.5,-521.5 556.5,-521.5 556.5,-521.5 550.5,-521.5 544.5,-515.5 544.5,-509.5 544.5,-509.5 544.5,-382.5 544.5,-382.5 544.5,-376.5 550.5,-370.5 556.5,-370.5"/>
<text text-anchor="middle" x="653" y="-506.3" font-family="Times,serif" font-size="14.00">Terminal</text>
<polyline fill="none" stroke="black" points="544.5,-498.5 761.5,-498.5 "/>
<text text-anchor="start" x="552.5" y="-483.3" font-family="Times,serif" font-size="14.00">id :integer</text>
<text text-anchor="start" x="552.5" y="-468.3" font-family="Times,serif" font-size="14.00">fedexTerminalName :string</text>
<text text-anchor="start" x="552.5" y="-453.3" font-family="Times,serif" font-size="14.00">fedexTerminalNumber :integer</text>
<text text-anchor="start" x="552.5" y="-438.3" font-family="Times,serif" font-size="14.00">contractorTerminalName :string</text>
<text text-anchor="start" x="552.5" y="-423.3" font-family="Times,serif" font-size="14.00">contractorTerminalNumber :integer</text>
<text text-anchor="start" x="552.5" y="-408.3" font-family="Times,serif" font-size="14.00">colocationBoolean :boolean</text>
<text text-anchor="start" x="552.5" y="-393.3" font-family="Times,serif" font-size="14.00">created_at :datetime</text>
<text text-anchor="start" x="552.5" y="-378.3" font-family="Times,serif" font-size="14.00">updated_at :datetime</text>
</g>
<!-- Terminal&#45;&gt;Note -->
<g id="edge8" class="edge"><title>Terminal&#45;&gt;Note</title>
<path fill="none" stroke="#d0c0c7" d="M653,-362.144C653,-343.757 653,-324.243 653,-305.78"/>
<ellipse fill="none" stroke="#d0c0c7" cx="653" cy="-366.411" rx="4" ry="4"/>
<polygon fill="#d0c0c7" stroke="#d0c0c7" points="653,-305.645 657.5,-295.645 653,-300.645 653,-295.645 653,-295.645 653,-295.645 653,-300.645 648.5,-295.645 653,-305.645 653,-305.645"/>
</g>
<!-- User&#45;&gt;UserRole -->
<g id="edge9" class="edge"><title>User&#45;&gt;UserRole</title>
<path fill="none" stroke="#7651d0" d="M157.581,-151.62C153.541,-139.996 149.361,-127.968 145.379,-116.51"/>
<ellipse fill="none" stroke="#7651d0" cx="158.947" cy="-155.55" rx="4.00001" ry="4.00001"/>
<polygon fill="#7651d0" stroke="#7651d0" points="145.371,-116.487 146.338,-105.564 143.729,-111.764 142.087,-107.041 142.087,-107.041 142.087,-107.041 143.729,-111.764 137.837,-108.518 145.371,-116.487 145.371,-116.487"/>
</g>
<!-- Zip -->
<g id="node15" class="node"><title>Zip</title>
<path fill="none" stroke="black" d="M1163,-634C1163,-634 1273,-634 1273,-634 1279,-634 1285,-640 1285,-646 1285,-646 1285,-728 1285,-728 1285,-734 1279,-740 1273,-740 1273,-740 1163,-740 1163,-740 1157,-740 1151,-734 1151,-728 1151,-728 1151,-646 1151,-646 1151,-640 1157,-634 1163,-634"/>
<text text-anchor="middle" x="1218" y="-724.8" font-family="Times,serif" font-size="14.00">Zip</text>
<polyline fill="none" stroke="black" points="1151,-717 1285,-717 "/>
<text text-anchor="start" x="1159" y="-701.8" font-family="Times,serif" font-size="14.00">id :integer</text>
<text text-anchor="start" x="1159" y="-686.8" font-family="Times,serif" font-size="14.00">zip :string</text>
<text text-anchor="start" x="1159" y="-671.8" font-family="Times,serif" font-size="14.00">psa_id :integer</text>
<text text-anchor="start" x="1159" y="-656.8" font-family="Times,serif" font-size="14.00">created_at :datetime</text>
<text text-anchor="start" x="1159" y="-641.8" font-family="Times,serif" font-size="14.00">updated_at :datetime</text>
</g>
</g>
</svg>
