<?xml version="1.0" encoding="UTF-8" standalone="no"?>
<!DOCTYPE svg PUBLIC "-//W3C//DTD SVG 1.1//EN"
 "http://www.w3.org/Graphics/SVG/1.1/DTD/svg11.dtd">
<!-- Generated by graphviz version 2.29.20121209.0545 (20121209.0545)
 -->
<!-- Title: models_diagram Pages: 1 -->
<svg width="2278pt" height="802pt"
 viewBox="0.00 0.00 2278.00 802.00" xmlns="http://www.w3.org/2000/svg" xmlns:xlink="http://www.w3.org/1999/xlink">
<g id="graph0" class="graph" transform="scale(1 1) rotate(0) translate(4 798)">
<title>models_diagram</title>
<polygon fill="white" stroke="white" points="-4,5 -4,-798 2275,-798 2275,5 -4,5"/>
<!-- _diagram_info -->
<g id="node1" class="node"><title>_diagram_info</title>
<text text-anchor="start" x="285" y="-719.6" font-family="Times,serif" font-size="13.00">Models diagram</text>
<text text-anchor="start" x="285" y="-705.6" font-family="Times,serif" font-size="13.00">Date: Dec 11 2012 &#45; 02:20</text>
<text text-anchor="start" x="285" y="-691.6" font-family="Times,serif" font-size="13.00">Migration version: 20121211062031</text>
<text text-anchor="start" x="285" y="-677.6" font-family="Times,serif" font-size="13.00">Generated by RailRoady 1.1.0</text>
<text text-anchor="start" x="285" y="-663.6" font-family="Times,serif" font-size="13.00">http://railroady.prestonlee.com</text>
</g>
<!-- Addendum -->
<g id="node2" class="node"><title>Addendum</title>
<path fill="none" stroke="black" d="M12,-355.5C12,-355.5 250,-355.5 250,-355.5 256,-355.5 262,-361.5 262,-367.5 262,-367.5 262,-524.5 262,-524.5 262,-530.5 256,-536.5 250,-536.5 250,-536.5 12,-536.5 12,-536.5 6,-536.5 0,-530.5 0,-524.5 0,-524.5 0,-367.5 0,-367.5 0,-361.5 6,-355.5 12,-355.5"/>
<text text-anchor="middle" x="131" y="-521.3" font-family="Times,serif" font-size="14.00">Addendum</text>
<polyline fill="none" stroke="black" points="0,-513.5 262,-513.5 "/>
<text text-anchor="start" x="8" y="-498.3" font-family="Times,serif" font-size="14.00">id :integer</text>
<text text-anchor="start" x="8" y="-483.3" font-family="Times,serif" font-size="14.00">fedexAddendumName :string</text>
<text text-anchor="start" x="8" y="-468.3" font-family="Times,serif" font-size="14.00">fedexAddendumNumber :integer</text>
<text text-anchor="start" x="8" y="-453.3" font-family="Times,serif" font-size="14.00">fedexContractorAddendumName :string</text>
<text text-anchor="start" x="8" y="-438.3" font-family="Times,serif" font-size="14.00">fedexContractorAddendumNumber :integer</text>
<text text-anchor="start" x="8" y="-423.3" font-family="Times,serif" font-size="14.00">content :text</text>
<text text-anchor="start" x="8" y="-408.3" font-family="Times,serif" font-size="14.00">startDate :datetime</text>
<text text-anchor="start" x="8" y="-393.3" font-family="Times,serif" font-size="14.00">endDate :datetime</text>
<text text-anchor="start" x="8" y="-378.3" font-family="Times,serif" font-size="14.00">created_at :datetime</text>
<text text-anchor="start" x="8" y="-363.3" font-family="Times,serif" font-size="14.00">updated_at :datetime</text>
</g>
<!-- Note -->
<g id="node6" class="node"><title>Note</title>
<path fill="none" stroke="black" d="M334,-144.5C334,-144.5 444,-144.5 444,-144.5 450,-144.5 456,-150.5 456,-156.5 456,-156.5 456,-283.5 456,-283.5 456,-289.5 450,-295.5 444,-295.5 444,-295.5 334,-295.5 334,-295.5 328,-295.5 322,-289.5 322,-283.5 322,-283.5 322,-156.5 322,-156.5 322,-150.5 328,-144.5 334,-144.5"/>
<text text-anchor="middle" x="389" y="-280.3" font-family="Times,serif" font-size="14.00">Note</text>
<polyline fill="none" stroke="black" points="322,-272.5 456,-272.5 "/>
<text text-anchor="start" x="330" y="-257.3" font-family="Times,serif" font-size="14.00">id :integer</text>
<text text-anchor="start" x="330" y="-242.3" font-family="Times,serif" font-size="14.00">notable_id :integer</text>
<text text-anchor="start" x="330" y="-227.3" font-family="Times,serif" font-size="14.00">notable_type :string</text>
<text text-anchor="start" x="330" y="-212.3" font-family="Times,serif" font-size="14.00">content :text</text>
<text text-anchor="start" x="330" y="-197.3" font-family="Times,serif" font-size="14.00">startDate :datetime</text>
<text text-anchor="start" x="330" y="-182.3" font-family="Times,serif" font-size="14.00">endDate :datetime</text>
<text text-anchor="start" x="330" y="-167.3" font-family="Times,serif" font-size="14.00">created_at :datetime</text>
<text text-anchor="start" x="330" y="-152.3" font-family="Times,serif" font-size="14.00">updated_at :datetime</text>
</g>
<!-- Addendum&#45;&gt;Note -->
<g id="edge1" class="edge"><title>Addendum&#45;&gt;Note</title>
<path fill="none" stroke="#7aa0d4" d="M240.687,-349.768C265.468,-328.253 291.221,-305.893 314.178,-285.962"/>
<ellipse fill="none" stroke="#7aa0d4" cx="237.472" cy="-352.559" rx="4.00002" ry="4.00002"/>
<polygon fill="#7aa0d4" stroke="#7aa0d4" points="314.299,-285.857 324.8,-282.699 318.075,-282.579 321.85,-279.301 321.85,-279.301 321.85,-279.301 318.075,-282.579 318.9,-275.903 314.299,-285.857 314.299,-285.857"/>
</g>
<!-- Employee -->
<g id="node3" class="node"><title>Employee</title>
<path fill="none" stroke="black" d="M527.5,-333C527.5,-333 668.5,-333 668.5,-333 674.5,-333 680.5,-339 680.5,-345 680.5,-345 680.5,-547 680.5,-547 680.5,-553 674.5,-559 668.5,-559 668.5,-559 527.5,-559 527.5,-559 521.5,-559 515.5,-553 515.5,-547 515.5,-547 515.5,-345 515.5,-345 515.5,-339 521.5,-333 527.5,-333"/>
<text text-anchor="middle" x="598" y="-543.8" font-family="Times,serif" font-size="14.00">Employee</text>
<polyline fill="none" stroke="black" points="515.5,-536 680.5,-536 "/>
<text text-anchor="start" x="523.5" y="-520.8" font-family="Times,serif" font-size="14.00">id :integer</text>
<text text-anchor="start" x="523.5" y="-505.8" font-family="Times,serif" font-size="14.00">firstName :string</text>
<text text-anchor="start" x="523.5" y="-490.8" font-family="Times,serif" font-size="14.00">lastName :string</text>
<text text-anchor="start" x="523.5" y="-475.8" font-family="Times,serif" font-size="14.00">fedexNumber :integer</text>
<text text-anchor="start" x="523.5" y="-460.8" font-family="Times,serif" font-size="14.00">contractorNumber :integer</text>
<text text-anchor="start" x="523.5" y="-445.8" font-family="Times,serif" font-size="14.00">hireDate :date</text>
<text text-anchor="start" x="523.5" y="-430.8" font-family="Times,serif" font-size="14.00">dateOfBirth :date</text>
<text text-anchor="start" x="523.5" y="-415.8" font-family="Times,serif" font-size="14.00">activeBoolean :boolean</text>
<text text-anchor="start" x="523.5" y="-400.8" font-family="Times,serif" font-size="14.00">startDate :datetime</text>
<text text-anchor="start" x="523.5" y="-385.8" font-family="Times,serif" font-size="14.00">endDate :datetime</text>
<text text-anchor="start" x="523.5" y="-370.8" font-family="Times,serif" font-size="14.00">terminationDate :datetime</text>
<text text-anchor="start" x="523.5" y="-355.8" font-family="Times,serif" font-size="14.00">created_at :datetime</text>
<text text-anchor="start" x="523.5" y="-340.8" font-family="Times,serif" font-size="14.00">updated_at :datetime</text>
</g>
<!-- Employee&#45;&gt;Note -->
<g id="edge2" class="edge"><title>Employee&#45;&gt;Note</title>
<path fill="none" stroke="#bdf8aa" d="M509.781,-336.112C508.518,-334.728 507.258,-333.357 506,-332 492.709,-317.661 477.963,-302.886 463.546,-288.98"/>
<ellipse fill="none" stroke="#bdf8aa" cx="512.647" cy="-339.287" rx="4.00002" ry="4.00002"/>
<polygon fill="#bdf8aa" stroke="#bdf8aa" points="463.266,-288.712 459.159,-278.544 459.656,-285.253 456.046,-281.794 456.046,-281.794 456.046,-281.794 459.656,-285.253 452.932,-285.043 463.266,-288.712 463.266,-288.712"/>
</g>
<!-- User -->
<g id="node13" class="node"><title>User</title>
<path fill="none" stroke="black" d="M802,-159.5C802,-159.5 950,-159.5 950,-159.5 956,-159.5 962,-165.5 962,-171.5 962,-171.5 962,-268.5 962,-268.5 962,-274.5 956,-280.5 950,-280.5 950,-280.5 802,-280.5 802,-280.5 796,-280.5 790,-274.5 790,-268.5 790,-268.5 790,-171.5 790,-171.5 790,-165.5 796,-159.5 802,-159.5"/>
<text text-anchor="middle" x="876" y="-265.3" font-family="Times,serif" font-size="14.00">User</text>
<polyline fill="none" stroke="black" points="790,-257.5 962,-257.5 "/>
<text text-anchor="start" x="798" y="-242.3" font-family="Times,serif" font-size="14.00">id :integer</text>
<text text-anchor="start" x="798" y="-227.3" font-family="Times,serif" font-size="14.00">contractorBoolean :boolean</text>
<text text-anchor="start" x="798" y="-212.3" font-family="Times,serif" font-size="14.00">activeBoolean :boolean</text>
<text text-anchor="start" x="798" y="-197.3" font-family="Times,serif" font-size="14.00">employee_id :integer</text>
<text text-anchor="start" x="798" y="-182.3" font-family="Times,serif" font-size="14.00">created_at :datetime</text>
<text text-anchor="start" x="798" y="-167.3" font-family="Times,serif" font-size="14.00">updated_at :datetime</text>
</g>
<!-- Employee&#45;&gt;User -->
<g id="edge3" class="edge"><title>Employee&#45;&gt;User</title>
<path fill="none" stroke="#96ca14" d="M686.753,-334.855C687.832,-333.89 688.914,-332.938 690,-332 717.905,-307.881 751.73,-285.95 782.843,-268.07"/>
<ellipse fill="none" stroke="#96ca14" cx="683.552" cy="-337.804" rx="4.00002" ry="4.00002"/>
<ellipse fill="#96ca14" stroke="#96ca14" cx="786.375" cy="-266.061" rx="4.00002" ry="4.00002"/>
</g>
<!-- EmployeePsa -->
<g id="node4" class="node"><title>EmployeePsa</title>
<path fill="none" stroke="black" d="M911,-619.5C911,-619.5 1035,-619.5 1035,-619.5 1041,-619.5 1047,-625.5 1047,-631.5 1047,-631.5 1047,-758.5 1047,-758.5 1047,-764.5 1041,-770.5 1035,-770.5 1035,-770.5 911,-770.5 911,-770.5 905,-770.5 899,-764.5 899,-758.5 899,-758.5 899,-631.5 899,-631.5 899,-625.5 905,-619.5 911,-619.5"/>
<text text-anchor="middle" x="973" y="-755.3" font-family="Times,serif" font-size="14.00">EmployeePsa</text>
<polyline fill="none" stroke="black" points="899,-747.5 1047,-747.5 "/>
<text text-anchor="start" x="907" y="-732.3" font-family="Times,serif" font-size="14.00">id :integer</text>
<text text-anchor="start" x="907" y="-717.3" font-family="Times,serif" font-size="14.00">startDate :datetime</text>
<text text-anchor="start" x="907" y="-702.3" font-family="Times,serif" font-size="14.00">endDate :datetime</text>
<text text-anchor="start" x="907" y="-687.3" font-family="Times,serif" font-size="14.00">activeBoolean :boolean</text>
<text text-anchor="start" x="907" y="-672.3" font-family="Times,serif" font-size="14.00">employee_id :integer</text>
<text text-anchor="start" x="907" y="-657.3" font-family="Times,serif" font-size="14.00">psa_id :integer</text>
<text text-anchor="start" x="907" y="-642.3" font-family="Times,serif" font-size="14.00">created_at :datetime</text>
<text text-anchor="start" x="907" y="-627.3" font-family="Times,serif" font-size="14.00">updated_at :datetime</text>
</g>
<!-- FedexContract -->
<g id="node5" class="node"><title>FedexContract</title>
<path fill="none" stroke="black" d="M515,-604.5C515,-604.5 705,-604.5 705,-604.5 711,-604.5 717,-610.5 717,-616.5 717,-616.5 717,-773.5 717,-773.5 717,-779.5 711,-785.5 705,-785.5 705,-785.5 515,-785.5 515,-785.5 509,-785.5 503,-779.5 503,-773.5 503,-773.5 503,-616.5 503,-616.5 503,-610.5 509,-604.5 515,-604.5"/>
<text text-anchor="middle" x="610" y="-770.3" font-family="Times,serif" font-size="14.00">FedexContract</text>
<polyline fill="none" stroke="black" points="503,-762.5 717,-762.5 "/>
<text text-anchor="start" x="511" y="-747.3" font-family="Times,serif" font-size="14.00">id :integer</text>
<text text-anchor="start" x="511" y="-732.3" font-family="Times,serif" font-size="14.00">fedexContractName :string</text>
<text text-anchor="start" x="511" y="-717.3" font-family="Times,serif" font-size="14.00">fedexContractNumber :integer</text>
<text text-anchor="start" x="511" y="-702.3" font-family="Times,serif" font-size="14.00">contractorContractName :string</text>
<text text-anchor="start" x="511" y="-687.3" font-family="Times,serif" font-size="14.00">contractorContractNumber :integer</text>
<text text-anchor="start" x="511" y="-672.3" font-family="Times,serif" font-size="14.00">content :text</text>
<text text-anchor="start" x="511" y="-657.3" font-family="Times,serif" font-size="14.00">startDate :datetime</text>
<text text-anchor="start" x="511" y="-642.3" font-family="Times,serif" font-size="14.00">endDate :datetime</text>
<text text-anchor="start" x="511" y="-627.3" font-family="Times,serif" font-size="14.00">created_at :datetime</text>
<text text-anchor="start" x="511" y="-612.3" font-family="Times,serif" font-size="14.00">updated_at :datetime</text>
</g>
<!-- FedexContract&#45;&gt;Employee -->
<g id="edge4" class="edge"><title>FedexContract&#45;&gt;Employee</title>
<path fill="none" stroke="#5a5e66" d="M605.248,-596.179C604.821,-587.406 604.386,-578.452 603.952,-569.506"/>
<ellipse fill="none" stroke="#5a5e66" cx="605.457" cy="-600.483" rx="4" ry="4"/>
<polygon fill="#5a5e66" stroke="#5a5e66" points="603.947,-569.405 607.956,-559.199 603.704,-564.411 603.462,-559.417 603.462,-559.417 603.462,-559.417 603.704,-564.411 598.967,-559.636 603.947,-569.405 603.947,-569.405"/>
</g>
<!-- Psa -->
<g id="node20" class="node"><title>Psa</title>
<ellipse fill="none" stroke="black" cx="726" cy="-446" rx="27" ry="18"/>
<text text-anchor="middle" x="726" y="-442.3" font-family="Times,serif" font-size="14.00">Psa</text>
</g>
<!-- FedexContract&#45;&gt;Psa -->
<g id="edge5" class="edge"><title>FedexContract&#45;&gt;Psa</title>
<path fill="none" stroke="#2ded90" d="M670.437,-597.046C677.102,-584.782 683.467,-572.24 689,-560 701.905,-531.454 712.512,-497.042 719.011,-473.751"/>
<ellipse fill="none" stroke="#2ded90" cx="668.411" cy="-600.727" rx="4.00002" ry="4.00002"/>
<polygon fill="#2ded90" stroke="#2ded90" points="719.068,-473.54 726.042,-465.078 720.384,-468.717 721.701,-463.893 721.701,-463.893 721.701,-463.893 720.384,-468.717 717.36,-462.708 719.068,-473.54 719.068,-473.54"/>
</g>
<!-- PsaState -->
<g id="node7" class="node"><title>PsaState</title>
<path fill="none" stroke="black" d="M1077,-642C1077,-642 1187,-642 1187,-642 1193,-642 1199,-648 1199,-654 1199,-654 1199,-736 1199,-736 1199,-742 1193,-748 1187,-748 1187,-748 1077,-748 1077,-748 1071,-748 1065,-742 1065,-736 1065,-736 1065,-654 1065,-654 1065,-648 1071,-642 1077,-642"/>
<text text-anchor="middle" x="1132" y="-732.8" font-family="Times,serif" font-size="14.00">PsaState</text>
<polyline fill="none" stroke="black" points="1065,-725 1199,-725 "/>
<text text-anchor="start" x="1073" y="-709.8" font-family="Times,serif" font-size="14.00">id :integer</text>
<text text-anchor="start" x="1073" y="-694.8" font-family="Times,serif" font-size="14.00">psa_id :integer</text>
<text text-anchor="start" x="1073" y="-679.8" font-family="Times,serif" font-size="14.00">state_id :integer</text>
<text text-anchor="start" x="1073" y="-664.8" font-family="Times,serif" font-size="14.00">created_at :datetime</text>
<text text-anchor="start" x="1073" y="-649.8" font-family="Times,serif" font-size="14.00">updated_at :datetime</text>
</g>
<!-- Psazip -->
<g id="node8" class="node"><title>Psazip</title>
<path fill="none" stroke="black" d="M783,-393C783,-393 893,-393 893,-393 899,-393 905,-399 905,-405 905,-405 905,-487 905,-487 905,-493 899,-499 893,-499 893,-499 783,-499 783,-499 777,-499 771,-493 771,-487 771,-487 771,-405 771,-405 771,-399 777,-393 783,-393"/>
<text text-anchor="middle" x="838" y="-483.8" font-family="Times,serif" font-size="14.00">Psazip</text>
<polyline fill="none" stroke="black" points="771,-476 905,-476 "/>
<text text-anchor="start" x="779" y="-460.8" font-family="Times,serif" font-size="14.00">id :integer</text>
<text text-anchor="start" x="779" y="-445.8" font-family="Times,serif" font-size="14.00">psa_id :integer</text>
<text text-anchor="start" x="779" y="-430.8" font-family="Times,serif" font-size="14.00">zip_id :integer</text>
<text text-anchor="start" x="779" y="-415.8" font-family="Times,serif" font-size="14.00">created_at :datetime</text>
<text text-anchor="start" x="779" y="-400.8" font-family="Times,serif" font-size="14.00">updated_at :datetime</text>
</g>
<!-- Region -->
<g id="node9" class="node"><title>Region</title>
<path fill="none" stroke="black" d="M1229,-619.5C1229,-619.5 1411,-619.5 1411,-619.5 1417,-619.5 1423,-625.5 1423,-631.5 1423,-631.5 1423,-758.5 1423,-758.5 1423,-764.5 1417,-770.5 1411,-770.5 1411,-770.5 1229,-770.5 1229,-770.5 1223,-770.5 1217,-764.5 1217,-758.5 1217,-758.5 1217,-631.5 1217,-631.5 1217,-625.5 1223,-619.5 1229,-619.5"/>
<text text-anchor="middle" x="1320" y="-755.3" font-family="Times,serif" font-size="14.00">Region</text>
<polyline fill="none" stroke="black" points="1217,-747.5 1423,-747.5 "/>
<text text-anchor="start" x="1225" y="-732.3" font-family="Times,serif" font-size="14.00">id :integer</text>
<text text-anchor="start" x="1225" y="-717.3" font-family="Times,serif" font-size="14.00">fedexRegionName :string</text>
<text text-anchor="start" x="1225" y="-702.3" font-family="Times,serif" font-size="14.00">fedexRegionNumber :integer</text>
<text text-anchor="start" x="1225" y="-687.3" font-family="Times,serif" font-size="14.00">fedexRegionPhone :string</text>
<text text-anchor="start" x="1225" y="-672.3" font-family="Times,serif" font-size="14.00">contractorRegionName :string</text>
<text text-anchor="start" x="1225" y="-657.3" font-family="Times,serif" font-size="14.00">contractorRegionNumber :integer</text>
<text text-anchor="start" x="1225" y="-642.3" font-family="Times,serif" font-size="14.00">created_at :datetime</text>
<text text-anchor="start" x="1225" y="-627.3" font-family="Times,serif" font-size="14.00">updated_at :datetime</text>
</g>
<!-- Role -->
<g id="node10" class="node"><title>Role</title>
<path fill="none" stroke="black" d="M935,-400.5C935,-400.5 1045,-400.5 1045,-400.5 1051,-400.5 1057,-406.5 1057,-412.5 1057,-412.5 1057,-479.5 1057,-479.5 1057,-485.5 1051,-491.5 1045,-491.5 1045,-491.5 935,-491.5 935,-491.5 929,-491.5 923,-485.5 923,-479.5 923,-479.5 923,-412.5 923,-412.5 923,-406.5 929,-400.5 935,-400.5"/>
<text text-anchor="middle" x="990" y="-476.3" font-family="Times,serif" font-size="14.00">Role</text>
<polyline fill="none" stroke="black" points="923,-468.5 1057,-468.5 "/>
<text text-anchor="start" x="931" y="-453.3" font-family="Times,serif" font-size="14.00">id :integer</text>
<text text-anchor="start" x="931" y="-438.3" font-family="Times,serif" font-size="14.00">name :string</text>
<text text-anchor="start" x="931" y="-423.3" font-family="Times,serif" font-size="14.00">created_at :datetime</text>
<text text-anchor="start" x="931" y="-408.3" font-family="Times,serif" font-size="14.00">updated_at :datetime</text>
</g>
<!-- UserRole -->
<g id="node14" class="node"><title>UserRole</title>
<path fill="none" stroke="black" d="M878,-1C878,-1 988,-1 988,-1 994,-1 1000,-7 1000,-13 1000,-13 1000,-95 1000,-95 1000,-101 994,-107 988,-107 988,-107 878,-107 878,-107 872,-107 866,-101 866,-95 866,-95 866,-13 866,-13 866,-7 872,-1 878,-1"/>
<text text-anchor="middle" x="933" y="-91.8" font-family="Times,serif" font-size="14.00">UserRole</text>
<polyline fill="none" stroke="black" points="866,-84 1000,-84 "/>
<text text-anchor="start" x="874" y="-68.8" font-family="Times,serif" font-size="14.00">id :integer</text>
<text text-anchor="start" x="874" y="-53.8" font-family="Times,serif" font-size="14.00">user_id :integer</text>
<text text-anchor="start" x="874" y="-38.8" font-family="Times,serif" font-size="14.00">role_id :integer</text>
<text text-anchor="start" x="874" y="-23.8" font-family="Times,serif" font-size="14.00">created_at :datetime</text>
<text text-anchor="start" x="874" y="-8.8" font-family="Times,serif" font-size="14.00">updated_at :datetime</text>
</g>
<!-- Role&#45;&gt;UserRole -->
<g id="edge6" class="edge"><title>Role&#45;&gt;UserRole</title>
<path fill="none" stroke="#761ce3" d="M992.034,-392.153C993.144,-331.414 991.232,-229.145 971,-144 968.838,-134.901 965.82,-125.552 962.419,-116.49"/>
<ellipse fill="none" stroke="#761ce3" cx="991.944" cy="-396.443" rx="4" ry="4"/>
<polygon fill="#761ce3" stroke="#761ce3" points="962.416,-116.481 962.946,-105.528 960.587,-111.828 958.758,-107.174 958.758,-107.174 958.758,-107.174 960.587,-111.828 954.57,-108.82 962.416,-116.481 962.416,-116.481"/>
</g>
<!-- Role&#45;&gt;User -->
<g id="edge7" class="edge"><title>Role&#45;&gt;User</title>
<path fill="none" stroke="#3e649b" d="M962.693,-391.345C947.189,-360.88 927.617,-322.424 910.995,-289.763"/>
<polygon fill="#3e649b" stroke="#3e649b" points="962.805,-391.565 963.33,-402.518 965.073,-396.021 967.341,-400.477 967.341,-400.477 967.341,-400.477 965.073,-396.021 971.351,-398.436 962.805,-391.565 962.805,-391.565"/>
<polygon fill="#3e649b" stroke="#3e649b" points="910.927,-289.628 910.402,-278.675 908.659,-285.172 906.391,-280.716 906.391,-280.716 906.391,-280.716 908.659,-285.172 902.381,-282.757 910.927,-289.628 910.927,-289.628"/>
</g>
<!-- ServiceType -->
<g id="node11" class="node"><title>ServiceType</title>
<path fill="none" stroke="black" d="M1453,-634.5C1453,-634.5 1563,-634.5 1563,-634.5 1569,-634.5 1575,-640.5 1575,-646.5 1575,-646.5 1575,-743.5 1575,-743.5 1575,-749.5 1569,-755.5 1563,-755.5 1563,-755.5 1453,-755.5 1453,-755.5 1447,-755.5 1441,-749.5 1441,-743.5 1441,-743.5 1441,-646.5 1441,-646.5 1441,-640.5 1447,-634.5 1453,-634.5"/>
<text text-anchor="middle" x="1508" y="-740.3" font-family="Times,serif" font-size="14.00">ServiceType</text>
<polyline fill="none" stroke="black" points="1441,-732.5 1575,-732.5 "/>
<text text-anchor="start" x="1449" y="-717.3" font-family="Times,serif" font-size="14.00">id :integer</text>
<text text-anchor="start" x="1449" y="-702.3" font-family="Times,serif" font-size="14.00">serviceType :string</text>
<text text-anchor="start" x="1449" y="-687.3" font-family="Times,serif" font-size="14.00">startDate :datetime</text>
<text text-anchor="start" x="1449" y="-672.3" font-family="Times,serif" font-size="14.00">endDate :datetime</text>
<text text-anchor="start" x="1449" y="-657.3" font-family="Times,serif" font-size="14.00">created_at :datetime</text>
<text text-anchor="start" x="1449" y="-642.3" font-family="Times,serif" font-size="14.00">updated_at :datetime</text>
</g>
<!-- Terminal -->
<g id="node12" class="node"><title>Terminal</title>
<path fill="none" stroke="black" d="M292.5,-370.5C292.5,-370.5 485.5,-370.5 485.5,-370.5 491.5,-370.5 497.5,-376.5 497.5,-382.5 497.5,-382.5 497.5,-509.5 497.5,-509.5 497.5,-515.5 491.5,-521.5 485.5,-521.5 485.5,-521.5 292.5,-521.5 292.5,-521.5 286.5,-521.5 280.5,-515.5 280.5,-509.5 280.5,-509.5 280.5,-382.5 280.5,-382.5 280.5,-376.5 286.5,-370.5 292.5,-370.5"/>
<text text-anchor="middle" x="389" y="-506.3" font-family="Times,serif" font-size="14.00">Terminal</text>
<polyline fill="none" stroke="black" points="280.5,-498.5 497.5,-498.5 "/>
<text text-anchor="start" x="288.5" y="-483.3" font-family="Times,serif" font-size="14.00">id :integer</text>
<text text-anchor="start" x="288.5" y="-468.3" font-family="Times,serif" font-size="14.00">fedexTerminalName :string</text>
<text text-anchor="start" x="288.5" y="-453.3" font-family="Times,serif" font-size="14.00">fedexTerminalNumber :integer</text>
<text text-anchor="start" x="288.5" y="-438.3" font-family="Times,serif" font-size="14.00">contractorTerminalName :string</text>
<text text-anchor="start" x="288.5" y="-423.3" font-family="Times,serif" font-size="14.00">contractorTerminalNumber :integer</text>
<text text-anchor="start" x="288.5" y="-408.3" font-family="Times,serif" font-size="14.00">colocationBoolean :boolean</text>
<text text-anchor="start" x="288.5" y="-393.3" font-family="Times,serif" font-size="14.00">created_at :datetime</text>
<text text-anchor="start" x="288.5" y="-378.3" font-family="Times,serif" font-size="14.00">updated_at :datetime</text>
</g>
<!-- Terminal&#45;&gt;Note -->
<g id="edge8" class="edge"><title>Terminal&#45;&gt;Note</title>
<path fill="none" stroke="#dfd262" d="M389,-362.144C389,-343.757 389,-324.243 389,-305.78"/>
<ellipse fill="none" stroke="#dfd262" cx="389" cy="-366.411" rx="4" ry="4"/>
<polygon fill="#dfd262" stroke="#dfd262" points="389,-305.645 393.5,-295.645 389,-300.645 389,-295.645 389,-295.645 389,-295.645 389,-300.645 384.5,-295.645 389,-305.645 389,-305.645"/>
</g>
<!-- User&#45;&gt;UserRole -->
<g id="edge9" class="edge"><title>User&#45;&gt;UserRole</title>
<path fill="none" stroke="#93328d" d="M899.419,-151.62C903.459,-139.996 907.639,-127.968 911.621,-116.51"/>
<ellipse fill="none" stroke="#93328d" cx="898.053" cy="-155.55" rx="4.00001" ry="4.00001"/>
<polygon fill="#93328d" stroke="#93328d" points="911.629,-116.487 919.163,-108.518 913.271,-111.764 914.913,-107.041 914.913,-107.041 914.913,-107.041 913.271,-111.764 910.662,-105.564 911.629,-116.487 911.629,-116.487"/>
</g>
<!-- Vehicle -->
<g id="node15" class="node"><title>Vehicle</title>
<path fill="none" stroke="black" d="M1605.5,-597C1605.5,-597 1764.5,-597 1764.5,-597 1770.5,-597 1776.5,-603 1776.5,-609 1776.5,-609 1776.5,-781 1776.5,-781 1776.5,-787 1770.5,-793 1764.5,-793 1764.5,-793 1605.5,-793 1605.5,-793 1599.5,-793 1593.5,-787 1593.5,-781 1593.5,-781 1593.5,-609 1593.5,-609 1593.5,-603 1599.5,-597 1605.5,-597"/>
<text text-anchor="middle" x="1685" y="-777.8" font-family="Times,serif" font-size="14.00">Vehicle</text>
<polyline fill="none" stroke="black" points="1593.5,-770 1776.5,-770 "/>
<text text-anchor="start" x="1601.5" y="-754.8" font-family="Times,serif" font-size="14.00">id :integer</text>
<text text-anchor="start" x="1601.5" y="-739.8" font-family="Times,serif" font-size="14.00">fedexVehicleNumber :integer</text>
<text text-anchor="start" x="1601.5" y="-724.8" font-family="Times,serif" font-size="14.00">fedexVehicleName :string</text>
<text text-anchor="start" x="1601.5" y="-709.8" font-family="Times,serif" font-size="14.00">contractorNumber :integer</text>
<text text-anchor="start" x="1601.5" y="-694.8" font-family="Times,serif" font-size="14.00">contractorName :string</text>
<text text-anchor="start" x="1601.5" y="-679.8" font-family="Times,serif" font-size="14.00">vin :string</text>
<text text-anchor="start" x="1601.5" y="-664.8" font-family="Times,serif" font-size="14.00">startDate :datetime</text>
<text text-anchor="start" x="1601.5" y="-649.8" font-family="Times,serif" font-size="14.00">endDate :datetime</text>
<text text-anchor="start" x="1601.5" y="-634.8" font-family="Times,serif" font-size="14.00">activeBoolean :boolean</text>
<text text-anchor="start" x="1601.5" y="-619.8" font-family="Times,serif" font-size="14.00">created_at :datetime</text>
<text text-anchor="start" x="1601.5" y="-604.8" font-family="Times,serif" font-size="14.00">updated_at :datetime</text>
</g>
<!-- VehicleFuel -->
<g id="node16" class="node"><title>VehicleFuel</title>
<path fill="none" stroke="black" d="M1806.5,-634.5C1806.5,-634.5 1919.5,-634.5 1919.5,-634.5 1925.5,-634.5 1931.5,-640.5 1931.5,-646.5 1931.5,-646.5 1931.5,-743.5 1931.5,-743.5 1931.5,-749.5 1925.5,-755.5 1919.5,-755.5 1919.5,-755.5 1806.5,-755.5 1806.5,-755.5 1800.5,-755.5 1794.5,-749.5 1794.5,-743.5 1794.5,-743.5 1794.5,-646.5 1794.5,-646.5 1794.5,-640.5 1800.5,-634.5 1806.5,-634.5"/>
<text text-anchor="middle" x="1863" y="-740.3" font-family="Times,serif" font-size="14.00">VehicleFuel</text>
<polyline fill="none" stroke="black" points="1794.5,-732.5 1931.5,-732.5 "/>
<text text-anchor="start" x="1802.5" y="-717.3" font-family="Times,serif" font-size="14.00">id :integer</text>
<text text-anchor="start" x="1802.5" y="-702.3" font-family="Times,serif" font-size="14.00">fuelType :string</text>
<text text-anchor="start" x="1802.5" y="-687.3" font-family="Times,serif" font-size="14.00">fuelTankSize :integer</text>
<text text-anchor="start" x="1802.5" y="-672.3" font-family="Times,serif" font-size="14.00">mpg :integer</text>
<text text-anchor="start" x="1802.5" y="-657.3" font-family="Times,serif" font-size="14.00">created_at :datetime</text>
<text text-anchor="start" x="1802.5" y="-642.3" font-family="Times,serif" font-size="14.00">updated_at :datetime</text>
</g>
<!-- VehicleOdometer -->
<g id="node17" class="node"><title>VehicleOdometer</title>
<path fill="none" stroke="black" d="M1962,-634.5C1962,-634.5 2100,-634.5 2100,-634.5 2106,-634.5 2112,-640.5 2112,-646.5 2112,-646.5 2112,-743.5 2112,-743.5 2112,-749.5 2106,-755.5 2100,-755.5 2100,-755.5 1962,-755.5 1962,-755.5 1956,-755.5 1950,-749.5 1950,-743.5 1950,-743.5 1950,-646.5 1950,-646.5 1950,-640.5 1956,-634.5 1962,-634.5"/>
<text text-anchor="middle" x="2031" y="-740.3" font-family="Times,serif" font-size="14.00">VehicleOdometer</text>
<polyline fill="none" stroke="black" points="1950,-732.5 2112,-732.5 "/>
<text text-anchor="start" x="1958" y="-717.3" font-family="Times,serif" font-size="14.00">id :integer</text>
<text text-anchor="start" x="1958" y="-702.3" font-family="Times,serif" font-size="14.00">odometerReading :integer</text>
<text text-anchor="start" x="1958" y="-687.3" font-family="Times,serif" font-size="14.00">startDate :datetime</text>
<text text-anchor="start" x="1958" y="-672.3" font-family="Times,serif" font-size="14.00">endDate :datetime</text>
<text text-anchor="start" x="1958" y="-657.3" font-family="Times,serif" font-size="14.00">created_at :datetime</text>
<text text-anchor="start" x="1958" y="-642.3" font-family="Times,serif" font-size="14.00">updated_at :datetime</text>
</g>
<!-- VehicleType -->
<g id="node18" class="node"><title>VehicleType</title>
<path fill="none" stroke="black" d="M2142,-642C2142,-642 2258,-642 2258,-642 2264,-642 2270,-648 2270,-654 2270,-654 2270,-736 2270,-736 2270,-742 2264,-748 2258,-748 2258,-748 2142,-748 2142,-748 2136,-748 2130,-742 2130,-736 2130,-736 2130,-654 2130,-654 2130,-648 2136,-642 2142,-642"/>
<text text-anchor="middle" x="2200" y="-732.8" font-family="Times,serif" font-size="14.00">VehicleType</text>
<polyline fill="none" stroke="black" points="2130,-725 2270,-725 "/>
<text text-anchor="start" x="2138" y="-709.8" font-family="Times,serif" font-size="14.00">id :integer</text>
<text text-anchor="start" x="2138" y="-694.8" font-family="Times,serif" font-size="14.00">vehicleSize :string</text>
<text text-anchor="start" x="2138" y="-679.8" font-family="Times,serif" font-size="14.00">bulkBoolean :boolean</text>
<text text-anchor="start" x="2138" y="-664.8" font-family="Times,serif" font-size="14.00">created_at :datetime</text>
<text text-anchor="start" x="2138" y="-649.8" font-family="Times,serif" font-size="14.00">updated_at :datetime</text>
</g>
<!-- Zip -->
<g id="node19" class="node"><title>Zip</title>
<path fill="none" stroke="black" d="M759,-642C759,-642 869,-642 869,-642 875,-642 881,-648 881,-654 881,-654 881,-736 881,-736 881,-742 875,-748 869,-748 869,-748 759,-748 759,-748 753,-748 747,-742 747,-736 747,-736 747,-654 747,-654 747,-648 753,-642 759,-642"/>
<text text-anchor="middle" x="814" y="-732.8" font-family="Times,serif" font-size="14.00">Zip</text>
<polyline fill="none" stroke="black" points="747,-725 881,-725 "/>
<text text-anchor="start" x="755" y="-709.8" font-family="Times,serif" font-size="14.00">id :integer</text>
<text text-anchor="start" x="755" y="-694.8" font-family="Times,serif" font-size="14.00">zip :string</text>
<text text-anchor="start" x="755" y="-679.8" font-family="Times,serif" font-size="14.00">psa_id :integer</text>
<text text-anchor="start" x="755" y="-664.8" font-family="Times,serif" font-size="14.00">created_at :datetime</text>
<text text-anchor="start" x="755" y="-649.8" font-family="Times,serif" font-size="14.00">updated_at :datetime</text>
</g>
<!-- Zip&#45;&gt;Psazip -->
<g id="edge10" class="edge"><title>Zip&#45;&gt;Psazip</title>
<path fill="none" stroke="#daf227" d="M819.845,-633.849C823.525,-595.976 828.264,-547.204 831.977,-508.987"/>
<ellipse fill="none" stroke="#daf227" cx="819.447" cy="-637.938" rx="4" ry="4"/>
<polygon fill="#daf227" stroke="#daf227" points="831.979,-508.962 837.425,-499.445 832.463,-503.986 832.946,-499.009 832.946,-499.009 832.946,-499.009 832.463,-503.986 828.468,-498.574 831.979,-508.962 831.979,-508.962"/>
</g>
<!-- Zip&#45;&gt;Psa -->
<g id="edge11" class="edge"><title>Zip&#45;&gt;Psa</title>
<path fill="none" stroke="#01d0b0" d="M789.137,-632.295C780.264,-609.67 770.394,-583.782 762,-560 751.66,-530.703 741.002,-496.685 733.994,-473.689"/>
<polygon fill="#01d0b0" stroke="#01d0b0" points="789.207,-632.472 788.685,-643.426 791.039,-637.124 792.872,-641.777 792.872,-641.777 792.872,-641.777 791.039,-637.124 797.059,-640.127 789.207,-632.472 789.207,-632.472"/>
<polygon fill="#01d0b0" stroke="#01d0b0" points="733.944,-473.526 735.351,-462.651 732.494,-468.741 731.044,-463.956 731.044,-463.956 731.044,-463.956 732.494,-468.741 726.738,-465.261 733.944,-473.526 733.944,-473.526"/>
</g>
</g>
</svg>
