<?xml version="1.0" encoding="UTF-8" standalone="no"?>
<!DOCTYPE svg PUBLIC "-//W3C//DTD SVG 1.1//EN"
 "http://www.w3.org/Graphics/SVG/1.1/DTD/svg11.dtd">
<!-- Generated by graphviz version 2.29.20121209.0545 (20121209.0545)
 -->
<!-- Title: models_diagram Pages: 1 -->
<svg width="2228pt" height="524pt"
 viewBox="0.00 0.00 2228.00 524.00" xmlns="http://www.w3.org/2000/svg" xmlns:xlink="http://www.w3.org/1999/xlink">
<g id="graph0" class="graph" transform="scale(1 1) rotate(0) translate(4 520)">
<title>models_diagram</title>
<polygon fill="white" stroke="white" points="-4,5 -4,-520 2225,-520 2225,5 -4,5"/>
<!-- _diagram_info -->
<g id="node1" class="node"><title>_diagram_info</title>
<text text-anchor="start" x="8" y="-426.6" font-family="Times,serif" font-size="13.00">Models diagram</text>
<text text-anchor="start" x="8" y="-412.6" font-family="Times,serif" font-size="13.00">Date: Dec 12 2012 &#45; 02:45</text>
<text text-anchor="start" x="8" y="-398.6" font-family="Times,serif" font-size="13.00">Migration version: 20121212072611</text>
<text text-anchor="start" x="8" y="-384.6" font-family="Times,serif" font-size="13.00">Generated by RailRoady 1.1.0</text>
<text text-anchor="start" x="8" y="-370.6" font-family="Times,serif" font-size="13.00">http://railroady.prestonlee.com</text>
</g>
<!-- Addendum -->
<g id="node2" class="node"><title>Addendum</title>
<path fill="none" stroke="black" d="M238,-311.5C238,-311.5 476,-311.5 476,-311.5 482,-311.5 488,-317.5 488,-323.5 488,-323.5 488,-480.5 488,-480.5 488,-486.5 482,-492.5 476,-492.5 476,-492.5 238,-492.5 238,-492.5 232,-492.5 226,-486.5 226,-480.5 226,-480.5 226,-323.5 226,-323.5 226,-317.5 232,-311.5 238,-311.5"/>
<text text-anchor="middle" x="357" y="-477.3" font-family="Times,serif" font-size="14.00">Addendum</text>
<polyline fill="none" stroke="black" points="226,-469.5 488,-469.5 "/>
<text text-anchor="start" x="234" y="-454.3" font-family="Times,serif" font-size="14.00">id :integer</text>
<text text-anchor="start" x="234" y="-439.3" font-family="Times,serif" font-size="14.00">fedexAddendumName :string</text>
<text text-anchor="start" x="234" y="-424.3" font-family="Times,serif" font-size="14.00">fedexAddendumNumber :integer</text>
<text text-anchor="start" x="234" y="-409.3" font-family="Times,serif" font-size="14.00">fedexContractorAddendumName :string</text>
<text text-anchor="start" x="234" y="-394.3" font-family="Times,serif" font-size="14.00">fedexContractorAddendumNumber :integer</text>
<text text-anchor="start" x="234" y="-379.3" font-family="Times,serif" font-size="14.00">content :text</text>
<text text-anchor="start" x="234" y="-364.3" font-family="Times,serif" font-size="14.00">startDate :datetime</text>
<text text-anchor="start" x="234" y="-349.3" font-family="Times,serif" font-size="14.00">endDate :datetime</text>
<text text-anchor="start" x="234" y="-334.3" font-family="Times,serif" font-size="14.00">created_at :datetime</text>
<text text-anchor="start" x="234" y="-319.3" font-family="Times,serif" font-size="14.00">updated_at :datetime</text>
</g>
<!-- Employee -->
<g id="node3" class="node"><title>Employee</title>
<path fill="none" stroke="black" d="M518.5,-289C518.5,-289 659.5,-289 659.5,-289 665.5,-289 671.5,-295 671.5,-301 671.5,-301 671.5,-503 671.5,-503 671.5,-509 665.5,-515 659.5,-515 659.5,-515 518.5,-515 518.5,-515 512.5,-515 506.5,-509 506.5,-503 506.5,-503 506.5,-301 506.5,-301 506.5,-295 512.5,-289 518.5,-289"/>
<text text-anchor="middle" x="589" y="-499.8" font-family="Times,serif" font-size="14.00">Employee</text>
<polyline fill="none" stroke="black" points="506.5,-492 671.5,-492 "/>
<text text-anchor="start" x="514.5" y="-476.8" font-family="Times,serif" font-size="14.00">id :integer</text>
<text text-anchor="start" x="514.5" y="-461.8" font-family="Times,serif" font-size="14.00">firstName :string</text>
<text text-anchor="start" x="514.5" y="-446.8" font-family="Times,serif" font-size="14.00">lastName :string</text>
<text text-anchor="start" x="514.5" y="-431.8" font-family="Times,serif" font-size="14.00">fedexNumber :integer</text>
<text text-anchor="start" x="514.5" y="-416.8" font-family="Times,serif" font-size="14.00">contractorNumber :integer</text>
<text text-anchor="start" x="514.5" y="-401.8" font-family="Times,serif" font-size="14.00">hireDate :date</text>
<text text-anchor="start" x="514.5" y="-386.8" font-family="Times,serif" font-size="14.00">dateOfBirth :date</text>
<text text-anchor="start" x="514.5" y="-371.8" font-family="Times,serif" font-size="14.00">activeBoolean :boolean</text>
<text text-anchor="start" x="514.5" y="-356.8" font-family="Times,serif" font-size="14.00">startDate :datetime</text>
<text text-anchor="start" x="514.5" y="-341.8" font-family="Times,serif" font-size="14.00">endDate :datetime</text>
<text text-anchor="start" x="514.5" y="-326.8" font-family="Times,serif" font-size="14.00">terminationDate :datetime</text>
<text text-anchor="start" x="514.5" y="-311.8" font-family="Times,serif" font-size="14.00">created_at :datetime</text>
<text text-anchor="start" x="514.5" y="-296.8" font-family="Times,serif" font-size="14.00">updated_at :datetime</text>
</g>
<!-- FedexContract -->
<g id="node4" class="node"><title>FedexContract</title>
<path fill="none" stroke="black" d="M702,-311.5C702,-311.5 892,-311.5 892,-311.5 898,-311.5 904,-317.5 904,-323.5 904,-323.5 904,-480.5 904,-480.5 904,-486.5 898,-492.5 892,-492.5 892,-492.5 702,-492.5 702,-492.5 696,-492.5 690,-486.5 690,-480.5 690,-480.5 690,-323.5 690,-323.5 690,-317.5 696,-311.5 702,-311.5"/>
<text text-anchor="middle" x="797" y="-477.3" font-family="Times,serif" font-size="14.00">FedexContract</text>
<polyline fill="none" stroke="black" points="690,-469.5 904,-469.5 "/>
<text text-anchor="start" x="698" y="-454.3" font-family="Times,serif" font-size="14.00">id :integer</text>
<text text-anchor="start" x="698" y="-439.3" font-family="Times,serif" font-size="14.00">fedexContractName :string</text>
<text text-anchor="start" x="698" y="-424.3" font-family="Times,serif" font-size="14.00">fedexContractNumber :integer</text>
<text text-anchor="start" x="698" y="-409.3" font-family="Times,serif" font-size="14.00">contractorContractName :string</text>
<text text-anchor="start" x="698" y="-394.3" font-family="Times,serif" font-size="14.00">contractorContractNumber :integer</text>
<text text-anchor="start" x="698" y="-379.3" font-family="Times,serif" font-size="14.00">content :text</text>
<text text-anchor="start" x="698" y="-364.3" font-family="Times,serif" font-size="14.00">startDate :datetime</text>
<text text-anchor="start" x="698" y="-349.3" font-family="Times,serif" font-size="14.00">endDate :datetime</text>
<text text-anchor="start" x="698" y="-334.3" font-family="Times,serif" font-size="14.00">created_at :datetime</text>
<text text-anchor="start" x="698" y="-319.3" font-family="Times,serif" font-size="14.00">updated_at :datetime</text>
</g>
<!-- Note -->
<g id="node5" class="node"><title>Note</title>
<path fill="none" stroke="black" d="M934,-326.5C934,-326.5 1044,-326.5 1044,-326.5 1050,-326.5 1056,-332.5 1056,-338.5 1056,-338.5 1056,-465.5 1056,-465.5 1056,-471.5 1050,-477.5 1044,-477.5 1044,-477.5 934,-477.5 934,-477.5 928,-477.5 922,-471.5 922,-465.5 922,-465.5 922,-338.5 922,-338.5 922,-332.5 928,-326.5 934,-326.5"/>
<text text-anchor="middle" x="989" y="-462.3" font-family="Times,serif" font-size="14.00">Note</text>
<polyline fill="none" stroke="black" points="922,-454.5 1056,-454.5 "/>
<text text-anchor="start" x="930" y="-439.3" font-family="Times,serif" font-size="14.00">id :integer</text>
<text text-anchor="start" x="930" y="-424.3" font-family="Times,serif" font-size="14.00">notable_id :integer</text>
<text text-anchor="start" x="930" y="-409.3" font-family="Times,serif" font-size="14.00">notable_type :string</text>
<text text-anchor="start" x="930" y="-394.3" font-family="Times,serif" font-size="14.00">content :text</text>
<text text-anchor="start" x="930" y="-379.3" font-family="Times,serif" font-size="14.00">startDate :datetime</text>
<text text-anchor="start" x="930" y="-364.3" font-family="Times,serif" font-size="14.00">endDate :datetime</text>
<text text-anchor="start" x="930" y="-349.3" font-family="Times,serif" font-size="14.00">created_at :datetime</text>
<text text-anchor="start" x="930" y="-334.3" font-family="Times,serif" font-size="14.00">updated_at :datetime</text>
</g>
<!-- Psa -->
<g id="node6" class="node"><title>Psa</title>
<path fill="none" stroke="black" d="M1086.5,-311.5C1086.5,-311.5 1253.5,-311.5 1253.5,-311.5 1259.5,-311.5 1265.5,-317.5 1265.5,-323.5 1265.5,-323.5 1265.5,-480.5 1265.5,-480.5 1265.5,-486.5 1259.5,-492.5 1253.5,-492.5 1253.5,-492.5 1086.5,-492.5 1086.5,-492.5 1080.5,-492.5 1074.5,-486.5 1074.5,-480.5 1074.5,-480.5 1074.5,-323.5 1074.5,-323.5 1074.5,-317.5 1080.5,-311.5 1086.5,-311.5"/>
<text text-anchor="middle" x="1170" y="-477.3" font-family="Times,serif" font-size="14.00">Psa</text>
<polyline fill="none" stroke="black" points="1074.5,-469.5 1265.5,-469.5 "/>
<text text-anchor="start" x="1082.5" y="-454.3" font-family="Times,serif" font-size="14.00">id :integer</text>
<text text-anchor="start" x="1082.5" y="-439.3" font-family="Times,serif" font-size="14.00">fedexPSAName :string</text>
<text text-anchor="start" x="1082.5" y="-424.3" font-family="Times,serif" font-size="14.00">fedexPSANumber :integer</text>
<text text-anchor="start" x="1082.5" y="-409.3" font-family="Times,serif" font-size="14.00">contractorPSAName :string</text>
<text text-anchor="start" x="1082.5" y="-394.3" font-family="Times,serif" font-size="14.00">contractorPSANumber :integer</text>
<text text-anchor="start" x="1082.5" y="-379.3" font-family="Times,serif" font-size="14.00">activeBoolean :boolean</text>
<text text-anchor="start" x="1082.5" y="-364.3" font-family="Times,serif" font-size="14.00">startDate :datetime</text>
<text text-anchor="start" x="1082.5" y="-349.3" font-family="Times,serif" font-size="14.00">endDate :datetime</text>
<text text-anchor="start" x="1082.5" y="-334.3" font-family="Times,serif" font-size="14.00">created_at :datetime</text>
<text text-anchor="start" x="1082.5" y="-319.3" font-family="Times,serif" font-size="14.00">updated_at :datetime</text>
</g>
<!-- Psazip -->
<g id="node8" class="node"><title>Psazip</title>
<path fill="none" stroke="black" d="M991,-1C991,-1 1101,-1 1101,-1 1107,-1 1113,-7 1113,-13 1113,-13 1113,-95 1113,-95 1113,-101 1107,-107 1101,-107 1101,-107 991,-107 991,-107 985,-107 979,-101 979,-95 979,-95 979,-13 979,-13 979,-7 985,-1 991,-1"/>
<text text-anchor="middle" x="1046" y="-91.8" font-family="Times,serif" font-size="14.00">Psazip</text>
<polyline fill="none" stroke="black" points="979,-84 1113,-84 "/>
<text text-anchor="start" x="987" y="-68.8" font-family="Times,serif" font-size="14.00">id :integer</text>
<text text-anchor="start" x="987" y="-53.8" font-family="Times,serif" font-size="14.00">psa_id :integer</text>
<text text-anchor="start" x="987" y="-38.8" font-family="Times,serif" font-size="14.00">zip_id :integer</text>
<text text-anchor="start" x="987" y="-23.8" font-family="Times,serif" font-size="14.00">created_at :datetime</text>
<text text-anchor="start" x="987" y="-8.8" font-family="Times,serif" font-size="14.00">updated_at :datetime</text>
</g>
<!-- Psa&#45;&gt;Psazip -->
<g id="edge1" class="edge"><title>Psa&#45;&gt;Psazip</title>
<path fill="none" stroke="#5883af" d="M1081.89,-305.283C1064.75,-284.442 1050.64,-264.818 1046,-252 1030.43,-208.951 1031.14,-157.065 1035.37,-117.35"/>
<ellipse fill="none" stroke="#5883af" cx="1084.49" cy="-308.409" rx="4.00002" ry="4.00002"/>
<polygon fill="#5883af" stroke="#5883af" points="1035.38,-117.202 1041.01,-107.79 1035.96,-112.236 1036.54,-107.269 1036.54,-107.269 1036.54,-107.269 1035.96,-112.236 1032.07,-106.748 1035.38,-117.202 1035.38,-117.202"/>
</g>
<!-- Zip -->
<g id="node15" class="node"><title>Zip</title>
<path fill="none" stroke="black" d="M1067,-152.5C1067,-152.5 1177,-152.5 1177,-152.5 1183,-152.5 1189,-158.5 1189,-164.5 1189,-164.5 1189,-231.5 1189,-231.5 1189,-237.5 1183,-243.5 1177,-243.5 1177,-243.5 1067,-243.5 1067,-243.5 1061,-243.5 1055,-237.5 1055,-231.5 1055,-231.5 1055,-164.5 1055,-164.5 1055,-158.5 1061,-152.5 1067,-152.5"/>
<text text-anchor="middle" x="1122" y="-228.3" font-family="Times,serif" font-size="14.00">Zip</text>
<polyline fill="none" stroke="black" points="1055,-220.5 1189,-220.5 "/>
<text text-anchor="start" x="1063" y="-205.3" font-family="Times,serif" font-size="14.00">id :integer</text>
<text text-anchor="start" x="1063" y="-190.3" font-family="Times,serif" font-size="14.00">zip :string</text>
<text text-anchor="start" x="1063" y="-175.3" font-family="Times,serif" font-size="14.00">created_at :datetime</text>
<text text-anchor="start" x="1063" y="-160.3" font-family="Times,serif" font-size="14.00">updated_at :datetime</text>
</g>
<!-- Psa&#45;&gt;Zip -->
<g id="edge2" class="edge"><title>Psa&#45;&gt;Zip</title>
<path fill="none" stroke="#658b2f" d="M1146.31,-301.321C1142.41,-284.898 1138.5,-268.429 1134.99,-253.651"/>
<polygon fill="#658b2f" stroke="#658b2f" points="1146.36,-301.494 1144.29,-312.264 1147.51,-306.359 1148.67,-311.223 1148.67,-311.223 1148.67,-311.223 1147.51,-306.359 1153.05,-310.183 1146.36,-301.494 1146.36,-301.494"/>
<polygon fill="#658b2f" stroke="#658b2f" points="1134.94,-253.44 1137,-242.671 1133.78,-248.575 1132.62,-243.711 1132.62,-243.711 1132.62,-243.711 1133.78,-248.575 1128.25,-244.751 1134.94,-253.44 1134.94,-253.44"/>
</g>
<!-- PsaState -->
<g id="node7" class="node"><title>PsaState</title>
<path fill="none" stroke="black" d="M1209,-1C1209,-1 1319,-1 1319,-1 1325,-1 1331,-7 1331,-13 1331,-13 1331,-95 1331,-95 1331,-101 1325,-107 1319,-107 1319,-107 1209,-107 1209,-107 1203,-107 1197,-101 1197,-95 1197,-95 1197,-13 1197,-13 1197,-7 1203,-1 1209,-1"/>
<text text-anchor="middle" x="1264" y="-91.8" font-family="Times,serif" font-size="14.00">PsaState</text>
<polyline fill="none" stroke="black" points="1197,-84 1331,-84 "/>
<text text-anchor="start" x="1205" y="-68.8" font-family="Times,serif" font-size="14.00">id :integer</text>
<text text-anchor="start" x="1205" y="-53.8" font-family="Times,serif" font-size="14.00">psa_id :integer</text>
<text text-anchor="start" x="1205" y="-38.8" font-family="Times,serif" font-size="14.00">state_id :integer</text>
<text text-anchor="start" x="1205" y="-23.8" font-family="Times,serif" font-size="14.00">created_at :datetime</text>
<text text-anchor="start" x="1205" y="-8.8" font-family="Times,serif" font-size="14.00">updated_at :datetime</text>
</g>
<!-- Psa&#45;&gt;PsaState -->
<g id="edge3" class="edge"><title>Psa&#45;&gt;PsaState</title>
<path fill="none" stroke="#3bdcde" d="M1193.73,-303.537C1205.78,-255.362 1221.03,-196.45 1236,-144 1238.51,-135.192 1241.28,-125.933 1244.07,-116.852"/>
<ellipse fill="none" stroke="#3bdcde" cx="1192.71" cy="-307.599" rx="4.00001" ry="4.00001"/>
<polygon fill="#3bdcde" stroke="#3bdcde" points="1244.14,-116.649 1251.4,-108.43 1245.62,-111.873 1247.1,-107.098 1247.1,-107.098 1247.1,-107.098 1245.62,-111.873 1242.8,-105.765 1244.14,-116.649 1244.14,-116.649"/>
</g>
<!-- State -->
<g id="node11" class="node"><title>State</title>
<path fill="none" stroke="black" d="M1257,-145C1257,-145 1367,-145 1367,-145 1373,-145 1379,-151 1379,-157 1379,-157 1379,-239 1379,-239 1379,-245 1373,-251 1367,-251 1367,-251 1257,-251 1257,-251 1251,-251 1245,-245 1245,-239 1245,-239 1245,-157 1245,-157 1245,-151 1251,-145 1257,-145"/>
<text text-anchor="middle" x="1312" y="-235.8" font-family="Times,serif" font-size="14.00">State</text>
<polyline fill="none" stroke="black" points="1245,-228 1379,-228 "/>
<text text-anchor="start" x="1253" y="-212.8" font-family="Times,serif" font-size="14.00">id :integer</text>
<text text-anchor="start" x="1253" y="-197.8" font-family="Times,serif" font-size="14.00">state :string</text>
<text text-anchor="start" x="1253" y="-182.8" font-family="Times,serif" font-size="14.00">abbreviation :string</text>
<text text-anchor="start" x="1253" y="-167.8" font-family="Times,serif" font-size="14.00">created_at :datetime</text>
<text text-anchor="start" x="1253" y="-152.8" font-family="Times,serif" font-size="14.00">updated_at :datetime</text>
</g>
<!-- Psa&#45;&gt;State -->
<g id="edge4" class="edge"><title>Psa&#45;&gt;State</title>
<path fill="none" stroke="#17151f" d="M1238.88,-303.012C1249.31,-288.18 1259.8,-273.262 1269.44,-259.538"/>
<polygon fill="#17151f" stroke="#17151f" points="1238.86,-303.043 1229.43,-308.636 1235.99,-307.133 1233.11,-311.223 1233.11,-311.223 1233.11,-311.223 1235.99,-307.133 1236.79,-313.811 1238.86,-303.043 1238.86,-303.043"/>
<polygon fill="#17151f" stroke="#17151f" points="1269.58,-259.339 1279.02,-253.746 1272.46,-255.249 1275.33,-251.159 1275.33,-251.159 1275.33,-251.159 1272.46,-255.249 1271.65,-248.571 1269.58,-259.339 1269.58,-259.339"/>
</g>
<!-- Region -->
<g id="node9" class="node"><title>Region</title>
<path fill="none" stroke="black" d="M1296,-326.5C1296,-326.5 1478,-326.5 1478,-326.5 1484,-326.5 1490,-332.5 1490,-338.5 1490,-338.5 1490,-465.5 1490,-465.5 1490,-471.5 1484,-477.5 1478,-477.5 1478,-477.5 1296,-477.5 1296,-477.5 1290,-477.5 1284,-471.5 1284,-465.5 1284,-465.5 1284,-338.5 1284,-338.5 1284,-332.5 1290,-326.5 1296,-326.5"/>
<text text-anchor="middle" x="1387" y="-462.3" font-family="Times,serif" font-size="14.00">Region</text>
<polyline fill="none" stroke="black" points="1284,-454.5 1490,-454.5 "/>
<text text-anchor="start" x="1292" y="-439.3" font-family="Times,serif" font-size="14.00">id :integer</text>
<text text-anchor="start" x="1292" y="-424.3" font-family="Times,serif" font-size="14.00">fedexRegionName :string</text>
<text text-anchor="start" x="1292" y="-409.3" font-family="Times,serif" font-size="14.00">fedexRegionNumber :integer</text>
<text text-anchor="start" x="1292" y="-394.3" font-family="Times,serif" font-size="14.00">fedexRegionPhone :string</text>
<text text-anchor="start" x="1292" y="-379.3" font-family="Times,serif" font-size="14.00">contractorRegionName :string</text>
<text text-anchor="start" x="1292" y="-364.3" font-family="Times,serif" font-size="14.00">contractorRegionNumber :integer</text>
<text text-anchor="start" x="1292" y="-349.3" font-family="Times,serif" font-size="14.00">created_at :datetime</text>
<text text-anchor="start" x="1292" y="-334.3" font-family="Times,serif" font-size="14.00">updated_at :datetime</text>
</g>
<!-- Role -->
<g id="node10" class="node"><title>Role</title>
<path fill="none" stroke="black" d="M1520,-356.5C1520,-356.5 1630,-356.5 1630,-356.5 1636,-356.5 1642,-362.5 1642,-368.5 1642,-368.5 1642,-435.5 1642,-435.5 1642,-441.5 1636,-447.5 1630,-447.5 1630,-447.5 1520,-447.5 1520,-447.5 1514,-447.5 1508,-441.5 1508,-435.5 1508,-435.5 1508,-368.5 1508,-368.5 1508,-362.5 1514,-356.5 1520,-356.5"/>
<text text-anchor="middle" x="1575" y="-432.3" font-family="Times,serif" font-size="14.00">Role</text>
<polyline fill="none" stroke="black" points="1508,-424.5 1642,-424.5 "/>
<text text-anchor="start" x="1516" y="-409.3" font-family="Times,serif" font-size="14.00">id :integer</text>
<text text-anchor="start" x="1516" y="-394.3" font-family="Times,serif" font-size="14.00">name :string</text>
<text text-anchor="start" x="1516" y="-379.3" font-family="Times,serif" font-size="14.00">created_at :datetime</text>
<text text-anchor="start" x="1516" y="-364.3" font-family="Times,serif" font-size="14.00">updated_at :datetime</text>
</g>
<!-- State&#45;&gt;PsaState -->
<g id="edge5" class="edge"><title>State&#45;&gt;PsaState</title>
<path fill="none" stroke="#e0ed30" d="M1291.83,-137.318C1289.54,-130.564 1287.21,-123.67 1284.92,-116.888"/>
<ellipse fill="none" stroke="#e0ed30" cx="1293.12" cy="-141.141" rx="4.00001" ry="4.00001"/>
<polygon fill="#e0ed30" stroke="#e0ed30" points="1284.8,-116.536 1285.86,-105.622 1283.2,-111.8 1281.6,-107.063 1281.6,-107.063 1281.6,-107.063 1283.2,-111.8 1277.34,-108.504 1284.8,-116.536 1284.8,-116.536"/>
</g>
<!-- Terminal -->
<g id="node12" class="node"><title>Terminal</title>
<path fill="none" stroke="black" d="M1672.5,-326.5C1672.5,-326.5 1865.5,-326.5 1865.5,-326.5 1871.5,-326.5 1877.5,-332.5 1877.5,-338.5 1877.5,-338.5 1877.5,-465.5 1877.5,-465.5 1877.5,-471.5 1871.5,-477.5 1865.5,-477.5 1865.5,-477.5 1672.5,-477.5 1672.5,-477.5 1666.5,-477.5 1660.5,-471.5 1660.5,-465.5 1660.5,-465.5 1660.5,-338.5 1660.5,-338.5 1660.5,-332.5 1666.5,-326.5 1672.5,-326.5"/>
<text text-anchor="middle" x="1769" y="-462.3" font-family="Times,serif" font-size="14.00">Terminal</text>
<polyline fill="none" stroke="black" points="1660.5,-454.5 1877.5,-454.5 "/>
<text text-anchor="start" x="1668.5" y="-439.3" font-family="Times,serif" font-size="14.00">id :integer</text>
<text text-anchor="start" x="1668.5" y="-424.3" font-family="Times,serif" font-size="14.00">fedexTerminalName :string</text>
<text text-anchor="start" x="1668.5" y="-409.3" font-family="Times,serif" font-size="14.00">fedexTerminalNumber :integer</text>
<text text-anchor="start" x="1668.5" y="-394.3" font-family="Times,serif" font-size="14.00">contractorTerminalName :string</text>
<text text-anchor="start" x="1668.5" y="-379.3" font-family="Times,serif" font-size="14.00">contractorTerminalNumber :integer</text>
<text text-anchor="start" x="1668.5" y="-364.3" font-family="Times,serif" font-size="14.00">colocationBoolean :boolean</text>
<text text-anchor="start" x="1668.5" y="-349.3" font-family="Times,serif" font-size="14.00">created_at :datetime</text>
<text text-anchor="start" x="1668.5" y="-334.3" font-family="Times,serif" font-size="14.00">updated_at :datetime</text>
</g>
<!-- User -->
<g id="node13" class="node"><title>User</title>
<path fill="none" stroke="black" d="M1908,-341.5C1908,-341.5 2056,-341.5 2056,-341.5 2062,-341.5 2068,-347.5 2068,-353.5 2068,-353.5 2068,-450.5 2068,-450.5 2068,-456.5 2062,-462.5 2056,-462.5 2056,-462.5 1908,-462.5 1908,-462.5 1902,-462.5 1896,-456.5 1896,-450.5 1896,-450.5 1896,-353.5 1896,-353.5 1896,-347.5 1902,-341.5 1908,-341.5"/>
<text text-anchor="middle" x="1982" y="-447.3" font-family="Times,serif" font-size="14.00">User</text>
<polyline fill="none" stroke="black" points="1896,-439.5 2068,-439.5 "/>
<text text-anchor="start" x="1904" y="-424.3" font-family="Times,serif" font-size="14.00">id :integer</text>
<text text-anchor="start" x="1904" y="-409.3" font-family="Times,serif" font-size="14.00">contractorBoolean :boolean</text>
<text text-anchor="start" x="1904" y="-394.3" font-family="Times,serif" font-size="14.00">activeBoolean :boolean</text>
<text text-anchor="start" x="1904" y="-379.3" font-family="Times,serif" font-size="14.00">employee_id :integer</text>
<text text-anchor="start" x="1904" y="-364.3" font-family="Times,serif" font-size="14.00">created_at :datetime</text>
<text text-anchor="start" x="1904" y="-349.3" font-family="Times,serif" font-size="14.00">updated_at :datetime</text>
</g>
<!-- UserRole -->
<g id="node14" class="node"><title>UserRole</title>
<path fill="none" stroke="black" d="M2098,-349C2098,-349 2208,-349 2208,-349 2214,-349 2220,-355 2220,-361 2220,-361 2220,-443 2220,-443 2220,-449 2214,-455 2208,-455 2208,-455 2098,-455 2098,-455 2092,-455 2086,-449 2086,-443 2086,-443 2086,-361 2086,-361 2086,-355 2092,-349 2098,-349"/>
<text text-anchor="middle" x="2153" y="-439.8" font-family="Times,serif" font-size="14.00">UserRole</text>
<polyline fill="none" stroke="black" points="2086,-432 2220,-432 "/>
<text text-anchor="start" x="2094" y="-416.8" font-family="Times,serif" font-size="14.00">id :integer</text>
<text text-anchor="start" x="2094" y="-401.8" font-family="Times,serif" font-size="14.00">user_id :integer</text>
<text text-anchor="start" x="2094" y="-386.8" font-family="Times,serif" font-size="14.00">role_id :integer</text>
<text text-anchor="start" x="2094" y="-371.8" font-family="Times,serif" font-size="14.00">created_at :datetime</text>
<text text-anchor="start" x="2094" y="-356.8" font-family="Times,serif" font-size="14.00">updated_at :datetime</text>
</g>
<!-- Zip&#45;&gt;Psazip -->
<g id="edge6" class="edge"><title>Zip&#45;&gt;Psazip</title>
<path fill="none" stroke="#4be52c" d="M1094.3,-145.25C1089.21,-135.73 1083.85,-125.711 1078.62,-115.95"/>
<ellipse fill="none" stroke="#4be52c" cx="1096.27" cy="-148.933" rx="4.00002" ry="4.00002"/>
<polygon fill="#4be52c" stroke="#4be52c" points="1078.59,-115.898 1077.84,-104.958 1076.23,-111.489 1073.87,-107.081 1073.87,-107.081 1073.87,-107.081 1076.23,-111.489 1069.91,-109.205 1078.59,-115.898 1078.59,-115.898"/>
</g>
</g>
</svg>
