<?xml version="1.0" encoding="UTF-8" standalone="no"?>
<!DOCTYPE svg PUBLIC "-//W3C//DTD SVG 1.1//EN"
 "http://www.w3.org/Graphics/SVG/1.1/DTD/svg11.dtd">
<!-- Generated by graphviz version 2.29.20121209.0545 (20121209.0545)
 -->
<!-- Title: models_diagram Pages: 1 -->
<svg width="1369pt" height="302pt"
 viewBox="0.00 0.00 1369.16 302.00" xmlns="http://www.w3.org/2000/svg" xmlns:xlink="http://www.w3.org/1999/xlink">
<g id="graph0" class="graph" transform="scale(1 1) rotate(0) translate(4 298)">
<title>models_diagram</title>
<polygon fill="white" stroke="white" points="-4,5 -4,-298 1366.16,-298 1366.16,5 -4,5"/>
<!-- _diagram_info -->
<g id="node1" class="node"><title>_diagram_info</title>
<text text-anchor="start" x="17.1592" y="-279.6" font-family="Times,serif" font-size="13.00">Models diagram</text>
<text text-anchor="start" x="17.1592" y="-265.6" font-family="Times,serif" font-size="13.00">Date: Dec 14 2012 &#45; 06:51</text>
<text text-anchor="start" x="17.1592" y="-251.6" font-family="Times,serif" font-size="13.00">Migration version: 20121213061801</text>
<text text-anchor="start" x="17.1592" y="-237.6" font-family="Times,serif" font-size="13.00">Generated by RailRoady 1.1.0</text>
<text text-anchor="start" x="17.1592" y="-223.6" font-family="Times,serif" font-size="13.00">http://railroady.prestonlee.com</text>
</g>
<!-- Addendum -->
<g id="node2" class="node"><title>Addendum</title>
<ellipse fill="none" stroke="black" cx="67.1592" cy="-162" rx="51.0191" ry="18"/>
<text text-anchor="middle" x="67.1592" y="-158.3" font-family="Times,serif" font-size="14.00">Addendum</text>
</g>
<!-- Note -->
<g id="node10" class="node"><title>Note</title>
<ellipse fill="none" stroke="black" cx="113.159" cy="-90" rx="28.3955" ry="18"/>
<text text-anchor="middle" x="113.159" y="-86.3" font-family="Times,serif" font-size="14.00">Note</text>
</g>
<!-- Addendum&#45;&gt;Note -->
<g id="edge1" class="edge"><title>Addendum&#45;&gt;Note</title>
<path fill="none" stroke="#db5bae" d="M82.4623,-137.713C87.1213,-130.623 92.2566,-122.808 96.972,-115.633"/>
<ellipse fill="none" stroke="#db5bae" cx="80.2573" cy="-141.068" rx="4.00002" ry="4.00002"/>
<polygon fill="#db5bae" stroke="#db5bae" points="97.1609,-115.345 106.413,-109.459 99.9068,-111.167 102.653,-106.988 102.653,-106.988 102.653,-106.988 99.9068,-111.167 98.8921,-104.517 97.1609,-115.345 97.1609,-115.345"/>
</g>
<!-- Business -->
<g id="node3" class="node"><title>Business</title>
<ellipse fill="none" stroke="black" cx="991.159" cy="-162" rx="42.3456" ry="18"/>
<text text-anchor="middle" x="991.159" y="-158.3" font-family="Times,serif" font-size="14.00">Business</text>
</g>
<!-- DailyDataEmployee -->
<g id="node4" class="node"><title>DailyDataEmployee</title>
<ellipse fill="none" stroke="black" cx="366.159" cy="-90" rx="85.2138" ry="18"/>
<text text-anchor="middle" x="366.159" y="-86.3" font-family="Times,serif" font-size="14.00">DailyDataEmployee</text>
</g>
<!-- DailyDataVehicle -->
<g id="node5" class="node"><title>DailyDataVehicle</title>
<ellipse fill="none" stroke="black" cx="552.159" cy="-90" rx="76.5394" ry="18"/>
<text text-anchor="middle" x="552.159" y="-86.3" font-family="Times,serif" font-size="14.00">DailyDataVehicle</text>
</g>
<!-- DailyDatum -->
<g id="node6" class="node"><title>DailyDatum</title>
<ellipse fill="none" stroke="black" cx="291.159" cy="-255" rx="55.3436" ry="18"/>
<text text-anchor="middle" x="291.159" y="-251.3" font-family="Times,serif" font-size="14.00">DailyDatum</text>
</g>
<!-- DailyDatum&#45;&gt;Note -->
<g id="edge2" class="edge"><title>DailyDatum&#45;&gt;Note</title>
<path fill="none" stroke="#b4b023" d="M262.155,-233.981C251.291,-227.323 238.567,-220.473 226.159,-216 133.365,-182.55 71.001,-255.193 7.15921,-180 -3.19635,-167.803 -1.25249,-157.61 7.15921,-144 22.2754,-119.542 52.475,-105.993 76.786,-98.7309"/>
<ellipse fill="none" stroke="#b4b023" cx="265.621" cy="-236.168" rx="4.00002" ry="4.00002"/>
<polygon fill="#b4b023" stroke="#b4b023" points="76.8022,-98.7265 87.6374,-100.414 81.6233,-97.4009 86.4444,-96.0753 86.4444,-96.0753 86.4444,-96.0753 81.6233,-97.4009 85.2514,-91.7364 76.8022,-98.7265 76.8022,-98.7265"/>
</g>
<!-- DailyDatum&#45;&gt;DailyDataVehicle -->
<g id="edge3" class="edge"><title>DailyDatum&#45;&gt;DailyDataVehicle</title>
<path fill="none" stroke="#4c5a1e" d="M322.727,-234.285C371.958,-203.54 466.648,-144.404 517.633,-112.562"/>
<ellipse fill="none" stroke="#4c5a1e" cx="319.106" cy="-236.547" rx="4.00002" ry="4.00002"/>
<polygon fill="#4c5a1e" stroke="#4c5a1e" points="517.843,-112.431 528.708,-110.951 522.084,-109.783 526.325,-107.134 526.325,-107.134 526.325,-107.134 522.084,-109.783 523.941,-103.317 517.843,-112.431 517.843,-112.431"/>
</g>
<!-- Vehicle -->
<g id="node20" class="node"><title>Vehicle</title>
<ellipse fill="none" stroke="black" cx="558.159" cy="-162" rx="38.4949" ry="18"/>
<text text-anchor="middle" x="558.159" y="-158.3" font-family="Times,serif" font-size="14.00">Vehicle</text>
</g>
<!-- DailyDatum&#45;&gt;Vehicle -->
<g id="edge4" class="edge"><title>DailyDatum&#45;&gt;Vehicle</title>
<path fill="none" stroke="#4c1428" d="M322.804,-233.177C333.132,-227.02 344.858,-220.683 356.159,-216 407.99,-194.524 470.966,-179.646 512.677,-171.237"/>
<polygon fill="#4c1428" stroke="#4c1428" points="322.657,-233.266 311.78,-234.658 318.395,-235.88 314.132,-238.494 314.132,-238.494 314.132,-238.494 318.395,-235.88 316.485,-242.33 322.657,-233.266 322.657,-233.266"/>
<polygon fill="#4c1428" stroke="#4c1428" points="512.732,-171.226 523.414,-173.703 517.637,-170.257 522.542,-169.288 522.542,-169.288 522.542,-169.288 517.637,-170.257 521.67,-164.873 512.732,-171.226 512.732,-171.226"/>
</g>
<!-- DailyDatum&#45;&gt;DailyDataEmployee -->
<g id="edge5" class="edge"><title>DailyDatum&#45;&gt;DailyDataEmployee</title>
<path fill="none" stroke="#fbcf56" d="M312.389,-231.456C324.314,-217.603 338.499,-198.93 347.159,-180 356.17,-160.303 360.979,-136.179 363.502,-118.018"/>
<ellipse fill="none" stroke="#fbcf56" cx="309.74" cy="-234.463" rx="4.00002" ry="4.00002"/>
<polygon fill="#fbcf56" stroke="#fbcf56" points="363.502,-118.016 369.203,-108.648 364.12,-113.054 364.738,-108.092 364.738,-108.092 364.738,-108.092 364.12,-113.054 360.272,-107.536 363.502,-118.016 363.502,-118.016"/>
</g>
<!-- Employee -->
<g id="node7" class="node"><title>Employee</title>
<ellipse fill="none" stroke="black" cx="291.159" cy="-162" rx="47.169" ry="18"/>
<text text-anchor="middle" x="291.159" y="-158.3" font-family="Times,serif" font-size="14.00">Employee</text>
</g>
<!-- DailyDatum&#45;&gt;Employee -->
<g id="edge6" class="edge"><title>DailyDatum&#45;&gt;Employee</title>
<path fill="none" stroke="#8bed32" d="M291.159,-226.549C291.159,-215.083 291.159,-201.792 291.159,-190.339"/>
<polygon fill="#8bed32" stroke="#8bed32" points="291.159,-226.884 286.659,-236.884 291.159,-231.884 291.159,-236.884 291.159,-236.884 291.159,-236.884 291.159,-231.884 295.659,-236.884 291.159,-226.884 291.159,-226.884"/>
<polygon fill="#8bed32" stroke="#8bed32" points="291.159,-190.04 295.659,-180.04 291.159,-185.04 291.159,-180.04 291.159,-180.04 291.159,-180.04 291.159,-185.04 286.659,-180.04 291.159,-190.04 291.159,-190.04"/>
</g>
<!-- Employee&#45;&gt;Note -->
<g id="edge7" class="edge"><title>Employee&#45;&gt;Note</title>
<path fill="none" stroke="#a0788f" d="M251.62,-145.451C219.975,-133.006 176.105,-115.754 146.286,-104.027"/>
<ellipse fill="none" stroke="#a0788f" cx="255.614" cy="-147.021" rx="4.00001" ry="4.00001"/>
<polygon fill="#a0788f" stroke="#a0788f" points="146.057,-103.937 138.397,-96.0896 141.403,-102.107 136.75,-100.277 136.75,-100.277 136.75,-100.277 141.403,-102.107 135.103,-104.465 146.057,-103.937 146.057,-103.937"/>
</g>
<!-- User -->
<g id="node18" class="node"><title>User</title>
<ellipse fill="none" stroke="black" cx="235.159" cy="-90" rx="27.4223" ry="18"/>
<text text-anchor="middle" x="235.159" y="-86.3" font-family="Times,serif" font-size="14.00">User</text>
</g>
<!-- Employee&#45;&gt;User -->
<g id="edge8" class="edge"><title>Employee&#45;&gt;User</title>
<path fill="none" stroke="#413a9a" d="M272.685,-137.908C266.244,-129.856 259.039,-120.85 252.678,-112.898"/>
<ellipse fill="none" stroke="#413a9a" cx="275.389" cy="-141.287" rx="4.00002" ry="4.00002"/>
<ellipse fill="#413a9a" stroke="#413a9a" cx="250.067" cy="-109.634" rx="4.00002" ry="4.00002"/>
</g>
<!-- Employee&#45;&gt;DailyDataEmployee -->
<g id="edge9" class="edge"><title>Employee&#45;&gt;DailyDataEmployee</title>
<path fill="none" stroke="#bd868e" d="M314.032,-139.652C322.506,-131.743 332.162,-122.731 340.841,-114.631"/>
<ellipse fill="none" stroke="#bd868e" cx="311.102" cy="-142.387" rx="4.00002" ry="4.00002"/>
<polygon fill="#bd868e" stroke="#bd868e" points="340.851,-114.621 351.232,-111.087 344.507,-111.209 348.162,-107.797 348.162,-107.797 348.162,-107.797 344.507,-111.209 345.092,-104.508 340.851,-114.621 340.851,-114.621"/>
</g>
<!-- EmployeePsa -->
<g id="node8" class="node"><title>EmployeePsa</title>
<ellipse fill="none" stroke="black" cx="1134.16" cy="-255" rx="60.1672" ry="18"/>
<text text-anchor="middle" x="1134.16" y="-251.3" font-family="Times,serif" font-size="14.00">EmployeePsa</text>
</g>
<!-- FedexContract -->
<g id="node9" class="node"><title>FedexContract</title>
<ellipse fill="none" stroke="black" cx="991.159" cy="-255" rx="64.0172" ry="18"/>
<text text-anchor="middle" x="991.159" y="-251.3" font-family="Times,serif" font-size="14.00">FedexContract</text>
</g>
<!-- FedexContract&#45;&gt;Business -->
<g id="edge10" class="edge"><title>FedexContract&#45;&gt;Business</title>
<path fill="none" stroke="#514abc" d="M991.159,-228.729C991.159,-216.725 991.159,-202.362 991.159,-190.129"/>
<ellipse fill="none" stroke="#514abc" cx="991.159" cy="-232.884" rx="4" ry="4"/>
<polygon fill="#514abc" stroke="#514abc" points="991.159,-190.04 995.659,-180.04 991.159,-185.04 991.159,-180.04 991.159,-180.04 991.159,-180.04 991.159,-185.04 986.659,-180.04 991.159,-190.04 991.159,-190.04"/>
</g>
<!-- Psa -->
<g id="node11" class="node"><title>Psa</title>
<ellipse fill="none" stroke="black" cx="1249.16" cy="-162" rx="27" ry="18"/>
<text text-anchor="middle" x="1249.16" y="-158.3" font-family="Times,serif" font-size="14.00">Psa</text>
</g>
<!-- Psazip -->
<g id="node13" class="node"><title>Psazip</title>
<ellipse fill="none" stroke="black" cx="1188.16" cy="-18" rx="34.1708" ry="18"/>
<text text-anchor="middle" x="1188.16" y="-14.3" font-family="Times,serif" font-size="14.00">Psazip</text>
</g>
<!-- Psa&#45;&gt;Psazip -->
<g id="edge11" class="edge"><title>Psa&#45;&gt;Psazip</title>
<path fill="none" stroke="#8d1539" d="M1221.28,-145.868C1207.69,-136.841 1192.69,-124.009 1185.16,-108 1176.08,-88.703 1177.66,-64.364 1181.04,-46.0178"/>
<ellipse fill="none" stroke="#8d1539" cx="1224.82" cy="-148.104" rx="4.00002" ry="4.00002"/>
<polygon fill="#8d1539" stroke="#8d1539" points="1181.09,-45.7728 1187.58,-36.9287 1182.14,-40.8823 1183.18,-35.9919 1183.18,-35.9919 1183.18,-35.9919 1182.14,-40.8823 1178.78,-35.055 1181.09,-45.7728 1181.09,-45.7728"/>
</g>
<!-- Zip -->
<g id="node24" class="node"><title>Zip</title>
<ellipse fill="none" stroke="black" cx="1221.16" cy="-90" rx="27" ry="18"/>
<text text-anchor="middle" x="1221.16" y="-86.3" font-family="Times,serif" font-size="14.00">Zip</text>
</g>
<!-- Psa&#45;&gt;Zip -->
<g id="edge12" class="edge"><title>Psa&#45;&gt;Zip</title>
<path fill="none" stroke="#faaa2c" d="M1238.72,-134.912C1236.37,-129.022 1233.87,-122.772 1231.52,-116.891"/>
<polygon fill="#faaa2c" stroke="#faaa2c" points="1238.81,-135.126 1238.35,-146.082 1240.67,-139.769 1242.52,-144.411 1242.52,-144.411 1242.52,-144.411 1240.67,-139.769 1246.7,-142.74 1238.81,-135.126 1238.81,-135.126"/>
<polygon fill="#faaa2c" stroke="#faaa2c" points="1231.46,-116.755 1231.93,-105.799 1229.6,-112.112 1227.75,-107.47 1227.75,-107.47 1227.75,-107.47 1229.6,-112.112 1223.57,-109.141 1231.46,-116.755 1231.46,-116.755"/>
</g>
<!-- PsaState -->
<g id="node12" class="node"><title>PsaState</title>
<ellipse fill="none" stroke="black" cx="1304.16" cy="-18" rx="41.394" ry="18"/>
<text text-anchor="middle" x="1304.16" y="-14.3" font-family="Times,serif" font-size="14.00">PsaState</text>
</g>
<!-- Psa&#45;&gt;PsaState -->
<g id="edge13" class="edge"><title>Psa&#45;&gt;PsaState</title>
<path fill="none" stroke="#8178c0" d="M1258.51,-136.859C1268.33,-111.516 1283.72,-71.7797 1293.87,-45.5624"/>
<ellipse fill="none" stroke="#8178c0" cx="1257.02" cy="-140.703" rx="4.00001" ry="4.00001"/>
<polygon fill="#8178c0" stroke="#8178c0" points="1294,-45.2267 1301.81,-37.5271 1295.81,-40.5642 1297.61,-35.9017 1297.61,-35.9017 1297.61,-35.9017 1295.81,-40.5642 1293.42,-34.2764 1294,-45.2267 1294,-45.2267"/>
</g>
<!-- State -->
<g id="node16" class="node"><title>State</title>
<ellipse fill="none" stroke="black" cx="1333.16" cy="-90" rx="28.3955" ry="18"/>
<text text-anchor="middle" x="1333.16" y="-86.3" font-family="Times,serif" font-size="14.00">State</text>
</g>
<!-- Psa&#45;&gt;State -->
<g id="edge14" class="edge"><title>Psa&#45;&gt;State</title>
<path fill="none" stroke="#5ffea1" d="M1273.13,-141.024C1284.36,-131.668 1297.71,-120.545 1308.96,-111.165"/>
<polygon fill="#5ffea1" stroke="#5ffea1" points="1273.04,-141.101 1262.47,-144.046 1269.2,-144.302 1265.36,-147.503 1265.36,-147.503 1265.36,-147.503 1269.2,-144.302 1268.24,-150.96 1273.04,-141.101 1273.04,-141.101"/>
<polygon fill="#5ffea1" stroke="#5ffea1" points="1309.04,-111.096 1319.61,-108.151 1312.89,-107.895 1316.73,-104.694 1316.73,-104.694 1316.73,-104.694 1312.89,-107.895 1313.85,-101.237 1309.04,-111.096 1309.04,-111.096"/>
</g>
<!-- Region -->
<g id="node14" class="node"><title>Region</title>
<ellipse fill="none" stroke="black" cx="1249.16" cy="-255" rx="37.0701" ry="18"/>
<text text-anchor="middle" x="1249.16" y="-251.3" font-family="Times,serif" font-size="14.00">Region</text>
</g>
<!-- Region&#45;&gt;Psa -->
<g id="edge15" class="edge"><title>Region&#45;&gt;Psa</title>
<path fill="none" stroke="#6b6513" d="M1249.16,-228.729C1249.16,-216.725 1249.16,-202.362 1249.16,-190.129"/>
<ellipse fill="none" stroke="#6b6513" cx="1249.16" cy="-232.884" rx="4" ry="4"/>
<polygon fill="#6b6513" stroke="#6b6513" points="1249.16,-190.04 1253.66,-180.04 1249.16,-185.04 1249.16,-180.04 1249.16,-180.04 1249.16,-180.04 1249.16,-185.04 1244.66,-180.04 1249.16,-190.04 1249.16,-190.04"/>
</g>
<!-- ServiceType -->
<g id="node15" class="node"><title>ServiceType</title>
<ellipse fill="none" stroke="black" cx="852.159" cy="-255" rx="56.3173" ry="18"/>
<text text-anchor="middle" x="852.159" y="-251.3" font-family="Times,serif" font-size="14.00">ServiceType</text>
</g>
<!-- ServiceType&#45;&gt;Vehicle -->
<g id="edge16" class="edge"><title>ServiceType&#45;&gt;Vehicle</title>
<path fill="none" stroke="#9d3c9d" d="M822.233,-234.281C811.242,-227.717 798.47,-220.852 786.159,-216 725.574,-192.124 651.502,-177.372 604.566,-169.677"/>
<ellipse fill="none" stroke="#9d3c9d" cx="825.763" cy="-236.44" rx="4.00002" ry="4.00002"/>
<polygon fill="#9d3c9d" stroke="#9d3c9d" points="604.563,-169.677 595.4,-163.653 599.626,-168.886 594.688,-168.096 594.688,-168.096 594.688,-168.096 599.626,-168.886 593.977,-172.54 604.563,-169.677 604.563,-169.677"/>
</g>
<!-- State&#45;&gt;PsaState -->
<g id="edge17" class="edge"><title>State&#45;&gt;PsaState</title>
<path fill="none" stroke="#84d644" d="M1323.12,-64.7779C1320.54,-58.544 1317.75,-51.8046 1315.12,-45.4634"/>
<ellipse fill="none" stroke="#84d644" cx="1324.76" cy="-68.7155" rx="4.00001" ry="4.00001"/>
<polygon fill="#84d644" stroke="#84d644" points="1315.01,-45.1948 1315.34,-34.2339 1313.1,-40.5755 1311.18,-35.9562 1311.18,-35.9562 1311.18,-35.9562 1313.1,-40.5755 1307.03,-37.6786 1315.01,-45.1948 1315.01,-45.1948"/>
</g>
<!-- Terminal -->
<g id="node17" class="node"><title>Terminal</title>
<ellipse fill="none" stroke="black" cx="181.159" cy="-162" rx="44.2946" ry="18"/>
<text text-anchor="middle" x="181.159" y="-158.3" font-family="Times,serif" font-size="14.00">Terminal</text>
</g>
<!-- Terminal&#45;&gt;Note -->
<g id="edge18" class="edge"><title>Terminal&#45;&gt;Note</title>
<path fill="none" stroke="#0deed7" d="M160.101,-139.322C152.024,-131.008 142.801,-121.514 134.681,-113.155"/>
<ellipse fill="none" stroke="#0deed7" cx="162.942" cy="-142.247" rx="4.00002" ry="4.00002"/>
<polygon fill="#0deed7" stroke="#0deed7" points="134.566,-113.037 130.826,-102.728 131.082,-109.45 127.598,-105.864 127.598,-105.864 127.598,-105.864 131.082,-109.45 124.371,-108.999 134.566,-113.037 134.566,-113.037"/>
</g>
<!-- UserRole -->
<g id="node19" class="node"><title>UserRole</title>
<ellipse fill="none" stroke="black" cx="235.159" cy="-18" rx="44.271" ry="18"/>
<text text-anchor="middle" x="235.159" y="-14.3" font-family="Times,serif" font-size="14.00">UserRole</text>
</g>
<!-- User&#45;&gt;UserRole -->
<g id="edge19" class="edge"><title>User&#45;&gt;UserRole</title>
<path fill="none" stroke="#e09c9a" d="M235.159,-63.6398C235.159,-58.0629 235.159,-52.1319 235.159,-46.4761"/>
<ellipse fill="none" stroke="#e09c9a" cx="235.159" cy="-67.6966" rx="4" ry="4"/>
<polygon fill="#e09c9a" stroke="#e09c9a" points="235.159,-46.1043 239.659,-36.1043 235.159,-41.1043 235.159,-36.1043 235.159,-36.1043 235.159,-36.1043 235.159,-41.1043 230.659,-36.1044 235.159,-46.1043 235.159,-46.1043"/>
</g>
<!-- Vehicle&#45;&gt;DailyDataVehicle -->
<g id="edge20" class="edge"><title>Vehicle&#45;&gt;DailyDataVehicle</title>
<path fill="none" stroke="#f8ca0a" d="M555.985,-135.64C555.507,-130.063 554.999,-124.132 554.514,-118.476"/>
<ellipse fill="none" stroke="#f8ca0a" cx="556.334" cy="-139.711" rx="4" ry="4"/>
<polygon fill="#f8ca0a" stroke="#f8ca0a" points="554.479,-118.068 558.109,-107.72 554.052,-113.086 553.625,-108.104 553.625,-108.104 553.625,-108.104 554.052,-113.086 549.142,-108.489 554.479,-118.068 554.479,-118.068"/>
</g>
<!-- VehicleFuel -->
<g id="node21" class="node"><title>VehicleFuel</title>
<ellipse fill="none" stroke="black" cx="420.159" cy="-255" rx="55.3682" ry="18"/>
<text text-anchor="middle" x="420.159" y="-251.3" font-family="Times,serif" font-size="14.00">VehicleFuel</text>
</g>
<!-- VehicleFuel&#45;&gt;Vehicle -->
<g id="edge21" class="edge"><title>VehicleFuel&#45;&gt;Vehicle</title>
<path fill="none" stroke="#7d9559" d="M450.304,-234.122C473.519,-218.813 505.44,-197.764 528.525,-182.541"/>
<ellipse fill="none" stroke="#7d9559" cx="446.908" cy="-236.361" rx="4.00002" ry="4.00002"/>
<polygon fill="#7d9559" stroke="#7d9559" points="528.556,-182.521 539.381,-180.773 532.73,-179.769 536.904,-177.016 536.904,-177.016 536.904,-177.016 532.73,-179.769 534.427,-173.259 528.556,-182.521 528.556,-182.521"/>
</g>
<!-- VehicleOdometer -->
<g id="node22" class="node"><title>VehicleOdometer</title>
<ellipse fill="none" stroke="black" cx="569.159" cy="-255" rx="75.0904" ry="18"/>
<text text-anchor="middle" x="569.159" y="-251.3" font-family="Times,serif" font-size="14.00">VehicleOdometer</text>
</g>
<!-- VehicleOdometer&#45;&gt;Vehicle -->
<g id="edge22" class="edge"><title>VehicleOdometer&#45;&gt;Vehicle</title>
<path fill="none" stroke="#436988" d="M566.104,-228.729C564.653,-216.725 562.917,-202.362 561.439,-190.129"/>
<ellipse fill="none" stroke="#436988" cx="566.61" cy="-232.913" rx="4.00001" ry="4.00001"/>
<polygon fill="#436988" stroke="#436988" points="561.419,-189.967 564.686,-179.5 560.819,-185.004 560.219,-180.04 560.219,-180.04 560.219,-180.04 560.819,-185.004 555.751,-180.58 561.419,-189.967 561.419,-189.967"/>
</g>
<!-- VehicleType -->
<g id="node23" class="node"><title>VehicleType</title>
<ellipse fill="none" stroke="black" cx="720.159" cy="-255" rx="57.2688" ry="18"/>
<text text-anchor="middle" x="720.159" y="-251.3" font-family="Times,serif" font-size="14.00">VehicleType</text>
</g>
<!-- VehicleType&#45;&gt;Vehicle -->
<g id="edge23" class="edge"><title>VehicleType&#45;&gt;Vehicle</title>
<path fill="none" stroke="#9662c3" d="M686.595,-234.902C675.916,-228.842 664.049,-222.126 653.159,-216 632.459,-204.356 609.172,-191.363 590.835,-181.155"/>
<ellipse fill="none" stroke="#9662c3" cx="690.293" cy="-237.002" rx="4.00002" ry="4.00002"/>
<polygon fill="#9662c3" stroke="#9662c3" points="590.739,-181.102 584.189,-172.308 586.37,-178.671 582.001,-176.24 582.001,-176.24 582.001,-176.24 586.37,-178.671 579.813,-180.173 590.739,-181.102 590.739,-181.102"/>
</g>
<!-- Zip&#45;&gt;Psazip -->
<g id="edge24" class="edge"><title>Zip&#45;&gt;Psazip</title>
<path fill="none" stroke="#8d4aaf" d="M1209.87,-65.0625C1206.84,-58.6325 1203.55,-51.6473 1200.47,-45.106"/>
<ellipse fill="none" stroke="#8d4aaf" cx="1211.63" cy="-68.7929" rx="4.00002" ry="4.00002"/>
<polygon fill="#8d4aaf" stroke="#8d4aaf" points="1200.42,-45.0015 1200.22,-34.0373 1198.28,-40.4788 1196.15,-35.9562 1196.15,-35.9562 1196.15,-35.9562 1198.28,-40.4788 1192.08,-37.8751 1200.42,-45.0015 1200.42,-45.0015"/>
</g>
</g>
</svg>
