<?xml version="1.0" encoding="UTF-8" standalone="no"?>
<!DOCTYPE svg PUBLIC "-//W3C//DTD SVG 1.1//EN"
 "http://www.w3.org/Graphics/SVG/1.1/DTD/svg11.dtd">
<!-- Generated by graphviz version 2.29.20121209.0545 (20121209.0545)
 -->
<!-- Title: models_diagram Pages: 1 -->
<svg width="1531pt" height="786pt"
 viewBox="0.00 0.00 1531.00 786.00" xmlns="http://www.w3.org/2000/svg" xmlns:xlink="http://www.w3.org/1999/xlink">
<g id="graph0" class="graph" transform="scale(1 1) rotate(0) translate(4 782)">
<title>models_diagram</title>
<polygon fill="white" stroke="white" points="-4,5 -4,-782 1528,-782 1528,5 -4,5"/>
<!-- _diagram_info -->
<g id="node1" class="node"><title>_diagram_info</title>
<text text-anchor="start" x="8" y="-711.6" font-family="Times,serif" font-size="13.00">Models diagram</text>
<text text-anchor="start" x="8" y="-697.6" font-family="Times,serif" font-size="13.00">Date: Dec 10 2012 &#45; 04:05</text>
<text text-anchor="start" x="8" y="-683.6" font-family="Times,serif" font-size="13.00">Migration version: 20121210090429</text>
<text text-anchor="start" x="8" y="-669.6" font-family="Times,serif" font-size="13.00">Generated by RailRoady 1.1.0</text>
<text text-anchor="start" x="8" y="-655.6" font-family="Times,serif" font-size="13.00">http://railroady.prestonlee.com</text>
</g>
<!-- Addendum -->
<g id="node2" class="node"><title>Addendum</title>
<path fill="none" stroke="black" d="M745,-355.5C745,-355.5 983,-355.5 983,-355.5 989,-355.5 995,-361.5 995,-367.5 995,-367.5 995,-524.5 995,-524.5 995,-530.5 989,-536.5 983,-536.5 983,-536.5 745,-536.5 745,-536.5 739,-536.5 733,-530.5 733,-524.5 733,-524.5 733,-367.5 733,-367.5 733,-361.5 739,-355.5 745,-355.5"/>
<text text-anchor="middle" x="864" y="-521.3" font-family="Times,serif" font-size="14.00">Addendum</text>
<polyline fill="none" stroke="black" points="733,-513.5 995,-513.5 "/>
<text text-anchor="start" x="741" y="-498.3" font-family="Times,serif" font-size="14.00">id :integer</text>
<text text-anchor="start" x="741" y="-483.3" font-family="Times,serif" font-size="14.00">fedexAddendumName :string</text>
<text text-anchor="start" x="741" y="-468.3" font-family="Times,serif" font-size="14.00">fedexAddendumNumber :integer</text>
<text text-anchor="start" x="741" y="-453.3" font-family="Times,serif" font-size="14.00">fedexContractorAddendumName :string</text>
<text text-anchor="start" x="741" y="-438.3" font-family="Times,serif" font-size="14.00">fedexContractorAddendumNumber :integer</text>
<text text-anchor="start" x="741" y="-423.3" font-family="Times,serif" font-size="14.00">content :text</text>
<text text-anchor="start" x="741" y="-408.3" font-family="Times,serif" font-size="14.00">startDate :datetime</text>
<text text-anchor="start" x="741" y="-393.3" font-family="Times,serif" font-size="14.00">endDate :datetime</text>
<text text-anchor="start" x="741" y="-378.3" font-family="Times,serif" font-size="14.00">created_at :datetime</text>
<text text-anchor="start" x="741" y="-363.3" font-family="Times,serif" font-size="14.00">updated_at :datetime</text>
</g>
<!-- Note -->
<g id="node6" class="node"><title>Note</title>
<path fill="none" stroke="black" d="M551,-144.5C551,-144.5 661,-144.5 661,-144.5 667,-144.5 673,-150.5 673,-156.5 673,-156.5 673,-283.5 673,-283.5 673,-289.5 667,-295.5 661,-295.5 661,-295.5 551,-295.5 551,-295.5 545,-295.5 539,-289.5 539,-283.5 539,-283.5 539,-156.5 539,-156.5 539,-150.5 545,-144.5 551,-144.5"/>
<text text-anchor="middle" x="606" y="-280.3" font-family="Times,serif" font-size="14.00">Note</text>
<polyline fill="none" stroke="black" points="539,-272.5 673,-272.5 "/>
<text text-anchor="start" x="547" y="-257.3" font-family="Times,serif" font-size="14.00">id :integer</text>
<text text-anchor="start" x="547" y="-242.3" font-family="Times,serif" font-size="14.00">notable_id :integer</text>
<text text-anchor="start" x="547" y="-227.3" font-family="Times,serif" font-size="14.00">notable_type :string</text>
<text text-anchor="start" x="547" y="-212.3" font-family="Times,serif" font-size="14.00">content :text</text>
<text text-anchor="start" x="547" y="-197.3" font-family="Times,serif" font-size="14.00">startDate :datetime</text>
<text text-anchor="start" x="547" y="-182.3" font-family="Times,serif" font-size="14.00">endDate :datetime</text>
<text text-anchor="start" x="547" y="-167.3" font-family="Times,serif" font-size="14.00">created_at :datetime</text>
<text text-anchor="start" x="547" y="-152.3" font-family="Times,serif" font-size="14.00">updated_at :datetime</text>
</g>
<!-- Addendum&#45;&gt;Note -->
<g id="edge1" class="edge"><title>Addendum&#45;&gt;Note</title>
<path fill="none" stroke="#083d89" d="M754.313,-349.768C729.532,-328.253 703.779,-305.893 680.822,-285.962"/>
<ellipse fill="none" stroke="#083d89" cx="757.528" cy="-352.559" rx="4.00002" ry="4.00002"/>
<polygon fill="#083d89" stroke="#083d89" points="680.701,-285.857 676.1,-275.903 676.925,-282.579 673.15,-279.301 673.15,-279.301 673.15,-279.301 676.925,-282.579 670.2,-282.699 680.701,-285.857 680.701,-285.857"/>
</g>
<!-- Employee -->
<g id="node3" class="node"><title>Employee</title>
<path fill="none" stroke="black" d="M326.5,-333C326.5,-333 467.5,-333 467.5,-333 473.5,-333 479.5,-339 479.5,-345 479.5,-345 479.5,-547 479.5,-547 479.5,-553 473.5,-559 467.5,-559 467.5,-559 326.5,-559 326.5,-559 320.5,-559 314.5,-553 314.5,-547 314.5,-547 314.5,-345 314.5,-345 314.5,-339 320.5,-333 326.5,-333"/>
<text text-anchor="middle" x="397" y="-543.8" font-family="Times,serif" font-size="14.00">Employee</text>
<polyline fill="none" stroke="black" points="314.5,-536 479.5,-536 "/>
<text text-anchor="start" x="322.5" y="-520.8" font-family="Times,serif" font-size="14.00">id :integer</text>
<text text-anchor="start" x="322.5" y="-505.8" font-family="Times,serif" font-size="14.00">firstName :string</text>
<text text-anchor="start" x="322.5" y="-490.8" font-family="Times,serif" font-size="14.00">lastName :string</text>
<text text-anchor="start" x="322.5" y="-475.8" font-family="Times,serif" font-size="14.00">fedexNumber :integer</text>
<text text-anchor="start" x="322.5" y="-460.8" font-family="Times,serif" font-size="14.00">contractorNumber :integer</text>
<text text-anchor="start" x="322.5" y="-445.8" font-family="Times,serif" font-size="14.00">hireDate :date</text>
<text text-anchor="start" x="322.5" y="-430.8" font-family="Times,serif" font-size="14.00">dateOfBirth :date</text>
<text text-anchor="start" x="322.5" y="-415.8" font-family="Times,serif" font-size="14.00">activeBoolean :boolean</text>
<text text-anchor="start" x="322.5" y="-400.8" font-family="Times,serif" font-size="14.00">startDate :datetime</text>
<text text-anchor="start" x="322.5" y="-385.8" font-family="Times,serif" font-size="14.00">endDate :datetime</text>
<text text-anchor="start" x="322.5" y="-370.8" font-family="Times,serif" font-size="14.00">terminationDate :datetime</text>
<text text-anchor="start" x="322.5" y="-355.8" font-family="Times,serif" font-size="14.00">created_at :datetime</text>
<text text-anchor="start" x="322.5" y="-340.8" font-family="Times,serif" font-size="14.00">updated_at :datetime</text>
</g>
<!-- Employee&#45;&gt;Note -->
<g id="edge2" class="edge"><title>Employee&#45;&gt;Note</title>
<path fill="none" stroke="#e387a5" d="M485.084,-335.171C486.057,-334.106 487.029,-333.048 488,-332 501.506,-317.414 516.549,-302.42 531.251,-288.357"/>
<ellipse fill="none" stroke="#e387a5" cx="482.181" cy="-338.386" rx="4.00002" ry="4.00002"/>
<polygon fill="#e387a5" stroke="#e387a5" points="531.647,-287.981 541.997,-284.357 535.272,-284.538 538.898,-281.094 538.898,-281.094 538.898,-281.094 535.272,-284.538 535.799,-277.831 531.647,-287.981 531.647,-287.981"/>
</g>
<!-- User -->
<g id="node13" class="node"><title>User</title>
<path fill="none" stroke="black" d="M197,-159.5C197,-159.5 345,-159.5 345,-159.5 351,-159.5 357,-165.5 357,-171.5 357,-171.5 357,-268.5 357,-268.5 357,-274.5 351,-280.5 345,-280.5 345,-280.5 197,-280.5 197,-280.5 191,-280.5 185,-274.5 185,-268.5 185,-268.5 185,-171.5 185,-171.5 185,-165.5 191,-159.5 197,-159.5"/>
<text text-anchor="middle" x="271" y="-265.3" font-family="Times,serif" font-size="14.00">User</text>
<polyline fill="none" stroke="black" points="185,-257.5 357,-257.5 "/>
<text text-anchor="start" x="193" y="-242.3" font-family="Times,serif" font-size="14.00">id :integer</text>
<text text-anchor="start" x="193" y="-227.3" font-family="Times,serif" font-size="14.00">contractorBoolean :boolean</text>
<text text-anchor="start" x="193" y="-212.3" font-family="Times,serif" font-size="14.00">activeBoolean :boolean</text>
<text text-anchor="start" x="193" y="-197.3" font-family="Times,serif" font-size="14.00">employee_id :integer</text>
<text text-anchor="start" x="193" y="-182.3" font-family="Times,serif" font-size="14.00">created_at :datetime</text>
<text text-anchor="start" x="193" y="-167.3" font-family="Times,serif" font-size="14.00">updated_at :datetime</text>
</g>
<!-- Employee&#45;&gt;User -->
<g id="edge3" class="edge"><title>Employee&#45;&gt;User</title>
<path fill="none" stroke="#774492" d="M329.781,-325.5C322.452,-312.47 315.198,-299.575 308.421,-287.526"/>
<ellipse fill="none" stroke="#774492" cx="331.854" cy="-329.186" rx="4.00002" ry="4.00002"/>
<ellipse fill="#774492" stroke="#774492" cx="306.449" cy="-284.021" rx="4.00002" ry="4.00002"/>
</g>
<!-- EmployeePsa -->
<g id="node4" class="node"><title>EmployeePsa</title>
<path fill="none" stroke="black" d="M632,-611.5C632,-611.5 756,-611.5 756,-611.5 762,-611.5 768,-617.5 768,-623.5 768,-623.5 768,-750.5 768,-750.5 768,-756.5 762,-762.5 756,-762.5 756,-762.5 632,-762.5 632,-762.5 626,-762.5 620,-756.5 620,-750.5 620,-750.5 620,-623.5 620,-623.5 620,-617.5 626,-611.5 632,-611.5"/>
<text text-anchor="middle" x="694" y="-747.3" font-family="Times,serif" font-size="14.00">EmployeePsa</text>
<polyline fill="none" stroke="black" points="620,-739.5 768,-739.5 "/>
<text text-anchor="start" x="628" y="-724.3" font-family="Times,serif" font-size="14.00">id :integer</text>
<text text-anchor="start" x="628" y="-709.3" font-family="Times,serif" font-size="14.00">startDate :datetime</text>
<text text-anchor="start" x="628" y="-694.3" font-family="Times,serif" font-size="14.00">endDate :datetime</text>
<text text-anchor="start" x="628" y="-679.3" font-family="Times,serif" font-size="14.00">activeBoolean :boolean</text>
<text text-anchor="start" x="628" y="-664.3" font-family="Times,serif" font-size="14.00">employee_id :integer</text>
<text text-anchor="start" x="628" y="-649.3" font-family="Times,serif" font-size="14.00">psa_id :integer</text>
<text text-anchor="start" x="628" y="-634.3" font-family="Times,serif" font-size="14.00">created_at :datetime</text>
<text text-anchor="start" x="628" y="-619.3" font-family="Times,serif" font-size="14.00">updated_at :datetime</text>
</g>
<!-- FedexContract -->
<g id="node5" class="node"><title>FedexContract</title>
<path fill="none" stroke="black" d="M238,-596.5C238,-596.5 428,-596.5 428,-596.5 434,-596.5 440,-602.5 440,-608.5 440,-608.5 440,-765.5 440,-765.5 440,-771.5 434,-777.5 428,-777.5 428,-777.5 238,-777.5 238,-777.5 232,-777.5 226,-771.5 226,-765.5 226,-765.5 226,-608.5 226,-608.5 226,-602.5 232,-596.5 238,-596.5"/>
<text text-anchor="middle" x="333" y="-762.3" font-family="Times,serif" font-size="14.00">FedexContract</text>
<polyline fill="none" stroke="black" points="226,-754.5 440,-754.5 "/>
<text text-anchor="start" x="234" y="-739.3" font-family="Times,serif" font-size="14.00">id :integer</text>
<text text-anchor="start" x="234" y="-724.3" font-family="Times,serif" font-size="14.00">fedexContractName :string</text>
<text text-anchor="start" x="234" y="-709.3" font-family="Times,serif" font-size="14.00">fedexContractNumber :integer</text>
<text text-anchor="start" x="234" y="-694.3" font-family="Times,serif" font-size="14.00">contractorContractName :string</text>
<text text-anchor="start" x="234" y="-679.3" font-family="Times,serif" font-size="14.00">contractorContractNumber :integer</text>
<text text-anchor="start" x="234" y="-664.3" font-family="Times,serif" font-size="14.00">content :text</text>
<text text-anchor="start" x="234" y="-649.3" font-family="Times,serif" font-size="14.00">startDate :datetime</text>
<text text-anchor="start" x="234" y="-634.3" font-family="Times,serif" font-size="14.00">endDate :datetime</text>
<text text-anchor="start" x="234" y="-619.3" font-family="Times,serif" font-size="14.00">created_at :datetime</text>
<text text-anchor="start" x="234" y="-604.3" font-family="Times,serif" font-size="14.00">updated_at :datetime</text>
</g>
<!-- FedexContract&#45;&gt;Employee -->
<g id="edge4" class="edge"><title>FedexContract&#45;&gt;Employee</title>
<path fill="none" stroke="#3c852c" d="M359.147,-588.359C360.824,-582.095 362.523,-575.748 364.226,-569.391"/>
<ellipse fill="none" stroke="#3c852c" cx="358.048" cy="-592.461" rx="4.00001" ry="4.00001"/>
<polygon fill="#3c852c" stroke="#3c852c" points="364.314,-569.062 371.248,-560.566 365.607,-564.232 366.901,-559.402 366.901,-559.402 366.901,-559.402 365.607,-564.232 362.554,-558.238 364.314,-569.062 364.314,-569.062"/>
</g>
<!-- Psa -->
<g id="node16" class="node"><title>Psa</title>
<ellipse fill="none" stroke="black" cx="269" cy="-446" rx="27" ry="18"/>
<text text-anchor="middle" x="269" y="-442.3" font-family="Times,serif" font-size="14.00">Psa</text>
</g>
<!-- FedexContract&#45;&gt;Psa -->
<g id="edge5" class="edge"><title>FedexContract&#45;&gt;Psa</title>
<path fill="none" stroke="#74b0a7" d="M306.896,-588.518C295.725,-546.803 283.562,-501.381 276.107,-473.542"/>
<ellipse fill="none" stroke="#74b0a7" cx="307.952" cy="-592.461" rx="4.00001" ry="4.00001"/>
<polygon fill="#74b0a7" stroke="#74b0a7" points="276.08,-473.437 277.84,-462.614 274.786,-468.608 273.493,-463.778 273.493,-463.778 273.493,-463.778 274.786,-468.608 269.146,-464.942 276.08,-473.437 276.08,-473.437"/>
</g>
<!-- PsaState -->
<g id="node7" class="node"><title>PsaState</title>
<path fill="none" stroke="black" d="M1025,-393C1025,-393 1135,-393 1135,-393 1141,-393 1147,-399 1147,-405 1147,-405 1147,-487 1147,-487 1147,-493 1141,-499 1135,-499 1135,-499 1025,-499 1025,-499 1019,-499 1013,-493 1013,-487 1013,-487 1013,-405 1013,-405 1013,-399 1019,-393 1025,-393"/>
<text text-anchor="middle" x="1080" y="-483.8" font-family="Times,serif" font-size="14.00">PsaState</text>
<polyline fill="none" stroke="black" points="1013,-476 1147,-476 "/>
<text text-anchor="start" x="1021" y="-460.8" font-family="Times,serif" font-size="14.00">id :integer</text>
<text text-anchor="start" x="1021" y="-445.8" font-family="Times,serif" font-size="14.00">psa_id :integer</text>
<text text-anchor="start" x="1021" y="-430.8" font-family="Times,serif" font-size="14.00">state_id :integer</text>
<text text-anchor="start" x="1021" y="-415.8" font-family="Times,serif" font-size="14.00">created_at :datetime</text>
<text text-anchor="start" x="1021" y="-400.8" font-family="Times,serif" font-size="14.00">updated_at :datetime</text>
</g>
<!-- Psazip -->
<g id="node8" class="node"><title>Psazip</title>
<path fill="none" stroke="black" d="M1177,-393C1177,-393 1287,-393 1287,-393 1293,-393 1299,-399 1299,-405 1299,-405 1299,-487 1299,-487 1299,-493 1293,-499 1287,-499 1287,-499 1177,-499 1177,-499 1171,-499 1165,-493 1165,-487 1165,-487 1165,-405 1165,-405 1165,-399 1171,-393 1177,-393"/>
<text text-anchor="middle" x="1232" y="-483.8" font-family="Times,serif" font-size="14.00">Psazip</text>
<polyline fill="none" stroke="black" points="1165,-476 1299,-476 "/>
<text text-anchor="start" x="1173" y="-460.8" font-family="Times,serif" font-size="14.00">id :integer</text>
<text text-anchor="start" x="1173" y="-445.8" font-family="Times,serif" font-size="14.00">psa_id :integer</text>
<text text-anchor="start" x="1173" y="-430.8" font-family="Times,serif" font-size="14.00">zip_id :integer</text>
<text text-anchor="start" x="1173" y="-415.8" font-family="Times,serif" font-size="14.00">created_at :datetime</text>
<text text-anchor="start" x="1173" y="-400.8" font-family="Times,serif" font-size="14.00">updated_at :datetime</text>
</g>
<!-- Region -->
<g id="node9" class="node"><title>Region</title>
<path fill="none" stroke="black" d="M1329,-611.5C1329,-611.5 1511,-611.5 1511,-611.5 1517,-611.5 1523,-617.5 1523,-623.5 1523,-623.5 1523,-750.5 1523,-750.5 1523,-756.5 1517,-762.5 1511,-762.5 1511,-762.5 1329,-762.5 1329,-762.5 1323,-762.5 1317,-756.5 1317,-750.5 1317,-750.5 1317,-623.5 1317,-623.5 1317,-617.5 1323,-611.5 1329,-611.5"/>
<text text-anchor="middle" x="1420" y="-747.3" font-family="Times,serif" font-size="14.00">Region</text>
<polyline fill="none" stroke="black" points="1317,-739.5 1523,-739.5 "/>
<text text-anchor="start" x="1325" y="-724.3" font-family="Times,serif" font-size="14.00">id :integer</text>
<text text-anchor="start" x="1325" y="-709.3" font-family="Times,serif" font-size="14.00">fedexRegionName :string</text>
<text text-anchor="start" x="1325" y="-694.3" font-family="Times,serif" font-size="14.00">fedexRegionNumber :integer</text>
<text text-anchor="start" x="1325" y="-679.3" font-family="Times,serif" font-size="14.00">fedexRegionPhone :string</text>
<text text-anchor="start" x="1325" y="-664.3" font-family="Times,serif" font-size="14.00">contractorRegionName :string</text>
<text text-anchor="start" x="1325" y="-649.3" font-family="Times,serif" font-size="14.00">contractorRegionNumber :integer</text>
<text text-anchor="start" x="1325" y="-634.3" font-family="Times,serif" font-size="14.00">created_at :datetime</text>
<text text-anchor="start" x="1325" y="-619.3" font-family="Times,serif" font-size="14.00">updated_at :datetime</text>
</g>
<!-- Role -->
<g id="node10" class="node"><title>Role</title>
<path fill="none" stroke="black" d="M102,-400.5C102,-400.5 212,-400.5 212,-400.5 218,-400.5 224,-406.5 224,-412.5 224,-412.5 224,-479.5 224,-479.5 224,-485.5 218,-491.5 212,-491.5 212,-491.5 102,-491.5 102,-491.5 96,-491.5 90,-485.5 90,-479.5 90,-479.5 90,-412.5 90,-412.5 90,-406.5 96,-400.5 102,-400.5"/>
<text text-anchor="middle" x="157" y="-476.3" font-family="Times,serif" font-size="14.00">Role</text>
<polyline fill="none" stroke="black" points="90,-468.5 224,-468.5 "/>
<text text-anchor="start" x="98" y="-453.3" font-family="Times,serif" font-size="14.00">id :integer</text>
<text text-anchor="start" x="98" y="-438.3" font-family="Times,serif" font-size="14.00">name :string</text>
<text text-anchor="start" x="98" y="-423.3" font-family="Times,serif" font-size="14.00">created_at :datetime</text>
<text text-anchor="start" x="98" y="-408.3" font-family="Times,serif" font-size="14.00">updated_at :datetime</text>
</g>
<!-- UserRole -->
<g id="node14" class="node"><title>UserRole</title>
<path fill="none" stroke="black" d="M159,-1C159,-1 269,-1 269,-1 275,-1 281,-7 281,-13 281,-13 281,-95 281,-95 281,-101 275,-107 269,-107 269,-107 159,-107 159,-107 153,-107 147,-101 147,-95 147,-95 147,-13 147,-13 147,-7 153,-1 159,-1"/>
<text text-anchor="middle" x="214" y="-91.8" font-family="Times,serif" font-size="14.00">UserRole</text>
<polyline fill="none" stroke="black" points="147,-84 281,-84 "/>
<text text-anchor="start" x="155" y="-68.8" font-family="Times,serif" font-size="14.00">id :integer</text>
<text text-anchor="start" x="155" y="-53.8" font-family="Times,serif" font-size="14.00">user_id :integer</text>
<text text-anchor="start" x="155" y="-38.8" font-family="Times,serif" font-size="14.00">role_id :integer</text>
<text text-anchor="start" x="155" y="-23.8" font-family="Times,serif" font-size="14.00">created_at :datetime</text>
<text text-anchor="start" x="155" y="-8.8" font-family="Times,serif" font-size="14.00">updated_at :datetime</text>
</g>
<!-- Role&#45;&gt;UserRole -->
<g id="edge6" class="edge"><title>Role&#45;&gt;UserRole</title>
<path fill="none" stroke="#d0b75e" d="M154.966,-392.153C153.856,-331.414 155.768,-229.145 176,-144 178.162,-134.901 181.18,-125.552 184.581,-116.49"/>
<ellipse fill="none" stroke="#d0b75e" cx="155.056" cy="-396.443" rx="4" ry="4"/>
<polygon fill="#d0b75e" stroke="#d0b75e" points="184.584,-116.481 192.43,-108.82 186.413,-111.828 188.242,-107.174 188.242,-107.174 188.242,-107.174 186.413,-111.828 184.054,-105.528 184.584,-116.481 184.584,-116.481"/>
</g>
<!-- Role&#45;&gt;User -->
<g id="edge7" class="edge"><title>Role&#45;&gt;User</title>
<path fill="none" stroke="#424191" d="M184.307,-391.345C199.811,-360.88 219.383,-322.424 236.005,-289.763"/>
<polygon fill="#424191" stroke="#424191" points="184.195,-391.565 175.649,-398.436 181.927,-396.021 179.659,-400.477 179.659,-400.477 179.659,-400.477 181.927,-396.021 183.67,-402.518 184.195,-391.565 184.195,-391.565"/>
<polygon fill="#424191" stroke="#424191" points="236.073,-289.628 244.619,-282.757 238.341,-285.172 240.609,-280.716 240.609,-280.716 240.609,-280.716 238.341,-285.172 236.598,-278.675 236.073,-289.628 236.073,-289.628"/>
</g>
<!-- State -->
<g id="node11" class="node"><title>State</title>
<path fill="none" stroke="black" d="M1025,-626.5C1025,-626.5 1135,-626.5 1135,-626.5 1141,-626.5 1147,-632.5 1147,-638.5 1147,-638.5 1147,-735.5 1147,-735.5 1147,-741.5 1141,-747.5 1135,-747.5 1135,-747.5 1025,-747.5 1025,-747.5 1019,-747.5 1013,-741.5 1013,-735.5 1013,-735.5 1013,-638.5 1013,-638.5 1013,-632.5 1019,-626.5 1025,-626.5"/>
<text text-anchor="middle" x="1080" y="-732.3" font-family="Times,serif" font-size="14.00">State</text>
<polyline fill="none" stroke="black" points="1013,-724.5 1147,-724.5 "/>
<text text-anchor="start" x="1021" y="-709.3" font-family="Times,serif" font-size="14.00">id :integer</text>
<text text-anchor="start" x="1021" y="-694.3" font-family="Times,serif" font-size="14.00">state :string</text>
<text text-anchor="start" x="1021" y="-679.3" font-family="Times,serif" font-size="14.00">abbreviation :string</text>
<text text-anchor="start" x="1021" y="-664.3" font-family="Times,serif" font-size="14.00">psa_id :integer</text>
<text text-anchor="start" x="1021" y="-649.3" font-family="Times,serif" font-size="14.00">created_at :datetime</text>
<text text-anchor="start" x="1021" y="-634.3" font-family="Times,serif" font-size="14.00">updated_at :datetime</text>
</g>
<!-- State&#45;&gt;PsaState -->
<g id="edge8" class="edge"><title>State&#45;&gt;PsaState</title>
<path fill="none" stroke="#7f4e71" d="M1080,-617.891C1080,-583.661 1080,-542.483 1080,-509.125"/>
<ellipse fill="none" stroke="#7f4e71" cx="1080" cy="-622.307" rx="4" ry="4"/>
<polygon fill="#7f4e71" stroke="#7f4e71" points="1080,-509.04 1084.5,-499.04 1080,-504.04 1080,-499.04 1080,-499.04 1080,-499.04 1080,-504.04 1075.5,-499.04 1080,-509.04 1080,-509.04"/>
</g>
<!-- Terminal -->
<g id="node12" class="node"><title>Terminal</title>
<path fill="none" stroke="black" d="M509.5,-370.5C509.5,-370.5 702.5,-370.5 702.5,-370.5 708.5,-370.5 714.5,-376.5 714.5,-382.5 714.5,-382.5 714.5,-509.5 714.5,-509.5 714.5,-515.5 708.5,-521.5 702.5,-521.5 702.5,-521.5 509.5,-521.5 509.5,-521.5 503.5,-521.5 497.5,-515.5 497.5,-509.5 497.5,-509.5 497.5,-382.5 497.5,-382.5 497.5,-376.5 503.5,-370.5 509.5,-370.5"/>
<text text-anchor="middle" x="606" y="-506.3" font-family="Times,serif" font-size="14.00">Terminal</text>
<polyline fill="none" stroke="black" points="497.5,-498.5 714.5,-498.5 "/>
<text text-anchor="start" x="505.5" y="-483.3" font-family="Times,serif" font-size="14.00">id :integer</text>
<text text-anchor="start" x="505.5" y="-468.3" font-family="Times,serif" font-size="14.00">fedexTerminalName :string</text>
<text text-anchor="start" x="505.5" y="-453.3" font-family="Times,serif" font-size="14.00">fedexTerminalNumber :integer</text>
<text text-anchor="start" x="505.5" y="-438.3" font-family="Times,serif" font-size="14.00">contractorTerminalName :string</text>
<text text-anchor="start" x="505.5" y="-423.3" font-family="Times,serif" font-size="14.00">contractorTerminalNumber :integer</text>
<text text-anchor="start" x="505.5" y="-408.3" font-family="Times,serif" font-size="14.00">colocationBoolean :boolean</text>
<text text-anchor="start" x="505.5" y="-393.3" font-family="Times,serif" font-size="14.00">created_at :datetime</text>
<text text-anchor="start" x="505.5" y="-378.3" font-family="Times,serif" font-size="14.00">updated_at :datetime</text>
</g>
<!-- Terminal&#45;&gt;Note -->
<g id="edge9" class="edge"><title>Terminal&#45;&gt;Note</title>
<path fill="none" stroke="#630864" d="M606,-362.144C606,-343.757 606,-324.243 606,-305.78"/>
<ellipse fill="none" stroke="#630864" cx="606" cy="-366.411" rx="4" ry="4"/>
<polygon fill="#630864" stroke="#630864" points="606,-305.645 610.5,-295.645 606,-300.645 606,-295.645 606,-295.645 606,-295.645 606,-300.645 601.5,-295.645 606,-305.645 606,-305.645"/>
</g>
<!-- User&#45;&gt;UserRole -->
<g id="edge10" class="edge"><title>User&#45;&gt;UserRole</title>
<path fill="none" stroke="#049e97" d="M247.581,-151.62C243.541,-139.996 239.361,-127.968 235.379,-116.51"/>
<ellipse fill="none" stroke="#049e97" cx="248.947" cy="-155.55" rx="4.00001" ry="4.00001"/>
<polygon fill="#049e97" stroke="#049e97" points="235.371,-116.487 236.338,-105.564 233.729,-111.764 232.087,-107.041 232.087,-107.041 232.087,-107.041 233.729,-111.764 227.837,-108.518 235.371,-116.487 235.371,-116.487"/>
</g>
<!-- Zip -->
<g id="node15" class="node"><title>Zip</title>
<path fill="none" stroke="black" d="M1177,-634C1177,-634 1287,-634 1287,-634 1293,-634 1299,-640 1299,-646 1299,-646 1299,-728 1299,-728 1299,-734 1293,-740 1287,-740 1287,-740 1177,-740 1177,-740 1171,-740 1165,-734 1165,-728 1165,-728 1165,-646 1165,-646 1165,-640 1171,-634 1177,-634"/>
<text text-anchor="middle" x="1232" y="-724.8" font-family="Times,serif" font-size="14.00">Zip</text>
<polyline fill="none" stroke="black" points="1165,-717 1299,-717 "/>
<text text-anchor="start" x="1173" y="-701.8" font-family="Times,serif" font-size="14.00">id :integer</text>
<text text-anchor="start" x="1173" y="-686.8" font-family="Times,serif" font-size="14.00">zip :string</text>
<text text-anchor="start" x="1173" y="-671.8" font-family="Times,serif" font-size="14.00">psa_id :integer</text>
<text text-anchor="start" x="1173" y="-656.8" font-family="Times,serif" font-size="14.00">created_at :datetime</text>
<text text-anchor="start" x="1173" y="-641.8" font-family="Times,serif" font-size="14.00">updated_at :datetime</text>
</g>
<!-- Zip&#45;&gt;Psazip -->
<g id="edge11" class="edge"><title>Zip&#45;&gt;Psazip</title>
<path fill="none" stroke="#439fd3" d="M1232,-625.695C1232,-590.16 1232,-545.283 1232,-509.391"/>
<ellipse fill="none" stroke="#439fd3" cx="1232" cy="-629.846" rx="4" ry="4"/>
<polygon fill="#439fd3" stroke="#439fd3" points="1232,-509.043 1236.5,-499.043 1232,-504.043 1232,-499.043 1232,-499.043 1232,-499.043 1232,-504.043 1227.5,-499.043 1232,-509.043 1232,-509.043"/>
</g>
</g>
</svg>
