<?xml version="1.0" encoding="UTF-8" standalone="no"?>
<!DOCTYPE svg PUBLIC "-//W3C//DTD SVG 1.1//EN"
 "http://www.w3.org/Graphics/SVG/1.1/DTD/svg11.dtd">
<!-- Generated by graphviz version 2.29.20121209.0545 (20121209.0545)
 -->
<!-- Title: models_diagram Pages: 1 -->
<svg width="1776pt" height="446pt"
 viewBox="0.00 0.00 1775.95 446.00" xmlns="http://www.w3.org/2000/svg" xmlns:xlink="http://www.w3.org/1999/xlink">
<g id="graph0" class="graph" transform="scale(1 1) rotate(0) translate(4 442)">
<title>models_diagram</title>
<polygon fill="white" stroke="white" points="-4,5 -4,-442 1772.95,-442 1772.95,5 -4,5"/>
<!-- _diagram_info -->
<g id="node1" class="node"><title>_diagram_info</title>
<text text-anchor="start" x="553.954" y="-423.6" font-family="Times,serif" font-size="13.00">Models diagram</text>
<text text-anchor="start" x="553.954" y="-409.6" font-family="Times,serif" font-size="13.00">Date: Dec 14 2012 &#45; 14:09</text>
<text text-anchor="start" x="553.954" y="-395.6" font-family="Times,serif" font-size="13.00">Migration version: 20121214184600</text>
<text text-anchor="start" x="553.954" y="-381.6" font-family="Times,serif" font-size="13.00">Generated by RailRoady 1.1.0</text>
<text text-anchor="start" x="553.954" y="-367.6" font-family="Times,serif" font-size="13.00">http://railroady.prestonlee.com</text>
</g>
<!-- Addendum -->
<g id="node2" class="node"><title>Addendum</title>
<ellipse fill="none" stroke="black" cx="835.954" cy="-234" rx="51.0191" ry="18"/>
<text text-anchor="middle" x="835.954" y="-230.3" font-family="Times,serif" font-size="14.00">Addendum</text>
</g>
<!-- Note -->
<g id="node13" class="node"><title>Note</title>
<ellipse fill="none" stroke="black" cx="919.954" cy="-18" rx="28.3955" ry="18"/>
<text text-anchor="middle" x="919.954" y="-14.3" font-family="Times,serif" font-size="14.00">Note</text>
</g>
<!-- Addendum&#45;&gt;Note -->
<g id="edge1" class="edge"><title>Addendum&#45;&gt;Note</title>
<path fill="none" stroke="#b0e375" d="M802.776,-213.716C791.098,-205.038 779.308,-193.648 772.954,-180 766.202,-165.495 766.24,-158.523 772.954,-144 796.764,-92.4998 853.41,-54.4314 889.024,-34.5635"/>
<ellipse fill="none" stroke="#b0e375" cx="806.324" cy="-216.21" rx="4.00002" ry="4.00002"/>
<polygon fill="#b0e375" stroke="#b0e375" points="889.239,-34.4464 900.175,-33.6318 893.634,-32.0616 898.029,-29.6767 898.029,-29.6767 898.029,-29.6767 893.634,-32.0616 895.882,-25.7215 889.239,-34.4464 889.239,-34.4464"/>
</g>
<!-- Business -->
<g id="node3" class="node"><title>Business</title>
<ellipse fill="none" stroke="black" cx="979.954" cy="-306" rx="42.3456" ry="18"/>
<text text-anchor="middle" x="979.954" y="-302.3" font-family="Times,serif" font-size="14.00">Business</text>
</g>
<!-- Business&#45;&gt;Note -->
<g id="edge2" class="edge"><title>Business&#45;&gt;Note</title>
<path fill="none" stroke="#2ea572" d="M978.524,-279.555C976.369,-247.598 971.377,-191.23 960.954,-144 953.254,-109.109 939.654,-70.1803 930.24,-45.1791"/>
<ellipse fill="none" stroke="#2ea572" cx="978.802" cy="-283.901" rx="4" ry="4"/>
<polygon fill="#2ea572" stroke="#2ea572" points="930.182,-45.0272 930.818,-34.0798 928.398,-40.3564 926.614,-35.6855 926.614,-35.6855 926.614,-35.6855 928.398,-40.3564 922.41,-37.2912 930.182,-45.0272 930.182,-45.0272"/>
</g>
<!-- Psa -->
<g id="node14" class="node"><title>Psa</title>
<ellipse fill="none" stroke="black" cx="1553.95" cy="-162" rx="27" ry="18"/>
<text text-anchor="middle" x="1553.95" y="-158.3" font-family="Times,serif" font-size="14.00">Psa</text>
</g>
<!-- Business&#45;&gt;Psa -->
<g id="edge3" class="edge"><title>Business&#45;&gt;Psa</title>
<path fill="none" stroke="#ad5771" d="M1030.52,-303.533C1160.32,-299.303 1497.7,-285.198 1534.95,-252 1552.05,-236.765 1555.88,-210.249 1555.98,-190.112"/>
<ellipse fill="none" stroke="#ad5771" cx="1026.27" cy="-303.669" rx="4" ry="4"/>
<polygon fill="#ad5771" stroke="#ad5771" points="1555.98,-189.972 1560.23,-179.864 1555.86,-184.974 1555.73,-179.975 1555.73,-179.975 1555.73,-179.975 1555.86,-184.974 1551.23,-180.086 1555.98,-189.972 1555.98,-189.972"/>
</g>
<!-- Employee -->
<g id="node9" class="node"><title>Employee</title>
<ellipse fill="none" stroke="black" cx="1183.95" cy="-234" rx="47.169" ry="18"/>
<text text-anchor="middle" x="1183.95" y="-230.3" font-family="Times,serif" font-size="14.00">Employee</text>
</g>
<!-- Business&#45;&gt;Employee -->
<g id="edge4" class="edge"><title>Business&#45;&gt;Employee</title>
<path fill="none" stroke="#0864d1" d="M1019.62,-291.39C1054.26,-279.504 1104.45,-262.281 1140.24,-250.001"/>
<ellipse fill="none" stroke="#0864d1" cx="1015.61" cy="-292.764" rx="4.00001" ry="4.00001"/>
<polygon fill="#0864d1" stroke="#0864d1" points="1140.47,-249.923 1151.38,-250.933 1145.19,-248.3 1149.92,-246.677 1149.92,-246.677 1149.92,-246.677 1145.19,-248.3 1148.46,-242.421 1140.47,-249.923 1140.47,-249.923"/>
</g>
<!-- Vehicle -->
<g id="node24" class="node"><title>Vehicle</title>
<ellipse fill="none" stroke="black" cx="253.954" cy="-234" rx="38.4949" ry="18"/>
<text text-anchor="middle" x="253.954" y="-230.3" font-family="Times,serif" font-size="14.00">Vehicle</text>
</g>
<!-- Business&#45;&gt;Vehicle -->
<g id="edge5" class="edge"><title>Business&#45;&gt;Vehicle</title>
<path fill="none" stroke="#ec903f" d="M930.864,-300.267C798.067,-287.463 432.944,-252.258 301.714,-239.605"/>
<ellipse fill="none" stroke="#ec903f" cx="935.122" cy="-300.677" rx="4" ry="4"/>
<polygon fill="#ec903f" stroke="#ec903f" points="301.53,-239.587 292.008,-234.148 296.553,-239.107 291.576,-238.627 291.576,-238.627 291.576,-238.627 296.553,-239.107 291.144,-243.107 301.53,-239.587 301.53,-239.587"/>
</g>
<!-- DailyDataDeliveryException -->
<g id="node4" class="node"><title>DailyDataDeliveryException</title>
<ellipse fill="none" stroke="black" cx="608.954" cy="-162" rx="116.484" ry="18"/>
<text text-anchor="middle" x="608.954" y="-158.3" font-family="Times,serif" font-size="14.00">DailyDataDeliveryException</text>
</g>
<!-- DailyDataDeliveryException&#45;&gt;Note -->
<g id="edge6" class="edge"><title>DailyDataDeliveryException&#45;&gt;Note</title>
<path fill="none" stroke="#687264" d="M635.978,-138.928C661.458,-119.048 701.39,-90.2286 739.954,-72 787.201,-49.6675 845.915,-34.5121 883.173,-26.3083"/>
<ellipse fill="none" stroke="#687264" cx="632.646" cy="-141.554" rx="4.00002" ry="4.00002"/>
<polygon fill="#687264" stroke="#687264" points="883.308,-26.2793 894.031,-28.5781 888.197,-25.2289 893.085,-24.1785 893.085,-24.1785 893.085,-24.1785 888.197,-25.2289 892.14,-19.7789 883.308,-26.2793 883.308,-26.2793"/>
</g>
<!-- DailyDataEmployee -->
<g id="node5" class="node"><title>DailyDataEmployee</title>
<ellipse fill="none" stroke="black" cx="866.954" cy="-162" rx="85.2138" ry="18"/>
<text text-anchor="middle" x="866.954" y="-158.3" font-family="Times,serif" font-size="14.00">DailyDataEmployee</text>
</g>
<!-- DailyDataEmployee&#45;&gt;Note -->
<g id="edge7" class="edge"><title>DailyDataEmployee&#45;&gt;Note</title>
<path fill="none" stroke="#1bd830" d="M876.191,-136.253C885.687,-110.81 900.421,-71.3359 910.127,-45.3289"/>
<ellipse fill="none" stroke="#1bd830" cx="874.746" cy="-140.124" rx="4.00001" ry="4.00001"/>
<polygon fill="#1bd830" stroke="#1bd830" points="910.206,-45.117 917.919,-37.3219 911.955,-40.4327 913.703,-35.7483 913.703,-35.7483 913.703,-35.7483 911.955,-40.4327 909.487,-34.1747 910.206,-45.117 910.206,-45.117"/>
</g>
<!-- DailyDataVehicle -->
<g id="node6" class="node"><title>DailyDataVehicle</title>
<ellipse fill="none" stroke="black" cx="396.954" cy="-162" rx="76.5394" ry="18"/>
<text text-anchor="middle" x="396.954" y="-158.3" font-family="Times,serif" font-size="14.00">DailyDataVehicle</text>
</g>
<!-- DailyDataVehicle&#45;&gt;Note -->
<g id="edge8" class="edge"><title>DailyDataVehicle&#45;&gt;Note</title>
<path fill="none" stroke="#0fc03b" d="M445.607,-143.93C500.956,-124.874 594.265,-93.8486 675.954,-72 748.716,-52.5393 835.108,-35.0805 883.111,-25.8708"/>
<ellipse fill="none" stroke="#0fc03b" cx="441.503" cy="-145.347" rx="4.00001" ry="4.00001"/>
<polygon fill="#0fc03b" stroke="#0fc03b" points="883.214,-25.8513 893.879,-28.3996 888.125,-24.9152 893.037,-23.9792 893.037,-23.9792 893.037,-23.9792 888.125,-24.9152 892.194,-19.5587 883.214,-25.8513 883.214,-25.8513"/>
</g>
<!-- DailyDatum -->
<g id="node7" class="node"><title>DailyDatum</title>
<ellipse fill="none" stroke="black" cx="649.954" cy="-306" rx="55.3436" ry="18"/>
<text text-anchor="middle" x="649.954" y="-302.3" font-family="Times,serif" font-size="14.00">DailyDatum</text>
</g>
<!-- DailyDatum&#45;&gt;Note -->
<g id="edge9" class="edge"><title>DailyDatum&#45;&gt;Note</title>
<path fill="none" stroke="#39a0c3" d="M602.786,-290.952C513.678,-263.942 327.953,-205.212 310.954,-180 302.01,-166.734 301.36,-156.804 310.954,-144 380.208,-51.5712 759.285,-26.3217 881.77,-20.5255"/>
<ellipse fill="none" stroke="#39a0c3" cx="606.754" cy="-292.151" rx="4.00001" ry="4.00001"/>
<polygon fill="#39a0c3" stroke="#39a0c3" points="881.822,-20.5232 892.017,-24.5624 886.817,-20.2952 891.812,-20.0671 891.812,-20.0671 891.812,-20.0671 886.817,-20.2952 891.606,-15.5718 881.822,-20.5232 881.822,-20.5232"/>
</g>
<!-- DailyDatum&#45;&gt;DailyDataVehicle -->
<g id="edge10" class="edge"><title>DailyDatum&#45;&gt;DailyDataVehicle</title>
<path fill="none" stroke="#33e5c6" d="M615.57,-286.412C596.985,-276.315 573.663,-263.563 552.954,-252 511.822,-229.032 464.904,-202.175 433.357,-184.019"/>
<ellipse fill="none" stroke="#33e5c6" cx="619.188" cy="-288.376" rx="4.00002" ry="4.00002"/>
<polygon fill="#33e5c6" stroke="#33e5c6" points="433.149,-183.9 426.73,-175.009 428.817,-181.404 424.484,-178.909 424.484,-178.909 424.484,-178.909 428.817,-181.404 422.238,-182.808 433.149,-183.9 433.149,-183.9"/>
</g>
<!-- DailyDatum&#45;&gt;Vehicle -->
<g id="edge11" class="edge"><title>DailyDatum&#45;&gt;Vehicle</title>
<path fill="none" stroke="#020b4b" d="M599.386,-291.302C594.194,-290.098 588.981,-288.97 583.954,-288 462.058,-264.472 428.114,-279.07 306.954,-252 302.538,-251.013 297.964,-249.819 293.438,-248.525"/>
<polygon fill="#020b4b" stroke="#020b4b" points="599.571,-291.347 608.237,-298.066 604.431,-292.519 609.292,-293.692 609.292,-293.692 609.292,-293.692 604.431,-292.519 610.347,-289.317 599.571,-291.347 599.571,-291.347"/>
<polygon fill="#020b4b" stroke="#020b4b" points="293.258,-248.471 284.987,-241.271 288.472,-247.025 283.685,-245.579 283.685,-245.579 283.685,-245.579 288.472,-247.025 282.384,-249.886 293.258,-248.471 293.258,-248.471"/>
</g>
<!-- DailyDatum&#45;&gt;DailyDataEmployee -->
<g id="edge12" class="edge"><title>DailyDatum&#45;&gt;DailyDataEmployee</title>
<path fill="none" stroke="#259c9b" d="M685.263,-286.071C701.807,-276.623 721.459,-264.546 737.954,-252 756.472,-237.916 757.334,-229.947 775.954,-216 791.758,-204.162 810.423,-192.88 826.723,-183.791"/>
<ellipse fill="none" stroke="#259c9b" cx="681.387" cy="-288.255" rx="4.00002" ry="4.00002"/>
<polygon fill="#259c9b" stroke="#259c9b" points="826.734,-183.785 837.666,-182.924 831.118,-181.382 835.502,-178.978 835.502,-178.978 835.502,-178.978 831.118,-181.382 833.339,-175.032 826.734,-183.785 826.734,-183.785"/>
</g>
<!-- DailyDatum&#45;&gt;Employee -->
<g id="edge13" class="edge"><title>DailyDatum&#45;&gt;Employee</title>
<path fill="none" stroke="#92f939" d="M710.828,-297.02C815.89,-283.248 1029.6,-255.233 1129.81,-242.098"/>
<polygon fill="#92f939" stroke="#92f939" points="710.588,-297.052 700.088,-293.89 705.631,-297.702 700.673,-298.351 700.673,-298.351 700.673,-298.351 705.631,-297.702 701.258,-302.813 710.588,-297.052 710.588,-297.052"/>
<polygon fill="#92f939" stroke="#92f939" points="1130.1,-242.06 1140.6,-245.222 1135.05,-241.41 1140.01,-240.76 1140.01,-240.76 1140.01,-240.76 1135.05,-241.41 1139.43,-236.298 1130.1,-242.06 1130.1,-242.06"/>
</g>
<!-- DailyDatum&#45;&gt;DailyDataDeliveryException -->
<g id="edge14" class="edge"><title>DailyDatum&#45;&gt;DailyDataDeliveryException</title>
<path fill="none" stroke="#5265d9" d="M605.011,-289.045C588.425,-280.718 571.389,-268.696 561.954,-252 554.083,-238.07 556.277,-230.959 561.954,-216 566.031,-205.26 573.389,-195.302 581.092,-186.984"/>
<ellipse fill="none" stroke="#5265d9" cx="608.954" cy="-290.907" rx="4.00002" ry="4.00002"/>
<polygon fill="#5265d9" stroke="#5265d9" points="581.141,-186.935 591.376,-182.999 584.66,-183.384 588.179,-179.832 588.179,-179.832 588.179,-179.832 584.66,-183.384 584.983,-176.665 581.141,-186.935 581.141,-186.935"/>
</g>
<!-- DeliveryException -->
<g id="node8" class="node"><title>DeliveryException</title>
<ellipse fill="none" stroke="black" cx="649.954" cy="-234" rx="78.9404" ry="18"/>
<text text-anchor="middle" x="649.954" y="-230.3" font-family="Times,serif" font-size="14.00">DeliveryException</text>
</g>
<!-- DailyDatum&#45;&gt;DeliveryException -->
<g id="edge15" class="edge"><title>DailyDatum&#45;&gt;DeliveryException</title>
<path fill="none" stroke="#d5f0b7" d="M649.954,-277.665C649.954,-272.687 649.954,-267.491 649.954,-262.507"/>
<polygon fill="#d5f0b7" stroke="#d5f0b7" points="649.955,-277.697 645.454,-287.697 649.954,-282.697 649.954,-287.697 649.954,-287.697 649.954,-287.697 649.954,-282.697 654.454,-287.697 649.955,-277.697 649.955,-277.697"/>
<polygon fill="#d5f0b7" stroke="#d5f0b7" points="649.955,-262.104 654.454,-252.104 649.954,-257.104 649.954,-252.104 649.954,-252.104 649.954,-252.104 649.954,-257.104 645.454,-252.104 649.955,-262.104 649.955,-262.104"/>
</g>
<!-- DeliveryException&#45;&gt;DailyDataDeliveryException -->
<g id="edge16" class="edge"><title>DeliveryException&#45;&gt;DailyDataDeliveryException</title>
<path fill="none" stroke="#b51fe8" d="M635.959,-209.106C632.148,-202.599 628.002,-195.52 624.129,-188.907"/>
<ellipse fill="none" stroke="#b51fe8" cx="638.008" cy="-212.603" rx="4.00002" ry="4.00002"/>
<polygon fill="#b51fe8" stroke="#b51fe8" points="624.127,-188.904 622.956,-178.001 621.6,-184.59 619.073,-180.275 619.073,-180.275 619.073,-180.275 621.6,-184.59 615.19,-182.55 624.127,-188.904 624.127,-188.904"/>
</g>
<!-- Employee&#45;&gt;Note -->
<g id="edge17" class="edge"><title>Employee&#45;&gt;Note</title>
<path fill="none" stroke="#db9bec" d="M1182.76,-207.887C1180.85,-189.065 1176.04,-163.333 1163.95,-144 1150.38,-122.28 1138.38,-124.697 1118.95,-108 1101.07,-92.6224 1100.28,-83.9789 1079.95,-72 1040.78,-48.9047 990.194,-34.3172 956.497,-26.4197"/>
<ellipse fill="none" stroke="#db9bec" cx="1183.11" cy="-212.015" rx="4" ry="4"/>
<polygon fill="#db9bec" stroke="#db9bec" points="956.366,-26.3901 947.606,-19.7927 951.489,-25.2858 946.613,-24.1816 946.613,-24.1816 946.613,-24.1816 951.489,-25.2858 945.619,-28.5704 956.366,-26.3901 956.366,-26.3901"/>
</g>
<!-- User -->
<g id="node22" class="node"><title>User</title>
<ellipse fill="none" stroke="black" cx="1127.95" cy="-162" rx="27.4223" ry="18"/>
<text text-anchor="middle" x="1127.95" y="-158.3" font-family="Times,serif" font-size="14.00">User</text>
</g>
<!-- Employee&#45;&gt;User -->
<g id="edge18" class="edge"><title>Employee&#45;&gt;User</title>
<path fill="none" stroke="#fda5ee" d="M1165.48,-209.908C1159.04,-201.856 1151.83,-192.85 1145.47,-184.898"/>
<ellipse fill="none" stroke="#fda5ee" cx="1168.18" cy="-213.287" rx="4.00002" ry="4.00002"/>
<ellipse fill="#fda5ee" stroke="#fda5ee" cx="1142.86" cy="-181.634" rx="4.00002" ry="4.00002"/>
</g>
<!-- Employee&#45;&gt;DailyDataEmployee -->
<g id="edge19" class="edge"><title>Employee&#45;&gt;DailyDataEmployee</title>
<path fill="none" stroke="#b7d2b8" d="M1136,-222.411C1082,-210.486 993.891,-191.03 933.306,-177.652"/>
<ellipse fill="none" stroke="#b7d2b8" cx="1140.22" cy="-223.343" rx="4.00001" ry="4.00001"/>
<polygon fill="#b7d2b8" stroke="#b7d2b8" points="933.219,-177.633 924.425,-171.082 928.337,-176.554 923.454,-175.476 923.454,-175.476 923.454,-175.476 928.337,-176.554 922.484,-179.87 933.219,-177.633 933.219,-177.633"/>
</g>
<!-- EmployeePsa -->
<g id="node10" class="node"><title>EmployeePsa</title>
<ellipse fill="none" stroke="black" cx="1405.95" cy="-90" rx="60.1672" ry="18"/>
<text text-anchor="middle" x="1405.95" y="-86.3" font-family="Times,serif" font-size="14.00">EmployeePsa</text>
</g>
<!-- Employee&#45;&gt;EmployeePsa -->
<g id="edge20" class="edge"><title>Employee&#45;&gt;EmployeePsa</title>
<path fill="none" stroke="#85906b" d="M1236.98,-226.899C1273.41,-220.404 1321.13,-207.102 1354.95,-180 1375.17,-163.806 1388.87,-137.289 1396.94,-117.404"/>
<ellipse fill="none" stroke="#85906b" cx="1232.86" cy="-227.593" rx="4.00001" ry="4.00001"/>
<polygon fill="#85906b" stroke="#85906b" points="1396.98,-117.313 1404.76,-109.584 1398.77,-112.644 1400.55,-107.975 1400.55,-107.975 1400.55,-107.975 1398.77,-112.644 1396.35,-106.365 1396.98,-117.313 1396.98,-117.313"/>
</g>
<!-- Employee&#45;&gt;Psa -->
<g id="edge21" class="edge"><title>Employee&#45;&gt;Psa</title>
<path fill="none" stroke="#879d48" d="M1235.21,-223.303C1311.39,-208.891 1452.56,-182.183 1518.41,-169.725"/>
<polygon fill="#879d48" stroke="#879d48" points="1235.15,-223.315 1224.48,-220.752 1230.23,-224.244 1225.32,-225.174 1225.32,-225.174 1225.32,-225.174 1230.23,-224.244 1226.16,-229.595 1235.15,-223.315 1235.15,-223.315"/>
<polygon fill="#879d48" stroke="#879d48" points="1518.48,-169.711 1529.14,-172.274 1523.4,-168.781 1528.31,-167.852 1528.31,-167.852 1528.31,-167.852 1523.4,-168.781 1527.47,-163.43 1518.48,-169.711 1518.48,-169.711"/>
</g>
<!-- EmployeeTerminal -->
<g id="node11" class="node"><title>EmployeeTerminal</title>
<ellipse fill="none" stroke="black" cx="1208.95" cy="-90" rx="81.3646" ry="18"/>
<text text-anchor="middle" x="1208.95" y="-86.3" font-family="Times,serif" font-size="14.00">EmployeeTerminal</text>
</g>
<!-- Employee&#45;&gt;EmployeeTerminal -->
<g id="edge22" class="edge"><title>Employee&#45;&gt;EmployeeTerminal</title>
<path fill="none" stroke="#400638" d="M1191.24,-208.229C1193.64,-199.381 1196.16,-189.301 1197.95,-180 1201.91,-159.492 1204.74,-136.036 1206.54,-118.355"/>
<ellipse fill="none" stroke="#400638" cx="1190.16" cy="-212.097" rx="4.00001" ry="4.00001"/>
<polygon fill="#400638" stroke="#400638" points="1206.56,-118.123 1212.01,-108.604 1207.04,-113.146 1207.53,-108.17 1207.53,-108.17 1207.53,-108.17 1207.04,-113.146 1203.05,-107.736 1206.56,-118.123 1206.56,-118.123"/>
</g>
<!-- Terminal -->
<g id="node21" class="node"><title>Terminal</title>
<ellipse fill="none" stroke="black" cx="1301.95" cy="-162" rx="44.2946" ry="18"/>
<text text-anchor="middle" x="1301.95" y="-158.3" font-family="Times,serif" font-size="14.00">Terminal</text>
</g>
<!-- Employee&#45;&gt;Terminal -->
<g id="edge23" class="edge"><title>Employee&#45;&gt;Terminal</title>
<path fill="none" stroke="#2d8142" d="M1217.2,-213.279C1233.51,-203.604 1253.08,-191.991 1269.31,-182.365"/>
<polygon fill="#2d8142" stroke="#2d8142" points="1217,-213.394 1206.11,-214.626 1212.7,-215.945 1208.4,-218.496 1208.4,-218.496 1208.4,-218.496 1212.7,-215.945 1210.7,-222.366 1217,-213.394 1217,-213.394"/>
<polygon fill="#2d8142" stroke="#2d8142" points="1269.34,-182.348 1280.24,-181.116 1273.64,-179.797 1277.94,-177.246 1277.94,-177.246 1277.94,-177.246 1273.64,-179.797 1275.64,-173.376 1269.34,-182.348 1269.34,-182.348"/>
</g>
<!-- FedexContract -->
<g id="node12" class="node"><title>FedexContract</title>
<ellipse fill="none" stroke="black" cx="835.954" cy="-399" rx="64.0172" ry="18"/>
<text text-anchor="middle" x="835.954" y="-395.3" font-family="Times,serif" font-size="14.00">FedexContract</text>
</g>
<!-- FedexContract&#45;&gt;Business -->
<g id="edge24" class="edge"><title>FedexContract&#45;&gt;Business</title>
<path fill="none" stroke="#9bdb06" d="M867.661,-377.963C891.598,-362.836 924.299,-342.171 948.239,-327.043"/>
<ellipse fill="none" stroke="#9bdb06" cx="864.09" cy="-380.22" rx="4.00002" ry="4.00002"/>
<polygon fill="#9bdb06" stroke="#9bdb06" points="948.495,-326.881 959.352,-325.343 952.721,-324.21 956.948,-321.539 956.948,-321.539 956.948,-321.539 952.721,-324.21 954.544,-317.735 948.495,-326.881 948.495,-326.881"/>
</g>
<!-- FedexContract&#45;&gt;Addendum -->
<g id="edge25" class="edge"><title>FedexContract&#45;&gt;Addendum</title>
<path fill="none" stroke="#9c3f97" d="M835.954,-372.52C835.954,-342.6 835.954,-293.164 835.954,-262.427"/>
<ellipse fill="none" stroke="#9c3f97" cx="835.954" cy="-376.864" rx="4" ry="4"/>
<polygon fill="#9c3f97" stroke="#9c3f97" points="835.955,-262.397 840.454,-252.397 835.954,-257.397 835.954,-252.397 835.954,-252.397 835.954,-252.397 835.954,-257.397 831.454,-252.397 835.955,-262.397 835.955,-262.397"/>
</g>
<!-- FedexContract&#45;&gt;Note -->
<g id="edge26" class="edge"><title>FedexContract&#45;&gt;Note</title>
<path fill="none" stroke="#b80f70" d="M804.955,-378.089C792.412,-371.059 777.481,-363.931 762.954,-360 683.385,-338.471 84.7607,-377.387 21.9544,-324 -8.86329,-297.804 2.95443,-275.447 2.95443,-235 2.95443,-235 2.95443,-235 2.95443,-161 2.95443,-43.4766 137.043,-96.6399 251.954,-72 487.061,-21.5871 777.962,-18.03 881.313,-18.5303"/>
<ellipse fill="none" stroke="#b80f70" cx="808.581" cy="-380.188" rx="4.00002" ry="4.00002"/>
<polygon fill="#b80f70" stroke="#b80f70" points="881.57,-18.5319 891.541,-23.0967 886.57,-18.5643 891.57,-18.5967 891.57,-18.5967 891.57,-18.5967 886.57,-18.5643 891.599,-14.0968 881.57,-18.5319 881.57,-18.5319"/>
</g>
<!-- Psa&#45;&gt;Note -->
<g id="edge27" class="edge"><title>Psa&#45;&gt;Note</title>
<path fill="none" stroke="#ddd5db" d="M1548.19,-136.107C1541.97,-115.301 1529.87,-86.7338 1507.95,-72 1462.44,-41.4065 1082.09,-24.9242 958.545,-20.3406"/>
<ellipse fill="none" stroke="#ddd5db" cx="1549.3" cy="-140.078" rx="4.00001" ry="4.00001"/>
<polygon fill="#ddd5db" stroke="#ddd5db" points="958.406,-20.3355 948.577,-15.4731 953.409,-20.1528 948.412,-19.97 948.412,-19.97 948.412,-19.97 953.409,-20.1528 948.248,-24.467 958.406,-20.3355 958.406,-20.3355"/>
</g>
<!-- Psazip -->
<g id="node16" class="node"><title>Psazip</title>
<ellipse fill="none" stroke="black" cx="1609.95" cy="-18" rx="34.1708" ry="18"/>
<text text-anchor="middle" x="1609.95" y="-14.3" font-family="Times,serif" font-size="14.00">Psazip</text>
</g>
<!-- Psa&#45;&gt;Psazip -->
<g id="edge28" class="edge"><title>Psa&#45;&gt;Psazip</title>
<path fill="none" stroke="#077dfc" d="M1582.94,-146.973C1597.84,-138.067 1614.58,-125 1622.95,-108 1632.62,-88.3819 1627.82,-63.5894 1621.49,-45.1571"/>
<ellipse fill="none" stroke="#077dfc" cx="1579.3" cy="-149.037" rx="4.00002" ry="4.00002"/>
<polygon fill="#077dfc" stroke="#077dfc" points="1621.43,-44.9993 1622.1,-34.0542 1619.66,-40.3219 1617.89,-35.6445 1617.89,-35.6445 1617.89,-35.6445 1619.66,-40.3219 1613.68,-37.2348 1621.43,-44.9993 1621.43,-44.9993"/>
</g>
<!-- Zip -->
<g id="node28" class="node"><title>Zip</title>
<ellipse fill="none" stroke="black" cx="1586.95" cy="-90" rx="27" ry="18"/>
<text text-anchor="middle" x="1586.95" y="-86.3" font-family="Times,serif" font-size="14.00">Zip</text>
</g>
<!-- Psa&#45;&gt;Zip -->
<g id="edge29" class="edge"><title>Psa&#45;&gt;Zip</title>
<path fill="none" stroke="#cd7ed1" d="M1566.12,-135.205C1568.98,-129.12 1572.04,-122.636 1574.9,-116.561"/>
<polygon fill="#cd7ed1" stroke="#cd7ed1" points="1566.04,-135.366 1557.7,-142.492 1563.91,-139.888 1561.77,-144.411 1561.77,-144.411 1561.77,-144.411 1563.91,-139.888 1565.85,-146.33 1566.04,-135.366 1566.04,-135.366"/>
<polygon fill="#cd7ed1" stroke="#cd7ed1" points="1574.93,-116.515 1583.26,-109.389 1577.06,-111.993 1579.19,-107.47 1579.19,-107.47 1579.19,-107.47 1577.06,-111.993 1575.12,-105.551 1574.93,-116.515 1574.93,-116.515"/>
</g>
<!-- PsaState -->
<g id="node15" class="node"><title>PsaState</title>
<ellipse fill="none" stroke="black" cx="1726.95" cy="-18" rx="41.394" ry="18"/>
<text text-anchor="middle" x="1726.95" y="-14.3" font-family="Times,serif" font-size="14.00">PsaState</text>
</g>
<!-- Psa&#45;&gt;PsaState -->
<g id="edge30" class="edge"><title>Psa&#45;&gt;PsaState</title>
<path fill="none" stroke="#ee5779" d="M1588.46,-155.925C1636.12,-148.129 1718.25,-131.591 1735.95,-108 1749.29,-90.2285 1744.91,-64.5251 1738.45,-45.3051"/>
<ellipse fill="none" stroke="#ee5779" cx="1584.22" cy="-156.603" rx="4.00001" ry="4.00001"/>
<polygon fill="#ee5779" stroke="#ee5779" points="1738.45,-45.2961 1739.18,-34.355 1736.71,-40.6089 1734.96,-35.9216 1734.96,-35.9216 1734.96,-35.9216 1736.71,-40.6089 1730.75,-37.4883 1738.45,-45.2961 1738.45,-45.2961"/>
</g>
<!-- State -->
<g id="node20" class="node"><title>State</title>
<ellipse fill="none" stroke="black" cx="1698.95" cy="-90" rx="28.3955" ry="18"/>
<text text-anchor="middle" x="1698.95" y="-86.3" font-family="Times,serif" font-size="14.00">State</text>
</g>
<!-- Psa&#45;&gt;State -->
<g id="edge31" class="edge"><title>Psa&#45;&gt;State</title>
<path fill="none" stroke="#c24c34" d="M1584.58,-146.214C1609.03,-134.411 1643.15,-117.941 1667.75,-106.065"/>
<polygon fill="#c24c34" stroke="#c24c34" points="1584.36,-146.324 1573.39,-146.619 1579.85,-148.497 1575.35,-150.671 1575.35,-150.671 1575.35,-150.671 1579.85,-148.497 1577.31,-154.724 1584.36,-146.324 1584.36,-146.324"/>
<polygon fill="#c24c34" stroke="#c24c34" points="1667.99,-105.948 1678.95,-105.653 1672.49,-103.774 1677,-101.601 1677,-101.601 1677,-101.601 1672.49,-103.774 1675.04,-97.5481 1667.99,-105.948 1667.99,-105.948"/>
</g>
<!-- Psa&#45;&gt;EmployeePsa -->
<g id="edge32" class="edge"><title>Psa&#45;&gt;EmployeePsa</title>
<path fill="none" stroke="#8bb587" d="M1524.94,-147.276C1502.41,-136.619 1470.91,-121.72 1445.98,-109.929"/>
<ellipse fill="none" stroke="#8bb587" cx="1528.82" cy="-149.111" rx="4.00002" ry="4.00002"/>
<polygon fill="#8bb587" stroke="#8bb587" points="1445.82,-109.853 1438.7,-101.51 1441.3,-107.716 1436.78,-105.578 1436.78,-105.578 1436.78,-105.578 1441.3,-107.716 1434.85,-109.646 1445.82,-109.853 1445.82,-109.853"/>
</g>
<!-- Region -->
<g id="node17" class="node"><title>Region</title>
<ellipse fill="none" stroke="black" cx="1488.95" cy="-234" rx="37.0701" ry="18"/>
<text text-anchor="middle" x="1488.95" y="-230.3" font-family="Times,serif" font-size="14.00">Region</text>
</g>
<!-- Region&#45;&gt;Psa -->
<g id="edge33" class="edge"><title>Region&#45;&gt;Psa</title>
<path fill="none" stroke="#ece6ef" d="M1509.36,-211.02C1516.96,-202.839 1525.59,-193.551 1533.21,-185.338"/>
<ellipse fill="none" stroke="#ece6ef" cx="1506.43" cy="-214.185" rx="4.00002" ry="4.00002"/>
<polygon fill="#ece6ef" stroke="#ece6ef" points="1533.35,-185.192 1543.45,-180.926 1536.75,-181.528 1540.15,-177.864 1540.15,-177.864 1540.15,-177.864 1536.75,-181.528 1536.85,-174.802 1533.35,-185.192 1533.35,-185.192"/>
</g>
<!-- Region&#45;&gt;Terminal -->
<g id="edge34" class="edge"><title>Region&#45;&gt;Terminal</title>
<path fill="none" stroke="#2810c5" d="M1453.01,-219.543C1421.62,-207.794 1376.07,-190.743 1343.2,-178.44"/>
<ellipse fill="none" stroke="#2810c5" cx="1456.81" cy="-220.966" rx="4.00001" ry="4.00001"/>
<polygon fill="#2810c5" stroke="#2810c5" points="1342.81,-178.292 1335.02,-170.572 1338.12,-176.539 1333.44,-174.786 1333.44,-174.786 1333.44,-174.786 1338.12,-176.539 1331.86,-179.001 1342.81,-178.292 1342.81,-178.292"/>
</g>
<!-- Region&#45;&gt;Note -->
<g id="edge35" class="edge"><title>Region&#45;&gt;Note</title>
<path fill="none" stroke="#ebe480" d="M1495.44,-208.102C1503.02,-172.601 1510.43,-107.782 1474.95,-72 1438.65,-35.3884 1078.32,-23.0061 958.481,-19.8827"/>
<ellipse fill="none" stroke="#ebe480" cx="1494.52" cy="-212.145" rx="4.00001" ry="4.00001"/>
<polygon fill="#ebe480" stroke="#ebe480" points="958.3,-19.8783 948.417,-15.1263 953.302,-19.7515 948.303,-19.6248 948.303,-19.6248 948.303,-19.6248 953.302,-19.7515 948.189,-24.1234 958.3,-19.8783 958.3,-19.8783"/>
</g>
<!-- Role -->
<g id="node18" class="node"><title>Role</title>
<ellipse fill="none" stroke="black" cx="1035.95" cy="-162" rx="27.4223" ry="18"/>
<text text-anchor="middle" x="1035.95" y="-158.3" font-family="Times,serif" font-size="14.00">Role</text>
</g>
<!-- UserRole -->
<g id="node23" class="node"><title>UserRole</title>
<ellipse fill="none" stroke="black" cx="1026.95" cy="-90" rx="44.271" ry="18"/>
<text text-anchor="middle" x="1026.95" y="-86.3" font-family="Times,serif" font-size="14.00">UserRole</text>
</g>
<!-- Role&#45;&gt;UserRole -->
<g id="edge36" class="edge"><title>Role&#45;&gt;UserRole</title>
<path fill="none" stroke="#f991e9" d="M1032.74,-135.987C1032,-130.249 1031.21,-124.121 1030.46,-118.293"/>
<ellipse fill="none" stroke="#f991e9" cx="1033.27" cy="-140.088" rx="4.00001" ry="4.00001"/>
<polygon fill="#f991e9" stroke="#f991e9" points="1030.45,-118.194 1033.64,-107.701 1029.81,-113.234 1029.18,-108.275 1029.18,-108.275 1029.18,-108.275 1029.81,-113.234 1024.71,-108.849 1030.45,-118.194 1030.45,-118.194"/>
</g>
<!-- Role&#45;&gt;Role -->
<g id="edge37" class="edge"><title>Role&#45;&gt;Role</title>
<path fill="none" stroke="#dd249e" d="M1065.99,-175.436C1074.46,-174.857 1080.95,-170.378 1080.95,-162 1080.95,-153.622 1074.46,-149.143 1065.99,-148.564"/>
<polygon fill="#dd249e" stroke="#dd249e" points="1065.8,-175.417 1056.29,-169.954 1060.83,-174.924 1055.85,-174.432 1055.85,-174.432 1055.85,-174.432 1060.83,-174.924 1055.41,-178.91 1065.8,-175.417 1065.8,-175.417"/>
<polygon fill="#dd249e" stroke="#dd249e" points="1065.8,-148.583 1055.41,-145.09 1060.83,-149.076 1055.85,-149.568 1055.85,-149.568 1055.85,-149.568 1060.83,-149.076 1056.29,-154.046 1065.8,-148.583 1065.8,-148.583"/>
</g>
<!-- ServiceType -->
<g id="node19" class="node"><title>ServiceType</title>
<ellipse fill="none" stroke="black" cx="87.9544" cy="-306" rx="56.3173" ry="18"/>
<text text-anchor="middle" x="87.9544" y="-302.3" font-family="Times,serif" font-size="14.00">ServiceType</text>
</g>
<!-- ServiceType&#45;&gt;Vehicle -->
<g id="edge38" class="edge"><title>ServiceType&#45;&gt;Vehicle</title>
<path fill="none" stroke="#bfc1b2" d="M128.249,-288.008C155.367,-276.573 190.842,-261.614 217.19,-250.503"/>
<ellipse fill="none" stroke="#bfc1b2" cx="124.436" cy="-289.616" rx="4.00002" ry="4.00002"/>
<polygon fill="#bfc1b2" stroke="#bfc1b2" points="217.237,-250.483 228.2,-250.744 221.844,-248.541 226.451,-246.598 226.451,-246.598 226.451,-246.598 221.844,-248.541 224.703,-242.451 217.237,-250.483 217.237,-250.483"/>
</g>
<!-- State&#45;&gt;PsaState -->
<g id="edge39" class="edge"><title>State&#45;&gt;PsaState</title>
<path fill="none" stroke="#b317bf" d="M1708.64,-64.7779C1711.14,-58.544 1713.83,-51.8046 1716.37,-45.4634"/>
<ellipse fill="none" stroke="#b317bf" cx="1707.08" cy="-68.6971" rx="4.00001" ry="4.00001"/>
<polygon fill="#b317bf" stroke="#b317bf" points="1716.46,-45.241 1724.35,-37.6275 1718.31,-40.5986 1720.17,-35.9562 1720.17,-35.9562 1720.17,-35.9562 1718.31,-40.5986 1715.99,-34.2849 1716.46,-45.241 1716.46,-45.241"/>
</g>
<!-- State&#45;&gt;Note -->
<g id="edge40" class="edge"><title>State&#45;&gt;Note</title>
<path fill="none" stroke="#c91a97" d="M1665.23,-80.3556C1652.11,-77.2834 1636.91,-74.0755 1622.95,-72 1371.31,-34.5711 1064.84,-22.982 958.485,-19.947"/>
<ellipse fill="none" stroke="#c91a97" cx="1669.21" cy="-81.3082" rx="4.00001" ry="4.00001"/>
<polygon fill="#c91a97" stroke="#c91a97" points="958.242,-19.9403 948.37,-15.1656 953.244,-19.8021 948.245,-19.6638 948.245,-19.6638 948.245,-19.6638 953.244,-19.8021 948.121,-24.1621 958.242,-19.9403 958.242,-19.9403"/>
</g>
<!-- Terminal&#45;&gt;Note -->
<g id="edge41" class="edge"><title>Terminal&#45;&gt;Note</title>
<path fill="none" stroke="#c6525f" d="M1308.99,-135.876C1312.87,-116.051 1314.25,-88.9936 1298.95,-72 1254.22,-22.2896 1045.46,-17.9871 958.322,-18.4172"/>
<ellipse fill="none" stroke="#c6525f" cx="1308.07" cy="-139.974" rx="4.00001" ry="4.00001"/>
<polygon fill="#c6525f" stroke="#c6525f" points="958.317,-18.4171 948.284,-13.9905 953.317,-18.4537 948.317,-18.4903 948.317,-18.4903 948.317,-18.4903 953.317,-18.4537 948.35,-22.9902 958.317,-18.4171 958.317,-18.4171"/>
</g>
<!-- Terminal&#45;&gt;EmployeeTerminal -->
<g id="edge42" class="edge"><title>Terminal&#45;&gt;EmployeeTerminal</title>
<path fill="none" stroke="#6b611f" d="M1275.12,-140.804C1263.78,-132.268 1250.53,-122.291 1238.87,-113.518"/>
<ellipse fill="none" stroke="#6b611f" cx="1278.58" cy="-143.406" rx="4.00002" ry="4.00002"/>
<polygon fill="#6b611f" stroke="#6b611f" points="1238.71,-113.394 1233.42,-103.785 1234.71,-110.387 1230.72,-107.38 1230.72,-107.38 1230.72,-107.38 1234.71,-110.387 1228.01,-110.975 1238.71,-113.394 1238.71,-113.394"/>
</g>
<!-- User&#45;&gt;UserRole -->
<g id="edge43" class="edge"><title>User&#45;&gt;UserRole</title>
<path fill="none" stroke="#c18f54" d="M1102.62,-143.439C1088.81,-133.872 1071.64,-121.968 1057.14,-111.922"/>
<ellipse fill="none" stroke="#c18f54" cx="1106.14" cy="-145.882" rx="4.00002" ry="4.00002"/>
<polygon fill="#c18f54" stroke="#c18f54" points="1056.74,-111.641 1051.08,-102.246 1052.63,-108.792 1048.52,-105.944 1048.52,-105.944 1048.52,-105.944 1052.63,-108.792 1045.95,-109.643 1056.74,-111.641 1056.74,-111.641"/>
</g>
<!-- Vehicle&#45;&gt;Note -->
<g id="edge44" class="edge"><title>Vehicle&#45;&gt;Note</title>
<path fill="none" stroke="#78dcfd" d="M249.193,-207.811C244.029,-171.951 240.907,-106.693 277.954,-72 322.066,-30.6919 749.358,-21.3558 881.328,-19.4501"/>
<ellipse fill="none" stroke="#78dcfd" cx="249.833" cy="-211.887" rx="4.00001" ry="4.00001"/>
<polygon fill="#78dcfd" stroke="#78dcfd" points="881.388,-19.4494 891.449,-23.8108 886.387,-19.3803 891.387,-19.3112 891.387,-19.3112 891.387,-19.3112 886.387,-19.3803 891.325,-14.8116 881.388,-19.4494 881.388,-19.4494"/>
</g>
<!-- Vehicle&#45;&gt;DailyDataVehicle -->
<g id="edge45" class="edge"><title>Vehicle&#45;&gt;DailyDataVehicle</title>
<path fill="none" stroke="#7c4aa4" d="M286.88,-216.883C307.527,-206.775 334.301,-193.67 356.273,-182.914"/>
<ellipse fill="none" stroke="#7c4aa4" cx="283.113" cy="-218.727" rx="4.00002" ry="4.00002"/>
<polygon fill="#7c4aa4" stroke="#7c4aa4" points="356.382,-182.861 367.342,-182.506 360.873,-180.662 365.364,-178.464 365.364,-178.464 365.364,-178.464 360.873,-180.662 363.385,-174.422 356.382,-182.861 356.382,-182.861"/>
</g>
<!-- VehicleFuel -->
<g id="node25" class="node"><title>VehicleFuel</title>
<ellipse fill="none" stroke="black" cx="217.954" cy="-306" rx="55.3682" ry="18"/>
<text text-anchor="middle" x="217.954" y="-302.3" font-family="Times,serif" font-size="14.00">VehicleFuel</text>
</g>
<!-- VehicleFuel&#45;&gt;Vehicle -->
<g id="edge46" class="edge"><title>VehicleFuel&#45;&gt;Vehicle</title>
<path fill="none" stroke="#55dd10" d="M230.444,-280.714C233.742,-274.302 237.313,-267.358 240.653,-260.865"/>
<ellipse fill="none" stroke="#55dd10" cx="228.498" cy="-284.498" rx="4.00002" ry="4.00002"/>
<polygon fill="#55dd10" stroke="#55dd10" points="240.747,-260.682 249.322,-253.847 243.033,-256.235 245.32,-251.789 245.32,-251.789 245.32,-251.789 243.033,-256.235 241.318,-249.731 240.747,-260.682 240.747,-260.682"/>
</g>
<!-- VehicleOdometer -->
<g id="node26" class="node"><title>VehicleOdometer</title>
<ellipse fill="none" stroke="black" cx="366.954" cy="-306" rx="75.0904" ry="18"/>
<text text-anchor="middle" x="366.954" y="-302.3" font-family="Times,serif" font-size="14.00">VehicleOdometer</text>
</g>
<!-- VehicleOdometer&#45;&gt;Vehicle -->
<g id="edge47" class="edge"><title>VehicleOdometer&#45;&gt;Vehicle</title>
<path fill="none" stroke="#d10faa" d="M333.894,-284.52C318.41,-274.929 300.073,-263.569 284.868,-254.15"/>
<ellipse fill="none" stroke="#d10faa" cx="337.63" cy="-286.834" rx="4.00002" ry="4.00002"/>
<polygon fill="#d10faa" stroke="#d10faa" points="284.825,-254.123 278.694,-245.032 280.574,-251.49 276.324,-248.857 276.324,-248.857 276.324,-248.857 280.574,-251.49 273.954,-252.683 284.825,-254.123 284.825,-254.123"/>
</g>
<!-- VehicleType -->
<g id="node27" class="node"><title>VehicleType</title>
<ellipse fill="none" stroke="black" cx="517.954" cy="-306" rx="57.2688" ry="18"/>
<text text-anchor="middle" x="517.954" y="-302.3" font-family="Times,serif" font-size="14.00">VehicleType</text>
</g>
<!-- VehicleType&#45;&gt;Vehicle -->
<g id="edge48" class="edge"><title>VehicleType&#45;&gt;Vehicle</title>
<path fill="none" stroke="#ddb8be" d="M466.871,-292.019C461.498,-290.659 456.115,-289.3 450.954,-288 386.983,-271.888 370.397,-270.084 306.954,-252 302.825,-250.823 298.532,-249.542 294.257,-248.229"/>
<ellipse fill="none" stroke="#ddb8be" cx="470.833" cy="-293.022" rx="4.00001" ry="4.00001"/>
<polygon fill="#ddb8be" stroke="#ddb8be" points="293.942,-248.131 285.745,-240.847 289.171,-246.636 284.399,-245.141 284.399,-245.141 284.399,-245.141 289.171,-246.636 283.054,-249.436 293.942,-248.131 293.942,-248.131"/>
</g>
<!-- Zip&#45;&gt;Psazip -->
<g id="edge49" class="edge"><title>Zip&#45;&gt;Psazip</title>
<path fill="none" stroke="#ccb0a4" d="M1595.03,-64.4306C1597.02,-58.362 1599.17,-51.833 1601.19,-45.6698"/>
<ellipse fill="none" stroke="#ccb0a4" cx="1593.77" cy="-68.2548" rx="4.00001" ry="4.00001"/>
<polygon fill="#ccb0a4" stroke="#ccb0a4" points="1601.32,-45.2893 1608.71,-37.1937 1602.88,-40.5392 1604.44,-35.789 1604.44,-35.789 1604.44,-35.789 1602.88,-40.5392 1600.16,-34.3843 1601.32,-45.2893 1601.32,-45.2893"/>
</g>
<!-- Zip&#45;&gt;Note -->
<g id="edge50" class="edge"><title>Zip&#45;&gt;Note</title>
<path fill="none" stroke="#aa4f74" d="M1558.13,-75.7575C1554.1,-74.291 1549.97,-72.9773 1545.95,-72 1433.31,-44.5822 1076.07,-26.1528 958.143,-20.6903"/>
<ellipse fill="none" stroke="#aa4f74" cx="1561.95" cy="-77.2565" rx="4.00001" ry="4.00001"/>
<polygon fill="#aa4f74" stroke="#aa4f74" points="958.122,-20.6895 948.339,-15.736 953.127,-20.4604 948.132,-20.2313 948.132,-20.2313 948.132,-20.2313 953.127,-20.4604 947.926,-24.7266 958.122,-20.6895 958.122,-20.6895"/>
</g>
</g>
</svg>
