<?xml version="1.0" encoding="UTF-8" standalone="no"?>
<!DOCTYPE svg PUBLIC "-//W3C//DTD SVG 1.1//EN"
 "http://www.w3.org/Graphics/SVG/1.1/DTD/svg11.dtd">
<!-- Generated by graphviz version 2.29.20121209.0545 (20121209.0545)
 -->
<!-- Title: models_diagram Pages: 1 -->
<svg width="2002pt" height="860pt"
 viewBox="0.00 0.00 2002.00 860.00" xmlns="http://www.w3.org/2000/svg" xmlns:xlink="http://www.w3.org/1999/xlink">
<g id="graph0" class="graph" transform="scale(1 1) rotate(0) translate(4 856)">
<title>models_diagram</title>
<polygon fill="white" stroke="white" points="-4,5 -4,-856 1999,-856 1999,5 -4,5"/>
<!-- _diagram_info -->
<g id="node1" class="node"><title>_diagram_info</title>
<text text-anchor="start" x="374" y="-785.6" font-family="Times,serif" font-size="13.00">Models diagram</text>
<text text-anchor="start" x="374" y="-771.6" font-family="Times,serif" font-size="13.00">Date: Dec 12 2012 &#45; 03:28</text>
<text text-anchor="start" x="374" y="-757.6" font-family="Times,serif" font-size="13.00">Migration version: 20121212081655</text>
<text text-anchor="start" x="374" y="-743.6" font-family="Times,serif" font-size="13.00">Generated by RailRoady 1.1.0</text>
<text text-anchor="start" x="374" y="-729.6" font-family="Times,serif" font-size="13.00">http://railroady.prestonlee.com</text>
</g>
<!-- Addendum -->
<g id="node2" class="node"><title>Addendum</title>
<path fill="none" stroke="black" d="M12,-392.5C12,-392.5 250,-392.5 250,-392.5 256,-392.5 262,-398.5 262,-404.5 262,-404.5 262,-561.5 262,-561.5 262,-567.5 256,-573.5 250,-573.5 250,-573.5 12,-573.5 12,-573.5 6,-573.5 0,-567.5 0,-561.5 0,-561.5 0,-404.5 0,-404.5 0,-398.5 6,-392.5 12,-392.5"/>
<text text-anchor="middle" x="131" y="-558.3" font-family="Times,serif" font-size="14.00">Addendum</text>
<polyline fill="none" stroke="black" points="0,-550.5 262,-550.5 "/>
<text text-anchor="start" x="8" y="-535.3" font-family="Times,serif" font-size="14.00">id :integer</text>
<text text-anchor="start" x="8" y="-520.3" font-family="Times,serif" font-size="14.00">fedexAddendumName :string</text>
<text text-anchor="start" x="8" y="-505.3" font-family="Times,serif" font-size="14.00">fedexAddendumNumber :integer</text>
<text text-anchor="start" x="8" y="-490.3" font-family="Times,serif" font-size="14.00">fedexContractorAddendumName :string</text>
<text text-anchor="start" x="8" y="-475.3" font-family="Times,serif" font-size="14.00">fedexContractorAddendumNumber :integer</text>
<text text-anchor="start" x="8" y="-460.3" font-family="Times,serif" font-size="14.00">content :text</text>
<text text-anchor="start" x="8" y="-445.3" font-family="Times,serif" font-size="14.00">startDate :datetime</text>
<text text-anchor="start" x="8" y="-430.3" font-family="Times,serif" font-size="14.00">endDate :datetime</text>
<text text-anchor="start" x="8" y="-415.3" font-family="Times,serif" font-size="14.00">created_at :datetime</text>
<text text-anchor="start" x="8" y="-400.3" font-family="Times,serif" font-size="14.00">updated_at :datetime</text>
</g>
<!-- Note -->
<g id="node6" class="node"><title>Note</title>
<path fill="none" stroke="black" d="M334,-144.5C334,-144.5 444,-144.5 444,-144.5 450,-144.5 456,-150.5 456,-156.5 456,-156.5 456,-283.5 456,-283.5 456,-289.5 450,-295.5 444,-295.5 444,-295.5 334,-295.5 334,-295.5 328,-295.5 322,-289.5 322,-283.5 322,-283.5 322,-156.5 322,-156.5 322,-150.5 328,-144.5 334,-144.5"/>
<text text-anchor="middle" x="389" y="-280.3" font-family="Times,serif" font-size="14.00">Note</text>
<polyline fill="none" stroke="black" points="322,-272.5 456,-272.5 "/>
<text text-anchor="start" x="330" y="-257.3" font-family="Times,serif" font-size="14.00">id :integer</text>
<text text-anchor="start" x="330" y="-242.3" font-family="Times,serif" font-size="14.00">notable_id :integer</text>
<text text-anchor="start" x="330" y="-227.3" font-family="Times,serif" font-size="14.00">notable_type :string</text>
<text text-anchor="start" x="330" y="-212.3" font-family="Times,serif" font-size="14.00">content :text</text>
<text text-anchor="start" x="330" y="-197.3" font-family="Times,serif" font-size="14.00">startDate :datetime</text>
<text text-anchor="start" x="330" y="-182.3" font-family="Times,serif" font-size="14.00">endDate :datetime</text>
<text text-anchor="start" x="330" y="-167.3" font-family="Times,serif" font-size="14.00">created_at :datetime</text>
<text text-anchor="start" x="330" y="-152.3" font-family="Times,serif" font-size="14.00">updated_at :datetime</text>
</g>
<!-- Addendum&#45;&gt;Note -->
<g id="edge1" class="edge"><title>Addendum&#45;&gt;Note</title>
<path fill="none" stroke="#afe3f4" d="M218.744,-386.119C235.866,-367.944 253.835,-349.233 271,-332 284.776,-318.17 299.755,-303.681 314.272,-289.906"/>
<ellipse fill="none" stroke="#afe3f4" cx="215.712" cy="-389.345" rx="4.00002" ry="4.00002"/>
<polygon fill="#afe3f4" stroke="#afe3f4" points="314.547,-289.646 324.905,-286.045 318.18,-286.211 321.813,-282.776 321.813,-282.776 321.813,-282.776 318.18,-286.211 318.721,-279.506 314.547,-289.646 314.547,-289.646"/>
</g>
<!-- Employee -->
<g id="node3" class="node"><title>Employee</title>
<path fill="none" stroke="black" d="M527.5,-370C527.5,-370 668.5,-370 668.5,-370 674.5,-370 680.5,-376 680.5,-382 680.5,-382 680.5,-584 680.5,-584 680.5,-590 674.5,-596 668.5,-596 668.5,-596 527.5,-596 527.5,-596 521.5,-596 515.5,-590 515.5,-584 515.5,-584 515.5,-382 515.5,-382 515.5,-376 521.5,-370 527.5,-370"/>
<text text-anchor="middle" x="598" y="-580.8" font-family="Times,serif" font-size="14.00">Employee</text>
<polyline fill="none" stroke="black" points="515.5,-573 680.5,-573 "/>
<text text-anchor="start" x="523.5" y="-557.8" font-family="Times,serif" font-size="14.00">id :integer</text>
<text text-anchor="start" x="523.5" y="-542.8" font-family="Times,serif" font-size="14.00">firstName :string</text>
<text text-anchor="start" x="523.5" y="-527.8" font-family="Times,serif" font-size="14.00">lastName :string</text>
<text text-anchor="start" x="523.5" y="-512.8" font-family="Times,serif" font-size="14.00">fedexNumber :integer</text>
<text text-anchor="start" x="523.5" y="-497.8" font-family="Times,serif" font-size="14.00">contractorNumber :integer</text>
<text text-anchor="start" x="523.5" y="-482.8" font-family="Times,serif" font-size="14.00">hireDate :date</text>
<text text-anchor="start" x="523.5" y="-467.8" font-family="Times,serif" font-size="14.00">dateOfBirth :date</text>
<text text-anchor="start" x="523.5" y="-452.8" font-family="Times,serif" font-size="14.00">activeBoolean :boolean</text>
<text text-anchor="start" x="523.5" y="-437.8" font-family="Times,serif" font-size="14.00">startDate :datetime</text>
<text text-anchor="start" x="523.5" y="-422.8" font-family="Times,serif" font-size="14.00">endDate :datetime</text>
<text text-anchor="start" x="523.5" y="-407.8" font-family="Times,serif" font-size="14.00">terminationDate :datetime</text>
<text text-anchor="start" x="523.5" y="-392.8" font-family="Times,serif" font-size="14.00">created_at :datetime</text>
<text text-anchor="start" x="523.5" y="-377.8" font-family="Times,serif" font-size="14.00">updated_at :datetime</text>
</g>
<!-- Employee&#45;&gt;Note -->
<g id="edge2" class="edge"><title>Employee&#45;&gt;Note</title>
<path fill="none" stroke="#984a23" d="M529.228,-363.222C521.757,-352.402 513.963,-341.828 506,-332 493.2,-316.202 478.248,-300.435 463.394,-285.953"/>
<ellipse fill="none" stroke="#984a23" cx="531.585" cy="-366.68" rx="4.00002" ry="4.00002"/>
<polygon fill="#984a23" stroke="#984a23" points="463.325,-285.887 459.24,-275.71 459.723,-282.419 456.12,-278.952 456.12,-278.952 456.12,-278.952 459.723,-282.419 453,-282.195 463.325,-285.887 463.325,-285.887"/>
</g>
<!-- User -->
<g id="node15" class="node"><title>User</title>
<path fill="none" stroke="black" d="M517,-159.5C517,-159.5 665,-159.5 665,-159.5 671,-159.5 677,-165.5 677,-171.5 677,-171.5 677,-268.5 677,-268.5 677,-274.5 671,-280.5 665,-280.5 665,-280.5 517,-280.5 517,-280.5 511,-280.5 505,-274.5 505,-268.5 505,-268.5 505,-171.5 505,-171.5 505,-165.5 511,-159.5 517,-159.5"/>
<text text-anchor="middle" x="591" y="-265.3" font-family="Times,serif" font-size="14.00">User</text>
<polyline fill="none" stroke="black" points="505,-257.5 677,-257.5 "/>
<text text-anchor="start" x="513" y="-242.3" font-family="Times,serif" font-size="14.00">id :integer</text>
<text text-anchor="start" x="513" y="-227.3" font-family="Times,serif" font-size="14.00">contractorBoolean :boolean</text>
<text text-anchor="start" x="513" y="-212.3" font-family="Times,serif" font-size="14.00">activeBoolean :boolean</text>
<text text-anchor="start" x="513" y="-197.3" font-family="Times,serif" font-size="14.00">employee_id :integer</text>
<text text-anchor="start" x="513" y="-182.3" font-family="Times,serif" font-size="14.00">created_at :datetime</text>
<text text-anchor="start" x="513" y="-167.3" font-family="Times,serif" font-size="14.00">updated_at :datetime</text>
</g>
<!-- Employee&#45;&gt;User -->
<g id="edge3" class="edge"><title>Employee&#45;&gt;User</title>
<path fill="none" stroke="#4c7f8a" d="M594.768,-361.502C594.097,-336.484 593.413,-310.973 592.815,-288.675"/>
<ellipse fill="none" stroke="#4c7f8a" cx="594.883" cy="-365.799" rx="4" ry="4"/>
<ellipse fill="#4c7f8a" stroke="#4c7f8a" cx="592.706" cy="-284.611" rx="4" ry="4"/>
</g>
<!-- EmployeePsa -->
<g id="node4" class="node"><title>EmployeePsa</title>
<path fill="none" stroke="black" d="M836,-685.5C836,-685.5 960,-685.5 960,-685.5 966,-685.5 972,-691.5 972,-697.5 972,-697.5 972,-824.5 972,-824.5 972,-830.5 966,-836.5 960,-836.5 960,-836.5 836,-836.5 836,-836.5 830,-836.5 824,-830.5 824,-824.5 824,-824.5 824,-697.5 824,-697.5 824,-691.5 830,-685.5 836,-685.5"/>
<text text-anchor="middle" x="898" y="-821.3" font-family="Times,serif" font-size="14.00">EmployeePsa</text>
<polyline fill="none" stroke="black" points="824,-813.5 972,-813.5 "/>
<text text-anchor="start" x="832" y="-798.3" font-family="Times,serif" font-size="14.00">id :integer</text>
<text text-anchor="start" x="832" y="-783.3" font-family="Times,serif" font-size="14.00">startDate :datetime</text>
<text text-anchor="start" x="832" y="-768.3" font-family="Times,serif" font-size="14.00">endDate :datetime</text>
<text text-anchor="start" x="832" y="-753.3" font-family="Times,serif" font-size="14.00">activeBoolean :boolean</text>
<text text-anchor="start" x="832" y="-738.3" font-family="Times,serif" font-size="14.00">employee_id :integer</text>
<text text-anchor="start" x="832" y="-723.3" font-family="Times,serif" font-size="14.00">psa_id :integer</text>
<text text-anchor="start" x="832" y="-708.3" font-family="Times,serif" font-size="14.00">created_at :datetime</text>
<text text-anchor="start" x="832" y="-693.3" font-family="Times,serif" font-size="14.00">updated_at :datetime</text>
</g>
<!-- FedexContract -->
<g id="node5" class="node"><title>FedexContract</title>
<path fill="none" stroke="black" d="M604,-670.5C604,-670.5 794,-670.5 794,-670.5 800,-670.5 806,-676.5 806,-682.5 806,-682.5 806,-839.5 806,-839.5 806,-845.5 800,-851.5 794,-851.5 794,-851.5 604,-851.5 604,-851.5 598,-851.5 592,-845.5 592,-839.5 592,-839.5 592,-682.5 592,-682.5 592,-676.5 598,-670.5 604,-670.5"/>
<text text-anchor="middle" x="699" y="-836.3" font-family="Times,serif" font-size="14.00">FedexContract</text>
<polyline fill="none" stroke="black" points="592,-828.5 806,-828.5 "/>
<text text-anchor="start" x="600" y="-813.3" font-family="Times,serif" font-size="14.00">id :integer</text>
<text text-anchor="start" x="600" y="-798.3" font-family="Times,serif" font-size="14.00">fedexContractName :string</text>
<text text-anchor="start" x="600" y="-783.3" font-family="Times,serif" font-size="14.00">fedexContractNumber :integer</text>
<text text-anchor="start" x="600" y="-768.3" font-family="Times,serif" font-size="14.00">contractorContractName :string</text>
<text text-anchor="start" x="600" y="-753.3" font-family="Times,serif" font-size="14.00">contractorContractNumber :integer</text>
<text text-anchor="start" x="600" y="-738.3" font-family="Times,serif" font-size="14.00">content :text</text>
<text text-anchor="start" x="600" y="-723.3" font-family="Times,serif" font-size="14.00">startDate :datetime</text>
<text text-anchor="start" x="600" y="-708.3" font-family="Times,serif" font-size="14.00">endDate :datetime</text>
<text text-anchor="start" x="600" y="-693.3" font-family="Times,serif" font-size="14.00">created_at :datetime</text>
<text text-anchor="start" x="600" y="-678.3" font-family="Times,serif" font-size="14.00">updated_at :datetime</text>
</g>
<!-- FedexContract&#45;&gt;Employee -->
<g id="edge4" class="edge"><title>FedexContract&#45;&gt;Employee</title>
<path fill="none" stroke="#ddb939" d="M663.449,-662.852C656.72,-644.463 649.602,-625.01 642.634,-605.97"/>
<ellipse fill="none" stroke="#ddb939" cx="664.834" cy="-666.634" rx="4.00001" ry="4.00001"/>
<polygon fill="#ddb939" stroke="#ddb939" points="642.555,-605.753 643.344,-594.816 640.836,-601.058 639.118,-596.362 639.118,-596.362 639.118,-596.362 640.836,-601.058 634.892,-597.909 642.555,-605.753 642.555,-605.753"/>
</g>
<!-- Psa -->
<g id="node7" class="node"><title>Psa</title>
<path fill="none" stroke="black" d="M716.5,-392.5C716.5,-392.5 883.5,-392.5 883.5,-392.5 889.5,-392.5 895.5,-398.5 895.5,-404.5 895.5,-404.5 895.5,-561.5 895.5,-561.5 895.5,-567.5 889.5,-573.5 883.5,-573.5 883.5,-573.5 716.5,-573.5 716.5,-573.5 710.5,-573.5 704.5,-567.5 704.5,-561.5 704.5,-561.5 704.5,-404.5 704.5,-404.5 704.5,-398.5 710.5,-392.5 716.5,-392.5"/>
<text text-anchor="middle" x="800" y="-558.3" font-family="Times,serif" font-size="14.00">Psa</text>
<polyline fill="none" stroke="black" points="704.5,-550.5 895.5,-550.5 "/>
<text text-anchor="start" x="712.5" y="-535.3" font-family="Times,serif" font-size="14.00">id :integer</text>
<text text-anchor="start" x="712.5" y="-520.3" font-family="Times,serif" font-size="14.00">fedexPSAName :string</text>
<text text-anchor="start" x="712.5" y="-505.3" font-family="Times,serif" font-size="14.00">fedexPSANumber :integer</text>
<text text-anchor="start" x="712.5" y="-490.3" font-family="Times,serif" font-size="14.00">contractorPSAName :string</text>
<text text-anchor="start" x="712.5" y="-475.3" font-family="Times,serif" font-size="14.00">contractorPSANumber :integer</text>
<text text-anchor="start" x="712.5" y="-460.3" font-family="Times,serif" font-size="14.00">activeBoolean :boolean</text>
<text text-anchor="start" x="712.5" y="-445.3" font-family="Times,serif" font-size="14.00">startDate :datetime</text>
<text text-anchor="start" x="712.5" y="-430.3" font-family="Times,serif" font-size="14.00">endDate :datetime</text>
<text text-anchor="start" x="712.5" y="-415.3" font-family="Times,serif" font-size="14.00">created_at :datetime</text>
<text text-anchor="start" x="712.5" y="-400.3" font-family="Times,serif" font-size="14.00">updated_at :datetime</text>
</g>
<!-- FedexContract&#45;&gt;Psa -->
<g id="edge5" class="edge"><title>FedexContract&#45;&gt;Psa</title>
<path fill="none" stroke="#4ba315" d="M734.61,-662.689C744.056,-636.878 754.264,-608.981 763.743,-583.077"/>
<ellipse fill="none" stroke="#4ba315" cx="733.166" cy="-666.634" rx="4.00001" ry="4.00001"/>
<polygon fill="#4ba315" stroke="#4ba315" points="763.763,-583.023 771.426,-575.178 765.482,-578.327 767.2,-573.632 767.2,-573.632 767.2,-573.632 765.482,-578.327 762.974,-572.085 763.763,-583.023 763.763,-583.023"/>
</g>
<!-- Psazip -->
<g id="node9" class="node"><title>Psazip</title>
<path fill="none" stroke="black" d="M712,-1C712,-1 822,-1 822,-1 828,-1 834,-7 834,-13 834,-13 834,-95 834,-95 834,-101 828,-107 822,-107 822,-107 712,-107 712,-107 706,-107 700,-101 700,-95 700,-95 700,-13 700,-13 700,-7 706,-1 712,-1"/>
<text text-anchor="middle" x="767" y="-91.8" font-family="Times,serif" font-size="14.00">Psazip</text>
<polyline fill="none" stroke="black" points="700,-84 834,-84 "/>
<text text-anchor="start" x="708" y="-68.8" font-family="Times,serif" font-size="14.00">id :integer</text>
<text text-anchor="start" x="708" y="-53.8" font-family="Times,serif" font-size="14.00">psa_id :integer</text>
<text text-anchor="start" x="708" y="-38.8" font-family="Times,serif" font-size="14.00">zip_id :integer</text>
<text text-anchor="start" x="708" y="-23.8" font-family="Times,serif" font-size="14.00">created_at :datetime</text>
<text text-anchor="start" x="708" y="-8.8" font-family="Times,serif" font-size="14.00">updated_at :datetime</text>
</g>
<!-- Psa&#45;&gt;Psazip -->
<g id="edge6" class="edge"><title>Psa&#45;&gt;Psazip</title>
<path fill="none" stroke="#06c567" d="M752.096,-384.979C740.551,-356.948 729.863,-325.85 724,-296 710.98,-229.711 708.925,-209.852 724,-144 726.103,-134.813 729.283,-125.471 732.981,-116.465"/>
<ellipse fill="none" stroke="#06c567" cx="753.665" cy="-388.727" rx="4.00002" ry="4.00002"/>
<polygon fill="#06c567" stroke="#06c567" points="733.012,-116.391 741.125,-109.014 735.005,-111.806 736.998,-107.22 736.998,-107.22 736.998,-107.22 735.005,-111.806 732.871,-105.427 733.012,-116.391 733.012,-116.391"/>
</g>
<!-- Zip -->
<g id="node21" class="node"><title>Zip</title>
<path fill="none" stroke="black" d="M745,-174.5C745,-174.5 855,-174.5 855,-174.5 861,-174.5 867,-180.5 867,-186.5 867,-186.5 867,-253.5 867,-253.5 867,-259.5 861,-265.5 855,-265.5 855,-265.5 745,-265.5 745,-265.5 739,-265.5 733,-259.5 733,-253.5 733,-253.5 733,-186.5 733,-186.5 733,-180.5 739,-174.5 745,-174.5"/>
<text text-anchor="middle" x="800" y="-250.3" font-family="Times,serif" font-size="14.00">Zip</text>
<polyline fill="none" stroke="black" points="733,-242.5 867,-242.5 "/>
<text text-anchor="start" x="741" y="-227.3" font-family="Times,serif" font-size="14.00">id :integer</text>
<text text-anchor="start" x="741" y="-212.3" font-family="Times,serif" font-size="14.00">zip :string</text>
<text text-anchor="start" x="741" y="-197.3" font-family="Times,serif" font-size="14.00">created_at :datetime</text>
<text text-anchor="start" x="741" y="-182.3" font-family="Times,serif" font-size="14.00">updated_at :datetime</text>
</g>
<!-- Psa&#45;&gt;Zip -->
<g id="edge7" class="edge"><title>Psa&#45;&gt;Zip</title>
<path fill="none" stroke="#3367c3" d="M800,-382.048C800,-345.898 800,-306.435 800,-275.621"/>
<polygon fill="#3367c3" stroke="#3367c3" points="800,-382.179 795.5,-392.179 800,-387.179 800,-392.179 800,-392.179 800,-392.179 800,-387.179 804.5,-392.179 800,-382.179 800,-382.179"/>
<polygon fill="#3367c3" stroke="#3367c3" points="800,-275.52 804.5,-265.52 800,-270.52 800,-265.52 800,-265.52 800,-265.52 800,-270.52 795.5,-265.52 800,-275.52 800,-275.52"/>
</g>
<!-- PsaState -->
<g id="node8" class="node"><title>PsaState</title>
<path fill="none" stroke="black" d="M911,-1C911,-1 1021,-1 1021,-1 1027,-1 1033,-7 1033,-13 1033,-13 1033,-95 1033,-95 1033,-101 1027,-107 1021,-107 1021,-107 911,-107 911,-107 905,-107 899,-101 899,-95 899,-95 899,-13 899,-13 899,-7 905,-1 911,-1"/>
<text text-anchor="middle" x="966" y="-91.8" font-family="Times,serif" font-size="14.00">PsaState</text>
<polyline fill="none" stroke="black" points="899,-84 1033,-84 "/>
<text text-anchor="start" x="907" y="-68.8" font-family="Times,serif" font-size="14.00">id :integer</text>
<text text-anchor="start" x="907" y="-53.8" font-family="Times,serif" font-size="14.00">psa_id :integer</text>
<text text-anchor="start" x="907" y="-38.8" font-family="Times,serif" font-size="14.00">state_id :integer</text>
<text text-anchor="start" x="907" y="-23.8" font-family="Times,serif" font-size="14.00">created_at :datetime</text>
<text text-anchor="start" x="907" y="-8.8" font-family="Times,serif" font-size="14.00">updated_at :datetime</text>
</g>
<!-- Psa&#45;&gt;PsaState -->
<g id="edge8" class="edge"><title>Psa&#45;&gt;PsaState</title>
<path fill="none" stroke="#eefc0a" d="M842.841,-384.637C854.448,-356.357 866.434,-325.215 876,-296 897.669,-229.823 887.727,-208.488 914,-144 917.747,-134.802 922.314,-125.409 927.168,-116.338"/>
<ellipse fill="none" stroke="#eefc0a" cx="841.268" cy="-388.45" rx="4.00002" ry="4.00002"/>
<polygon fill="#eefc0a" stroke="#eefc0a" points="927.271,-116.151 936.04,-109.566 929.685,-111.773 932.099,-107.394 932.099,-107.394 932.099,-107.394 929.685,-111.773 928.158,-105.221 927.271,-116.151 927.271,-116.151"/>
</g>
<!-- State -->
<g id="node13" class="node"><title>State</title>
<path fill="none" stroke="black" d="M935,-167C935,-167 1045,-167 1045,-167 1051,-167 1057,-173 1057,-179 1057,-179 1057,-261 1057,-261 1057,-267 1051,-273 1045,-273 1045,-273 935,-273 935,-273 929,-273 923,-267 923,-261 923,-261 923,-179 923,-179 923,-173 929,-167 935,-167"/>
<text text-anchor="middle" x="990" y="-257.8" font-family="Times,serif" font-size="14.00">State</text>
<polyline fill="none" stroke="black" points="923,-250 1057,-250 "/>
<text text-anchor="start" x="931" y="-234.8" font-family="Times,serif" font-size="14.00">id :integer</text>
<text text-anchor="start" x="931" y="-219.8" font-family="Times,serif" font-size="14.00">state :string</text>
<text text-anchor="start" x="931" y="-204.8" font-family="Times,serif" font-size="14.00">abbreviation :string</text>
<text text-anchor="start" x="931" y="-189.8" font-family="Times,serif" font-size="14.00">created_at :datetime</text>
<text text-anchor="start" x="931" y="-174.8" font-family="Times,serif" font-size="14.00">updated_at :datetime</text>
</g>
<!-- Psa&#45;&gt;State -->
<g id="edge9" class="edge"><title>Psa&#45;&gt;State</title>
<path fill="none" stroke="#07e2ae" d="M871.534,-383.735C896.506,-349.432 923.785,-311.959 945.865,-281.628"/>
<polygon fill="#07e2ae" stroke="#07e2ae" points="871.273,-384.094 861.749,-389.53 868.33,-388.136 865.387,-392.179 865.387,-392.179 865.387,-392.179 868.33,-388.136 869.025,-394.827 871.273,-384.094 871.273,-384.094"/>
<polygon fill="#07e2ae" stroke="#07e2ae" points="946.063,-281.355 955.587,-275.919 949.006,-277.313 951.949,-273.271 951.949,-273.271 951.949,-273.271 949.006,-277.313 948.31,-270.622 946.063,-281.355 946.063,-281.355"/>
</g>
<!-- Region -->
<g id="node10" class="node"><title>Region</title>
<path fill="none" stroke="black" d="M1002,-685.5C1002,-685.5 1184,-685.5 1184,-685.5 1190,-685.5 1196,-691.5 1196,-697.5 1196,-697.5 1196,-824.5 1196,-824.5 1196,-830.5 1190,-836.5 1184,-836.5 1184,-836.5 1002,-836.5 1002,-836.5 996,-836.5 990,-830.5 990,-824.5 990,-824.5 990,-697.5 990,-697.5 990,-691.5 996,-685.5 1002,-685.5"/>
<text text-anchor="middle" x="1093" y="-821.3" font-family="Times,serif" font-size="14.00">Region</text>
<polyline fill="none" stroke="black" points="990,-813.5 1196,-813.5 "/>
<text text-anchor="start" x="998" y="-798.3" font-family="Times,serif" font-size="14.00">id :integer</text>
<text text-anchor="start" x="998" y="-783.3" font-family="Times,serif" font-size="14.00">fedexRegionName :string</text>
<text text-anchor="start" x="998" y="-768.3" font-family="Times,serif" font-size="14.00">fedexRegionNumber :integer</text>
<text text-anchor="start" x="998" y="-753.3" font-family="Times,serif" font-size="14.00">fedexRegionPhone :string</text>
<text text-anchor="start" x="998" y="-738.3" font-family="Times,serif" font-size="14.00">contractorRegionName :string</text>
<text text-anchor="start" x="998" y="-723.3" font-family="Times,serif" font-size="14.00">contractorRegionNumber :integer</text>
<text text-anchor="start" x="998" y="-708.3" font-family="Times,serif" font-size="14.00">created_at :datetime</text>
<text text-anchor="start" x="998" y="-693.3" font-family="Times,serif" font-size="14.00">updated_at :datetime</text>
</g>
<!-- Role -->
<g id="node11" class="node"><title>Role</title>
<path fill="none" stroke="black" d="M1226,-715.5C1226,-715.5 1336,-715.5 1336,-715.5 1342,-715.5 1348,-721.5 1348,-727.5 1348,-727.5 1348,-794.5 1348,-794.5 1348,-800.5 1342,-806.5 1336,-806.5 1336,-806.5 1226,-806.5 1226,-806.5 1220,-806.5 1214,-800.5 1214,-794.5 1214,-794.5 1214,-727.5 1214,-727.5 1214,-721.5 1220,-715.5 1226,-715.5"/>
<text text-anchor="middle" x="1281" y="-791.3" font-family="Times,serif" font-size="14.00">Role</text>
<polyline fill="none" stroke="black" points="1214,-783.5 1348,-783.5 "/>
<text text-anchor="start" x="1222" y="-768.3" font-family="Times,serif" font-size="14.00">id :integer</text>
<text text-anchor="start" x="1222" y="-753.3" font-family="Times,serif" font-size="14.00">name :string</text>
<text text-anchor="start" x="1222" y="-738.3" font-family="Times,serif" font-size="14.00">created_at :datetime</text>
<text text-anchor="start" x="1222" y="-723.3" font-family="Times,serif" font-size="14.00">updated_at :datetime</text>
</g>
<!-- ServiceType -->
<g id="node12" class="node"><title>ServiceType</title>
<path fill="none" stroke="black" d="M1378,-700.5C1378,-700.5 1488,-700.5 1488,-700.5 1494,-700.5 1500,-706.5 1500,-712.5 1500,-712.5 1500,-809.5 1500,-809.5 1500,-815.5 1494,-821.5 1488,-821.5 1488,-821.5 1378,-821.5 1378,-821.5 1372,-821.5 1366,-815.5 1366,-809.5 1366,-809.5 1366,-712.5 1366,-712.5 1366,-706.5 1372,-700.5 1378,-700.5"/>
<text text-anchor="middle" x="1433" y="-806.3" font-family="Times,serif" font-size="14.00">ServiceType</text>
<polyline fill="none" stroke="black" points="1366,-798.5 1500,-798.5 "/>
<text text-anchor="start" x="1374" y="-783.3" font-family="Times,serif" font-size="14.00">id :integer</text>
<text text-anchor="start" x="1374" y="-768.3" font-family="Times,serif" font-size="14.00">serviceType :string</text>
<text text-anchor="start" x="1374" y="-753.3" font-family="Times,serif" font-size="14.00">startDate :datetime</text>
<text text-anchor="start" x="1374" y="-738.3" font-family="Times,serif" font-size="14.00">endDate :datetime</text>
<text text-anchor="start" x="1374" y="-723.3" font-family="Times,serif" font-size="14.00">created_at :datetime</text>
<text text-anchor="start" x="1374" y="-708.3" font-family="Times,serif" font-size="14.00">updated_at :datetime</text>
</g>
<!-- Vehicle -->
<g id="node17" class="node"><title>Vehicle</title>
<path fill="none" stroke="black" d="M1591.5,-332.5C1591.5,-332.5 1750.5,-332.5 1750.5,-332.5 1756.5,-332.5 1762.5,-338.5 1762.5,-344.5 1762.5,-344.5 1762.5,-621.5 1762.5,-621.5 1762.5,-627.5 1756.5,-633.5 1750.5,-633.5 1750.5,-633.5 1591.5,-633.5 1591.5,-633.5 1585.5,-633.5 1579.5,-627.5 1579.5,-621.5 1579.5,-621.5 1579.5,-344.5 1579.5,-344.5 1579.5,-338.5 1585.5,-332.5 1591.5,-332.5"/>
<text text-anchor="middle" x="1671" y="-618.3" font-family="Times,serif" font-size="14.00">Vehicle</text>
<polyline fill="none" stroke="black" points="1579.5,-610.5 1762.5,-610.5 "/>
<text text-anchor="start" x="1587.5" y="-595.3" font-family="Times,serif" font-size="14.00">id :integer</text>
<text text-anchor="start" x="1587.5" y="-580.3" font-family="Times,serif" font-size="14.00">fedexVehicleNumber :integer</text>
<text text-anchor="start" x="1587.5" y="-565.3" font-family="Times,serif" font-size="14.00">fedexVehicleName :string</text>
<text text-anchor="start" x="1587.5" y="-550.3" font-family="Times,serif" font-size="14.00">contractorNumber :integer</text>
<text text-anchor="start" x="1587.5" y="-535.3" font-family="Times,serif" font-size="14.00">contractorName :string</text>
<text text-anchor="start" x="1587.5" y="-520.3" font-family="Times,serif" font-size="14.00">vin :string</text>
<text text-anchor="start" x="1587.5" y="-505.3" font-family="Times,serif" font-size="14.00">startDate :datetime</text>
<text text-anchor="start" x="1587.5" y="-490.3" font-family="Times,serif" font-size="14.00">endDate :datetime</text>
<text text-anchor="start" x="1587.5" y="-475.3" font-family="Times,serif" font-size="14.00">activeBoolean :boolean</text>
<text text-anchor="start" x="1587.5" y="-460.3" font-family="Times,serif" font-size="14.00">vehicleType_id :integer</text>
<text text-anchor="start" x="1587.5" y="-445.3" font-family="Times,serif" font-size="14.00">vehicleFuel_id :integer</text>
<text text-anchor="start" x="1587.5" y="-430.3" font-family="Times,serif" font-size="14.00">vehicleOdometer_id :integer</text>
<text text-anchor="start" x="1587.5" y="-415.3" font-family="Times,serif" font-size="14.00">created_at :datetime</text>
<text text-anchor="start" x="1587.5" y="-400.3" font-family="Times,serif" font-size="14.00">updated_at :datetime</text>
<text text-anchor="start" x="1587.5" y="-385.3" font-family="Times,serif" font-size="14.00">service_type_id :integer</text>
<text text-anchor="start" x="1587.5" y="-370.3" font-family="Times,serif" font-size="14.00">vehicle_type_id :integer</text>
<text text-anchor="start" x="1587.5" y="-355.3" font-family="Times,serif" font-size="14.00">vehicle_fuel_id :integer</text>
<text text-anchor="start" x="1587.5" y="-340.3" font-family="Times,serif" font-size="14.00">vehicle_odometer_id :integer</text>
</g>
<!-- ServiceType&#45;&gt;Vehicle -->
<g id="edge10" class="edge"><title>ServiceType&#45;&gt;Vehicle</title>
<path fill="none" stroke="#d993d3" d="M1489.22,-694.196C1496.21,-686.042 1503.27,-677.825 1510,-670 1530.24,-646.485 1551.95,-621.34 1572.68,-597.382"/>
<ellipse fill="none" stroke="#d993d3" cx="1486.5" cy="-697.375" rx="4.00002" ry="4.00002"/>
<polygon fill="#d993d3" stroke="#d993d3" points="1572.82,-597.212 1582.77,-592.594 1576.09,-593.43 1579.37,-589.649 1579.37,-589.649 1579.37,-589.649 1576.09,-593.43 1575.96,-586.705 1572.82,-597.212 1572.82,-597.212"/>
</g>
<!-- State&#45;&gt;PsaState -->
<g id="edge11" class="edge"><title>State&#45;&gt;PsaState</title>
<path fill="none" stroke="#c96b57" d="M981.146,-158.498C979.179,-145.059 977.091,-130.791 975.114,-117.282"/>
<ellipse fill="none" stroke="#c96b57" cx="981.761" cy="-162.701" rx="4.00001" ry="4.00001"/>
<polygon fill="#c96b57" stroke="#c96b57" points="975.076,-117.02 978.081,-106.474 974.352,-112.073 973.628,-107.126 973.628,-107.126 973.628,-107.126 974.352,-112.073 969.176,-107.777 975.076,-117.02 975.076,-117.02"/>
</g>
<!-- Terminal -->
<g id="node14" class="node"><title>Terminal</title>
<path fill="none" stroke="black" d="M292.5,-407.5C292.5,-407.5 485.5,-407.5 485.5,-407.5 491.5,-407.5 497.5,-413.5 497.5,-419.5 497.5,-419.5 497.5,-546.5 497.5,-546.5 497.5,-552.5 491.5,-558.5 485.5,-558.5 485.5,-558.5 292.5,-558.5 292.5,-558.5 286.5,-558.5 280.5,-552.5 280.5,-546.5 280.5,-546.5 280.5,-419.5 280.5,-419.5 280.5,-413.5 286.5,-407.5 292.5,-407.5"/>
<text text-anchor="middle" x="389" y="-543.3" font-family="Times,serif" font-size="14.00">Terminal</text>
<polyline fill="none" stroke="black" points="280.5,-535.5 497.5,-535.5 "/>
<text text-anchor="start" x="288.5" y="-520.3" font-family="Times,serif" font-size="14.00">id :integer</text>
<text text-anchor="start" x="288.5" y="-505.3" font-family="Times,serif" font-size="14.00">fedexTerminalName :string</text>
<text text-anchor="start" x="288.5" y="-490.3" font-family="Times,serif" font-size="14.00">fedexTerminalNumber :integer</text>
<text text-anchor="start" x="288.5" y="-475.3" font-family="Times,serif" font-size="14.00">contractorTerminalName :string</text>
<text text-anchor="start" x="288.5" y="-460.3" font-family="Times,serif" font-size="14.00">contractorTerminalNumber :integer</text>
<text text-anchor="start" x="288.5" y="-445.3" font-family="Times,serif" font-size="14.00">colocationBoolean :boolean</text>
<text text-anchor="start" x="288.5" y="-430.3" font-family="Times,serif" font-size="14.00">created_at :datetime</text>
<text text-anchor="start" x="288.5" y="-415.3" font-family="Times,serif" font-size="14.00">updated_at :datetime</text>
</g>
<!-- Terminal&#45;&gt;Note -->
<g id="edge12" class="edge"><title>Terminal&#45;&gt;Note</title>
<path fill="none" stroke="#90dbc7" d="M389,-398.903C389,-369.305 389,-335.941 389,-306.171"/>
<ellipse fill="none" stroke="#90dbc7" cx="389" cy="-403.208" rx="4" ry="4"/>
<polygon fill="#90dbc7" stroke="#90dbc7" points="389,-305.803 393.5,-295.803 389,-300.803 389,-295.803 389,-295.803 389,-295.803 389,-300.803 384.5,-295.803 389,-305.803 389,-305.803"/>
</g>
<!-- UserRole -->
<g id="node16" class="node"><title>UserRole</title>
<path fill="none" stroke="black" d="M536,-1C536,-1 646,-1 646,-1 652,-1 658,-7 658,-13 658,-13 658,-95 658,-95 658,-101 652,-107 646,-107 646,-107 536,-107 536,-107 530,-107 524,-101 524,-95 524,-95 524,-13 524,-13 524,-7 530,-1 536,-1"/>
<text text-anchor="middle" x="591" y="-91.8" font-family="Times,serif" font-size="14.00">UserRole</text>
<polyline fill="none" stroke="black" points="524,-84 658,-84 "/>
<text text-anchor="start" x="532" y="-68.8" font-family="Times,serif" font-size="14.00">id :integer</text>
<text text-anchor="start" x="532" y="-53.8" font-family="Times,serif" font-size="14.00">user_id :integer</text>
<text text-anchor="start" x="532" y="-38.8" font-family="Times,serif" font-size="14.00">role_id :integer</text>
<text text-anchor="start" x="532" y="-23.8" font-family="Times,serif" font-size="14.00">created_at :datetime</text>
<text text-anchor="start" x="532" y="-8.8" font-family="Times,serif" font-size="14.00">updated_at :datetime</text>
</g>
<!-- User&#45;&gt;UserRole -->
<g id="edge13" class="edge"><title>User&#45;&gt;UserRole</title>
<path fill="none" stroke="#e2393d" d="M591,-151.21C591,-139.915 591,-128.248 591,-117.104"/>
<ellipse fill="none" stroke="#e2393d" cx="591" cy="-155.328" rx="4" ry="4"/>
<polygon fill="#e2393d" stroke="#e2393d" points="591,-117.041 595.5,-107.041 591,-112.041 591,-107.041 591,-107.041 591,-107.041 591,-112.041 586.5,-107.041 591,-117.041 591,-117.041"/>
</g>
<!-- VehicleFuel -->
<g id="node18" class="node"><title>VehicleFuel</title>
<path fill="none" stroke="black" d="M1530.5,-700.5C1530.5,-700.5 1643.5,-700.5 1643.5,-700.5 1649.5,-700.5 1655.5,-706.5 1655.5,-712.5 1655.5,-712.5 1655.5,-809.5 1655.5,-809.5 1655.5,-815.5 1649.5,-821.5 1643.5,-821.5 1643.5,-821.5 1530.5,-821.5 1530.5,-821.5 1524.5,-821.5 1518.5,-815.5 1518.5,-809.5 1518.5,-809.5 1518.5,-712.5 1518.5,-712.5 1518.5,-706.5 1524.5,-700.5 1530.5,-700.5"/>
<text text-anchor="middle" x="1587" y="-806.3" font-family="Times,serif" font-size="14.00">VehicleFuel</text>
<polyline fill="none" stroke="black" points="1518.5,-798.5 1655.5,-798.5 "/>
<text text-anchor="start" x="1526.5" y="-783.3" font-family="Times,serif" font-size="14.00">id :integer</text>
<text text-anchor="start" x="1526.5" y="-768.3" font-family="Times,serif" font-size="14.00">fuelType :string</text>
<text text-anchor="start" x="1526.5" y="-753.3" font-family="Times,serif" font-size="14.00">fuelTankSize :integer</text>
<text text-anchor="start" x="1526.5" y="-738.3" font-family="Times,serif" font-size="14.00">mpg :integer</text>
<text text-anchor="start" x="1526.5" y="-723.3" font-family="Times,serif" font-size="14.00">created_at :datetime</text>
<text text-anchor="start" x="1526.5" y="-708.3" font-family="Times,serif" font-size="14.00">updated_at :datetime</text>
</g>
<!-- VehicleFuel&#45;&gt;Vehicle -->
<g id="edge14" class="edge"><title>VehicleFuel&#45;&gt;Vehicle</title>
<path fill="none" stroke="#4b78df" d="M1607.6,-692.329C1612.22,-677.118 1617.33,-660.351 1622.57,-643.135"/>
<ellipse fill="none" stroke="#4b78df" cx="1606.29" cy="-696.625" rx="4.00001" ry="4.00001"/>
<polygon fill="#4b78df" stroke="#4b78df" points="1622.58,-643.098 1629.8,-634.841 1624.03,-638.314 1625.49,-633.531 1625.49,-633.531 1625.49,-633.531 1624.03,-638.314 1621.19,-632.221 1622.58,-643.098 1622.58,-643.098"/>
</g>
<!-- VehicleOdometer -->
<g id="node19" class="node"><title>VehicleOdometer</title>
<path fill="none" stroke="black" d="M1686,-700.5C1686,-700.5 1824,-700.5 1824,-700.5 1830,-700.5 1836,-706.5 1836,-712.5 1836,-712.5 1836,-809.5 1836,-809.5 1836,-815.5 1830,-821.5 1824,-821.5 1824,-821.5 1686,-821.5 1686,-821.5 1680,-821.5 1674,-815.5 1674,-809.5 1674,-809.5 1674,-712.5 1674,-712.5 1674,-706.5 1680,-700.5 1686,-700.5"/>
<text text-anchor="middle" x="1755" y="-806.3" font-family="Times,serif" font-size="14.00">VehicleOdometer</text>
<polyline fill="none" stroke="black" points="1674,-798.5 1836,-798.5 "/>
<text text-anchor="start" x="1682" y="-783.3" font-family="Times,serif" font-size="14.00">id :integer</text>
<text text-anchor="start" x="1682" y="-768.3" font-family="Times,serif" font-size="14.00">odometerReading :integer</text>
<text text-anchor="start" x="1682" y="-753.3" font-family="Times,serif" font-size="14.00">startDate :datetime</text>
<text text-anchor="start" x="1682" y="-738.3" font-family="Times,serif" font-size="14.00">endDate :datetime</text>
<text text-anchor="start" x="1682" y="-723.3" font-family="Times,serif" font-size="14.00">created_at :datetime</text>
<text text-anchor="start" x="1682" y="-708.3" font-family="Times,serif" font-size="14.00">updated_at :datetime</text>
</g>
<!-- VehicleOdometer&#45;&gt;Vehicle -->
<g id="edge15" class="edge"><title>VehicleOdometer&#45;&gt;Vehicle</title>
<path fill="none" stroke="#35c65d" d="M1734.4,-692.329C1729.78,-677.118 1724.67,-660.351 1719.43,-643.135"/>
<ellipse fill="none" stroke="#35c65d" cx="1735.71" cy="-696.625" rx="4.00001" ry="4.00001"/>
<polygon fill="#35c65d" stroke="#35c65d" points="1719.42,-643.098 1720.81,-632.221 1717.97,-638.314 1716.51,-633.531 1716.51,-633.531 1716.51,-633.531 1717.97,-638.314 1712.2,-634.841 1719.42,-643.098 1719.42,-643.098"/>
</g>
<!-- VehicleType -->
<g id="node20" class="node"><title>VehicleType</title>
<path fill="none" stroke="black" d="M1866,-693C1866,-693 1982,-693 1982,-693 1988,-693 1994,-699 1994,-705 1994,-705 1994,-817 1994,-817 1994,-823 1988,-829 1982,-829 1982,-829 1866,-829 1866,-829 1860,-829 1854,-823 1854,-817 1854,-817 1854,-705 1854,-705 1854,-699 1860,-693 1866,-693"/>
<text text-anchor="middle" x="1924" y="-813.8" font-family="Times,serif" font-size="14.00">VehicleType</text>
<polyline fill="none" stroke="black" points="1854,-806 1994,-806 "/>
<text text-anchor="start" x="1862" y="-790.8" font-family="Times,serif" font-size="14.00">id :integer</text>
<text text-anchor="start" x="1862" y="-775.8" font-family="Times,serif" font-size="14.00">vehicleSize :string</text>
<text text-anchor="start" x="1862" y="-760.8" font-family="Times,serif" font-size="14.00">bulkBoolean :boolean</text>
<text text-anchor="start" x="1862" y="-745.8" font-family="Times,serif" font-size="14.00">bodyMake :string</text>
<text text-anchor="start" x="1862" y="-730.8" font-family="Times,serif" font-size="14.00">bodyModel :string</text>
<text text-anchor="start" x="1862" y="-715.8" font-family="Times,serif" font-size="14.00">created_at :datetime</text>
<text text-anchor="start" x="1862" y="-700.8" font-family="Times,serif" font-size="14.00">updated_at :datetime</text>
</g>
<!-- VehicleType&#45;&gt;Vehicle -->
<g id="edge16" class="edge"><title>VehicleType&#45;&gt;Vehicle</title>
<path fill="none" stroke="#7036ac" d="M1860.06,-686.763C1854.99,-681.072 1849.92,-675.431 1845,-670 1820.84,-643.344 1794.47,-614.847 1769.73,-588.37"/>
<ellipse fill="none" stroke="#7036ac" cx="1862.9" cy="-689.962" rx="4.00002" ry="4.00002"/>
<polygon fill="#7036ac" stroke="#7036ac" points="1769.62,-588.262 1766.08,-577.885 1766.21,-584.61 1762.79,-580.959 1762.79,-580.959 1762.79,-580.959 1766.21,-584.61 1759.51,-584.033 1769.62,-588.262 1769.62,-588.262"/>
</g>
<!-- Zip&#45;&gt;Psazip -->
<g id="edge17" class="edge"><title>Zip&#45;&gt;Psazip</title>
<path fill="none" stroke="#dc1041" d="M789.38,-166.223C786.221,-150.523 782.731,-133.18 779.466,-116.952"/>
<ellipse fill="none" stroke="#dc1041" cx="790.194" cy="-170.265" rx="4.00001" ry="4.00001"/>
<polygon fill="#dc1041" stroke="#dc1041" points="779.44,-116.821 781.878,-106.13 778.453,-111.919 777.467,-107.017 777.467,-107.017 777.467,-107.017 778.453,-111.919 773.055,-107.905 779.44,-116.821 779.44,-116.821"/>
</g>
</g>
</svg>
