<?xml version="1.0" encoding="UTF-8" standalone="no"?>
<!DOCTYPE svg PUBLIC "-//W3C//DTD SVG 1.1//EN"
 "http://www.w3.org/Graphics/SVG/1.1/DTD/svg11.dtd">
<!-- Generated by graphviz version 2.29.20121209.0545 (20121209.0545)
 -->
<!-- Title: models_diagram Pages: 1 -->
<svg width="2096pt" height="1478pt"
 viewBox="0.00 0.00 2096.27 1478.00" xmlns="http://www.w3.org/2000/svg" xmlns:xlink="http://www.w3.org/1999/xlink">
<g id="graph0" class="graph" transform="scale(1 1) rotate(0) translate(4 1474)">
<title>models_diagram</title>
<polygon fill="white" stroke="white" points="-4,5 -4,-1474 2093.27,-1474 2093.27,5 -4,5"/>
<!-- _diagram_info -->
<g id="node1" class="node"><title>_diagram_info</title>
<text text-anchor="start" x="612.272" y="-1395.6" font-family="Times,serif" font-size="13.00">Models diagram</text>
<text text-anchor="start" x="612.272" y="-1381.6" font-family="Times,serif" font-size="13.00">Date: Dec 14 2012 &#45; 11:47</text>
<text text-anchor="start" x="612.272" y="-1367.6" font-family="Times,serif" font-size="13.00">Migration version: 20121214160647</text>
<text text-anchor="start" x="612.272" y="-1353.6" font-family="Times,serif" font-size="13.00">Generated by RailRoady 1.1.0</text>
<text text-anchor="start" x="612.272" y="-1339.6" font-family="Times,serif" font-size="13.00">http://railroady.prestonlee.com</text>
</g>
<!-- Addendum -->
<g id="node2" class="node"><title>Addendum</title>
<path fill="none" stroke="black" d="M817.272,-701C817.272,-701 1055.27,-701 1055.27,-701 1061.27,-701 1067.27,-707 1067.27,-713 1067.27,-713 1067.27,-885 1067.27,-885 1067.27,-891 1061.27,-897 1055.27,-897 1055.27,-897 817.272,-897 817.272,-897 811.272,-897 805.272,-891 805.272,-885 805.272,-885 805.272,-713 805.272,-713 805.272,-707 811.272,-701 817.272,-701"/>
<text text-anchor="middle" x="936.272" y="-881.8" font-family="Times,serif" font-size="14.00">Addendum</text>
<polyline fill="none" stroke="black" points="805.272,-874 1067.27,-874 "/>
<text text-anchor="start" x="813.272" y="-858.8" font-family="Times,serif" font-size="14.00">id :integer</text>
<text text-anchor="start" x="813.272" y="-843.8" font-family="Times,serif" font-size="14.00">fedexAddendumName :string</text>
<text text-anchor="start" x="813.272" y="-828.8" font-family="Times,serif" font-size="14.00">fedexAddendumNumber :integer</text>
<text text-anchor="start" x="813.272" y="-813.8" font-family="Times,serif" font-size="14.00">fedexContractorAddendumName :string</text>
<text text-anchor="start" x="813.272" y="-798.8" font-family="Times,serif" font-size="14.00">fedexContractorAddendumNumber :integer</text>
<text text-anchor="start" x="813.272" y="-783.8" font-family="Times,serif" font-size="14.00">content :text</text>
<text text-anchor="start" x="813.272" y="-768.8" font-family="Times,serif" font-size="14.00">startDate :datetime</text>
<text text-anchor="start" x="813.272" y="-753.8" font-family="Times,serif" font-size="14.00">endDate :datetime</text>
<text text-anchor="start" x="813.272" y="-738.8" font-family="Times,serif" font-size="14.00">created_at :datetime</text>
<text text-anchor="start" x="813.272" y="-723.8" font-family="Times,serif" font-size="14.00">updated_at :datetime</text>
<text text-anchor="start" x="813.272" y="-708.8" font-family="Times,serif" font-size="14.00">fedexContract_id :integer</text>
</g>
<!-- Note -->
<g id="node10" class="node"><title>Note</title>
<path fill="none" stroke="black" d="M933.272,-0.5C933.272,-0.5 1043.27,-0.5 1043.27,-0.5 1049.27,-0.5 1055.27,-6.5 1055.27,-12.5 1055.27,-12.5 1055.27,-139.5 1055.27,-139.5 1055.27,-145.5 1049.27,-151.5 1043.27,-151.5 1043.27,-151.5 933.272,-151.5 933.272,-151.5 927.272,-151.5 921.272,-145.5 921.272,-139.5 921.272,-139.5 921.272,-12.5 921.272,-12.5 921.272,-6.5 927.272,-0.5 933.272,-0.5"/>
<text text-anchor="middle" x="988.272" y="-136.3" font-family="Times,serif" font-size="14.00">Note</text>
<polyline fill="none" stroke="black" points="921.272,-128.5 1055.27,-128.5 "/>
<text text-anchor="start" x="929.272" y="-113.3" font-family="Times,serif" font-size="14.00">id :integer</text>
<text text-anchor="start" x="929.272" y="-98.3" font-family="Times,serif" font-size="14.00">notable_id :integer</text>
<text text-anchor="start" x="929.272" y="-83.3" font-family="Times,serif" font-size="14.00">notable_type :string</text>
<text text-anchor="start" x="929.272" y="-68.3" font-family="Times,serif" font-size="14.00">content :text</text>
<text text-anchor="start" x="929.272" y="-53.3" font-family="Times,serif" font-size="14.00">startDate :datetime</text>
<text text-anchor="start" x="929.272" y="-38.3" font-family="Times,serif" font-size="14.00">endDate :datetime</text>
<text text-anchor="start" x="929.272" y="-23.3" font-family="Times,serif" font-size="14.00">created_at :datetime</text>
<text text-anchor="start" x="929.272" y="-8.3" font-family="Times,serif" font-size="14.00">updated_at :datetime</text>
</g>
<!-- Addendum&#45;&gt;Note -->
<g id="edge1" class="edge"><title>Addendum&#45;&gt;Note</title>
<path fill="none" stroke="#1d4ba3" d="M940.807,-692.665C946.518,-570.948 957.64,-364.718 974.272,-188 975.078,-179.429 976.025,-170.499 977.04,-161.591"/>
<ellipse fill="none" stroke="#1d4ba3" cx="940.609" cy="-696.924" rx="4" ry="4"/>
<polygon fill="#1d4ba3" stroke="#1d4ba3" points="977.051,-161.496 982.68,-152.085 977.63,-156.53 978.21,-151.563 978.21,-151.563 978.21,-151.563 977.63,-156.53 973.74,-151.042 977.051,-161.496 977.051,-161.496"/>
</g>
<!-- Business -->
<g id="node3" class="node"><title>Business</title>
<path fill="none" stroke="black" d="M1109.77,-1017C1109.77,-1017 1226.77,-1017 1226.77,-1017 1232.77,-1017 1238.77,-1023 1238.77,-1029 1238.77,-1029 1238.77,-1201 1238.77,-1201 1238.77,-1207 1232.77,-1213 1226.77,-1213 1226.77,-1213 1109.77,-1213 1109.77,-1213 1103.77,-1213 1097.77,-1207 1097.77,-1201 1097.77,-1201 1097.77,-1029 1097.77,-1029 1097.77,-1023 1103.77,-1017 1109.77,-1017"/>
<text text-anchor="middle" x="1168.27" y="-1197.8" font-family="Times,serif" font-size="14.00">Business</text>
<polyline fill="none" stroke="black" points="1097.77,-1190 1238.77,-1190 "/>
<text text-anchor="start" x="1105.77" y="-1174.8" font-family="Times,serif" font-size="14.00">id :integer</text>
<text text-anchor="start" x="1105.77" y="-1159.8" font-family="Times,serif" font-size="14.00">name :string</text>
<text text-anchor="start" x="1105.77" y="-1144.8" font-family="Times,serif" font-size="14.00">taxIDNumber :string</text>
<text text-anchor="start" x="1105.77" y="-1129.8" font-family="Times,serif" font-size="14.00">address :string</text>
<text text-anchor="start" x="1105.77" y="-1114.8" font-family="Times,serif" font-size="14.00">city :string</text>
<text text-anchor="start" x="1105.77" y="-1099.8" font-family="Times,serif" font-size="14.00">state :string</text>
<text text-anchor="start" x="1105.77" y="-1084.8" font-family="Times,serif" font-size="14.00">zip :string</text>
<text text-anchor="start" x="1105.77" y="-1069.8" font-family="Times,serif" font-size="14.00">country :string</text>
<text text-anchor="start" x="1105.77" y="-1054.8" font-family="Times,serif" font-size="14.00">created_at :datetime</text>
<text text-anchor="start" x="1105.77" y="-1039.8" font-family="Times,serif" font-size="14.00">updated_at :datetime</text>
<text text-anchor="start" x="1105.77" y="-1024.8" font-family="Times,serif" font-size="14.00">employees_id :integer</text>
</g>
<!-- Business&#45;&gt;Note -->
<g id="edge2" class="edge"><title>Business&#45;&gt;Note</title>
<path fill="none" stroke="#526729" d="M1246.91,-1099.61C1322.52,-1081.13 1432.7,-1040.98 1484.27,-958 1537.57,-872.253 1472.94,-213.504 1451.27,-188 1402,-130 1184.08,-98.0094 1065.6,-84.6191"/>
<ellipse fill="none" stroke="#526729" cx="1242.68" cy="-1100.61" rx="4.00001" ry="4.00001"/>
<polygon fill="#526729" stroke="#526729" points="1065.44,-84.6013 1056,-79.0231 1060.47,-84.0484 1055.5,-83.4955 1055.5,-83.4955 1055.5,-83.4955 1060.47,-84.0484 1055.01,-87.9679 1065.44,-84.6013 1065.44,-84.6013"/>
</g>
<!-- Psa -->
<g id="node11" class="node"><title>Psa</title>
<path fill="none" stroke="black" d="M1591.77,-392.5C1591.77,-392.5 1758.77,-392.5 1758.77,-392.5 1764.77,-392.5 1770.77,-398.5 1770.77,-404.5 1770.77,-404.5 1770.77,-591.5 1770.77,-591.5 1770.77,-597.5 1764.77,-603.5 1758.77,-603.5 1758.77,-603.5 1591.77,-603.5 1591.77,-603.5 1585.77,-603.5 1579.77,-597.5 1579.77,-591.5 1579.77,-591.5 1579.77,-404.5 1579.77,-404.5 1579.77,-398.5 1585.77,-392.5 1591.77,-392.5"/>
<text text-anchor="middle" x="1675.27" y="-588.3" font-family="Times,serif" font-size="14.00">Psa</text>
<polyline fill="none" stroke="black" points="1579.77,-580.5 1770.77,-580.5 "/>
<text text-anchor="start" x="1587.77" y="-565.3" font-family="Times,serif" font-size="14.00">id :integer</text>
<text text-anchor="start" x="1587.77" y="-550.3" font-family="Times,serif" font-size="14.00">fedexPSAName :string</text>
<text text-anchor="start" x="1587.77" y="-535.3" font-family="Times,serif" font-size="14.00">fedexPSANumber :integer</text>
<text text-anchor="start" x="1587.77" y="-520.3" font-family="Times,serif" font-size="14.00">contractorPSAName :string</text>
<text text-anchor="start" x="1587.77" y="-505.3" font-family="Times,serif" font-size="14.00">contractorPSANumber :integer</text>
<text text-anchor="start" x="1587.77" y="-490.3" font-family="Times,serif" font-size="14.00">activeBoolean :boolean</text>
<text text-anchor="start" x="1587.77" y="-475.3" font-family="Times,serif" font-size="14.00">startDate :datetime</text>
<text text-anchor="start" x="1587.77" y="-460.3" font-family="Times,serif" font-size="14.00">endDate :datetime</text>
<text text-anchor="start" x="1587.77" y="-445.3" font-family="Times,serif" font-size="14.00">created_at :datetime</text>
<text text-anchor="start" x="1587.77" y="-430.3" font-family="Times,serif" font-size="14.00">updated_at :datetime</text>
<text text-anchor="start" x="1587.77" y="-415.3" font-family="Times,serif" font-size="14.00">regions_id :integer</text>
<text text-anchor="start" x="1587.77" y="-400.3" font-family="Times,serif" font-size="14.00">businesses_id :integer</text>
</g>
<!-- Business&#45;&gt;Psa -->
<g id="edge3" class="edge"><title>Business&#45;&gt;Psa</title>
<path fill="none" stroke="#81e813" d="M1247.03,-1098.05C1325.74,-1078.2 1445.16,-1036.82 1517.27,-958 1604.95,-862.17 1644.32,-715.368 1661.77,-613.698"/>
<ellipse fill="none" stroke="#81e813" cx="1242.95" cy="-1099.06" rx="4.00001" ry="4.00001"/>
<polygon fill="#81e813" stroke="#81e813" points="1661.8,-613.558 1667.88,-604.436 1662.62,-608.626 1663.45,-603.695 1663.45,-603.695 1663.45,-603.695 1662.62,-608.626 1659.01,-602.953 1661.8,-613.558 1661.8,-613.558"/>
</g>
<!-- Employee -->
<g id="node7" class="node"><title>Employee</title>
<path fill="none" stroke="black" d="M1097.77,-678.5C1097.77,-678.5 1238.77,-678.5 1238.77,-678.5 1244.77,-678.5 1250.77,-684.5 1250.77,-690.5 1250.77,-690.5 1250.77,-907.5 1250.77,-907.5 1250.77,-913.5 1244.77,-919.5 1238.77,-919.5 1238.77,-919.5 1097.77,-919.5 1097.77,-919.5 1091.77,-919.5 1085.77,-913.5 1085.77,-907.5 1085.77,-907.5 1085.77,-690.5 1085.77,-690.5 1085.77,-684.5 1091.77,-678.5 1097.77,-678.5"/>
<text text-anchor="middle" x="1168.27" y="-904.3" font-family="Times,serif" font-size="14.00">Employee</text>
<polyline fill="none" stroke="black" points="1085.77,-896.5 1250.77,-896.5 "/>
<text text-anchor="start" x="1093.77" y="-881.3" font-family="Times,serif" font-size="14.00">id :integer</text>
<text text-anchor="start" x="1093.77" y="-866.3" font-family="Times,serif" font-size="14.00">firstName :string</text>
<text text-anchor="start" x="1093.77" y="-851.3" font-family="Times,serif" font-size="14.00">lastName :string</text>
<text text-anchor="start" x="1093.77" y="-836.3" font-family="Times,serif" font-size="14.00">fedexNumber :integer</text>
<text text-anchor="start" x="1093.77" y="-821.3" font-family="Times,serif" font-size="14.00">contractorNumber :integer</text>
<text text-anchor="start" x="1093.77" y="-806.3" font-family="Times,serif" font-size="14.00">hireDate :date</text>
<text text-anchor="start" x="1093.77" y="-791.3" font-family="Times,serif" font-size="14.00">dateOfBirth :date</text>
<text text-anchor="start" x="1093.77" y="-776.3" font-family="Times,serif" font-size="14.00">activeBoolean :boolean</text>
<text text-anchor="start" x="1093.77" y="-761.3" font-family="Times,serif" font-size="14.00">startDate :datetime</text>
<text text-anchor="start" x="1093.77" y="-746.3" font-family="Times,serif" font-size="14.00">endDate :datetime</text>
<text text-anchor="start" x="1093.77" y="-731.3" font-family="Times,serif" font-size="14.00">terminationDate :datetime</text>
<text text-anchor="start" x="1093.77" y="-716.3" font-family="Times,serif" font-size="14.00">created_at :datetime</text>
<text text-anchor="start" x="1093.77" y="-701.3" font-family="Times,serif" font-size="14.00">updated_at :datetime</text>
<text text-anchor="start" x="1093.77" y="-686.3" font-family="Times,serif" font-size="14.00">business_id :integer</text>
</g>
<!-- Business&#45;&gt;Employee -->
<g id="edge4" class="edge"><title>Business&#45;&gt;Employee</title>
<path fill="none" stroke="#fa6569" d="M1168.27,-1008.44C1168.27,-983.283 1168.27,-956.147 1168.27,-930.037"/>
<ellipse fill="none" stroke="#fa6569" cx="1168.27" cy="-1012.8" rx="4" ry="4"/>
<polygon fill="#fa6569" stroke="#fa6569" points="1168.27,-929.7 1172.77,-919.7 1168.27,-924.7 1168.27,-919.7 1168.27,-919.7 1168.27,-919.7 1168.27,-924.7 1163.77,-919.7 1168.27,-929.7 1168.27,-929.7"/>
</g>
<!-- Vehicle -->
<g id="node21" class="node"><title>Vehicle</title>
<path fill="none" stroke="black" d="M401.772,-641C401.772,-641 560.772,-641 560.772,-641 566.772,-641 572.772,-647 572.772,-653 572.772,-653 572.772,-945 572.772,-945 572.772,-951 566.772,-957 560.772,-957 560.772,-957 401.772,-957 401.772,-957 395.772,-957 389.772,-951 389.772,-945 389.772,-945 389.772,-653 389.772,-653 389.772,-647 395.772,-641 401.772,-641"/>
<text text-anchor="middle" x="481.272" y="-941.8" font-family="Times,serif" font-size="14.00">Vehicle</text>
<polyline fill="none" stroke="black" points="389.772,-934 572.772,-934 "/>
<text text-anchor="start" x="397.772" y="-918.8" font-family="Times,serif" font-size="14.00">id :integer</text>
<text text-anchor="start" x="397.772" y="-903.8" font-family="Times,serif" font-size="14.00">fedexVehicleNumber :integer</text>
<text text-anchor="start" x="397.772" y="-888.8" font-family="Times,serif" font-size="14.00">fedexVehicleName :string</text>
<text text-anchor="start" x="397.772" y="-873.8" font-family="Times,serif" font-size="14.00">contractorNumber :integer</text>
<text text-anchor="start" x="397.772" y="-858.8" font-family="Times,serif" font-size="14.00">contractorName :string</text>
<text text-anchor="start" x="397.772" y="-843.8" font-family="Times,serif" font-size="14.00">vin :string</text>
<text text-anchor="start" x="397.772" y="-828.8" font-family="Times,serif" font-size="14.00">startDate :datetime</text>
<text text-anchor="start" x="397.772" y="-813.8" font-family="Times,serif" font-size="14.00">endDate :datetime</text>
<text text-anchor="start" x="397.772" y="-798.8" font-family="Times,serif" font-size="14.00">activeBoolean :boolean</text>
<text text-anchor="start" x="397.772" y="-783.8" font-family="Times,serif" font-size="14.00">vehicleType_id :integer</text>
<text text-anchor="start" x="397.772" y="-768.8" font-family="Times,serif" font-size="14.00">vehicleFuel_id :integer</text>
<text text-anchor="start" x="397.772" y="-753.8" font-family="Times,serif" font-size="14.00">vehicleOdometer_id :integer</text>
<text text-anchor="start" x="397.772" y="-738.8" font-family="Times,serif" font-size="14.00">created_at :datetime</text>
<text text-anchor="start" x="397.772" y="-723.8" font-family="Times,serif" font-size="14.00">updated_at :datetime</text>
<text text-anchor="start" x="397.772" y="-708.8" font-family="Times,serif" font-size="14.00">service_type_id :integer</text>
<text text-anchor="start" x="397.772" y="-693.8" font-family="Times,serif" font-size="14.00">business_id :integer</text>
<text text-anchor="start" x="397.772" y="-678.8" font-family="Times,serif" font-size="14.00">serviceFuel_id :integer</text>
<text text-anchor="start" x="397.772" y="-663.8" font-family="Times,serif" font-size="14.00">serviceOdometer_id :integer</text>
<text text-anchor="start" x="397.772" y="-648.8" font-family="Times,serif" font-size="14.00">serviceType_id :integer</text>
</g>
<!-- Business&#45;&gt;Vehicle -->
<g id="edge5" class="edge"><title>Business&#45;&gt;Vehicle</title>
<path fill="none" stroke="#277a8f" d="M1090.32,-1072.59C1041.71,-1047.77 977.359,-1016.73 918.272,-994 865.507,-973.703 848.857,-978.756 796.272,-958 722.503,-928.884 642.678,-888.744 581.842,-856.209"/>
<ellipse fill="none" stroke="#277a8f" cx="1094.12" cy="-1074.53" rx="4.00002" ry="4.00002"/>
<polygon fill="#277a8f" stroke="#277a8f" points="581.818,-856.197 575.136,-847.502 577.413,-853.832 573.007,-851.467 573.007,-851.467 573.007,-851.467 577.413,-853.832 570.879,-855.432 581.818,-856.197 581.818,-856.197"/>
</g>
<!-- DailyDataEmployee -->
<g id="node4" class="node"><title>DailyDataEmployee</title>
<path fill="none" stroke="black" d="M798.772,-445C798.772,-445 909.772,-445 909.772,-445 915.772,-445 921.772,-451 921.772,-457 921.772,-457 921.772,-539 921.772,-539 921.772,-545 915.772,-551 909.772,-551 909.772,-551 798.772,-551 798.772,-551 792.772,-551 786.772,-545 786.772,-539 786.772,-539 786.772,-457 786.772,-457 786.772,-451 792.772,-445 798.772,-445"/>
<text text-anchor="middle" x="854.272" y="-535.8" font-family="Times,serif" font-size="14.00">DailyDataEmployee</text>
<polyline fill="none" stroke="black" points="786.772,-528 921.772,-528 "/>
<text text-anchor="start" x="794.772" y="-512.8" font-family="Times,serif" font-size="14.00">id :integer</text>
<text text-anchor="start" x="794.772" y="-497.8" font-family="Times,serif" font-size="14.00">employee_id :integer</text>
<text text-anchor="start" x="794.772" y="-482.8" font-family="Times,serif" font-size="14.00">dailyData_id :integer</text>
<text text-anchor="start" x="794.772" y="-467.8" font-family="Times,serif" font-size="14.00">created_at :datetime</text>
<text text-anchor="start" x="794.772" y="-452.8" font-family="Times,serif" font-size="14.00">updated_at :datetime</text>
</g>
<!-- DailyDataEmployee&#45;&gt;Note -->
<g id="edge6" class="edge"><title>DailyDataEmployee&#45;&gt;Note</title>
<path fill="none" stroke="#6dd19b" d="M866.874,-436.87C880.849,-373.881 905.533,-272.537 936.272,-188 939.483,-179.168 943.134,-170.08 946.977,-161.088"/>
<ellipse fill="none" stroke="#6dd19b" cx="866.001" cy="-440.831" rx="4.00001" ry="4.00001"/>
<polygon fill="#6dd19b" stroke="#6dd19b" points="947.044,-160.932 955.166,-153.564 949.043,-156.349 951.041,-151.766 951.041,-151.766 951.041,-151.766 949.043,-156.349 946.916,-149.967 947.044,-160.932 947.044,-160.932"/>
</g>
<!-- DailyDataVehicle -->
<g id="node5" class="node"><title>DailyDataVehicle</title>
<path fill="none" stroke="black" d="M641.772,-445C641.772,-445 756.772,-445 756.772,-445 762.772,-445 768.772,-451 768.772,-457 768.772,-457 768.772,-539 768.772,-539 768.772,-545 762.772,-551 756.772,-551 756.772,-551 641.772,-551 641.772,-551 635.772,-551 629.772,-545 629.772,-539 629.772,-539 629.772,-457 629.772,-457 629.772,-451 635.772,-445 641.772,-445"/>
<text text-anchor="middle" x="699.272" y="-535.8" font-family="Times,serif" font-size="14.00">DailyDataVehicle</text>
<polyline fill="none" stroke="black" points="629.772,-528 768.772,-528 "/>
<text text-anchor="start" x="637.772" y="-512.8" font-family="Times,serif" font-size="14.00">id :integer</text>
<text text-anchor="start" x="637.772" y="-497.8" font-family="Times,serif" font-size="14.00">vehicle_id :integer</text>
<text text-anchor="start" x="637.772" y="-482.8" font-family="Times,serif" font-size="14.00">created_at :datetime</text>
<text text-anchor="start" x="637.772" y="-467.8" font-family="Times,serif" font-size="14.00">updated_at :datetime</text>
<text text-anchor="start" x="637.772" y="-452.8" font-family="Times,serif" font-size="14.00">daily_data_id :integer</text>
</g>
<!-- DailyDataVehicle&#45;&gt;Note -->
<g id="edge7" class="edge"><title>DailyDataVehicle&#45;&gt;Note</title>
<path fill="none" stroke="#7a1439" d="M729.153,-437.738C762.656,-373.605 820.446,-269.577 882.272,-188 892.001,-175.162 903.047,-162.197 914.244,-149.882"/>
<ellipse fill="none" stroke="#7a1439" cx="727.235" cy="-441.423" rx="4.00002" ry="4.00002"/>
<polygon fill="#7a1439" stroke="#7a1439" points="914.449,-149.659 924.535,-145.353 917.837,-145.982 921.225,-142.304 921.225,-142.304 921.225,-142.304 917.837,-145.982 917.916,-139.255 914.449,-149.659 914.449,-149.659"/>
</g>
<!-- DailyDatum -->
<g id="node6" class="node"><title>DailyDatum</title>
<path fill="none" stroke="black" d="M733.272,-994.5C733.272,-994.5 897.272,-994.5 897.272,-994.5 903.272,-994.5 909.272,-1000.5 909.272,-1006.5 909.272,-1006.5 909.272,-1223.5 909.272,-1223.5 909.272,-1229.5 903.272,-1235.5 897.272,-1235.5 897.272,-1235.5 733.272,-1235.5 733.272,-1235.5 727.272,-1235.5 721.272,-1229.5 721.272,-1223.5 721.272,-1223.5 721.272,-1006.5 721.272,-1006.5 721.272,-1000.5 727.272,-994.5 733.272,-994.5"/>
<text text-anchor="middle" x="815.272" y="-1220.3" font-family="Times,serif" font-size="14.00">DailyDatum</text>
<polyline fill="none" stroke="black" points="721.272,-1212.5 909.272,-1212.5 "/>
<text text-anchor="start" x="729.272" y="-1197.3" font-family="Times,serif" font-size="14.00">id :integer</text>
<text text-anchor="start" x="729.272" y="-1182.3" font-family="Times,serif" font-size="14.00">deliveryStop :integer</text>
<text text-anchor="start" x="729.272" y="-1167.3" font-family="Times,serif" font-size="14.00">deliveryPackage :integer</text>
<text text-anchor="start" x="729.272" y="-1152.3" font-family="Times,serif" font-size="14.00">pickupStop :integer</text>
<text text-anchor="start" x="729.272" y="-1137.3" font-family="Times,serif" font-size="14.00">pickupPackage :integer</text>
<text text-anchor="start" x="729.272" y="-1122.3" font-family="Times,serif" font-size="14.00">calltag :integer</text>
<text text-anchor="start" x="729.272" y="-1107.3" font-family="Times,serif" font-size="14.00">didNotAttempt :integer</text>
<text text-anchor="start" x="729.272" y="-1092.3" font-family="Times,serif" font-size="14.00">inboundLocalService :decimal</text>
<text text-anchor="start" x="729.272" y="-1077.3" font-family="Times,serif" font-size="14.00">earlyPickUp :integer</text>
<text text-anchor="start" x="729.272" y="-1062.3" font-family="Times,serif" font-size="14.00">latePickUp :integer</text>
<text text-anchor="start" x="729.272" y="-1047.3" font-family="Times,serif" font-size="14.00">startTime :datetime</text>
<text text-anchor="start" x="729.272" y="-1032.3" font-family="Times,serif" font-size="14.00">endTime :datetime</text>
<text text-anchor="start" x="729.272" y="-1017.3" font-family="Times,serif" font-size="14.00">created_at :datetime</text>
<text text-anchor="start" x="729.272" y="-1002.3" font-family="Times,serif" font-size="14.00">updated_at :datetime</text>
</g>
<!-- DailyDatum&#45;&gt;Note -->
<g id="edge8" class="edge"><title>DailyDatum&#45;&gt;Note</title>
<path fill="none" stroke="#30f5a3" d="M732.493,-987.397C727.359,-977.618 722.548,-967.754 718.272,-958 615.763,-724.185 539.92,-634.324 620.272,-392 655.858,-284.679 685.98,-261.062 772.272,-188 813.641,-152.973 867.937,-125.132 911.741,-106.094"/>
<ellipse fill="none" stroke="#30f5a3" cx="734.401" cy="-990.971" rx="4.00002" ry="4.00002"/>
<polygon fill="#30f5a3" stroke="#30f5a3" points="912.011,-105.978 922.975,-106.183 916.608,-104.012 921.205,-102.045 921.205,-102.045 921.205,-102.045 916.608,-104.012 919.435,-97.9081 912.011,-105.978 912.011,-105.978"/>
</g>
<!-- DailyDatum&#45;&gt;DailyDataVehicle -->
<g id="edge9" class="edge"><title>DailyDatum&#45;&gt;DailyDataVehicle</title>
<path fill="none" stroke="#b4438b" d="M784.257,-986.098C782.163,-976.604 780.144,-967.161 778.272,-958 749.412,-816.833 722.452,-649.798 708.73,-561.304"/>
<ellipse fill="none" stroke="#b4438b" cx="785.163" cy="-990.174" rx="4.00001" ry="4.00001"/>
<polygon fill="#b4438b" stroke="#b4438b" points="708.691,-561.051 711.611,-550.481 707.927,-556.11 707.163,-551.169 707.163,-551.169 707.163,-551.169 707.927,-556.11 702.716,-551.856 708.691,-561.051 708.691,-561.051"/>
</g>
<!-- DailyDatum&#45;&gt;Vehicle -->
<g id="edge10" class="edge"><title>DailyDatum&#45;&gt;Vehicle</title>
<path fill="none" stroke="#ead100" d="M712.834,-994.363C712.647,-994.242 712.459,-994.121 712.272,-994 663.628,-962.756 633.982,-992.067 587.272,-958 585.112,-956.425 582.982,-954.791 580.884,-953.104"/>
<polygon fill="#ead100" stroke="#ead100" points="712.93,-994.429 718.602,-1003.81 717.044,-997.27 721.159,-1000.11 721.159,-1000.11 721.159,-1000.11 717.044,-997.27 723.716,-996.408 712.93,-994.429 712.93,-994.429"/>
<polygon fill="#ead100" stroke="#ead100" points="580.558,-952.827 575.859,-942.919 576.75,-949.587 572.943,-946.346 572.943,-946.346 572.943,-946.346 576.75,-949.587 570.026,-949.773 580.558,-952.827 580.558,-952.827"/>
</g>
<!-- DailyDatum&#45;&gt;DailyDataEmployee -->
<g id="edge11" class="edge"><title>DailyDatum&#45;&gt;DailyDataEmployee</title>
<path fill="none" stroke="#aae083" d="M794.143,-986.453C782.068,-890.318 773.401,-755.717 796.272,-640 801.618,-612.95 812.217,-584.567 822.909,-560.415"/>
<ellipse fill="none" stroke="#aae083" cx="794.661" cy="-990.501" rx="4.00001" ry="4.00001"/>
<polygon fill="#aae083" stroke="#aae083" points="823.032,-560.142 831.258,-552.89 825.096,-555.587 827.159,-551.033 827.159,-551.033 827.159,-551.033 825.096,-555.587 823.06,-549.176 823.032,-560.142 823.032,-560.142"/>
</g>
<!-- DailyDatum&#45;&gt;Employee -->
<g id="edge12" class="edge"><title>DailyDatum&#45;&gt;Employee</title>
<path fill="none" stroke="#9350d5" d="M918.717,-1067.65C970.377,-1040.9 1031.28,-1003.51 1076.27,-958 1085.34,-948.826 1093.85,-938.583 1101.75,-927.842"/>
<polygon fill="#9350d5" stroke="#9350d5" points="918.421,-1067.8 907.469,-1068.35 913.969,-1070.08 909.518,-1072.35 909.518,-1072.35 909.518,-1072.35 913.969,-1070.08 911.566,-1076.36 918.421,-1067.8 918.421,-1067.8"/>
<polygon fill="#9350d5" stroke="#9350d5" points="1101.86,-927.682 1111.33,-922.152 1104.76,-923.611 1107.67,-919.54 1107.67,-919.54 1107.67,-919.54 1104.76,-923.611 1104,-916.927 1101.86,-927.682 1101.86,-927.682"/>
</g>
<!-- Employee&#45;&gt;Note -->
<g id="edge13" class="edge"><title>Employee&#45;&gt;Note</title>
<path fill="none" stroke="#2f78f8" d="M1103.72,-671.489C1095.32,-660.167 1086.16,-649.436 1076.27,-640 1051.25,-616.115 1025.73,-633.252 1007.27,-604 984.346,-567.673 984.823,-301.367 986.71,-161.81"/>
<ellipse fill="none" stroke="#2f78f8" cx="1106.24" cy="-674.976" rx="4.00002" ry="4.00002"/>
<polygon fill="#2f78f8" stroke="#2f78f8" points="986.714,-161.576 991.354,-151.64 986.784,-156.576 986.854,-151.577 986.854,-151.577 986.854,-151.577 986.784,-156.576 982.355,-151.513 986.714,-161.576 986.714,-161.576"/>
</g>
<!-- User -->
<g id="node19" class="node"><title>User</title>
<path fill="none" stroke="black" d="M1028.27,-437.5C1028.27,-437.5 1176.27,-437.5 1176.27,-437.5 1182.27,-437.5 1188.27,-443.5 1188.27,-449.5 1188.27,-449.5 1188.27,-546.5 1188.27,-546.5 1188.27,-552.5 1182.27,-558.5 1176.27,-558.5 1176.27,-558.5 1028.27,-558.5 1028.27,-558.5 1022.27,-558.5 1016.27,-552.5 1016.27,-546.5 1016.27,-546.5 1016.27,-449.5 1016.27,-449.5 1016.27,-443.5 1022.27,-437.5 1028.27,-437.5"/>
<text text-anchor="middle" x="1102.27" y="-543.3" font-family="Times,serif" font-size="14.00">User</text>
<polyline fill="none" stroke="black" points="1016.27,-535.5 1188.27,-535.5 "/>
<text text-anchor="start" x="1024.27" y="-520.3" font-family="Times,serif" font-size="14.00">id :integer</text>
<text text-anchor="start" x="1024.27" y="-505.3" font-family="Times,serif" font-size="14.00">contractorBoolean :boolean</text>
<text text-anchor="start" x="1024.27" y="-490.3" font-family="Times,serif" font-size="14.00">activeBoolean :boolean</text>
<text text-anchor="start" x="1024.27" y="-475.3" font-family="Times,serif" font-size="14.00">employee_id :integer</text>
<text text-anchor="start" x="1024.27" y="-460.3" font-family="Times,serif" font-size="14.00">created_at :datetime</text>
<text text-anchor="start" x="1024.27" y="-445.3" font-family="Times,serif" font-size="14.00">updated_at :datetime</text>
</g>
<!-- Employee&#45;&gt;User -->
<g id="edge14" class="edge"><title>Employee&#45;&gt;User</title>
<path fill="none" stroke="#6058b1" d="M1139.99,-669.882C1132.15,-634.35 1123.94,-597.173 1117.19,-566.604"/>
<ellipse fill="none" stroke="#6058b1" cx="1140.94" cy="-674.202" rx="4.00001" ry="4.00001"/>
<ellipse fill="#6058b1" stroke="#6058b1" cx="1116.28" cy="-562.479" rx="4.00001" ry="4.00001"/>
</g>
<!-- Employee&#45;&gt;DailyDataEmployee -->
<g id="edge15" class="edge"><title>Employee&#45;&gt;DailyDataEmployee</title>
<path fill="none" stroke="#36aeab" d="M1106.31,-671.6C1097.32,-659.963 1087.31,-649.136 1076.27,-640 1039.24,-609.347 1015.77,-628.264 974.272,-604 952.734,-591.408 931.488,-574.668 912.998,-558.262"/>
<ellipse fill="none" stroke="#36aeab" cx="1108.81" cy="-674.939" rx="4.00002" ry="4.00002"/>
<polygon fill="#36aeab" stroke="#36aeab" points="912.671,-557.966 908.266,-547.924 908.96,-554.615 905.249,-551.264 905.249,-551.264 905.249,-551.264 908.96,-554.615 902.233,-554.604 912.671,-557.966 912.671,-557.966"/>
</g>
<!-- EmployeePsa -->
<g id="node8" class="node"><title>EmployeePsa</title>
<path fill="none" stroke="black" d="M1511.27,-196.5C1511.27,-196.5 1635.27,-196.5 1635.27,-196.5 1641.27,-196.5 1647.27,-202.5 1647.27,-208.5 1647.27,-208.5 1647.27,-335.5 1647.27,-335.5 1647.27,-341.5 1641.27,-347.5 1635.27,-347.5 1635.27,-347.5 1511.27,-347.5 1511.27,-347.5 1505.27,-347.5 1499.27,-341.5 1499.27,-335.5 1499.27,-335.5 1499.27,-208.5 1499.27,-208.5 1499.27,-202.5 1505.27,-196.5 1511.27,-196.5"/>
<text text-anchor="middle" x="1573.27" y="-332.3" font-family="Times,serif" font-size="14.00">EmployeePsa</text>
<polyline fill="none" stroke="black" points="1499.27,-324.5 1647.27,-324.5 "/>
<text text-anchor="start" x="1507.27" y="-309.3" font-family="Times,serif" font-size="14.00">id :integer</text>
<text text-anchor="start" x="1507.27" y="-294.3" font-family="Times,serif" font-size="14.00">startDate :datetime</text>
<text text-anchor="start" x="1507.27" y="-279.3" font-family="Times,serif" font-size="14.00">endDate :datetime</text>
<text text-anchor="start" x="1507.27" y="-264.3" font-family="Times,serif" font-size="14.00">activeBoolean :boolean</text>
<text text-anchor="start" x="1507.27" y="-249.3" font-family="Times,serif" font-size="14.00">employee_id :integer</text>
<text text-anchor="start" x="1507.27" y="-234.3" font-family="Times,serif" font-size="14.00">psa_id :integer</text>
<text text-anchor="start" x="1507.27" y="-219.3" font-family="Times,serif" font-size="14.00">created_at :datetime</text>
<text text-anchor="start" x="1507.27" y="-204.3" font-family="Times,serif" font-size="14.00">updated_at :datetime</text>
</g>
<!-- Employee&#45;&gt;EmployeePsa -->
<g id="edge16" class="edge"><title>Employee&#45;&gt;EmployeePsa</title>
<path fill="none" stroke="#811cae" d="M1229.84,-671.759C1238.93,-660.03 1249.06,-649.139 1260.27,-640 1299.16,-608.293 1327.92,-635.131 1367.27,-604 1449.35,-539.059 1507.44,-431.8 1540.56,-357.042"/>
<ellipse fill="none" stroke="#811cae" cx="1227.3" cy="-675.155" rx="4.00002" ry="4.00002"/>
<polygon fill="#811cae" stroke="#811cae" points="1540.67,-356.797 1548.8,-349.437 1542.68,-352.215 1544.68,-347.634 1544.68,-347.634 1544.68,-347.634 1542.68,-352.215 1540.56,-345.831 1540.67,-356.797 1540.67,-356.797"/>
</g>
<!-- Employee&#45;&gt;Psa -->
<g id="edge17" class="edge"><title>Employee&#45;&gt;Psa</title>
<path fill="none" stroke="#366a70" d="M1229.72,-670.254C1238.79,-658.941 1248.96,-648.557 1260.27,-640 1311.51,-601.242 1339.05,-623.49 1400.27,-604 1457.12,-585.903 1519.3,-562.477 1570.14,-542.346"/>
<polygon fill="#366a70" stroke="#366a70" points="1229.69,-670.287 1220.04,-675.485 1226.65,-674.255 1223.61,-678.223 1223.61,-678.223 1223.61,-678.223 1226.65,-674.255 1227.18,-680.961 1229.69,-670.287 1229.69,-670.287"/>
<polygon fill="#366a70" stroke="#366a70" points="1570.2,-542.321 1581.15,-542.809 1574.84,-540.474 1579.49,-538.627 1579.49,-538.627 1579.49,-538.627 1574.84,-540.474 1577.83,-534.445 1570.2,-542.321 1570.2,-542.321"/>
</g>
<!-- FedexContract -->
<g id="node9" class="node"><title>FedexContract</title>
<path fill="none" stroke="black" d="M842.272,-1273C842.272,-1273 1032.27,-1273 1032.27,-1273 1038.27,-1273 1044.27,-1279 1044.27,-1285 1044.27,-1285 1044.27,-1457 1044.27,-1457 1044.27,-1463 1038.27,-1469 1032.27,-1469 1032.27,-1469 842.272,-1469 842.272,-1469 836.272,-1469 830.272,-1463 830.272,-1457 830.272,-1457 830.272,-1285 830.272,-1285 830.272,-1279 836.272,-1273 842.272,-1273"/>
<text text-anchor="middle" x="937.272" y="-1453.8" font-family="Times,serif" font-size="14.00">FedexContract</text>
<polyline fill="none" stroke="black" points="830.272,-1446 1044.27,-1446 "/>
<text text-anchor="start" x="838.272" y="-1430.8" font-family="Times,serif" font-size="14.00">id :integer</text>
<text text-anchor="start" x="838.272" y="-1415.8" font-family="Times,serif" font-size="14.00">fedexContractName :string</text>
<text text-anchor="start" x="838.272" y="-1400.8" font-family="Times,serif" font-size="14.00">fedexContractNumber :integer</text>
<text text-anchor="start" x="838.272" y="-1385.8" font-family="Times,serif" font-size="14.00">contractorContractName :string</text>
<text text-anchor="start" x="838.272" y="-1370.8" font-family="Times,serif" font-size="14.00">contractorContractNumber :integer</text>
<text text-anchor="start" x="838.272" y="-1355.8" font-family="Times,serif" font-size="14.00">content :text</text>
<text text-anchor="start" x="838.272" y="-1340.8" font-family="Times,serif" font-size="14.00">startDate :datetime</text>
<text text-anchor="start" x="838.272" y="-1325.8" font-family="Times,serif" font-size="14.00">endDate :datetime</text>
<text text-anchor="start" x="838.272" y="-1310.8" font-family="Times,serif" font-size="14.00">created_at :datetime</text>
<text text-anchor="start" x="838.272" y="-1295.8" font-family="Times,serif" font-size="14.00">updated_at :datetime</text>
<text text-anchor="start" x="838.272" y="-1280.8" font-family="Times,serif" font-size="14.00">businesses_id :integer</text>
</g>
<!-- FedexContract&#45;&gt;Business -->
<g id="edge18" class="edge"><title>FedexContract&#45;&gt;Business</title>
<path fill="none" stroke="#abd856" d="M1031.2,-1266.72C1050.94,-1245.01 1071.56,-1222.34 1090.63,-1201.37"/>
<ellipse fill="none" stroke="#abd856" cx="1028.28" cy="-1269.93" rx="4.00002" ry="4.00002"/>
<polygon fill="#abd856" stroke="#abd856" points="1090.85,-1201.13 1100.91,-1196.76 1094.21,-1197.43 1097.58,-1193.73 1097.58,-1193.73 1097.58,-1193.73 1094.21,-1197.43 1094.25,-1190.7 1090.85,-1201.13 1090.85,-1201.13"/>
</g>
<!-- FedexContract&#45;&gt;Addendum -->
<g id="edge19" class="edge"><title>FedexContract&#45;&gt;Addendum</title>
<path fill="none" stroke="#79a33f" d="M937.087,-1264.88C936.909,-1163.1 936.639,-1009.56 936.459,-907.113"/>
<ellipse fill="none" stroke="#79a33f" cx="937.094" cy="-1268.98" rx="4" ry="4"/>
<polygon fill="#79a33f" stroke="#79a33f" points="936.459,-907.052 940.942,-897.044 936.451,-902.052 936.442,-897.052 936.442,-897.052 936.442,-897.052 936.451,-902.052 931.942,-897.06 936.459,-907.052 936.459,-907.052"/>
</g>
<!-- FedexContract&#45;&gt;Note -->
<g id="edge20" class="edge"><title>FedexContract&#45;&gt;Note</title>
<path fill="none" stroke="#e4f8c4" d="M822.65,-1272.55C822.191,-1272.36 821.732,-1272.18 821.272,-1272 743.11,-1241.27 125.536,-1295.51 66.2715,-1236 -70.5989,-1098.57 47.2715,-993.962 47.2715,-800 47.2715,-800 47.2715,-800 47.2715,-497 47.2715,-119.724 685.824,-79.0144 910.894,-76.383"/>
<ellipse fill="none" stroke="#e4f8c4" cx="826.372" cy="-1274.18" rx="4.00002" ry="4.00002"/>
<polygon fill="#e4f8c4" stroke="#e4f8c4" points="910.975,-76.3824 921.017,-80.7874 915.975,-76.335 920.975,-76.2876 920.975,-76.2876 920.975,-76.2876 915.975,-76.335 920.932,-71.7878 910.975,-76.3824 910.975,-76.3824"/>
</g>
<!-- Psa&#45;&gt;Note -->
<g id="edge21" class="edge"><title>Psa&#45;&gt;Note</title>
<path fill="none" stroke="#c8a9cc" d="M1682.55,-383.946C1684.86,-307.783 1681.75,-216.258 1656.27,-188 1578.66,-101.927 1224.34,-82.5947 1065.59,-78.255"/>
<ellipse fill="none" stroke="#c8a9cc" cx="1682.41" cy="-388.209" rx="4" ry="4"/>
<polygon fill="#c8a9cc" stroke="#c8a9cc" points="1065.42,-78.2506 1055.54,-73.4918 1060.42,-78.1204 1055.42,-77.9903 1055.42,-77.9903 1055.42,-77.9903 1060.42,-78.1204 1055.31,-82.4887 1065.42,-78.2506 1065.42,-78.2506"/>
</g>
<!-- Psazip -->
<g id="node13" class="node"><title>Psazip</title>
<path fill="none" stroke="black" d="M1966.27,-23C1966.27,-23 2076.27,-23 2076.27,-23 2082.27,-23 2088.27,-29 2088.27,-35 2088.27,-35 2088.27,-117 2088.27,-117 2088.27,-123 2082.27,-129 2076.27,-129 2076.27,-129 1966.27,-129 1966.27,-129 1960.27,-129 1954.27,-123 1954.27,-117 1954.27,-117 1954.27,-35 1954.27,-35 1954.27,-29 1960.27,-23 1966.27,-23"/>
<text text-anchor="middle" x="2021.27" y="-113.8" font-family="Times,serif" font-size="14.00">Psazip</text>
<polyline fill="none" stroke="black" points="1954.27,-106 2088.27,-106 "/>
<text text-anchor="start" x="1962.27" y="-90.8" font-family="Times,serif" font-size="14.00">id :integer</text>
<text text-anchor="start" x="1962.27" y="-75.8" font-family="Times,serif" font-size="14.00">psa_id :integer</text>
<text text-anchor="start" x="1962.27" y="-60.8" font-family="Times,serif" font-size="14.00">zip_id :integer</text>
<text text-anchor="start" x="1962.27" y="-45.8" font-family="Times,serif" font-size="14.00">created_at :datetime</text>
<text text-anchor="start" x="1962.27" y="-30.8" font-family="Times,serif" font-size="14.00">updated_at :datetime</text>
</g>
<!-- Psa&#45;&gt;Psazip -->
<g id="edge22" class="edge"><title>Psa&#45;&gt;Psazip</title>
<path fill="none" stroke="#423325" d="M1779.44,-486.147C1861.73,-471.479 1971.52,-437.004 2026.27,-356 2069.51,-292.032 2056.97,-199.575 2041.35,-138.895"/>
<ellipse fill="none" stroke="#423325" cx="1775" cy="-486.91" rx="4.00001" ry="4.00001"/>
<polygon fill="#423325" stroke="#423325" points="2041.3,-138.727 2043.07,-127.904 2040.01,-133.897 2038.72,-129.067 2038.72,-129.067 2038.72,-129.067 2040.01,-133.897 2034.37,-130.23 2041.3,-138.727 2041.3,-138.727"/>
</g>
<!-- Zip -->
<g id="node25" class="node"><title>Zip</title>
<path fill="none" stroke="black" d="M1867.27,-226.5C1867.27,-226.5 1977.27,-226.5 1977.27,-226.5 1983.27,-226.5 1989.27,-232.5 1989.27,-238.5 1989.27,-238.5 1989.27,-305.5 1989.27,-305.5 1989.27,-311.5 1983.27,-317.5 1977.27,-317.5 1977.27,-317.5 1867.27,-317.5 1867.27,-317.5 1861.27,-317.5 1855.27,-311.5 1855.27,-305.5 1855.27,-305.5 1855.27,-238.5 1855.27,-238.5 1855.27,-232.5 1861.27,-226.5 1867.27,-226.5"/>
<text text-anchor="middle" x="1922.27" y="-302.3" font-family="Times,serif" font-size="14.00">Zip</text>
<polyline fill="none" stroke="black" points="1855.27,-294.5 1989.27,-294.5 "/>
<text text-anchor="start" x="1863.27" y="-279.3" font-family="Times,serif" font-size="14.00">id :integer</text>
<text text-anchor="start" x="1863.27" y="-264.3" font-family="Times,serif" font-size="14.00">zip :string</text>
<text text-anchor="start" x="1863.27" y="-249.3" font-family="Times,serif" font-size="14.00">created_at :datetime</text>
<text text-anchor="start" x="1863.27" y="-234.3" font-family="Times,serif" font-size="14.00">updated_at :datetime</text>
</g>
<!-- Psa&#45;&gt;Zip -->
<g id="edge23" class="edge"><title>Psa&#45;&gt;Zip</title>
<path fill="none" stroke="#8e2112" d="M1778.92,-415.456C1801.63,-396.519 1825.18,-376.026 1846.27,-356 1856.42,-346.366 1866.84,-335.626 1876.58,-325.153"/>
<polygon fill="#8e2112" stroke="#8e2112" points="1778.63,-415.702 1768.06,-418.623 1774.78,-418.894 1770.93,-422.087 1770.93,-422.087 1770.93,-422.087 1774.78,-418.894 1773.8,-425.55 1778.63,-415.702 1778.63,-415.702"/>
<polygon fill="#8e2112" stroke="#8e2112" points="1876.77,-324.95 1886.85,-320.643 1880.15,-321.273 1883.54,-317.595 1883.54,-317.595 1883.54,-317.595 1880.15,-321.273 1880.23,-314.546 1876.77,-324.95 1876.77,-324.95"/>
</g>
<!-- PsaState -->
<g id="node12" class="node"><title>PsaState</title>
<path fill="none" stroke="black" d="M1748.27,-23C1748.27,-23 1858.27,-23 1858.27,-23 1864.27,-23 1870.27,-29 1870.27,-35 1870.27,-35 1870.27,-117 1870.27,-117 1870.27,-123 1864.27,-129 1858.27,-129 1858.27,-129 1748.27,-129 1748.27,-129 1742.27,-129 1736.27,-123 1736.27,-117 1736.27,-117 1736.27,-35 1736.27,-35 1736.27,-29 1742.27,-23 1748.27,-23"/>
<text text-anchor="middle" x="1803.27" y="-113.8" font-family="Times,serif" font-size="14.00">PsaState</text>
<polyline fill="none" stroke="black" points="1736.27,-106 1870.27,-106 "/>
<text text-anchor="start" x="1744.27" y="-90.8" font-family="Times,serif" font-size="14.00">id :integer</text>
<text text-anchor="start" x="1744.27" y="-75.8" font-family="Times,serif" font-size="14.00">psa_id :integer</text>
<text text-anchor="start" x="1744.27" y="-60.8" font-family="Times,serif" font-size="14.00">state_id :integer</text>
<text text-anchor="start" x="1744.27" y="-45.8" font-family="Times,serif" font-size="14.00">created_at :datetime</text>
<text text-anchor="start" x="1744.27" y="-30.8" font-family="Times,serif" font-size="14.00">updated_at :datetime</text>
</g>
<!-- Psa&#45;&gt;PsaState -->
<g id="edge24" class="edge"><title>Psa&#45;&gt;PsaState</title>
<path fill="none" stroke="#957aaa" d="M1778.93,-481.982C1853.84,-465.119 1950.01,-429.72 1998.27,-356 2039.17,-293.528 2035.8,-252.549 1998.27,-188 1994.72,-181.889 1932.49,-147.015 1879.27,-117.965"/>
<ellipse fill="none" stroke="#957aaa" cx="1774.74" cy="-482.898" rx="4.00001" ry="4.00001"/>
<polygon fill="#957aaa" stroke="#957aaa" points="1879.26,-117.958 1872.64,-109.222 1874.87,-115.566 1870.48,-113.173 1870.48,-113.173 1870.48,-113.173 1874.87,-115.566 1868.33,-117.124 1879.26,-117.958 1879.26,-117.958"/>
</g>
<!-- State -->
<g id="node17" class="node"><title>State</title>
<path fill="none" stroke="black" d="M1715.27,-219C1715.27,-219 1825.27,-219 1825.27,-219 1831.27,-219 1837.27,-225 1837.27,-231 1837.27,-231 1837.27,-313 1837.27,-313 1837.27,-319 1831.27,-325 1825.27,-325 1825.27,-325 1715.27,-325 1715.27,-325 1709.27,-325 1703.27,-319 1703.27,-313 1703.27,-313 1703.27,-231 1703.27,-231 1703.27,-225 1709.27,-219 1715.27,-219"/>
<text text-anchor="middle" x="1770.27" y="-309.8" font-family="Times,serif" font-size="14.00">State</text>
<polyline fill="none" stroke="black" points="1703.27,-302 1837.27,-302 "/>
<text text-anchor="start" x="1711.27" y="-286.8" font-family="Times,serif" font-size="14.00">id :integer</text>
<text text-anchor="start" x="1711.27" y="-271.8" font-family="Times,serif" font-size="14.00">state :string</text>
<text text-anchor="start" x="1711.27" y="-256.8" font-family="Times,serif" font-size="14.00">abbreviation :string</text>
<text text-anchor="start" x="1711.27" y="-241.8" font-family="Times,serif" font-size="14.00">created_at :datetime</text>
<text text-anchor="start" x="1711.27" y="-226.8" font-family="Times,serif" font-size="14.00">updated_at :datetime</text>
</g>
<!-- Psa&#45;&gt;State -->
<g id="edge25" class="edge"><title>Psa&#45;&gt;State</title>
<path fill="none" stroke="#5fb109" d="M1723.66,-382.901C1730.78,-366.11 1737.88,-349.382 1744.3,-334.226"/>
<polygon fill="#5fb109" stroke="#5fb109" points="1723.62,-383.008 1715.57,-390.457 1721.66,-387.611 1719.71,-392.214 1719.71,-392.214 1719.71,-392.214 1721.66,-387.611 1723.85,-393.971 1723.62,-383.008 1723.62,-383.008"/>
<polygon fill="#5fb109" stroke="#5fb109" points="1744.31,-334.213 1752.36,-326.764 1746.26,-329.61 1748.21,-325.007 1748.21,-325.007 1748.21,-325.007 1746.26,-329.61 1744.07,-323.25 1744.31,-334.213 1744.31,-334.213"/>
</g>
<!-- Psa&#45;&gt;EmployeePsa -->
<g id="edge26" class="edge"><title>Psa&#45;&gt;EmployeePsa</title>
<path fill="none" stroke="#ea9bbc" d="M1624.18,-384.807C1619.93,-375.465 1615.68,-366.125 1611.54,-357.046"/>
<ellipse fill="none" stroke="#ea9bbc" cx="1625.9" cy="-388.574" rx="4.00002" ry="4.00002"/>
<polygon fill="#ea9bbc" stroke="#ea9bbc" points="1611.43,-356.792 1611.38,-345.826 1609.35,-352.241 1607.28,-347.691 1607.28,-347.691 1607.28,-347.691 1609.35,-352.241 1603.19,-349.556 1611.43,-356.792 1611.43,-356.792"/>
</g>
<!-- Region -->
<g id="node14" class="node"><title>Region</title>
<path fill="none" stroke="black" d="M1281.27,-723.5C1281.27,-723.5 1463.27,-723.5 1463.27,-723.5 1469.27,-723.5 1475.27,-729.5 1475.27,-735.5 1475.27,-735.5 1475.27,-862.5 1475.27,-862.5 1475.27,-868.5 1469.27,-874.5 1463.27,-874.5 1463.27,-874.5 1281.27,-874.5 1281.27,-874.5 1275.27,-874.5 1269.27,-868.5 1269.27,-862.5 1269.27,-862.5 1269.27,-735.5 1269.27,-735.5 1269.27,-729.5 1275.27,-723.5 1281.27,-723.5"/>
<text text-anchor="middle" x="1372.27" y="-859.3" font-family="Times,serif" font-size="14.00">Region</text>
<polyline fill="none" stroke="black" points="1269.27,-851.5 1475.27,-851.5 "/>
<text text-anchor="start" x="1277.27" y="-836.3" font-family="Times,serif" font-size="14.00">id :integer</text>
<text text-anchor="start" x="1277.27" y="-821.3" font-family="Times,serif" font-size="14.00">fedexRegionName :string</text>
<text text-anchor="start" x="1277.27" y="-806.3" font-family="Times,serif" font-size="14.00">fedexRegionNumber :integer</text>
<text text-anchor="start" x="1277.27" y="-791.3" font-family="Times,serif" font-size="14.00">fedexRegionPhone :string</text>
<text text-anchor="start" x="1277.27" y="-776.3" font-family="Times,serif" font-size="14.00">contractorRegionName :string</text>
<text text-anchor="start" x="1277.27" y="-761.3" font-family="Times,serif" font-size="14.00">contractorRegionNumber :integer</text>
<text text-anchor="start" x="1277.27" y="-746.3" font-family="Times,serif" font-size="14.00">created_at :datetime</text>
<text text-anchor="start" x="1277.27" y="-731.3" font-family="Times,serif" font-size="14.00">updated_at :datetime</text>
</g>
<!-- Region&#45;&gt;Psa -->
<g id="edge27" class="edge"><title>Region&#45;&gt;Psa</title>
<path fill="none" stroke="#bd0774" d="M1454.1,-717.256C1490.55,-681.283 1533.88,-638.52 1572.49,-600.42"/>
<ellipse fill="none" stroke="#bd0774" cx="1450.8" cy="-720.511" rx="4.00002" ry="4.00002"/>
<polygon fill="#bd0774" stroke="#bd0774" points="1572.53,-600.387 1582.81,-596.566 1576.09,-596.875 1579.65,-593.363 1579.65,-593.363 1579.65,-593.363 1576.09,-596.875 1576.49,-590.159 1572.53,-600.387 1572.53,-600.387"/>
</g>
<!-- Terminal -->
<g id="node18" class="node"><title>Terminal</title>
<path fill="none" stroke="black" d="M1237.77,-189C1237.77,-189 1430.77,-189 1430.77,-189 1436.77,-189 1442.77,-195 1442.77,-201 1442.77,-201 1442.77,-343 1442.77,-343 1442.77,-349 1436.77,-355 1430.77,-355 1430.77,-355 1237.77,-355 1237.77,-355 1231.77,-355 1225.77,-349 1225.77,-343 1225.77,-343 1225.77,-201 1225.77,-201 1225.77,-195 1231.77,-189 1237.77,-189"/>
<text text-anchor="middle" x="1334.27" y="-339.8" font-family="Times,serif" font-size="14.00">Terminal</text>
<polyline fill="none" stroke="black" points="1225.77,-332 1442.77,-332 "/>
<text text-anchor="start" x="1233.77" y="-316.8" font-family="Times,serif" font-size="14.00">id :integer</text>
<text text-anchor="start" x="1233.77" y="-301.8" font-family="Times,serif" font-size="14.00">fedexTerminalName :string</text>
<text text-anchor="start" x="1233.77" y="-286.8" font-family="Times,serif" font-size="14.00">fedexTerminalNumber :integer</text>
<text text-anchor="start" x="1233.77" y="-271.8" font-family="Times,serif" font-size="14.00">contractorTerminalName :string</text>
<text text-anchor="start" x="1233.77" y="-256.8" font-family="Times,serif" font-size="14.00">contractorTerminalNumber :integer</text>
<text text-anchor="start" x="1233.77" y="-241.8" font-family="Times,serif" font-size="14.00">colocationBoolean :boolean</text>
<text text-anchor="start" x="1233.77" y="-226.8" font-family="Times,serif" font-size="14.00">created_at :datetime</text>
<text text-anchor="start" x="1233.77" y="-211.8" font-family="Times,serif" font-size="14.00">updated_at :datetime</text>
<text text-anchor="start" x="1233.77" y="-196.8" font-family="Times,serif" font-size="14.00">regions_id :integer</text>
</g>
<!-- Region&#45;&gt;Terminal -->
<g id="edge28" class="edge"><title>Region&#45;&gt;Terminal</title>
<path fill="none" stroke="#981027" d="M1409.7,-715.688C1442.31,-631.895 1478.59,-499.405 1438.27,-392 1434.62,-382.267 1429.77,-372.808 1424.15,-363.756"/>
<ellipse fill="none" stroke="#981027" cx="1408.23" cy="-719.42" rx="4.00001" ry="4.00001"/>
<polygon fill="#981027" stroke="#981027" points="1424.03,-363.57 1422.32,-352.739 1421.29,-359.388 1418.55,-355.205 1418.55,-355.205 1418.55,-355.205 1421.29,-359.388 1414.79,-357.671 1424.03,-363.57 1424.03,-363.57"/>
</g>
<!-- Region&#45;&gt;Note -->
<g id="edge29" class="edge"><title>Region&#45;&gt;Note</title>
<path fill="none" stroke="#84479b" d="M1398.23,-715.451C1420.88,-625.733 1439.96,-483.038 1367.27,-392 1324.49,-338.423 1265.57,-404.659 1217.27,-356 1163.27,-301.597 1223.75,-249.707 1178.27,-188 1150.05,-149.706 1104.33,-122.403 1064.82,-104.46"/>
<ellipse fill="none" stroke="#84479b" cx="1397.17" cy="-719.553" rx="4.00001" ry="4.00001"/>
<polygon fill="#84479b" stroke="#84479b" points="1064.59,-104.361 1057.26,-96.2068 1060.02,-102.342 1055.44,-100.324 1055.44,-100.324 1055.44,-100.324 1060.02,-102.342 1053.63,-104.441 1064.59,-104.361 1064.59,-104.361"/>
</g>
<!-- Role -->
<g id="node15" class="node"><title>Role</title>
<path fill="none" stroke="black" d="M1218.27,-452.5C1218.27,-452.5 1328.27,-452.5 1328.27,-452.5 1334.27,-452.5 1340.27,-458.5 1340.27,-464.5 1340.27,-464.5 1340.27,-531.5 1340.27,-531.5 1340.27,-537.5 1334.27,-543.5 1328.27,-543.5 1328.27,-543.5 1218.27,-543.5 1218.27,-543.5 1212.27,-543.5 1206.27,-537.5 1206.27,-531.5 1206.27,-531.5 1206.27,-464.5 1206.27,-464.5 1206.27,-458.5 1212.27,-452.5 1218.27,-452.5"/>
<text text-anchor="middle" x="1273.27" y="-528.3" font-family="Times,serif" font-size="14.00">Role</text>
<polyline fill="none" stroke="black" points="1206.27,-520.5 1340.27,-520.5 "/>
<text text-anchor="start" x="1214.27" y="-505.3" font-family="Times,serif" font-size="14.00">id :integer</text>
<text text-anchor="start" x="1214.27" y="-490.3" font-family="Times,serif" font-size="14.00">name :string</text>
<text text-anchor="start" x="1214.27" y="-475.3" font-family="Times,serif" font-size="14.00">created_at :datetime</text>
<text text-anchor="start" x="1214.27" y="-460.3" font-family="Times,serif" font-size="14.00">updated_at :datetime</text>
</g>
<!-- UserRole -->
<g id="node20" class="node"><title>UserRole</title>
<path fill="none" stroke="black" d="M1047.27,-219C1047.27,-219 1157.27,-219 1157.27,-219 1163.27,-219 1169.27,-225 1169.27,-231 1169.27,-231 1169.27,-313 1169.27,-313 1169.27,-319 1163.27,-325 1157.27,-325 1157.27,-325 1047.27,-325 1047.27,-325 1041.27,-325 1035.27,-319 1035.27,-313 1035.27,-313 1035.27,-231 1035.27,-231 1035.27,-225 1041.27,-219 1047.27,-219"/>
<text text-anchor="middle" x="1102.27" y="-309.8" font-family="Times,serif" font-size="14.00">UserRole</text>
<polyline fill="none" stroke="black" points="1035.27,-302 1169.27,-302 "/>
<text text-anchor="start" x="1043.27" y="-286.8" font-family="Times,serif" font-size="14.00">id :integer</text>
<text text-anchor="start" x="1043.27" y="-271.8" font-family="Times,serif" font-size="14.00">user_id :integer</text>
<text text-anchor="start" x="1043.27" y="-256.8" font-family="Times,serif" font-size="14.00">role_id :integer</text>
<text text-anchor="start" x="1043.27" y="-241.8" font-family="Times,serif" font-size="14.00">created_at :datetime</text>
<text text-anchor="start" x="1043.27" y="-226.8" font-family="Times,serif" font-size="14.00">updated_at :datetime</text>
</g>
<!-- Role&#45;&gt;UserRole -->
<g id="edge30" class="edge"><title>Role&#45;&gt;UserRole</title>
<path fill="none" stroke="#97756b" d="M1236.9,-445.732C1224.5,-428.526 1210.44,-409.316 1197.27,-392 1182.5,-372.575 1166.03,-351.685 1151.01,-332.913"/>
<ellipse fill="none" stroke="#97756b" cx="1239.41" cy="-449.221" rx="4.00002" ry="4.00002"/>
<polygon fill="#97756b" stroke="#97756b" points="1150.92,-332.809 1148.17,-322.193 1147.79,-328.909 1144.66,-325.008 1144.66,-325.008 1144.66,-325.008 1147.79,-328.909 1141.15,-327.824 1150.92,-332.809 1150.92,-332.809"/>
</g>
<!-- Role&#45;&gt;Role -->
<g id="edge31" class="edge"><title>Role&#45;&gt;Role</title>
<path fill="none" stroke="#676c7e" d="M1348.59,-530.242C1354.57,-523.183 1358.27,-512.435 1358.27,-498 1358.27,-483.565 1354.57,-472.817 1348.59,-465.758"/>
<polygon fill="#676c7e" stroke="#676c7e" points="1348.32,-530.467 1337.74,-533.364 1344.46,-533.651 1340.61,-536.834 1340.61,-536.834 1340.61,-536.834 1344.46,-533.651 1343.47,-540.304 1348.32,-530.467 1348.32,-530.467"/>
<polygon fill="#676c7e" stroke="#676c7e" points="1348.32,-465.533 1343.47,-455.696 1344.46,-462.349 1340.61,-459.166 1340.61,-459.166 1340.61,-459.166 1344.46,-462.349 1337.74,-462.636 1348.32,-465.533 1348.32,-465.533"/>
</g>
<!-- ServiceType -->
<g id="node16" class="node"><title>ServiceType</title>
<path fill="none" stroke="black" d="M581.272,-1054.5C581.272,-1054.5 691.272,-1054.5 691.272,-1054.5 697.272,-1054.5 703.272,-1060.5 703.272,-1066.5 703.272,-1066.5 703.272,-1163.5 703.272,-1163.5 703.272,-1169.5 697.272,-1175.5 691.272,-1175.5 691.272,-1175.5 581.272,-1175.5 581.272,-1175.5 575.272,-1175.5 569.272,-1169.5 569.272,-1163.5 569.272,-1163.5 569.272,-1066.5 569.272,-1066.5 569.272,-1060.5 575.272,-1054.5 581.272,-1054.5"/>
<text text-anchor="middle" x="636.272" y="-1160.3" font-family="Times,serif" font-size="14.00">ServiceType</text>
<polyline fill="none" stroke="black" points="569.272,-1152.5 703.272,-1152.5 "/>
<text text-anchor="start" x="577.272" y="-1137.3" font-family="Times,serif" font-size="14.00">id :integer</text>
<text text-anchor="start" x="577.272" y="-1122.3" font-family="Times,serif" font-size="14.00">serviceType :string</text>
<text text-anchor="start" x="577.272" y="-1107.3" font-family="Times,serif" font-size="14.00">startDate :datetime</text>
<text text-anchor="start" x="577.272" y="-1092.3" font-family="Times,serif" font-size="14.00">endDate :datetime</text>
<text text-anchor="start" x="577.272" y="-1077.3" font-family="Times,serif" font-size="14.00">created_at :datetime</text>
<text text-anchor="start" x="577.272" y="-1062.3" font-family="Times,serif" font-size="14.00">updated_at :datetime</text>
</g>
<!-- ServiceType&#45;&gt;Vehicle -->
<g id="edge32" class="edge"><title>ServiceType&#45;&gt;Vehicle</title>
<path fill="none" stroke="#fde402" d="M603.137,-1046.88C591.349,-1022.99 577.495,-994.93 563.436,-966.45"/>
<ellipse fill="none" stroke="#fde402" cx="604.982" cy="-1050.61" rx="4.00002" ry="4.00002"/>
<polygon fill="#fde402" stroke="#fde402" points="563.293,-966.16 562.902,-955.201 561.08,-961.677 558.867,-957.193 558.867,-957.193 558.867,-957.193 561.08,-961.677 554.832,-959.185 563.293,-966.16 563.293,-966.16"/>
</g>
<!-- State&#45;&gt;PsaState -->
<g id="edge33" class="edge"><title>State&#45;&gt;PsaState</title>
<path fill="none" stroke="#cac2ec" d="M1780.52,-210.773C1784.4,-187.957 1788.82,-161.955 1792.73,-138.981"/>
<ellipse fill="none" stroke="#cac2ec" cx="1779.83" cy="-214.813" rx="4.00001" ry="4.00001"/>
<polygon fill="#cac2ec" stroke="#cac2ec" points="1792.75,-138.859 1798.86,-129.755 1793.59,-133.93 1794.43,-129 1794.43,-129 1794.43,-129 1793.59,-133.93 1789.99,-128.246 1792.75,-138.859 1792.75,-138.859"/>
</g>
<!-- State&#45;&gt;Note -->
<g id="edge34" class="edge"><title>State&#45;&gt;Note</title>
<path fill="none" stroke="#139f71" d="M1723.3,-212.864C1713.03,-203.236 1701.53,-194.34 1689.27,-188 1581.44,-132.229 1224.29,-96.5502 1065.52,-83.0753"/>
<ellipse fill="none" stroke="#139f71" cx="1726.34" cy="-215.815" rx="4.00002" ry="4.00002"/>
<polygon fill="#139f71" stroke="#139f71" points="1065.31,-83.0584 1055.73,-77.7357 1060.33,-82.6391 1055.35,-82.2198 1055.35,-82.2198 1055.35,-82.2198 1060.33,-82.6391 1054.97,-86.704 1065.31,-83.0584 1065.31,-83.0584"/>
</g>
<!-- Terminal&#45;&gt;Note -->
<g id="edge35" class="edge"><title>Terminal&#45;&gt;Note</title>
<path fill="none" stroke="#833b2a" d="M1218.32,-192.165C1215.96,-190.752 1213.61,-189.362 1211.27,-188 1163.66,-160.247 1108.19,-132.619 1064.48,-111.869"/>
<ellipse fill="none" stroke="#833b2a" cx="1222.01" cy="-194.399" rx="4.00002" ry="4.00002"/>
<polygon fill="#833b2a" stroke="#833b2a" points="1064.38,-111.822 1057.27,-103.479 1059.86,-109.685 1055.34,-107.548 1055.34,-107.548 1055.34,-107.548 1059.86,-109.685 1053.42,-111.616 1064.38,-111.822 1064.38,-111.822"/>
</g>
<!-- User&#45;&gt;UserRole -->
<g id="edge36" class="edge"><title>User&#45;&gt;UserRole</title>
<path fill="none" stroke="#8c6fab" d="M1102.27,-428.945C1102.27,-399.167 1102.27,-364.464 1102.27,-335.365"/>
<ellipse fill="none" stroke="#8c6fab" cx="1102.27" cy="-433.266" rx="4" ry="4"/>
<polygon fill="#8c6fab" stroke="#8c6fab" points="1102.27,-335.323 1106.77,-325.323 1102.27,-330.323 1102.27,-325.323 1102.27,-325.323 1102.27,-325.323 1102.27,-330.323 1097.77,-325.323 1102.27,-335.323 1102.27,-335.323"/>
</g>
<!-- Vehicle&#45;&gt;Note -->
<g id="edge37" class="edge"><title>Vehicle&#45;&gt;Note</title>
<path fill="none" stroke="#62ec9d" d="M465.054,-632.666C461.17,-496.691 478.885,-307.564 587.272,-188 630.409,-140.414 807.11,-105.378 911.002,-88.4179"/>
<ellipse fill="none" stroke="#62ec9d" cx="465.184" cy="-636.729" rx="4" ry="4"/>
<polygon fill="#62ec9d" stroke="#62ec9d" points="911.258,-88.3766 921.847,-91.2265 916.194,-87.5803 921.13,-86.784 921.13,-86.784 921.13,-86.784 916.194,-87.5803 920.414,-82.3414 911.258,-88.3766 911.258,-88.3766"/>
</g>
<!-- Vehicle&#45;&gt;DailyDataVehicle -->
<g id="edge38" class="edge"><title>Vehicle&#45;&gt;DailyDataVehicle</title>
<path fill="none" stroke="#391576" d="M577.511,-666.002C604.551,-628.915 632.652,-590.372 655.036,-559.671"/>
<ellipse fill="none" stroke="#391576" cx="575.132" cy="-669.265" rx="4.00002" ry="4.00002"/>
<polygon fill="#391576" stroke="#391576" points="655.301,-559.308 664.829,-553.879 658.247,-555.268 661.193,-551.227 661.193,-551.227 661.193,-551.227 658.247,-555.268 657.557,-548.576 655.301,-559.308 655.301,-559.308"/>
</g>
<!-- VehicleFuel -->
<g id="node22" class="node"><title>VehicleFuel</title>
<path fill="none" stroke="black" d="M87.7715,-1054.5C87.7715,-1054.5 200.772,-1054.5 200.772,-1054.5 206.772,-1054.5 212.772,-1060.5 212.772,-1066.5 212.772,-1066.5 212.772,-1163.5 212.772,-1163.5 212.772,-1169.5 206.772,-1175.5 200.772,-1175.5 200.772,-1175.5 87.7715,-1175.5 87.7715,-1175.5 81.7715,-1175.5 75.7715,-1169.5 75.7715,-1163.5 75.7715,-1163.5 75.7715,-1066.5 75.7715,-1066.5 75.7715,-1060.5 81.7715,-1054.5 87.7715,-1054.5"/>
<text text-anchor="middle" x="144.272" y="-1160.3" font-family="Times,serif" font-size="14.00">VehicleFuel</text>
<polyline fill="none" stroke="black" points="75.7715,-1152.5 212.772,-1152.5 "/>
<text text-anchor="start" x="83.7715" y="-1137.3" font-family="Times,serif" font-size="14.00">id :integer</text>
<text text-anchor="start" x="83.7715" y="-1122.3" font-family="Times,serif" font-size="14.00">fuelType :string</text>
<text text-anchor="start" x="83.7715" y="-1107.3" font-family="Times,serif" font-size="14.00">fuelTankSize :integer</text>
<text text-anchor="start" x="83.7715" y="-1092.3" font-family="Times,serif" font-size="14.00">mpg :integer</text>
<text text-anchor="start" x="83.7715" y="-1077.3" font-family="Times,serif" font-size="14.00">created_at :datetime</text>
<text text-anchor="start" x="83.7715" y="-1062.3" font-family="Times,serif" font-size="14.00">updated_at :datetime</text>
</g>
<!-- VehicleFuel&#45;&gt;Vehicle -->
<g id="edge39" class="edge"><title>VehicleFuel&#45;&gt;Vehicle</title>
<path fill="none" stroke="#b03605" d="M181.899,-1047.04C193.637,-1028.87 207.435,-1009.86 222.272,-994 269.084,-943.966 330.076,-897.574 381.113,-862.71"/>
<ellipse fill="none" stroke="#b03605" cx="179.481" cy="-1050.85" rx="4.00002" ry="4.00002"/>
<polygon fill="#b03605" stroke="#b03605" points="381.263,-862.608 392.066,-860.721 385.402,-859.802 389.54,-856.996 389.54,-856.996 389.54,-856.996 385.402,-859.802 387.015,-853.272 381.263,-862.608 381.263,-862.608"/>
</g>
<!-- VehicleOdometer -->
<g id="node23" class="node"><title>VehicleOdometer</title>
<path fill="none" stroke="black" d="M243.272,-1054.5C243.272,-1054.5 381.272,-1054.5 381.272,-1054.5 387.272,-1054.5 393.272,-1060.5 393.272,-1066.5 393.272,-1066.5 393.272,-1163.5 393.272,-1163.5 393.272,-1169.5 387.272,-1175.5 381.272,-1175.5 381.272,-1175.5 243.272,-1175.5 243.272,-1175.5 237.272,-1175.5 231.272,-1169.5 231.272,-1163.5 231.272,-1163.5 231.272,-1066.5 231.272,-1066.5 231.272,-1060.5 237.272,-1054.5 243.272,-1054.5"/>
<text text-anchor="middle" x="312.272" y="-1160.3" font-family="Times,serif" font-size="14.00">VehicleOdometer</text>
<polyline fill="none" stroke="black" points="231.272,-1152.5 393.272,-1152.5 "/>
<text text-anchor="start" x="239.272" y="-1137.3" font-family="Times,serif" font-size="14.00">id :integer</text>
<text text-anchor="start" x="239.272" y="-1122.3" font-family="Times,serif" font-size="14.00">odometerReading :integer</text>
<text text-anchor="start" x="239.272" y="-1107.3" font-family="Times,serif" font-size="14.00">startDate :datetime</text>
<text text-anchor="start" x="239.272" y="-1092.3" font-family="Times,serif" font-size="14.00">endDate :datetime</text>
<text text-anchor="start" x="239.272" y="-1077.3" font-family="Times,serif" font-size="14.00">created_at :datetime</text>
<text text-anchor="start" x="239.272" y="-1062.3" font-family="Times,serif" font-size="14.00">updated_at :datetime</text>
</g>
<!-- VehicleOdometer&#45;&gt;Vehicle -->
<g id="edge40" class="edge"><title>VehicleOdometer&#45;&gt;Vehicle</title>
<path fill="none" stroke="#1ca984" d="M348.399,-1046.88C361.308,-1022.89 376.488,-994.687 391.885,-966.08"/>
<ellipse fill="none" stroke="#1ca984" cx="346.353" cy="-1050.68" rx="4.00002" ry="4.00002"/>
<polygon fill="#1ca984" stroke="#1ca984" points="391.928,-965.999 400.63,-959.326 394.298,-961.596 396.668,-957.193 396.668,-957.193 396.668,-957.193 394.298,-961.596 392.705,-955.06 391.928,-965.999 391.928,-965.999"/>
</g>
<!-- VehicleType -->
<g id="node24" class="node"><title>VehicleType</title>
<path fill="none" stroke="black" d="M423.272,-1047C423.272,-1047 539.272,-1047 539.272,-1047 545.272,-1047 551.272,-1053 551.272,-1059 551.272,-1059 551.272,-1171 551.272,-1171 551.272,-1177 545.272,-1183 539.272,-1183 539.272,-1183 423.272,-1183 423.272,-1183 417.272,-1183 411.272,-1177 411.272,-1171 411.272,-1171 411.272,-1059 411.272,-1059 411.272,-1053 417.272,-1047 423.272,-1047"/>
<text text-anchor="middle" x="481.272" y="-1167.8" font-family="Times,serif" font-size="14.00">VehicleType</text>
<polyline fill="none" stroke="black" points="411.272,-1160 551.272,-1160 "/>
<text text-anchor="start" x="419.272" y="-1144.8" font-family="Times,serif" font-size="14.00">id :integer</text>
<text text-anchor="start" x="419.272" y="-1129.8" font-family="Times,serif" font-size="14.00">vehicleSize :string</text>
<text text-anchor="start" x="419.272" y="-1114.8" font-family="Times,serif" font-size="14.00">bulkBoolean :boolean</text>
<text text-anchor="start" x="419.272" y="-1099.8" font-family="Times,serif" font-size="14.00">bodyMake :string</text>
<text text-anchor="start" x="419.272" y="-1084.8" font-family="Times,serif" font-size="14.00">bodyModel :string</text>
<text text-anchor="start" x="419.272" y="-1069.8" font-family="Times,serif" font-size="14.00">created_at :datetime</text>
<text text-anchor="start" x="419.272" y="-1054.8" font-family="Times,serif" font-size="14.00">updated_at :datetime</text>
</g>
<!-- VehicleType&#45;&gt;Vehicle -->
<g id="edge41" class="edge"><title>VehicleType&#45;&gt;Vehicle</title>
<path fill="none" stroke="#0937bc" d="M481.272,-1038.44C481.272,-1016.82 481.272,-992.353 481.272,-967.53"/>
<ellipse fill="none" stroke="#0937bc" cx="481.272" cy="-1042.64" rx="4" ry="4"/>
<polygon fill="#0937bc" stroke="#0937bc" points="481.272,-967.256 485.772,-957.256 481.272,-962.256 481.272,-957.256 481.272,-957.256 481.272,-957.256 481.272,-962.256 476.772,-957.256 481.272,-967.256 481.272,-967.256"/>
</g>
<!-- Zip&#45;&gt;Psazip -->
<g id="edge42" class="edge"><title>Zip&#45;&gt;Psazip</title>
<path fill="none" stroke="#8cc1da" d="M1948.71,-219.191C1961.42,-194.286 1976.74,-164.262 1990.02,-138.234"/>
<ellipse fill="none" stroke="#8cc1da" cx="1946.8" cy="-222.93" rx="4.00002" ry="4.00002"/>
<polygon fill="#8cc1da" stroke="#8cc1da" points="1990.08,-138.116 1998.64,-131.254 1992.36,-133.662 1994.63,-129.209 1994.63,-129.209 1994.63,-129.209 1992.36,-133.662 1990.62,-127.163 1990.08,-138.116 1990.08,-138.116"/>
</g>
<!-- Zip&#45;&gt;Note -->
<g id="edge43" class="edge"><title>Zip&#45;&gt;Note</title>
<path fill="none" stroke="#4462ee" d="M1885.94,-220.026C1874.63,-207.635 1861.17,-195.739 1846.27,-188 1777.57,-152.318 1263.06,-102.118 1065.34,-83.9249"/>
<ellipse fill="none" stroke="#4462ee" cx="1888.67" cy="-223.13" rx="4.00002" ry="4.00002"/>
<polygon fill="#4462ee" stroke="#4462ee" points="1065.28,-83.9192 1055.73,-78.5241 1060.3,-83.4622 1055.32,-83.0052 1055.32,-83.0052 1055.32,-83.0052 1060.3,-83.4622 1054.91,-87.4864 1065.28,-83.9192 1065.28,-83.9192"/>
</g>
</g>
</svg>
